<svg xmlns="http://www.w3.org/2000/svg" width="472.90589" height="358.76206" viewBox="0 0 472.90589 358.76206" xmlns:xlink="http://www.w3.org/1999/xlink"><path d="M402.92675,341.53699c2.06592,.12936,3.20769-2.43738,1.64468-3.93332l-.1555-.61819c.02048-.0495,.04105-.09897,.06178-.14838,2.08923-4.98181,9.16992-4.94742,11.24139,.04178,1.83859,4.42816,4.17942,8.86389,4.75579,13.54593,.25838,2.0668,.14213,4.17236-.31648,6.20047,4.30807-9.41058,6.57515-19.68661,6.57515-30.02078,0-2.59653-.14213-5.19302-.43275-7.78296-.239-2.11853-.56839-4.22409-.99471-6.31033-2.30575-11.27719-7.29852-22.01825-14.50012-30.98962-3.46197-1.89249-6.34907-4.85065-8.09295-8.39651-.6265-1.2789-1.11739-2.65463-1.34991-4.05618,.39398,.05167,1.48557-5.94867,1.18842-6.3168,.54906-.83316,1.53178-1.24734,2.13144-2.06033,2.98232-4.0434,7.0912-3.3374,9.23621,2.15726,4.58224,2.31265,4.62659,6.14807,1.81495,9.83682-1.78878,2.34683-2.03456,5.52234-3.60408,8.03479,.16151,.2067,.32944,.40695,.4909,.61365,2.96106,3.79788,5.52208,7.88,7.68104,12.16858-.61017-4.7662,.29067-10.50821,1.82641-14.20959,1.74819-4.21732,5.02491-7.76917,7.91045-11.41501,3.46601-4.37924,10.57337-2.46805,11.18401,3.08331,.00591,.05374,.01166,.10745,.01731,.16119-.4286,.24179-.84849,.49866-1.25864,.76993-2.33949,1.54724-1.53096,5.17386,1.24107,5.60175l.06277,.00967c-.15503,1.54367-.41984,3.07443-.80734,4.57938,3.70179,14.3158-4.29011,19.52991-15.70147,19.76413-.25191,.12915-.49738,.25833-.74929,.3811,1.15617,3.25525,2.07982,6.59448,2.76441,9.97891,.61359,2.99042,1.03991,6.01318,1.27885,9.04889,.29715,3.83005,.27129,7.6796-.05168,11.50323l.01939-.13562c.82024-4.21115,3.10671-8.14462,6.4266-10.87027,4.94561-4.06265,11.93282-5.55869,17.26826-8.82425,2.56833-1.57196,5.85945,.45944,5.41121,3.43707l-.02182,.14261c-.79443,.32288-1.56947,.69754-2.31871,1.11734-.4286,.24185-.84848,.49866-1.25864,.76993-2.33949,1.5473-1.53096,5.17392,1.24107,5.60181l.06282,.00964c.0452,.00647,.08397,.01294,.12911,.01944-1.36282,3.23581-3.26168,6.23923-5.63854,8.82922-2.31463,12.49713-12.25603,13.68283-22.89022,10.04355h-.00648c-1.16259,5.06378-2.86128,10.01126-5.0444,14.72623h-18.0202c-.06464-.2002-.12274-.40692-.18089-.60718,1.6664,.10339,3.3457,.00647,4.9863-.297-1.33701-1.64059-2.67397-3.2941-4.01097-4.93463-.03229-.03229-.05817-.06461-.08397-.09689-.67818-.8396-1.36282-1.67282-2.04099-2.51245l-.00037-.00101c-.04245-2.57755,.26653-5.14661,.87875-7.63983l.00056-.00034,.00003-.00012Z" fill="#f2f2f2"/><path d="M155.23584,357.57205c0,.66003,.53003,1.19,1.19006,1.19H471.71589c.65997,0,1.19-.52997,1.19-1.19,0-.65997-.53003-1.19-1.19-1.19H156.42591c-.66003,0-1.19006,.53003-1.19006,1.19Z" fill="#ccc"/><path d="M273.67999,271.58181l-4.87,3.90997-1.56,1.26001c-.14001-.19-.29999-.39001-.46002-.57001-1.52997-1.72998-3.72998-2.71997-6.02997-2.71997h-39.08002c-.13-.66003-.15997-1.33002-.09998-2,.16998-1.94,1.09998-3.81,2.73999-5.12l27.45001-22.05005c3.17999-2.56,7.83997-2.04999,10.39996,1.14001l12.65002,15.75c2.56,3.19,2.04999,7.84003-1.14001,10.40002Z" fill="#e6e6e6"/><path d="M265.5,273.46182h-48.26001c-1.26001,0-2.48999,.29999-3.58997,.85999l-.27002-.21002c-.47998-.37-.91003-.78998-1.26001-1.23999-2.08997-2.59998-2.21997-6.37-.09998-9.13l12.31-16.01996c2.48999-3.24005,7.13995-3.85004,10.38-1.36005l27.90997,21.45001c1.26001,.96002,2.10999,2.25,2.54999,3.65002,.20001,.64996,.32001,1.32001,.33002,2Z" fill="#20ac64"/><g><path d="M304.97998,25.46182H19.02002C8.53003,25.46182,0,33.99179,0,44.48178V339.4418c0,10.48999,8.53003,19.02002,19.02002,19.02002H304.97998c10.48999,0,19.02002-8.53003,19.02002-19.02002V44.48178c0-10.48999-8.53003-19.01996-19.02002-19.01996Zm17.02002,313.97998c0,9.39001-7.63,17.02002-17.02002,17.02002H19.02002c-9.39001,0-17.02002-7.63-17.02002-17.02002V44.48178c0-9.38995,7.63-17.01996,17.02002-17.01996H304.97998c9.39001,0,17.02002,7.63,17.02002,17.01996V339.4418Z" fill="#3f3d56"/><g><path d="M129.03003,44.81179h-28.06006c-1.40997,0-2.56,1.15002-2.56,2.56,0,1.41998,1.15002,2.57001,2.56,2.57001h28.06006c1.40997,0,2.56-1.15002,2.56-2.57001,0-1.40997-1.15002-2.56-2.56-2.56Z" fill="#e6e6e6"/><path d="M176.03003,44.81179h-28.06006c-1.40997,0-2.56,1.15002-2.56,2.56,0,1.41998,1.15002,2.57001,2.56,2.57001h28.06006c1.40997,0,2.56-1.15002,2.56-2.57001,0-1.40997-1.15002-2.56-2.56-2.56Z" fill="#e6e6e6"/><path d="M223.03003,44.81179h-28.06006c-1.40997,0-2.56,1.15002-2.56,2.56,0,1.41998,1.15002,2.57001,2.56,2.57001h28.06006c1.40997,0,2.56-1.15002,2.56-2.57001,0-1.40997-1.15002-2.56-2.56-2.56Z" fill="#e6e6e6"/></g><path d="M87.59998,95.96182H52.40002c-4.36005,0-7.90002,3.53998-7.90002,7.89996v20.20001c0,4.35999,3.53998,7.90002,7.90002,7.90002h35.19995c4.36005,0,7.90002-3.54004,7.90002-7.90002v-20.20001c0-4.35999-3.53998-7.89996-7.90002-7.89996Z" fill="#f2f2f2"/><path d="M87.59998,148.96182H52.40002c-4.36005,0-7.90002,3.53998-7.90002,7.89996v20.20001c0,4.35999,3.53998,7.90002,7.90002,7.90002h35.19995c4.36005,0,7.90002-3.54004,7.90002-7.90002v-20.20001c0-4.35999-3.53998-7.89996-7.90002-7.89996Z" fill="#e6e6e6"/><path d="M87.59998,201.96182H52.40002c-4.36005,0-7.90002,3.53998-7.90002,7.89996v20.20001c0,4.35999,3.53998,7.90002,7.90002,7.90002h35.19995c4.36005,0,7.90002-3.54004,7.90002-7.90002v-20.20001c0-4.35999-3.53998-7.89996-7.90002-7.89996Z" fill="#e6e6e6"/><path d="M165.59998,95.96182h-35.19995c-4.36005,0-7.90002,3.53998-7.90002,7.89996v20.20001c0,4.35999,3.53998,7.90002,7.90002,7.90002h35.19995c4.36005,0,7.90002-3.54004,7.90002-7.90002v-20.20001c0-4.35999-3.53998-7.89996-7.90002-7.89996Z" fill="#e6e6e6"/><path d="M165.59998,148.96182h-35.19995c-4.36005,0-7.90002,3.53998-7.90002,7.89996v20.20001c0,4.35999,3.53998,7.90002,7.90002,7.90002h35.19995c4.36005,0,7.90002-3.54004,7.90002-7.90002v-20.20001c0-4.35999-3.53998-7.89996-7.90002-7.89996Z" fill="#f2f2f2"/><path d="M243.59998,148.96182h-35.19995c-4.36005,0-7.90002,3.53998-7.90002,7.89996v20.20001c0,4.35999,3.53998,7.90002,7.90002,7.90002h35.19995c4.36005,0,7.90002-3.54004,7.90002-7.90002v-20.20001c0-4.35999-3.53998-7.89996-7.90002-7.89996Z" fill="#e6e6e6"/><path d="M269.31,299.96182H54.69c-8.92999,0-16.19,7.26001-16.19,16.19v14.62c0,8.92999,7.26001,16.19,16.19,16.19h214.62c8.92999,0,16.19-7.26001,16.19-16.19v-14.62c0-8.92999-7.26001-16.19-16.19-16.19Z" fill="#f2f2f2"/></g><path d="M276.81,271.49179c-.16998-.20996-.34003-.42999-.52002-.63-1.90997-2.15997-4.64996-3.39996-7.52997-3.39996-18.13251,2.69287-36.64648,2.64032-55.52002,0-1.82001,0-3.58002,.5-5.12,1.40997-.89001,.52002-1.71002,1.19-2.40997,1.98999-1.91003,2.15002-2.80005,5.03003-2.45001,7.89001l8.77002,70.89001c.62,5.02997,4.90997,8.82001,9.96997,8.82001h38c5.06,0,9.34998-3.79004,9.96997-8.82001l8.77002-70.89001c.32001-2.58997-.38-5.19-1.92999-7.26001Z" fill="#fff"/><path d="M276.81,271.49179c-.16998-.20996-.34003-.42999-.52002-.63-1.90997-2.15997-4.64996-3.39996-7.52997-3.39996-18.50665,1.98419-37.01337,1.98419-55.52002,0-1.82001,0-3.58002,.5-5.12,1.40997-.89001,.52002-1.71002,1.19-2.40997,1.98999-1.91003,2.15002-2.80005,5.03003-2.45001,7.89001l8.77002,70.89001c.22998,1.89001,.97998,3.59998,2.08997,5,1.84998,2.33002,4.69,3.81,7.84003,3.82001h38.03998c3.53003,0,6.69-1.85004,8.47998-4.67004,.78003-1.22998,1.30005-2.62994,1.48999-4.14996l8.77002-70.89001c.32001-2.58997-.38-5.19-1.92999-7.26001Zm-.06,7.01001l-8.76001,70.89001c0,.02002-.01001,.04999-.01001,.07001-.52997,4-3.94995,7-7.97998,7h-38c-4.03003,0-7.45001-3-7.97998-7,0-.02002-.01001-.04999-.01001-.07001l-8.76001-70.89001c-.28003-2.28998,.42999-4.58997,1.96002-6.32001,.69-.77997,1.51996-1.40997,2.44-1.85999,1.09998-.56,2.32996-.85999,3.58997-.85999,18.5069,3.60101,37.01361,3.60114,55.52002,0,2.29999,0,4.5,.98999,6.02997,2.71997,.16003,.17999,.32001,.38,.46002,.57001,1.21002,1.65002,1.75,3.71002,1.5,5.75Z" fill="#3f3d56"/><path d="M269,349.46182l-.52002,4.32996c-1.78998,2.82001-4.94995,4.67004-8.47998,4.67004h-38.03998c-3.15002-.01001-5.99005-1.48999-7.84003-3.82001l-.12-5.17999h55Z" fill="#3f3d56"/><g><g><polygon points="309.03116 117.28576 261.16666 150.17845 255.26594 143.79936 299.29665 106.90625 309.03116 117.28576" fill="#a0616a"/><ellipse cx="253.40981" cy="150.71903" rx="10.94042" ry="6.49587" transform="translate(-38.54487 191.89211) rotate(-38.76989)" fill="#a0616a"/></g><g><polygon points="333.60661 353.01047 324.51176 353.00957 320.18529 317.92904 333.60846 317.92996 333.60661 353.01047" fill="#a0616a"/><path d="M302.44653,352.80414h0c-.28316,.47691-.4326,2.01623-.4326,2.57086h0c0,1.7048,1.38201,3.08681,3.0868,3.08681h28.16569c1.16302,0,2.10583-.94281,2.10583-2.10583v-1.17263s1.39335-3.52434-1.47531-7.8683c0,0-3.56532,3.4014-8.89282-1.92609l-1.57103-2.84602-11.37211,8.31695-6.30339,.77588c-1.37903,.16975-2.6017-.02635-3.31106,1.16837Z" fill="#2f2e41"/></g><g><polygon points="364.34195 353.01047 355.2471 353.00957 350.92063 317.92904 364.3438 317.92996 364.34195 353.01047" fill="#a0616a"/><path d="M333.18187,352.80414h0c-.28316,.47691-.4326,2.01623-.4326,2.57086h0c0,1.7048,1.38201,3.08681,3.0868,3.08681h28.16569c1.16302,0,2.10583-.94281,2.10583-2.10583v-1.17263s1.39335-3.52434-1.47531-7.8683c0,0-3.56532,3.4014-8.89282-1.92609l-1.57103-2.84602-11.37211,8.31695-6.30339,.77588c-1.37903,.16975-2.6017-.02635-3.31106,1.16837Z" fill="#2f2e41"/></g><path d="M317.95282,157.48015l-10.41876,100.02009s7.29313,68.24287,8.85595,68.24287,3.12563,1.28799,1.56281,2.72775-3.64657,2.48163-1.56281,2.48163,2.33655-.63579,2.21015,1.50539-1.68921,3.70399-1.68921,3.70399l21.35846-1.56281-2.60469-69.80569,9.89782-55.74036s3.12563,116.16916,4.1675,117.21104,1.04188-1.56281,1.04188,1.04188-1.04188,3.64657-1.04188,3.64657l-.04922,5.20938h15.50508l22.05167-144.82075-3.64657-36.46566-65.63818,2.60469Z" fill="#2f2e41"/><path d="M369.00474,49.64599h-18.75377l-11.25097,2.81583c-6.07632,3.60781-16.9692,14.34506-16.69473,21.4064l2.41975,62.25347s-8.28783,19.53282-6.72501,19.53282-6.03797,6.25361-6.03797,9.90017-2.60469,3.12563-1.04188,4.68844,76.31741,0,76.31741,0c0,0,.78141-1.56281,.78141-4.1675s1.55051-4.1552,1.55051-4.1552v-4.89148l-4.67614-17.00022,8.33501-76.05694-24.22362-14.32579Z" fill="#20ac64"/><path d="M275.4043,125.62393l6.38574,11.05664c3.48682-2.11133,20.33105-12.23047,23.24463-12.46582,1.09717-.08887,1.34277-.29492,1.39209-.35645,.04834-.06055,.03418-.19629,.00488-.41309-.04541-.33594-.11377-.84375,.27979-1.27734,.57715-.63574,1.0835-.25293,1.32812-.06934,.37891,.28613,1.01465,.76465,3.06201,.47461,.52393-.07422,.85352-.1377,1.06055-.1875l-.02295-.02148c-.44629-.4209-1.19385-1.125-1.24805-2.25586-.04883-1.0127-.06201-1.28418,.30713-1.45898,.34082-.15918,.60645,.08008,.76465,.22266,.26709,.24316,.70654,.64062,1.61133,.60645,2.31396-.75684,23.81982-31.80859,28.01855-44.17871,1.0459-3.08008,.9165-5.94043-.38379-8.5-2.49316-4.90771-8.59717-7.36621-10.10352-7.91016l-30.52979,42.84668-25.17139,23.8877Z" fill="#20ac64"/><circle cx="359.95881" cy="25.43649" r="20.20071" fill="#a0616a"/><path d="M384.3985,13.15946c-1.77515-3.80701-5.70966-6.76508-9.90466-6.54926,.25293-1.0567-.21552-2.18756-.96912-2.97021-.75366-.78259-1.75708-1.27234-2.76276-1.68359-4.97064-2.03259-10.56866-2.4989-15.80713-1.31671-.52578-.72812-8.0022,1.10956-7.10815,1.49969,.89398,.3902-2.37457,1.32208-2.52905,2.28528-.16919,1.0553-1.28729,1.70227-2.34338,1.86688-1.05609,.16467-2.14618,.00439-3.19611,.20447-2.11603,.40314,.25214,3.00464,.22186,5.15851-.03033,2.15393-2.45587,3.63-.35199,4.09253,2.17151,.47742-.83228,4.32245,1.35199,3.90747,4.94128-.93872,26.51929-2.94019,28.4397,1.70844,.5332,1.29077,.86731,2.7533,1.91522,3.67651,1.42639,1.25671,3.80267,1.1557,4.96948,2.65656,.94061,1.2099,.67114,2.98627-.02448,4.35181s-1.75366,2.52856-2.38385,3.92554c-.84491,1.87286-.84033,3.95905-.59912,6.03009,.18677-.09741,.47382-.19476,.90399-.29218l-.18555,.02338c5.39087-3.92682,9.35168-9.77448,10.99817-16.23749,1.03699-4.07056,1.14014-8.5307-.63507-12.33771Z" fill="#2f2e41"/><rect x="356" y="181.46182" width="50" height="35" rx="7.39764" ry="7.39764" fill="#20ac64"/><g><polygon points="405.62114 124.97896 385.65054 179.5144 377.14571 177.7314 391.67407 122.15504 405.62114 124.97896" fill="#a0616a"/><ellipse cx="379.64005" cy="184.44745" rx="10.94042" ry="6.49587" transform="translate(98.5753 499.32843) rotate(-74.16042)" fill="#a0616a"/></g><path d="M373,52.46182s21.79117,3.6959,27.00055,15.67747,10.41876,50.53098,8.85595,52.0938-3.12563,0-1.56281,1.56281,4.21039-.49633,1.84472,2.35653-3.40754,1.29004-3.40754,2.33192,2.08375,.75885,0,2.98411-8.85595,25.14654-8.85595,25.14654l-13.02345-4.1675,2.60469-34.90284-13.45616-63.08282Z" fill="#20ac64"/></g><rect x="226" y="152.46182" width="50" height="35" rx="7.39764" ry="7.39764" fill="#3f3d56"/><rect x="239.90495" y="246.00657" width="2.00016" height="71.81576" transform="translate(-44.02375 519.24667) rotate(-89.27774)" fill="#3f3d56"/></svg>