<svg fill="#000000" xmlns="http://www.w3.org/2000/svg"  viewBox="0 0 50 50" width="1000px" height="1000px"><path d="M 45.017578 3 A 1.0001 1.0001 0 0 0 44.533203 3.1152344 C 44.533203 3.1152344 43.545746 3.6357788 42.449219 4.1367188 C 41.900955 4.3871887 41.326225 4.6319569 40.859375 4.796875 C 40.392525 4.9617931 39.929572 4.9831585 40.125 5.0078125 C 33.041331 4.1115246 22.88819 7.6977473 14.292969 16.292969 C 9.3756746 21.210768 5.5238735 26.160532 3.7695312 30.888672 C 2.0151892 35.616812 2.5198145 40.298158 6.3203125 43.837891 C 10.360406 47.599835 15.247077 48.106791 20.095703 46.34375 C 24.944329 44.580709 29.87417 40.692186 34.71875 35.695312 C 43.58076 26.555124 46.012566 17.427702 44.992188 8.8808594 C 45.013928 9.0613687 45.020428 8.5676791 45.105469 8.0917969 C 45.190719 7.6147605 45.314888 7.0232246 45.443359 6.4511719 C 45.700302 5.3070664 45.96875 4.2460938 45.96875 4.2460938 A 1.0001 1.0001 0 0 0 45.017578 3 z M 43.535156 5.8300781 C 43.513926 5.9229601 43.513438 5.9170851 43.492188 6.0117188 C 43.360034 6.600166 43.231001 7.2126458 43.136719 7.7402344 C 43.042439 8.267823 42.943441 8.5749493 43.007812 9.1171875 A 1.0001 1.0001 0 0 0 43.007812 9.1191406 C 43.965435 17.140301 41.81324 25.504876 33.28125 34.304688 C 28.55083 39.183813 23.773733 42.878885 19.412109 44.464844 C 15.050485 46.050803 11.223547 45.673056 7.6816406 42.375 C 4.4281386 39.344732 4.0693265 35.834594 5.6464844 31.583984 C 7.2236422 27.333375 10.898325 22.516232 15.707031 17.707031 C 23.93581 9.4782527 33.712669 6.2124754 39.875 6.9921875 C 40.557928 7.0783415 40.963334 6.8801913 41.525391 6.6816406 C 42.087447 6.4830899 42.701389 6.2199831 43.28125 5.9550781 C 43.416118 5.8934641 43.405316 5.8911351 43.535156 5.8300781 z M 33.996094 9.9980469 A 1.000281 1.000281 0 0 0 33.955078 10 A 1.0001 1.0001 0 0 0 33.884766 10.005859 C 29.281371 10.539702 23.346235 14.90322 18.029297 19.96875 C 12.712359 25.03428 8.1614604 30.702349 7.0371094 34.730469 A 1.0001 1.0001 0 1 0 8.9628906 35.269531 C 9.8175396 32.207651 14.235391 26.344235 19.408203 21.416016 C 24.581015 16.487796 30.656627 12.395257 34.115234 11.994141 A 1.000281 1.000281 0 0 0 33.996094 9.9980469 z M 36.001953 13.990234 A 1.0001 1.0001 0 0 0 35.308594 14.277344 L 11.308594 37.277344 A 1.000137 1.000137 0 1 0 12.691406 38.722656 L 36.691406 15.722656 A 1.0001 1.0001 0 0 0 36.001953 13.990234 z M 40.021484 15.986328 A 1.0001 1.0001 0 0 0 39.027344 16.769531 C 38.164651 20.401562 34.495842 26.150794 29.818359 31.066406 C 25.140876 35.982019 19.422689 40.107292 14.806641 41.019531 A 1.0001 1.0001 0 1 0 15.193359 42.980469 C 20.591311 41.913708 26.423311 37.5362 31.267578 32.445312 C 36.111845 27.354425 39.936349 21.593438 40.972656 17.230469 A 1.0001 1.0001 0 0 0 40.021484 15.986328 z"/></svg>