<svg xmlns="http://www.w3.org/2000/svg"  viewBox="0 0 50 50" width="1000px" height="1000px"><path d="M 45.375 3 C 45.226563 3.015625 45.078125 3.058594 44.9375 3.125 L 33.1875 8.65625 C 32.878906 8.800781 32.585938 9.007813 32.34375 9.25 L 28.6875 12.90625 L 25.1875 12.90625 C 23.875 12.90625 22.613281 13.417969 21.6875 14.34375 L 7.46875 28.53125 L 6.78125 29.25 L 7.46875 29.96875 L 8.15625 30.65625 L 7.875 30.9375 L 6.09375 30.5625 L 5.5625 30.4375 L 5.1875 30.84375 L 3.28125 32.71875 L 2.59375 33.4375 L 3.28125 34.15625 L 15.84375 46.71875 L 16.5625 47.40625 L 17.28125 46.71875 L 19.15625 44.8125 L 19.5625 44.4375 L 19.4375 43.90625 L 19.0625 42.125 L 19.34375 41.84375 L 20.03125 42.53125 L 20.75 43.21875 L 21.46875 42.53125 L 35.65625 28.3125 C 36.582031 27.386719 37.09375 26.125 37.09375 24.8125 L 37.09375 21.3125 L 40.75 17.65625 C 40.992188 17.414063 41.199219 17.121094 41.34375 16.8125 L 46.875 5.0625 C 47.144531 4.496094 46.953125 3.828125 46.5625 3.4375 C 46.367188 3.242188 46.101563 3.085938 45.8125 3.03125 C 45.667969 3.003906 45.523438 2.984375 45.375 3 Z M 44.4375 5.5625 L 39.53125 15.96875 C 39.484375 16.070313 39.421875 16.140625 39.34375 16.21875 L 36.09375 19.46875 L 30.53125 13.90625 L 33.78125 10.65625 C 33.859375 10.578125 33.929688 10.515625 34.03125 10.46875 Z M 37.875 10.4375 C 37.84375 10.445313 37.8125 10.457031 37.78125 10.46875 C 37.660156 10.488281 37.542969 10.53125 37.4375 10.59375 L 35.59375 11.625 C 35.523438 11.679688 35.460938 11.742188 35.40625 11.8125 L 33.3125 13.90625 C 33.015625 14.148438 32.878906 14.535156 32.964844 14.910156 C 33.050781 15.28125 33.34375 15.574219 33.714844 15.660156 C 34.089844 15.746094 34.476563 15.609375 34.71875 15.3125 L 36.75 13.28125 L 38.4375 12.34375 C 38.90625 12.144531 39.152344 11.628906 39.007813 11.140625 C 38.863281 10.652344 38.375 10.347656 37.875 10.4375 Z M 25.1875 14.90625 L 28.71875 14.90625 L 35.09375 21.28125 L 35.09375 24.8125 C 35.09375 25.59375 34.800781 26.355469 34.25 26.90625 L 20.75 40.375 L 20.0625 39.71875 L 10.28125 29.9375 L 9.625 29.25 L 23.09375 15.75 C 23.644531 15.199219 24.40625 14.90625 25.1875 14.90625 Z M 27.84375 16.96875 C 27.84375 16.96875 27.140625 16.980469 26.34375 17.03125 C 25.945313 17.058594 25.519531 17.082031 25.125 17.15625 C 24.730469 17.230469 24.375 17.25 23.90625 17.71875 L 13.0625 28.53125 C 12.664063 28.917969 12.660156 29.554688 13.046875 29.953125 C 13.433594 30.351563 14.070313 30.355469 14.46875 29.96875 L 25.21875 19.21875 C 25.261719 19.195313 25.371094 19.148438 25.5 19.125 C 25.753906 19.074219 26.121094 19.054688 26.46875 19.03125 C 27.167969 18.984375 27.8125 18.96875 27.8125 18.96875 C 28.363281 18.976563 28.820313 18.535156 28.828125 17.984375 C 28.835938 17.433594 28.394531 16.976563 27.84375 16.96875 Z M 9.5625 32.0625 L 9.59375 32.0625 L 17.9375 40.40625 L 17.9375 40.4375 L 17.28125 41.0625 L 16.90625 41.4375 L 17.03125 41.96875 L 17.375 43.75 L 16.5625 44.5625 L 5.4375 33.4375 L 6.25 32.625 L 8.03125 32.96875 L 8.5625 33.09375 L 8.9375 32.71875 Z"/></svg>