<svg xmlns="http://www.w3.org/2000/svg"  viewBox="0 0 50 50" width="1000px" height="1000px"><path d="M 11.8125 1 C 11.335938 1.089844 10.992188 1.511719 11 2 C 11 25.675781 16.488281 38.109375 17 39.21875 L 17 46.59375 C 17 47.421875 17.589844 48.351563 18.8125 48.96875 C 20.035156 49.585938 21.917969 50 25 50 C 28.082031 50 29.953125 49.601563 31.1875 48.96875 C 32.421875 48.335938 33 47.324219 33 46.5 L 33 39.21875 C 33.511719 38.117188 39 25.78125 39 2 C 39 1.449219 38.550781 1 38 1 L 12 1 C 11.96875 1 11.9375 1 11.90625 1 C 11.875 1 11.84375 1 11.8125 1 Z M 13.03125 3 L 36.96875 3 C 36.964844 3.6875 36.953125 4.332031 36.9375 5 L 13.0625 5 C 13.046875 4.332031 13.035156 3.6875 13.03125 3 Z M 13.125 7 L 36.875 7 C 36.195313 26.917969 31.761719 37.136719 31.21875 38.3125 C 31.082031 38.378906 30.835938 38.484375 30.4375 38.59375 C 29.546875 38.835938 27.910156 39.09375 25.03125 39.09375 C 22.152344 39.09375 20.464844 38.835938 19.5625 38.59375 C 19.160156 38.484375 18.917969 38.382813 18.78125 38.3125 C 18.238281 37.128906 13.808594 26.824219 13.125 7 Z M 23 15 L 23 19 L 19 19 L 19 23 L 23 23 L 23 27 L 27 27 L 27 23 L 31 23 L 31 19 L 27 19 L 27 15 Z M 19 40.5 C 19.011719 40.503906 19.019531 40.496094 19.03125 40.5 C 20.167969 40.804688 22.027344 41.09375 25.03125 41.09375 C 28.035156 41.09375 29.839844 40.808594 30.96875 40.5 C 30.980469 40.496094 30.988281 40.503906 31 40.5 L 31 46.5 C 31 46.542969 31.054688 46.789063 30.28125 47.1875 C 29.507813 47.585938 27.898438 48 25 48 C 22.101563 48 20.5 47.582031 19.71875 47.1875 C 18.9375 46.792969 19 46.496094 19 46.59375 Z"/></svg>