<svg xmlns="http://www.w3.org/2000/svg"  viewBox="0 0 50 50" width="1000px" height="1000px"><path d="M 8.8007812 3 C 7.2655499 3 6 4.2655498 6 5.8007812 L 6 10.199219 C 6 10.915351 6.3200493 11.545457 6.7695312 12.042969 L 3.1679688 17.445312 A 1.0001 1.0001 0 0 0 3.4003906 18.800781 C 3.4003906 18.800781 4.3700622 19.501749 6 20.113281 L 6 41 C 6 44.301625 8.6983746 47 12 47 L 38 47 C 41.301625 47 44 44.301625 44 41 L 44 20 A 1.0001 1.0001 0 0 0 43.998047 19.958984 C 45.526413 19.419783 46.488281 18.873047 46.488281 18.873047 A 1.0001 1.0001 0 0 0 46.767578 17.359375 L 42.634766 12.400391 C 43.403705 11.898858 44 11.176806 44 10.199219 L 44 5.8007812 C 44 4.2655498 42.73445 3 41.199219 3 L 8.8007812 3 z M 8.8007812 5 L 41.199219 5 C 41.645987 5 42 5.3540127 42 5.8007812 L 42 10.199219 C 42 10.645987 41.645987 11 41.199219 11 L 41.128906 11 A 1.0001 1.0001 0 0 0 40.847656 11 L 8.8007812 11 C 8.3540128 11 8 10.645987 8 10.199219 L 8 5.8007812 C 8 5.3540127 8.3540127 5 8.8007812 5 z M 8.59375 12.914062 C 8.6724739 12.92085 8.7204332 13 8.8007812 13 L 40.53125 13 L 44.375 17.611328 C 43.189782 18.157298 40.972164 19.060753 38.021484 19 C 36.249827 18.963462 34.315418 18.341789 32.554688 17.167969 A 1.0001 1.0001 0 0 0 31.582031 17.091797 C 29.114149 18.226919 27.804444 19 25 19 C 22.900457 19 20.845724 18.541244 18.513672 17.142578 A 1.0001 1.0001 0 0 0 17.552734 17.105469 C 14.997231 18.383221 12.696499 18.996415 10.84375 19 C 7.9561974 19.006238 6.2878521 18.155781 5.4355469 17.648438 L 8.59375 12.914062 z M 17.988281 19.074219 C 20.42123 20.422296 22.752743 21 25 21 C 27.990658 21 29.794681 20.112201 31.980469 19.095703 C 33.892227 20.254041 35.958002 20.958329 37.978516 21 C 39.429268 21.029871 40.789582 20.820619 42 20.533203 L 42 41 C 42 43.220375 40.220375 45 38 45 L 12 45 C 9.7796254 45 8 43.220375 8 41 L 8 20.695312 C 8.8586953 20.876551 9.8065254 21.002249 10.847656 21 C 12.997362 20.9958 15.415024 20.300105 17.988281 19.074219 z M 31 22.951172 L 29.953125 23.001953 C 29.248365 23.035703 28.448866 23.239855 27.648438 23.568359 C 26.85151 23.895427 26.069214 24.320434 25.509766 25.025391 C 25.401076 25.155841 25.307049 25.314958 25.205078 25.460938 C 24.875592 24.745176 24.408114 23.994052 23.707031 23.292969 A 1.0001 1.0001 0 0 0 22.990234 22.990234 A 1.0001 1.0001 0 0 0 22.292969 24.707031 C 23.682834 26.096897 23.878554 27.901896 23.925781 28.523438 C 23.448928 28.285519 22.914506 28.003906 22.181641 28.003906 C 20.393088 28.003906 18.750548 29.014399 17.847656 30.523438 C 16.93987 32.01131 16.854717 33.766967 17.152344 35.371094 C 17.450337 36.977193 18.126156 38.467796 18.939453 39.585938 C 19.303594 40.092298 19.725287 40.649744 20.277344 41.123047 C 20.830546 41.597332 21.565254 42 22.435547 42 L 22.453125 42 L 22.470703 42 C 23.280264 41.97131 23.855197 41.563949 24.207031 41.332031 C 24.54803 41.107256 24.693387 41.022941 25 41.009766 C 25.306613 41.022946 25.45197 41.107256 25.792969 41.332031 C 26.144803 41.563949 26.719736 41.971315 27.529297 42 L 27.546875 42 L 27.564453 42 C 28.434746 42 29.1695 41.599089 29.722656 41.125 C 30.274667 40.651893 30.696492 40.093616 31.060547 39.587891 L 31.0625 39.583984 C 31.874544 38.465892 32.550085 36.975669 32.847656 35.371094 C 33.144899 33.768288 33.058365 32.014713 32.152344 30.527344 C 31.545364 29.509381 30.597876 28.728592 29.5 28.320312 C 29.513398 28.304275 29.529786 28.291672 29.542969 28.275391 L 29.548828 28.267578 L 29.554688 28.259766 C 30.503476 27.037342 31 25.34 31 24 L 31 22.951172 z M 28.53125 25.388672 C 28.334505 26.028576 28.248687 26.671665 27.978516 27.023438 C 27.721311 27.334136 27.032775 27.609599 26.337891 27.794922 C 26.498413 27.222313 26.740704 26.665094 27.052734 26.292969 L 27.0625 26.28125 L 27.072266 26.269531 C 27.248341 26.046088 27.794678 25.670917 28.40625 25.419922 C 28.45277 25.400832 28.48402 25.406612 28.53125 25.388672 z M 22.181641 30.003906 C 22.460876 30.003906 22.861536 30.15521 23.310547 30.388672 C 23.759557 30.622134 24.166465 31 25 31 C 25.833535 31 26.240515 30.622157 26.689453 30.388672 C 27.138391 30.155187 27.537927 30.003906 27.816406 30.003906 C 28.815707 30.003906 29.898889 30.646363 30.4375 31.550781 L 30.439453 31.556641 L 30.443359 31.5625 C 31.010993 32.490134 31.117744 33.728519 30.880859 35.005859 C 30.643974 36.283199 30.058291 37.561616 29.441406 38.410156 L 29.441406 38.412109 L 29.439453 38.414062 C 29.103026 38.881509 28.751969 39.322558 28.421875 39.605469 C 28.098508 39.882614 27.845792 39.987706 27.582031 39.992188 C 27.384676 39.981567 27.264879 39.907518 26.892578 39.662109 C 26.510918 39.410352 25.87576 39.021656 25.025391 39 L 25 39 L 24.974609 39 C 24.12424 39.02166 23.489088 39.410527 23.107422 39.662109 C 22.735121 39.907518 22.615324 39.981565 22.417969 39.992188 C 22.154211 39.987687 21.901447 39.882667 21.578125 39.605469 C 21.248077 39.322504 20.896889 38.88187 20.560547 38.414062 L 20.558594 38.412109 L 20.558594 38.410156 C 19.941891 37.562298 19.356147 36.28326 19.119141 35.005859 C 18.882134 33.728459 18.989571 32.489455 19.556641 31.5625 L 19.558594 31.556641 L 19.5625 31.552734 C 20.102228 30.648447 21.184102 30.003906 22.181641 30.003906 z"/></svg>