<svg xmlns="http://www.w3.org/2000/svg"  viewBox="0 0 50 50" width="1000px" height="1000px"><path d="M 7.0078125 3.9980469 C 5.3633536 3.9980469 4.0078125 5.3524737 4.0078125 6.9980469 L 4.0078125 40.001953 C 4.0078125 41.646923 5.3628427 43.001953 7.0078125 43.001953 L 8 43.001953 L 8 45 A 1.0001 1.0001 0 0 0 9 46 L 13 46 A 1.0001 1.0001 0 0 0 14 45 L 14 43.001953 L 22 43 C 22 44.64497 23.35503 46 25 46 L 43 46 C 44.64497 46 46 44.64497 46 43 L 46 23 C 46 21.35503 44.64497 20 43 20 L 33 20 L 33 7 C 33 5.3549372 31.645063 4 30 4 L 7.0078125 3.9980469 z M 7.0078125 5.9980469 L 30 6 C 30.562937 6 31 6.4370628 31 7 L 31 15 L 6.0078125 15 L 6.0078125 6.9980469 C 6.0078125 6.43362 6.4442714 5.9980469 7.0078125 5.9980469 z M 9.984375 7.9863281 A 1.0001 1.0001 0 0 0 9 9 L 9 12 A 1.0001 1.0001 0 1 0 11 12 L 11 9 A 1.0001 1.0001 0 0 0 9.984375 7.9863281 z M 6.0078125 17 L 31 17 L 31 20 L 25 20 C 23.35503 20 22 21.35503 22 23 L 22 41 L 13.070312 41.001953 A 1.0001 1.0001 0 0 0 13.042969 41.001953 A 1.0001 1.0001 0 0 0 13 41 L 9 41 A 1.0001 1.0001 0 0 0 8.9707031 41.001953 L 7.0078125 41.001953 C 6.4427823 41.001953 6.0078125 40.566983 6.0078125 40.001953 L 6.0078125 17 z M 9.984375 18.986328 A 1.0001 1.0001 0 0 0 9 20 L 9 24 A 1.0001 1.0001 0 1 0 11 24 L 11 20 A 1.0001 1.0001 0 0 0 9.984375 18.986328 z M 25 22 L 43 22 C 43.56503 22 44 22.43497 44 23 L 44 43 C 44 43.56503 43.56503 44 43 44 L 25 44 C 24.43497 44 24 43.56503 24 43 L 24 23 C 24 22.43497 24.43497 22 25 22 z M 37 24 A 1 1 0 0 0 37 26 A 1 1 0 0 0 37 24 z M 41 24 A 1 1 0 0 0 41 26 A 1 1 0 0 0 41 24 z M 34 28 C 32.083334 28 30.518559 28.754756 29.501953 29.898438 C 28.485347 31.042119 28 32.527778 28 34 C 28 35.472222 28.485347 36.957881 29.501953 38.101562 C 30.518559 39.245244 32.083334 40 34 40 C 35.916666 40 37.481441 39.245244 38.498047 38.101562 C 39.514653 36.957881 40 35.472222 40 34 C 40 32.527778 39.514653 31.042119 38.498047 29.898438 C 37.481441 28.754756 35.916666 28 34 28 z M 34 30 C 35.416666 30 36.351893 30.495244 37.001953 31.226562 C 37.652013 31.957881 38 32.972222 38 34 C 38 35.027778 37.652013 36.042119 37.001953 36.773438 C 36.351893 37.504756 35.416666 38 34 38 C 32.583334 38 31.648107 37.504756 30.998047 36.773438 C 30.347987 36.042119 30 35.027778 30 34 C 30 32.972222 30.347987 31.957881 30.998047 31.226562 C 31.648107 30.495244 32.583334 30 34 30 z M 10 43.001953 L 12 43.001953 L 12 44 L 10 44 L 10 43.001953 z"/></svg>