<svg xmlns="http://www.w3.org/2000/svg"  viewBox="0 0 50 50" width="1000px" height="1000px"><path d="M 21.964844 2.992188 C 21.503906 3.003906 21.109375 3.332031 21.011719 3.78125 C 20.914063 4.234375 21.136719 4.695313 21.550781 4.894531 C 21.550781 4.894531 22.070313 5.132813 22.699219 5.976563 C 23.179688 6.613281 23.675781 7.570313 23.890625 9 C 22.445313 8.277344 21.003906 8 19.300781 8 C 15.253906 8 11.632813 10.289063 9.085938 13.832031 C 6.535156 17.378906 5 22.195313 5 27.5 C 5 32.804688 6.535156 37.621094 9.085938 41.167969 C 11.632813 44.710938 15.253906 47 19.300781 47 C 21.410156 47 23.113281 46.578125 24.925781 45.410156 C 26.707031 46.429688 28.664063 47 30.699219 47 C 34.746094 47 38.367188 44.710938 40.917969 41.167969 C 43.464844 37.621094 45 32.804688 45 27.5 C 45 22.195313 43.464844 17.378906 40.917969 13.832031 C 38.367188 10.289063 34.746094 8 30.699219 8 C 29.035156 8 27.417969 8.378906 25.910156 9.078125 C 25.679688 7.136719 25.007813 5.71875 24.300781 4.773438 C 23.429688 3.617188 22.449219 3.105469 22.449219 3.105469 C 22.296875 3.027344 22.132813 2.988281 21.964844 2.992188 Z M 19.300781 10 C 20.867188 10 21.910156 10.207031 23.101563 10.84375 C 21.011719 12.523438 19.265625 14.855469 18.082031 17.605469 C 17.933594 17.933594 17.972656 18.316406 18.1875 18.609375 C 18.402344 18.898438 18.753906 19.054688 19.113281 19.007813 C 19.472656 18.964844 19.78125 18.730469 19.917969 18.394531 C 22.121094 13.292969 26.347656 10 30.699219 10 C 33.996094 10 37.027344 11.851563 39.292969 15 C 41.558594 18.152344 43 22.585938 43 27.5 C 43 32.414063 41.558594 36.847656 39.292969 40 C 37.027344 43.148438 33.996094 45 30.699219 45 C 26.347656 45 22.121094 41.707031 19.917969 36.605469 C 19.78125 36.269531 19.472656 36.035156 19.113281 35.992188 C 18.753906 35.945313 18.402344 36.101563 18.1875 36.390625 C 17.972656 36.683594 17.933594 37.066406 18.082031 37.394531 C 19.265625 40.144531 21.011719 42.476563 23.101563 44.15625 C 21.910156 44.792969 20.867188 45 19.300781 45 C 16.003906 45 12.972656 43.148438 10.707031 40 C 8.441406 36.847656 7 32.414063 7 27.5 C 7 22.585938 8.441406 18.152344 10.707031 15 C 12.972656 11.851563 16.003906 10 19.300781 10 Z M 38 33 C 37.449219 33 37 33.449219 37 34 C 37 34.550781 37.449219 35 38 35 C 38.550781 35 39 34.550781 39 34 C 39 33.449219 38.550781 33 38 33 Z M 33 34 C 32.449219 34 32 34.449219 32 35 C 32 35.550781 32.449219 36 33 36 C 33.550781 36 34 35.550781 34 35 C 34 34.449219 33.550781 34 33 34 Z M 35 38 C 34.449219 38 34 38.449219 34 39 C 34 39.550781 34.449219 40 35 40 C 35.550781 40 36 39.550781 36 39 C 36 38.449219 35.550781 38 35 38 Z M 30 39 C 29.449219 39 29 39.449219 29 40 C 29 40.550781 29.449219 41 30 41 C 30.550781 41 31 40.550781 31 40 C 31 39.449219 30.550781 39 30 39 Z"/></svg>