<svg xmlns="http://www.w3.org/2000/svg"  viewBox="0 0 50 50" width="1000px" height="1000px"><path d="M 34 1 C 33.448 1 33 1.448 33 2 L 33 18 L 35 18 L 35 2 C 35 1.448 34.552 1 34 1 z M 28.304688 2.2617188 C 27.762688 2.3697188 27.411531 2.8965 27.519531 3.4375 L 30.427734 18 L 32.466797 18 L 29.480469 3.046875 C 29.372469 2.504875 28.844688 2.1527188 28.304688 2.2617188 z M 39.695312 2.2617188 C 39.153312 2.1537187 38.626531 2.504875 38.519531 3.046875 L 35.533203 18 L 37.572266 18 L 40.480469 3.4375 C 40.588469 2.8955 40.237313 2.3697188 39.695312 2.2617188 z M 28.5 20 C 27.130937 20 26 21.130937 26 22.5 L 26 23.5 C 26 24.869063 27.130937 26 28.5 26 L 32.023438 26 L 32.980469 30.783203 L 31.939453 36 L 28.722656 36 C 29.720071 34.555584 30.06597 32.682425 29.484375 30.892578 C 28.494553 27.846418 25.196568 26.166422 22.150391 27.15625 C 21.983853 27.210365 21.826139 27.287689 21.667969 27.363281 C 21.691096 27.189034 21.716797 27.015412 21.716797 26.839844 C 21.716797 23.637203 19.096927 21.019531 15.894531 21.019531 C 12.69238 21.019531 10.076172 23.636891 10.076172 26.839844 C 10.076172 27.016062 10.101707 27.190346 10.125 27.365234 C 9.9655784 27.288846 9.8065922 27.210814 9.6386719 27.15625 C 8.8771274 26.908793 8.100692 26.828584 7.3476562 26.894531 C 5.0885491 27.092373 3.0470541 28.607958 2.3046875 30.892578 C 1.3148595 33.938756 2.994856 37.23674 6.0410156 38.226562 C 6.2080918 38.280918 6.3816617 38.311859 6.5546875 38.34375 C 6.4340174 38.470802 6.3118588 38.596641 6.2089844 38.738281 C 4.3260719 41.329533 4.9046928 44.987319 7.4960938 46.869141 C 10.087113 48.751884 13.742444 48.17084 15.625 45.580078 C 15.728401 45.437778 15.810692 45.281836 15.894531 45.126953 C 15.97837 45.281836 16.060662 45.437778 16.164062 45.580078 C 18.046619 48.17084 21.70195 48.751884 24.292969 46.869141 C 26.88504 44.986504 27.464743 41.329257 25.582031 38.738281 C 25.478904 38.596293 25.355489 38.471082 25.234375 38.34375 C 25.407295 38.311859 25.580971 38.280918 25.748047 38.226562 C 25.948407 38.161457 26.14191 38.084348 26.330078 38 L 31.539062 38 L 30.779297 41.804688 C 30.671297 42.346688 31.022453 42.871469 31.564453 42.980469 C 31.629453 42.993469 31.696719 43 31.761719 43 C 32.228719 43 32.646234 42.670313 32.740234 42.195312 L 33 40.894531 L 33 42 C 33 42.553 33.448 43 34 43 C 34.552 43 35 42.553 35 42 L 35 40.894531 L 35.259766 42.195312 C 35.354766 42.670313 35.770281 43 36.238281 43 C 36.303281 43 36.369547 42.994469 36.435547 42.980469 C 36.977547 42.872469 37.328703 42.344734 37.220703 41.802734 L 36.460938 38 L 46 38 L 46 42 C 46 44.206 44.116781 46 41.800781 46 L 27.636719 46 C 27.214719 46.743 26.677391 47.416234 26.025391 47.990234 C 26.083391 47.992234 26.140219 48 26.199219 48 L 41.800781 48 C 45.219781 48 48 45.309 48 42 L 48 34 C 48 30.691 45.219781 28 41.800781 28 L 40 28 L 40 25.949219 C 41.133634 25.714033 42 24.69793 42 23.5 L 42 22.5 C 42 21.130937 40.869063 20 39.5 20 L 28.5 20 z M 28.5 22 L 39.5 22 C 39.786937 22 40 22.213063 40 22.5 L 40 23.5 C 40 23.786937 39.786937 24 39.5 24 L 28.5 24 C 28.213063 24 28 23.786937 28 23.5 L 28 22.5 C 28 22.213063 28.213063 22 28.5 22 z M 15.894531 22.980469 C 18.036135 22.980469 19.753906 24.698484 19.753906 26.839844 C 19.753906 27.212106 19.521955 27.999649 19.099609 28.855469 C 18.815482 29.43121 18.449265 30.042244 18.066406 30.648438 C 17.858143 30.901673 17.643136 31.154115 17.447266 31.40625 C 17.021512 31.954303 16.751695 32.331268 16.529297 32.654297 C 16.957317 31.640514 17.408203 30.483759 17.408203 29.998047 C 17.408203 29.163047 16.731484 28.486328 15.896484 28.486328 C 15.061484 28.486328 14.384766 29.163047 14.384766 29.998047 C 14.384766 30.484323 14.837303 31.641988 15.265625 32.65625 C 15.043301 32.332501 14.770811 31.955987 14.34375 31.40625 C 14.152475 31.160031 13.941629 30.913377 13.738281 30.666016 C 13.351147 30.054056 12.980289 29.436889 12.693359 28.855469 C 12.271014 27.999649 12.037109 27.212106 12.037109 26.839844 C 12.037109 24.696797 13.752682 22.980469 15.894531 22.980469 z M 35.976562 26 L 38 26 L 38 28 C 38 29.103 38.914062 30 40.039062 30 L 41.800781 30 C 44.116781 30 46 31.794 46 34 L 46 36 L 36.0625 36 L 35.019531 30.783203 L 35.976562 26 z M 7.5058594 28.84375 C 8.0054486 28.80176 8.5237476 28.85594 9.0332031 29.021484 C 9.3871496 29.136496 10.064646 29.601372 10.748047 30.267578 C 11.208318 30.716269 11.677804 31.254214 12.136719 31.806641 C 12.312563 32.082093 12.485428 32.363653 12.664062 32.626953 C 13.037449 33.17731 13.331164 33.558346 13.640625 33.974609 C 12.796164 33.237841 11.78541 32.398343 11.298828 32.240234 C 10.504828 31.982234 9.6505781 32.415937 9.3925781 33.210938 C 9.1345781 34.005938 9.5692812 34.857234 10.363281 35.115234 C 10.80987 35.26091 12.00937 35.19719 13.087891 35.107422 C 12.649499 35.248733 12.186515 35.404404 11.705078 35.578125 C 11.401019 35.687841 11.090443 35.816031 10.78125 35.9375 C 10.090775 36.112616 9.4011491 36.2696 8.7695312 36.361328 C 7.8251282 36.498481 7.002303 36.476453 6.6484375 36.361328 C 4.6105972 35.69915 3.509703 33.537822 4.171875 31.5 C 4.6685084 29.97162 6.0070916 28.969721 7.5058594 28.84375 z M 24.283203 28.84375 C 25.781971 28.969721 27.122507 29.97162 27.619141 31.5 C 28.281313 33.537822 27.180418 35.69915 25.142578 36.361328 A 0.98109811 0.98109811 0 0 0 25.140625 36.361328 C 24.78676 36.476453 23.965887 36.498481 23.021484 36.361328 C 22.388745 36.269437 21.697555 36.113024 21.005859 35.9375 C 20.697707 35.816377 20.389205 35.687556 20.085938 35.578125 C 19.446535 35.347404 19.018055 35.212024 18.646484 35.101562 C 19.739101 35.194431 20.969289 35.2642 21.427734 35.115234 C 22.222734 34.858234 22.655438 34.004938 22.398438 33.210938 C 22.140438 32.416937 21.286188 31.982234 20.492188 32.240234 C 20.010823 32.396648 19.012429 33.225034 18.169922 33.958984 C 18.419265 33.636956 18.71057 33.240686 19.126953 32.626953 C 19.306766 32.361917 19.481008 32.078113 19.658203 31.800781 C 20.115155 31.250296 20.582249 30.714802 21.041016 30.267578 C 21.724416 29.601372 22.403867 29.136496 22.757812 29.021484 C 23.267269 28.855941 23.783614 28.80176 24.283203 28.84375 z M 13.935547 37.041016 C 12.971348 37.617034 11.846646 38.326043 11.542969 38.744141 C 11.050969 39.419141 11.201906 40.365422 11.878906 40.857422 C 12.553906 41.348422 13.500234 41.197484 13.990234 40.521484 C 14.283721 40.116592 14.60345 38.875625 14.853516 37.791016 C 14.849083 38.292991 14.837016 38.743488 14.857422 39.376953 C 14.867699 39.696032 14.892515 40.026211 14.912109 40.353516 C 14.865265 41.068391 14.801908 41.777306 14.693359 42.410156 C 14.532023 43.350768 14.257762 44.126763 14.039062 44.427734 C 12.77962 46.160973 10.383371 46.540507 8.6503906 45.28125 C 6.9177935 44.023072 6.5358343 41.625326 7.7949219 39.892578 A 0.98109811 0.98109811 0 0 0 7.7949219 39.890625 C 8.0136928 39.589415 8.66701 39.088639 9.5117188 38.644531 C 10.079349 38.346098 10.733432 38.067467 11.398438 37.802734 C 11.716176 37.720383 12.038708 37.643627 12.345703 37.554688 C 12.987208 37.368838 13.442456 37.207501 13.935547 37.041016 z M 17.859375 37.042969 C 18.35125 37.208964 18.804226 37.369525 19.443359 37.554688 C 19.751196 37.64387 20.075669 37.720182 20.394531 37.802734 C 21.058946 38.067281 21.712149 38.346352 22.279297 38.644531 C 23.124005 39.088639 23.77537 39.589415 23.994141 39.890625 A 0.98109811 0.98109811 0 0 0 23.994141 39.892578 C 25.253429 41.625603 24.874554 44.021887 23.140625 45.28125 C 21.407644 46.540507 19.011397 46.160973 17.751953 44.427734 C 17.533255 44.126763 17.257039 43.350768 17.095703 42.410156 C 16.986655 41.774389 16.923188 41.061982 16.876953 40.34375 C 16.896478 40.019732 16.923418 39.692867 16.933594 39.376953 C 16.950669 38.846859 16.956729 38.337846 16.955078 37.863281 C 17.204211 38.933106 17.518242 40.129801 17.802734 40.521484 C 18.293734 41.197484 19.238063 41.347469 19.914062 40.855469 C 20.590063 40.364469 20.741 39.418188 20.25 38.742188 C 19.946834 38.324794 18.823148 37.618885 17.859375 37.042969 z"/></svg>