<svg fill="#000000" xmlns="http://www.w3.org/2000/svg"  viewBox="0 0 50 50" width="1000px" height="1000px"><path d="M 24.8125 2 C 24.679688 2.027344 24.550781 2.078125 24.4375 2.15625 C 24.4375 2.15625 23.003906 3.136719 21.5 4.59375 C 21.496094 4.597656 21.472656 4.589844 21.46875 4.59375 C 21.398438 4.648438 21.335938 4.710938 21.28125 4.78125 C 21.222656 4.835938 21.167969 4.898438 21.125 4.96875 C 20.277344 5.832031 19.449219 6.855469 18.84375 8 C 18.714844 7.875 18.59375 7.746094 18.46875 7.625 C 18.460938 7.605469 18.449219 7.582031 18.4375 7.5625 C 18.417969 7.542969 18.394531 7.519531 18.375 7.5 C 18.28125 7.355469 18.152344 7.238281 18 7.15625 C 17.992188 7.152344 17.976563 7.160156 17.96875 7.15625 C 17.949219 7.132813 17.929688 7.113281 17.90625 7.09375 C 16.640625 5.949219 15.5625 5.1875 15.5625 5.1875 C 15.371094 5.050781 15.140625 4.984375 14.90625 5 C 14.875 5 14.84375 5 14.8125 5 C 14.679688 5.027344 14.550781 5.078125 14.4375 5.15625 C 14.4375 5.15625 13.003906 6.136719 11.5 7.59375 C 11.496094 7.597656 11.472656 7.589844 11.46875 7.59375 C 11.398438 7.648438 11.335938 7.710938 11.28125 7.78125 C 11.222656 7.835938 11.167969 7.898438 11.125 7.96875 C 9.59375 9.523438 8 11.570313 8 14 C 8 15.035156 8.179688 16.085938 8.4375 17.09375 C 8.449219 17.179688 8.46875 17.261719 8.5 17.34375 C 8.503906 17.355469 8.496094 17.363281 8.5 17.375 C 8.507813 17.394531 8.519531 17.417969 8.53125 17.4375 C 8.832031 18.503906 9.214844 19.519531 9.59375 20.40625 C 9.773438 20.828125 9.902344 21.078125 10.0625 21.40625 C 10.070313 21.4375 10.082031 21.46875 10.09375 21.5 C 10.121094 21.597656 10.164063 21.695313 10.21875 21.78125 C 10.238281 21.804688 10.257813 21.824219 10.28125 21.84375 C 10.632813 22.546875 10.914063 23.078125 11 23.21875 L 11 44 C 10.992188 44.253906 11.082031 44.5 11.25 44.6875 C 11.25 44.6875 11.632813 45.058594 12.25 45.375 C 12.867188 45.691406 13.796875 46 15 46 C 16.203125 46 17.132813 45.691406 17.75 45.375 C 18.367188 45.058594 18.75 44.6875 18.75 44.6875 C 18.917969 44.5 19.007813 44.253906 19 44 L 19 23.25 C 19.15625 22.980469 19.964844 21.589844 20.71875 19.6875 C 20.804688 19.847656 20.96875 20.164063 21 20.21875 L 21 46 C 21.003906 46.257813 21.101563 46.503906 21.28125 46.6875 C 21.28125 46.6875 21.664063 47.09375 22.28125 47.40625 C 22.898438 47.71875 23.804688 48 25 48 C 26.195313 48 27.101563 47.71875 27.71875 47.40625 C 28.335938 47.09375 28.71875 46.6875 28.71875 46.6875 C 28.898438 46.503906 28.996094 46.257813 29 46 L 29 20.25 C 29.035156 20.1875 29.1875 19.917969 29.3125 19.6875 C 29.601563 20.429688 29.882813 21.105469 30.15625 21.65625 C 30.175781 21.699219 30.195313 21.742188 30.21875 21.78125 C 30.59375 22.527344 30.90625 23.089844 31 23.25 L 31 44 C 31 44.1875 31.054688 44.371094 31.15625 44.53125 C 31.15625 44.53125 31.28125 44.71875 31.4375 44.875 C 31.59375 45.03125 31.816406 45.207031 32.125 45.375 C 32.738281 45.714844 33.671875 46 35 46 C 36.328125 46 37.261719 45.714844 37.875 45.375 C 38.183594 45.207031 38.40625 45.03125 38.5625 44.875 C 38.71875 44.71875 38.84375 44.53125 38.84375 44.53125 C 38.945313 44.371094 39 44.1875 39 44 L 39 23.25 C 39.109375 23.058594 39.691406 22.050781 40.40625 20.375 C 41.164063 18.597656 41.964844 16.328125 42 14.15625 C 42.003906 14.105469 42.003906 14.050781 42 14 C 42 13.988281 42 13.980469 42 13.96875 C 42.007813 13.863281 41.996094 13.757813 41.96875 13.65625 C 41.820313 11.332031 40.21875 9.324219 38.71875 7.8125 C 38.597656 7.691406 38.496094 7.582031 38.375 7.46875 C 38.328125 7.410156 38.277344 7.359375 38.21875 7.3125 C 36.835938 6.015625 35.5625 5.1875 35.5625 5.1875 C 35.371094 5.050781 35.140625 4.984375 34.90625 5 C 34.875 5 34.84375 5 34.8125 5 C 34.679688 5.027344 34.550781 5.078125 34.4375 5.15625 C 34.4375 5.15625 32.996094 6.101563 31.46875 7.59375 C 31.355469 7.667969 31.261719 7.761719 31.1875 7.875 C 31.167969 7.894531 31.144531 7.917969 31.125 7.9375 C 30.488281 6.753906 29.59375 5.691406 28.71875 4.8125 C 28.625 4.71875 28.53125 4.652344 28.4375 4.5625 C 28.410156 4.535156 28.402344 4.496094 28.375 4.46875 C 28.328125 4.410156 28.277344 4.359375 28.21875 4.3125 C 28.171875 4.265625 28.109375 4.230469 28.0625 4.1875 C 26.738281 2.96875 25.5625 2.1875 25.5625 2.1875 C 25.371094 2.050781 25.140625 1.984375 24.90625 2 C 24.875 2 24.84375 2 24.8125 2 Z M 25 4.3125 C 25.296875 4.523438 25.753906 4.832031 26.40625 5.40625 C 26.042969 6.710938 25.5 7.824219 24.84375 8.75 C 23.898438 7.644531 23.402344 6.449219 23.15625 5.78125 C 24.039063 4.960938 24.648438 4.558594 25 4.3125 Z M 28 7.03125 C 29.042969 8.246094 29.871094 9.621094 29.96875 10.78125 C 29.164063 12.335938 28.085938 13.503906 26.96875 14.40625 C 25.886719 13.457031 25.066406 12.6875 24.46875 12.09375 C 24.851563 11.75 25.253906 11.390625 25.625 10.96875 C 25.671875 10.929688 25.710938 10.890625 25.75 10.84375 C 26.632813 9.820313 27.429688 8.535156 28 7.03125 Z M 15.03125 7.28125 C 15.355469 7.523438 15.851563 7.910156 16.40625 8.40625 C 16.042969 9.707031 15.460938 10.792969 14.8125 11.71875 C 13.886719 10.625 13.398438 9.441406 13.15625 8.78125 C 14.058594 7.941406 14.691406 7.515625 15.03125 7.28125 Z M 35 7.28125 C 35.292969 7.488281 35.75 7.824219 36.40625 8.40625 C 36.046875 9.699219 35.488281 10.789063 34.84375 11.71875 C 33.910156 10.621094 33.398438 9.445313 33.15625 8.78125 C 33.921875 8.085938 34.601563 7.566406 35 7.28125 Z M 21.625 7.40625 C 22.011719 8.253906 22.636719 9.296875 23.53125 10.28125 C 23.226563 10.578125 22.929688 10.851563 22.625 11.09375 C 22.453125 11.15625 22.300781 11.265625 22.1875 11.40625 C 21.429688 11.957031 20.703125 12.367188 20.15625 12.625 C 20.058594 12.070313 20 11.511719 20 11 C 20 9.882813 20.695313 8.578125 21.625 7.40625 Z M 18 10.03125 C 18.019531 10.054688 18.042969 10.070313 18.0625 10.09375 C 18.015625 10.386719 18 10.695313 18 11 C 18 12.027344 18.183594 13.066406 18.4375 14.0625 C 18.441406 14.074219 18.433594 14.082031 18.4375 14.09375 C 18.449219 14.179688 18.46875 14.261719 18.5 14.34375 C 18.503906 14.355469 18.496094 14.363281 18.5 14.375 C 18.507813 14.394531 18.519531 14.417969 18.53125 14.4375 C 18.632813 14.800781 18.757813 15.152344 18.875 15.5 C 18.292969 16.242188 17.640625 16.871094 16.96875 17.40625 C 15.960938 16.523438 15.117188 15.726563 14.5 15.125 C 14.859375 14.800781 15.183594 14.421875 15.53125 14.03125 C 15.550781 14.023438 15.574219 14.011719 15.59375 14 C 15.601563 13.988281 15.617188 13.980469 15.625 13.96875 C 15.671875 13.921875 15.714844 13.867188 15.75 13.8125 C 15.785156 13.761719 15.816406 13.710938 15.84375 13.65625 C 16.679688 12.65625 17.449219 11.480469 18 10.03125 Z M 38 10.03125 C 39.042969 11.246094 39.871094 12.621094 39.96875 13.78125 C 39.136719 15.398438 38.007813 16.613281 36.84375 17.53125 C 35.660156 16.867188 34.773438 15.914063 34.28125 15.3125 C 34.707031 14.9375 35.117188 14.5 35.53125 14.03125 C 35.550781 14.023438 35.574219 14.011719 35.59375 14 C 35.601563 13.988281 35.617188 13.980469 35.625 13.96875 C 35.699219 13.894531 35.761719 13.8125 35.8125 13.71875 C 36.660156 12.699219 37.445313 11.503906 38 10.03125 Z M 11.625 10.40625 C 12.011719 11.25 12.644531 12.269531 13.53125 13.25 C 13.226563 13.550781 12.929688 13.847656 12.625 14.09375 C 12.621094 14.097656 12.597656 14.089844 12.59375 14.09375 C 12.449219 14.15625 12.320313 14.253906 12.21875 14.375 C 11.445313 14.945313 10.710938 15.359375 10.15625 15.625 C 10.058594 15.070313 10 14.511719 10 14 C 10 12.882813 10.695313 11.578125 11.625 10.40625 Z M 32 11.1875 C 32.371094 11.867188 32.917969 12.574219 33.5625 13.28125 C 32.777344 14.074219 31.964844 14.648438 31.25 15.09375 C 31.652344 13.839844 31.972656 12.5 32 11.1875 Z M 22.90625 13.34375 C 23.417969 13.859375 24.140625 14.597656 25.25 15.59375 C 23.722656 16.464844 22.308594 16.890625 21.59375 17.0625 C 21.527344 16.914063 21.472656 16.78125 21.40625 16.625 C 21.273438 16.3125 21.125 15.996094 21 15.65625 C 20.996094 15.648438 21.003906 15.632813 21 15.625 C 20.996094 15.421875 20.929688 15.226563 20.8125 15.0625 C 20.761719 14.90625 20.707031 14.75 20.65625 14.59375 C 21.230469 14.335938 22.03125 13.933594 22.90625 13.34375 Z M 29.15625 15.15625 C 28.980469 15.660156 28.785156 16.140625 28.59375 16.59375 C 28.582031 16.621094 28.574219 16.628906 28.5625 16.65625 C 28.550781 16.6875 28.539063 16.71875 28.53125 16.75 C 27.9375 18.113281 27.40625 19.023438 27.25 19.28125 C 27.238281 19.3125 27.226563 19.34375 27.21875 19.375 C 27.214844 19.382813 27.160156 19.433594 27.15625 19.4375 C 27.144531 19.457031 27.132813 19.480469 27.125 19.5 C 27.085938 19.558594 27.054688 19.621094 27.03125 19.6875 C 26.75 20.113281 26.128906 20.765625 25.5625 21.28125 C 25.269531 21.546875 25.242188 21.578125 25.03125 21.75 C 24.816406 21.566406 24.75 21.542969 24.4375 21.25 C 23.808594 20.667969 23.109375 19.921875 22.875 19.53125 C 22.867188 19.511719 22.855469 19.488281 22.84375 19.46875 C 22.816406 19.425781 22.785156 19.382813 22.75 19.34375 C 22.71875 19.289063 22.648438 19.113281 22.53125 18.90625 C 23.699219 18.566406 25.515625 17.917969 27.3125 16.6875 C 27.535156 16.609375 27.722656 16.453125 27.84375 16.25 C 28.289063 15.914063 28.726563 15.566406 29.15625 15.15625 Z M 12.875 16.3125 C 13.40625 16.839844 14.203125 17.621094 15.25 18.5625 C 13.738281 19.425781 12.375 19.859375 11.59375 20.0625 C 11.519531 19.902344 11.480469 19.800781 11.40625 19.625 C 11.140625 19.003906 10.878906 18.304688 10.65625 17.59375 C 11.222656 17.339844 12.007813 16.898438 12.875 16.3125 Z M 32.71875 16.53125 C 33.183594 17.121094 33.945313 17.949219 35.03125 18.71875 C 33.613281 19.496094 32.320313 19.894531 31.625 20.0625 C 31.300781 19.34375 30.972656 18.5625 30.6875 17.6875 C 31.210938 17.445313 31.929688 17.058594 32.71875 16.53125 Z M 39.15625 18.15625 C 38.980469 18.660156 38.785156 19.140625 38.59375 19.59375 C 37.96875 21.0625 37.410156 22.011719 37.25 22.28125 C 37.238281 22.3125 37.226563 22.34375 37.21875 22.375 C 37.214844 22.382813 37.160156 22.433594 37.15625 22.4375 C 37.144531 22.457031 37.132813 22.480469 37.125 22.5 C 37.085938 22.558594 37.054688 22.621094 37.03125 22.6875 C 36.75 23.113281 36.128906 23.765625 35.5625 24.28125 C 35.269531 24.546875 35.242188 24.578125 35.03125 24.75 C 34.816406 24.566406 34.75 24.542969 34.4375 24.25 C 33.808594 23.667969 33.109375 22.921875 32.875 22.53125 C 32.867188 22.511719 32.855469 22.488281 32.84375 22.46875 C 32.835938 22.449219 32.824219 22.425781 32.8125 22.40625 C 32.789063 22.363281 32.695313 22.210938 32.53125 21.90625 C 33.714844 21.5625 35.554688 20.886719 37.375 19.625 C 37.507813 19.558594 37.625 19.460938 37.71875 19.34375 C 38.207031 18.984375 38.6875 18.601563 39.15625 18.15625 Z M 19.0625 18.28125 C 18.25 20.519531 17.203125 22.355469 17.15625 22.4375 C 17.144531 22.457031 17.132813 22.480469 17.125 22.5 C 17.085938 22.558594 17.054688 22.621094 17.03125 22.6875 C 16.75 23.113281 16.128906 23.765625 15.5625 24.28125 C 15.269531 24.546875 15.242188 24.578125 15.03125 24.75 C 14.816406 24.566406 14.75 24.542969 14.4375 24.25 C 13.808594 23.667969 13.109375 22.921875 12.875 22.53125 C 12.867188 22.511719 12.855469 22.488281 12.84375 22.46875 C 12.84375 22.46875 12.816406 22.410156 12.8125 22.40625 C 12.792969 22.382813 12.773438 22.363281 12.75 22.34375 C 12.722656 22.296875 12.585938 22.058594 12.5 21.90625 C 13.648438 21.578125 15.382813 20.949219 17.21875 19.71875 C 17.445313 19.664063 17.644531 19.53125 17.78125 19.34375 C 17.792969 19.332031 17.800781 19.324219 17.8125 19.3125 C 18.234375 19 18.65625 18.660156 19.0625 18.28125 Z M 23 22.625 C 23.03125 22.652344 23.0625 22.691406 23.09375 22.71875 C 23.785156 23.359375 24.375 23.84375 24.375 23.84375 C 24.734375 24.121094 25.234375 24.121094 25.59375 23.84375 C 25.59375 23.84375 26.210938 23.382813 26.90625 22.75 C 26.9375 22.722656 26.96875 22.683594 27 22.65625 L 27 45.46875 C 26.933594 45.515625 26.960938 45.515625 26.8125 45.59375 C 26.449219 45.78125 25.875 46 25 46 C 24.125 46 23.550781 45.78125 23.1875 45.59375 C 23.039063 45.515625 23.066406 45.515625 23 45.46875 Z M 13 25.625 C 13.03125 25.652344 13.0625 25.691406 13.09375 25.71875 C 13.785156 26.359375 14.375 26.84375 14.375 26.84375 C 14.734375 27.121094 15.234375 27.121094 15.59375 26.84375 C 15.59375 26.84375 16.210938 26.382813 16.90625 25.75 C 16.9375 25.722656 16.96875 25.683594 17 25.65625 L 17 43.5 C 16.933594 43.546875 16.964844 43.546875 16.8125 43.625 C 16.449219 43.808594 15.882813 44 15 44 C 14.117188 44 13.550781 43.808594 13.1875 43.625 C 13.035156 43.546875 13.066406 43.546875 13 43.5 Z M 33 25.625 C 33.03125 25.652344 33.0625 25.691406 33.09375 25.71875 C 33.785156 26.359375 34.375 26.84375 34.375 26.84375 C 34.734375 27.121094 35.234375 27.121094 35.59375 26.84375 C 35.59375 26.84375 36.210938 26.382813 36.90625 25.75 C 36.9375 25.722656 36.96875 25.683594 37 25.65625 L 37 43.5625 C 36.964844 43.585938 36.957031 43.597656 36.90625 43.625 C 36.617188 43.785156 36.050781 44 35 44 C 33.949219 44 33.382813 43.785156 33.09375 43.625 C 33.042969 43.597656 33.035156 43.585938 33 43.5625 Z"/></svg>