<svg fill="#000000" xmlns="http://www.w3.org/2000/svg"  viewBox="0 0 50 50" width="1000px" height="1000px"><path d="M 30.46875 -0.03125 C 30.363281 -0.0234375 30.257813 0 30.15625 0.03125 C 29.769531 0.148438 29.484375 0.429688 29.21875 0.71875 L 29.1875 0.6875 C 29.167969 0.707031 29.171875 0.730469 29.15625 0.75 C 28.597656 1.324219 28.183594 2.023438 27.90625 2.59375 C 27.210938 2.265625 26.285156 2 25 2 C 23.398438 2 21.769531 3.042969 19.8125 4.6875 C 17.855469 6.332031 15.695313 8.667969 13.65625 11.5 C 9.578125 17.164063 6 24.851563 6 33.09375 C 6 42.507813 14.621094 50 25 50 C 35.378906 50 44 42.507813 44 33.09375 C 44 28.417969 42.375 25.441406 40.875 22.75 C 39.375 20.058594 38 17.660156 38 13.59375 C 38 11.21875 37.410156 8.859375 36.15625 7 C 35.363281 5.824219 34.265625 4.882813 32.9375 4.34375 C 32.960938 4.320313 32.972656 4.339844 33 4.3125 L 32.96875 4.28125 C 33.238281 4.035156 33.511719 3.753906 33.59375 3.375 C 33.683594 2.972656 33.570313 2.566406 33.4375 2.28125 C 33.175781 1.710938 32.800781 1.394531 32.5 1.09375 C 32.238281 0.832031 31.976563 0.414063 31.34375 0.125 C 31.105469 0.015625 30.785156 -0.0546875 30.46875 -0.03125 Z M 30.65625 2.0625 C 30.734375 2.136719 30.835938 2.242188 31.09375 2.5 C 31.304688 2.710938 31.378906 2.828125 31.46875 2.9375 C 31.441406 2.929688 31.347656 2.980469 31.03125 3.09375 C 30.828125 3.164063 30.601563 3.238281 30.34375 3.40625 C 30.230469 3.480469 30.140625 3.597656 30.03125 3.71875 C 29.90625 3.683594 29.792969 3.636719 29.6875 3.59375 C 29.929688 3.066406 30.234375 2.453125 30.59375 2.09375 L 30.625 2.09375 Z M 25 4 C 26.390625 4 26.855469 4.28125 27.46875 4.65625 C 28.082031 5.03125 28.917969 5.605469 30.28125 5.78125 L 30.34375 5.8125 L 30.40625 5.8125 C 32.214844 5.8125 33.496094 6.652344 34.46875 8.09375 C 35.441406 9.535156 36 11.566406 36 13.59375 C 36 18.125 37.625 21.035156 39.125 23.71875 C 40.625 26.402344 42 28.867188 42 33.09375 C 42 41.28125 34.421875 48 25 48 C 15.578125 48 8 41.28125 8 33.09375 C 8 25.433594 11.382813 18.070313 15.28125 12.65625 C 17.230469 9.949219 19.292969 7.734375 21.09375 6.21875 C 22.894531 4.703125 24.550781 4 25 4 Z M 25 21 C 24.046875 21 23.144531 21.40625 22.1875 22.03125 C 21.230469 22.65625 20.25 23.546875 19.34375 24.59375 C 17.53125 26.6875 16 29.503906 16 32.59375 C 16 38.507813 19.835938 43 25 43 C 30.164063 43 34 38.507813 34 32.59375 C 34 29.503906 32.46875 26.6875 30.65625 24.59375 C 29.75 23.546875 28.769531 22.65625 27.8125 22.03125 C 26.855469 21.40625 25.953125 21 25 21 Z M 25 23 C 25.246094 23 25.949219 23.214844 26.71875 23.71875 C 27.488281 24.222656 28.363281 24.992188 29.15625 25.90625 C 30.742188 27.738281 32 30.183594 32 32.59375 C 32 37.679688 29.035156 41 25 41 C 20.964844 41 18 37.679688 18 32.59375 C 18 30.183594 19.257813 27.738281 20.84375 25.90625 C 21.636719 24.992188 22.511719 24.222656 23.28125 23.71875 C 24.050781 23.214844 24.753906 23 25 23 Z"/></svg>