<svg xmlns="http://www.w3.org/2000/svg"  viewBox="0 0 50 50" width="1000px" height="1000px"><path d="M 42.6875 2 C 42.074219 2.058594 41.445313 2.363281 40.96875 2.84375 C 40.96875 2.84375 39.554688 4.257813 38.9375 4.875 C 38.90625 4.90625 38.6875 4.996094 38.40625 5 C 38.125 5.003906 37.78125 4.878906 37.875 4.9375 C 36.574219 4.148438 35.195313 3.765625 33.84375 3.96875 C 32.492188 4.171875 31.226563 4.929688 30.0625 6.09375 L 27.90625 8.25 C 27.488281 8.671875 27.347656 9.316406 27.40625 9.875 C 26.519531 9.632813 25.601563 9.5 24.6875 9.5 C 22.085938 9.5 19.480469 10.488281 17.5 12.46875 L 4.96875 25 C 1.011719 28.957031 1.011719 35.417969 4.96875 39.375 L 10.625 45.03125 C 14.582031 48.992188 21.011719 48.988281 24.96875 45.03125 L 37.5 32.5 C 40.179688 29.816406 41.046875 25.984375 40.09375 22.5625 C 40.652344 22.648438 41.316406 22.53125 41.75 22.09375 L 43.90625 19.9375 C 45.082031 18.761719 45.835938 17.488281 46.03125 16.125 C 46.222656 14.773438 45.855469 13.390625 45.0625 12.09375 C 45.0625 12.042969 44.992188 11.792969 45 11.59375 C 45.007813 11.328125 45.074219 11.144531 45.125 11.09375 C 45.125 11.082031 45.125 11.074219 45.125 11.0625 C 45.734375 10.449219 47.1875 9.03125 47.1875 9.03125 C 47.828125 8.394531 48.097656 7.507813 47.96875 6.71875 C 47.839844 5.929688 47.394531 5.269531 46.84375 4.71875 L 45.28125 3.15625 C 44.730469 2.605469 44.070313 2.160156 43.28125 2.03125 C 43.085938 2 42.890625 1.980469 42.6875 2 Z M 42.6875 4.03125 C 42.777344 4.003906 42.859375 4.011719 42.96875 4.03125 C 43.1875 4.066406 43.527344 4.214844 43.875 4.5625 L 45.4375 6.125 C 45.78125 6.46875 45.964844 6.8125 46 7.03125 C 46.035156 7.25 46.035156 7.371094 45.78125 7.625 C 45.769531 7.625 45.761719 7.625 45.75 7.625 C 45.75 7.625 44.332031 9.039063 43.71875 9.65625 C 43.152344 10.222656 43.019531 10.9375 43 11.53125 C 42.980469 12.125 43.023438 12.605469 43.34375 13.125 C 43.976563 14.152344 44.179688 15.011719 44.0625 15.84375 C 43.945313 16.675781 43.46875 17.5625 42.5 18.53125 L 40.40625 20.59375 C 40.226563 20.535156 39.839844 20.304688 39.375 19.9375 C 39.027344 19.664063 38.617188 19.304688 38.1875 18.90625 C 37.972656 18.640625 37.746094 18.371094 37.5 18.125 L 31.875 12.46875 C 31.574219 12.167969 31.234375 11.910156 30.90625 11.65625 C 30.570313 11.300781 30.269531 10.949219 30.03125 10.65625 C 29.660156 10.199219 29.429688 9.824219 29.375 9.65625 L 31.5 7.5 C 32.460938 6.539063 33.335938 6.0625 34.15625 5.9375 C 34.976563 5.8125 35.796875 6.007813 36.8125 6.625 C 37.324219 6.9375 37.832031 7.003906 38.4375 7 C 39.042969 6.996094 39.761719 6.863281 40.34375 6.28125 C 40.957031 5.667969 42.375 4.25 42.375 4.25 C 42.503906 4.121094 42.597656 4.058594 42.6875 4.03125 Z M 24.6875 11.5 C 26.378906 11.5 28.066406 12.042969 29.5 13.09375 C 30.246094 13.878906 31.113281 14.707031 32.03125 15.625 L 34.375 17.96875 C 35.253906 18.847656 36.074219 19.683594 36.84375 20.40625 C 39.113281 23.410156 39.027344 27.582031 36.59375 30.5 C 36.539063 30.429688 36.476563 30.367188 36.40625 30.3125 L 32.90625 26.78125 C 32.71875 26.582031 32.460938 26.472656 32.1875 26.46875 C 31.777344 26.460938 31.398438 26.703125 31.242188 27.082031 C 31.082031 27.460938 31.171875 27.902344 31.46875 28.1875 L 35 31.71875 C 35.0625 31.792969 35.136719 31.855469 35.21875 31.90625 L 30.96875 36.1875 C 30.917969 36.09375 30.855469 36.011719 30.78125 35.9375 L 27.25 32.40625 C 27.015625 32.167969 26.675781 32.058594 26.34375 32.125 C 25.96875 32.191406 25.667969 32.464844 25.5625 32.828125 C 25.457031 33.195313 25.566406 33.585938 25.84375 33.84375 L 29.34375 37.34375 C 29.417969 37.417969 29.5 37.480469 29.59375 37.53125 L 25.34375 41.8125 C 25.285156 41.71875 25.210938 41.632813 25.125 41.5625 L 21.625 38.0625 C 21.417969 37.839844 21.117188 37.726563 20.8125 37.75 C 20.421875 37.789063 20.089844 38.050781 19.964844 38.417969 C 19.835938 38.789063 19.9375 39.199219 20.21875 39.46875 L 23.71875 42.96875 C 23.789063 43.054688 23.875 43.128906 23.96875 43.1875 L 23.5625 43.59375 C 20.367188 46.789063 15.226563 46.789063 12.03125 43.59375 L 6.375 37.96875 C 3.179688 34.773438 3.179688 29.632813 6.375 26.4375 L 18.90625 13.90625 C 20.503906 12.308594 22.601563 11.5 24.6875 11.5 Z"/></svg>