<svg xmlns="http://www.w3.org/2000/svg"  viewBox="0 0 50 50" width="1000px" height="1000px"><path d="M 25.099609 2 C 23.693798 2 22.25857 2.5416711 21.095703 3.4277344 C 19.932837 4.3137976 19 5.6148751 19 7.1796875 L 19 7.9492188 C 12.289747 10.079077 7 15.671204 7 23 L 7 24 L 7 28.050781 L 6.0097656 28.050781 C 5.193099 28.050781 4.4359021 28.380504 3.8925781 28.923828 L 3.8886719 28.927734 L 3.8828125 28.933594 C 3.3572616 29.473743 3.0097656 30.221993 3.0097656 31.050781 C 3.0097656 31.170316 3.0310328 31.284334 3.0449219 31.400391 L 3 31.400391 L 3 40 C 3 42.195455 4.8045455 44 7 44 L 7.6855469 44 C 8.8133746 46.359626 11.219173 48 14 48 L 36 48 C 38.772877 48 41.179841 46.356755 42.310547 44 L 43 44 C 45.195455 44 47 42.195455 47 40 L 47 31.400391 L 46.964844 31.400391 C 46.978733 31.284334 47 31.170316 47 31.050781 C 47 30.221993 46.652504 29.473743 46.126953 28.933594 L 46.121094 28.927734 L 46.117188 28.923828 C 45.573898 28.380538 44.816667 28.050781 44 28.050781 L 43 28.050781 L 43 24 L 43 23 C 43 15.671204 37.710253 10.079077 31 7.9492188 L 31 7.1796875 C 31 5.6437351 30.138923 4.3384105 29.023438 3.4433594 C 27.907952 2.5483083 26.505421 2 25.099609 2 z M 25.099609 4 C 25.953798 4 27.00197 4.3864574 27.771484 5.0039062 C 28.540999 5.6213552 29 6.4056399 29 7.1796875 L 29 7.4257812 C 27.693837 7.1563977 26.354776 7 25 7 C 23.645224 7 22.306163 7.1563977 21 7.4257812 L 21 7.1796875 C 21 6.4344999 21.48646 5.645968 22.308594 5.0195312 C 23.130727 4.3930945 24.245421 4 25.099609 4 z M 25 9 C 33.330303 9 41 14.821212 41 23 L 41 24 L 41 41 C 41 43.754545 38.754545 46 36 46 L 14 46 C 11.226334 46 9 43.773666 9 41 L 9 24 L 9 23 C 9 14.821212 16.669697 9 25 9 z M 24.976562 12 C 19.486894 12.127959 15.423962 14.349057 13.191406 17.410156 A 1.0008697 1.0008697 0 1 0 14.808594 18.589844 C 16.630942 16.091188 20.035418 14.124073 25 14.001953 C 29.963421 14.124072 33.369102 16.092147 35.191406 18.589844 A 1.0008697 1.0008697 0 1 0 36.808594 17.410156 C 34.575994 14.350097 30.512277 12.127965 25.023438 12 L 25 12 L 24.976562 12 z M 35.984375 20.042969 A 1.0001 1.0001 0 0 0 35 21.056641 L 35 23.107422 A 1.0001 1.0001 0 1 0 37 23.107422 L 37 21.056641 A 1.0001 1.0001 0 0 0 35.984375 20.042969 z M 16 27 C 14.354545 27 13 28.354545 13 30 L 13 31 L 13 40 C 13 41.645455 14.354545 43 16 43 L 34 43 C 35.645455 43 37 41.645455 37 40 L 37 30 C 37 28.354545 35.645455 27 34 27 L 16 27 z M 16 29 L 34 29 C 34.554545 29 35 29.445455 35 30 C 35 30.56503 34.56503 31 34 31 L 16 31 C 15.43497 31 15 30.56503 15 30 C 15 29.445455 15.445455 29 16 29 z M 6.0097656 30.050781 L 7 30.050781 L 7 32.050781 L 6.0097656 32.050781 C 5.4552202 32.050781 5.0097656 31.605327 5.0097656 31.050781 C 5.0097656 30.782581 5.1220187 30.5347 5.3125 30.335938 C 5.4888065 30.161763 5.7287314 30.050781 6.0097656 30.050781 z M 43 30.050781 L 44 30.050781 C 44.281034 30.050781 44.520959 30.161763 44.697266 30.335938 C 44.887747 30.5347 45 30.782581 45 31.050781 C 45 31.605327 44.554545 32.050781 44 32.050781 L 43 32.050781 L 43 30.050781 z M 15 32.78125 C 15.30191 32.91689 15.632729 33 16 33 L 34 33 C 34.367271 33 34.69809 32.91689 35 32.78125 L 35 40 C 35 40.554545 34.554545 41 34 41 L 16 41 C 15.445455 41 15 40.554545 15 40 L 15 32.78125 z M 5 33.861328 C 5.3175467 33.976999 5.654357 34.050781 6.0097656 34.050781 L 7 34.050781 L 7 41 C 7 41.340337 7.0327033 41.672392 7.0800781 42 L 7 42 C 5.8954545 42 5 41.104545 5 40 L 5 33.861328 z M 45 33.863281 L 45 40 C 45 41.104545 44.104545 42 43 42 L 42.919922 42 C 42.967567 41.672412 43 41.340101 43 41 L 43 34.050781 L 44 34.050781 C 44.351946 34.050781 44.685079 33.976811 45 33.863281 z M 18 37 A 1.0001 1.0001 0 1 0 18 39 L 20 39 A 1.0001 1.0001 0 1 0 20 37 L 18 37 z M 24 37 A 1.0001 1.0001 0 1 0 24 39 L 26 39 A 1.0001 1.0001 0 1 0 26 37 L 24 37 z M 30 37 A 1.0001 1.0001 0 1 0 30 39 L 32 39 A 1.0001 1.0001 0 1 0 32 37 L 30 37 z"/></svg>