<svg fill="#000000" xmlns="http://www.w3.org/2000/svg"  viewBox="0 0 50 50" width="1000px" height="1000px"><path d="M 3 7 A 1.0001 1.0001 0 0 0 2 8 L 2 20 A 1.0001 1.0001 0 0 0 3 21 C 4.6505991 21 5.2694555 21.376971 6.1855469 21.876953 C 7.1016383 22.376935 8.3141745 23 10.328125 23 C 12.342526 23 13.556315 22.376935 14.472656 21.876953 C 15.388998 21.376971 16.009007 21 17.660156 21 C 19.311855 21 19.930906 21.376953 20.847656 21.876953 C 21.764406 22.376953 22.978839 23 24.994141 23 C 27.008992 23 28.222172 22.376953 29.138672 21.876953 C 30.055172 21.376953 30.675023 21 32.326172 21 C 33.978969 21 34.598534 21.378925 35.515625 21.878906 C 36.432716 22.378888 37.646357 23 39.662109 23 C 41.678312 23 42.893388 22.378925 43.810547 21.878906 C 44.727705 21.378888 45.347752 21 47 21 L 47.001953 21 A 1.0001 1.0001 0 0 0 48.001953 20 L 48.001953 8 A 1.0001 1.0001 0 0 0 47.001953 7 C 44.985704 7 43.770674 7.6210754 42.853516 8.1210938 C 41.936357 8.6211119 41.31631 9 39.664062 9 C 38.011266 9 37.391701 8.6210754 36.474609 8.1210938 C 35.557518 7.6211119 34.341924 7 32.326172 7 C 30.311321 7 29.098141 7.6230469 28.181641 8.1230469 C 27.265141 8.6230469 26.645289 9 24.994141 9 C 23.342442 9 22.723391 8.6230469 21.806641 8.1230469 C 20.889891 7.6230469 19.675458 7 17.660156 7 C 15.645755 7 14.43392 7.6230652 13.517578 8.1230469 C 12.601237 8.6230286 11.981227 9 10.330078 9 C 8.6794791 9 8.0607812 8.6230469 7.1445312 8.1230469 C 6.2282813 7.6230469 5.0144009 7 3 7 z M 17.660156 9 C 19.311855 9 19.932859 9.3769531 20.849609 9.8769531 C 21.766359 10.376953 22.978839 11 24.994141 11 C 27.008992 11 28.224125 10.376953 29.140625 9.8769531 C 30.057125 9.3769531 30.675023 9 32.326172 9 C 33.97842 9 34.598466 9.3788881 35.515625 9.8789062 C 36.432784 10.378925 37.647861 11 39.664062 11 C 41.679816 11 42.893455 10.378888 43.810547 9.8789062 C 44.482566 9.5125333 45.125625 9.2694105 46.001953 9.1347656 L 46.001953 11.060547 C 44.568998 11.223594 43.606465 11.710599 42.853516 12.121094 C 41.936357 12.621112 41.31631 13 39.664062 13 C 38.011266 13 37.391701 12.621075 36.474609 12.121094 C 35.557518 11.621112 34.341924 11 32.326172 11 C 30.311321 11 29.098141 11.623047 28.181641 12.123047 C 27.265141 12.623047 26.645289 13 24.994141 13 C 23.342442 13 22.723391 12.623047 21.806641 12.123047 C 20.889891 11.623047 19.675458 11 17.660156 11 C 15.645755 11 14.43392 11.623065 13.517578 12.123047 C 12.601237 12.623029 11.981227 13 10.330078 13 C 8.6794791 13 8.0607812 12.623047 7.1445312 12.123047 C 6.3923275 11.712567 5.4316457 11.22407 4 11.060547 L 4 9.1347656 C 4.8744789 9.269425 5.5143952 9.5107039 6.1855469 9.8769531 C 7.1017969 10.376953 8.3156774 11 10.330078 11 C 12.344929 11 13.558201 10.376971 14.474609 9.8769531 C 15.391018 9.3769348 16.009557 9 17.660156 9 z M 17.660156 13 C 19.311855 13 19.932859 13.376953 20.849609 13.876953 C 21.766359 14.376953 22.978839 15 24.994141 15 C 27.008992 15 28.224125 14.376953 29.140625 13.876953 C 30.057125 13.376953 30.675023 13 32.326172 13 C 33.97842 13 34.598466 13.378888 35.515625 13.878906 C 36.432784 14.378925 37.647861 15 39.664062 15 C 41.679815 15 42.893455 14.378888 43.810547 13.878906 C 44.512639 13.496139 45.050981 13.187666 46.001953 13.0625 L 46.001953 15.060547 C 44.568998 15.223594 43.606465 15.710599 42.853516 16.121094 C 41.936357 16.621112 41.31631 17 39.664062 17 C 38.011266 17 37.391701 16.621075 36.474609 16.121094 C 35.557518 15.621112 34.341924 15 32.326172 15 C 30.311321 15 29.098141 15.623047 28.181641 16.123047 C 27.265141 16.623047 26.645289 17 24.994141 17 C 23.342442 17 22.723391 16.623047 21.806641 16.123047 C 20.889891 15.623047 19.675458 15 17.660156 15 C 15.645755 15 14.43392 15.623065 13.517578 16.123047 C 12.601237 16.623029 11.981227 17 10.330078 17 C 8.6794791 17 8.0607812 16.623047 7.1445312 16.123047 C 6.3923275 15.712567 5.4316457 15.22407 4 15.060547 L 4 13.0625 C 4.9481719 13.187263 5.4844911 13.494385 6.1855469 13.876953 C 7.1017969 14.376953 8.3156774 15 10.330078 15 C 12.344929 15 13.558201 14.376971 14.474609 13.876953 C 15.391018 13.376935 16.009557 13 17.660156 13 z M 17.660156 17 C 19.311855 17 19.932859 17.376953 20.849609 17.876953 C 21.766359 18.376953 22.978839 19 24.994141 19 C 27.008992 19 28.224125 18.376953 29.140625 17.876953 C 30.057125 17.376953 30.675023 17 32.326172 17 C 33.97842 17 34.598466 17.378888 35.515625 17.878906 C 36.432784 18.378925 37.647861 19 39.664062 19 C 41.679815 19 42.893455 18.378888 43.810547 17.878906 C 44.512639 17.496139 45.050981 17.187666 46.001953 17.0625 L 46.001953 19.150391 C 44.631829 19.326018 43.586523 19.721471 42.853516 20.121094 C 41.936424 20.621075 41.314907 21 39.662109 21 C 38.009861 21 37.389815 20.621112 36.472656 20.121094 C 35.555498 19.621075 34.342374 19 32.326172 19 C 30.311321 19 29.098141 19.623047 28.181641 20.123047 C 27.265141 20.623047 26.645289 21 24.994141 21 C 23.342442 21 22.723391 20.623047 21.806641 20.123047 C 20.889891 19.623047 19.675458 19 17.660156 19 C 15.645305 19 14.432034 19.623029 13.515625 20.123047 C 12.599216 20.623065 11.978724 21 10.328125 21 C 8.6780755 21 8.0606899 20.623065 7.1445312 20.123047 C 6.4127631 19.723665 5.3677349 19.326354 4 19.150391 L 4 17.0625 C 4.9481719 17.187263 5.4844911 17.494385 6.1855469 17.876953 C 7.1017969 18.376953 8.3156774 19 10.330078 19 C 12.344929 19 13.558201 18.376971 14.474609 17.876953 C 15.391018 17.376935 16.009557 17 17.660156 17 z M 3 27 A 1.0001 1.0001 0 0 0 2 28 L 2 40 A 1.0001 1.0001 0 0 0 3 41 C 4.6505991 41 5.2694555 41.376971 6.1855469 41.876953 C 7.1016383 42.376935 8.3141745 43 10.328125 43 C 12.342526 43 13.556315 42.376935 14.472656 41.876953 C 15.388998 41.376971 16.009007 41 17.660156 41 C 19.311855 41 19.930906 41.376953 20.847656 41.876953 C 21.764406 42.376953 22.978839 43 24.994141 43 C 27.008992 43 28.222172 42.376953 29.138672 41.876953 C 30.055172 41.376953 30.675023 41 32.326172 41 C 33.978969 41 34.598534 41.378925 35.515625 41.878906 C 36.432716 42.378888 37.646357 43 39.662109 43 C 41.678312 43 42.893388 42.378925 43.810547 41.878906 C 44.727705 41.378888 45.347752 41 47 41 L 47.001953 41 A 1.0001 1.0001 0 0 0 48.001953 40 L 48.001953 28 A 1.0001 1.0001 0 0 0 47.001953 27 C 44.985751 27 43.770674 27.621075 42.853516 28.121094 C 41.93631 28.621112 41.31631 29 39.664062 29 C 38.011266 29 37.391701 28.621075 36.474609 28.121094 C 35.557518 27.621112 34.341924 27 32.326172 27 C 30.311321 27 29.098141 27.623047 28.181641 28.123047 C 27.265141 28.623047 26.645289 29 24.994141 29 C 23.342442 29 22.723391 28.623047 21.806641 28.123047 C 20.889891 27.623047 19.675458 27 17.660156 27 C 15.645755 27 14.43392 27.623065 13.517578 28.123047 C 12.601237 28.623029 11.981227 29 10.330078 29 C 8.6794791 29 8.0607812 28.623047 7.1445312 28.123047 C 6.2282813 27.623047 5.0144009 27 3 27 z M 17.660156 29 C 19.311855 29 19.932859 29.376953 20.849609 29.876953 C 21.766359 30.376953 22.978839 31 24.994141 31 C 27.008992 31 28.224125 30.376953 29.140625 29.876953 C 30.057125 29.376953 30.675023 29 32.326172 29 C 33.97842 29 34.598466 29.378888 35.515625 29.878906 C 36.432784 30.378925 37.647861 31 39.664062 31 C 41.679816 31 42.893455 30.378888 43.810547 29.878906 C 44.482566 29.512533 45.125625 29.26941 46.001953 29.134766 L 46.001953 31.060547 C 44.568998 31.223594 43.606465 31.710599 42.853516 32.121094 C 41.936357 32.621112 41.31631 33 39.664062 33 C 38.011266 33 37.391701 32.621075 36.474609 32.121094 C 35.557518 31.621112 34.341924 31 32.326172 31 C 30.311321 31 29.098141 31.623047 28.181641 32.123047 C 27.265141 32.623047 26.645289 33 24.994141 33 C 23.342442 33 22.723391 32.623047 21.806641 32.123047 C 20.889891 31.623047 19.675458 31 17.660156 31 C 15.645755 31 14.43392 31.623065 13.517578 32.123047 C 12.601237 32.623029 11.981227 33 10.330078 33 C 8.6794791 33 8.0607812 32.623047 7.1445312 32.123047 C 6.3923275 31.712567 5.4316457 31.22407 4 31.060547 L 4 29.134766 C 4.8744789 29.269425 5.5143952 29.510704 6.1855469 29.876953 C 7.1017969 30.376953 8.3156774 31 10.330078 31 C 12.344929 31 13.558201 30.376971 14.474609 29.876953 C 15.391018 29.376935 16.009557 29 17.660156 29 z M 17.660156 33 C 19.311855 33 19.932859 33.376953 20.849609 33.876953 C 21.766359 34.376953 22.978839 35 24.994141 35 C 27.008992 35 28.224125 34.376953 29.140625 33.876953 C 30.057125 33.376953 30.675023 33 32.326172 33 C 33.97842 33 34.598466 33.378888 35.515625 33.878906 C 36.432784 34.378925 37.647861 35 39.664062 35 C 41.679815 35 42.893455 34.378888 43.810547 33.878906 C 44.512639 33.496139 45.050981 33.187666 46.001953 33.0625 L 46.001953 35.060547 C 44.568998 35.223594 43.606465 35.710599 42.853516 36.121094 C 41.936357 36.621112 41.31631 37 39.664062 37 C 38.011266 37 37.391701 36.621075 36.474609 36.121094 C 35.557518 35.621112 34.341924 35 32.326172 35 C 30.311321 35 29.098141 35.623047 28.181641 36.123047 C 27.265141 36.623047 26.645289 37 24.994141 37 C 23.342442 37 22.723391 36.623047 21.806641 36.123047 C 20.889891 35.623047 19.675458 35 17.660156 35 C 15.645755 35 14.43392 35.623065 13.517578 36.123047 C 12.601237 36.623029 11.981227 37 10.330078 37 C 8.6794791 37 8.0607812 36.623047 7.1445312 36.123047 C 6.3923275 35.712567 5.4316457 35.22407 4 35.060547 L 4 33.0625 C 4.9481719 33.187263 5.4844911 33.494385 6.1855469 33.876953 C 7.1017969 34.376953 8.3156774 35 10.330078 35 C 12.344929 35 13.558201 34.376971 14.474609 33.876953 C 15.391018 33.376935 16.009557 33 17.660156 33 z M 17.660156 37 C 19.311855 37 19.932859 37.376953 20.849609 37.876953 C 21.766359 38.376953 22.978839 39 24.994141 39 C 27.008992 39 28.224125 38.376953 29.140625 37.876953 C 30.057125 37.376953 30.675023 37 32.326172 37 C 33.97842 37 34.598466 37.378888 35.515625 37.878906 C 36.432784 38.378925 37.647861 39 39.664062 39 C 41.679815 39 42.893455 38.378888 43.810547 37.878906 C 44.512639 37.496139 45.050981 37.187666 46.001953 37.0625 L 46.001953 39.150391 C 44.631829 39.326018 43.586523 39.721471 42.853516 40.121094 C 41.936424 40.621075 41.314907 41 39.662109 41 C 38.009861 41 37.389815 40.621112 36.472656 40.121094 C 35.555498 39.621075 34.342374 39 32.326172 39 C 30.311321 39 29.098141 39.623047 28.181641 40.123047 C 27.265141 40.623047 26.645289 41 24.994141 41 C 23.342442 41 22.723391 40.623047 21.806641 40.123047 C 20.889891 39.623047 19.675458 39 17.660156 39 C 15.645305 39 14.432034 39.623029 13.515625 40.123047 C 12.599216 40.623065 11.978724 41 10.328125 41 C 8.6780755 41 8.0606899 40.623065 7.1445312 40.123047 C 6.4127631 39.723665 5.3677349 39.326354 4 39.150391 L 4 37.0625 C 4.9481719 37.187263 5.4844911 37.494385 6.1855469 37.876953 C 7.1017969 38.376953 8.3156774 39 10.330078 39 C 12.344929 39 13.558201 38.376971 14.474609 37.876953 C 15.391018 37.376935 16.009557 37 17.660156 37 z"/></svg>