<svg xmlns="http://www.w3.org/2000/svg"  viewBox="0 0 50 50" width="1000px" height="1000px"><path d="M 43.628906 2 C 43.460938 1.996094 43.292969 2.003906 43.121094 2.023438 C 41.734375 2.179688 40.261719 2.914063 38.394531 4.234375 C 34.667969 6.867188 29.316406 11.964844 20.734375 20.597656 C 12.160156 29.226563 6.953125 34.445313 4.253906 38.121094 C 2.902344 39.960938 2.136719 41.4375 2.015625 42.886719 C 1.894531 44.335938 2.550781 45.617188 3.585938 46.660156 C 4.699219 47.78125 6.253906 48.21875 7.851563 47.855469 C 9.445313 47.488281 11.128906 46.476563 13.171875 44.894531 C 17.261719 41.734375 22.765625 36.179688 30.726563 28.171875 C 38.695313 20.148438 43.457031 15.070313 45.921875 11.46875 C 47.15625 9.667969 47.847656 8.21875 47.980469 6.851563 C 48.109375 5.480469 47.554688 4.257813 46.648438 3.34375 C 45.855469 2.546875 44.808594 2.011719 43.628906 2 Z M 43.894531 4 C 44.394531 4.046875 44.761719 4.28125 45.230469 4.75 C 45.855469 5.378906 46.066406 5.851563 45.988281 6.65625 C 45.910156 7.464844 45.414063 8.671875 44.273438 10.339844 C 41.992188 13.667969 37.261719 18.757813 29.308594 26.761719 C 21.347656 34.773438 15.824219 40.316406 11.953125 43.3125 C 10.015625 44.8125 8.484375 45.65625 7.398438 45.90625 C 6.316406 46.152344 5.726563 45.976563 5.003906 45.25 C 4.203125 44.445313 3.941406 43.878906 4.007813 43.054688 C 4.078125 42.230469 4.613281 41.011719 5.867188 39.308594 C 8.371094 35.898438 13.578125 30.636719 22.152344 22.011719 C 30.71875 13.390625 36.082031 8.316406 39.550781 5.867188 C 41.285156 4.640625 42.53125 4.105469 43.34375 4.011719 C 43.550781 3.988281 43.730469 3.984375 43.894531 4 Z M 31.972656 15.097656 C 30.972656 16.097656 31.175781 17.648438 32.972656 17.847656 C 34.773438 18.046875 35.972656 17.097656 36.972656 16.097656 Z M 22.972656 24.097656 C 21.972656 25.097656 22.175781 26.648438 23.972656 26.847656 C 25.773438 27.046875 26.972656 26.097656 27.972656 25.097656 Z M 13.972656 33.097656 C 12.972656 34.097656 13.175781 35.648438 14.972656 35.847656 C 16.773438 36.046875 17.972656 35.097656 18.972656 34.097656 Z"/></svg>