<svg fill="#000000" xmlns="http://www.w3.org/2000/svg"  viewBox="0 0 50 50" width="1000px" height="1000px"><path d="M 37.40625 0.875 L 36.4375 1 C 34.15625 1.285156 32.375 2.625 32.375 2.625 L 31.5 3.25 L 32.1875 4.0625 C 32.1875 4.0625 34.597656 7.246094 34.78125 9.96875 C 34.773438 9.992188 34.742188 10.054688 34.6875 10.15625 C 34.578125 10.359375 34.386719 10.671875 34.15625 11.0625 C 33.699219 11.839844 33.136719 12.972656 32.75 14.5 C 32.167969 16.800781 30.964844 21.910156 24.875 27.09375 C 21.476563 29.988281 18.816406 31.4375 15.75 33.15625 C 12.683594 34.875 9.253906 36.871094 4.625 40.8125 C 4.238281 41.140625 4.039063 41.496094 3.8125 41.90625 C 3.585938 42.316406 3.367188 42.765625 3.1875 43.1875 C 2.828125 44.027344 2.5625 44.78125 2.5625 44.78125 L 2.40625 45.21875 L 2.65625 45.625 L 3.71875 47.3125 L 3.84375 47.5625 L 4.125 47.6875 C 5.058594 48.15625 6.410156 48.941406 7.78125 49 C 8.433594 49.027344 11.914063 49.042969 17.03125 47.625 C 22.148438 46.207031 28.820313 43.359375 35.46875 37.65625 C 43.671875 30.625 46 23.316406 46 18.28125 C 46 14.992188 44.761719 12.703125 43.4375 11.21875 C 42.773438 10.476563 42.117188 9.929688 41.5625 9.53125 C 41.007813 9.132813 40.503906 8.816406 40.5 8.8125 C 39.417969 7.839844 38.621094 6.097656 38.15625 4.59375 C 37.691406 3.089844 37.53125 1.875 37.53125 1.875 Z M 35.8125 3.28125 C 35.910156 3.832031 35.925781 4.140625 36.25 5.1875 C 36.769531 6.863281 37.625 8.882813 39.1875 10.28125 C 39.554688 10.613281 39.890625 10.808594 40.375 11.15625 C 40.859375 11.503906 41.433594 11.964844 41.96875 12.5625 C 43.035156 13.757813 44 15.472656 44 18.28125 C 44 22.703125 41.984375 29.410156 34.15625 36.125 C 27.757813 41.613281 21.382813 44.335938 16.5 45.6875 C 11.617188 47.039063 8.144531 47.011719 7.875 47 C 7.640625 46.988281 7.144531 46.816406 6.59375 46.59375 C 11.894531 43.378906 15.207031 42.09375 18.25 40.78125 C 21.574219 39.351563 24.601563 37.8125 29.1875 33.8125 C 37.175781 26.839844 39.28125 18.523438 39.28125 12.53125 L 37.28125 12.53125 C 37.28125 18.058594 35.40625 25.742188 27.875 32.3125 C 23.425781 36.195313 20.734375 37.53125 17.46875 38.9375 C 14.351563 40.28125 10.675781 41.707031 4.84375 45.3125 L 4.625 45 C 4.714844 44.75 4.800781 44.503906 5.03125 43.96875 C 5.195313 43.589844 5.386719 43.191406 5.5625 42.875 C 5.738281 42.558594 5.90625 42.34375 5.90625 42.34375 C 10.421875 38.5 13.675781 36.582031 16.71875 34.875 C 19.761719 33.167969 22.636719 31.648438 26.1875 28.625 C 32.6875 23.089844 34.117188 17.226563 34.6875 14.96875 C 35.011719 13.679688 35.488281 12.808594 35.90625 12.09375 C 36.117188 11.738281 36.300781 11.414063 36.46875 11.09375 C 36.636719 10.773438 36.808594 10.421875 36.78125 9.90625 C 36.621094 6.984375 35.152344 4.792969 34.375 3.75 C 34.757813 3.550781 35.261719 3.449219 35.8125 3.28125 Z"/></svg>