<svg xmlns="http://www.w3.org/2000/svg"  viewBox="0 0 50 50" width="1000px" height="1000px"><path d="M 30.53125 2 C 30.324219 2.046875 30.140625 2.15625 30 2.3125 L 2.3125 30 C 2.105469 30.195313 1.992188 30.46875 2 30.75 C 2 30.75 2.109375 32.832031 2.71875 35.40625 C 3.328125 37.980469 4.433594 41.121094 6.65625 43.34375 C 8.878906 45.566406 12.019531 46.671875 14.59375 47.28125 C 17.167969 47.890625 19.25 48 19.25 48 C 19.53125 48.007813 19.804688 47.894531 20 47.6875 L 47.6875 20 C 47.894531 19.804688 48.007813 19.53125 48 19.25 C 48 19.25 47.9375 17.152344 47.375 14.53125 C 46.8125 11.910156 45.765625 8.703125 43.53125 6.46875 C 41.296875 4.234375 38.089844 3.1875 35.46875 2.625 C 32.847656 2.0625 30.71875 2 30.71875 2 C 30.6875 2 30.65625 2 30.625 2 C 30.59375 2 30.5625 2 30.53125 2 Z M 31.0625 4.0625 C 31.355469 4.070313 32.84375 4.085938 35.0625 4.5625 C 37.492188 5.085938 40.359375 6.109375 42.125 7.875 C 43.890625 9.640625 44.914063 12.507813 45.4375 14.9375 C 45.910156 17.140625 45.925781 18.589844 45.9375 18.90625 L 18.90625 45.9375 C 18.574219 45.917969 17.207031 45.851563 15.0625 45.34375 C 12.675781 44.777344 9.839844 43.714844 8.0625 41.9375 C 6.285156 40.160156 5.222656 37.324219 4.65625 34.9375 C 4.144531 32.78125 4.082031 31.410156 4.0625 31.09375 Z M 32.28125 10.21875 C 31.453125 10.21875 30.78125 10.890625 30.78125 11.71875 C 30.78125 12.546875 31.453125 13.21875 32.28125 13.21875 C 33.109375 13.21875 33.78125 12.546875 33.78125 11.71875 C 33.78125 10.890625 33.109375 10.21875 32.28125 10.21875 Z M 38.28125 10.21875 C 37.453125 10.21875 36.78125 10.890625 36.78125 11.71875 C 36.78125 12.546875 37.453125 13.21875 38.28125 13.21875 C 39.109375 13.21875 39.78125 12.546875 39.78125 11.71875 C 39.78125 10.890625 39.109375 10.21875 38.28125 10.21875 Z M 24.6875 15.25 C 24.3125 15.316406 24.011719 15.589844 23.90625 15.953125 C 23.800781 16.320313 23.910156 16.710938 24.1875 16.96875 L 33.03125 25.8125 C 33.273438 26.109375 33.660156 26.246094 34.035156 26.160156 C 34.40625 26.074219 34.699219 25.78125 34.785156 25.410156 C 34.871094 25.035156 34.734375 24.648438 34.4375 24.40625 L 25.59375 15.5625 C 25.386719 15.339844 25.085938 15.226563 24.78125 15.25 C 24.75 15.25 24.71875 15.25 24.6875 15.25 Z M 38.28125 16.21875 C 37.453125 16.21875 36.78125 16.890625 36.78125 17.71875 C 36.78125 18.546875 37.453125 19.21875 38.28125 19.21875 C 39.109375 19.21875 39.78125 18.546875 39.78125 17.71875 C 39.78125 16.890625 39.109375 16.21875 38.28125 16.21875 Z M 17.71875 22.3125 C 17.675781 22.320313 17.632813 22.332031 17.59375 22.34375 C 17.21875 22.410156 16.917969 22.683594 16.8125 23.046875 C 16.707031 23.414063 16.816406 23.804688 17.09375 24.0625 L 25.9375 32.90625 C 26.335938 33.304688 26.976563 33.304688 27.375 32.90625 C 27.773438 32.507813 27.773438 31.867188 27.375 31.46875 L 18.53125 22.625 C 18.324219 22.402344 18.023438 22.289063 17.71875 22.3125 Z M 13.28125 29.21875 C 12.453125 29.21875 11.78125 29.890625 11.78125 30.71875 C 11.78125 31.546875 12.453125 32.21875 13.28125 32.21875 C 14.109375 32.21875 14.78125 31.546875 14.78125 30.71875 C 14.78125 29.890625 14.109375 29.21875 13.28125 29.21875 Z M 13.28125 35.21875 C 12.453125 35.21875 11.78125 35.890625 11.78125 36.71875 C 11.78125 37.546875 12.453125 38.21875 13.28125 38.21875 C 14.109375 38.21875 14.78125 37.546875 14.78125 36.71875 C 14.78125 35.890625 14.109375 35.21875 13.28125 35.21875 Z M 19.28125 35.21875 C 18.453125 35.21875 17.78125 35.890625 17.78125 36.71875 C 17.78125 37.546875 18.453125 38.21875 19.28125 38.21875 C 20.109375 38.21875 20.78125 37.546875 20.78125 36.71875 C 20.78125 35.890625 20.109375 35.21875 19.28125 35.21875 Z"/></svg>