<svg xmlns="http://www.w3.org/2000/svg"  viewBox="0 0 50 50" width="1000px" height="1000px"><path d="M 34.40625 0 C 33.929688 0.0898438 33.585938 0.511719 33.59375 1 C 33.59375 1 33.601563 2.234375 33.78125 3.75 C 33.960938 5.265625 34.242188 7.066406 35.03125 8.4375 C 35.375 9.042969 35.75 9.507813 36.15625 9.875 C 36.136719 9.875 36.113281 9.875 36.09375 9.875 C 35.214844 9.90625 34.335938 10.027344 33.53125 10.15625 C 31.917969 10.410156 30.625 10.75 30.625 10.75 C 30.277344 10.84375 30.003906 11.117188 29.914063 11.464844 C 29.820313 11.816406 29.925781 12.1875 30.1875 12.4375 C 30.1875 12.4375 31.085938 13.332031 32.3125 14.28125 C 33.152344 14.933594 34.148438 15.617188 35.1875 16.125 C 35.007813 16.101563 34.828125 16.082031 34.65625 16.0625 C 33.027344 15.886719 31.6875 15.90625 31.6875 15.90625 C 31.613281 15.898438 31.542969 15.898438 31.46875 15.90625 C 31.148438 15.972656 30.882813 16.1875 30.75 16.484375 C 30.621094 16.785156 30.644531 17.128906 30.8125 17.40625 C 30.8125 17.40625 31.460938 18.480469 32.40625 19.71875 C 32.71875 20.128906 33.066406 20.546875 33.4375 20.96875 C 32.492188 20.523438 31.71875 20.1875 31.71875 20.1875 C 31.601563 20.132813 31.472656 20.101563 31.34375 20.09375 C 31.3125 20.09375 31.28125 20.09375 31.25 20.09375 C 30.972656 20.125 30.71875 20.269531 30.550781 20.496094 C 30.386719 20.722656 30.320313 21.007813 30.375 21.28125 C 30.375 21.28125 30.582031 22.5 31 24 C 31.199219 24.714844 31.449219 25.492188 31.75 26.25 C 30.808594 25.46875 30 24.875 30 24.875 C 29.78125 24.726563 29.511719 24.667969 29.25 24.71875 C 28.804688 24.800781 28.472656 25.175781 28.4375 25.625 C 28.4375 25.625 28.34375 26.878906 28.40625 28.4375 C 28.441406 29.292969 28.523438 30.234375 28.6875 31.15625 C 28.625 31.0625 28.5625 30.964844 28.5 30.875 C 27.585938 29.511719 26.71875 28.5 26.71875 28.5 C 26.507813 28.234375 26.179688 28.09375 25.84375 28.125 C 25.453125 28.167969 25.121094 28.4375 25 28.8125 C 25 28.8125 24.621094 30.011719 24.28125 31.53125 C 23.976563 32.902344 23.667969 34.535156 23.8125 36 C 23.640625 35.644531 23.488281 35.296875 23.3125 34.96875 C 22.539063 33.519531 21.78125 32.40625 21.78125 32.40625 C 21.597656 32.117188 21.28125 31.9375 20.9375 31.9375 C 20.875 31.941406 20.8125 31.953125 20.75 31.96875 C 20.445313 32.039063 20.191406 32.246094 20.0625 32.53125 C 20.0625 32.53125 19.523438 33.679688 19.03125 35.15625 C 18.539063 36.632813 18.046875 38.429688 18.15625 40.03125 C 18.261719 41.484375 18.660156 42.546875 19.40625 43.1875 C 19.757813 43.492188 20.164063 43.648438 20.5625 43.75 C 16.269531 45.355469 9.363281 47.300781 1.375 47 C 0.125 48.390625 2.25 49 2.25 49 C 2.25 49 13.753906 49 21.8125 44.25 C 21.628906 44.820313 21.484375 45.519531 21.75 46.28125 C 22.078125 47.21875 22.976563 47.972656 24.375 48.46875 C 25.917969 49.015625 27.863281 48.941406 29.5 48.8125 C 31.136719 48.683594 32.4375 48.4375 32.4375 48.4375 C 32.796875 48.371094 33.089844 48.121094 33.207031 47.773438 C 33.324219 47.429688 33.246094 47.050781 33 46.78125 C 33 46.78125 32.15625 45.855469 31 44.8125 C 29.84375 43.769531 28.417969 42.601563 26.90625 42.0625 C 26.21875 41.820313 25.59375 41.675781 25.03125 41.65625 C 24.976563 41.65625 24.929688 41.65625 24.875 41.65625 C 25.019531 41.117188 25.082031 40.496094 25.03125 39.78125 C 25.011719 39.527344 24.988281 39.257813 24.9375 39 C 25.097656 39.179688 25.277344 39.335938 25.46875 39.46875 C 26.277344 40.03125 27.199219 40.019531 27.90625 39.90625 C 28.175781 39.859375 28.492188 39.796875 28.8125 39.6875 C 28.777344 39.824219 28.738281 39.964844 28.71875 40.09375 C 28.621094 40.742188 28.53125 41.640625 29.03125 42.5 C 29.53125 43.359375 30.535156 43.90625 32 44.125 C 33.621094 44.367188 35.511719 43.9375 37.09375 43.5 C 38.675781 43.0625 39.90625 42.5625 39.90625 42.5625 C 40.242188 42.429688 40.476563 42.132813 40.53125 41.777344 C 40.582031 41.421875 40.4375 41.066406 40.15625 40.84375 C 40.15625 40.84375 39.148438 40.085938 37.8125 39.28125 C 36.476563 38.476563 34.839844 37.613281 33.25 37.375 C 32.527344 37.265625 31.902344 37.253906 31.34375 37.34375 C 31.109375 37.382813 30.894531 37.460938 30.6875 37.53125 C 30.804688 36.949219 30.824219 36.273438 30.6875 35.5 C 30.667969 35.394531 30.648438 35.292969 30.625 35.1875 C 30.929688 35.460938 31.242188 35.683594 31.59375 35.8125 C 32.519531 36.148438 33.4375 35.921875 34.09375 35.625 C 34.28125 35.539063 34.476563 35.410156 34.6875 35.28125 C 34.695313 35.351563 34.707031 35.429688 34.71875 35.5 C 34.828125 36.148438 35.015625 37.027344 35.75 37.6875 C 36.484375 38.347656 37.601563 38.566406 39.03125 38.3125 C 40.617188 38.027344 42.210938 37.007813 43.53125 36.09375 C 44.851563 35.179688 45.875 34.34375 45.875 34.34375 C 46.152344 34.109375 46.28125 33.742188 46.210938 33.382813 C 46.140625 33.023438 45.878906 32.734375 45.53125 32.625 C 45.53125 32.625 44.390625 32.21875 42.90625 31.875 C 42.164063 31.703125 41.328125 31.558594 40.5 31.46875 C 39.671875 31.378906 38.839844 31.363281 38.0625 31.5 C 37.277344 31.640625 36.644531 31.871094 36.125 32.1875 C 36.046875 31.707031 35.914063 31.207031 35.65625 30.65625 C 35.609375 30.554688 35.554688 30.445313 35.5 30.34375 C 35.605469 30.367188 35.707031 30.425781 35.8125 30.4375 C 36.789063 30.554688 37.585938 30.128906 38.15625 29.6875 C 38.351563 29.535156 38.570313 29.339844 38.78125 29.125 C 38.835938 29.25 38.90625 29.359375 38.96875 29.46875 C 38.980469 29.46875 38.988281 29.46875 39 29.46875 C 39.324219 30.039063 39.777344 30.785156 40.6875 31.15625 C 41.597656 31.527344 42.742188 31.34375 44 30.625 C 45.398438 29.820313 46.566406 28.339844 47.5 27.03125 C 48.433594 25.722656 49.09375 24.59375 49.09375 24.59375 C 49.273438 24.28125 49.273438 23.898438 49.089844 23.589844 C 48.910156 23.28125 48.578125 23.089844 48.21875 23.09375 C 48.21875 23.09375 46.984375 23.101563 45.46875 23.28125 C 43.953125 23.460938 42.152344 23.773438 40.78125 24.5625 C 40.164063 24.917969 39.683594 25.308594 39.3125 25.71875 C 39.132813 25.320313 38.894531 24.921875 38.5625 24.5 C 38.417969 24.316406 38.261719 24.140625 38.09375 23.96875 C 38.511719 24.027344 38.910156 24.035156 39.28125 23.9375 C 40.230469 23.683594 40.820313 22.960938 41.1875 22.34375 C 41.332031 22.097656 41.472656 21.792969 41.59375 21.46875 C 41.777344 21.695313 41.964844 21.898438 42.15625 22.0625 C 42.652344 22.492188 43.328125 23.023438 44.3125 23.0625 C 45.296875 23.101563 46.308594 22.542969 47.25 21.4375 C 48.292969 20.207031 48.910156 18.421875 49.34375 16.875 C 49.777344 15.328125 50 14.03125 50 14.03125 C 50.054688 13.710938 49.953125 13.382813 49.722656 13.152344 C 49.492188 12.921875 49.164063 12.820313 48.84375 12.875 C 48.78125 12.890625 48.714844 12.910156 48.65625 12.9375 C 48.65625 12.9375 47.488281 13.347656 46.125 14.03125 C 44.761719 14.714844 43.175781 15.636719 42.15625 16.84375 C 41.644531 17.445313 41.296875 18.003906 41.09375 18.5625 C 40.734375 18.132813 40.25 17.738281 39.625 17.375 C 39.324219 17.199219 38.996094 17.039063 38.65625 16.90625 C 39.164063 16.867188 39.609375 16.757813 40 16.53125 C 40.851563 16.039063 41.210938 15.226563 41.40625 14.53125 C 41.433594 14.429688 41.472656 14.304688 41.5 14.1875 C 41.625 14.261719 41.753906 14.347656 41.875 14.40625 C 42.464844 14.6875 43.289063 15.058594 44.25 14.84375 C 45.210938 14.628906 46.035156 13.808594 46.65625 12.5 C 47.34375 11.042969 47.449219 9.167969 47.46875 7.5625 C 47.488281 5.957031 47.375 4.65625 47.375 4.65625 C 47.355469 4.363281 47.207031 4.097656 46.972656 3.921875 C 46.738281 3.75 46.441406 3.683594 46.15625 3.75 C 46.019531 3.785156 45.890625 3.847656 45.78125 3.9375 C 45.78125 3.9375 44.796875 4.644531 43.65625 5.65625 C 43.058594 6.183594 42.417969 6.808594 41.84375 7.46875 C 41.832031 6.785156 41.589844 6.03125 41.125 5.21875 C 40.320313 3.820313 38.835938 2.652344 37.53125 1.71875 C 36.226563 0.785156 35.0625 0.125 35.0625 0.125 C 34.890625 0.0273438 34.695313 -0.015625 34.5 0 C 34.46875 0 34.4375 0 34.40625 0 Z M 35.71875 2.90625 C 36.023438 3.105469 36.023438 3.089844 36.375 3.34375 C 37.582031 4.207031 38.898438 5.402344 39.375 6.21875 C 39.925781 7.179688 39.867188 7.566406 39.78125 7.78125 C 39.695313 7.996094 39.429688 8.242188 38.96875 8.5 C 38.558594 8.730469 38.253906 8.785156 38 8.71875 C 37.746094 8.652344 37.335938 8.410156 36.78125 7.4375 C 36.292969 6.589844 35.914063 4.929688 35.75 3.53125 C 35.710938 3.1875 35.742188 3.207031 35.71875 2.90625 Z M 45.4375 6.78125 C 45.449219 7.132813 45.472656 7.113281 45.46875 7.53125 C 45.449219 9.023438 45.246094 10.804688 44.84375 11.65625 C 44.367188 12.65625 44.007813 12.824219 43.78125 12.875 C 43.5625 12.925781 43.207031 12.839844 42.75 12.625 C 42.738281 12.621094 42.730469 12.628906 42.71875 12.625 C 42.308594 12.421875 42.089844 12.207031 42 11.96875 C 41.90625 11.722656 41.867188 11.230469 42.34375 10.21875 C 42.765625 9.332031 43.914063 8.09375 44.96875 7.15625 C 45.214844 6.9375 45.214844 6.964844 45.4375 6.78125 Z M 40.25 10.0625 C 40.167969 10.289063 40.113281 10.507813 40.0625 10.71875 C 39.894531 10.621094 39.726563 10.519531 39.53125 10.4375 C 39.671875 10.375 39.8125 10.320313 39.9375 10.25 C 40.03125 10.195313 40.144531 10.125 40.25 10.0625 Z M 36.1875 11.90625 C 36.953125 11.886719 37.652344 11.933594 38.125 12.0625 C 39.222656 12.359375 39.46875 12.691406 39.5625 12.90625 C 39.65625 13.121094 39.640625 13.464844 39.5 13.96875 C 39.375 14.421875 39.199219 14.679688 38.96875 14.8125 C 38.738281 14.945313 38.234375 15.082031 37.125 14.78125 C 36.144531 14.515625 34.667969 13.570313 33.53125 12.6875 C 33.257813 12.476563 33.292969 12.472656 33.0625 12.28125 C 33.425781 12.207031 33.40625 12.195313 33.84375 12.125 C 34.59375 12.007813 35.421875 11.925781 36.1875 11.90625 Z M 47.5625 15.59375 C 47.480469 15.9375 47.519531 15.941406 47.40625 16.34375 C 47.003906 17.78125 46.359375 19.4375 45.75 20.15625 C 45.03125 21 44.636719 21.070313 44.40625 21.0625 C 44.175781 21.054688 43.835938 20.875 43.4375 20.53125 C 43.078125 20.222656 42.933594 19.980469 42.90625 19.71875 C 42.878906 19.457031 42.964844 18.980469 43.6875 18.125 C 44.320313 17.378906 45.769531 16.476563 47.03125 15.84375 C 47.324219 15.699219 47.300781 15.710938 47.5625 15.59375 Z M 33.65625 18.03125 C 34.019531 18.054688 34.007813 18.015625 34.4375 18.0625 C 35.957031 18.226563 37.769531 18.597656 38.625 19.09375 C 39.613281 19.671875 39.777344 20.082031 39.8125 20.3125 C 39.847656 20.542969 39.734375 20.859375 39.46875 21.3125 C 39.226563 21.71875 39.011719 21.929688 38.75 22 C 38.488281 22.070313 37.972656 22.050781 36.96875 21.46875 C 36.082031 20.953125 34.878906 19.648438 34 18.5 C 33.804688 18.242188 33.820313 18.265625 33.65625 18.03125 Z M 32.8125 22.90625 C 33.128906 23.058594 33.136719 23.027344 33.5 23.21875 C 34.851563 23.933594 36.359375 24.945313 36.96875 25.71875 C 37.675781 26.621094 37.710938 27.054688 37.65625 27.28125 C 37.601563 27.507813 37.351563 27.773438 36.9375 28.09375 C 36.570313 28.378906 36.300781 28.5 36.03125 28.46875 C 35.761719 28.4375 35.277344 28.222656 34.5625 27.3125 C 33.933594 26.507813 33.324219 24.863281 32.9375 23.46875 C 32.851563 23.160156 32.878906 23.179688 32.8125 22.90625 Z M 46.28125 25.25 C 46.089844 25.542969 46.113281 25.542969 45.875 25.875 C 45.007813 27.089844 43.816406 28.4375 43 28.90625 C 42.039063 29.457031 41.652344 29.398438 41.4375 29.3125 C 41.222656 29.226563 40.980469 28.929688 40.71875 28.46875 C 40.488281 28.058594 40.433594 27.785156 40.5 27.53125 C 40.566406 27.277344 40.8125 26.839844 41.78125 26.28125 C 42.628906 25.792969 44.285156 25.449219 45.6875 25.28125 C 46.015625 25.242188 45.992188 25.273438 46.28125 25.25 Z M 30.40625 27.78125 C 30.683594 28.003906 30.683594 27.972656 31 28.25 C 32.148438 29.253906 33.429688 30.574219 33.84375 31.46875 C 33.84375 31.480469 33.84375 31.488281 33.84375 31.5 C 34.328125 32.539063 34.230469 32.945313 34.125 33.15625 C 34.019531 33.367188 33.730469 33.5625 33.25 33.78125 C 32.820313 33.976563 32.535156 34.03125 32.28125 33.9375 C 32.027344 33.84375 31.609375 33.519531 31.125 32.46875 C 30.695313 31.542969 30.464844 29.820313 30.40625 28.375 C 30.394531 28.042969 30.40625 28.070313 30.40625 27.78125 Z M 26.375 31.375 C 26.589844 31.667969 26.601563 31.640625 26.84375 32 C 27.695313 33.269531 28.546875 34.871094 28.71875 35.84375 C 28.914063 36.972656 28.75 37.355469 28.59375 37.53125 C 28.445313 37.703125 28.089844 37.847656 27.59375 37.9375 C 27.578125 37.941406 27.578125 37.933594 27.5625 37.9375 C 27.121094 38.003906 26.808594 37.960938 26.59375 37.8125 C 26.371094 37.65625 26.042969 37.265625 25.84375 36.125 C 25.667969 35.113281 25.902344 33.382813 26.21875 31.96875 C 26.292969 31.636719 26.300781 31.660156 26.375 31.375 Z M 39.25 33.40625 C 40.199219 33.414063 41.40625 33.605469 42.4375 33.84375 C 42.753906 33.917969 42.726563 33.925781 43 34 C 42.71875 34.210938 42.746094 34.234375 42.40625 34.46875 C 41.179688 35.316406 39.613281 36.175781 38.6875 36.34375 C 37.597656 36.535156 37.234375 36.339844 37.0625 36.1875 C 36.890625 36.035156 36.777344 35.710938 36.6875 35.1875 C 36.609375 34.71875 36.636719 34.402344 36.78125 34.1875 C 36.925781 33.972656 37.304688 33.667969 38.40625 33.46875 C 38.648438 33.425781 38.933594 33.402344 39.25 33.40625 Z M 21.15625 35.21875 C 21.339844 35.535156 21.359375 35.523438 21.5625 35.90625 C 22.28125 37.253906 22.960938 38.957031 23.03125 39.9375 C 23.113281 41.082031 22.890625 41.433594 22.71875 41.59375 C 22.546875 41.753906 22.214844 41.839844 21.6875 41.875 C 21.21875 41.902344 20.925781 41.835938 20.71875 41.65625 C 20.511719 41.476563 20.242188 41.058594 20.15625 39.90625 C 20.085938 38.882813 20.480469 37.152344 20.9375 35.78125 C 21.042969 35.460938 21.054688 35.496094 21.15625 35.21875 Z M 31.78125 39.28125 C 31.902344 39.269531 32.058594 39.277344 32.21875 39.28125 C 32.429688 39.289063 32.683594 39.300781 32.96875 39.34375 C 33.980469 39.496094 35.539063 40.253906 36.78125 41 C 37.070313 41.171875 37.035156 41.183594 37.28125 41.34375 C 36.945313 41.453125 36.964844 41.453125 36.5625 41.5625 C 35.089844 41.96875 33.285156 42.300781 32.3125 42.15625 C 32.300781 42.15625 32.292969 42.15625 32.28125 42.15625 C 31.148438 41.988281 30.867188 41.671875 30.75 41.46875 C 30.632813 41.265625 30.609375 40.925781 30.6875 40.40625 C 30.761719 39.9375 30.878906 39.660156 31.09375 39.5 C 31.214844 39.410156 31.414063 39.3125 31.78125 39.28125 Z M 24.96875 43.65625 C 25.261719 43.667969 25.671875 43.746094 26.21875 43.9375 C 27.183594 44.28125 28.613281 45.34375 29.6875 46.3125 C 29.925781 46.527344 29.890625 46.523438 30.09375 46.71875 C 29.742188 46.761719 29.757813 46.78125 29.34375 46.8125 C 27.820313 46.933594 25.957031 46.890625 25.03125 46.5625 C 23.949219 46.179688 23.734375 45.84375 23.65625 45.625 C 23.578125 45.40625 23.632813 45.027344 23.8125 44.53125 C 23.972656 44.089844 24.132813 43.867188 24.375 43.75 C 24.496094 43.691406 24.675781 43.644531 24.96875 43.65625 Z"/></svg>