<svg fill="#000000" xmlns="http://www.w3.org/2000/svg"  viewBox="0 0 50 50" width="1000px" height="1000px"><path d="M 5 4 A 1.0001 1.0001 0 0 0 4 5 C 4 9.6911915 4.6566904 14.540367 6.3613281 18.5 C 7.819231 21.886503 10.128321 24.660587 13.421875 25.888672 C 13.027847 26.349867 12.65536 26.867281 12.318359 27.457031 C 10.883733 29.967628 10 33.638889 10 39 A 1.0001 1.0001 0 0 0 11 40 C 16.361111 40 20.032372 39.116267 22.542969 37.681641 C 23.132719 37.34464 23.650133 36.972153 24.111328 36.578125 C 25.339413 39.871679 28.113497 42.180769 31.5 43.638672 C 35.459633 45.34331 40.308809 46 45 46 A 1.0001 1.0001 0 0 0 46 45 C 46 40.308809 45.34331 35.459633 43.638672 31.5 C 42.180769 28.113497 39.871679 25.339413 36.578125 24.111328 C 36.972153 23.650133 37.34464 23.132719 37.681641 22.542969 C 39.116267 20.032372 40 16.361111 40 11 A 1.0001 1.0001 0 0 0 39 10 C 33.638889 10 29.967628 10.883733 27.457031 12.318359 C 26.867281 12.65536 26.349867 13.027847 25.888672 13.421875 C 24.660587 10.128321 21.886503 7.819231 18.5 6.3613281 C 14.540367 4.6566904 9.6911915 4 5 4 z M 6.0839844 6.0839844 C 10.232574 6.1829724 14.418274 6.7806019 17.708984 8.1972656 C 21.159633 9.6827835 23.564166 11.900075 24.316406 15.179688 C 23.754579 16.012998 23.37153 16.888881 23.154297 17.757812 C 22.803016 19.162936 22.825691 20.440021 22.986328 21.572266 L 20.199219 18.785156 C 20.730564 17.879792 21.920848 15.59848 20.949219 12.683594 A 1.0005646 1.0005646 0 1 0 19.050781 13.316406 C 19.575256 14.88983 19.128681 16.286051 18.693359 17.279297 L 14.984375 13.570312 C 15.016305 13.530043 15.044612 13.520193 15.076172 13.476562 C 15.580444 12.779366 16 11.663222 16 10 A 1.0001 1.0001 0 0 0 14.984375 8.9863281 A 1.0001 1.0001 0 0 0 14 10 C 14 11.213238 13.72586 11.744613 13.505859 12.091797 L 10.707031 9.2929688 A 1.0001 1.0001 0 1 0 9.2929688 10.707031 L 12.091797 13.505859 C 11.744613 13.72586 11.213238 14 10 14 A 1.0001 1.0001 0 1 0 10 16 C 11.663222 16 12.779366 15.580447 13.476562 15.076172 C 13.520193 15.044612 13.530043 15.016305 13.570312 14.984375 L 17.279297 18.693359 C 16.286051 19.128681 14.88983 19.575256 13.316406 19.050781 A 1.0005646 1.0005646 0 1 0 12.683594 20.949219 C 15.59848 21.920848 17.879792 20.730564 18.785156 20.199219 L 21.572266 22.986328 C 20.440021 22.825691 19.162936 22.803016 17.757812 23.154297 C 16.888881 23.37153 16.012998 23.754579 15.179688 24.316406 C 11.900075 23.564166 9.6827835 21.159633 8.1972656 17.708984 C 6.7806019 14.418274 6.1829729 10.232574 6.0839844 6.0839844 z M 37.900391 12.099609 C 37.768523 16.518902 37.03182 19.645975 35.943359 21.550781 C 34.752986 23.633935 33.279545 24.523864 31.757812 24.904297 C 29.824676 25.387581 27.948414 24.975706 26.808594 24.605469 L 29.871094 21.542969 C 32.287455 22.739456 34.447266 21.894531 34.447266 21.894531 A 1.0001163 1.0001163 0 1 0 33.552734 20.105469 C 33.552734 20.105469 32.676988 20.570172 31.330078 20.083984 L 34.707031 16.707031 A 1.0001 1.0001 0 1 0 33.292969 15.292969 L 29.916016 18.669922 C 29.429823 17.323012 29.894531 16.447266 29.894531 16.447266 A 1.0001163 1.0001163 0 1 0 28.105469 15.552734 C 28.105469 15.552734 27.260544 17.712545 28.457031 20.128906 L 25.394531 23.191406 C 25.024294 22.051586 24.612419 20.175324 25.095703 18.242188 C 25.476136 16.720455 26.366065 15.247014 28.449219 14.056641 C 30.354025 12.96818 33.481098 12.231477 37.900391 12.099609 z M 20.511719 24.898438 C 21.626539 24.958057 22.529306 25.181004 23.191406 25.394531 L 20.128906 28.457031 C 17.712545 27.260544 15.552734 28.105469 15.552734 28.105469 A 1.0001163 1.0001163 0 1 0 16.447266 29.894531 C 16.447266 29.894531 17.323012 29.429828 18.669922 29.916016 L 15.292969 33.292969 A 1.0001 1.0001 0 1 0 16.707031 34.707031 L 20.083984 31.330078 C 20.570177 32.676988 20.105469 33.552734 20.105469 33.552734 A 1.0001163 1.0001163 0 1 0 21.894531 34.447266 C 21.894531 34.447266 22.739456 32.287455 21.542969 29.871094 L 24.605469 26.808594 C 24.975706 27.948414 25.387581 29.824676 24.904297 31.757812 C 24.523864 33.279545 23.633935 34.752986 21.550781 35.943359 C 19.645975 37.03182 16.518902 37.768523 12.099609 37.900391 C 12.231477 33.481098 12.96818 30.354025 14.056641 28.449219 C 15.247014 26.366065 16.720455 25.476136 18.242188 25.095703 C 19.003052 24.905487 19.77747 24.85917 20.511719 24.898438 z M 34.820312 25.683594 C 38.099925 26.435834 40.317217 28.840367 41.802734 32.291016 C 43.219398 35.581726 43.817027 39.767426 43.916016 43.916016 C 39.767426 43.817026 35.581726 43.219398 32.291016 41.802734 C 28.840367 40.317217 26.435834 38.099925 25.683594 34.820312 C 26.245421 33.987002 26.62847 33.111119 26.845703 32.242188 C 27.196984 30.837064 27.174309 29.559979 27.013672 28.427734 L 29.800781 31.214844 C 29.269436 32.120208 28.079152 34.40152 29.050781 37.316406 A 1.0005646 1.0005646 0 1 0 30.949219 36.683594 C 30.424744 35.11017 30.871319 33.713949 31.306641 32.720703 L 35.015625 36.429688 C 34.983695 36.469957 34.955388 36.479807 34.923828 36.523438 C 34.419556 37.220635 34 38.336778 34 40 A 1.0001 1.0001 0 1 0 36 40 C 36 38.786762 36.27414 38.255387 36.494141 37.908203 L 39.292969 40.707031 A 1.0001 1.0001 0 1 0 40.707031 39.292969 L 37.908203 36.494141 C 38.255387 36.27414 38.786762 36 40 36 A 1.0001 1.0001 0 1 0 40 34 C 38.336778 34 37.220635 34.419553 36.523438 34.923828 C 36.479807 34.955388 36.469957 34.983695 36.429688 35.015625 L 32.720703 31.306641 C 33.713949 30.871319 35.11017 30.424744 36.683594 30.949219 A 1.0005646 1.0005646 0 1 0 37.316406 29.050781 C 34.40152 28.079152 32.120208 29.269436 31.214844 29.800781 L 28.427734 27.013672 C 29.559979 27.174309 30.837064 27.196984 32.242188 26.845703 C 33.111119 26.62847 33.987002 26.245421 34.820312 25.683594 z"/></svg>