<svg xmlns="http://www.w3.org/2000/svg"  viewBox="0 0 50 50" width="1000px" height="1000px"><path d="M 24.984375 1.984375 C 24.925781 1.988281 24.871094 1.992188 24.8125 2.003906 C 17.765625 2.058594 11.46875 5.292969 7.285156 10.34375 C 7.179688 10.429688 7.089844 10.539063 7.03125 10.660156 C 3.921875 14.546875 2.046875 19.460938 2.003906 24.804688 C 1.980469 24.929688 1.980469 25.058594 2.003906 25.183594 C 2.046875 30.503906 3.902344 35.394531 6.976563 39.273438 C 7.050781 39.453125 7.175781 39.609375 7.335938 39.71875 C 11.519531 44.730469 17.789063 47.9375 24.804688 47.996094 C 24.929688 48.019531 25.058594 48.019531 25.183594 47.996094 C 32.203125 47.941406 38.480469 44.734375 42.664063 39.71875 C 42.824219 39.609375 42.945313 39.453125 43.019531 39.277344 C 46.097656 35.398438 47.953125 30.511719 47.996094 25.195313 C 48.019531 25.070313 48.019531 24.941406 47.996094 24.816406 C 47.953125 19.46875 46.078125 14.554688 42.96875 10.664063 C 42.910156 10.542969 42.824219 10.433594 42.71875 10.34375 C 38.535156 5.292969 32.234375 2.058594 25.183594 2.003906 C 25.117188 1.992188 25.050781 1.984375 24.984375 1.984375 Z M 24 4.023438 L 24 24 L 16.964844 24 C 16.644531 18.539063 13.742188 13.773438 9.460938 10.898438 C 13.09375 6.898438 18.230469 4.296875 24 4.023438 Z M 26 4.023438 C 31.769531 4.296875 36.90625 6.898438 40.535156 10.898438 C 36.257813 13.773438 33.355469 18.539063 33.035156 24 L 26 24 Z M 8.1875 12.449219 C 12.023438 14.953125 14.648438 19.152344 14.96875 24 L 4.023438 24 C 4.226563 19.671875 5.753906 15.703125 8.1875 12.449219 Z M 41.8125 12.449219 C 44.246094 15.703125 45.773438 19.671875 45.972656 24 L 35.03125 24 C 35.351563 19.152344 37.976563 14.953125 41.8125 12.449219 Z M 4.023438 26 L 14.96875 26 C 14.648438 30.847656 12.023438 35.046875 8.1875 37.550781 C 5.753906 34.296875 4.226563 30.328125 4.023438 26 Z M 16.964844 26 L 24 26 L 24 45.972656 C 18.230469 45.703125 13.09375 43.101563 9.460938 39.101563 C 13.742188 36.226563 16.644531 31.460938 16.964844 26 Z M 26 26 L 33.035156 26 C 33.355469 31.460938 36.257813 36.226563 40.535156 39.101563 C 36.90625 43.101563 31.769531 45.703125 26 45.972656 Z M 35.03125 26 L 45.972656 26 C 45.773438 30.328125 44.246094 34.296875 41.8125 37.550781 C 37.976563 35.046875 35.351563 30.847656 35.03125 26 Z"/></svg>