<svg xmlns="http://www.w3.org/2000/svg"  viewBox="0 0 50 50" width="1000px" height="1000px"><path d="M 25 2 C 12.310941 2 2 12.310941 2 25 C 2 27.240008 2.4224835 29.362008 3.0214844 31.410156 A 1.0001 1.0001 0 0 0 3.3066406 32.332031 C 5.3870415 38.468452 9.9079735 43.467671 15.794922 46.050781 C 18.618091 47.289548 21.722965 48 25 48 C 29.724419 48 34.113875 46.562531 37.769531 44.113281 A 1.0001 1.0001 0 0 0 38.320312 43.681641 C 42.883571 40.418712 46.218477 35.55087 47.460938 29.898438 A 1.0001 1.0001 0 0 0 47.541016 29.527344 C 47.837039 28.063734 48 26.551813 48 25 C 48 12.310941 37.68906 2 25 2 z M 25 4 C 25.681638 4 26.354627 4.0343351 27.019531 4.0976562 C 27.071126 4.6006067 27.483809 5 28 5 C 28.419339 5 28.777615 4.7384512 28.925781 4.3710938 C 29.677509 4.5130241 30.415734 4.6924855 31.136719 4.9121094 C 31.202219 5.2693913 31.251799 5.6498377 31.283203 6.0566406 C 31.19173 6.0289399 31.100311 6 31 6 C 30.449219 6 30 6.449219 30 7 C 30 7.550781 30.449219 8 31 8 C 31.113482 8 31.218494 7.9706464 31.320312 7.9355469 C 31.289008 9.2645404 31.150669 10.672325 30.945312 12.011719 C 30.421283 12.041869 30 12.468643 30 13 C 30 13.411142 30.251403 13.764618 30.607422 13.917969 C 30.291923 15.424018 29.949473 16.550546 29.744141 17.152344 C 29.494598 17.102989 29.26329 17 29 17 C 28.291147 17 27.657599 17.238396 27.078125 17.566406 C 26.562928 16.450643 25.815068 15.227536 24.935547 13.986328 C 24.958054 13.987854 24.977117 14 25 14 C 25.550781 14 26 13.550781 26 13 C 26 12.449219 25.550781 12 25 12 C 24.519863 12 24.136485 12.348341 24.041016 12.800781 C 23.539233 12.149149 23.015857 11.507975 22.464844 10.871094 C 22.778687 10.702064 23 10.380265 23 10 C 23 9.449219 22.550781 9 22 9 C 21.656052 9 21.36562 9.1854737 21.185547 9.4511719 C 20.639428 8.8690684 20.099695 8.3175849 19.5625 7.8046875 C 19.820407 7.623517 20 7.3379265 20 7 C 20 6.449219 19.550781 6 19 6 C 18.630225 6 18.319503 6.2119679 18.146484 6.5117188 C 17.732616 6.1636297 17.346296 5.8634314 16.96875 5.5917969 C 18.275785 5.051017 19.649363 4.6401145 21.074219 4.3710938 C 21.222385 4.7384512 21.580661 5 22 5 C 22.516191 5 22.928874 4.6006067 22.980469 4.0976562 C 23.645373 4.0343351 24.318362 4 25 4 z M 33.265625 5.6914062 C 40.756047 8.8983394 46 16.328964 46 25 C 46 25.520872 45.975381 26.034456 45.9375 26.544922 C 41.08959 19.724396 32.22443 18.467673 32 18.4375 C 31.863901 18.278379 31.725379 18.13822 31.566406 18.001953 C 31.982489 16.881987 32.484733 15.084218 32.884766 12.589844 C 33.243538 10.352743 33.477556 7.8782218 33.265625 5.6914062 z M 25 6 C 24.449219 6 24 6.449219 24 7 C 24 7.550781 24.449219 8 25 8 C 25.550781 8 26 7.550781 26 7 C 26 6.449219 25.550781 6 25 6 z M 14.810547 6.640625 C 15.251537 6.848834 16.026078 7.3382295 16.876953 8.0546875 C 17.91005 8.9245811 19.094149 10.08786 20.25 11.361328 C 22.505704 13.846568 24.65401 16.807109 25.472656 18.71875 C 17.447543 19.500724 9.7460607 23.73247 4.5429688 29.615234 C 4.2085513 28.125941 4 26.591022 4 25 C 4 17.093389 8.3633267 10.22335 14.810547 6.640625 z M 28 9 C 27.449219 9 27 9.449219 27 10 C 27 10.550781 27.449219 11 28 11 C 28.550781 11 29 10.550781 29 10 C 29 9.449219 28.550781 9 28 9 z M 28 15 C 27.449219 15 27 15.449219 27 16 C 27 16.550781 27.449219 17 28 17 C 28.550781 17 29 16.550781 29 16 C 29 15.449219 28.550781 15 28 15 z M 29 19 C 30.115369 19 31 19.884631 31 21 C 31 22.115369 30.115369 23 29 23 C 27.884631 23 27 22.115369 27 21 C 27 19.884631 27.884631 19 29 19 z M 32.935547 20.679688 C 34.824621 21.114604 38.790479 22.300366 42.03125 25.152344 C 42.102174 25.593726 42.449912 25.93268 42.898438 25.980469 C 43.891244 26.999707 44.783565 28.19667 45.478516 29.611328 C 44.948409 31.927716 44.028007 34.091143 42.794922 36.041016 C 42.345285 36.138629 42 36.521858 42 37 C 42 37.059468 42.023167 37.111306 42.033203 37.167969 C 41.540012 37.846859 41.004122 38.49379 40.435547 39.109375 C 40.302537 39.043732 40.157892 39 40 39 C 39.449219 39 39 39.449219 39 40 C 39 40.15634 39.042984 40.299618 39.107422 40.431641 C 38.784146 40.725975 38.454005 41.012474 38.113281 41.287109 C 37.927793 40.264947 37.671522 39.127045 37.359375 37.927734 C 37.732455 37.782342 38 37.423463 38 37 C 38 36.449219 37.550781 36 37 36 C 36.937738 36 36.883383 36.024177 36.824219 36.035156 C 36.545943 35.110449 36.244925 34.166041 35.890625 33.189453 C 35.3667 31.745312 34.788791 30.31284 34.166016 28.966797 C 34.635083 28.884657 35 28.491978 35 28 C 35 27.449219 34.550781 27 34 27 C 33.738205 27 33.502789 27.105838 33.324219 27.271484 C 32.712734 26.11575 32.064299 25.068403 31.380859 24.189453 C 32.355786 23.457629 33 22.303455 33 21 C 33 20.886745 32.944937 20.790654 32.935547 20.679688 z M 25.017578 20.78125 C 25.012444 20.854454 25 20.925136 25 21 C 25 22.346002 25.681562 23.539418 26.710938 24.265625 C 26.477803 25.81547 25.777984 27.842468 24.775391 30.044922 C 24.335475 30.149745 24 30.528776 24 31 C 24 31.159445 24.04447 31.305465 24.111328 31.439453 C 23.748332 32.174502 23.340099 32.919156 22.931641 33.662109 C 22.791645 33.27848 22.431046 33 22 33 C 21.449219 33 21 33.449219 21 34 C 21 34.550781 21.449219 35 22 35 C 22.073304 35 22.138145 34.974079 22.207031 34.958984 C 20.188107 38.432248 17.880889 41.697039 16.005859 43.908203 C 15.297842 43.570906 14.61489 43.192086 13.955078 42.78125 C 13.852299 42.338531 13.473219 42 13 42 C 12.943192 42 12.894109 42.024027 12.839844 42.033203 C 12.155713 41.543313 11.498831 41.017973 10.880859 40.451172 C 10.951735 40.314057 11 40.164494 11 40 C 11 39.449219 10.550781 39 10 39 C 9.8386107 39 9.6918431 39.046841 9.5566406 39.115234 C 8.9897047 38.492421 8.4599075 37.835214 7.9707031 37.146484 C 7.9783854 37.096692 8 37.051885 8 37 C 8 36.535694 7.6743377 36.160516 7.2441406 36.048828 C 6.4202415 34.719384 5.7342322 33.292831 5.2167969 31.783203 C 5.4790727 31.460129 5.7539677 31.143581 6.0332031 30.830078 C 6.0229463 30.887338 6 30.939867 6 31 C 6 31.550781 6.449219 32 7 32 C 7.550781 32 8 31.550781 8 31 C 8 30.449219 7.550781 30 7 30 C 6.9169838 30 6.8428362 30.027655 6.765625 30.046875 C 7.4716613 29.31199 8.2207111 28.606978 9.0117188 27.9375 C 9.0102967 27.959235 9 27.977916 9 28 C 9 28.550781 9.449219 29 10 29 C 10.550781 29 11 28.550781 11 28 C 11 27.498975 10.622377 27.098594 10.140625 27.027344 C 10.805007 26.515952 11.491213 26.029277 12.199219 25.568359 C 12.380789 25.823018 12.664598 26 13 26 C 13.550781 26 14 25.550781 14 25 C 14 24.834534 13.950567 24.684583 13.878906 24.546875 C 16.158873 23.252509 18.60367 22.230694 21.121094 21.548828 C 21.049902 21.686182 21 21.835114 21 22 C 21 22.550781 21.449219 23 22 23 C 22.550781 23 23 22.550781 23 22 C 23 21.663626 22.822315 21.378686 22.566406 21.197266 C 23.379271 21.021599 24.197568 20.881815 25.017578 20.78125 z M 34 21 C 33.449219 21 33 21.449219 33 22 C 33 22.550781 33.449219 23 34 23 C 34.550781 23 35 22.550781 35 22 C 35 21.449219 34.550781 21 34 21 z M 19 24 C 18.449219 24 18 24.449219 18 25 C 18 25.550781 18.449219 26 19 26 C 19.550781 26 20 25.550781 20 25 C 20 24.449219 19.550781 24 19 24 z M 25 24 C 24.449219 24 24 24.449219 24 25 C 24 25.550781 24.449219 26 25 26 C 25.550781 26 26 25.550781 26 25 C 26 24.449219 25.550781 24 25 24 z M 37 24 C 36.449219 24 36 24.449219 36 25 C 36 25.550781 36.449219 26 37 26 C 37.550781 26 38 25.550781 38 25 C 38 24.449219 37.550781 24 37 24 z M 29.429688 24.957031 C 31.007282 26.779041 32.716549 30.301099 34.011719 33.871094 C 35.227076 37.221093 36.053344 40.527355 36.347656 42.632812 C 33.072165 44.743536 29.190802 46 25 46 C 22.502538 46 20.142733 45.489477 17.921875 44.691406 C 19.933196 42.247055 22.232215 38.981208 24.25 35.435547 C 26.348474 31.748099 28.083385 28.00353 28.626953 24.960938 C 28.751679 24.972835 28.872336 25 29 25 C 29.146977 25 29.28666 24.972745 29.429688 24.957031 z M 16 27 C 15.449219 27 15 27.449219 15 28 C 15 28.550781 15.449219 29 16 29 C 16.550781 29 17 28.550781 17 28 C 17 27.449219 16.550781 27 16 27 z M 22 27 C 21.449219 27 21 27.449219 21 28 C 21 28.550781 21.449219 29 22 29 C 22.550781 29 23 28.550781 23 28 C 23 27.449219 22.550781 27 22 27 z M 40 27 C 39.449219 27 39 27.449219 39 28 C 39 28.550781 39.449219 29 40 29 C 40.550781 29 41 28.550781 41 28 C 41 27.449219 40.550781 27 40 27 z M 13 30 C 12.449219 30 12 30.449219 12 31 C 12 31.550781 12.449219 32 13 32 C 13.550781 32 14 31.550781 14 31 C 14 30.449219 13.550781 30 13 30 z M 19 30 C 18.449219 30 18 30.449219 18 31 C 18 31.550781 18.449219 32 19 32 C 19.550781 32 20 31.550781 20 31 C 20 30.449219 19.550781 30 19 30 z M 37 30 C 36.449219 30 36 30.449219 36 31 C 36 31.550781 36.449219 32 37 32 C 37.550781 32 38 31.550781 38 31 C 38 30.449219 37.550781 30 37 30 z M 43 30 C 42.449219 30 42 30.449219 42 31 C 42 31.550781 42.449219 32 43 32 C 43.550781 32 44 31.550781 44 31 C 44 30.449219 43.550781 30 43 30 z M 10 33 C 9.449219 33 9 33.449219 9 34 C 9 34.550781 9.449219 35 10 35 C 10.550781 35 11 34.550781 11 34 C 11 33.449219 10.550781 33 10 33 z M 16 33 C 15.449219 33 15 33.449219 15 34 C 15 34.550781 15.449219 35 16 35 C 16.550781 35 17 34.550781 17 34 C 17 33.449219 16.550781 33 16 33 z M 40 33 C 39.449219 33 39 33.449219 39 34 C 39 34.550781 39.449219 35 40 35 C 40.550781 35 41 34.550781 41 34 C 41 33.449219 40.550781 33 40 33 z M 13 36 C 12.449219 36 12 36.449219 12 37 C 12 37.550781 12.449219 38 13 38 C 13.550781 38 14 37.550781 14 37 C 14 36.449219 13.550781 36 13 36 z M 19 36 C 18.449219 36 18 36.449219 18 37 C 18 37.550781 18.449219 38 19 38 C 19.550781 38 20 37.550781 20 37 C 20 36.449219 19.550781 36 19 36 z M 16 39 C 15.449219 39 15 39.449219 15 40 C 15 40.550781 15.449219 41 16 41 C 16.550781 41 17 40.550781 17 40 C 17 39.449219 16.550781 39 16 39 z"/></svg>