<svg xmlns="http://www.w3.org/2000/svg"  viewBox="0 0 45.888 46.007" width="1000px" height="1000px"><path d="M 35.869141 -0.009765625 A 1.0001 1.0001 0 0 0 35.181641 0.29296875 L 33.388672 2.0859375 L 33.289062 1.9863281 C 31.973333 0.67082737 29.804531 0.68652201 28.507812 2.0195312 C 28.506113 2.0212812 28.503653 2.0216775 28.501953 2.0234375 L 16.181641 14.291016 A 1.0001 1.0001 0 0 0 15.992188 14.552734 C 15.992188 14.552734 15.001454 16.535663 13.763672 18.763672 C 12.525889 20.99168 10.943985 23.528671 10.179688 24.292969 C 7.8336894 26.640853 6.1343567 26.978137 5.4355469 27.023438 C 4.7757034 27.057375 4.1458977 27.312637 3.6484375 27.748047 A 1.0001 1.0001 0 0 0 3.6347656 27.759766 C -1.145698 32.098739 -0.95015858 38.685179 2.8789062 42.517578 C 4.742103 44.380237 7.1684326 45.787589 9.8769531 45.984375 C 12.585474 46.181161 15.509587 45.091506 18.105469 42.267578 A 1.0001 1.0001 0 0 0 18.119141 42.251953 C 18.569324 41.742165 18.832456 41.095238 18.867188 40.416016 L 18.867188 40.435547 C 18.917157 39.72708 19.267225 38.036452 21.595703 35.707031 C 22.360001 34.942734 24.895038 33.362783 27.123047 32.125 C 29.351055 30.887217 31.335937 29.894531 31.335938 29.894531 A 1.0001 1.0001 0 0 0 31.595703 29.705078 L 43.863281 17.386719 C 45.202132 16.091982 45.222947 13.918821 43.908203 12.599609 A 1.0001 1.0001 0 0 0 43.90625 12.599609 L 43.804688 12.498047 L 45.595703 10.707031 A 1.0001 1.0001 0 1 0 44.181641 9.2929688 L 42.388672 11.083984 L 40.804688 9.4980469 L 42.595703 7.7070312 A 1.0001 1.0001 0 1 0 41.181641 6.2929688 L 39.390625 8.0839844 L 37.802734 6.5 L 39.595703 4.7070312 A 1.0001 1.0001 0 1 0 38.181641 3.2929688 L 36.388672 5.0859375 L 34.802734 3.5 L 36.595703 1.7070312 A 1.0001 1.0001 0 0 0 35.869141 -0.009765625 z M 30.904297 2.9960938 C 31.253023 2.9932937 31.602426 3.127864 31.875 3.4003906 L 42.492188 14.013672 C 43.035004 14.559812 43.028346 15.411776 42.474609 15.947266 A 1.0001 1.0001 0 0 0 42.460938 15.960938 L 41.414062 17.011719 L 28.875 4.4726562 L 29.925781 3.4277344 A 1.0001 1.0001 0 0 0 29.939453 3.4160156 C 30.207616 3.1391453 30.555571 2.9988952 30.904297 2.9960938 z M 27.458984 5.8847656 L 40.003906 18.429688 L 30.287109 28.1875 C 30.14931 28.25655 28.342517 29.158237 26.152344 30.375 C 23.880352 31.637217 21.417343 33.057266 20.181641 34.292969 C 17.574118 36.901548 16.955128 39.103389 16.871094 40.294922 A 1.0001 1.0001 0 0 0 16.871094 40.314453 C 16.859604 40.539168 16.770365 40.752042 16.623047 40.921875 C 14.350428 43.389165 12.118802 44.142472 10.023438 43.990234 C 7.9249575 43.837771 5.895772 42.705856 4.2929688 41.103516 C 1.2343655 38.042249 0.9487695 32.910485 4.9726562 29.25 C 5.1328362 29.112233 5.3336862 29.028966 5.5449219 29.019531 A 1.0001 1.0001 0 0 0 5.5644531 29.019531 C 6.7476433 28.942831 8.9657476 28.337147 11.59375 25.707031 C 12.829452 24.471329 14.249501 22.00832 15.511719 19.736328 C 16.728482 17.546155 17.630172 15.739362 17.699219 15.601562 L 27.458984 5.8847656 z M 26.888672 14 C 25.305339 14 23.990564 14.629756 23.140625 15.585938 C 22.290686 16.542119 21.888672 17.777778 21.888672 19 C 21.888672 20.222222 22.290686 21.457881 23.140625 22.414062 C 23.990564 23.370244 25.305339 24 26.888672 24 C 28.472005 24 29.784827 23.370244 30.634766 22.414062 C 31.484705 21.457881 31.888672 20.222222 31.888672 19 C 31.888672 17.777778 31.484705 16.542119 30.634766 15.585938 C 29.784827 14.629755 28.472005 14 26.888672 14 z M 26.888672 16 C 27.424317 16 27.861845 16.092744 28.226562 16.25 A 1.0001 1.0001 0 0 0 28.181641 16.292969 L 26.181641 18.292969 A 1.0001 1.0001 0 1 0 27.595703 19.707031 L 29.595703 17.707031 A 1.0001 1.0001 0 0 0 29.613281 17.689453 C 29.78696 18.095403 29.888672 18.542656 29.888672 19 C 29.888672 19.777778 29.624019 20.542119 29.140625 21.085938 C 28.657231 21.629756 27.972005 22 26.888672 22 C 25.805339 22 25.118159 21.629756 24.634766 21.085938 C 24.151372 20.542119 23.888672 19.777778 23.888672 19 C 23.888672 18.222222 24.151372 17.457881 24.634766 16.914062 C 25.118159 16.370244 25.805339 16 26.888672 16 z M 17.888672 25 C 16.972005 25 16.157231 25.379756 15.640625 25.960938 C 15.124019 26.542119 14.888672 27.277778 14.888672 28 C 14.888672 28.722222 15.124019 29.457882 15.640625 30.039062 C 16.157231 30.620244 16.972005 31 17.888672 31 C 18.805338 31 19.61816 30.620244 20.134766 30.039062 C 20.651372 29.457881 20.888672 28.722222 20.888672 28 C 20.888672 27.277778 20.651372 26.542118 20.134766 25.960938 C 19.61816 25.379756 18.805338 25 17.888672 25 z M 17.888672 27 C 18.305338 27 18.490565 27.120244 18.640625 27.289062 C 18.790685 27.457881 18.888672 27.722222 18.888672 28 C 18.888672 28.277778 18.790682 28.542118 18.640625 28.710938 C 18.490565 28.879756 18.305338 29 17.888672 29 C 17.472006 29 17.284826 28.879756 17.134766 28.710938 C 16.984705 28.542119 16.888672 28.277778 16.888672 28 C 16.888672 27.722222 16.984702 27.457882 17.134766 27.289062 C 17.284826 27.120244 17.472006 27 17.888672 27 z"/></svg>