<svg fill="#000000" xmlns="http://www.w3.org/2000/svg"  viewBox="0 0 50 50" width="1000px" height="1000px"><path d="M 34.5 15 C 30.398438 15 26.6875 16.398438 24.1875 18.5 C 23.789063 19 20.199219 22 16.5 22 C 13.699219 22 12.199219 21 10.5 21 C 5.300781 21 1 24.101563 1 28 L 1 35 C 1 38.898438 5 41.101563 10.5 42 C 10.601563 42 18 43 22.5 43 C 27 43 34.398438 42 34.5 42 C 42.199219 40.699219 48 37.5 48 32 L 48 25 C 48 19.5 42 15 34.5 15 Z M 34.5 17 C 40.800781 17 46 20.601563 46 25 C 45.984375 25.953125 45.71875 26.8125 45.28125 27.5625 C 45.277344 27.570313 45.285156 27.585938 45.28125 27.59375 C 44.691406 28.59375 43.769531 29.375 42.6875 30.0625 L 30.1875 17.59375 C 31.53125 17.207031 32.988281 17 34.5 17 Z M 28.15625 18.375 L 40.84375 31.0625 C 39.414063 31.707031 37.882813 32.152344 36.4375 32.5 C 36.390625 32.453125 36.335938 32.410156 36.28125 32.375 L 24.5 20.9375 C 24.960938 20.585938 25.339844 20.253906 25.59375 20 C 26.335938 19.359375 27.214844 18.820313 28.15625 18.375 Z M 22.78125 22.0625 L 34.09375 33 C 33.558594 33.066406 31.050781 33.394531 28.21875 33.65625 C 28.160156 33.5625 28.085938 33.476563 28 33.40625 L 18.375 23.8125 C 20.019531 23.496094 21.527344 22.796875 22.78125 22.0625 Z M 10.5 23 C 11 23 11.488281 23.113281 12.1875 23.3125 C 13.125 23.570313 14.3125 23.878906 15.75 23.96875 L 25.65625 33.875 C 24.527344 33.949219 23.429688 34 22.5 34 C 21.5625 34 20.503906 33.945313 19.40625 33.875 C 19.378906 33.839844 19.347656 33.808594 19.3125 33.78125 L 8.71875 23.15625 C 9.292969 23.058594 9.886719 23 10.5 23 Z M 6.5625 23.78125 C 6.574219 23.792969 6.582031 23.800781 6.59375 23.8125 L 16.28125 33.625 C 13.363281 33.34375 10.871094 33 10.8125 33 C 10.078125 32.875 9.214844 32.714844 8.34375 32.46875 C 8.207031 32.429688 8.074219 32.386719 7.9375 32.34375 C 7.640625 32.253906 7.355469 32.140625 7.0625 32.03125 C 6.648438 31.878906 6.230469 31.722656 5.84375 31.53125 C 5.832031 31.523438 5.824219 31.507813 5.8125 31.5 C 5.628906 31.40625 5.457031 31.320313 5.28125 31.21875 C 5.269531 31.210938 5.261719 31.195313 5.25 31.1875 C 5.078125 31.085938 4.910156 30.988281 4.75 30.875 C 4.738281 30.867188 4.730469 30.851563 4.71875 30.84375 C 4.566406 30.738281 4.417969 30.617188 4.28125 30.5 C 4.265625 30.484375 4.234375 30.484375 4.21875 30.46875 C 4.082031 30.347656 3.960938 30.226563 3.84375 30.09375 C 3.832031 30.082031 3.824219 30.074219 3.8125 30.0625 C 3.777344 30.023438 3.75 29.976563 3.71875 29.9375 C 3.628906 29.824219 3.542969 29.714844 3.46875 29.59375 C 3.167969 29.121094 3 28.601563 3 28 C 3 26.246094 4.433594 24.675781 6.5625 23.78125 Z M 46 30 L 46 32 C 46 37.199219 38.585938 39.300781 34.1875 40 C 33.386719 40.101563 26.5 41 22.5 41 C 18.101563 41 10.914063 40 10.8125 40 C 7.914063 39.5 3 38.199219 3 35 L 3 32.09375 C 3.035156 32.121094 3.058594 32.160156 3.09375 32.1875 C 3.242188 32.308594 3.394531 32.414063 3.5625 32.53125 C 3.671875 32.609375 3.789063 32.675781 3.90625 32.75 C 4.011719 32.820313 4.105469 32.902344 4.21875 32.96875 C 4.261719 32.992188 4.300781 33.007813 4.34375 33.03125 C 5.753906 33.847656 7.726563 34.5625 10.5 35 L 10.59375 35 C 10.78125 35.015625 14.820313 35.566406 18.75 35.84375 C 18.769531 35.84375 18.792969 35.84375 18.8125 35.84375 C 19.453125 35.886719 20.074219 35.941406 20.6875 35.96875 C 21.328125 35.996094 21.933594 36 22.5 36 C 23.054688 36 23.671875 35.996094 24.3125 35.96875 C 28.746094 35.777344 34.414063 35 34.5 35 C 34.53125 34.996094 34.5625 35.003906 34.59375 35 C 35.535156 34.839844 36.429688 34.652344 37.28125 34.4375 C 37.632813 34.351563 37.972656 34.253906 38.3125 34.15625 C 38.410156 34.128906 38.496094 34.089844 38.59375 34.0625 C 39.066406 33.921875 39.523438 33.785156 39.96875 33.625 C 40.339844 33.492188 40.683594 33.363281 41.03125 33.21875 C 41.179688 33.15625 41.324219 33.09375 41.46875 33.03125 C 41.503906 33.015625 41.527344 32.984375 41.5625 32.96875 C 42.460938 32.566406 43.292969 32.121094 44.03125 31.625 C 44.0625 31.601563 44.09375 31.585938 44.125 31.5625 C 44.464844 31.328125 44.792969 31.097656 45.09375 30.84375 C 45.328125 30.648438 45.542969 30.453125 45.75 30.25 C 45.78125 30.21875 45.8125 30.1875 45.84375 30.15625 C 45.894531 30.105469 45.949219 30.050781 46 30 Z"/></svg>