<svg fill="#000000" xmlns="http://www.w3.org/2000/svg"  viewBox="0 0 50 50" width="1000px" height="1000px"><path d="M 23 -0.09375 C 21.308594 -0.09375 19.90625 1.308594 19.90625 3 L 19.90625 5 C 19.898438 5.582031 20.355469 6.066406 20.9375 6.09375 L 20.03125 15.3125 C 19.757813 15.550781 18.851563 16.292969 17.6875 17.75 C 16.355469 19.414063 14.9375 21.652344 14.9375 24.15625 C 14.9375 28.355469 15.65625 31.195313 15.65625 34.75 C 15.65625 40.308594 14.9375 42.507813 14.9375 47.15625 C 14.9375 48.757813 16.273438 50.0625 17.8125 50.0625 L 32.1875 50.0625 C 33.726563 50.0625 35.0625 48.757813 35.0625 47.15625 C 35.0625 42.507813 34.34375 40.308594 34.34375 34.75 C 34.34375 31.195313 35.0625 28.355469 35.0625 24.15625 C 35.0625 21.652344 33.644531 19.414063 32.3125 17.75 C 31.148438 16.292969 30.242188 15.550781 29.96875 15.3125 L 29.0625 6.09375 C 29.644531 6.066406 30.101563 5.582031 30.09375 5 L 30.09375 3 C 30.09375 1.308594 28.691406 -0.09375 27 -0.09375 Z M 23 2.09375 L 27 2.09375 C 27.519531 2.09375 27.90625 2.480469 27.90625 3 L 27.90625 3.875 C 27.789063 3.867188 27.675781 3.878906 27.5625 3.90625 L 22.3125 3.90625 C 22.242188 3.886719 22.167969 3.878906 22.09375 3.875 L 22.09375 3 C 22.09375 2.480469 22.480469 2.09375 23 2.09375 Z M 23.0625 6.09375 L 26.9375 6.09375 L 27.90625 15.875 C 27.9375 16.144531 28.074219 16.390625 28.28125 16.5625 C 28.28125 16.5625 29.464844 17.574219 30.65625 19.0625 C 31.847656 20.550781 32.9375 22.503906 32.9375 24.15625 C 32.9375 25.554688 32.835938 26.792969 32.71875 28 L 29.75 28 C 29.609375 27.726563 29.476563 27.453125 29.3125 27.21875 C 28.234375 25.667969 26.597656 25.03125 25 25.03125 C 23.402344 25.03125 21.765625 25.667969 20.6875 27.21875 C 20.523438 27.453125 20.390625 27.726563 20.25 28 L 17.28125 28 C 17.164063 26.792969 17.0625 25.554688 17.0625 24.15625 C 17.0625 22.503906 18.152344 20.550781 19.34375 19.0625 C 20.535156 17.574219 21.71875 16.5625 21.71875 16.5625 C 21.925781 16.390625 22.0625 16.144531 22.09375 15.875 Z M 25 26.96875 C 26.160156 26.96875 27.019531 27.265625 27.75 28.3125 C 27.90625 28.535156 28.050781 28.816406 28.1875 29.125 C 28.199219 29.15625 28.207031 29.1875 28.21875 29.21875 C 28.246094 29.351563 28.296875 29.480469 28.375 29.59375 C 28.769531 30.722656 29.03125 32.316406 29.03125 34.5 C 29.03125 36.667969 28.765625 38.25 28.375 39.375 C 28.25 39.527344 28.175781 39.710938 28.15625 39.90625 C 28.15625 39.917969 28.15625 39.925781 28.15625 39.9375 C 28.027344 40.21875 27.894531 40.480469 27.75 40.6875 C 27.019531 41.734375 26.160156 42.03125 25 42.03125 C 23.839844 42.03125 22.980469 41.734375 22.25 40.6875 C 22.066406 40.425781 21.90625 40.097656 21.75 39.71875 C 21.746094 39.707031 21.722656 39.699219 21.71875 39.6875 C 21.710938 39.65625 21.699219 39.625 21.6875 39.59375 C 21.253906 38.457031 20.96875 36.808594 20.96875 34.5 C 20.96875 31.304688 21.519531 29.359375 22.25 28.3125 C 22.980469 27.265625 23.839844 26.96875 25 26.96875 Z M 17.46875 30 L 19.5 30 C 19.195313 31.234375 19.03125 32.714844 19.03125 34.5 C 19.03125 36.285156 19.195313 37.765625 19.5 39 L 17.625 39 C 17.710938 37.777344 17.78125 36.429688 17.78125 34.75 C 17.78125 33.023438 17.628906 31.511719 17.46875 30 Z M 30.5 30 L 32.53125 30 C 32.371094 31.511719 32.21875 33.023438 32.21875 34.75 C 32.21875 36.429688 32.289063 37.777344 32.375 39 L 30.5 39 C 30.804688 37.765625 30.96875 36.285156 30.96875 34.5 C 30.96875 32.714844 30.804688 31.234375 30.5 30 Z M 17.46875 41 L 20.25 41 C 20.390625 41.273438 20.523438 41.546875 20.6875 41.78125 C 21.765625 43.332031 23.402344 43.96875 25 43.96875 C 26.597656 43.96875 28.234375 43.332031 29.3125 41.78125 C 29.476563 41.546875 29.609375 41.273438 29.75 41 L 32.53125 41 C 32.722656 42.996094 32.9375 44.777344 32.9375 47.15625 C 32.9375 47.707031 32.640625 47.9375 32.1875 47.9375 L 17.8125 47.9375 C 17.359375 47.9375 17.0625 47.707031 17.0625 47.15625 C 17.0625 44.777344 17.277344 42.996094 17.46875 41 Z"/></svg>