<svg xmlns="http://www.w3.org/2000/svg"  viewBox="0 0 50 50" width="1000px" height="1000px"><path d="M 25 2 C 19.355469 2 14.238281 3.019531 10.449219 4.726563 C 8.550781 5.578125 6.980469 6.601563 5.84375 7.8125 C 4.707031 9.023438 4 10.457031 4 12 C 4 12.25 4.027344 12.496094 4.0625 12.738281 L 5.003906 20.09375 C 5.132813 21.425781 5.929688 22.578125 7.054688 23.519531 L 9.136719 40.675781 L 9.140625 40.707031 C 9.316406 41.636719 9.925781 42.335938 10.777344 43.109375 C 11.628906 43.878906 12.769531 44.667969 14.160156 45.390625 C 16.9375 46.832031 20.710938 48 25 48 C 29.289063 48 33.0625 46.832031 35.839844 45.390625 C 37.230469 44.667969 38.371094 43.878906 39.222656 43.109375 C 40.074219 42.335938 40.683594 41.636719 40.859375 40.707031 L 40.863281 40.675781 L 42.945313 23.519531 C 44.070313 22.578125 44.867188 21.425781 44.996094 20.09375 L 45.9375 12.738281 C 45.972656 12.496094 46 12.25 46 12 C 46 10.457031 45.292969 9.023438 44.15625 7.8125 C 43.019531 6.601563 41.449219 5.578125 39.550781 4.726563 C 35.761719 3.019531 30.644531 2 25 2 Z M 25 4 C 30.402344 4 35.285156 5 38.734375 6.546875 C 40.457031 7.324219 41.8125 8.238281 42.699219 9.179688 C 43.585938 10.125 44 11.058594 44 12 C 44 12.941406 43.585938 13.875 42.699219 14.816406 C 41.8125 15.761719 40.457031 16.675781 38.734375 17.453125 C 35.285156 19 30.402344 20 25 20 C 19.597656 20 14.714844 19 11.265625 17.453125 C 9.542969 16.675781 8.1875 15.761719 7.300781 14.816406 C 6.414063 13.875 6 12.941406 6 12 C 6 11.058594 6.414063 10.125 7.300781 9.179688 C 8.1875 8.238281 9.542969 7.324219 11.265625 6.546875 C 14.714844 5 19.597656 4 25 4 Z M 25 6 C 21.046875 6 17.707031 6.503906 15.265625 7.375 C 14.042969 7.8125 13.039063 8.335938 12.285156 8.996094 C 11.53125 9.65625 11 10.527344 11 11.5 C 11 12.472656 11.53125 13.34375 12.285156 14.003906 C 13.039063 14.664063 14.042969 15.1875 15.265625 15.625 C 17.707031 16.496094 21.046875 17 25 17 C 28.953125 17 32.292969 16.496094 34.734375 15.625 C 35.957031 15.1875 36.960938 14.664063 37.714844 14.003906 C 38.46875 13.34375 39 12.472656 39 11.5 C 39 10.527344 38.46875 9.65625 37.714844 8.996094 C 36.960938 8.335938 35.957031 7.8125 34.734375 7.375 C 32.292969 6.503906 28.953125 6 25 6 Z M 25 8 C 28.777344 8 31.941406 8.503906 34.0625 9.257813 C 35.125 9.636719 35.921875 10.085938 36.394531 10.5 C 36.871094 10.914063 37 11.230469 37 11.5 C 37 11.769531 36.871094 12.085938 36.394531 12.5 C 35.921875 12.914063 35.125 13.363281 34.0625 13.738281 C 31.941406 14.496094 28.777344 15 25 15 C 21.222656 15 18.058594 14.496094 15.9375 13.738281 C 14.875 13.363281 14.078125 12.914063 13.605469 12.5 C 13.128906 12.085938 13 11.769531 13 11.5 C 13 11.230469 13.128906 10.914063 13.605469 10.5 C 14.078125 10.085938 14.875 9.636719 15.9375 9.257813 C 18.058594 8.503906 21.222656 8 25 8 Z M 6.609375 16.90625 C 7.652344 17.808594 8.941406 18.597656 10.449219 19.277344 C 14.238281 20.980469 19.355469 22 25 22 C 30.644531 22 35.761719 20.980469 39.550781 19.277344 C 41.058594 18.597656 42.347656 17.808594 43.390625 16.90625 L 43.003906 19.890625 L 43.003906 19.90625 C 42.9375 20.570313 42.519531 21.285156 41.625 22.019531 C 40.734375 22.757813 39.398438 23.472656 37.742188 24.070313 C 34.433594 25.261719 29.871094 26 25 26 C 20.128906 26 15.566406 25.261719 12.257813 24.070313 C 10.601563 23.472656 9.265625 22.757813 8.375 22.019531 C 7.480469 21.285156 7.0625 20.570313 6.996094 19.90625 L 6.992188 19.890625 Z M 9.242188 24.941406 C 9.957031 25.308594 10.734375 25.644531 11.578125 25.953125 C 15.1875 27.25 19.929688 28 25 28 C 30.070313 28 34.8125 27.25 38.421875 25.953125 C 39.265625 25.644531 40.042969 25.308594 40.757813 24.941406 L 38.890625 40.34375 C 38.878906 40.398438 38.566406 41.003906 37.878906 41.625 C 37.191406 42.253906 36.175781 42.960938 34.921875 43.613281 C 32.40625 44.917969 28.925781 46 25 46 C 21.074219 46 17.59375 44.917969 15.078125 43.613281 C 13.824219 42.960938 12.808594 42.253906 12.121094 41.625 C 11.433594 41.003906 11.121094 40.398438 11.109375 40.34375 Z M 22.058594 32 L 19.089844 37 L 22.058594 42 L 27.941406 42 L 30.910156 37 L 27.941406 32 Z M 23.191406 34 L 26.808594 34 L 28.589844 37 L 26.808594 40 L 23.191406 40 L 21.410156 37 Z"/></svg>