<svg fill="#000000" xmlns="http://www.w3.org/2000/svg"  viewBox="0 0 50 50" width="1000px" height="1000px"><path d="M 15.337891 0 C 15.10847 0.00598657 14.786806 0.020029975 14.439453 0.32617188 A 1.0001 1.0001 0 0 0 14.4375 0.328125 C 14.41237 0.3503794 14.423481 0.39447058 14.400391 0.41992188 C 14.174192 0.36752608 13.959004 0.19980666 13.738281 0.17773438 A 1.0001 1.0001 0 0 0 13.726562 0.17773438 C 13.574984 0.16416017 13.133549 0.11148612 12.648438 0.15039062 C 12.405881 0.16984293 12.144467 0.20129641 11.835938 0.34179688 C 11.527767 0.48213353 11.101735 0.85597717 11.021484 1.3730469 C 11.016984 1.4023899 11.045319 1.4050778 11.042969 1.4335938 C 10.955989 1.4522417 10.908028 1.4420541 10.814453 1.4707031 C 10.617181 1.5311101 10.384839 1.5895854 10.109375 1.8808594 C 9.9066411 2.0952761 9.940659 2.5279158 9.9746094 2.8945312 C 9.7453905 3.1274278 9.5060655 3.3433838 9.3007812 3.6992188 C 9.0161282 4.1926298 8.8560123 4.8991746 9.0332031 5.5976562 C 9.2826998 6.603534 10.177722 7.3431341 11.132812 7.4472656 C 11.132812 7.4472656 11.134766 7.4472656 11.134766 7.4472656 C 11.182516 7.4526856 11.211326 7.4325119 11.257812 7.4355469 C 11.095002 7.8383315 10.859884 8.2119579 10.873047 8.6777344 A 1.0001 1.0001 0 0 0 10.873047 8.6796875 C 10.892177 9.3086252 11.25745 10.0032 11.8125 10.275391 C 12.36755 10.547582 12.871887 10.480189 13.300781 10.384766 C 13.598739 10.318476 13.729981 10.180931 13.984375 10.076172 C 14.398777 10.54571 15.022128 10.721505 15.605469 10.621094 C 16.044665 10.545594 16.467933 10.390196 16.845703 10.148438 C 17.229153 10.397941 17.63784 10.685301 18.083984 10.617188 A 1.0001 1.0001 0 0 0 18.085938 10.617188 C 18.145898 10.607888 18.142148 10.566024 18.197266 10.552734 A 1.0001 1.0001 0 0 0 18.207031 10.564453 C 19.031417 11.388839 20.150854 11.193325 20.119141 11.1875 C 20.360684 11.2334 21.330535 11.91999 22.046875 13.097656 C 22.51941 13.874506 22.904426 14.833821 23.134766 15.845703 C 21.389926 15.173959 19.458949 14.769531 17.384766 14.769531 C 13.671682 14.769531 10.292352 15.92106 7.8007812 17.839844 C 5.3092108 19.758627 3.6933594 22.493098 3.6933594 25.542969 C 3.6930874 28.743132 5.0200212 31.055754 6.921875 32.714844 C 8.8237288 34.373934 11.242548 35.475717 13.636719 36.675781 C 16.03089 37.875845 18.397925 39.162151 20.261719 41.027344 C 22.125513 42.892536 23.525589 45.317733 24.007812 49.019531 A 1.0001 1.0001 0 0 0 25.992188 49.021484 C 26.474166 45.341739 27.873267 42.918434 29.738281 41.048828 C 31.603296 39.179222 33.972863 37.881201 36.367188 36.669922 C 38.761511 35.458643 41.177737 34.34756 43.078125 32.6875 C 44.978513 31.02744 46.308594 28.721494 46.308594 25.542969 C 46.308594 22.493036 44.692984 19.758604 42.201172 17.839844 C 39.709359 15.921083 36.328318 14.769531 32.615234 14.769531 C 30.824158 14.769531 29.137793 15.06827 27.587891 15.582031 C 27.714505 15.103078 27.853149 14.57859 28.089844 13.816406 A 1.0001 1.0001 0 0 0 28.089844 13.814453 C 28.299214 13.138601 28.52767 12.46223 28.820312 11.992188 C 29.112956 11.522144 29.38351 11.278349 29.884766 11.185547 C 29.846996 11.192647 30.969448 11.387974 31.794922 10.5625 A 1.0001 1.0001 0 0 0 31.804688 10.552734 C 31.859728 10.565994 31.856168 10.607927 31.916016 10.617188 C 32.362369 10.685417 32.772634 10.398475 33.15625 10.148438 C 33.534137 10.389988 33.958033 10.544429 34.398438 10.619141 C 34.98048 10.718921 35.60179 10.545661 36.015625 10.078125 C 36.269766 10.182838 36.401572 10.31847 36.699219 10.384766 C 37.128123 10.480296 37.632412 10.54766 38.1875 10.275391 C 38.742588 10.003121 39.107434 9.3086853 39.126953 8.6796875 A 1.0001 1.0001 0 0 0 39.126953 8.6777344 C 39.140093 8.2116772 38.9052 7.836529 38.742188 7.4335938 C 38.790858 7.4304137 38.821028 7.4511065 38.871094 7.4453125 C 39.824443 7.3392735 40.717824 6.6031015 40.966797 5.5976562 C 41.143965 4.8992583 40.984219 4.1925378 40.699219 3.6992188 C 40.494153 3.3442619 40.254458 3.1289403 40.025391 2.8964844 C 40.059675 2.5299576 40.093723 2.0977912 39.890625 1.8828125 C 39.615111 1.5911816 39.382819 1.5311097 39.185547 1.4707031 C 39.090877 1.4417141 39.042949 1.4504056 38.955078 1.4316406 C 38.952778 1.4042616 38.978919 1.4011799 38.974609 1.3730469 C 38.894009 0.85709229 38.47037 0.48210031 38.162109 0.34179688 C 37.853205 0.2012003 37.594108 0.16967145 37.351562 0.15039062 C 36.866472 0.11182892 36.42142 0.16313995 36.275391 0.17578125 A 1.0001 1.0001 0 0 0 36.261719 0.17773438 C 36.040996 0.19980667 35.825808 0.36752607 35.599609 0.41992188 C 35.577519 0.39556857 35.588433 0.35346585 35.564453 0.33203125 A 1.0001 1.0001 0 0 0 35.560547 0.32617188 C 35.213191 0.020030535 34.889577 0.00598657 34.660156 0 C 34.430736 -0.00598657 34.245863 0.023339075 34.074219 0.056640625 C 33.73631 0.12220022 33.437268 0.22228991 33.355469 0.24609375 C 32.754568 0.41083989 32.10506 0.62010297 31.470703 0.984375 C 31.336215 1.0603131 31.324088 1.1118708 31.214844 1.1914062 A 1.0001 1.0001 0 0 0 31.205078 1.1894531 C 30.596608 1.0573468 30.089268 1.2720261 29.697266 1.5175781 C 29.305263 1.7631305 28.982361 2.0793488 28.695312 2.421875 C 28.52318 2.627276 28.401889 2.8549452 28.263672 3.0761719 C 27.984052 3.1422929 27.653185 3.1723929 27.519531 3.296875 A 1.0001 1.0001 0 0 0 27.517578 3.2988281 C 27.215557 3.5816468 26.413013 4.4477556 25.589844 6.1933594 C 25.391235 6.6145276 25.197682 7.0886062 25.015625 7.6054688 C 24.722048 6.95571 24.417252 6.3410315 24.123047 5.8085938 C 23.7495 5.1325675 23.39858 4.5668905 23.123047 4.1523438 C 22.98528 3.9450704 22.865743 3.7755356 22.769531 3.6445312 C 22.673901 3.5143193 22.695437 3.4966134 22.480469 3.296875 C 22.347115 3.1726728 22.014929 3.1445594 21.736328 3.078125 C 21.597725 2.856138 21.477415 2.6279331 21.304688 2.421875 C 21.017603 2.0793944 20.692666 1.7630998 20.300781 1.5175781 C 19.908897 1.2720565 19.401628 1.0571643 18.792969 1.1894531 A 1.0001 1.0001 0 0 0 18.783203 1.1914062 C 18.673732 1.1117362 18.66217 1.0603322 18.527344 0.984375 C 17.892984 0.62010181 17.244566 0.41007991 16.642578 0.24609375 C 16.560779 0.22228991 16.261737 0.12220023 15.923828 0.056640625 C 15.752184 0.023339075 15.567311 -0.00598657 15.337891 0 z M 38.224609 1.3105469 L 38.253906 1.3144531 C 38.243326 1.3132631 38.254333 1.3156331 38.244141 1.3144531 C 38.239541 1.3140702 38.229149 1.3109269 38.224609 1.3105469 z M 13.472656 2.1679688 C 13.493216 2.1697087 13.526912 2.1683162 13.544922 2.1699219 C 13.988707 2.2154749 14.520404 2.3961466 14.814453 2.6132812 A 1.0001 1.0001 0 0 0 16.304688 2.2480469 C 16.755195 2.3794421 17.183063 2.5160091 17.535156 2.71875 A 1.0001 1.0001 0 0 0 17.546875 2.7246094 C 17.76926 2.8492872 18.01269 3.1527519 18.503906 3.5449219 A 1.0001 1.0001 0 0 0 19.664062 3.6074219 C 19.702202 3.6482079 19.734442 3.6608861 19.771484 3.7050781 C 19.956649 3.9259725 20.124645 4.1854034 20.228516 4.3964844 C 20.332386 4.6075653 20.344452 4.7939629 20.347656 4.6992188 A 1.0001 1.0001 0 0 0 21.701172 5.6621094 C 21.909543 5.9904356 22.12004 6.3175118 22.373047 6.7753906 C 23.041765 7.9856034 23.773901 9.5839258 24.177734 11.191406 C 24.118871 11.642812 24.070611 12.107837 24.041016 12.599609 C 23.944843 12.420029 23.858558 12.227431 23.755859 12.058594 C 22.869678 10.601708 21.857121 9.4760652 20.482422 9.2207031 A 1.0001 1.0001 0 0 0 20.480469 9.21875 C 20.313642 9.188108 20.410688 9.2167101 20.304688 9.2050781 A 1.0001 1.0001 0 0 0 19.363281 7.5996094 C 19.110692 7.6396144 19.087204 7.7731681 18.919922 7.8652344 L 18.894531 7.8066406 C 18.787053 7.8926236 18.804701 7.9089568 18.767578 7.9570312 C 18.538395 8.1166246 18.198609 8.2512518 18.064453 8.3769531 C 17.957673 8.4770035 18.000143 8.4484261 17.941406 8.4902344 C 17.939606 8.4780384 17.941113 8.4873644 17.939453 8.4746094 A 1.0001 1.0001 0 0 0 16.054688 8.1484375 C 16.033098 8.1911235 15.824781 8.2885835 15.660156 8.3984375 A 1.0001 1.0001 0 0 0 14.130859 7.8535156 C 13.964374 7.9688183 13.358197 8.2744946 12.955078 8.390625 C 12.995488 8.1900422 13.036658 7.9571468 13.201172 7.6933594 C 13.420112 7.3422998 13.749512 7.0702581 13.835938 7.0332031 A 1.0001 1.0001 0 0 0 13.365234 5.1171875 C 12.900643 5.1530455 12.512737 5.273054 12.150391 5.3554688 C 11.788044 5.4378838 11.465209 5.4734968 11.357422 5.4609375 A 1.0001 1.0001 0 0 0 11.349609 5.4589844 C 11.087622 5.4306384 11.045539 5.4230404 10.970703 5.1171875 A 1.0001 1.0001 0 0 0 10.96875 5.1054688 C 10.91754 4.9068112 10.935543 4.8684965 11.033203 4.6992188 C 11.130863 4.529941 11.353764 4.2863005 11.640625 4.0039062 A 1.0001 1.0001 0 0 0 11.646484 4 C 11.772483 3.8743597 11.903659 3.7906627 12.029297 3.4375 C 12.041627 3.402849 12.020197 3.337556 12.029297 3.2949219 C 12.056167 3.2933819 12.084747 3.291692 12.160156 3.28125 C 12.309985 3.264816 12.440465 3.2478076 12.580078 3.2128906 C 12.727489 3.1760226 12.904611 3.1668996 13.181641 2.8886719 C 13.320155 2.7495577 13.465465 2.4931128 13.486328 2.2285156 C 13.488428 2.2019386 13.472536 2.1934178 13.472656 2.1679688 z M 36.527344 2.1679688 C 36.527476 2.1934287 36.511562 2.2019286 36.513672 2.2285156 C 36.534662 2.49303 36.679881 2.7496441 36.818359 2.8886719 C 37.095317 3.1667275 37.272517 3.1760253 37.419922 3.2128906 C 37.554366 3.2465146 37.681467 3.2633119 37.824219 3.2792969 C 37.914279 3.2934239 37.947187 3.2949659 37.96875 3.2949219 C 37.97785 3.3375699 37.95645 3.4028553 37.96875 3.4375 C 38.094095 3.7905908 38.22573 3.8741671 38.351562 4 A 1.0001 1.0001 0 0 0 38.357422 4.0058594 C 38.644779 4.2882534 38.869237 4.5303485 38.966797 4.6992188 C 39.064357 4.8680889 39.082485 4.9067245 39.03125 5.1054688 A 1.0001 1.0001 0 0 0 39.029297 5.1171875 C 38.954897 5.4207955 38.911033 5.4307374 38.650391 5.4589844 A 1.0001 1.0001 0 0 0 38.642578 5.4589844 C 38.53473 5.4715494 38.211867 5.4378896 37.849609 5.3554688 C 37.487352 5.2730479 37.099691 5.1530109 36.634766 5.1171875 A 1.0001 1.0001 0 0 0 36.164062 7.0332031 C 36.248973 7.0695461 36.579723 7.340138 36.798828 7.6914062 C 36.963566 7.9555137 37.004508 8.1900614 37.044922 8.390625 C 36.642067 8.274461 36.036118 7.969159 35.869141 7.8535156 A 1.0001 1.0001 0 0 0 34.339844 8.3984375 C 34.174953 8.2884331 33.967057 8.1914301 33.945312 8.1484375 A 1.0001 1.0001 0 0 0 32.060547 8.4746094 C 32.058947 8.4873344 32.060398 8.4780694 32.058594 8.4902344 C 32.000076 8.4485563 32.042646 8.4753461 31.935547 8.375 C 31.800917 8.2488592 31.461212 8.1132434 31.230469 7.953125 C 31.192969 7.904853 31.210449 7.888969 31.101562 7.8027344 L 31.076172 7.8613281 C 30.910322 7.7706822 30.8878 7.6395249 30.638672 7.5996094 A 1.0001 1.0001 0 0 0 29.693359 9.2050781 C 29.587093 9.2170321 29.684459 9.187595 29.517578 9.21875 C 28.404816 9.4254301 27.602678 10.160075 27.121094 10.933594 C 26.639237 11.707551 26.391317 12.539508 26.179688 13.222656 C 26.084958 13.52769 26.083708 13.563858 26.011719 13.8125 C 26.030369 10.753682 26.701322 8.5232149 27.398438 7.0449219 C 27.825764 6.138736 28.00369 6.0330435 28.296875 5.6621094 A 1.0001 1.0001 0 0 0 29.650391 4.6992188 C 29.653591 4.7937617 29.667671 4.6075568 29.771484 4.3964844 C 29.875294 4.1854124 30.041486 3.9259269 30.226562 3.7050781 C 30.263922 3.6604921 30.295512 3.6465797 30.333984 3.6054688 A 1.0001 1.0001 0 0 0 31.494141 3.546875 C 31.986089 3.1551875 32.230489 2.8497144 32.453125 2.7246094 A 1.0001 1.0001 0 0 0 32.462891 2.71875 C 32.815073 2.5159579 33.243858 2.3783599 33.695312 2.2460938 A 1.0001 1.0001 0 0 0 35.183594 2.6132812 C 35.478047 2.3958479 36.012881 2.2151608 36.457031 2.1699219 C 36.475231 2.1683519 36.506894 2.1696529 36.527344 2.1679688 z M 9.9238281 3.25 C 9.9238281 3.25 9.9257812 3.2519531 9.9257812 3.2519531 C 9.9265751 3.2534931 9.9249772 3.2562825 9.9257812 3.2578125 L 9.9238281 3.25 z M 17.384766 16.769531 C 20.077762 16.769531 22.526311 17.48557 24.498047 18.632812 A 1.0001 1.0001 0 0 0 25.501953 18.632812 C 27.473806 17.485502 29.921176 16.769531 32.615234 16.769531 C 35.912151 16.769531 38.878281 17.805089 40.980469 19.423828 C 43.082656 21.042567 44.308594 23.194901 44.308594 25.542969 C 44.308594 28.199443 43.351737 29.792701 41.761719 31.181641 C 40.171701 32.570581 37.893644 33.657998 35.464844 34.886719 C 33.036043 36.115439 30.455407 37.498325 28.322266 39.636719 C 26.870121 41.092439 25.805559 43.089335 25.001953 45.384766 C 24.198499 43.075648 23.133209 41.069848 21.677734 39.613281 C 19.543403 37.477349 16.962032 36.106108 14.533203 34.888672 C 12.104374 33.671236 9.8265524 32.594519 8.2382812 31.208984 C 6.6500102 29.823449 5.6931314 28.225306 5.6933594 25.542969 C 5.6933594 23.194839 6.9176019 21.042545 9.0195312 19.423828 C 11.121461 17.805111 14.087849 16.769531 17.384766 16.769531 z"/></svg>