<svg xmlns="http://www.w3.org/2000/svg"  viewBox="0 0 50 50" width="1000px" height="1000px"><path d="M 17.984375 3.9863281 A 1.0001 1.0001 0 0 0 17.839844 4 L 9 4 C 6.2504839 4 4 6.2504839 4 9 L 4 17 L 4 41 C 4 43.749516 6.2504839 46 9 46 L 17.832031 46 A 1.0001 1.0001 0 0 0 18.158203 46 L 25 46 L 27 46 L 38.240234 46 L 37.880859 44 L 27 44 L 25 44 L 19 44 L 19 30 L 27 30 C 29.197334 30 31 28.197334 31 26 L 31 18 L 33.210938 18 L 32.849609 16 L 19 16 L 19 6 L 41 6 C 42.668484 6 44 7.3315161 44 9 L 44 12 L 44 16 L 41.75 16 L 42.429688 18 L 44 18 L 44 18.375 L 44 22.619141 L 46 28.519531 L 46 18.375 L 46 12 L 46 9 C 46 6.2504839 43.749516 4 41 4 L 18.154297 4 A 1.0001 1.0001 0 0 0 17.984375 3.9863281 z M 9 6 L 17 6 L 17 16 L 6 16 L 6 9 C 6 7.3315161 7.3315161 6 9 6 z M 37.603516 9.9980469 L 36.478516 10.375 L 46.628906 46.972656 C 46.796906 47.557656 47.358687 48.295734 48.679688 47.927734 C 50.000687 47.559734 49.992734 46.523312 49.802734 45.945312 L 37.603516 9.9980469 z M 35.193359 11.033203 L 34.037109 11.302734 L 34.880859 16 L 35.240234 18 L 40.753906 48.683594 C 40.866906 49.282594 41.357031 50.068219 42.707031 49.824219 C 44.057031 49.580219 44.144766 48.549078 44.009766 47.955078 L 35.193359 11.033203 z M 6 18 L 17 18 L 17 28 L 17 30 L 17 44 L 9 44 C 7.3315161 44 6 42.668484 6 41 L 6 18 z M 19 18 L 29 18 L 29 26 C 29 27.116666 28.116666 28 27 28 L 19 28 L 19 18 z"/></svg>