<svg xmlns="http://www.w3.org/2000/svg"  viewBox="0 0 50 50" width="1000px" height="1000px"><path d="M 8.8007812 3 C 7.2655499 3 6 4.2655498 6 5.8007812 L 6 10.199219 C 6 10.915351 6.3200493 11.545457 6.7695312 12.042969 L 3.1679688 17.445312 A 1.0001 1.0001 0 0 0 3.4003906 18.800781 C 3.4003906 18.800781 4.3700622 19.501749 6 20.113281 L 6 41 C 6 44.301625 8.6983746 47 12 47 L 38 47 C 41.301625 47 44 44.301625 44 41 L 44 20 A 1.0001 1.0001 0 0 0 43.998047 19.958984 C 45.526413 19.419783 46.488281 18.873047 46.488281 18.873047 A 1.0001 1.0001 0 0 0 46.767578 17.359375 L 42.634766 12.400391 C 43.403705 11.898858 44 11.176806 44 10.199219 L 44 5.8007812 C 44 4.2655498 42.73445 3 41.199219 3 L 8.8007812 3 z M 8.8007812 5 L 41.199219 5 C 41.645987 5 42 5.3540127 42 5.8007812 L 42 10.199219 C 42 10.645987 41.645987 11 41.199219 11 L 41.128906 11 A 1.0001 1.0001 0 0 0 40.847656 11 L 8.8007812 11 C 8.3540128 11 8 10.645987 8 10.199219 L 8 5.8007812 C 8 5.3540127 8.3540127 5 8.8007812 5 z M 8.59375 12.914062 C 8.6724739 12.92085 8.7204332 13 8.8007812 13 L 40.53125 13 L 44.375 17.611328 C 43.189782 18.157298 40.972164 19.060753 38.021484 19 C 36.249827 18.963462 34.315418 18.341789 32.554688 17.167969 A 1.0001 1.0001 0 0 0 31.582031 17.091797 C 29.114149 18.226919 27.804444 19 25 19 C 22.900457 19 20.845724 18.541244 18.513672 17.142578 A 1.0001 1.0001 0 0 0 17.552734 17.105469 C 14.997231 18.383221 12.696499 18.996415 10.84375 19 C 7.9561974 19.006238 6.2878521 18.155781 5.4355469 17.648438 L 8.59375 12.914062 z M 17.988281 19.074219 C 20.42123 20.422296 22.752743 21 25 21 C 27.990658 21 29.794681 20.112201 31.980469 19.095703 C 33.892227 20.254041 35.958002 20.958329 37.978516 21 C 39.429268 21.029871 40.789582 20.820619 42 20.533203 L 42 41 C 42 43.220375 40.220375 45 38 45 L 12 45 C 9.7796254 45 8 43.220375 8 41 L 8 20.695312 C 8.8586953 20.876551 9.8065254 21.002249 10.847656 21 C 12.997362 20.9958 15.415024 20.300105 17.988281 19.074219 z M 19 24 C 17.416667 24 16.101892 24.629756 15.251953 25.585938 C 14.402014 26.542119 14 27.777778 14 29 C 14 30.222222 14.402014 31.457882 15.251953 32.414062 C 16.101892 33.370244 17.416667 34 19 34 C 20.583333 34 21.898108 33.370244 22.748047 32.414062 C 23.597986 31.457881 24 30.222222 24 29 C 24 27.777778 23.597986 26.542118 22.748047 25.585938 C 21.898108 24.629756 20.583333 24 19 24 z M 31 24 C 29.416667 24 28.101892 24.629756 27.251953 25.585938 C 26.402014 26.542119 26 27.777778 26 29 C 26 30.222222 26.402014 31.457882 27.251953 32.414062 C 28.101892 33.370244 29.416667 34 31 34 C 32.583333 34 33.898108 33.370244 34.748047 32.414062 C 35.597986 31.457881 36 30.222222 36 29 C 36 27.777778 35.597986 26.542118 34.748047 25.585938 C 33.898108 24.629756 32.583333 24 31 24 z M 19 26 C 20.083333 26 20.768559 26.370244 21.251953 26.914062 C 21.735347 27.457881 22 28.222222 22 29 C 22 29.777778 21.735347 30.542118 21.251953 31.085938 C 20.768559 31.629756 20.083333 32 19 32 C 17.916667 32 17.231441 31.629756 16.748047 31.085938 C 16.264653 30.542119 16 29.777778 16 29 C 16 28.222222 16.264653 27.457882 16.748047 26.914062 C 17.231441 26.370244 17.916667 26 19 26 z M 31 26 C 32.083333 26 32.768559 26.370244 33.251953 26.914062 C 33.735347 27.457881 34 28.222222 34 29 C 34 29.777778 33.735347 30.542118 33.251953 31.085938 C 32.768559 31.629756 32.083333 32 31 32 C 29.916667 32 29.231441 31.629756 28.748047 31.085938 C 28.264653 30.542119 28 29.777778 28 29 C 28 28.222222 28.264653 27.457882 28.748047 26.914062 C 29.231441 26.370244 29.916667 26 31 26 z M 18 27 A 1 1 0 0 0 18 29 A 1 1 0 0 0 18 27 z M 31 29 A 1 1 0 0 0 31 31 A 1 1 0 0 0 31 29 z M 25.5 34 C 24.083334 34 22.893559 34.567256 22.126953 35.429688 C 21.360347 36.292119 21 37.402778 21 38.5 C 21 39.597222 21.360347 40.707881 22.126953 41.570312 C 22.893559 42.432744 24.083334 43 25.5 43 C 26.916666 43 28.106441 42.432744 28.873047 41.570312 C 29.639653 40.707881 30 39.597222 30 38.5 C 30 37.402778 29.639653 36.292119 28.873047 35.429688 C 28.106441 34.567256 26.916666 34 25.5 34 z M 25.5 36 C 26.416666 36 26.976893 36.307744 27.376953 36.757812 C 27.777013 37.207881 28 37.847222 28 38.5 C 28 39.152778 27.777013 39.792119 27.376953 40.242188 C 26.976893 40.692256 26.416666 41 25.5 41 C 24.583334 41 24.023107 40.692256 23.623047 40.242188 C 23.222987 39.792119 23 39.152778 23 38.5 C 23 37.847222 23.222987 37.207881 23.623047 36.757812 C 24.023107 36.307744 24.583334 36 25.5 36 z M 26 38 A 1 1 0 0 0 26 40 A 1 1 0 0 0 26 38 z"/></svg>