<svg xmlns="http://www.w3.org/2000/svg"  viewBox="0 0 50 50" width="1000px" height="1000px"><path d="M 19.28125 1 C 14.246094 1 10.117188 3.039063 7.3125 6.21875 C 4.507813 9.398438 3 13.6875 3 18.28125 L 3 22.125 C 3 27.1875 3.226563 33.824219 6.125 39.3125 C 9.023438 44.800781 14.738281 49 25 49 C 35.261719 49 40.976563 44.800781 43.875 39.3125 C 46.773438 33.824219 47 27.1875 47 22.125 L 47 18.28125 C 47 13.679688 45.46875 9.367188 42.65625 6.1875 C 39.84375 3.007813 35.714844 1 30.71875 1 C 28.238281 1 25.90625 2.972656 25.90625 5.84375 C 25.90625 8.710938 28.214844 10.746094 30.75 10.65625 C 31.316406 10.636719 32.664063 10.875 33.6875 11.5 C 34.710938 12.125 35.46875 13 35.46875 14.46875 C 35.46875 15.144531 35.277344 15.609375 34.875 16.0625 C 34.472656 16.515625 33.816406 16.914063 32.90625 17.25 C 31.082031 17.925781 28.296875 18.25 25 18.25 C 21.703125 18.25 18.910156 17.957031 17.09375 17.28125 C 16.183594 16.945313 15.527344 16.515625 15.125 16.0625 C 14.722656 15.609375 14.53125 15.144531 14.53125 14.46875 C 14.53125 13.769531 15.144531 12.753906 16.125 11.96875 C 17.105469 11.183594 18.410156 10.65625 19.28125 10.65625 C 21.128906 10.65625 22.464844 9.839844 23.1875 8.8125 C 23.910156 7.785156 24.09375 6.664063 24.09375 5.84375 C 24.09375 4.601563 23.488281 3.449219 22.625 2.5625 C 21.761719 1.675781 20.59375 1 19.28125 1 Z M 19.28125 3 C 19.878906 3 20.617188 3.351563 21.1875 3.9375 C 21.757813 4.523438 22.09375 5.3125 22.09375 5.84375 C 22.09375 6.339844 21.957031 7.097656 21.5625 7.65625 C 21.167969 8.214844 20.605469 8.65625 19.28125 8.65625 C 17.734375 8.65625 16.152344 9.378906 14.875 10.40625 C 13.597656 11.433594 12.5625 12.832031 12.5625 14.46875 C 12.5625 15.582031 12.960938 16.59375 13.65625 17.375 C 14.351563 18.15625 15.292969 18.710938 16.40625 19.125 C 18.632813 19.949219 21.585938 20.25 25 20.25 C 28.414063 20.25 31.363281 19.949219 33.59375 19.125 C 34.710938 18.710938 35.644531 18.15625 36.34375 17.375 C 37.042969 16.59375 37.4375 15.585938 37.4375 14.46875 C 37.4375 12.265625 36.144531 10.679688 34.71875 9.8125 C 33.292969 8.945313 31.777344 8.648438 30.6875 8.6875 C 29.21875 8.738281 27.90625 7.6875 27.90625 5.84375 C 27.90625 4.003906 29.222656 3 30.71875 3 C 35.1875 3 38.699219 4.753906 41.15625 7.53125 C 43.613281 10.308594 45 14.121094 45 18.28125 L 45 22.125 C 45 27.125 44.726563 33.441406 42.125 38.375 C 39.523438 43.308594 34.738281 47 25 47 C 15.261719 47 10.476563 43.308594 7.875 38.375 C 5.273438 33.441406 5 27.125 5 22.125 L 5 18.28125 C 5 14.121094 6.367188 10.308594 8.8125 7.53125 C 11.257813 4.753906 14.769531 3 19.28125 3 Z M 25 23.25 C 23.183594 23.25 22 24.605469 21.28125 25.75 C 20.792969 26.527344 20.714844 26.871094 20.5625 27.28125 C 19.902344 27.28125 18.878906 27.351563 17.8125 27.75 C 16.734375 28.152344 15.570313 28.996094 15.15625 30.4375 C 14.628906 32.273438 15.523438 33.867188 16.40625 34.875 C 17.011719 35.566406 17.335938 35.726563 17.6875 35.96875 C 17.5625 36.355469 17.414063 36.71875 17.34375 37.65625 C 17.246094 38.980469 17.457031 40.757813 18.875 41.9375 C 19.582031 42.527344 20.445313 42.75 21.21875 42.75 C 23.109375 42.75 24.425781 41.8125 25.0625 41.3125 C 25.730469 41.75 27.109375 42.5625 28.96875 42.5625 C 29.65625 42.5625 30.410156 42.421875 31.0625 42 C 31.824219 41.507813 32.257813 40.746094 32.46875 40 C 32.679688 39.253906 32.699219 38.496094 32.65625 37.8125 C 32.589844 36.808594 32.425781 36.363281 32.3125 35.96875 C 32.632813 35.722656 32.980469 35.488281 33.59375 34.75 C 34.445313 33.726563 35.351563 32.1875 34.875 30.4375 C 34.4375 28.847656 33.023438 28.054688 31.8125 27.6875 C 30.832031 27.390625 30.085938 27.390625 29.53125 27.375 C 29.394531 26.988281 29.269531 26.578125 28.75 25.75 C 28.03125 24.605469 26.816406 23.25 25 23.25 Z M 25 25.25 C 25.777344 25.25 26.507813 25.925781 27.0625 26.8125 C 27.617188 27.699219 27.90625 28.59375 27.90625 28.59375 L 28.125 29.3125 L 28.90625 29.3125 C 28.90625 29.3125 28.917969 29.28125 29 29.28125 C 29.332031 29.28125 30.332031 29.324219 31.21875 29.59375 C 32.105469 29.863281 32.75 30.28125 32.9375 30.96875 C 33.160156 31.789063 32.71875 32.710938 32.0625 33.5 C 31.40625 34.289063 30.65625 34.8125 30.65625 34.8125 L 30.0625 35.21875 L 30.28125 35.9375 C 30.28125 35.9375 30.585938 36.871094 30.65625 37.9375 C 30.691406 38.472656 30.683594 39.015625 30.5625 39.4375 C 30.441406 39.859375 30.253906 40.128906 29.96875 40.3125 C 29.691406 40.492188 29.367188 40.59375 28.96875 40.59375 C 27.570313 40.59375 25.59375 39.3125 25.59375 39.3125 L 24.96875 38.875 L 24.375 39.375 C 24.375 39.375 22.511719 40.75 21.21875 40.75 C 20.804688 40.75 20.484375 40.679688 20.15625 40.40625 C 19.433594 39.800781 19.269531 38.78125 19.34375 37.78125 C 19.417969 36.78125 19.71875 35.96875 19.71875 35.96875 L 20 35.1875 L 19.3125 34.78125 C 19.3125 34.78125 18.558594 34.304688 17.90625 33.5625 C 17.253906 32.820313 16.78125 31.953125 17.0625 30.96875 C 17.273438 30.230469 17.785156 29.890625 18.5 29.625 C 19.214844 29.359375 20.074219 29.28125 20.59375 29.28125 L 21.0625 29.28125 L 21.875 29.375 L 22.125 28.59375 C 22.125 28.59375 22.414063 27.699219 22.96875 26.8125 C 23.523438 25.925781 24.222656 25.25 25 25.25 Z M 25 30.25 C 23.925781 30.25 24.8125 33.03125 24.8125 33.03125 C 24.8125 33.03125 22.476563 31.328125 22.09375 32.34375 C 21.714844 33.363281 24.71875 33.375 24.71875 33.375 C 24.71875 33.375 22.449219 35.085938 23.21875 35.75 C 23.988281 36.414063 25 33.59375 25 33.59375 C 25 33.59375 25.933594 36.433594 26.78125 35.75 C 27.628906 35.066406 25.28125 33.375 25.28125 33.375 C 25.28125 33.375 28.304688 33.359375 27.90625 32.34375 C 27.511719 31.328125 25.1875 33.03125 25.1875 33.03125 C 25.1875 33.03125 26.074219 30.25 25 30.25 Z"/></svg>