<svg xmlns="http://www.w3.org/2000/svg"  viewBox="0 0 50 50" width="1000px" height="1000px"><path d="M 18 2 C 17.448 2 17 2.447 17 3 L 17 5 C 17 5.553 17.448 6 18 6 L 25 6 C 25.552 6 26 5.553 26 5 L 29 5 L 29 13 L 27 13 C 25.906937 13 25 13.906937 25 15 L 25 39 L 24 39 A 1.0001 1.0001 0 0 0 23 40 L 23 42 L 22 42 C 20.883334 42 20 41.116666 20 40 L 20 26 C 20 23.802666 18.197334 22 16 22 C 13.802666 22 12 23.802666 12 26 L 12 35 C 12 36.116666 11.116666 37 10 37 C 8.8833339 37 8 36.116666 8 35 L 8 28 A 1.0001 1.0001 0 1 0 6 28 L 6 35 C 6 37.197334 7.8026661 39 10 39 C 12.197334 39 14 37.197334 14 35 L 14 26 C 14 24.883334 14.883334 24 16 24 C 17.116666 24 18 24.883334 18 26 L 18 40 C 18 42.197334 19.802666 44 22 44 L 23 44 L 23 46 L 17 46 A 1.0001 1.0001 0 1 0 17 48 L 24 48 L 36 48 L 43 48 A 1.0001 1.0001 0 1 0 43 46 L 37 46 L 37 40 A 1.0001 1.0001 0 0 0 36 39 L 35 39 L 35 15 C 35 13.906937 34.093063 13 33 13 L 31 13 L 31 5 L 34 5 C 34 5.553 34.448 6 35 6 L 42 6 C 42.552 6 43 5.553 43 5 L 43 3 C 43 2.447 42.552 2 42 2 L 35 2 C 34.448 2 34 2.447 34 3 L 30.167969 3 A 1.0001 1.0001 0 0 0 29.984375 2.9863281 A 1.0001 1.0001 0 0 0 29.841797 3 L 26 3 C 26 2.447 25.552 2 25 2 L 18 2 z M 27 15 L 29.832031 15 A 1.0001 1.0001 0 0 0 30.158203 15 L 33 15 L 33 39 L 27 39 L 27 15 z M 25 41 L 26 41 L 34 41 L 35 41 L 35 46 L 25 46 L 25 41 z"/></svg>