<svg xmlns="http://www.w3.org/2000/svg"  viewBox="0 0 50 50" width="1000px" height="1000px"><path d="M 21 6 C 9.7276398 6 1 14.046075 1 22 C 1 24.113855 2.0268921 25.918122 3.5234375 27.126953 C 5.0199829 28.335784 6.9788144 29 9 29 C 9.9290243 29 10.874846 28.824169 11.824219 28.578125 L 18 38.183594 L 18 46 A 1.0001 1.0001 0 0 0 19 47 L 23 47 A 1.0001 1.0001 0 0 0 24 46 L 24 38.183594 L 30.410156 28.212891 C 32.062932 28.653751 33.647106 29 35 29 C 37.021186 29 40.278028 28.380847 43.199219 27.285156 C 44.659814 26.737311 46.024334 26.074871 47.089844 25.244141 C 48.155354 24.41341 49 23.334937 49 22 C 49 19.826153 47.810934 17.77771 46.017578 15.925781 C 44.224222 14.073853 41.783065 12.379703 39.013672 10.917969 C 33.474886 7.9944993 26.63618 6 21 6 z M 21 8 L 21 9.1914062 C 21 10.704928 22.151046 11.987113 23.648438 12.164062 C 24.763997 12.295929 25.902382 12.504334 27.041016 12.775391 C 28.517691 13.126696 30.046519 12.30626 30.558594 10.873047 L 30.958984 9.75 C 31.728833 9.993022 32.492739 10.256257 33.25 10.541016 L 32.865234 11.439453 C 32.226942 12.927807 32.911714 14.669188 34.373047 15.345703 C 35.293341 15.772181 36.171523 16.221719 36.992188 16.681641 C 38.302693 17.416296 39.98327 17.064157 40.878906 15.849609 L 41.621094 14.84375 C 42.759039 15.643816 43.765404 16.475125 44.580078 17.316406 C 46.163285 18.951321 47 20.577347 47 22 C 47 22.214904 46.920612 22.454539 46.763672 22.710938 C 45.023845 22.153423 34.616549 19 20 19 C 14.368786 19 7.6795167 19.464411 3.0039062 21.939453 C 3.0282428 18.658645 5.0520548 15.097803 8.390625 12.392578 L 9.1054688 13.302734 C 10.026749 14.478264 11.677747 14.760361 12.957031 14.052734 C 14.05365 13.445694 15.270967 12.943603 16.578125 12.587891 C 17.989821 12.204758 18.962797 10.845602 18.802734 9.3691406 L 18.669922 8.1445312 C 19.431754 8.0584234 20.204698 8 21 8 z M 23 8.0878906 C 24.913955 8.2488893 26.967898 8.6375597 29.037109 9.1875 L 28.675781 10.199219 C 28.501856 10.686005 28.011231 10.950772 27.503906 10.830078 C 26.29854 10.543135 25.085253 10.319869 23.882812 10.177734 C 23.366204 10.116685 23 9.7078842 23 9.1914062 L 23 8.0878906 z M 16.693359 8.46875 L 16.814453 9.5839844 C 16.868393 10.081523 16.558991 10.519383 16.054688 10.65625 C 14.590535 11.054508 13.225154 11.618056 11.988281 12.302734 C 11.517565 12.563107 10.990407 12.464829 10.679688 12.068359 L 10.015625 11.222656 C 11.947145 9.9712862 14.200598 9.0014366 16.693359 8.46875 z M 35.105469 11.289062 C 36.127833 11.727186 37.131547 12.186849 38.080078 12.6875 C 38.725146 13.027978 39.347151 13.382432 39.945312 13.746094 L 39.269531 14.664062 C 38.963167 15.079515 38.426197 15.192845 37.970703 14.9375 C 37.103366 14.451421 36.178596 13.978772 35.212891 13.53125 C 34.704222 13.295765 34.485417 12.734209 34.703125 12.226562 L 35.105469 11.289062 z M 20 21 C 32.013162 21 41.259655 23.214434 44.964844 24.257812 C 44.256788 24.6742 43.41247 25.069125 42.498047 25.412109 C 39.818487 26.417169 36.575814 27 35 27 C 33.479509 27 30.878094 26.289063 28.277344 25.539062 C 25.676594 24.789062 23.076509 24 21 24 C 18.923491 24 16.764812 24.808594 14.664062 25.558594 C 12.563314 26.308594 10.520491 27 9 27 C 7.4241856 27 5.8835015 26.462231 4.7792969 25.570312 C 4.2207282 25.11913 3.7719604 24.590751 3.4648438 23.986328 C 7.4952874 21.682003 14.280084 21 20 21 z M 21 26 C 21.864825 26 23.095751 26.241762 24.460938 26.578125 L 21.072266 32 L 20.927734 32 L 17.603516 26.681641 C 18.862054 26.290115 20.040676 26 21 26 z M 26.484375 27.111328 C 26.896408 27.226659 27.306217 27.340845 27.722656 27.460938 C 27.946353 27.525447 28.167271 27.587784 28.390625 27.652344 L 24 34.482422 L 24 33 A 1.0001 1.0001 0 0 0 23.380859 32.076172 L 26.484375 27.111328 z M 15.654297 27.332031 L 18.619141 32.076172 A 1.0001 1.0001 0 0 0 18 33 L 18 34.482422 L 13.818359 27.978516 C 14.326257 27.804067 14.832761 27.621048 15.335938 27.441406 C 15.443214 27.403107 15.547384 27.369941 15.654297 27.332031 z M 20 34 L 22 34 L 22 37 L 20 37 L 20 34 z M 20 39 L 22 39 L 22 45 L 20 45 L 20 39 z"/></svg>