<svg xmlns="http://www.w3.org/2000/svg"  viewBox="0 0 50 50" width="1000px" height="1000px"><path d="M 25.003906 3 A 1.0001 1.0001 0 0 0 24.351562 3.2382812 L 4.3515625 20.238281 A 1.0001 1.0001 0 0 0 4 21 L 4 26 A 1.0001 1.0001 0 0 0 5.6484375 26.761719 L 8.4707031 24.361328 L 13.021484 46.203125 A 1.0001 1.0001 0 0 0 14 47 L 36 47 A 1.0001 1.0001 0 0 0 36.978516 46.203125 L 41.529297 24.361328 L 44.351562 26.761719 A 1.0001 1.0001 0 0 0 46 26 L 46 21 A 1.0001 1.0001 0 0 0 45.648438 20.238281 L 25.648438 3.2382812 A 1.0001 1.0001 0 0 0 25.003906 3 z M 25 5.3125 L 44 21.462891 L 44 23.837891 L 25.648438 8.2382812 A 1.0001 1.0001 0 0 0 24.351562 8.2382812 L 6 23.837891 L 6 21.462891 L 25 5.3125 z M 25 10.3125 L 39.794922 22.888672 L 35.1875 45 L 14.8125 45 L 10.205078 22.888672 L 25 10.3125 z M 25 19 C 21.145851 19 18 22.145851 18 26 C 18 29.854149 21.145851 33 25 33 C 28.854149 33 32 29.854149 32 26 C 32 22.145851 28.854149 19 25 19 z M 25 21 C 27.773268 21 30 23.226732 30 26 C 30 28.773268 27.773268 31 25 31 C 22.226732 31 20 28.773268 20 26 C 20 23.226732 22.226732 21 25 21 z M 19 35 A 1.0001 1.0001 0 1 0 19 37 L 31 37 A 1.0001 1.0001 0 1 0 31 35 L 19 35 z"/></svg>