<svg xmlns="http://www.w3.org/2000/svg"  viewBox="0 0 50 50" width="1000px" height="1000px"><path d="M 25.001953 2.0019531 C 23.593321 2.0019531 22.183541 2.4558482 21.011719 3.3652344 C 20.054395 4.1081834 18.837747 4.4345162 17.636719 4.2714844 C 14.69779 3.8678885 11.848906 5.5146256 10.728516 8.2578125 C 10.268573 9.3806744 9.3793691 10.269121 8.2558594 10.728516 C 5.5104568 11.849683 3.8673607 14.700047 4.2695312 17.636719 L 4.2695312 17.638672 C 4.4347402 18.838481 4.1065464 20.054806 3.3632812 21.011719 C 1.5445088 23.355364 1.5445088 26.646589 3.3632812 28.990234 C 4.1062303 29.947559 4.4325632 31.164206 4.2695312 32.365234 C 3.8673271 35.30451 5.5140065 38.152794 8.2578125 39.273438 C 9.3796358 39.73084 10.269004 40.620798 10.726562 41.742188 C 11.847283 44.488538 14.697531 46.132717 17.634766 45.730469 L 17.636719 45.730469 C 18.836528 45.56526 20.052853 45.893454 21.009766 46.636719 C 23.353469 48.453178 26.644577 48.453178 28.988281 46.636719 C 29.945605 45.89377 31.162253 45.567437 32.363281 45.730469 C 35.302557 46.132673 38.150841 44.485993 39.271484 41.742188 C 39.728887 40.620364 40.618846 39.730997 41.740234 39.273438 C 44.486586 38.152718 46.130763 35.302469 45.728516 32.365234 L 45.728516 32.363281 C 45.563307 31.163472 45.889547 29.947147 46.632812 28.990234 L 46.634766 28.990234 C 48.453737 26.646332 48.453852 23.353994 46.636719 21.011719 C 45.89377 20.054395 45.567437 18.837747 45.730469 17.636719 C 46.132673 14.697443 44.485992 11.849159 41.742188 10.728516 C 40.620364 10.271113 39.730997 9.3811538 39.273438 8.2597656 C 38.152718 5.5134139 35.302469 3.8692366 32.365234 4.2714844 L 32.363281 4.2714844 C 31.163379 4.4366933 29.947147 4.1104526 28.990234 3.3671875 L 28.990234 3.3652344 C 27.818412 2.4558451 26.410585 2.0019531 25.001953 2.0019531 z M 25.001953 3.9980469 C 25.975821 3.9980469 26.948494 4.3126987 27.763672 4.9453125 C 29.144759 6.0180474 30.902528 6.4907442 32.636719 6.2519531 C 34.678762 5.9732187 36.64285 7.1066032 37.421875 9.015625 C 38.082316 10.634237 39.368105 11.919481 40.988281 12.580078 C 42.895604 13.359834 44.029725 15.322978 43.75 17.367188 C 43.515032 19.098159 43.98359 20.855605 45.056641 22.238281 C 46.31946 23.866006 46.319762 26.133574 45.054688 27.763672 C 43.981952 29.144759 43.509256 30.902528 43.748047 32.636719 C 44.026781 34.678762 42.893397 36.64285 40.984375 37.421875 C 39.365763 38.082316 38.080519 39.368105 37.419922 40.988281 C 36.640166 42.895604 34.677022 44.029725 32.632812 43.75 C 30.901841 43.515032 29.144395 43.98359 27.761719 45.056641 L 27.761719 45.054688 C 26.131423 46.318228 23.866624 46.318229 22.236328 45.054688 L 22.236328 45.056641 C 20.855811 43.984312 19.098786 43.511838 17.365234 43.75 L 17.363281 43.75 C 15.321238 44.028734 13.35715 42.89535 12.578125 40.986328 C 11.917893 39.368228 10.633125 38.082659 9.0136719 37.421875 L 9.0117188 37.421875 C 7.1044393 36.642119 5.9702748 34.678975 6.25 32.634766 C 6.4849681 30.903794 6.0164104 29.146348 4.9433594 27.763672 C 3.6781318 26.133317 3.6781318 23.868636 4.9433594 22.238281 C 6.0156879 20.857717 6.4881617 19.100739 6.25 17.367188 L 6.25 17.365234 C 5.9712656 15.323237 7.1046501 13.359103 9.0136719 12.580078 C 10.633649 11.917682 11.917839 10.632084 12.580078 9.0136719 C 13.359435 7.1054778 15.320867 5.9705655 17.365234 6.2519531 L 17.367188 6.2519531 C 19.098159 6.4869213 20.855605 6.0183635 22.238281 4.9453125 C 23.053459 4.3126987 24.028085 3.9980469 25.001953 3.9980469 z M 25 8 A 1 1 0 0 0 25 10 A 1 1 0 0 0 25 8 z M 21 12 A 1 1 0 0 0 21 14 A 1 1 0 0 0 21 12 z M 29 12 A 1 1 0 0 0 29 14 A 1 1 0 0 0 29 12 z M 17 16 A 1 1 0 0 0 17 18 A 1 1 0 0 0 17 16 z M 25 16 A 1 1 0 0 0 25 18 A 1 1 0 0 0 25 16 z M 33 16 A 1 1 0 0 0 33 18 A 1 1 0 0 0 33 16 z M 13 20 A 1 1 0 0 0 13 22 A 1 1 0 0 0 13 20 z M 21 20 A 1 1 0 0 0 21 22 A 1 1 0 0 0 21 20 z M 29 20 A 1 1 0 0 0 29 22 A 1 1 0 0 0 29 20 z M 37 20 A 1 1 0 0 0 37 22 A 1 1 0 0 0 37 20 z M 9 24 A 1 1 0 0 0 9 26 A 1 1 0 0 0 9 24 z M 17 24 A 1 1 0 0 0 17 26 A 1 1 0 0 0 17 24 z M 25 24 A 1 1 0 0 0 25 26 A 1 1 0 0 0 25 24 z M 33 24 A 1 1 0 0 0 33 26 A 1 1 0 0 0 33 24 z M 41 24 A 1 1 0 0 0 41 26 A 1 1 0 0 0 41 24 z M 13.001953 28 A 1 1 0 0 0 13.001953 30 A 1 1 0 0 0 13.001953 28 z M 21 28 A 1 1 0 0 0 21 30 A 1 1 0 0 0 21 28 z M 29 28 A 1 1 0 0 0 29 30 A 1 1 0 0 0 29 28 z M 37 28 A 1 1 0 0 0 37 30 A 1 1 0 0 0 37 28 z M 17 32 A 1 1 0 0 0 17 34 A 1 1 0 0 0 17 32 z M 25 32 A 1 1 0 0 0 25 34 A 1 1 0 0 0 25 32 z M 33 32 A 1 1 0 0 0 33 34 A 1 1 0 0 0 33 32 z M 21 36 A 1 1 0 0 0 21 38 A 1 1 0 0 0 21 36 z M 29 36 A 1 1 0 0 0 29 38 A 1 1 0 0 0 29 36 z M 25 40 A 1 1 0 0 0 25 42 A 1 1 0 0 0 25 40 z"/></svg>