<svg xmlns="http://www.w3.org/2000/svg"  viewBox="0 0 50 50" width="1000px" height="1000px"><path d="M 6 11 C 4.90625 11 4 11.90625 4 13 L 4 16 L 2 16 C 0.90625 16 0 16.90625 0 18 L 0 32 C 0 33.09375 0.90625 34 2 34 L 4 34 L 4 37 C 4 38.09375 4.90625 39 6 39 L 44 39 C 45.09375 39 46 38.09375 46 37 L 46 34 L 48 34 C 49.09375 34 50 33.09375 50 32 L 50 18 C 50 16.90625 49.09375 16 48 16 L 46 16 L 46 13 C 46 11.90625 45.09375 11 44 11 Z M 6 13 L 44 13 L 44 17 C 44 17.550781 44.449219 18 45 18 L 48 18 L 48 32 L 45 32 C 44.449219 32 44 32.449219 44 33 L 44 37 L 6 37 L 6 33 C 6 32.449219 5.550781 32 5 32 L 2 32 L 2 18 L 5 18 C 5.550781 18 6 17.550781 6 17 Z M 14.90625 19.46875 C 14.863281 19.476563 14.820313 19.488281 14.78125 19.5 C 14.316406 19.605469 13.988281 20.023438 14 20.5 L 14 22 L 12.9375 22 L 11.71875 20.78125 C 11.53125 20.585938 11.269531 20.476563 11 20.476563 C 10.730469 20.476563 10.46875 20.585938 10.28125 20.78125 L 7 24.0625 L 7 22.5 C 7.007813 22.191406 6.871094 21.898438 6.632813 21.703125 C 6.398438 21.507813 6.082031 21.433594 5.78125 21.5 C 5.316406 21.605469 4.988281 22.023438 5 22.5 L 5 27.5 C 4.996094 27.859375 5.183594 28.195313 5.496094 28.378906 C 5.808594 28.558594 6.191406 28.558594 6.503906 28.378906 C 6.816406 28.195313 7.003906 27.859375 7 27.5 L 7 25.9375 L 10.28125 29.21875 C 10.46875 29.414063 10.730469 29.523438 11 29.523438 C 11.269531 29.523438 11.53125 29.414063 11.71875 29.21875 L 12.9375 28 L 14 28 L 14 29.5 C 13.996094 29.859375 14.183594 30.195313 14.496094 30.378906 C 14.808594 30.558594 15.191406 30.558594 15.503906 30.378906 C 15.816406 30.195313 16.003906 29.859375 16 29.5 L 16 28 L 21.1875 28 C 22.097656 29.15625 23.414063 30 25 30 C 26.585938 30 27.902344 29.15625 28.8125 28 L 33 28 L 33 29.5 C 32.996094 29.859375 33.183594 30.195313 33.496094 30.378906 C 33.808594 30.558594 34.191406 30.558594 34.503906 30.378906 C 34.816406 30.195313 35.003906 29.859375 35 29.5 L 35 28 L 37.0625 28 L 38.28125 29.21875 C 38.46875 29.414063 38.730469 29.523438 39 29.523438 C 39.269531 29.523438 39.53125 29.414063 39.71875 29.21875 L 43 25.9375 L 43 27.5 C 42.996094 27.859375 43.183594 28.195313 43.496094 28.378906 C 43.808594 28.558594 44.191406 28.558594 44.503906 28.378906 C 44.816406 28.195313 45.003906 27.859375 45 27.5 L 45 22.5 C 45.011719 22.210938 44.894531 21.933594 44.6875 21.738281 C 44.476563 21.539063 44.191406 21.441406 43.90625 21.46875 C 43.863281 21.476563 43.820313 21.488281 43.78125 21.5 C 43.316406 21.605469 42.988281 22.023438 43 22.5 L 43 24.0625 L 39.71875 20.78125 C 39.53125 20.585938 39.269531 20.476563 39 20.476563 C 38.730469 20.476563 38.46875 20.585938 38.28125 20.78125 L 37.0625 22 L 35 22 L 35 20.5 C 35.011719 20.210938 34.894531 19.933594 34.6875 19.738281 C 34.476563 19.539063 34.191406 19.441406 33.90625 19.46875 C 33.863281 19.476563 33.820313 19.488281 33.78125 19.5 C 33.316406 19.605469 32.988281 20.023438 33 20.5 L 33 22 L 28.8125 22 C 27.902344 20.84375 26.585938 20 25 20 C 23.414063 20 22.097656 20.84375 21.1875 22 L 16 22 L 16 20.5 C 16.011719 20.210938 15.894531 19.933594 15.6875 19.738281 C 15.476563 19.539063 15.191406 19.441406 14.90625 19.46875 Z M 25 22 C 26.113281 22 27.070313 22.601563 27.59375 23.5 C 27.769531 23.800781 28.089844 23.992188 28.4375 24 L 37.5 24 C 37.765625 24.007813 38.027344 23.90625 38.21875 23.71875 L 39 22.9375 L 41.0625 25 L 39 27.0625 L 38.21875 26.28125 C 38.027344 26.09375 37.765625 25.992188 37.5 26 L 28.4375 26 C 28.089844 26.007813 27.769531 26.199219 27.59375 26.5 C 27.070313 27.398438 26.113281 28 25 28 C 23.886719 28 22.929688 27.398438 22.40625 26.5 C 22.230469 26.199219 21.910156 26.007813 21.5625 26 L 12.5 26 C 12.234375 25.992188 11.972656 26.09375 11.78125 26.28125 L 11 27.0625 L 8.9375 25 L 11 22.9375 L 11.78125 23.71875 C 11.972656 23.90625 12.234375 24.007813 12.5 24 L 21.5625 24 C 21.910156 23.992188 22.230469 23.800781 22.40625 23.5 C 22.929688 22.601563 23.886719 22 25 22 Z"/></svg>