<svg xmlns="http://www.w3.org/2000/svg"  viewBox="0 0 50 50" width="1000px" height="1000px"><path d="M 6.8125 2 C 6.488281 2.054688 6.210938 2.269531 6.074219 2.570313 C 5.9375 2.867188 5.957031 3.21875 6.125 3.5 L 11 12.03125 L 11.875 19.9375 C 11.878906 20 11.890625 20.0625 11.90625 20.125 L 11.90625 20.21875 C 11.90625 20.230469 11.90625 20.238281 11.90625 20.25 L 13 30.125 C 11.496094 31.089844 10.359375 32.609375 9.9375 34.4375 C 9.9375 34.457031 9.9375 34.480469 9.9375 34.5 L 8 46.84375 C 7.953125 47.136719 8.039063 47.429688 8.230469 47.652344 C 8.425781 47.878906 8.707031 48.003906 9 48 L 38.78125 48 C 39.070313 47.996094 39.34375 47.863281 39.527344 47.640625 C 39.714844 47.421875 39.796875 47.128906 39.75 46.84375 L 37.84375 34.5 C 37.835938 34.480469 37.824219 34.457031 37.8125 34.4375 C 37.390625 32.613281 36.273438 31.089844 34.78125 30.125 L 35.25 26 L 38.125 26 C 40.125 26 41.832031 24.515625 42.09375 22.53125 L 43.53125 11.53125 C 43.839844 9.152344 41.960938 7 39.5625 7 L 37.34375 7 L 37.78125 3.125 C 37.816406 2.839844 37.726563 2.550781 37.535156 2.335938 C 37.34375 2.121094 37.070313 1.996094 36.78125 2 L 7 2 C 6.96875 2 6.9375 2 6.90625 2 C 6.875 2 6.84375 2 6.8125 2 Z M 8.71875 4 L 35.65625 4 L 32.875 29 L 14.90625 29 L 14.5625 26 L 18 26 C 18.359375 26.003906 18.695313 25.816406 18.878906 25.503906 C 19.058594 25.191406 19.058594 24.808594 18.878906 24.496094 C 18.695313 24.183594 18.359375 23.996094 18 24 L 14.34375 24 L 14 21 L 18 21 C 18.359375 21.003906 18.695313 20.816406 18.878906 20.503906 C 19.058594 20.191406 19.058594 19.808594 18.878906 19.496094 C 18.695313 19.183594 18.359375 18.996094 18 19 L 13.78125 19 L 13.46875 16 L 18 16 C 18.359375 16.003906 18.695313 15.816406 18.878906 15.503906 C 19.058594 15.191406 19.058594 14.808594 18.878906 14.496094 C 18.695313 14.183594 18.359375 13.996094 18 14 L 13.21875 14 L 12.96875 11.625 C 12.957031 11.480469 12.914063 11.34375 12.84375 11.21875 Z M 37.125 9 L 39.5625 9 C 40.785156 9 41.722656 10.035156 41.5625 11.25 L 40.125 22.25 C 39.992188 23.253906 39.136719 24 38.125 24 L 35.46875 24 Z M 16.78125 31 L 31 31 C 33.308594 31 35.292969 32.574219 35.84375 34.8125 L 37.59375 46 L 10.1875 46 L 11.90625 34.875 C 12.429688 32.601563 14.449219 31 16.78125 31 Z M 24 34 C 21.238281 34 19 36.238281 19 39 C 19 41.761719 21.238281 44 24 44 C 26.761719 44 29 41.761719 29 39 C 29 36.238281 26.761719 34 24 34 Z M 24 36 C 24.738281 36 25.414063 36.273438 25.9375 36.71875 L 21.0625 39.53125 C 21.03125 39.355469 21 39.183594 21 39 C 21 37.347656 22.347656 36 24 36 Z M 26.9375 38.46875 C 26.96875 38.644531 27 38.816406 27 39 C 27 40.652344 25.652344 42 24 42 C 23.261719 42 22.585938 41.726563 22.0625 41.28125 Z"/></svg>