<svg xmlns="http://www.w3.org/2000/svg"  viewBox="0 0 50 50" width="1000px" height="1000px"><path d="M 31.603516 1.0097656 C 31.089318 1.0097225 30.573792 1.2035514 30.1875 1.5898438 L 1.5898438 30.189453 C 0.81716535 30.961673 0.81771592 32.24545 1.5898438 33.017578 L 16.982422 48.410156 C 17.754493 49.184207 19.039916 49.182741 19.8125 48.410156 L 48.410156 19.8125 C 49.182741 19.039916 49.182741 17.755006 48.410156 16.982422 L 33.017578 1.5898438 C 32.631542 1.2028182 32.117713 1.0098088 31.603516 1.0097656 z M 31.601562 3.0039062 L 46.996094 18.396484 L 46.996094 18.398438 L 18.398438 46.996094 L 3.0039062 31.603516 L 31.601562 3.0039062 z M 30 9 C 29.083334 9 28.268559 9.3797556 27.751953 9.9609375 C 27.235347 10.542119 27 11.277778 27 12 C 27 12.722222 27.235347 13.457881 27.751953 14.039062 C 28.268559 14.620245 29.083334 15 30 15 C 30.916666 15 31.731441 14.620244 32.248047 14.039062 C 32.764653 13.457882 33 12.722222 33 12 C 33 11.277778 32.764653 10.542119 32.248047 9.9609375 C 31.731441 9.3797556 30.916666 9 30 9 z M 30 11 C 30.416666 11 30.601893 11.120244 30.751953 11.289062 C 30.902014 11.457882 31 11.722222 31 12 C 31 12.277778 30.90201 12.542119 30.751953 12.710938 C 30.601893 12.879755 30.416666 13 30 13 C 29.583334 13 29.398107 12.879756 29.248047 12.710938 C 29.097986 12.542118 29 12.277778 29 12 C 29 11.722222 29.097986 11.457881 29.248047 11.289062 C 29.398107 11.120245 29.583334 11 30 11 z M 36.980469 11.990234 A 1.0001 1.0001 0 0 0 36.292969 12.292969 L 12.292969 36.292969 A 1.0001 1.0001 0 1 0 13.707031 37.707031 L 37.707031 13.707031 A 1.0001 1.0001 0 0 0 36.980469 11.990234 z M 24 15 C 23.083334 15 22.268559 15.379756 21.751953 15.960938 C 21.235347 16.542119 21 17.277778 21 18 C 21 18.722222 21.235347 19.457881 21.751953 20.039062 C 22.268559 20.620244 23.083334 21 24 21 C 24.916666 21 25.731441 20.620244 26.248047 20.039062 C 26.764653 19.457881 27 18.722222 27 18 C 27 17.277778 26.764653 16.542119 26.248047 15.960938 C 25.731441 15.379755 24.916666 15 24 15 z M 24 17 C 24.416666 17 24.601893 17.120244 24.751953 17.289062 C 24.902014 17.457881 25 17.722222 25 18 C 25 18.277778 24.90201 18.542119 24.751953 18.710938 C 24.601893 18.879756 24.416666 19 24 19 C 23.583334 19 23.398107 18.879756 23.248047 18.710938 C 23.097986 18.542119 23 18.277778 23 18 C 23 17.722222 23.097986 17.457881 23.248047 17.289062 C 23.398107 17.120244 23.583334 17 24 17 z M 38 17 C 37.083334 17 36.268559 17.379756 35.751953 17.960938 C 35.235347 18.542119 35 19.277778 35 20 C 35 20.722222 35.235347 21.457881 35.751953 22.039062 C 36.268559 22.620244 37.083334 23 38 23 C 38.916666 23 39.731441 22.620244 40.248047 22.039062 C 40.764653 21.457881 41 20.722222 41 20 C 41 19.277778 40.764653 18.542119 40.248047 17.960938 C 39.731441 17.379756 38.916666 17 38 17 z M 38 19 C 38.416666 19 38.601893 19.120244 38.751953 19.289062 C 38.902014 19.457881 39 19.722222 39 20 C 39 20.277778 38.90201 20.542119 38.751953 20.710938 C 38.601893 20.879756 38.416666 21 38 21 C 37.583334 21 37.398107 20.879756 37.248047 20.710938 C 37.097986 20.542119 37 20.277778 37 20 C 37 19.722222 37.097986 19.457881 37.248047 19.289062 C 37.398107 19.120244 37.583334 19 38 19 z M 18 21 C 17.083334 21 16.268559 21.379756 15.751953 21.960938 C 15.235347 22.542119 15 23.277778 15 24 C 15 24.722222 15.235347 25.457882 15.751953 26.039062 C 16.268559 26.620244 17.083334 27 18 27 C 18.916666 27 19.731441 26.620244 20.248047 26.039062 C 20.764653 25.457881 21 24.722222 21 24 C 21 23.277778 20.764653 22.542118 20.248047 21.960938 C 19.731441 21.379756 18.916666 21 18 21 z M 18 23 C 18.416666 23 18.601893 23.120244 18.751953 23.289062 C 18.902014 23.457881 19 23.722222 19 24 C 19 24.277778 18.90201 24.542118 18.751953 24.710938 C 18.601893 24.879756 18.416666 25 18 25 C 17.583334 25 17.398107 24.879756 17.248047 24.710938 C 17.097986 24.542119 17 24.277778 17 24 C 17 23.722222 17.097986 23.457882 17.248047 23.289062 C 17.398107 23.120244 17.583334 23 18 23 z M 32 23 C 31.083334 23 30.268559 23.379756 29.751953 23.960938 C 29.235347 24.542119 29 25.277778 29 26 C 29 26.722222 29.235347 27.457882 29.751953 28.039062 C 30.268559 28.620244 31.083334 29 32 29 C 32.916666 29 33.731441 28.620244 34.248047 28.039062 C 34.764653 27.457881 35 26.722222 35 26 C 35 25.277778 34.764653 24.542118 34.248047 23.960938 C 33.731441 23.379756 32.916666 23 32 23 z M 32 25 C 32.416666 25 32.601893 25.120244 32.751953 25.289062 C 32.902014 25.457881 33 25.722222 33 26 C 33 26.277778 32.90201 26.542118 32.751953 26.710938 C 32.601893 26.879756 32.416666 27 32 27 C 31.583334 27 31.398107 26.879756 31.248047 26.710938 C 31.097986 26.542119 31 26.277778 31 26 C 31 25.722222 31.097986 25.457882 31.248047 25.289062 C 31.398107 25.120244 31.583334 25 32 25 z M 12 27 C 11.083334 27 10.268559 27.379756 9.7519531 27.960938 C 9.2353472 28.542119 9 29.277778 9 30 C 9 30.722222 9.2353472 31.457882 9.7519531 32.039062 C 10.268559 32.620244 11.083334 33 12 33 C 12.916666 33 13.731441 32.620244 14.248047 32.039062 C 14.764653 31.457881 15 30.722222 15 30 C 15 29.277778 14.764653 28.542118 14.248047 27.960938 C 13.731441 27.379756 12.916666 27 12 27 z M 12 29 C 12.416666 29 12.601893 29.120244 12.751953 29.289062 C 12.902014 29.457881 13 29.722222 13 30 C 13 30.277778 12.90201 30.542118 12.751953 30.710938 C 12.601893 30.879756 12.416666 31 12 31 C 11.583334 31 11.398107 30.879756 11.248047 30.710938 C 11.097986 30.542119 11 30.277778 11 30 C 11 29.722222 11.097986 29.457882 11.248047 29.289062 C 11.398107 29.120244 11.583334 29 12 29 z M 26 29 C 25.083334 29 24.268559 29.379756 23.751953 29.960938 C 23.235347 30.542119 23 31.277778 23 32 C 23 32.722222 23.235347 33.457881 23.751953 34.039062 C 24.268559 34.620244 25.083334 35 26 35 C 26.916666 35 27.731441 34.620244 28.248047 34.039062 C 28.764653 33.457881 29 32.722222 29 32 C 29 31.277778 28.764653 30.542118 28.248047 29.960938 C 27.731441 29.379756 26.916666 29 26 29 z M 26 31 C 26.416666 31 26.601893 31.120244 26.751953 31.289062 C 26.902014 31.457881 27 31.722222 27 32 C 27 32.277778 26.90201 32.542119 26.751953 32.710938 C 26.601893 32.879756 26.416666 33 26 33 C 25.583334 33 25.398107 32.879756 25.248047 32.710938 C 25.097986 32.542119 25 32.277778 25 32 C 25 31.722222 25.097986 31.457882 25.248047 31.289062 C 25.398107 31.120244 25.583334 31 26 31 z M 20 35 C 19.083334 35 18.268559 35.379756 17.751953 35.960938 C 17.235347 36.542119 17 37.277778 17 38 C 17 38.722222 17.235347 39.457881 17.751953 40.039062 C 18.268559 40.620244 19.083334 41 20 41 C 20.916666 41 21.731441 40.620244 22.248047 40.039062 C 22.764653 39.457881 23 38.722222 23 38 C 23 37.277778 22.764653 36.542119 22.248047 35.960938 C 21.731441 35.379756 20.916666 35 20 35 z M 20 37 C 20.416666 37 20.601893 37.120244 20.751953 37.289062 C 20.902014 37.457881 21 37.722222 21 38 C 21 38.277778 20.90201 38.542119 20.751953 38.710938 C 20.601893 38.879756 20.416666 39 20 39 C 19.583334 39 19.398107 38.879756 19.248047 38.710938 C 19.097986 38.542119 19 38.277778 19 38 C 19 37.722222 19.097986 37.457881 19.248047 37.289062 C 19.398107 37.120244 19.583334 37 20 37 z"/></svg>