<svg fill="#000000" xmlns="http://www.w3.org/2000/svg"  viewBox="0 0 50 50" width="1000px" height="1000px"><path d="M 23.269531 2.0039062 C 23.007782 2.020449 22.747092 2.0590597 22.490234 2.1210938 C 20.800185 2.5292062 19.527064 4.0306075 18.576172 5.96875 C 17.740097 7.6728687 17.169334 9.7801941 17.03125 12.048828 C 11.420165 12.541947 7 17.263489 7 23 C 7 24.691397 7.401754 26.287864 8.0859375 27.722656 C 5.5905807 29.834096 4 32.984163 4 36.5 C 4 42.839429 9.1605664 48 15.5 48 C 20.295751 48 24.412111 45.044156 26.134766 40.861328 C 27.603519 41.586995 29.255728 42 31 42 C 37.063407 42 42 37.063407 42 31 C 42 28.711265 41.295596 26.585004 40.09375 24.822266 C 43.533491 21.770232 45.278892 18.119828 45.8125 14.882812 C 46.38322 11.420668 45.76342 8.3873779 43.917969 6.921875 C 43.314259 6.4423897 42.596901 6.1953239 41.818359 6.1210938 C 41.039818 6.0468637 40.199467 6.1459858 39.349609 6.3613281 C 37.649893 6.7920137 35.824607 7.7218591 34.101562 9.0527344 C 33.469998 9.540553 32.860339 10.093728 32.277344 10.691406 C 31.504756 8.1035438 30.199208 5.981585 28.673828 4.4804688 C 27.262076 3.0911731 25.645615 2.1793874 24.058594 2.0195312 C 23.79409 1.9928886 23.531281 1.9873635 23.269531 2.0039062 z M 23.386719 4.0058594 C 24.445597 3.9622675 25.906778 4.5632512 27.271484 5.90625 C 28.769426 7.3803646 30.101256 9.6794701 30.689453 12.572266 C 29.42685 14.289599 28.42384 16.285843 27.904297 18.503906 C 26.310971 15.007123 23.030344 12.450104 19.060547 12.058594 C 19.198074 10.094301 19.680756 8.2566817 20.371094 6.8496094 C 21.172452 5.2162519 22.243034 4.2373406 22.958984 4.0644531 C 23.092377 4.0322372 23.23545 4.0120868 23.386719 4.0058594 z M 41.587891 8.1230469 C 42.067044 8.1663169 42.436788 8.3000166 42.673828 8.4882812 C 43.48038 9.1287785 44.332874 11.56774 43.839844 14.558594 C 43.381502 17.339021 41.884344 20.544183 38.822266 23.28125 C 36.82621 21.258666 34.058005 20 31 20 C 30.508617 20 30.02735 20.040866 29.552734 20.103516 C 30.087774 16.131839 32.543487 12.784549 35.324219 10.636719 C 36.85905 9.4512189 38.485044 8.6426113 39.841797 8.2988281 C 40.520173 8.1269365 41.108737 8.0797769 41.587891 8.1230469 z M 18 14 C 22.242194 14 25.782897 16.921739 26.742188 20.857422 C 24.206876 21.924123 22.15812 23.916722 21.009766 26.410156 C 19.372448 25.51224 17.494838 25 15.5 25 C 13.400542 25 11.436481 25.575138 9.7402344 26.5625 C 9.2676319 25.469717 9 24.270357 9 23 C 9 18.017407 13.017407 14 18 14 z M 18.140625 14.998047 C 17.830496 14.978858 17.506705 14.98411 17.171875 15.015625 C 14.493239 15.267746 12.844087 17.057891 13.019531 18.921875 C 13.194974 20.785858 15.149489 22.236496 17.828125 21.984375 C 20.506761 21.732255 22.155912 19.942108 21.980469 18.078125 C 21.826955 16.447139 20.311527 15.132369 18.140625 14.998047 z M 18.035156 16.982422 C 19.469491 17.023726 19.936807 17.718736 19.988281 18.265625 C 20.047111 18.890641 19.608118 19.808955 17.640625 19.994141 C 15.673132 20.179327 15.070547 19.359391 15.011719 18.734375 C 14.952889 18.10936 15.391882 17.192999 17.359375 17.007812 C 17.605312 16.984664 17.830251 16.976521 18.035156 16.982422 z M 31 22 C 35.982593 22 40 26.017407 40 31 C 40 35.982593 35.982593 40 31 40 C 29.451797 40 28.012023 39.593551 26.742188 38.908203 C 26.908637 38.130958 27 37.326091 27 36.5 C 27 32.879668 25.31394 29.646918 22.689453 27.537109 C 24.044279 24.288476 27.24774 22 31 22 z M 33.691406 25.087891 C 33.118389 25.08681 32.526027 25.217543 31.962891 25.511719 C 30.836618 26.100069 30.176799 27.15602 30.009766 28.224609 C 29.842733 29.293197 30.089389 30.371228 30.580078 31.310547 C 31.070766 32.249866 31.816561 33.069659 32.789062 33.542969 C 33.761564 34.016279 35.004587 34.076633 36.130859 33.488281 C 37.257131 32.899931 37.914997 31.845933 38.082031 30.777344 C 38.249064 29.708756 38.002408 28.628773 37.511719 27.689453 C 37.021031 26.750134 36.277189 25.932294 35.304688 25.458984 C 34.818437 25.222329 34.264423 25.088971 33.691406 25.087891 z M 15.5 27 C 20.758554 27 25 31.241449 25 36.5 C 25 41.758551 20.758554 46 15.5 46 C 10.241446 46 6 41.758551 6 36.5 C 6 31.241449 10.241446 27 15.5 27 z M 33.695312 27.064453 C 33.944415 27.065806 34.182204 27.135409 34.429688 27.255859 C 34.924653 27.496756 35.420642 28.003442 35.740234 28.615234 C 36.059826 29.227026 36.192436 29.924878 36.107422 30.46875 C 36.022412 31.012621 35.796369 31.406894 35.203125 31.716797 C 34.609881 32.0267 34.15903 31.986994 33.664062 31.746094 C 33.169095 31.505197 32.673108 30.996558 32.353516 30.384766 C 32.033923 29.772975 31.899361 29.077074 31.984375 28.533203 C 32.069385 27.989331 32.295428 27.595059 32.888672 27.285156 C 33.185294 27.130205 33.44621 27.0631 33.695312 27.064453 z M 13.5 31 C 12.083334 31 10.893559 31.567256 10.126953 32.429688 C 9.3603474 33.292119 9 34.402778 9 35.5 C 9 36.597222 9.3603474 37.707881 10.126953 38.570312 C 10.893559 39.432744 12.083334 40 13.5 40 C 14.916666 40 16.106441 39.432744 16.873047 38.570312 C 17.639653 37.707881 18 36.597222 18 35.5 C 18 34.402778 17.639653 33.292119 16.873047 32.429688 C 16.106441 31.567256 14.916666 31 13.5 31 z M 13.5 33 C 14.416666 33 14.976893 33.307744 15.376953 33.757812 C 15.777013 34.207881 16 34.847222 16 35.5 C 16 36.152778 15.777013 36.792119 15.376953 37.242188 C 14.976893 37.692256 14.416666 38 13.5 38 C 12.583334 38 12.023107 37.692256 11.623047 37.242188 C 11.222987 36.792119 11 36.152778 11 35.5 C 11 34.847222 11.222987 34.207881 11.623047 33.757812 C 12.023107 33.307744 12.583334 33 13.5 33 z"/></svg>