<svg xmlns="http://www.w3.org/2000/svg"  viewBox="0 0 50 50" width="1000px" height="1000px"><path d="M 40.427734 3.0644531 C 38.631022 3.0844754 36.853843 3.7692039 35.5625 5.0605469 C 34.699822 5.9228799 34.282784 7.1182908 33.960938 8.4375 C 33.639089 9.7567092 33.440948 11.227402 33.240234 12.667969 C 33.039521 14.108536 32.836433 15.517994 32.539062 16.660156 C 32.241692 17.802318 31.825795 18.641745 31.427734 19 C 31.258776 19.151971 29.98561 19.441438 28.609375 19.564453 C 27.921258 19.625963 27.207027 19.688756 26.53125 19.832031 C 25.855473 19.975306 25.184402 20.178879 24.640625 20.722656 C 24.09062 21.272661 23.894958 21.952029 23.757812 22.632812 C 23.620669 23.313596 23.564937 24.032781 23.507812 24.722656 C 23.450692 25.412531 23.391356 26.072299 23.289062 26.580078 C 23.186771 27.087857 23.01812 27.407661 22.953125 27.472656 C 22.888135 27.537646 22.570279 27.706301 22.0625 27.808594 C 21.554721 27.910887 20.893 27.968266 20.203125 28.025391 C 19.51325 28.082511 18.794065 28.138246 18.113281 28.275391 C 17.432498 28.412535 16.75313 28.608198 16.203125 29.158203 C 15.663372 29.697956 15.455975 30.366438 15.308594 31.039062 C 15.161213 31.711688 15.093765 32.422218 15.029297 33.109375 C 14.900361 34.483689 14.623882 35.776195 14.458984 35.972656 L 14.457031 35.972656 C 14.348418 36.102128 13.50978 36.609831 12.402344 36.982422 C 11.294907 37.355013 9.9143501 37.69425 8.578125 37.974609 C 5.9056749 38.535329 3.4179687 38.863281 3.4179688 38.863281 A 1.0001 1.0001 0 1 0 3.6777344 40.845703 C 3.6777344 40.845703 6.2249815 40.513375 8.9882812 39.933594 C 10.369931 39.643703 11.806406 39.293627 13.039062 38.878906 C 14.271721 38.464185 15.294347 38.087342 15.990234 37.257812 C 16.943337 36.122273 16.893921 34.654608 17.021484 33.294922 C 17.085264 32.615079 17.152162 31.966797 17.261719 31.466797 C 17.371275 30.966796 17.54194 30.647513 17.617188 30.572266 C 17.682178 30.507276 18.001987 30.338621 18.509766 30.236328 C 19.017545 30.134035 19.677312 30.076656 20.367188 30.019531 C 21.057061 29.962411 21.776248 29.906676 22.457031 29.769531 C 23.137815 29.632387 23.817182 29.436724 24.367188 28.886719 C 24.917192 28.336714 25.112855 27.657347 25.25 26.976562 C 25.387145 26.295779 25.442875 25.576594 25.5 24.886719 C 25.55712 24.196844 25.616457 23.535123 25.71875 23.027344 C 25.821043 22.519565 25.989693 22.201714 26.054688 22.136719 C 26.125908 22.065499 26.442372 21.895695 26.945312 21.789062 C 27.448255 21.682431 28.103352 21.617758 28.787109 21.556641 C 30.154625 21.434405 31.641583 21.497361 32.765625 20.486328 C 33.682564 19.661083 34.131777 18.473339 34.472656 17.164062 C 34.813536 15.854788 35.019416 14.388042 35.220703 12.943359 C 35.42199 11.498676 35.619894 10.075885 35.904297 8.9101562 C 36.1887 7.744428 36.588241 6.8627763 36.976562 6.4746094 C 38.739508 4.7116649 42.081589 4.5604378 43.998047 6.4746094 C 44.741533 7.2180951 45.143808 8.6623127 45.09375 10.121094 C 45.04369 11.579874 44.499164 12.994977 43.998047 13.496094 L 12.28125 45.214844 A 1.0001 1.0001 0 1 0 13.695312 46.628906 L 45.414062 14.910156 C 46.536946 13.787273 47.030808 12.023672 47.09375 10.189453 C 47.15669 8.355234 46.746578 6.3930612 45.414062 5.0605469 L 45.412109 5.0605469 C 44.040287 3.6892668 42.224447 3.0444309 40.427734 3.0644531 z"/></svg>