<svg xmlns="http://www.w3.org/2000/svg"  viewBox="0 0 50 50" width="1000px" height="1000px"><path d="M 5 0 C 4.449219 0 4 0.445313 4 1 L 4 4 C 4 4.378906 4.222656 4.734375 4.5625 4.90625 L 10 7.625 L 10 11.90625 L 12 11.65625 L 12 7 C 12 6.621094 11.777344 6.265625 11.4375 6.09375 L 6 3.375 L 6 2 L 44 2 L 44 3.375 L 38.5625 6.09375 C 38.222656 6.261719 38 6.621094 38 7 L 38 8.40625 L 40 8.15625 L 40 7.625 L 45.4375 4.90625 C 45.777344 4.738281 46 4.378906 46 4 L 46 1 C 46 0.445313 45.550781 0 45 0 Z M 40.875 10 L 8.875 14 C 8.324219 14.070313 7.929688 14.574219 8 15.125 C 8.070313 15.675781 8.574219 16.070313 9.125 16 L 41.125 12 C 41.675781 11.929688 42.070313 11.425781 42 10.875 C 41.929688 10.324219 41.425781 9.929688 40.875 10 Z M 40.96875 14.78125 C 40.9375 14.789063 40.90625 14.800781 40.875 14.8125 L 8.875 18.8125 C 8.488281 18.8125 8.136719 19.035156 7.972656 19.386719 C 7.804688 19.738281 7.859375 20.152344 8.105469 20.449219 C 8.351563 20.75 8.75 20.878906 9.125 20.78125 L 41.125 16.78125 C 41.675781 16.738281 42.089844 16.253906 42.046875 15.703125 C 42.003906 15.152344 41.519531 14.738281 40.96875 14.78125 Z M 40.875 19.59375 L 8.875 23.59375 C 8.324219 23.664063 7.929688 24.167969 8 24.71875 C 8.070313 25.269531 8.574219 25.664063 9.125 25.59375 L 41.125 21.59375 C 41.675781 21.523438 42.070313 21.019531 42 20.46875 C 41.929688 19.917969 41.425781 19.523438 40.875 19.59375 Z M 40.875 24.40625 L 8.875 28.40625 C 8.324219 28.476563 7.929688 28.980469 8 29.53125 C 8.070313 30.082031 8.574219 30.476563 9.125 30.40625 L 41.125 26.40625 C 41.675781 26.335938 42.070313 25.832031 42 25.28125 C 41.929688 24.730469 41.425781 24.335938 40.875 24.40625 Z M 40.9375 29.1875 C 40.917969 29.195313 40.894531 29.207031 40.875 29.21875 L 8.875 33.21875 C 8.488281 33.21875 8.136719 33.441406 7.972656 33.792969 C 7.804688 34.144531 7.859375 34.558594 8.105469 34.855469 C 8.351563 35.15625 8.75 35.285156 9.125 35.1875 L 41.125 31.1875 C 41.675781 31.136719 42.082031 30.644531 42.03125 30.09375 C 41.980469 29.542969 41.488281 29.136719 40.9375 29.1875 Z M 40.875 34 L 8.875 38 C 8.324219 38.070313 7.929688 38.574219 8 39.125 C 8.070313 39.675781 8.574219 40.070313 9.125 40 L 41.125 36 C 41.675781 35.929688 42.070313 35.425781 42 34.875 C 41.929688 34.324219 41.425781 33.929688 40.875 34 Z M 40 38.09375 L 38 38.34375 L 38 43 C 38 43.378906 38.222656 43.734375 38.5625 43.90625 L 44 46.625 L 44 48 L 6 48 L 6 46.625 L 11.4375 43.90625 C 11.777344 43.738281 12 43.378906 12 43 L 12 41.59375 L 10 41.84375 L 10 42.375 L 4.5625 45.09375 C 4.222656 45.265625 4 45.621094 4 46 L 4 49 C 4 49.554688 4.449219 50 5 50 L 45 50 C 45.550781 50 46 49.554688 46 49 L 46 46 C 46 45.621094 45.777344 45.265625 45.4375 45.09375 L 40 42.375 Z"/></svg>