<svg xmlns="http://www.w3.org/2000/svg"  viewBox="0 0 50 50" width="1000px" height="1000px"><path d="M 41.966797 3.96875 A 1.0041003 1.0041003 0 0 0 41.263672 4.3085938 C 41.262986 4.3091904 41.262405 4.3099506 41.261719 4.3105469 C 39.858899 5.529045 37.678174 6 36.333984 6 C 34.979782 6 33.154994 5.5604331 31.710938 4.28125 A 1.0001 1.0001 0 0 0 30.306641 4.2695312 C 28.950945 5.4748582 26.360012 6 25 6 C 23.639984 6 21.050347 5.4753208 19.693359 4.2695312 A 1.0001 1.0001 0 0 0 18.958984 3.9863281 A 1.0001 1.0001 0 0 0 18.289062 4.28125 C 16.846238 5.5600688 15.020218 6 13.666016 6 C 12.313676 6 10.116851 5.5258731 8.7148438 4.2929688 A 1.0041003 1.0041003 0 0 0 8.140625 3.9960938 A 1.0001 1.0001 0 0 0 8.0410156 3.9863281 A 1.0041003 1.0041003 0 0 0 8.03125 3.984375 A 1.0041003 1.0041003 0 0 0 7.9863281 3.984375 A 1.0001 1.0001 0 0 0 7.8417969 3.9941406 A 1.0041003 1.0041003 0 0 0 7.8320312 3.9960938 A 1.0001 1.0001 0 0 0 7.7324219 4.0175781 A 1.0001 1.0001 0 0 0 7.1621094 5.5546875 C 9.8952085 10.051153 11.764416 15.027305 12.853516 19.996094 L 8 19.996094 A 1.0041003 1.0041003 0 0 0 7.0175781 20.789062 L 4.03125 34.728516 A 1.0041003 1.0041003 0 0 0 4.0292969 34.732422 L 4.0175781 34.789062 A 1.0041003 1.0041003 0 0 0 4.0019531 34.886719 A 1.0041003 1.0041003 0 0 0 4.0019531 34.890625 A 1.0041003 1.0041003 0 0 0 3.9960938 34.978516 A 1.0041003 1.0041003 0 0 0 3.9960938 34.994141 A 1.0041003 1.0041003 0 0 0 3.9960938 35 L 3.9960938 45 A 1.0041003 1.0041003 0 0 0 5 46.003906 L 45 46.003906 A 1.0041003 1.0041003 0 0 0 46.003906 45 L 46.003906 35 A 1.0041003 1.0041003 0 0 0 46.003906 34.990234 A 1.0041003 1.0041003 0 0 0 46.001953 34.941406 A 1.0041003 1.0041003 0 0 0 45.996094 34.873047 A 1.0041003 1.0041003 0 0 0 45.996094 34.871094 A 1.0041003 1.0041003 0 0 0 45.996094 34.867188 A 1.0041003 1.0041003 0 0 0 45.982422 34.789062 L 45.972656 34.746094 A 1.0041003 1.0041003 0 0 0 45.962891 34.703125 L 42.982422 20.789062 A 1.0041003 1.0041003 0 0 0 42 19.996094 L 37.150391 19.996094 C 38.238185 15.025825 40.106779 10.046765 42.841797 5.5488281 A 1.0001 1.0001 0 0 0 42.908203 5.4355469 A 1.0001 1.0001 0 0 0 42.949219 5.34375 A 1.0041003 1.0041003 0 0 0 42.953125 5.3359375 A 1.0001 1.0001 0 0 0 42.982422 5.2480469 A 1.0041003 1.0041003 0 0 0 42.984375 5.2421875 A 1.0001 1.0001 0 0 0 42.990234 5.2148438 A 1.0041003 1.0041003 0 0 0 43.005859 5.1445312 A 1.0041003 1.0041003 0 0 0 41.966797 3.96875 z M 18.316406 6.5292969 C 20.024187 12.389784 21.005859 21.099609 21.005859 21.099609 A 1.0001 1.0001 0 1 0 22.994141 20.900391 C 22.994141 20.900391 22.169721 13.038699 20.529297 6.9042969 C 22.133066 7.6011148 23.791419 8 25 8 C 26.246002 8 27.969614 7.5779667 29.615234 6.828125 C 29.226331 8.4191868 28.484765 11.236346 28.007812 14.869141 A 1.0007802 1.0007802 0 0 0 29.992188 15.130859 C 30.490763 11.333356 31.422372 7.7021241 31.708984 6.5449219 C 33.288763 7.4854096 34.955378 8 36.333984 8 C 37.228696 8 38.33016 7.8719275 39.453125 7.5234375 C 36.129438 14.072756 34.438247 21.271337 34.087891 27.996094 L 15.912109 27.996094 C 15.561794 21.272137 13.871731 14.074086 10.548828 7.5253906 C 11.670302 7.8729446 12.771944 8 13.666016 8 C 15.052156 8 16.729414 7.4818193 18.316406 6.5292969 z M 8.8125 22.003906 L 13.232422 22.003906 C 13.47012 23.343873 13.670369 24.680541 13.796875 26 L 13 26 C 11.906937 26 11 26.906937 11 28 C 11 29.093063 11.906937 30 13 30 L 14.921875 30 A 1.0041003 1.0041003 0 0 0 15 30.003906 L 34.837891 30.003906 A 1.0041003 1.0041003 0 0 0 35.177734 30 L 37 30 C 38.093063 30 39 29.093063 39 28 C 39 26.906937 38.093063 26 37 26 L 36.207031 26 C 36.333283 24.680131 36.53416 23.344239 36.771484 22.003906 L 41.1875 22.003906 L 43.757812 33.996094 L 6.2421875 33.996094 L 8.8125 22.003906 z M 6.0039062 36.003906 L 43.996094 36.003906 L 43.996094 43.996094 L 6.0039062 43.996094 L 6.0039062 36.003906 z"/></svg>