<svg xmlns="http://www.w3.org/2000/svg"  viewBox="0 0 50 50" width="1000px" height="1000px"><path d="M 41.474609 3 C 41.079424 2.9882154 40.688702 3.009091 40.304688 3.0585938 C 38.000597 3.3556099 35.915964 4.6759803 34.263672 6.0410156 C 33.162144 6.9510391 32.235121 7.9035563 31.542969 8.6621094 C 31.196892 9.0413859 30.90911 9.3730849 30.693359 9.6210938 C 30.477609 9.8691025 30.276096 10.074655 30.335938 10.021484 L 30.314453 10.042969 L 30.292969 10.0625 L 30.289062 10.066406 C 30.273972 10.081196 26.429708 13.702811 24.246094 15.779297 L 23.935547 16.074219 L 23.935547 16.095703 C 22.362232 17.599734 20.770703 19.144383 19.363281 20.619141 L 19.361328 20.619141 C 13.144462 27.150621 10.633499 28.44166 8.1191406 30.998047 L 8.0898438 31.027344 L 8.0625 31.060547 C 2.2308673 38.102446 3.0527344 42.258344 3.0527344 42.277344 C 3.0527344 43.095806 3.4288897 43.823615 3.9335938 44.365234 C 4.4382978 44.906854 5.0730939 45.310704 5.7558594 45.644531 C 7.1200595 46.311536 8.703492 46.694962 9.984375 46.876953 C 10.587953 46.965063 11.2347 47.008913 11.90625 46.998047 C 13.125784 46.984647 14.620571 46.549978 16.423828 45.845703 C 18.228549 45.140857 20.301386 44.147649 22.451172 42.951172 C 26.750744 40.558217 31.348591 37.363263 34.609375 33.990234 C 37.853053 30.634901 40.753405 26.318949 42.929688 22.46875 C 45.10597 18.618551 46.542395 15.395384 46.863281 13.619141 L 46.865234 13.619141 L 46.865234 13.617188 C 47.435256 10.421184 46.302979 6.8141816 44.886719 4.9335938 C 44.204839 4.0259184 43.654733 3.3906165 42.722656 3.1503906 L 42.699219 3.1445312 L 42.673828 3.1386719 C 42.269448 3.0562308 41.869795 3.0117846 41.474609 3 z M 41.388672 5.0078125 C 41.672433 5.0144151 41.955622 5.0447304 42.236328 5.0996094 C 42.152081 5.080675 42.383445 5.2312692 42.689453 5.5019531 C 42.473813 5.7609615 42.271224 6.0277024 42.074219 6.2832031 C 41.630048 6.8592564 41.184518 7.3739948 40.951172 7.53125 C 39.863912 8.2587192 39.386872 9.4636448 38.990234 10.623047 C 38.593783 11.781905 38.315182 12.971351 38.064453 13.644531 C 37.74669 14.482631 36.891087 15.719579 36.035156 16.988281 C 35.179225 18.256984 34.301644 19.557636 34.019531 20.974609 L 33.998047 21.082031 L 34 21.191406 C 34.01958 22.07249 33.999306 23.2673 34.283203 24.353516 C 34.584981 25.508146 35.341456 26.519222 36.474609 26.9375 L 36.640625 27 L 37.707031 27 C 37.38857 27.454394 37.069441 27.904837 36.738281 28.349609 C 35.958444 28.019159 35.159247 28.007392 34.601562 28 C 32.745719 27.95876 30.913596 28.06752 29.138672 28 L 29.136719 28 C 27.452963 27.9381 25.790559 28.636311 24.238281 29.472656 C 22.686003 30.309002 21.239425 31.323173 20.152344 32.033203 L 20.150391 32.035156 C 16.981011 34.119427 13.218522 38.303509 10.697266 40.630859 C 9.9747154 41.287723 9.5241721 42.196333 9.0996094 43.126953 C 8.8807337 43.606718 8.6839493 44.0873 8.5078125 44.529297 C 7.8481207 44.348882 7.1900553 44.120111 6.6328125 43.847656 C 6.095578 43.584984 5.6593584 43.281959 5.3984375 43.001953 C 5.1375166 42.721948 5.0527344 42.513381 5.0527344 42.277344 C 5.0527344 42.258384 4.0773273 39.034718 9.5761719 32.375 C 10.198381 31.744839 10.876333 31.157023 11.626953 30.527344 C 11.853332 31.081577 12.247206 31.687315 13.050781 31.912109 L 13.091797 31.923828 L 13.134766 31.931641 C 13.726065 32.043683 14.26791 31.988149 14.669922 31.849609 C 15.071934 31.711069 15.29679 31.56562 15.511719 31.482422 L 15.513672 31.482422 L 15.515625 31.480469 C 15.613785 31.441799 15.91484 31.426979 16.398438 31.314453 C 17.621392 31.045725 18.15657 30.151873 18.621094 29.783203 C 19.602453 29.003619 20.889666 28.28378 22.019531 27.222656 L 22.025391 27.21875 C 22.847538 26.456118 23.822581 25.573091 24.699219 24.714844 C 25.543516 23.888243 25.811024 22.730575 25.921875 21.388672 C 26.023059 20.163788 25.992032 18.668334 25.974609 16.898438 C 28.17842 14.806206 31.605341 11.575273 31.666016 11.517578 C 31.667116 11.516578 31.666778 11.514672 31.667969 11.513672 C 31.680739 11.502292 31.689142 11.491529 31.701172 11.480469 L 31.703125 11.480469 C 31.703594 11.48 31.706484 11.479062 31.708984 11.476562 L 31.707031 11.474609 C 31.893025 11.302655 32.000609 11.164144 32.201172 10.933594 C 32.417991 10.684356 32.692451 10.370177 33.019531 10.011719 C 33.673691 9.2948028 34.539887 8.4078359 35.537109 7.5839844 C 37.032942 6.3482072 38.785284 5.3055034 40.535156 5.0585938 C 40.820579 5.0183203 41.104911 5.0012099 41.388672 5.0078125 z M 43.886719 7.2226562 C 44.603917 8.8265929 45.230065 11.395431 44.896484 13.265625 C 44.708745 14.302432 43.302629 17.744319 41.1875 21.486328 C 40.541441 22.629312 39.809697 23.81367 39.042969 25 L 37.117188 25 C 36.772081 24.841841 36.366879 24.421883 36.216797 23.847656 C 36.050884 23.212859 36.031531 22.188942 36.011719 21.304688 C 36.187004 20.510637 36.87473 19.320834 37.693359 18.107422 C 38.527428 16.871124 39.45331 15.627369 39.935547 14.355469 L 39.935547 14.351562 L 39.9375 14.349609 C 40.276388 13.442078 40.532539 12.295362 40.882812 11.271484 C 41.233088 10.247606 41.715142 9.4242803 42.064453 9.1914062 L 42.066406 9.1914062 L 42.068359 9.1894531 C 42.754872 8.7267452 43.209874 8.085353 43.658203 7.5039062 C 43.737912 7.4005301 43.80852 7.3207342 43.886719 7.2226562 z M 23.990234 18.820312 C 23.993504 19.749021 23.983311 20.575476 23.929688 21.224609 C 23.834287 22.379456 23.601484 22.990757 23.300781 23.285156 C 22.463082 24.105282 21.497035 24.981431 20.660156 25.757812 L 20.658203 25.759766 L 20.654297 25.761719 C 19.765509 26.597707 18.535926 27.297669 17.378906 28.216797 C 16.584717 28.847106 16.218565 29.309267 15.96875 29.363281 L 15.958984 29.365234 L 15.951172 29.367188 C 15.765325 29.410918 15.345493 29.399787 14.789062 29.617188 C 14.383992 29.773989 14.149269 29.914274 14.019531 29.958984 C 13.908542 29.997234 13.796811 29.997034 13.580078 29.964844 C 13.620458 29.969444 13.492398 29.877264 13.392578 29.552734 C 13.34797 29.407701 13.32263 29.256566 13.302734 29.123047 C 15.099189 27.609823 17.40176 25.579038 20.808594 22 L 20.810547 21.998047 C 21.79255 20.96913 22.882039 19.896272 23.990234 18.820312 z M 29.0625 30 C 30.967576 30.07248 32.814437 29.96124 34.558594 30 L 34.5625 30 L 34.566406 30 C 34.859707 30.003926 35.143016 30.02701 35.40625 30.068359 C 34.68022 30.961057 33.932947 31.812339 33.171875 32.599609 C 30.128659 35.747581 25.643943 38.88483 21.478516 41.203125 C 19.395802 42.362273 17.389841 43.320612 15.695312 43.982422 C 14.000784 44.644232 12.577784 44.990776 11.880859 44.998047 L 11.876953 44.998047 L 11.875 44.998047 C 11.397308 45.005748 10.939879 44.975328 10.509766 44.923828 C 10.640987 44.601446 10.772582 44.275711 10.917969 43.957031 C 11.300906 43.117652 11.775519 42.352511 12.042969 42.109375 L 12.044922 42.107422 L 12.048828 42.105469 C 14.706627 39.652905 18.517417 35.502627 21.246094 33.707031 L 21.25 33.705078 C 22.382348 32.965367 23.776098 31.994818 25.1875 31.234375 C 26.600222 30.47322 28.026256 29.961903 29.0625 30 z"/></svg>