<svg fill="#000000" xmlns="http://www.w3.org/2000/svg"  viewBox="0 0 50 50" width="1000px" height="1000px"><path d="M 40 2.046875 C 37.234375 2.046875 34.324219 3.21875 32.183594 4.335938 C 31.144531 4.171875 29.167969 4.042969 27.050781 4.527344 C 25.902344 4.789063 24.75 5.238281 23.832031 6.054688 C 22.917969 6.871094 22.292969 8.105469 22.292969 9.609375 L 22.292969 10.578125 C 22.140625 10.566406 21.929688 10.484375 21.785156 10.484375 C 20.269531 10.484375 18.117188 10.582031 16.21875 11.578125 C 14.320313 12.570313 12.78125 14.617188 12.78125 17.871094 L 12.78125 18.53125 C 12.460938 18.535156 12.121094 18.488281 11.816406 18.5625 C 10.460938 18.894531 8.800781 19.441406 7.453125 20.71875 C 6.109375 22 5.164063 24.007813 5.164063 26.890625 L 5.164063 27.90625 C 5.132813 27.941406 5.105469 27.929688 5.078125 27.972656 C 3.957031 29.761719 2.046875 34.300781 2.046875 39.027344 C 2.046875 42.042969 2.71875 44.269531 3.9375 45.769531 C 5.15625 47.273438 6.914063 47.953125 8.707031 47.953125 C 12.367188 47.953125 16.066406 46.179688 19.996094 43.316406 C 23.921875 40.453125 28.105469 36.464844 32.714844 31.828125 C 41.734375 22.761719 47.953125 15.359375 47.953125 8 C 47.953125 5.78125 46.734375 4.148438 45.167969 3.25 C 43.597656 2.347656 41.707031 2.046875 40 2.046875 Z M 40 3.953125 C 41.46875 3.953125 43.078125 4.253906 44.21875 4.90625 C 45.355469 5.554688 46.046875 6.421875 46.046875 8 C 46.046875 14.242188 40.316406 21.484375 31.359375 30.484375 C 26.773438 35.097656 22.636719 39.027344 18.871094 41.773438 C 15.105469 44.519531 11.738281 46.046875 8.707031 46.046875 C 7.367188 46.046875 6.269531 45.613281 5.421875 44.566406 C 4.570313 43.523438 3.953125 41.757813 3.953125 39.027344 C 3.953125 35.074219 5.625 30.992188 6.515625 29.417969 C 6.75 29.445313 7.027344 29.488281 7.414063 29.5625 C 8.355469 29.738281 9.636719 30.015625 10.96875 30.25 C 12.304688 30.484375 13.6875 30.683594 14.90625 30.703125 C 16.125 30.722656 17.269531 30.6875 18.058594 29.773438 C 18.460938 29.304688 18.449219 28.515625 18.207031 28.0625 C 17.964844 27.609375 17.613281 27.300781 17.195313 26.996094 C 16.359375 26.386719 15.199219 25.855469 13.867188 25.453125 C 11.84375 24.84375 9.414063 24.515625 7.351563 25.191406 C 7.617188 23.828125 8.074219 22.765625 8.769531 22.105469 C 9.738281 21.183594 11.046875 20.714844 12.269531 20.417969 C 12.691406 20.316406 13.808594 20.429688 15.117188 20.777344 C 16.425781 21.121094 17.960938 21.636719 19.480469 22.109375 C 20.996094 22.578125 22.496094 23.003906 23.835938 23.152344 C 24.503906 23.226563 25.140625 23.238281 25.746094 23.105469 C 26.347656 22.972656 26.949219 22.671875 27.355469 22.140625 C 27.773438 21.597656 27.804688 20.8125 27.574219 20.242188 C 27.34375 19.671875 26.949219 19.21875 26.457031 18.78125 C 25.480469 17.914063 24.082031 17.136719 22.503906 16.542969 C 20.929688 15.949219 19.179688 15.554688 17.507813 15.5625 C 16.6875 15.570313 15.878906 15.683594 15.125 15.933594 C 15.527344 14.679688 16.15625 13.765625 17.105469 13.265625 C 18.5 12.535156 20.371094 12.390625 21.785156 12.390625 C 22.292969 12.390625 23.417969 12.628906 24.679688 12.972656 C 25.941406 13.320313 27.378906 13.765625 28.75 14.132813 C 30.117188 14.5 31.394531 14.800781 32.484375 14.828125 C 33.027344 14.839844 33.539063 14.804688 34.046875 14.535156 C 34.554688 14.265625 34.957031 13.609375 34.957031 13 C 34.957031 11.875 34.285156 10.941406 33.421875 10.261719 C 32.554688 9.578125 31.453125 9.078125 30.246094 8.722656 C 28.351563 8.164063 26.289063 8.113281 24.421875 8.46875 C 24.574219 8.082031 24.796875 7.753906 25.105469 7.476563 C 25.671875 6.972656 26.527344 6.605469 27.476563 6.386719 C 29.375 5.949219 31.671875 6.136719 32.171875 6.234375 L 32.5 6.296875 L 32.800781 6.140625 C 34.789063 5.082031 37.714844 3.953125 40 3.953125 Z M 26.433594 10.070313 C 27.515625 10.085938 28.675781 10.25 29.707031 10.550781 C 30.738281 10.855469 31.648438 11.296875 32.238281 11.761719 C 32.765625 12.175781 32.921875 12.539063 32.964844 12.871094 C 32.867188 12.894531 32.789063 12.925781 32.53125 12.917969 C 31.785156 12.898438 30.5625 12.644531 29.242188 12.289063 C 27.921875 11.933594 26.492188 11.492188 25.1875 11.132813 C 24.363281 10.90625 23.730469 10.839844 23.042969 10.722656 L 23.609375 10.492188 C 24.339844 10.195313 25.347656 10.054688 26.433594 10.070313 Z M 17.519531 17.472656 C 18.871094 17.464844 20.433594 17.804688 21.835938 18.328125 C 23.238281 18.855469 24.480469 19.578125 25.1875 20.207031 C 25.542969 20.523438 25.746094 20.820313 25.800781 20.953125 C 25.820313 20.996094 25.824219 20.984375 25.828125 20.988281 C 25.75 21.089844 25.628906 21.175781 25.339844 21.238281 C 25.039063 21.304688 24.589844 21.316406 24.046875 21.253906 C 22.960938 21.136719 21.53125 20.742188 20.042969 20.28125 C 18.554688 19.824219 17.007813 19.300781 15.601563 18.929688 C 15.144531 18.808594 14.734375 18.738281 14.3125 18.65625 L 14.425781 18.53125 C 15.09375 17.828125 16.171875 17.480469 17.519531 17.472656 Z M 9.671875 26.769531 C 10.855469 26.734375 12.148438 26.929688 13.3125 27.28125 C 14.480469 27.632813 15.503906 28.128906 16.074219 28.542969 C 16.113281 28.570313 16.101563 28.574219 16.136719 28.601563 C 15.886719 28.683594 15.671875 28.804688 14.9375 28.796875 C 13.910156 28.78125 12.589844 28.597656 11.300781 28.371094 C 10.015625 28.140625 8.75 27.871094 7.765625 27.6875 C 7.429688 27.621094 7.171875 27.585938 6.898438 27.546875 C 7.605469 27.0625 8.574219 26.804688 9.671875 26.769531 Z"/></svg>