<svg fill="#000000" xmlns="http://www.w3.org/2000/svg"  viewBox="0 0 50 50" width="1000px" height="1000px"><path d="M 22 5 C 16.721733 5 11.923084 5.2355396 8.3027344 6.2226562 C 6.4925598 6.7162146 4.9600909 7.3974027 3.8242188 8.421875 C 2.6883465 9.4463473 2 10.867212 2 12.5 C 2 14.619662 2.8937238 16.327331 4.359375 17.433594 C 4.7576814 17.734936 5 18.277467 5 18.863281 L 5 40 C 5 42.197334 6.8026661 44 9 44 L 19.701172 44 L 36 44 L 41.167969 44 C 43.27578 44 45 42.186069 45 40 L 45 18.863281 C 45 18.190544 45.19368 17.664091 45.503906 17.408203 C 46.789139 16.349118 48 14.717554 48 12.5 C 48 10.888697 47.381659 9.4839224 46.332031 8.4511719 C 45.282403 7.4184214 43.856864 6.7262164 42.183594 6.2285156 C 38.935751 5.2624711 34.675952 5.0196508 30 5.0058594 L 30 5 L 29.582031 5 L 22 5 z M 29.582031 7 C 34.356878 7 38.656071 7.2668858 41.613281 8.1464844 C 43.091886 8.5862836 44.216597 9.1753286 44.929688 9.8769531 C 45.642778 10.578578 46 11.361303 46 12.5 C 46 14.014446 45.243189 15.03232 44.232422 15.865234 C 43.286648 16.645347 43 17.818018 43 18.863281 L 43 40 C 43 41.127931 42.096158 42 41.167969 42 L 36 42 L 19.701172 42 C 18.772983 42 18 41.181039 18 40 L 18 18.863281 C 18 17.715573 17.528522 16.60225 16.636719 15.865234 L 16.634766 15.863281 C 15.65349 15.055532 15 14.061606 15 12.5 C 15 11.305727 15.298274 10.477982 15.855469 9.796875 C 16.412663 9.115768 17.282288 8.5614279 18.513672 8.1328125 C 20.976439 7.2755817 24.807185 7 29.582031 7 z M 15.857422 7.1816406 C 15.261158 7.5586372 14.739418 8.004616 14.308594 8.53125 C 13.446945 9.584518 13 10.944273 13 12.5 C 13 14.670394 14.050557 16.325999 15.365234 17.408203 C 15.728547 17.70962 16 18.293911 16 18.863281 L 16 40 C 16 40.720028 16.193986 41.40217 16.515625 42 L 9 42 C 7.8833339 42 7 41.116666 7 40 L 7 18.863281 C 7 17.731095 6.5381467 16.574548 5.5644531 15.837891 C 4.5261043 15.054153 4 14.112338 4 12.5 C 4 11.382788 4.3750127 10.616153 5.1621094 9.90625 C 5.949206 9.1963473 7.1999246 8.5962853 8.828125 8.1523438 C 10.728735 7.6341274 13.157752 7.3464868 15.857422 7.1816406 z M 23 13 A 1 1 0 0 0 22 14 A 1 1 0 0 0 23 15 A 1 1 0 0 0 24 14 A 1 1 0 0 0 23 13 z M 38 13 A 1 1 0 0 0 37 14 A 1 1 0 0 0 38 15 A 1 1 0 0 0 39 14 A 1 1 0 0 0 38 13 z M 29.5 18 A 1.5 1.5 0 0 0 28 19.5 A 1.5 1.5 0 0 0 29.5 21 A 1.5 1.5 0 0 0 31 19.5 A 1.5 1.5 0 0 0 29.5 18 z M 37.5 23 A 1.5 1.5 0 0 0 36 24.5 A 1.5 1.5 0 0 0 37.5 26 A 1.5 1.5 0 0 0 39 24.5 A 1.5 1.5 0 0 0 37.5 23 z M 23.5 25 A 1.5 1.5 0 0 0 22 26.5 A 1.5 1.5 0 0 0 23.5 28 A 1.5 1.5 0 0 0 25 26.5 A 1.5 1.5 0 0 0 23.5 25 z M 29 30 A 1 1 0 0 0 28 31 A 1 1 0 0 0 29 32 A 1 1 0 0 0 30 31 A 1 1 0 0 0 29 30 z M 35.5 34 A 1.5 1.5 0 0 0 34 35.5 A 1.5 1.5 0 0 0 35.5 37 A 1.5 1.5 0 0 0 37 35.5 A 1.5 1.5 0 0 0 35.5 34 z M 22 36 A 1 1 0 0 0 21 37 A 1 1 0 0 0 22 38 A 1 1 0 0 0 23 37 A 1 1 0 0 0 22 36 z"/></svg>