<svg xmlns="http://www.w3.org/2000/svg"  viewBox="0 0 50 50" width="1000px" height="1000px"><path d="M 15.625 4 C 10.042969 4 6.023438 6.445313 3.53125 9.65625 C 1.039063 12.867188 0 16.789063 0 20 C 0 28.898438 3.949219 35.460938 9.03125 39.71875 C 14.113281 43.976563 20.28125 46 25 46 C 29.71875 46 35.886719 43.976563 40.96875 39.71875 C 46.050781 35.460938 50 28.898438 50 20 C 50 16.789063 48.960938 12.867188 46.46875 9.65625 C 43.976563 6.445313 39.957031 4 34.375 4 C 30.914063 4 27.703125 4.871094 25.03125 6.40625 C 22.347656 4.851563 19.109375 4 15.625 4 Z M 15.625 6 C 18.367188 6 20.832031 6.699219 23 7.75 C 22.960938 7.78125 22.914063 7.8125 22.875 7.84375 C 22.214844 8.386719 21.605469 8.980469 21.0625 9.625 C 20.265625 9.402344 18.492188 9 16.3125 9 C 14.015625 9 11.488281 9.820313 9.46875 11.625 C 7.449219 13.429688 6 16.25 6 20 C 6 20.335938 6.011719 20.675781 6.03125 21 C 6.019531 21 6.011719 21 6 21 C 5.449219 21 5 21.449219 5 22 C 5 22.550781 5.449219 23 6 23 C 6.101563 23 6.1875 22.964844 6.28125 22.9375 C 6.933594 26.558594 8.570313 29.351563 9.125 30.21875 C 8.882813 30.746094 8.800781 31.359375 8.90625 31.96875 C 9.1875 33.589844 10.757813 34.679688 12.375 34.40625 C 12.414063 34.398438 12.625 34.359375 12.75 34.34375 C 12.824219 34.417969 12.90625 34.480469 13 34.53125 C 16.835938 36.960938 21.316406 38 25 38 C 28.667969 38 33.0625 36.738281 36.84375 34.25 C 37.136719 34.304688 37.566406 34.394531 37.625 34.40625 C 39.242188 34.675781 40.8125 33.589844 41.09375 31.96875 C 41.195313 31.386719 41.128906 30.792969 40.90625 30.28125 C 41.269531 29.859375 41.746094 29.203125 42.28125 28.125 C 43.152344 26.363281 44 23.675781 44 20 C 44 14.117188 39.570313 9 33.53125 9 C 31.328125 9 28.574219 9.640625 26.25 11.0625 C 23.925781 12.484375 22 14.820313 22 18 C 22 19.921875 22.644531 21.621094 23.65625 23.03125 C 23.191406 23.484375 22.683594 23.917969 22.125 24.3125 C 20.816406 22.570313 20 20.515625 20 18 C 20 14.472656 21.570313 11.535156 24.15625 9.40625 C 26.742188 7.277344 30.351563 6 34.375 6 C 39.386719 6 42.707031 8.078125 44.875 10.875 C 47.042969 13.671875 48 17.238281 48 20 C 48 20.316406 47.980469 20.625 47.96875 20.9375 C 47.929688 20.417969 47.527344 20 47 20 C 46.449219 20 46 20.449219 46 21 C 46 21.550781 46.449219 22 47 22 C 47.515625 22 47.917969 21.597656 47.96875 21.09375 C 47.867188 23.71875 47.410156 26.105469 46.65625 28.25 C 46.480469 28.097656 46.25 28 46 28 C 45.449219 28 45 28.449219 45 29 C 45 29.527344 45.417969 29.929688 45.9375 29.96875 C 44.433594 33.324219 42.230469 36.058594 39.6875 38.1875 C 34.984375 42.128906 29.132813 44 25 44 C 21.496094 44 16.761719 42.625 12.53125 39.8125 C 12.804688 39.632813 13 39.351563 13 39 C 13 38.449219 12.550781 38 12 38 C 11.527344 38 11.167969 38.34375 11.0625 38.78125 C 10.8125 38.589844 10.554688 38.390625 10.3125 38.1875 C 5.609375 34.246094 2 28.308594 2 20 C 2 17.238281 2.957031 13.671875 5.125 10.875 C 7.292969 8.078125 10.613281 6 15.625 6 Z M 16.3125 11 C 17.8125 11 19.027344 11.191406 19.84375 11.375 C 18.679688 13.316406 18 15.554688 18 18 C 18 20.890625 18.972656 23.359375 20.4375 25.375 C 19.9375 25.652344 19.425781 25.917969 18.90625 26.15625 C 17.054688 27.003906 15.167969 27.59375 13.75 27.96875 C 12.332031 28.34375 11.308594 28.511719 11.375 28.5 C 11.097656 28.546875 10.835938 28.632813 10.59375 28.75 C 9.734375 27.242188 8 23.75 8 20 C 8 16.75 9.167969 14.570313 10.78125 13.125 C 12.394531 11.679688 14.5 11 16.3125 11 Z M 33.53125 11 C 38.445313 11 42 15.105469 42 20 C 42 23.367188 41.246094 25.714844 40.5 27.21875 C 40.128906 27.972656 39.789063 28.507813 39.53125 28.84375 C 39.25 28.6875 38.957031 28.558594 38.625 28.5 C 38.503906 28.480469 37.285156 28.285156 35.4375 27.75 C 33.71875 27.25 31.535156 26.460938 29.5625 25.375 C 31.042969 23.351563 32 20.914063 32 18 C 32 15.601563 31.371094 13.40625 30.25 11.5 C 31.417969 11.171875 32.574219 11 33.53125 11 Z M 28.34375 12.1875 C 29.40625 13.867188 30 15.824219 30 18 C 30 23.03125 26.714844 26.355469 22.8125 28.625 C 18.910156 30.894531 14.460938 31.960938 12.75 32.3125 C 12.351563 32.394531 12.136719 32.425781 12.0625 32.4375 C 11.503906 32.53125 11.003906 32.179688 10.90625 31.625 C 10.8125 31.078125 11.148438 30.578125 11.6875 30.46875 C 11.6875 30.46875 11.71875 30.46875 11.71875 30.46875 C 11.875 30.441406 12.804688 30.296875 14.28125 29.90625 C 15.777344 29.507813 17.753906 28.882813 19.75 27.96875 C 21.746094 27.054688 23.746094 25.84375 25.3125 24.21875 C 26.878906 22.59375 28 20.503906 28 18 C 28 16.132813 27.476563 14.527344 26.5625 13.25 C 26.796875 13.078125 27.027344 12.90625 27.28125 12.75 C 27.621094 12.542969 27.976563 12.355469 28.34375 12.1875 Z M 25.09375 14.6875 C 25.664063 15.574219 26 16.628906 26 18 C 26 19.285156 25.628906 20.398438 25 21.40625 C 24.375 20.398438 24 19.28125 24 18 C 24 16.6875 24.414063 15.601563 25.09375 14.6875 Z M 45 24 C 44.449219 24 44 24.449219 44 25 C 44 25.550781 44.449219 26 45 26 C 45.550781 26 46 25.550781 46 25 C 46 24.449219 45.550781 24 45 24 Z M 28.21875 26.9375 C 30.492188 28.25 32.953125 29.097656 34.875 29.65625 C 36.824219 30.222656 38.316406 30.476563 38.28125 30.46875 C 38.835938 30.566406 39.191406 31.070313 39.09375 31.625 C 38.996094 32.179688 38.5 32.53125 37.9375 32.4375 C 37.507813 32.363281 31.621094 31.347656 26.71875 28.34375 C 27.246094 27.910156 27.742188 27.429688 28.21875 26.9375 Z M 5 27 C 4.449219 27 4 27.449219 4 28 C 4 28.550781 4.449219 29 5 29 C 5.550781 29 6 28.550781 6 28 C 6 27.449219 5.550781 27 5 27 Z M 24.96875 29.59375 C 28.042969 31.625 31.46875 32.851563 34 33.5625 C 30.972656 35.15625 27.679688 36 25 36 C 22.179688 36 18.703125 35.265625 15.59375 33.6875 C 17.832031 33.074219 20.898438 32.039063 23.8125 30.34375 C 24.207031 30.117188 24.582031 29.847656 24.96875 29.59375 Z M 16 37 C 15.449219 37 15 37.449219 15 38 C 15 38.550781 15.449219 39 16 39 C 16.550781 39 17 38.550781 17 38 C 17 37.449219 16.550781 37 16 37 Z M 35 38 C 34.449219 38 34 38.449219 34 39 C 34 39.550781 34.449219 40 35 40 C 35.550781 40 36 39.550781 36 39 C 36 38.449219 35.550781 38 35 38 Z M 30 40 C 29.449219 40 29 40.449219 29 41 C 29 41.550781 29.449219 42 30 42 C 30.550781 42 31 41.550781 31 41 C 31 40.449219 30.550781 40 30 40 Z"/></svg>