<svg fill="#000000" xmlns="http://www.w3.org/2000/svg"  viewBox="0 0 50 50" width="1000px" height="1000px"><path d="M 17 0 C 12.054688 0 8 4.054688 8 9 C 8 9.113281 8.027344 9.257813 8.03125 9.375 C 4.027344 10.257813 1 13.75 1 18 C 1 21.734375 3.304688 24.957031 6.5625 26.3125 L 6.53125 26.34375 C 6.53125 26.34375 18.09375 36.820313 18.09375 49 L 18.09375 50 L 31.4375 50 L 31.59375 49.15625 C 34.042969 34.078125 42.75 26.5625 42.75 26.5625 C 46.359375 25.390625 49 21.984375 49 18 C 49 13.492188 45.609375 9.785156 41.28125 9.15625 C 39.6875 5.042969 35.726563 2 31 2 C 28.5625 2 26.382813 2.914063 24.59375 4.25 C 22.976563 1.726563 20.207031 0 17 0 Z M 17 2 C 19.804688 2 22.269531 3.671875 23.40625 6.03125 L 24 7.25 L 25 6.34375 C 26.507813 4.921875 28.65625 4 31 4 C 35.054688 4 38.488281 6.71875 39.65625 10.3125 L 39.84375 10.9375 L 40.53125 11 C 44.105469 11.261719 47 14.324219 47 18 C 47 21.855469 43.855469 25 40 25 C 39.019531 25 38.175781 24.824219 37.28125 24.46875 L 36.625 24.21875 L 36.15625 24.71875 C 34.832031 26.128906 33.011719 27 31 27 C 29.421875 27 27.933594 26.453125 26.8125 25.59375 L 26 24.96875 L 25.40625 25.8125 C 24.003906 27.742188 21.578125 29 19 29 C 16.132813 29 13.667969 27.59375 12.25 25.375 L 11.9375 24.90625 L 11.40625 24.90625 C 10.839844 24.90625 10.367188 25 10 25 C 6.144531 25 3 21.855469 3 18 C 3 14.402344 5.695313 11.441406 9.1875 11.09375 L 10.34375 10.96875 L 10.0625 9.84375 C 9.992188 9.558594 10 9.398438 10 9 C 10 5.144531 13.144531 2 17 2 Z M 23 11 C 23 14.855469 19.855469 18 16 18 L 16 20 C 20.945313 20 25 15.945313 25 11 Z M 37 13 C 34.253906 13 32 15.253906 32 18 L 34 18 C 34 16.34375 35.34375 15 37 15 Z M 37.125 26.46875 C 37.925781 26.734375 38.734375 26.917969 39.59375 26.96875 C 36.855469 30.113281 31.785156 37.144531 29.8125 48 L 20 48 C 19.566406 38.566406 13.351563 30.632813 10 27 C 10.4375 27 10.691406 26.96875 10.96875 26.9375 C 12.398438 28.875 14.507813 30.269531 16.9375 30.78125 C 17.078125 31.023438 18.710938 33.882813 21.1875 39.21875 L 23.09375 43.34375 L 23.09375 38.8125 C 23.09375 36.78125 23.449219 31.117188 23.53125 29.875 C 24.53125 29.351563 25.421875 28.664063 26.1875 27.84375 L 27.625 37.65625 L 28.21875 41.84375 L 29.5625 37.8125 C 30.902344 33.738281 31.855469 31.355469 32.46875 30.03125 C 32.777344 29.367188 32.992188 28.972656 33.125 28.75 C 33.164063 28.679688 33.136719 28.714844 33.15625 28.6875 C 34.65625 28.285156 36.003906 27.515625 37.125 26.46875 Z M 28.3125 28.53125 C 29.089844 28.800781 29.917969 28.976563 30.78125 29 C 30.734375 29.097656 30.707031 29.109375 30.65625 29.21875 C 30.296875 29.988281 29.585938 32.0625 29.03125 33.53125 Z M 21.5 30.65625 C 21.441406 31.785156 21.386719 33.050781 21.28125 35 C 20.4375 33.347656 19.753906 32.015625 19.25 31 C 20.023438 30.980469 20.773438 30.847656 21.5 30.65625 Z"/></svg>