<svg xmlns="http://www.w3.org/2000/svg"  viewBox="0 0 50 50" width="1000px" height="1000px"><path d="M 46.4375 -0.03125 C 46.269531 -0.0390625 46.097656 -0.0234375 45.9375 0 C 45.265625 0.09375 44.6875 0.421875 44.28125 1.03125 L 44.25 1.09375 L 44.21875 1.125 L 35.65625 17.21875 C 34.691406 16.859375 33.734375 16.648438 32.84375 16.625 C 31.882813 16.601563 30.976563 16.75 30.15625 17.09375 C 28.574219 17.753906 27.378906 19.046875 26.59375 20.6875 C 26.558594 20.738281 26.527344 20.789063 26.5 20.84375 C 26.496094 20.851563 26.503906 20.867188 26.5 20.875 C 26.488281 20.894531 26.476563 20.917969 26.46875 20.9375 C 26.457031 20.976563 26.445313 21.019531 26.4375 21.0625 C 25.894531 22.417969 25.269531 23.636719 24.5625 24.71875 C 24.554688 24.730469 24.539063 24.738281 24.53125 24.75 C 24.441406 24.828125 24.367188 24.925781 24.3125 25.03125 C 24.308594 25.039063 24.316406 25.054688 24.3125 25.0625 C 24.277344 25.113281 24.246094 25.164063 24.21875 25.21875 C 21.832031 28.636719 18.722656 30.695313 15.78125 31.96875 C 11.773438 33.703125 7.9375 33.886719 7.09375 33.8125 C 6.691406 33.773438 6.304688 33.976563 6.113281 34.332031 C 5.925781 34.6875 5.964844 35.125 6.21875 35.4375 C 17.613281 49.5 34.375 50 34.375 50 C 34.574219 50.003906 34.769531 49.949219 34.9375 49.84375 C 34.9375 49.84375 37.007813 48.53125 39.5 45.40625 C 41.371094 43.058594 43.503906 39.664063 45.34375 34.96875 C 45.355469 34.957031 45.363281 34.949219 45.375 34.9375 C 45.605469 34.722656 45.722656 34.410156 45.6875 34.09375 C 45.6875 34.082031 45.6875 34.074219 45.6875 34.0625 C 46.171875 32.753906 46.640625 31.378906 47.0625 29.875 C 47.078125 29.8125 47.089844 29.75 47.09375 29.6875 C 47.09375 29.675781 47.09375 29.667969 47.09375 29.65625 C 48.425781 26.21875 46.941406 22.433594 43.75 20.78125 L 49.9375 3.625 L 49.9375 3.59375 L 49.96875 3.5625 C 50.171875 2.851563 49.9375 2.167969 49.5625 1.625 C 49.207031 1.113281 48.6875 0.710938 48.0625 0.4375 L 48.0625 0.40625 C 48.042969 0.398438 48.019531 0.414063 48 0.40625 C 47.988281 0.402344 47.980469 0.378906 47.96875 0.375 C 47.480469 0.144531 46.945313 -0.0117188 46.4375 -0.03125 Z M 46.3125 2.0625 C 46.539063 2.027344 46.835938 2.027344 47.15625 2.1875 L 47.1875 2.21875 L 47.21875 2.21875 C 47.542969 2.347656 47.8125 2.566406 47.9375 2.75 C 48.0625 2.933594 48.027344 3.042969 48.03125 3.03125 L 41.9375 19.9375 C 41.203125 19.605469 40.695313 19.371094 39.65625 18.90625 C 38.882813 18.558594 38.148438 18.222656 37.5 17.9375 L 45.9375 2.15625 C 45.929688 2.164063 46.085938 2.097656 46.3125 2.0625 Z M 4 8 C 1.800781 8 0 9.800781 0 12 C 0 14.199219 1.800781 16 4 16 C 6.199219 16 8 14.199219 8 12 C 8 9.800781 6.199219 8 4 8 Z M 4 10 C 5.117188 10 6 10.882813 6 12 C 6 13.117188 5.117188 14 4 14 C 2.882813 14 2 13.117188 2 12 C 2 10.882813 2.882813 10 4 10 Z M 13 11 C 11.894531 11 11 11.894531 11 13 C 11 14.105469 11.894531 15 13 15 C 14.105469 15 15 14.105469 15 13 C 15 11.894531 14.105469 11 13 11 Z M 11.5 18 C 8.472656 18 6 20.472656 6 23.5 C 6 26.527344 8.472656 29 11.5 29 C 14.527344 29 17 26.527344 17 23.5 C 17 20.472656 14.527344 18 11.5 18 Z M 32.8125 18.625 C 33.507813 18.644531 34.269531 18.785156 35.125 19.125 C 35.144531 19.136719 35.167969 19.148438 35.1875 19.15625 C 35.414063 19.511719 35.839844 19.6875 36.25 19.59375 C 36.363281 19.640625 36.351563 19.636719 36.46875 19.6875 C 37.144531 19.980469 37.996094 20.339844 38.84375 20.71875 C 40.085938 21.273438 40.871094 21.613281 41.59375 21.9375 C 41.613281 21.960938 41.632813 21.980469 41.65625 22 C 41.871094 22.296875 42.230469 22.453125 42.59375 22.40625 C 42.605469 22.40625 42.613281 22.40625 42.625 22.40625 C 45.015625 23.5 46.070313 26.105469 45.25 28.625 C 44.855469 28.613281 44.554688 28.632813 43.8125 28.46875 C 43.257813 28.347656 42.71875 28.152344 42.3125 27.90625 C 41.90625 27.660156 41.671875 27.417969 41.5625 27.09375 C 41.476563 26.8125 41.269531 26.585938 40.996094 26.472656 C 40.726563 26.355469 40.417969 26.367188 40.15625 26.5 C 39.820313 26.667969 38.972656 26.605469 38.21875 26.21875 C 37.84375 26.027344 37.507813 25.757813 37.28125 25.53125 C 37.054688 25.304688 36.992188 25.089844 37 25.125 C 36.945313 24.832031 36.765625 24.578125 36.503906 24.433594 C 36.246094 24.289063 35.933594 24.269531 35.65625 24.375 C 35.628906 24.386719 35.296875 24.417969 34.90625 24.34375 C 34.515625 24.269531 34.0625 24.109375 33.625 23.90625 C 33.1875 23.703125 32.785156 23.457031 32.53125 23.25 C 32.277344 23.042969 32.253906 22.828125 32.28125 23.09375 C 32.214844 22.566406 31.75 22.179688 31.21875 22.21875 C 30.214844 22.3125 29.273438 21.574219 28.71875 21.09375 C 29.304688 20.105469 30.03125 19.316406 30.9375 18.9375 C 31.492188 18.707031 32.117188 18.605469 32.8125 18.625 Z M 11.5 20 C 13.445313 20 15 21.554688 15 23.5 C 15 25.445313 13.445313 27 11.5 27 C 9.554688 27 8 25.445313 8 23.5 C 8 21.554688 9.554688 20 11.5 20 Z M 27.8125 22.96875 C 28.507813 23.46875 29.472656 23.988281 30.625 24.09375 C 30.808594 24.363281 31.007813 24.582031 31.25 24.78125 C 31.683594 25.140625 32.21875 25.457031 32.78125 25.71875 C 33.34375 25.980469 33.933594 26.199219 34.53125 26.3125 C 34.839844 26.371094 35.15625 26.253906 35.46875 26.25 C 35.617188 26.476563 35.683594 26.777344 35.875 26.96875 C 36.28125 27.375 36.765625 27.71875 37.3125 28 C 38.125 28.417969 39.101563 28.5625 40.0625 28.4375 C 40.390625 28.929688 40.785156 29.34375 41.25 29.625 C 41.933594 30.035156 42.679688 30.285156 43.375 30.4375 C 43.863281 30.542969 44.308594 30.589844 44.71875 30.625 C 44.441406 31.523438 44.140625 32.367188 43.84375 33.1875 C 43.484375 33.175781 43.042969 33.15625 42.5625 33.0625 C 41.46875 32.851563 40.433594 32.367188 40 31.53125 C 39.765625 31.09375 39.246094 30.894531 38.78125 31.0625 C 38.285156 31.238281 37.386719 31.164063 36.625 30.8125 C 35.863281 30.460938 35.285156 29.851563 35.15625 29.40625 C 35.074219 29.136719 34.878906 28.914063 34.621094 28.796875 C 34.367188 28.675781 34.074219 28.671875 33.8125 28.78125 C 33.570313 28.882813 32.625 28.855469 31.84375 28.5 C 31.0625 28.144531 30.558594 27.546875 30.5 27.21875 C 30.449219 26.941406 30.285156 26.703125 30.046875 26.554688 C 29.808594 26.40625 29.519531 26.363281 29.25 26.4375 C 28.304688 26.691406 27.566406 26.355469 26.96875 25.90625 C 26.761719 25.753906 26.609375 25.585938 26.46875 25.4375 C 26.953125 24.667969 27.402344 23.851563 27.8125 22.96875 Z M 25.3125 27.09375 C 25.460938 27.230469 25.601563 27.363281 25.78125 27.5 C 26.519531 28.054688 27.65625 28.449219 28.9375 28.375 C 29.402344 29.246094 30.15625 29.914063 31.03125 30.3125 C 31.894531 30.707031 32.816406 30.832031 33.71875 30.71875 C 34.21875 31.535156 34.914063 32.226563 35.78125 32.625 C 36.707031 33.050781 37.746094 33.160156 38.75 33 C 39.683594 34.167969 41.011719 34.804688 42.1875 35.03125 C 42.5 35.089844 42.808594 35.128906 43.09375 35.15625 C 41.429688 39.175781 39.566406 42.117188 37.9375 44.15625 C 35.851563 46.769531 34.441406 47.757813 34.125 47.96875 C 33.769531 47.953125 31.164063 47.769531 27.5 46.75 C 27.800781 46.554688 28.125 46.351563 28.46875 46.09375 C 30.136719 44.84375 32.320313 42.804688 34.4375 39.65625 C 34.660156 39.332031 34.675781 38.910156 34.472656 38.574219 C 34.269531 38.234375 33.890625 38.046875 33.5 38.09375 C 33.207031 38.125 32.945313 38.285156 32.78125 38.53125 C 30.796875 41.484375 28.753906 43.375 27.25 44.5 C 25.820313 45.570313 24.992188 45.902344 24.90625 45.9375 C 22.65625 45.144531 20.164063 44.058594 17.625 42.53125 C 17.992188 42.410156 18.382813 42.25 18.8125 42.0625 C 20.710938 41.234375 23.25 39.6875 25.84375 36.78125 C 26.15625 36.46875 26.226563 35.988281 26.019531 35.601563 C 25.808594 35.210938 25.371094 35.003906 24.9375 35.09375 C 24.707031 35.132813 24.496094 35.257813 24.34375 35.4375 C 21.9375 38.128906 19.683594 39.496094 18.03125 40.21875 C 16.378906 40.941406 15.4375 41 15.4375 41 C 15.394531 41.007813 15.351563 41.019531 15.3125 41.03125 C 13.238281 39.570313 11.167969 37.792969 9.21875 35.65625 C 11.121094 35.507813 13.570313 35.121094 16.59375 33.8125 C 19.578125 32.519531 22.761719 30.410156 25.3125 27.09375 Z"/></svg>