<?xml version="1.0"?><svg xmlns="http://www.w3.org/2000/svg"  viewBox="0 0 50 50" width="1000px" height="1000px">    <path d="M 23.992188 2 A 1.0001 1.0001 0 0 0 23.724609 2.0390625 L 16.724609 4.0390625 A 1.0001 1.0001 0 0 0 16.039062 5.2753906 L 16.449219 6.7089844 L 11.728516 8.0371094 A 1.0001 1.0001 0 0 0 11.039062 9.2753906 L 12.994141 16.121094 A 1.0001 1.0001 0 0 0 13 16.158203 L 13 45 A 1.0001 1.0001 0 0 0 13.021484 45.216797 C 13.135989 46.760669 14.429122 48 16 48 L 34 48 C 35.64497 48 37 46.64497 37 45 L 37 16.162109 A 1.0001 1.0001 0 0 0 37.005859 16.119141 L 38.960938 9.2753906 A 1.0001 1.0001 0 0 0 38.271484 8.0371094 L 34.476562 6.9707031 L 34.960938 5.2753906 A 1.0001 1.0001 0 0 0 34.275391 4.0390625 L 27.275391 2.0390625 A 1.0001 1.0001 0 0 0 26.978516 2 A 1.0001 1.0001 0 0 0 26.039062 2.7246094 L 25.5 4.6132812 L 24.960938 2.7246094 A 1.0001 1.0001 0 0 0 23.992188 2 z M 23.3125 4.2363281 L 24.492188 8.3691406 A 1.0001 1.0001 0 0 0 24.601562 8.7539062 A 1.0001 1.0001 0 0 0 24.603516 8.7578125 L 24.755859 9.2929688 C 24.225613 9.1069484 23.677349 9.0028537 23.130859 9 A 1.0001 1.0001 0 0 0 23.128906 9 C 21.833057 8.9938061 20.556459 9.5005565 19.599609 10.443359 L 18.693359 7.28125 A 1.0001 1.0001 0 0 0 18.603516 6.9648438 L 18.236328 5.6855469 L 23.3125 4.2363281 z M 27.6875 4.2363281 L 32.763672 5.6875 L 32.330078 7.2070312 A 1.0001 1.0001 0 0 0 32.232422 7.5546875 L 30.652344 13.074219 L 27.259766 10.775391 L 26.539062 8.2558594 L 27.6875 4.2363281 z M 17 8.6328125 L 18.083984 12.423828 L 16.101562 15.199219 C 15.620508 15.126089 15.176751 15.075554 14.767578 15.048828 L 13.236328 9.6914062 L 17 8.6328125 z M 33.927734 8.8925781 L 36.763672 9.6914062 L 35.236328 15.037109 C 34.80473 15.066466 34.318154 15.130094 33.808594 15.210938 L 32.396484 14.253906 L 33.927734 8.8925781 z M 23.119141 11 C 23.69458 11.003 24.271087 11.167628 24.785156 11.515625 L 25.802734 12.205078 A 1.0002908 1.0002908 0 0 0 25.869141 12.25 L 31.136719 15.816406 C 29.249773 16.360648 27.137794 17.216218 24.998047 18.460938 C 22.633935 17.080198 20.283493 16.165193 18.246094 15.636719 L 20.662109 12.255859 C 21.253918 11.428489 22.176913 10.996093 23.119141 11 z M 15 17.064453 C 15.364244 17.105141 15.780149 17.172198 16.220703 17.255859 A 1.0001 1.0001 0 0 0 16.224609 17.257812 A 1.0001 1.0001 0 0 0 16.433594 17.300781 C 19.087849 17.834261 22.874881 19.147699 26.277344 21.677734 C 30.951672 25.153517 35 30.798246 35 40 L 35 45 C 35 45.56503 34.56503 46 34 46 L 16 46 C 15.43497 46 15 45.56503 15 45 L 15 17.064453 z M 35 17.070312 L 35 29.609375 C 33.225457 25.421189 30.46138 22.29465 27.472656 20.072266 C 27.284149 19.932094 27.091983 19.818921 26.902344 19.685547 C 30.022882 18.048124 33.09225 17.277453 35 17.070312 z M 20 25 A 2 2 0 0 0 18 27 A 2 2 0 0 0 20 29 A 2 2 0 0 0 22 27 A 2 2 0 0 0 20 25 z M 23 32 A 1 1 0 0 0 22 33 A 1 1 0 0 0 23 34 A 1 1 0 0 0 24 33 A 1 1 0 0 0 23 32 z M 19 36 A 1 1 0 0 0 18 37 A 1 1 0 0 0 19 38 A 1 1 0 0 0 20 37 A 1 1 0 0 0 19 36 z"/></svg>