<svg xmlns="http://www.w3.org/2000/svg"  viewBox="0 0 50 50" width="1000px" height="1000px"><path d="M 15 6 C 10.408667 6 7 10.098764 7 15 C 7 18.276746 8.5631833 21.168909 10.941406 23 L 4 23 A 1.0001 1.0001 0 0 0 3 24 L 3 43 A 1.0001 1.0001 0 0 0 4 44 L 11 44 L 46 44 A 1.0001 1.0001 0 0 0 46.099609 43.994141 A 1.0001 1.0001 0 0 0 47 43 L 47 24 A 1.0001 1.0001 0 0 0 46.994141 23.900391 A 1.0001 1.0001 0 0 0 46 23 L 34.0625 23 C 30.255976 22.595013 27.199035 19.346296 27.054688 15.279297 L 41.019531 15 A 1.0001 1.0001 0 0 0 41.980469 13.804688 C 40.949871 8.6494983 36.578787 5.9224231 32.978516 6 C 32.756486 6.0047865 32.535947 6.0226739 32.316406 6.0488281 A 1.0001 1.0001 0 0 0 32 6 L 15 6 z M 15 8 L 15.675781 8 C 15.451441 8.2209058 15.234819 8.4517976 15.037109 8.7011719 C 13.740716 10.33633 13 12.541804 13 14.960938 C 13 18.250262 14.467637 21.176177 16.714844 23 L 16.076172 23 C 12.165891 22.59355 9 19.210418 9 15 C 9 10.997236 11.591333 8 15 8 z M 20.486328 8 L 21.675781 8 C 21.451441 8.2209058 21.234819 8.4517976 21.037109 8.7011719 C 19.740716 10.336331 19 12.541804 19 14.960938 C 19 18.250262 20.467637 21.176177 22.714844 23 L 22.316406 23 A 1.0001 1.0001 0 0 0 22.009766 22.951172 C 18.25485 22.914984 15 19.444603 15 14.960938 C 15 12.953069 15.623909 11.17895 16.603516 9.9433594 C 17.583122 8.7077685 18.874946 8.0058594 20.373047 8.0058594 A 1.0001 1.0001 0 0 0 20.486328 8 z M 26.486328 8 L 28.154297 8 C 26.630428 9.3782958 25.52257 11.389585 25.222656 13.806641 A 1.0001 1.0001 0 0 0 25.103516 14.445312 C 25.092238 14.642558 25 14.79783 25 15 C 25 18.27731 26.564444 21.168962 28.943359 23 L 28.316406 23 A 1.0001 1.0001 0 0 0 28.009766 22.951172 C 24.25485 22.914984 21 19.444603 21 14.960938 C 21 12.953069 21.623909 11.17895 22.603516 9.9433594 C 23.583122 8.7077685 24.874946 8.0058594 26.373047 8.0058594 A 1.0001 1.0001 0 0 0 26.486328 8 z M 33.021484 8 C 35.279397 7.951348 38.312835 9.6768735 39.554688 13.029297 L 27.318359 13.273438 C 28.048416 10.054897 30.560105 8.0530622 33.021484 8 z M 5 25 L 10 25 L 10 42 L 5 42 L 5 25 z M 12 25 L 16.074219 25 C 16.307299 25.019222 16.540407 25.04084 16.777344 25.042969 A 1.0001 1.0001 0 0 0 17.085938 25 L 34.074219 25 C 34.307299 25.019222 34.540407 25.04084 34.777344 25.042969 A 1.0001 1.0001 0 0 0 35.085938 25 L 45 25 L 45 42 L 12 42 L 12 25 z"/></svg>