<svg fill="#000000" xmlns="http://www.w3.org/2000/svg"  viewBox="0 0 50 50" width="1000px" height="1000px"><path d="M 30.183594 1.117188 C 29.527344 1.140625 28.84375 1.257813 28.15625 1.453125 C 27.03125 1.773438 25.949219 2.40625 25.019531 3.261719 C 24.03125 2.671875 22.894531 2.367188 21.734375 2.445313 C 20.257813 2.542969 18.785156 3.054688 17.722656 4.039063 C 17.714844 4.046875 17.707031 4.058594 17.699219 4.066406 C 17.316406 4.015625 16.660156 3.957031 15.648438 4.09375 C 14.234375 4.289063 12.4375 4.875 10.898438 6.464844 C 9.101563 8.324219 8.761719 10.46875 8.867188 12.214844 C 7.972656 12.386719 6.9375 12.703125 5.789063 13.390625 C 4.246094 14.308594 2.679688 15.804688 1.984375 18.039063 C 1.269531 20.320313 1.597656 22.542969 2.375 24.316406 C 2.976563 25.703125 3.859375 26.722656 4.808594 27.480469 C 4.285156 28.378906 3.964844 29.402344 3.929688 30.472656 C 3.882813 31.921875 4.171875 33.386719 4.949219 34.5 C 5.859375 35.804688 7.042969 36.550781 8.242188 36.960938 C 7.847656 38.800781 7.964844 41.105469 9.449219 43.144531 C 10.269531 44.273438 11.566406 44.875 12.886719 45.15625 C 13.949219 45.378906 15.011719 45.261719 16.023438 45.089844 C 17.199219 46.777344 19.453125 48.070313 21.980469 47.808594 C 23.96875 47.597656 25.347656 46.683594 26.082031 46.054688 C 26.472656 46.28125 26.886719 46.484375 27.34375 46.621094 C 29.15625 47.164063 31.46875 46.867188 33.21875 45.734375 C 33.957031 46.023438 34.789063 46.28125 35.832031 46.316406 C 37.085938 46.359375 38.488281 46.160156 39.710938 45.417969 C 40.917969 44.683594 41.726563 43.449219 42.183594 42.136719 C 42.542969 41.097656 42.597656 40.015625 42.417969 38.984375 C 43.929688 38.140625 45.3125 36.9375 45.832031 34.96875 C 46.3125 33.152344 45.894531 31.042969 44.664063 29.566406 C 44.933594 29.277344 45.191406 28.96875 45.410156 28.613281 C 46.089844 27.507813 46.371094 25.957031 46.296875 24.363281 C 46.234375 23.117188 45.78125 21.898438 44.953125 20.953125 C 46.8125 18.121094 46.945313 14.507813 45.164063 12.042969 C 43.585938 9.855469 41.078125 9.007813 38.660156 9.179688 C 38.722656 7.972656 38.597656 6.671875 37.890625 5.390625 C 36.925781 3.632813 35.042969 2.089844 32.023438 1.296875 C 31.460938 1.148438 30.835938 1.089844 30.183594 1.117188 Z M 30.269531 3.125 C 30.761719 3.105469 31.195313 3.148438 31.515625 3.230469 C 34.128906 3.917969 35.453125 5.109375 36.140625 6.355469 C 36.832031 7.601563 36.875 8.992188 36.632813 10.0625 C 36.558594 10.398438 36.660156 10.75 36.90625 10.992188 C 37.152344 11.238281 37.503906 11.335938 37.839844 11.253906 C 39.925781 10.761719 42.195313 11.34375 43.542969 13.214844 C 44.832031 14.996094 44.769531 18.171875 42.996094 20.390625 C 42.816406 20.617188 42.742188 20.90625 42.792969 21.1875 C 42.84375 21.472656 43.011719 21.71875 43.253906 21.871094 C 43.8125 22.210938 44.238281 23.226563 44.296875 24.460938 C 44.355469 25.695313 44.015625 27.0625 43.707031 27.566406 C 43.175781 28.429688 42.339844 29.023438 41.410156 29.363281 C 41.785156 27.96875 42 26.511719 42 25 C 42 19.570313 39.433594 14.742188 35.464844 11.628906 C 35.351563 11.484375 35.203125 11.371094 35.03125 11.308594 C 32.21875 9.238281 28.753906 8 25 8 C 22.324219 8 19.800781 8.640625 17.546875 9.742188 C 17.160156 7.925781 17.8125 6.679688 19.082031 5.507813 C 19.695313 4.945313 20.792969 4.511719 21.867188 4.4375 C 22.941406 4.367188 23.929688 4.65625 24.449219 5.160156 C 24.648438 5.355469 24.921875 5.457031 25.199219 5.441406 C 25.480469 5.429688 25.738281 5.296875 25.917969 5.082031 C 26.597656 4.261719 27.632813 3.679688 28.703125 3.375 C 29.238281 3.222656 29.78125 3.144531 30.269531 3.125 Z M 16.207031 6.027344 C 15.507813 7.378906 15.277344 8.984375 15.765625 10.746094 C 11.097656 13.78125 8 19.027344 8 25 C 8 28.914063 9.34375 32.515625 11.574219 35.390625 C 10.082031 35.445313 7.855469 35.171875 6.589844 33.359375 C 6.1875 32.78125 5.890625 31.640625 5.929688 30.539063 C 5.964844 29.4375 6.332031 28.417969 6.78125 27.96875 C 7.003906 27.746094 7.109375 27.429688 7.0625 27.117188 C 7.019531 26.804688 6.828125 26.53125 6.546875 26.378906 C 5.847656 26.003906 4.820313 24.925781 4.203125 23.515625 C 3.589844 22.109375 3.339844 20.402344 3.890625 18.636719 C 4.410156 16.972656 5.574219 15.847656 6.8125 15.109375 C 8.050781 14.367188 9.417969 14.058594 9.863281 14.039063 C 10.15625 14.027344 10.425781 13.886719 10.605469 13.65625 C 10.789063 13.425781 10.859375 13.128906 10.800781 12.84375 C 10.554688 11.613281 10.726563 9.519531 12.335938 7.855469 C 13.636719 6.511719 15.125 6.117188 16.207031 6.027344 Z M 25 10 C 28.355469 10 31.4375 11.109375 33.933594 12.964844 C 35.902344 16.238281 33.640625 20.359375 33.640625 20.359375 C 33.453125 20.671875 33.453125 21.058594 33.632813 21.371094 C 33.8125 21.6875 34.148438 21.878906 34.511719 21.875 C 34.871094 21.871094 35.203125 21.671875 35.375 21.355469 C 35.375 21.355469 36.882813 18.777344 36.761719 15.695313 C 38.785156 18.25 40 21.480469 40 25 C 40 26.789063 39.671875 28.492188 39.097656 30.082031 C 37.558594 29.765625 36.222656 28.71875 35.699219 26.792969 C 35.625 26.53125 35.453125 26.308594 35.214844 26.179688 C 34.976563 26.046875 34.699219 26.019531 34.4375 26.097656 C 34.261719 26.152344 33.765625 26.207031 33.320313 26.15625 C 32.875 26.109375 32.464844 25.945313 32.359375 25.863281 C 32.246094 25.769531 32.015625 25.433594 31.898438 25.035156 C 31.78125 24.636719 31.773438 24.191406 31.820313 24.003906 C 31.902344 23.6875 31.820313 23.347656 31.605469 23.101563 C 31.386719 22.855469 31.066406 22.730469 30.738281 22.765625 C 29.21875 22.9375 27.917969 22.59375 27.125 21.519531 C 26.347656 20.464844 26.28125 18.730469 26.859375 17.414063 C 26.996094 17.097656 26.960938 16.734375 26.765625 16.449219 C 26.570313 16.164063 26.242188 16 25.898438 16.015625 C 24.382813 16.078125 23.054688 15.335938 22.359375 14.21875 C 21.699219 13.167969 21.550781 11.804688 22.417969 10.234375 C 23.257813 10.089844 24.117188 10 25 10 Z M 20.042969 10.855469 C 19.632813 12.46875 19.890625 14.042969 20.660156 15.28125 C 21.546875 16.691406 23.101563 17.488281 24.816406 17.757813 C 24.46875 19.179688 24.449219 20.703125 25.105469 22.019531 C 25.078125 22.144531 25.078125 22.277344 25.101563 22.402344 C 25.324219 23.683594 24.742188 24.679688 23.859375 25.234375 C 22.972656 25.789063 21.875 25.863281 20.875 25.089844 C 20.542969 24.828125 20.085938 24.808594 19.730469 25.03125 C 19.371094 25.257813 19.195313 25.683594 19.285156 26.09375 C 19.339844 26.324219 19.273438 26.882813 19.050781 27.363281 C 18.828125 27.847656 18.457031 28.226563 18.253906 28.324219 C 16.976563 28.917969 16.257813 28.460938 15.382813 27.996094 C 15.125 27.855469 14.820313 27.839844 14.550781 27.945313 C 14.277344 28.050781 14.066406 28.269531 13.96875 28.546875 C 13.691406 29.335938 13.042969 30.007813 12.753906 30.09375 C 12.621094 30.128906 11.96875 30.085938 11.4375 29.9375 C 11.171875 29.863281 10.9375 29.78125 10.765625 29.71875 C 10.273438 28.234375 10 26.648438 10 25 C 10 18.445313 14.191406 12.898438 20.042969 10.855469 Z M 27.007813 23.984375 C 27.894531 24.453125 28.914063 24.636719 29.9375 24.65625 C 29.964844 24.972656 29.890625 25.296875 29.984375 25.605469 C 30.183594 26.28125 30.507813 26.9375 31.105469 27.421875 C 31.714844 27.914063 32.425781 28.074219 33.109375 28.144531 C 33.464844 28.183594 33.777344 28.097656 34.109375 28.074219 C 34.222656 28.351563 34.359375 28.613281 34.5 28.863281 C 34.144531 28.929688 33.78125 29.023438 33.421875 29.171875 C 32.585938 29.507813 31.835938 30.1875 31.230469 31.046875 C 30.1875 30.53125 29.0625 30.320313 28.023438 30.574219 C 27.230469 30.769531 26.523438 31.160156 25.890625 31.644531 C 25.578125 30.964844 25.140625 30.234375 24.421875 29.585938 C 23.769531 28.992188 22.898438 28.53125 21.8125 28.3125 C 21.515625 28.25 21.199219 28.210938 20.871094 28.191406 C 21.011719 27.867188 20.941406 27.503906 21.019531 27.160156 C 22.371094 27.625 23.789063 27.636719 24.917969 26.933594 C 25.9375 26.292969 26.714844 25.238281 27.007813 23.984375 Z M 15.367188 30.109375 C 16.113281 30.417969 17.023438 30.683594 18.101563 30.464844 C 18.199219 30.46875 18.292969 30.457031 18.390625 30.4375 C 20.988281 29.785156 22.253906 30.316406 23.082031 31.066406 C 23.910156 31.820313 24.296875 32.9375 24.546875 33.714844 C 24.664063 34.074219 24.976563 34.339844 25.351563 34.394531 C 25.726563 34.449219 26.101563 34.289063 26.316406 33.980469 C 26.777344 33.320313 27.625 32.730469 28.496094 32.515625 C 29.367188 32.304688 30.1875 32.417969 30.894531 33.039063 C 31.136719 33.25 31.46875 33.335938 31.78125 33.261719 C 32.09375 33.191406 32.355469 32.972656 32.480469 32.675781 C 32.835938 31.824219 33.476563 31.308594 34.175781 31.023438 C 34.875 30.738281 35.628906 30.765625 35.90625 30.871094 C 36.039063 30.921875 36.179688 30.945313 36.320313 30.9375 C 36.925781 31.386719 37.601563 31.707031 38.308594 31.917969 C 35.808594 36.71875 30.796875 40 25 40 C 19.261719 40 14.289063 36.789063 11.765625 32.0625 C 12.238281 32.144531 12.753906 32.171875 13.304688 32.015625 C 14.304688 31.726563 14.90625 30.957031 15.367188 30.109375 Z M 43.074219 30.808594 C 43.804688 31.746094 44.191406 33.355469 43.898438 34.457031 C 43.476563 36.050781 42.421875 36.921875 40.9375 37.609375 C 40.464844 37.828125 40.238281 38.378906 40.421875 38.867188 C 40.652344 39.472656 40.625 40.511719 40.292969 41.480469 C 39.957031 42.445313 39.328125 43.308594 38.671875 43.707031 C 37.914063 44.167969 36.878906 44.347656 35.898438 44.316406 C 34.917969 44.285156 33.980469 44.023438 33.589844 43.828125 C 33.238281 43.652344 32.8125 43.703125 32.507813 43.953125 C 31.546875 44.746094 29.136719 45.070313 27.917969 44.703125 C 26.648438 44.324219 25.671875 43.292969 25.066406 41.996094 C 32.070313 41.96875 38.085938 37.691406 40.660156 31.609375 C 41.480469 31.484375 42.3125 31.226563 43.074219 30.808594 Z M 13.214844 37.222656 C 15.789063 39.707031 19.140625 41.382813 22.867188 41.851563 C 23.21875 42.914063 23.765625 43.925781 24.515625 44.765625 C 23.980469 45.179688 23.113281 45.679688 21.769531 45.816406 C 19.953125 46.007813 17.933594 44.644531 17.40625 43.640625 C 17.1875 43.226563 16.710938 43.019531 16.257813 43.144531 C 15.429688 43.371094 14.296875 43.40625 13.300781 43.199219 C 12.304688 42.988281 11.476563 42.535156 11.066406 41.96875 C 9.972656 40.46875 9.890625 38.761719 10.199219 37.367188 C 11.703125 37.511719 12.769531 37.316406 13.214844 37.222656 Z"/></svg>