<svg xmlns="http://www.w3.org/2000/svg"  viewBox="0 0 50 50" width="1000px" height="1000px"><path d="M 18.59375 0 C 18.230469 0.0664063 17.929688 0.328125 17.820313 0.683594 C 17.707031 1.039063 17.800781 1.425781 18.0625 1.6875 C 20.992188 4.824219 20.472656 10.988281 16.25 14.1875 C 16.042969 14.34375 15.9375 14.351563 15.875 14.375 C 15.851563 14.320313 15.707031 14.148438 15.5 13.75 C 15.253906 13.273438 14.964844 12.632813 14.28125 12.15625 C 13.597656 11.679688 12.5625 11.613281 11.53125 12.03125 C 11.175781 12.1875 10.945313 12.539063 10.9375 12.925781 C 10.929688 13.316406 11.152344 13.671875 11.5 13.84375 C 11.640625 13.90625 11.75 14.03125 11.875 14.3125 C 12 14.59375 12.109375 15.011719 12.125 15.5 C 12.152344 16.476563 11.882813 17.707031 11.5 18.46875 C 11.289063 18.886719 10.519531 19.410156 9.65625 20.40625 C 8.792969 21.402344 8 22.941406 8 25.3125 C 8 29.460938 10.398438 33.128906 13.65625 35.75 C 16.914063 38.371094 21.070313 40 24.96875 40 C 29.480469 40 33.183594 38.859375 35.8125 36.96875 C 38.441406 35.078125 40 32.375 40 29.5 C 40 26.648438 38.691406 24.738281 37.53125 23.3125 C 36.949219 22.597656 36.382813 21.988281 36.03125 21.4375 C 35.679688 20.886719 35.519531 20.429688 35.53125 19.90625 C 35.550781 19.226563 35.789063 18.601563 36.09375 17.875 C 36.398438 17.148438 36.773438 16.335938 36.875 15.34375 C 36.976563 14.351563 36.722656 13.195313 35.9375 12.0625 C 35.152344 10.929688 33.894531 9.765625 31.875 8.375 C 31.546875 8.144531 31.113281 8.132813 30.773438 8.34375 C 30.433594 8.554688 30.253906 8.949219 30.3125 9.34375 C 30.535156 10.734375 30.429688 11.894531 30.15625 12.5 C 29.882813 13.105469 29.707031 13.292969 28.90625 13.1875 C 28.535156 13.136719 28.347656 13.042969 28.28125 13 C 28.214844 12.957031 28.234375 12.988281 28.21875 12.9375 C 28.1875 12.835938 28.226563 12.277344 28.40625 11.53125 C 28.765625 10.035156 29.46875 7.710938 28.3125 5.25 C 27.253906 2.996094 25.425781 1.640625 23.625 0.90625 C 21.824219 0.171875 20.019531 0 18.78125 0 C 18.75 0 18.71875 0 18.6875 0 C 18.65625 0 18.625 0 18.59375 0 Z M 20.90625 2.40625 C 21.589844 2.523438 22.171875 2.464844 22.875 2.75 C 24.335938 3.347656 25.679688 4.351563 26.5 6.09375 C 27.316406 7.835938 26.847656 9.480469 26.46875 11.0625 C 26.277344 11.855469 26.042969 12.617188 26.3125 13.5 C 26.449219 13.941406 26.769531 14.378906 27.1875 14.65625 C 27.605469 14.933594 28.09375 15.082031 28.65625 15.15625 C 30.128906 15.351563 31.429688 14.542969 31.96875 13.34375 C 32.214844 12.800781 32.351563 12.175781 32.40625 11.53125 C 33.046875 12.101563 34.007813 12.78125 34.3125 13.21875 C 34.882813 14.042969 34.964844 14.5625 34.90625 15.125 C 34.847656 15.6875 34.570313 16.328125 34.25 17.09375 C 33.929688 17.859375 33.558594 18.746094 33.53125 19.84375 C 33.503906 20.863281 33.898438 21.753906 34.375 22.5 C 34.851563 23.246094 35.425781 23.894531 35.96875 24.5625 C 37.058594 25.902344 38 27.242188 38 29.5 C 38 31.667969 36.871094 33.75 34.65625 35.34375 C 33.46875 36.199219 31.90625 36.84375 30.125 37.3125 C 31.726563 35.738281 32.488281 33.15625 31.4375 29.8125 C 31.289063 29.347656 30.828125 29.054688 30.34375 29.125 C 30.429688 28.664063 30.59375 28.207031 30.4375 27.65625 C 30.242188 26.957031 29.6875 26.25 29 25.5 C 28.878906 25.371094 28.886719 25.257813 28.75 25.125 C 28.421875 24.792969 27.90625 24.730469 27.507813 24.980469 C 27.113281 25.226563 26.941406 25.714844 27.09375 26.15625 C 27.394531 27.023438 27.332031 27.839844 27.0625 28.375 C 26.792969 28.910156 26.425781 29.1875 25.78125 29.1875 C 25.363281 29.1875 24.828125 28.890625 24.5 28.4375 C 24.171875 27.984375 24.15625 27.523438 24.21875 27.40625 C 25.691406 24.714844 26.289063 23.007813 26.0625 21.4375 C 25.835938 19.867188 24.835938 18.84375 23.75 17.5625 C 23.457031 17.207031 22.957031 17.097656 22.542969 17.296875 C 22.128906 17.496094 21.90625 17.957031 22 18.40625 C 22.28125 19.671875 22.136719 20.523438 21.75 21.3125 C 21.363281 22.101563 20.691406 22.824219 19.90625 23.625 C 18.339844 25.230469 16.28125 27.207031 16.28125 30.59375 C 16.28125 32.722656 17.09375 34.574219 18.25 36.09375 C 17.09375 35.519531 15.90625 34.992188 14.90625 34.1875 C 11.988281 31.839844 10 28.6875 10 25.3125 C 10 23.339844 10.523438 22.449219 11.15625 21.71875 C 11.789063 20.988281 12.710938 20.480469 13.28125 19.34375 C 13.855469 18.210938 14.164063 16.820313 14.125 15.46875 C 14.121094 15.351563 14.070313 15.242188 14.0625 15.125 C 14.25 15.492188 14.367188 15.875 14.875 16.1875 C 15.234375 16.40625 15.769531 16.5 16.21875 16.40625 C 16.667969 16.3125 17.03125 16.089844 17.4375 15.78125 C 21.792969 12.480469 23 6.636719 20.90625 2.40625 Z M 23.84375 21.1875 C 23.914063 21.359375 24.035156 21.542969 24.0625 21.71875 C 24.183594 22.558594 23.871094 23.90625 22.46875 26.46875 C 21.886719 27.546875 22.238281 28.71875 22.875 29.59375 C 23.511719 30.46875 24.535156 31.1875 25.78125 31.1875 C 26.511719 31.1875 27.171875 30.949219 27.71875 30.5625 C 27.695313 30.636719 27.644531 30.660156 27.625 30.75 C 27.5625 31.070313 27.632813 31.578125 27.875 31.90625 C 28.195313 32.339844 28.808594 32.539063 29.25 32.5 C 29.445313 32.484375 29.558594 32.375 29.71875 32.3125 C 29.816406 33.910156 29.488281 35.132813 28.6875 35.90625 C 27.578125 36.980469 25.765625 37.5 24.3125 37.5 C 21.667969 37.5 18.28125 34.453125 18.28125 30.59375 C 18.28125 27.980469 19.738281 26.675781 21.34375 25.03125 C 22.148438 24.207031 22.96875 23.332031 23.53125 22.1875 C 23.679688 21.886719 23.746094 21.527344 23.84375 21.1875 Z M 10.90625 39 C 9.585938 38.992188 8.359375 39.890625 8.0625 41.21875 C 7.785156 42.457031 8.433594 43.671875 9.5 44.25 L 8.375 44.4375 C 6.839844 44.710938 5.761719 46.1875 6.0625 47.71875 C 6.332031 49.074219 7.53125 50 8.875 50 C 9.046875 50 9.230469 50 9.40625 49.96875 L 23.9375 47.375 L 36.53125 49.9375 C 36.730469 49.976563 36.929688 50 37.125 50 C 38.433594 50 39.640625 49.101563 39.9375 47.78125 C 40.21875 46.53125 39.539063 45.34375 38.46875 44.78125 L 39.625 44.5625 C 41.160156 44.289063 42.238281 42.8125 41.9375 41.28125 C 41.636719 39.75 40.128906 38.785156 38.59375 39.0625 L 24.0625 41.65625 L 11.46875 39.0625 C 11.277344 39.023438 11.09375 39 10.90625 39 Z M 10.6875 41.03125 C 10.800781 41.011719 10.9375 41.003906 11.0625 41.03125 L 18.71875 42.59375 L 14.40625 43.375 L 10.6875 42.59375 C 10.183594 42.492188 9.9375 42.082031 10.03125 41.65625 C 10.101563 41.339844 10.347656 41.09375 10.6875 41.03125 Z M 38.9375 41.03125 C 39.453125 40.9375 39.917969 41.230469 40 41.65625 C 40.082031 42.078125 39.800781 42.5 39.28125 42.59375 L 33.59375 43.625 L 33.5 43.625 C 33.308594 43.601563 33.113281 43.632813 32.9375 43.71875 C 32.925781 43.730469 32.917969 43.738281 32.90625 43.75 L 24 45.34375 L 23.78125 45.375 L 9.0625 48 C 9.003906 48.011719 8.933594 48 8.875 48 C 8.433594 48 8.074219 47.71875 8 47.34375 C 7.917969 46.921875 8.199219 46.5 8.71875 46.40625 L 14.375 45.40625 C 14.613281 45.449219 14.855469 45.402344 15.0625 45.28125 L 24.03125 43.6875 C 24.117188 43.6875 24.199219 43.675781 24.28125 43.65625 L 24.375 43.625 C 24.40625 43.617188 24.4375 43.605469 24.46875 43.59375 Z M 33.46875 45.65625 L 37.46875 46.5 C 37.867188 46.664063 38.050781 46.980469 37.96875 47.34375 C 37.886719 47.714844 37.542969 48 37.125 48 C 37.0625 48 37.003906 47.984375 36.9375 47.96875 L 29.28125 46.40625 Z"/></svg>