<svg fill="#000000" xmlns="http://www.w3.org/2000/svg"  viewBox="0 0 50 50" width="1000px" height="1000px"><path d="M 25 1 C 19.65374 1 14.811901 1.7875356 11.21875 3.1113281 C 9.4221744 3.7732244 7.9334457 4.5655051 6.8359375 5.5214844 C 5.7384293 6.4774636 5 7.6667745 5 9 C 5 9.9539643 5.3828429 10.831626 6 11.605469 L 6 38.486328 C 5.4205794 39.231292 5 40.067863 5 41 C 5 42.333244 5.7383978 43.52254 6.8359375 44.478516 C 7.9334772 45.434491 9.4221515 46.226777 11.21875 46.888672 C 14.811947 48.212461 19.653942 49 25 49 C 30.346058 49 35.188053 48.212461 38.78125 46.888672 C 40.577848 46.226777 42.066524 45.434491 43.164062 44.478516 C 44.261603 43.52254 45 42.333244 45 41 C 45 40.067863 44.579421 39.231292 44 38.486328 L 44 11.605469 C 44.617157 10.831626 45 9.9539643 45 9 C 45 7.6667745 44.261572 6.4774636 43.164062 5.5214844 C 42.066554 4.5655051 40.577826 3.7732244 38.78125 3.1113281 C 35.188099 1.7875356 30.34626 1 25 1 z M 25 3 C 30.14715 3 34.806348 3.7785721 38.089844 4.9882812 C 39.731592 5.5931359 41.024213 6.3103392 41.849609 7.0292969 C 42.675006 7.7482545 43 8.4002289 43 9 C 43 9.5997711 42.675006 10.251745 41.849609 10.970703 C 41.024213 11.689661 39.731592 12.406864 38.089844 13.011719 C 34.806348 14.221428 30.14715 15 25 15 C 19.85285 15 15.193652 14.221428 11.910156 13.011719 C 10.268408 12.406864 8.9757871 11.689661 8.1503906 10.970703 C 7.3249942 10.251745 7 9.5997711 7 9 C 7 8.4002289 7.3249942 7.7482545 8.1503906 7.0292969 C 8.9757871 6.3103392 10.268408 5.5931359 11.910156 4.9882812 C 15.193652 3.7785721 19.85285 3 25 3 z M 22.998047 5 C 21.780723 5 19.809018 5.2551508 18.060547 5.5039062 C 16.312076 5.7526617 14.832031 6 14.832031 6 L 14.878906 5.9941406 C 13.303046 6.1840708 12 7.4227841 12 8.9980469 L 12 9.0019531 C 12 10.577216 13.302483 11.817239 14.878906 12.005859 C 14.917746 12.012259 16.367488 12.250763 18.107422 12.496094 C 19.87046 12.744678 21.833547 13 22.998047 13 L 23.498047 13 C 25.419235 13 26.998047 11.421188 26.998047 9.5 L 26.998047 8.5 C 26.998047 6.5788117 25.419235 5 23.498047 5 L 22.998047 5 z M 22.998047 7 L 23.498047 7 C 24.338859 7 24.998047 7.6591883 24.998047 8.5 L 24.998047 9.5 C 24.998047 10.340812 24.338859 11 23.498047 11 L 22.998047 11 C 22.365252 11 21.029314 10.850792 19.669922 10.677734 C 19.856502 10.207414 19.998047 9.6506359 19.998047 9 C 19.998047 8.3464335 19.853882 7.7879697 19.666016 7.3164062 C 21.002006 7.1462385 22.318636 7 22.998047 7 z M 17.617188 7.5957031 C 17.798472 7.8748333 17.998047 8.3215795 17.998047 9 C 17.998047 9.6729284 17.801281 10.118566 17.621094 10.398438 C 16.43927 10.222057 15.160156 10.025391 15.160156 10.025391 A 1.0001 1.0001 0 0 0 15.117188 10.019531 C 14.403613 9.9341915 14 9.4566904 14 9.0019531 L 14 8.9980469 C 14 8.5433096 14.403051 8.0665391 15.117188 7.9804688 A 1.0001 1.0001 0 0 0 15.164062 7.9726562 C 15.164062 7.9726562 16.429659 7.7744872 17.617188 7.5957031 z M 8 13.330078 C 8.9148055 13.91635 9.9884225 14.435394 11.21875 14.888672 C 14.811901 16.212464 19.65374 17 25 17 C 30.34626 17 35.188099 16.212464 38.78125 14.888672 C 40.011578 14.435394 41.085195 13.91635 42 13.330078 L 42 38.771484 A 1.0001 1.0001 0 0 0 42.261719 39.445312 C 42.788007 40.021842 43 40.528547 43 41 C 43 41.599756 42.675038 42.251741 41.849609 42.970703 C 41.02418 43.689665 39.73162 44.406863 38.089844 45.011719 C 34.806291 46.22143 30.146942 47 25 47 C 19.853058 47 15.193709 46.22143 11.910156 45.011719 C 10.26838 44.406863 8.9758197 43.689665 8.1503906 42.970703 C 7.3249615 42.251741 7 41.599756 7 41 C 7 40.528547 7.2119931 40.021842 7.7382812 39.445312 A 1.0001 1.0001 0 0 0 8 38.771484 L 8 13.330078 z M 25 21 C 22.924223 21 20.865685 21.267862 19.263672 21.673828 C 18.462665 21.876811 17.780631 22.106581 17.224609 22.400391 C 16.946599 22.547295 16.695007 22.707296 16.466797 22.939453 C 16.238586 23.17161 16 23.529004 16 24 L 16 27.3125 C 15.695836 27.421175 15.358343 27.508205 15.101562 27.648438 C 14.865956 27.777106 14.650106 27.916628 14.445312 28.123047 C 14.240521 28.329466 14 28.647544 14 29.125 A 1.0001 1.0001 0 0 0 14.013672 29.283203 L 15.763672 40.158203 A 1.0001 1.0001 0 0 0 15.779297 40.242188 C 15.985378 41.066511 16.564123 41.345155 17.142578 41.630859 C 17.721034 41.916563 18.425544 42.146577 19.240234 42.345703 C 20.869611 42.74396 22.928164 43 25 43 C 27.071836 43 29.130386 42.743955 30.759766 42.345703 C 31.574456 42.146577 32.278966 41.916563 32.857422 41.630859 C 33.435877 41.345155 34.014622 41.066512 34.220703 40.242188 A 1.0001 1.0001 0 0 0 34.236328 40.158203 L 35.986328 29.283203 A 1.0001 1.0001 0 0 0 36 29.125 C 36 28.647544 35.75948 28.329466 35.554688 28.123047 C 35.349894 27.916628 35.134044 27.777106 34.898438 27.648438 C 34.641657 27.508205 34.304164 27.421175 34 27.3125 L 34 24 C 34 23.529004 33.761414 23.17161 33.533203 22.939453 C 33.304993 22.707296 33.053401 22.547295 32.775391 22.400391 C 32.219369 22.106581 31.537335 21.876811 30.736328 21.673828 C 29.134315 21.267862 27.075777 21 25 21 z M 25 23 C 26.900223 23 28.842107 23.255544 30.246094 23.611328 C 30.948087 23.78922 31.519069 23.999388 31.841797 24.169922 C 31.938727 24.221142 31.955421 24.240852 32 24.273438 L 32 28 A 1.0001 1.0001 0 0 0 32.75 28.96875 C 33.247839 29.097225 33.689666 29.265931 33.939453 29.402344 C 33.941753 29.403644 33.941059 29.40299 33.943359 29.404297 L 32.300781 39.611328 C 32.276249 39.62529 32.190346 39.730371 31.972656 39.837891 C 31.602049 40.020937 31.004716 40.228423 30.285156 40.404297 C 28.846042 40.755997 26.904164 41 25 41 C 23.095836 41 21.153964 40.756045 19.714844 40.404297 C 18.995284 40.228423 18.397951 40.020937 18.027344 39.837891 C 17.809654 39.730372 17.723751 39.62529 17.699219 39.611328 L 16.056641 29.404297 C 16.058941 29.402997 16.058247 29.403655 16.060547 29.402344 C 16.31034 29.265978 16.752161 29.097225 17.25 28.96875 A 1.0001 1.0001 0 0 0 18 28 L 18 24.273438 C 18.04458 24.240858 18.06127 24.221138 18.158203 24.169922 C 18.480931 23.999388 19.051913 23.78922 19.753906 23.611328 C 21.157893 23.255544 23.099777 23 25 23 z M 20 31 A 1.0001 1.0001 0 1 0 20 33 L 30 33 A 1.0001 1.0001 0 1 0 30 31 L 20 31 z M 22 35 A 1.0001 1.0001 0 1 0 22 37 L 28 37 A 1.0001 1.0001 0 1 0 28 35 L 22 35 z"/></svg>