<svg fill="#000000" xmlns="http://www.w3.org/2000/svg"  viewBox="0 0 50 50" width="1000px" height="1000px"><path d="M 27.716797 1 C 26.152605 1 24.664618 1.2601264 23.263672 1.7363281 A 1.0001 1.0001 0 0 0 23.248047 1.7363281 A 1.0001 1.0001 0 0 0 22.625 1.96875 C 20.885358 2.660359 19.293959 3.7040088 17.896484 5.078125 C 17.888384 5.085215 17.39335 5.5134877 17.138672 6.2421875 C 16.881907 6.9768581 16.958163 8.1252728 17.783203 9.0820312 C 18.449184 9.8543285 19.431175 10.991625 20.208984 11.759766 C 20.856318 12.399052 21.709558 12.51463 22.402344 12.453125 C 23.09513 12.391615 23.680334 12.201675 24.181641 11.804688 C 26.451669 10.010533 29.335531 9.9219585 31.167969 11.730469 C 32.094182 12.64501 32.59375 13.835843 32.59375 15.123047 C 32.59375 15.706159 32.477556 16.265698 32.279297 16.792969 A 1.0001 1.0001 0 0 0 32.166016 17.074219 A 1.0001 1.0001 0 0 0 32.166016 17.076172 C 31.927162 17.603261 31.598646 18.092328 31.167969 18.517578 L 26.902344 22.732422 A 1.0001 1.0001 0 0 0 26.898438 22.734375 A 1.0001 1.0001 0 0 0 26.71875 22.914062 L 20.351562 29.203125 L 20.349609 29.205078 A 1.0001 1.0001 0 0 0 20.175781 29.376953 L 13.830078 35.644531 A 1.0001 1.0001 0 0 0 13.583984 35.886719 L 7.828125 41.574219 L 7.8261719 41.576172 L 7.8242188 41.578125 A 1.0001 1.0001 0 0 0 7.8222656 41.580078 C 7.5694979 41.830189 7.3814017 42.121037 7.2441406 42.429688 A 1.0001 1.0001 0 0 0 7.0898438 42.886719 C 6.8533615 43.825576 7.090622 44.864424 7.8242188 45.587891 C 8.5471591 46.300846 9.7184173 47.460792 10.441406 48.175781 C 11.549638 49.270237 13.359695 49.269102 14.466797 48.175781 L 17.650391 45.03125 L 17.652344 45.029297 A 1.0001 1.0001 0 0 0 17.822266 44.861328 L 24.271484 38.488281 L 30.738281 32.099609 A 1.0001 1.0001 0 0 0 30.931641 31.910156 L 37.283203 25.634766 A 1.0001 1.0001 0 0 0 37.484375 25.435547 L 37.808594 25.115234 C 39.639807 23.308078 40.900212 21.080485 41.53125 18.660156 A 1.0001699 1.0001699 0 0 0 41.535156 18.648438 A 1.0001699 1.0001699 0 0 0 41.5625 18.537109 C 41.840153 17.430875 42 16.289418 42 15.123047 C 42 13.222188 41.617479 11.374664 40.894531 9.6679688 A 1.0001 1.0001 0 0 0 40.75 9.3652344 C 40.04562 7.808121 39.064217 6.3705066 37.810547 5.1328125 C 36.795188 4.1295942 35.652487 3.2964663 34.417969 2.6464844 A 1.0001 1.0001 0 0 0 34.097656 2.4960938 C 34.0966 2.4955708 34.094806 2.4966164 34.09375 2.4960938 C 32.134809 1.5267585 29.965254 1 27.716797 1 z M 27.716797 3 C 29.345186 3 30.91865 3.3095763 32.375 3.8984375 L 29.363281 8.5917969 C 28.532337 8.4178331 27.668031 8.4015278 26.810547 8.5332031 L 24.632812 3.4003906 C 25.610104 3.1435022 26.633493 3 27.716797 3 z M 22.748047 4.0800781 L 24.875 9.0917969 C 24.196476 9.3822976 23.542906 9.7609224 22.941406 10.236328 A 1.0001 1.0001 0 0 0 22.939453 10.236328 C 22.921763 10.250338 22.545573 10.432441 22.224609 10.460938 C 21.903645 10.489426 21.691901 10.411648 21.615234 10.335938 C 20.945044 9.6740772 19.958894 8.5430933 19.296875 7.7753906 C 18.862915 7.2721491 18.954359 7.1111731 19.027344 6.9023438 C 19.100324 6.6935142 19.238281 6.5566406 19.238281 6.5566406 A 1.0001 1.0001 0 0 0 19.273438 6.5234375 C 20.335354 5.474251 21.495323 4.6649819 22.748047 4.0800781 z M 34.164062 4.8144531 C 34.964361 5.3049638 35.719942 5.8785157 36.404297 6.5546875 A 1.0001 1.0001 0 0 0 36.40625 6.5546875 C 37.287593 7.4248157 38.015975 8.4008491 38.582031 9.453125 L 33.640625 11.681641 C 33.346066 11.185893 32.994016 10.721148 32.574219 10.306641 C 32.172949 9.9106099 31.733659 9.5876251 31.271484 9.3203125 L 34.164062 4.8144531 z M 39.369141 11.292969 C 39.778355 12.511519 40 13.797882 40 15.123047 C 40 15.839911 39.928317 16.544095 39.806641 17.234375 L 34.457031 16.478516 C 34.547555 16.036375 34.59375 15.582239 34.59375 15.123047 C 34.59375 14.581886 34.521443 14.051046 34.396484 13.535156 L 39.369141 11.292969 z M 33.742188 18.398438 L 39.285156 19.181641 C 38.684166 20.854896 37.720231 22.392759 36.404297 23.691406 L 36.328125 23.765625 L 29.654297 22.824219 L 32.574219 19.939453 C 33.040945 19.478388 33.430879 18.958463 33.742188 18.398438 z M 27.865234 24.591797 L 34.539062 25.533203 L 29.779297 30.236328 L 23.105469 29.292969 L 27.865234 24.591797 z M 21.318359 31.060547 L 27.990234 32.001953 L 23.234375 36.703125 L 16.558594 35.759766 L 21.318359 31.060547 z M 14.769531 37.527344 L 21.443359 38.470703 L 16.685547 43.171875 L 10.009766 42.230469 L 14.769531 37.527344 z M 9.2089844 44.136719 L 14.896484 44.939453 L 13.060547 46.751953 C 12.721649 47.086632 12.187425 47.087498 11.847656 46.751953 L 11.847656 46.753906 C 11.124646 46.038849 9.9535752 44.879107 9.2285156 44.164062 C 9.2200109 44.155675 9.2170616 44.145306 9.2089844 44.136719 z"/></svg>