<svg xmlns="http://www.w3.org/2000/svg"  viewBox="0 0 50 50" width="1000px" height="1000px"><path d="M 24.964844 -0.0390625 A 1.0391039 1.0391039 0 0 0 24.208984 0.32617188 C 24.208984 0.32617188 22.928681 1.8296737 21.642578 3.7148438 C 20.356475 5.6000137 18.960937 7.7344906 18.960938 9.7851562 C 18.960938 11.349689 19.418039 12.900704 20.4375 14.089844 C 21.277395 15.06953 22.51122 15.750756 24.011719 15.962891 L 24.011719 17.15625 C 23.914805 17.12605 23.807139 17.0988 23.712891 17.068359 C 22.199028 16.579409 21.173368 16.011719 20 16.011719 C 19.084697 16.011719 18.296913 16.207 17.736328 16.742188 C 17.175744 17.277373 17.011719 18.024676 17.011719 18.679688 C 17.011719 19.512543 17.301496 20.191796 17.541016 21.148438 C 17.780535 22.105079 18.011719 23.284963 18.011719 24.802734 C 18.011719 30.349958 17.510744 32.787352 17.070312 34.009766 C 16.850098 34.620972 16.652455 34.931336 16.441406 35.326172 C 16.230358 35.721008 16.011719 36.270926 16.011719 36.923828 C 16.011719 37.750407 16.376471 38.474396 16.900391 39.025391 C 17.203382 39.34404 17.589087 39.582888 18.011719 39.755859 L 18.011719 42 L 8 42 A 1.0001 1.0001 0 0 0 7 43 C 7 44.346033 7.9286579 45.417325 9.2050781 46.382812 C 10.481498 47.348301 12.224881 48.22534 14.318359 48.945312 A 1.0001 1.0001 0 0 0 14.642578 49 L 35.357422 49 A 1.0001 1.0001 0 0 0 35.681641 48.945312 C 37.775119 48.225339 39.518502 47.348301 40.794922 46.382812 C 42.071342 45.417327 43 44.346033 43 43 A 1.0001 1.0001 0 0 0 42 42 L 30.988281 42 L 30.988281 31.660156 C 32.07309 31.263922 32.988281 30.39644 32.988281 29.074219 C 32.988281 28.076778 32.645147 27.385764 32.414062 26.822266 C 32.18298 26.258767 31.988281 25.721823 31.988281 24.533203 C 31.988281 23.713708 32.196409 22.984858 32.429688 22.339844 C 32.662965 21.694829 32.988281 21.263384 32.988281 20.439453 C 32.988281 20.370013 33.022126 20.181134 33.003906 19.871094 C 32.985676 19.561054 32.839523 19.076181 32.494141 18.751953 C 31.803375 18.103498 30.925842 18.029297 29.277344 18.029297 C 28.077042 18.029297 26.986459 17.882069 25.988281 17.673828 L 25.988281 15.964844 C 27.49289 15.754158 28.729032 15.070484 29.568359 14.087891 C 30.584723 12.898043 31.039063 11.348161 31.039062 9.7851562 C 31.039062 7.7344906 29.643525 5.6000137 28.357422 3.7148438 C 27.071319 1.8296737 25.791016 0.32617188 25.791016 0.32617188 A 1.0391039 1.0391039 0 0 0 24.964844 -0.0390625 z M 25 2.71875 C 25.447615 3.2701595 25.823391 3.6859548 26.642578 4.8867188 C 27.856475 6.6660487 28.960937 8.9238221 28.960938 9.7851562 C 28.960938 10.943151 28.618168 12.000879 27.988281 12.738281 C 27.63957 13.146516 27.193567 13.465565 26.630859 13.679688 C 26.859857 13.267181 27 12.769179 27 12.226562 C 27 10.825563 25 8 25 8 C 25 8 23 10.825563 23 12.226562 C 23 12.766853 23.139979 13.262319 23.367188 13.673828 C 22.808431 13.459167 22.363547 13.142158 22.015625 12.736328 C 21.382836 11.998217 21.039062 10.941624 21.039062 9.7851562 C 21.039062 8.9238221 22.143525 6.6660487 23.357422 4.8867188 C 24.176609 3.6859548 24.552385 3.2701595 25 2.71875 z M 20 17.988281 C 20.216632 17.988281 21.495326 18.42917 23.105469 18.949219 C 23.546067 19.091525 24.029112 19.231785 24.539062 19.365234 A 0.98859885 0.98859885 0 0 0 25.029297 19.478516 C 26.275248 19.774955 27.685162 20.005859 29.277344 20.005859 C 30.67537 20.005859 31.05604 20.237313 31.021484 20.181641 C 31.016284 20.258721 31.011719 20.283997 31.011719 20.439453 C 31.011719 20.298523 30.837035 20.92853 30.570312 21.666016 C 30.303591 22.403501 30.011719 23.379699 30.011719 24.533203 C 30.011719 25.972584 30.317021 26.916514 30.585938 27.572266 C 30.854854 28.228017 31.011719 28.49466 31.011719 29.074219 C 31.011719 29.730246 30.549586 30.039981 30.136719 30.042969 A 0.98859885 0.98859885 0 0 0 30.076172 30.035156 C 29.339181 30.020256 29.233341 29.816765 29.113281 29.576172 C 28.98879 29.326699 28.986328 29.048828 28.986328 29.048828 A 0.98859885 0.98859885 0 1 0 27.013672 28.951172 C 27.013672 28.951172 26.960742 29.691457 27.34375 30.458984 C 27.606416 30.985352 28.237063 31.423537 29.011719 31.710938 L 29.011719 42 L 19.988281 42 L 19.988281 39 A 0.98859885 0.98859885 0 0 0 19 38.011719 C 18.831452 38.011719 18.555065 37.894614 18.333984 37.662109 C 18.112904 37.429604 17.988281 37.11725 17.988281 36.923828 C 17.988281 36.612731 18.019641 36.56454 18.183594 36.257812 C 18.347545 35.951087 18.649902 35.456231 18.929688 34.679688 C 19.489256 33.126601 19.988281 30.467511 19.988281 24.802734 C 19.988281 23.081505 19.719465 21.708327 19.458984 20.667969 C 19.198504 19.62761 18.988281 18.865831 18.988281 18.679688 C 18.988281 18.315697 19.049651 18.221438 19.101562 18.171875 C 19.153482 18.122315 19.365303 17.988281 20 17.988281 z M 9.7910156 44 L 40.208984 44 C 39.984477 44.290584 40.044309 44.441873 39.587891 44.787109 C 38.575972 45.552528 37.01656 46.342138 35.140625 47 L 14.859375 47 C 12.98344 46.342138 11.424028 45.552528 10.412109 44.787109 C 9.9556918 44.441873 10.015523 44.290584 9.7910156 44 z"/></svg>