<svg xmlns="http://www.w3.org/2000/svg"  viewBox="0 0 50 50" width="1000px" height="1000px"><path d="M 9.84375 4 C 8.285156 4 7 5.289063 7 6.84375 L 7 10 L 9 10 L 9 6.84375 C 9 6.359375 9.375 6 9.84375 6 L 15.15625 6 C 15.625 6 16 6.359375 16 6.84375 L 16 10 L 18 10 L 18 6.84375 C 18 5.289063 16.714844 4 15.15625 4 Z M 34.84375 4 C 33.285156 4 32 5.289063 32 6.84375 L 32 10 L 34 10 L 34 6.84375 C 34 6.359375 34.375 6 34.84375 6 L 40.15625 6 C 40.625 6 41 6.359375 41 6.84375 L 41 10 L 43 10 L 43 6.84375 C 43 5.289063 41.714844 4 40.15625 4 Z M 4.6875 10.9375 C 2.082031 10.9375 -0.0625 13.058594 -0.0625 15.65625 L -0.0625 41.34375 C -0.0625 43.941406 2.082031 46.0625 4.6875 46.0625 L 45.3125 46.0625 C 47.917969 46.0625 50.0625 43.941406 50.0625 41.34375 L 50.0625 15.65625 C 50.0625 13.058594 47.917969 10.9375 45.3125 10.9375 Z M 4.6875 13.0625 L 45.3125 13.0625 C 46.785156 13.0625 47.9375 14.203125 47.9375 15.65625 L 47.9375 41.34375 C 47.9375 42.796875 46.789063 43.9375 45.3125 43.9375 L 4.6875 43.9375 C 3.214844 43.9375 2.0625 42.796875 2.0625 41.34375 L 2.0625 15.65625 C 2.0625 14.203125 3.214844 13.0625 4.6875 13.0625 Z M 36 23 L 36 27 L 32 27 L 32 30 L 36 30 L 36 34 L 39 34 L 39 30 L 43 30 L 43 27 L 39 27 L 39 23 Z M 7 27 L 7 30 L 18 30 L 18 27 Z"/></svg>