<svg fill="#000000" xmlns="http://www.w3.org/2000/svg"  viewBox="0 0 50 50" width="1000px" height="1000px"><path d="M 28.597656 0.0078125 C 28.476563 0.0117188 28.355469 0.0273438 28.230469 0.0507813 C 27.511719 0.191406 27.03125 0.578125 26.679688 0.929688 C 26.480469 0.855469 26.492188 0.796875 26.222656 0.765625 C 25.835938 0.714844 25.34375 0.746094 24.875 0.992188 C 24.402344 1.238281 24 1.683594 23.738281 2.25 L 23.742188 2.25 C 23.472656 2.847656 23.425781 3.488281 23.578125 4.015625 C 23.714844 4.476563 23.988281 4.789063 24.25 5.058594 C 24.027344 5.28125 23.789063 5.507813 23.640625 5.878906 C 23.457031 6.347656 23.449219 6.976563 23.703125 7.519531 C 24.179688 8.546875 25.21875 8.921875 25.953125 8.953125 C 25.964844 9.085938 25.953125 9.199219 26.003906 9.351563 C 26.109375 9.679688 26.378906 10.132813 26.878906 10.316406 C 27.328125 10.484375 27.59375 10.382813 27.902344 10.34375 C 27.917969 10.453125 27.890625 10.535156 27.9375 10.660156 C 28.066406 11.019531 28.40625 11.421875 28.84375 11.59375 C 29.632813 11.902344 30.148438 11.605469 30.546875 11.394531 C 30.828125 11.757813 31.15625 12.273438 31.359375 12.964844 C 31.699219 14.144531 31.679688 15.707031 29.847656 17.765625 C 28.011719 16.246094 26.023438 15.207031 24.234375 14.640625 C 23.136719 14.296875 22.113281 14.121094 21.203125 14.144531 C 20.289063 14.171875 19.425781 14.375 18.828125 15.0625 C 15.121094 19.320313 10.402344 27 6.734375 33.863281 C 4.898438 37.296875 3.332031 40.511719 2.304688 43 C 1.789063 44.242188 1.40625 45.300781 1.191406 46.152344 C 1.082031 46.578125 1.011719 46.949219 1 47.316406 C 0.992188 47.6875 0.980469 48.128906 1.414063 48.566406 C 1.417969 48.566406 1.417969 48.566406 1.417969 48.566406 C 1.753906 48.902344 2.121094 48.96875 2.429688 48.992188 C 2.734375 49.015625 3.027344 48.988281 3.351563 48.933594 C 4.007813 48.824219 4.785156 48.597656 5.71875 48.261719 C 7.589844 47.589844 10.078125 46.472656 13.03125 44.945313 C 18.941406 41.890625 26.703125 37.199219 34.851563 31.207031 C 34.890625 31.179688 34.929688 31.148438 34.96875 31.109375 C 35.59375 30.484375 35.804688 29.625 35.828125 28.707031 C 35.851563 27.792969 35.679688 26.773438 35.332031 25.683594 C 34.679688 23.617188 33.382813 21.308594 31.433594 19.25 C 33.855469 17.511719 35.582031 17.664063 36.859375 18.171875 C 37.742188 18.527344 38.28125 19.003906 38.640625 19.375 C 38.425781 19.78125 38.082031 20.324219 38.40625 21.15625 C 38.578125 21.59375 38.980469 21.933594 39.339844 22.0625 C 39.464844 22.109375 39.546875 22.082031 39.65625 22.097656 C 39.617188 22.40625 39.515625 22.671875 39.683594 23.117188 C 39.867188 23.617188 40.320313 23.890625 40.644531 23.996094 C 40.800781 24.046875 40.914063 24.035156 41.046875 24.046875 C 41.078125 24.78125 41.457031 25.820313 42.480469 26.296875 C 43.023438 26.550781 43.652344 26.539063 44.121094 26.355469 C 44.492188 26.207031 44.71875 25.972656 44.941406 25.75 C 45.210938 26.011719 45.523438 26.285156 45.984375 26.421875 C 46.511719 26.574219 47.152344 26.527344 47.75 26.257813 C 48.316406 25.996094 48.761719 25.597656 49.007813 25.125 C 49.253906 24.652344 49.285156 24.164063 49.234375 23.777344 C 49.203125 23.507813 49.144531 23.519531 49.066406 23.320313 C 49.421875 22.96875 49.808594 22.488281 49.949219 21.769531 C 50.148438 20.765625 49.640625 19.898438 49.160156 19.46875 C 49.089844 19.402344 49.085938 19.425781 49.011719 19.375 C 49.121094 18.8125 49.101563 18.097656 48.519531 17.417969 C 47.980469 16.78125 47.429688 16.789063 46.984375 16.777344 C 46.8125 16.207031 46.394531 15.511719 45.585938 15.078125 C 44.480469 14.480469 43.605469 14.734375 42.96875 15.0625 C 43.285156 14.539063 43.34375 13.960938 43.328125 13.425781 C 43.6875 13.515625 44.042969 13.617188 44.46875 13.582031 C 45.042969 13.535156 45.695313 13.28125 46.164063 12.757813 C 46.609375 12.261719 46.769531 11.574219 46.695313 11.027344 C 46.667969 10.835938 46.5625 10.726563 46.503906 10.5625 C 46.617188 10.542969 46.707031 10.578125 46.828125 10.542969 C 47.332031 10.386719 47.859375 9.992188 48.144531 9.421875 C 48.445313 8.824219 48.492188 8.164063 48.339844 7.628906 C 48.1875 7.09375 47.886719 6.691406 47.59375 6.390625 C 47.5 6.296875 47.488281 6.332031 47.398438 6.253906 C 47.5 6.132813 47.527344 6.171875 47.621094 6.023438 C 47.859375 5.632813 48.066406 5.117188 48.046875 4.515625 C 48.027344 3.910156 47.75 3.265625 47.25 2.726563 C 46.714844 2.148438 46.0625 1.804688 45.417969 1.757813 C 44.773438 1.710938 44.21875 1.945313 43.816406 2.21875 C 43.660156 2.320313 43.707031 2.355469 43.578125 2.46875 C 43.011719 1.945313 41.933594 1.539063 40.824219 1.992188 C 40.1875 2.25 39.738281 2.820313 39.566406 3.355469 C 39.464844 3.675781 39.511719 3.949219 39.515625 4.238281 C 39.363281 4.195313 39.253906 4.121094 39.082031 4.101563 C 38.597656 4.046875 38.003906 4.136719 37.503906 4.484375 C 36.941406 4.878906 36.660156 5.53125 36.609375 6.082031 C 36.582031 6.324219 36.660156 6.511719 36.6875 6.726563 C 36.5625 6.714844 36.480469 6.648438 36.347656 6.652344 C 35.847656 6.671875 35.3125 6.871094 34.84375 7.230469 C 34.84375 7.230469 34.84375 7.226563 34.84375 7.226563 C 35.21875 6.5625 35.566406 5.613281 34.921875 4.414063 C 34.488281 3.605469 33.792969 3.183594 33.21875 3.015625 C 33.210938 2.570313 33.21875 2.019531 32.582031 1.476563 C 31.898438 0.898438 31.183594 0.878906 30.625 0.988281 C 30.570313 0.914063 30.597656 0.910156 30.53125 0.835938 C 30.152344 0.421875 29.441406 -0.0234375 28.597656 0.0078125 Z M 28.617188 2.015625 C 28.878906 1.960938 28.90625 2.023438 29.050781 2.179688 C 29.195313 2.339844 29.269531 2.523438 29.269531 2.523438 C 29.371094 2.792969 29.582031 3.007813 29.851563 3.109375 C 30.121094 3.210938 30.421875 3.195313 30.675781 3.058594 C 30.675781 3.058594 30.980469 2.960938 31.167969 2.96875 C 31.191406 3.03125 31.230469 3.128906 31.234375 3.25 C 31.25 3.523438 31.21875 3.78125 31.21875 3.78125 C 31.183594 4.09375 31.296875 4.40625 31.527344 4.625 C 31.757813 4.839844 32.078125 4.9375 32.390625 4.882813 C 32.390625 4.882813 32.464844 4.867188 32.636719 4.910156 C 32.804688 4.953125 32.96875 5.003906 33.160156 5.359375 C 33.445313 5.886719 32.84375 6.734375 32.84375 6.734375 C 32.664063 6.949219 32.582031 7.226563 32.617188 7.503906 C 32.652344 7.78125 32.804688 8.03125 33.03125 8.191406 C 33.03125 8.191406 33.570313 8.5625 33.707031 9.40625 C 33.730469 9.542969 33.78125 9.675781 33.855469 9.789063 C 33.828125 10.386719 33.8125 11.003906 33.6875 11.710938 C 33.625 12.082031 33.523438 12.480469 33.386719 12.902344 C 33.351563 12.734375 33.324219 12.566406 33.28125 12.410156 C 32.726563 10.492188 31.390625 9.359375 31.390625 9.359375 C 31.027344 9.046875 30.5 9.03125 30.125 9.320313 C 30.125 9.320313 30.011719 9.390625 29.960938 9.425781 C 30.035156 9.082031 29.921875 8.726563 29.667969 8.484375 C 29.410156 8.246094 29.046875 8.15625 28.707031 8.253906 C 28.707031 8.253906 28.441406 8.328125 28.125 8.382813 C 28 8.40625 28.019531 8.410156 27.90625 8.40625 C 27.921875 8.230469 27.953125 8.027344 27.953125 8.027344 C 28.03125 7.667969 27.90625 7.296875 27.628906 7.054688 C 27.351563 6.816406 26.960938 6.746094 26.621094 6.875 C 26.621094 6.875 26.335938 6.972656 26.046875 6.96875 C 25.757813 6.964844 25.664063 6.992188 25.515625 6.671875 C 25.476563 6.589844 25.488281 6.652344 25.5 6.617188 C 25.515625 6.578125 25.589844 6.46875 25.71875 6.355469 C 25.980469 6.132813 26.34375 5.964844 26.34375 5.964844 C 26.726563 5.804688 26.96875 5.429688 26.957031 5.015625 C 26.949219 4.601563 26.683594 4.238281 26.296875 4.101563 C 26.296875 4.101563 25.9375 3.953125 25.703125 3.734375 C 25.582031 3.628906 25.519531 3.527344 25.5 3.453125 C 25.476563 3.378906 25.457031 3.3125 25.5625 3.082031 C 25.675781 2.828125 25.757813 2.789063 25.796875 2.765625 C 25.832031 2.746094 25.882813 2.738281 25.984375 2.75 C 26.183594 2.773438 26.433594 2.914063 26.433594 2.914063 C 26.683594 3.082031 26.996094 3.128906 27.285156 3.039063 C 27.574219 2.949219 27.804688 2.738281 27.917969 2.457031 C 27.917969 2.457031 27.964844 2.144531 28.617188 2.015625 Z M 42.03125 3.742188 C 42.117188 3.769531 42.15625 3.839844 42.242188 3.921875 C 42.410156 4.09375 42.515625 4.34375 42.515625 4.34375 C 42.640625 4.710938 42.972656 4.976563 43.359375 5.015625 C 43.746094 5.054688 44.125 4.863281 44.324219 4.53125 C 44.324219 4.53125 44.617188 4.089844 44.929688 3.878906 C 45.085938 3.773438 45.195313 3.746094 45.277344 3.75 C 45.359375 3.757813 45.5 3.777344 45.785156 4.085938 C 46.027344 4.34375 46.042969 4.472656 46.046875 4.578125 C 46.050781 4.683594 46.011719 4.816406 45.914063 4.976563 C 45.71875 5.300781 45.347656 5.574219 45.347656 5.574219 C 45.046875 5.777344 44.878906 6.125 44.910156 6.488281 C 44.9375 6.847656 45.164063 7.164063 45.492188 7.3125 C 45.492188 7.3125 45.886719 7.511719 46.164063 7.792969 C 46.304688 7.933594 46.386719 8.078125 46.414063 8.171875 C 46.441406 8.265625 46.457031 8.324219 46.359375 8.523438 C 46.308594 8.625 46.316406 8.605469 46.234375 8.632813 C 46.148438 8.660156 45.957031 8.671875 45.738281 8.640625 C 45.308594 8.578125 44.875 8.378906 44.875 8.378906 C 44.421875 8.15625 43.871094 8.3125 43.597656 8.738281 C 43.324219 9.167969 43.414063 9.730469 43.808594 10.050781 C 43.808594 10.050781 44.21875 10.402344 44.488281 10.808594 C 44.625 11.007813 44.699219 11.207031 44.714844 11.296875 C 44.726563 11.382813 44.75 11.339844 44.671875 11.421875 C 44.566406 11.542969 44.492188 11.574219 44.308594 11.589844 C 44.121094 11.601563 43.835938 11.5625 43.554688 11.46875 C 42.988281 11.285156 42.496094 10.957031 42.496094 10.957031 C 42.109375 10.699219 41.597656 10.738281 41.257813 11.050781 C 40.914063 11.363281 40.835938 11.871094 41.0625 12.277344 C 41.0625 12.277344 41.261719 12.648438 41.359375 13.105469 C 41.453125 13.558594 41.433594 13.878906 41.183594 14.117188 C 40.730469 14.546875 40.511719 14.585938 40.035156 14.59375 C 39.5625 14.605469 38.84375 14.476563 37.890625 14.46875 C 36.964844 14.460938 35.832031 14.632813 34.484375 15.152344 C 35.082031 14.027344 35.5 12.957031 35.65625 12.058594 C 35.839844 11.027344 35.832031 10.167969 35.867188 9.59375 C 35.902344 9.019531 35.980469 8.875 36 8.855469 C 36.199219 8.675781 36.304688 8.65625 36.433594 8.648438 C 36.558594 8.644531 36.730469 8.683594 36.910156 8.773438 C 37.277344 8.957031 37.578125 9.273438 37.578125 9.273438 C 37.925781 9.65625 38.503906 9.71875 38.917969 9.410156 C 39.335938 9.105469 39.449219 8.53125 39.183594 8.089844 C 39.183594 8.089844 38.871094 7.558594 38.703125 6.992188 C 38.617188 6.707031 38.582031 6.425781 38.597656 6.277344 C 38.613281 6.128906 38.609375 6.15625 38.65625 6.125 C 38.703125 6.085938 38.734375 6.074219 38.867188 6.089844 C 39 6.105469 39.210938 6.171875 39.417969 6.277344 C 39.828125 6.488281 40.167969 6.789063 40.167969 6.789063 C 40.515625 7.105469 41.039063 7.136719 41.425781 6.863281 C 41.808594 6.585938 41.949219 6.078125 41.753906 5.644531 C 41.753906 5.644531 41.53125 5.105469 41.457031 4.578125 C 41.421875 4.3125 41.441406 4.070313 41.472656 3.964844 C 41.507813 3.859375 41.476563 3.882813 41.578125 3.84375 C 41.828125 3.742188 41.949219 3.71875 42.03125 3.742188 Z M 21.257813 16.144531 C 21.859375 16.128906 22.699219 16.253906 23.636719 16.550781 C 25.507813 17.140625 27.777344 18.398438 29.679688 20.304688 C 29.679688 20.304688 29.679688 20.304688 29.683594 20.304688 C 31.589844 22.210938 32.839844 24.4375 33.425781 26.285156 C 33.722656 27.210938 33.84375 28.042969 33.828125 28.65625 C 33.8125 29.25 33.648438 29.574219 33.5625 29.671875 C 32.820313 30.214844 32.085938 30.738281 31.351563 31.261719 C 31.082031 30.785156 30.792969 30.167969 30.359375 29.5 C 29.710938 28.507813 28.484375 27.546875 26.621094 27.546875 C 26.257813 27.539063 25.921875 27.730469 25.742188 28.039063 C 25.558594 28.351563 25.558594 28.738281 25.742188 29.050781 C 25.921875 29.359375 26.257813 29.550781 26.621094 29.546875 C 27.921875 29.546875 28.242188 29.917969 28.6875 30.59375 C 28.996094 31.074219 29.253906 31.753906 29.6875 32.429688 C 26.878906 34.386719 24.144531 36.175781 21.558594 37.777344 C 21.175781 37.273438 20.933594 36.71875 20.535156 36.050781 C 20.042969 35.214844 19.207031 34.300781 17.726563 33.78125 C 17.601563 33.734375 17.46875 33.714844 17.332031 33.71875 C 16.851563 33.742188 16.457031 34.105469 16.390625 34.582031 C 16.324219 35.058594 16.609375 35.515625 17.0625 35.667969 C 18.148438 36.046875 18.445313 36.441406 18.816406 37.070313 C 19.089844 37.53125 19.359375 38.160156 19.835938 38.824219 C 17.03125 40.511719 14.417969 41.976563 12.113281 43.167969 C 9.210938 44.667969 6.777344 45.757813 5.039063 46.378906 C 4.195313 46.683594 3.527344 46.867188 3.078125 46.945313 C 3.097656 46.835938 3.09375 46.785156 3.132813 46.644531 C 3.304688 45.957031 3.660156 44.960938 4.152344 43.765625 C 4.878906 42.007813 5.914063 39.8125 7.128906 37.425781 C 7.472656 37.589844 7.792969 37.710938 8.066406 37.875 C 8.609375 38.195313 9.050781 38.5625 9.414063 39.640625 C 9.589844 40.164063 10.15625 40.445313 10.679688 40.269531 C 11.203125 40.09375 11.484375 39.527344 11.308594 39.003906 C 10.808594 37.515625 9.90625 36.640625 9.089844 36.15625 C 8.699219 35.921875 8.351563 35.757813 8.070313 35.621094 C 8.214844 35.347656 8.347656 35.082031 8.496094 34.808594 C 10.199219 31.625 12.148438 28.257813 14.09375 25.15625 C 14.320313 25.324219 14.558594 25.429688 14.777344 25.527344 C 15.164063 25.695313 15.554688 25.84375 15.964844 26.054688 C 16.777344 26.480469 17.664063 27.125 18.460938 28.761719 C 18.613281 29.09375 18.929688 29.316406 19.292969 29.34375 C 19.65625 29.375 20.003906 29.203125 20.207031 28.898438 C 20.40625 28.597656 20.425781 28.207031 20.257813 27.886719 C 19.28125 25.882813 17.964844 24.84375 16.890625 24.28125 C 16.355469 24.003906 15.882813 23.828125 15.582031 23.695313 C 15.28125 23.5625 15.238281 23.460938 15.316406 23.597656 C 15.285156 23.539063 15.246094 23.484375 15.199219 23.433594 C 17.019531 20.632813 18.804688 18.136719 20.335938 16.375 C 20.367188 16.34375 20.65625 16.164063 21.257813 16.144531 Z M 37.933594 16.472656 C 38.664063 16.484375 39.316406 16.613281 40.078125 16.59375 C 40.292969 16.589844 40.519531 16.5625 40.746094 16.515625 C 40.773438 16.519531 40.800781 16.527344 40.828125 16.53125 C 41.382813 16.617188 41.917969 17.09375 41.917969 17.09375 C 42.28125 17.464844 42.867188 17.492188 43.265625 17.15625 C 43.265625 17.15625 44.113281 16.558594 44.640625 16.839844 C 44.996094 17.03125 45.046875 17.195313 45.089844 17.363281 C 45.132813 17.535156 45.121094 17.609375 45.121094 17.609375 C 45.066406 17.921875 45.160156 18.242188 45.375 18.46875 C 45.59375 18.699219 45.90625 18.8125 46.21875 18.777344 C 46.21875 18.777344 46.476563 18.75 46.75 18.761719 C 46.871094 18.765625 46.964844 18.808594 47.027344 18.832031 C 47.039063 19.023438 46.941406 19.324219 46.941406 19.324219 C 46.808594 19.578125 46.789063 19.878906 46.890625 20.148438 C 46.996094 20.417969 47.207031 20.628906 47.480469 20.730469 C 47.480469 20.730469 47.660156 20.804688 47.816406 20.949219 C 47.976563 21.09375 48.039063 21.117188 47.984375 21.378906 C 47.855469 22.035156 47.542969 22.078125 47.542969 22.078125 C 47.261719 22.191406 47.050781 22.425781 46.960938 22.714844 C 46.871094 23 46.917969 23.3125 47.085938 23.5625 C 47.085938 23.5625 47.226563 23.816406 47.25 24.015625 C 47.261719 24.117188 47.253906 24.167969 47.234375 24.203125 C 47.210938 24.242188 47.171875 24.320313 46.917969 24.4375 C 46.6875 24.542969 46.621094 24.519531 46.546875 24.5 C 46.472656 24.480469 46.371094 24.414063 46.265625 24.296875 C 46.046875 24.058594 45.902344 23.703125 45.902344 23.703125 C 45.761719 23.316406 45.398438 23.050781 44.984375 23.039063 C 44.570313 23.027344 44.195313 23.273438 44.035156 23.65625 C 44.035156 23.65625 43.867188 24.019531 43.644531 24.277344 C 43.53125 24.40625 43.421875 24.480469 43.386719 24.496094 C 43.347656 24.511719 43.410156 24.523438 43.328125 24.484375 C 43.007813 24.335938 43.035156 24.242188 43.03125 23.953125 C 43.027344 23.664063 43.125 23.378906 43.125 23.378906 C 43.253906 23.035156 43.183594 22.648438 42.945313 22.371094 C 42.703125 22.09375 42.332031 21.96875 41.972656 22.046875 C 41.972656 22.046875 41.769531 22.074219 41.59375 22.09375 C 41.589844 21.976563 41.59375 22 41.613281 21.875 C 41.671875 21.558594 41.746094 21.289063 41.746094 21.289063 C 41.84375 20.953125 41.753906 20.585938 41.515625 20.332031 C 41.273438 20.074219 40.917969 19.964844 40.574219 20.035156 C 40.609375 19.988281 40.675781 19.875 40.675781 19.875 C 40.945313 19.523438 40.953125 19.042969 40.703125 18.6875 C 40.703125 18.6875 39.722656 17.304688 37.933594 16.472656 Z"/></svg>