<svg xmlns="http://www.w3.org/2000/svg"  viewBox="0 0 50 50" width="1000px" height="1000px"><path d="M 31 2 C 29.110797 2 27.353622 2.767537 25.955078 3.8632812 C 25.097904 3.3911794 24.155968 3 23 3 C 20.942503 3 19.071546 3.8966143 17.796875 5.3320312 C 17.225876 5.9633016 16.773851 6.7024709 16.464844 7.5117188 C 16.462453 7.5109782 16.461379 7.5105058 16.458984 7.5097656 C 15.559378 7.2316945 14.355013 6.9681196 13.070312 7.0917969 C 11.785613 7.2154741 10.382627 7.7930049 9.4199219 9.1152344 C 8.554269 10.304168 8.1249583 12.096034 8.0917969 14.457031 C 4.5905045 15.508091 2 18.667775 2 22.5 C 2 24.78877 3.3045857 26.619435 4.6992188 28.052734 C 4.4542249 28.456201 4.2917605 28.874925 4.1972656 29.242188 C 4.0315307 29.88633 4.0019531 30.441406 4.0019531 30.441406 L 4 30.470703 L 4 30.5 C 4 33.615257 5.9088664 36.308251 8.6328125 37.431641 C 8.6328125 37.431641 8.6347656 37.431641 8.6347656 37.431641 C 8.955258 37.566462 9.3979756 37.701522 9.9472656 37.808594 C 9.7438002 39.224591 10.005186 41.024691 11.019531 42.589844 C 12.067736 44.207242 14.132222 45.321215 16.9375 45.005859 C 18.750541 48.541821 24.395773 49.090904 26.763672 45.505859 C 27.378839 45.769486 28.151591 45.99033 29.082031 46.003906 C 30.413978 46.023346 31.973572 45.400759 33.314453 44 C 35.042998 44.144503 36.808736 44.05086 38.287109 43.291016 C 39.744263 42.542074 40.693564 40.969217 40.814453 38.925781 C 41.546272 38.47503 42.19208 37.895824 42.710938 37.220703 C 43.457192 37.28621 44.212951 37.101104 44.871094 36.753906 C 45.88097 36.221153 46.738928 35.32918 47.3125 34.220703 C 48.349478 32.216656 48.203804 29.413957 46.082031 27.105469 C 47.092692 26.011722 47.960028 24.536102 48 22.728516 C 48.045937 20.651263 46.760702 18.440868 43.728516 17.193359 C 44.032669 16.142135 44.027142 15.066396 43.787109 14.083984 C 43.428845 12.617668 42.601702 11.332974 41.5625 10.404297 C 40.772445 9.6982687 39.821038 9.2957845 38.828125 9.1484375 C 38.382274 5.1575446 35.107367 2 31 2 z M 31 4 C 34.33081 4 37 6.6691904 37 10 L 37 11.113281 L 38.107422 10.994141 C 38.671253 10.933641 39.491139 11.235787 40.230469 11.896484 C 40.969798 12.557182 41.595343 13.53391 41.845703 14.558594 C 42.096064 15.583278 42.007631 16.626428 41.361328 17.636719 C 40.911254 18.340268 40.152237 19.046563 38.972656 19.667969 C 38.993309 18.877078 38.740978 17.985388 38.074219 17.167969 C 37.215074 16.115242 36.031157 15.50371 34.767578 15.230469 C 34.491334 13.874415 33.835012 12.505696 32.501953 11.736328 C 31.768851 11.307994 30.912377 11.040285 30.013672 11.087891 C 29.444823 11.118021 28.884888 11.35323 28.363281 11.6875 C 27.507017 10.783808 26.425206 10 25 10 L 24.988281 10 L 24.974609 10 C 23.374075 10.040561 22.183414 10.655309 21.400391 11.445312 C 20.914884 11.241971 20.409155 11.110137 19.898438 11.076172 C 19.289007 11.035641 18.676154 11.123437 18.09375 11.349609 C 18.018501 11.008229 17.969772 10.615913 17.998047 10.050781 L 18 10.025391 L 18 10 C 18 8.7110823 18.48081 7.5556946 19.28125 6.671875 L 19.285156 6.6679688 L 19.289062 6.6640625 C 20.194306 5.6425697 21.520019 5 23 5 C 23.930684 5 24.614215 5.3082061 25.466797 5.8457031 L 26.125 6.2617188 L 26.689453 5.7246094 C 27.740921 4.7236117 29.41877 4 31 4 z M 13.935547 9.0683594 C 14.617502 9.097525 15.308611 9.2492174 15.867188 9.421875 C 15.934041 9.4425395 15.966453 9.4595934 16.029297 9.4804688 C 16.017173 9.6441883 16.004533 9.8081306 16.003906 9.9746094 C 15.950476 11.136967 16.172667 11.990607 16.382812 12.595703 C 15.749742 13.367357 15.393365 14.326225 15.216797 15.261719 C 13.926198 15.567949 12.727473 16.267481 12.017578 17.496094 C 11.288025 18.743735 11.287702 20.151914 11.677734 21.427734 C 10.699752 22.340789 10 23.562672 10 25 C 10 26.413757 10.601172 27.687912 11.552734 28.599609 C 11.178451 29.867427 11.301036 31.278516 12.017578 32.503906 C 11.951398 32.389144 12.094158 32.667649 12.240234 32.900391 C 12.389424 33.138089 12.60397 33.438082 12.902344 33.742188 C 13.357226 34.205807 14.102766 34.594963 14.980469 34.794922 C 15.027945 34.995166 15.088713 35.179356 15.152344 35.361328 C 14.299531 35.880669 13.097834 36.063125 11.972656 36.023438 C 10.736232 35.979827 9.5266213 35.637751 9.4082031 35.587891 L 9.4042969 35.585938 L 9.4003906 35.585938 C 7.4163552 34.770508 6.0146885 32.815579 6.0039062 30.525391 C 6.0059394 30.495999 6.0273023 30.1579 6.1347656 29.740234 C 6.2467807 29.304878 6.5000203 28.926509 6.5351562 28.904297 L 7.6484375 28.201172 L 6.6699219 27.316406 C 5.2660568 26.05108 4 24.263544 4 22.5 C 4 19.334359 6.245332 16.719786 9.2246094 16.130859 L 10.054688 15.966797 L 10.029297 15.121094 C 9.9567059 12.598682 10.434439 11.118755 11.037109 10.291016 C 11.63978 9.463276 12.381919 9.1686821 13.261719 9.0839844 C 13.481669 9.0628099 13.708229 9.0586375 13.935547 9.0683594 z M 25.009766 12.003906 C 25.896654 12.009206 26.88543 12.725786 27.46875 13.568359 L 28.230469 14.669922 L 29.070312 13.626953 C 29.383502 13.237156 29.703709 13.108047 30.121094 13.085938 C 30.538478 13.063828 31.049553 13.201778 31.496094 13.462891 L 31.498047 13.464844 L 31.5 13.466797 C 32.288048 13.920926 32.906348 15.13152 32.982422 16.097656 L 33.050781 16.949219 L 33.902344 17.017578 C 34.895979 17.095818 35.827209 17.576145 36.525391 18.431641 C 37.023733 19.042588 37.041317 19.359918 36.978516 19.761719 C 36.915716 20.16352 36.657595 20.668165 36.367188 21.28125 L 36.001953 22.048828 L 36.701172 22.53125 C 37.480168 23.070526 38 23.978235 38 25 C 38 25.06465 37.869947 25.694115 37.611328 26.234375 C 37.352709 26.774635 36.963222 27.284914 36.699219 27.46875 L 35.945312 27.994141 L 36.402344 28.789062 C 36.611096 29.151746 36.659525 29.782569 36.568359 30.376953 C 36.522779 30.674145 36.449325 30.954202 36.380859 31.166016 C 36.312389 31.377829 36.212426 31.569965 36.259766 31.490234 L 36.255859 31.494141 L 36.253906 31.5 C 35.925269 32.070283 35.436303 32.467034 34.882812 32.712891 C 34.842711 32.532549 34.807615 32.357804 34.740234 32.142578 C 34.546273 31.523035 34.221173 30.808623 33.667969 30.164062 C 33.114764 29.519503 32.305605 28.953232 31.267578 28.748047 C 31.172662 28.729285 31.069508 28.727592 30.970703 28.716797 C 31.004165 28.647033 31.022871 28.573613 31.0625 28.505859 L 31.066406 28.5 L 31.068359 28.496094 C 31.282068 28.122103 31.389552 27.975945 31.638672 27.769531 L 33.058594 26.59375 L 31.296875 26.044922 C 30.928061 25.930126 29.921302 25.630483 29.087891 25.001953 C 28.254479 24.373424 27.67367 23.655874 27.978516 22.205078 L 28.34375 20.462891 L 26.666016 21.056641 C 25.942105 21.312825 25.769994 21.141211 25.478516 20.791016 C 25.187037 20.440822 25 19.757118 25 19.5 C 25 19.385238 25.017975 19.254359 25.046875 19.144531 L 25.306641 18.154297 L 24.3125 17.917969 C 22.993468 17.6032 22 16.424392 22 15 C 22 14.742302 22.09664 13.897885 22.501953 13.248047 C 22.905367 12.601248 23.513396 12.046892 25.009766 12.003906 z M 19.789062 13.035156 C 19.97011 13.048754 20.154382 13.093116 20.341797 13.15625 C 20.065525 13.909856 20 14.589212 20 15 C 20 17.029348 21.254155 18.721709 23 19.503906 C 23.000766 20.31481 23.261088 21.249632 23.939453 22.066406 C 23.794357 22.10613 23.610831 22.103527 23.279297 21.992188 L 22.1875 21.625 L 21.976562 22.757812 C 21.898432 23.17851 21.644257 23.54348 21.292969 23.767578 L 20.632812 24.1875 L 20.880859 24.927734 C 21.042694 25.410643 20.913459 25.907025 20.59375 26.332031 C 20.274038 26.757038 19.775507 27 19.5 27 L 18.919922 27 L 18.628906 27.492188 C 18.305711 28.039285 18.063175 28.056453 17.705078 28.054688 C 17.346981 28.052888 16.929131 27.885028 16.835938 27.839844 L 16.455078 27.65625 L 16.058594 27.800781 C 15.707771 27.928353 15.353946 28 15 28 C 13.32997 28 12 26.67003 12 25 C 12 23.978235 12.519737 23.070621 13.298828 22.53125 L 13.998047 22.048828 L 13.632812 21.28125 C 13.227438 20.425457 13.226876 19.388503 13.744141 18.503906 L 13.744141 18.501953 L 13.746094 18.5 C 14.259517 17.609059 15.142986 17.092749 16.097656 17.017578 L 16.949219 16.949219 L 17.017578 16.097656 C 17.093926 15.12752 17.748699 13.80014 18.5 13.367188 L 18.501953 13.365234 L 18.503906 13.363281 C 18.932018 13.112945 19.353627 13.002452 19.789062 13.035156 z M 42.849609 18.986328 C 45.453304 19.972784 46.030347 21.313239 46 22.685547 C 45.96801 24.132256 44.947191 25.743182 44.185547 26.335938 L 43.214844 27.091797 L 44.154297 27.888672 C 46.408685 29.798167 46.325715 31.776735 45.537109 33.300781 C 45.142807 34.062804 44.527967 34.674831 43.9375 34.986328 C 43.886431 35.013269 43.840534 35.026163 43.791016 35.048828 C 43.923095 34.555716 44 34.039791 44 33.5 C 44 32.67109 43.815933 31.25556 42.876953 29.898438 C 42.157342 28.858372 40.965283 27.914143 39.230469 27.412109 C 39.298179 27.30929 39.363893 27.20654 39.416016 27.097656 C 39.769686 26.358882 40 25.695351 40 25 C 40 23.817528 39.501498 22.802133 38.789062 21.962891 C 40.678985 21.187783 42.006577 20.163083 42.849609 18.986328 z M 25.970703 23.03125 C 26.056538 24.622965 26.91623 25.868694 27.882812 26.597656 C 28.555194 27.104742 28.902139 27.138944 29.453125 27.353516 C 29.420745 27.406766 29.364955 27.447796 29.333984 27.501953 C 29.333984 27.501953 29.332031 27.503906 29.332031 27.503906 C 29.063955 27.964599 28.884209 28.455298 28.779297 28.951172 C 28.699821 28.972463 28.623379 28.988246 28.542969 29.011719 C 28.228193 28.414118 27.794006 27.86961 27.138672 27.484375 C 26.3363 27.012704 25.232312 27.052527 24.162109 27.488281 C 23.779567 26.982989 23.304924 26.550168 22.742188 26.283203 C 22.830234 25.879678 22.859368 25.452279 22.818359 25.015625 C 23.134686 24.723251 23.387353 24.392465 23.580078 24.001953 C 24.183085 24.026893 24.752083 23.948633 25.181641 23.693359 C 25.507413 23.499761 25.76406 23.26688 25.970703 23.03125 z M 21.726562 28.035156 C 22.273474 28.120817 22.717985 28.485927 22.902344 28.986328 L 23.376953 30.277344 L 24.458984 29.425781 C 25.229842 28.818282 25.657181 28.932831 26.126953 29.208984 C 26.596725 29.485138 26.956054 30.14892 26.976562 30.332031 L 27.207031 32.396484 L 28.501953 31.103516 C 29.549275 30.689214 30.339683 30.603964 30.880859 30.710938 C 31.44827 30.823096 31.830845 31.092529 32.150391 31.464844 C 32.469936 31.837159 32.698102 32.318683 32.830078 32.740234 C 32.962054 33.161785 32.974839 33.61602 32.984375 33.509766 L 32.984375 33.515625 L 32.982422 33.521484 C 32.957932 33.832548 32.683185 34.640417 31.976562 35.220703 C 31.269942 35.800989 30.126254 36.269397 28.128906 36.007812 L 27.525391 35.929688 L 27.177734 36.431641 C 26.520774 37.380565 25.889412 38 25 38 C 25.08588 38 24.452138 37.94867 23.914062 37.748047 C 23.375988 37.547427 22.849593 37.216647 22.5625 36.748047 L 22.09375 35.982422 L 21.28125 36.367188 C 20.354031 36.806396 19.173567 36.933242 18.392578 36.476562 L 18.388672 36.474609 L 18.384766 36.472656 C 18.055309 36.283394 16.956432 35.597836 16.791016 33.884766 L 16.703125 32.980469 L 15.794922 32.980469 C 15.100282 32.980469 14.670331 32.688586 14.330078 32.341797 C 14.159952 32.168402 14.027608 31.982613 13.935547 31.835938 C 13.843487 31.68926 13.865307 31.709104 13.748047 31.503906 L 13.746094 31.5 L 13.744141 31.496094 C 13.410618 30.925723 13.310613 30.305087 13.375 29.703125 C 13.887689 29.881835 14.428394 30 15 30 C 15.50109 30 15.953228 29.875488 16.394531 29.744141 C 16.713474 29.875846 17.050636 30.051507 17.695312 30.054688 C 18.422739 30.058287 19.301091 29.646976 19.96875 28.873047 C 20.630665 28.759495 21.236066 28.471161 21.726562 28.035156 z M 38.529297 29.287109 C 39.949216 29.643452 40.736134 30.319817 41.232422 31.037109 C 41.856942 31.939737 42 32.99891 42 33.5 C 42 35.274198 40.976663 36.788225 39.494141 37.525391 L 38.919922 37.810547 L 38.941406 38.451172 C 38.998136 40.227417 38.403486 40.982098 37.373047 41.511719 C 36.342607 42.04134 34.740608 42.183014 33.107422 42.005859 L 32.560547 41.947266 L 32.216797 42.376953 C 31.139794 43.730961 30.080176 44.018044 29.111328 44.003906 C 28.14248 43.989766 27.231989 43.549865 26.972656 43.373047 C 26.359199 42.954987 25.93396 42.578244 25.605469 41.955078 C 25.367097 41.502873 25.175666 40.882041 25.082031 39.994141 C 26.642796 39.958854 27.685708 38.959432 28.453125 37.966797 C 30.549031 38.106703 32.197136 37.625439 33.244141 36.765625 C 33.941073 36.193296 34.375609 35.53741 34.646484 34.894531 C 34.646581 34.894303 34.648341 34.894759 34.648438 34.894531 C 36.005938 34.621765 37.241556 33.786121 37.982422 32.503906 C 38.122434 32.266884 38.185717 32.082844 38.283203 31.78125 C 38.381453 31.477282 38.48013 31.10212 38.544922 30.679688 C 38.609691 30.257403 38.603071 29.780172 38.529297 29.287109 z M 16.134766 37.109375 C 16.613605 37.684337 17.10543 38.043359 17.382812 38.203125 C 17.382812 38.203125 17.384766 38.203125 17.384766 38.203125 C 18.708534 38.976324 20.152597 38.795378 21.398438 38.367188 C 21.913717 38.909093 22.496978 39.310214 23.052734 39.548828 C 23.127776 40.944498 23.385051 42.031361 23.835938 42.886719 C 24.175671 43.531213 24.618075 44.021095 25.085938 44.429688 C 23.380049 47.012316 19.249319 46.18728 18.464844 43.671875 L 18.195312 42.808594 L 17.308594 42.990234 C 14.682237 43.53201 13.472841 42.695665 12.699219 41.501953 C 11.995571 40.416213 11.838701 38.894626 11.960938 38.021484 C 13.282455 38.062259 14.816286 37.901595 16.134766 37.109375 z"/></svg>