<svg xmlns="http://www.w3.org/2000/svg"  viewBox="0 0 50 50" width="1000px" height="1000px"><path d="M 25 2.007813 C 12.3125 2.007813 2.007813 12.3125 2.007813 25 C 2.007813 37.6875 12.3125 47.996094 25 47.996094 C 37.6875 47.996094 47.996094 37.6875 47.996094 25 C 47.996094 12.3125 37.6875 2.007813 25 2.007813 Z M 25 3.992188 C 27.589844 3.992188 30.066406 4.464844 32.355469 5.320313 L 27.605469 16.394531 C 26.78125 16.144531 25.90625 16.003906 25 16.003906 C 20.042969 16.003906 16.003906 20.042969 16.003906 25 C 16.003906 25.90625 16.144531 26.78125 16.394531 27.605469 L 5.320313 32.355469 C 4.464844 30.066406 3.992188 27.589844 3.992188 25 C 3.992188 13.386719 13.386719 3.992188 25 3.992188 Z M 34.171875 6.121094 C 38.398438 8.175781 41.824219 11.601563 43.878906 15.828125 L 32.8125 20.566406 C 32.011719 19.160156 30.839844 17.988281 29.433594 17.1875 Z M 44.683594 17.644531 C 45.535156 19.933594 46.003906 22.410156 46.003906 25 C 46.003906 36.613281 36.613281 46.003906 25 46.003906 C 22.410156 46.003906 19.933594 45.535156 17.644531 44.683594 L 22.394531 33.605469 C 23.21875 33.855469 24.09375 33.996094 25 33.996094 C 29.957031 33.996094 33.996094 29.957031 33.996094 25 C 33.996094 24.09375 33.855469 23.21875 33.605469 22.394531 Z M 25 17.996094 C 28.882813 17.996094 32.003906 21.117188 32.003906 25 C 32.003906 28.882813 28.882813 32.003906 25 32.003906 C 21.117188 32.003906 17.996094 28.882813 17.996094 25 C 17.996094 21.117188 21.117188 17.996094 25 17.996094 Z M 25 22 C 23.34375 22 22 23.34375 22 25 C 22 26.65625 23.34375 28 25 28 C 26.65625 28 28 26.65625 28 25 C 28 23.34375 26.65625 22 25 22 Z M 17.1875 29.433594 C 17.988281 30.839844 19.160156 32.011719 20.566406 32.8125 L 15.828125 43.878906 C 11.601563 41.824219 8.175781 38.398438 6.121094 34.171875 Z"/></svg>