<svg fill="#000000" xmlns="http://www.w3.org/2000/svg"  viewBox="0 0 50 50" width="1000px" height="1000px"><path d="M 30.5 2 C 29.351563 2 28.449219 2.671875 27.8125 3.53125 C 27.375 3.332031 27.011719 3 26.5 3 C 25.519531 3 24.695313 3.472656 24.0625 4.125 C 23.871094 4.089844 23.703125 4 23.5 4 C 22.152344 4 21.144531 4.875 20.5625 6 C 20.539063 6 20.523438 6 20.5 6 C 18.578125 6 17 7.578125 17 9.5 C 17 9.703125 17.089844 9.871094 17.125 10.0625 C 16.472656 10.695313 16 11.519531 16 12.5 C 16 13.847656 16.875 14.855469 18 15.4375 C 18 15.460938 18 15.476563 18 15.5 C 18 16.421875 18.4375 17.195313 19.03125 17.8125 C 17.867188 18.796875 15.15625 20.890625 12.375 23.125 C 9.558594 25.386719 6.703125 27.734375 5.21875 29.21875 C 0.929688 33.507813 0.929688 40.492188 5.21875 44.78125 C 9.507813 49.070313 16.492188 49.070313 20.78125 44.78125 C 23.570313 41.992188 30.734375 32.910156 33.21875 29.6875 C 33.601563 29.875 34.03125 30 34.5 30 C 35.011719 30 35.375 29.667969 35.8125 29.46875 C 36.449219 30.328125 37.351563 31 38.5 31 C 39.847656 31 40.855469 30.125 41.4375 29 C 41.460938 29 41.476563 29 41.5 29 C 43.421875 29 45 27.421875 45 25.5 C 45 25.476563 45 25.460938 45 25.4375 C 46.125 24.855469 47 23.847656 47 22.5 C 47 21.988281 46.667969 21.625 46.46875 21.1875 C 47.328125 20.550781 48 19.648438 48 18.5 C 48 17.734375 47.699219 17.074219 47.28125 16.5 C 47.699219 15.925781 48 15.265625 48 14.5 C 48 13.351563 47.328125 12.449219 46.46875 11.8125 C 46.667969 11.375 47 11.011719 47 10.5 C 47 9.152344 46.125 8.144531 45 7.5625 C 45 7.539063 45 7.523438 45 7.5 C 45 5.578125 43.421875 4 41.5 4 C 41.296875 4 41.128906 4.089844 40.9375 4.125 C 40.304688 3.472656 39.480469 3 38.5 3 C 37.988281 3 37.625 3.332031 37.1875 3.53125 C 36.550781 2.671875 35.648438 2 34.5 2 C 33.734375 2 33.074219 2.300781 32.5 2.71875 C 31.925781 2.300781 31.265625 2 30.5 2 Z M 30.5 4 C 30.996094 4 31.410156 4.25 31.6875 4.625 C 31.875 4.886719 32.179688 5.042969 32.5 5.042969 C 32.820313 5.042969 33.125 4.886719 33.3125 4.625 C 33.589844 4.25 34.003906 4 34.5 4 C 35.15625 4 35.695313 4.421875 35.90625 5 C 36.027344 5.300781 36.289063 5.527344 36.605469 5.601563 C 36.921875 5.675781 37.257813 5.59375 37.5 5.375 C 37.773438 5.128906 38.117188 5 38.5 5 C 39.039063 5 39.480469 5.292969 39.75 5.71875 C 40.011719 6.121094 40.523438 6.277344 40.96875 6.09375 C 41.148438 6.023438 41.324219 6 41.5 6 C 42.339844 6 43 6.660156 43 7.5 C 43 7.601563 42.996094 7.691406 42.96875 7.8125 C 42.902344 8.078125 42.949219 8.359375 43.097656 8.589844 C 43.246094 8.820313 43.480469 8.980469 43.75 9.03125 C 44.453125 9.15625 45 9.753906 45 10.5 C 45 10.882813 44.871094 11.226563 44.625 11.5 C 44.40625 11.742188 44.324219 12.078125 44.398438 12.394531 C 44.472656 12.710938 44.699219 12.972656 45 13.09375 C 45.578125 13.304688 46 13.847656 46 14.5 C 46 14.996094 45.75 15.410156 45.375 15.6875 C 45.113281 15.875 44.957031 16.179688 44.957031 16.5 C 44.957031 16.820313 45.113281 17.125 45.375 17.3125 C 45.75 17.589844 46 18.003906 46 18.5 C 46 19.152344 45.578125 19.695313 45 19.90625 C 44.699219 20.027344 44.472656 20.289063 44.398438 20.605469 C 44.324219 20.921875 44.40625 21.257813 44.625 21.5 C 44.871094 21.773438 45 22.117188 45 22.5 C 45 23.246094 44.453125 23.84375 43.75 23.96875 C 43.480469 24.019531 43.246094 24.179688 43.097656 24.410156 C 42.949219 24.640625 42.902344 24.921875 42.96875 25.1875 C 42.996094 25.308594 43 25.398438 43 25.5 C 43 26.339844 42.339844 27 41.5 27 C 41.398438 27 41.308594 26.996094 41.1875 26.96875 C 40.921875 26.902344 40.640625 26.949219 40.410156 27.097656 C 40.179688 27.246094 40.019531 27.480469 39.96875 27.75 C 39.84375 28.453125 39.246094 29 38.5 29 C 37.847656 29 37.304688 28.578125 37.09375 28 C 36.972656 27.699219 36.710938 27.472656 36.394531 27.398438 C 36.078125 27.324219 35.742188 27.40625 35.5 27.625 C 35.226563 27.871094 34.882813 28 34.5 28 C 34.382813 28 34.265625 27.964844 34.15625 27.9375 C 34.054688 27.484375 33.652344 27.160156 33.1875 27.15625 C 33.125 27.027344 33.054688 26.894531 33.03125 26.75 C 32.980469 26.480469 32.820313 26.246094 32.589844 26.097656 C 32.359375 25.949219 32.078125 25.902344 31.8125 25.96875 C 31.691406 25.996094 31.601563 26 31.5 26 C 30.753906 26 30.15625 25.453125 30.03125 24.75 C 29.980469 24.480469 29.820313 24.246094 29.589844 24.097656 C 29.359375 23.949219 29.078125 23.902344 28.8125 23.96875 C 28.691406 23.996094 28.601563 24 28.5 24 C 27.753906 24 27.15625 23.453125 27.03125 22.75 C 26.980469 22.480469 26.820313 22.246094 26.589844 22.097656 C 26.359375 21.949219 26.078125 21.902344 25.8125 21.96875 C 25.691406 21.996094 25.601563 22 25.5 22 C 24.753906 22 24.15625 21.453125 24.03125 20.75 C 23.980469 20.480469 23.820313 20.246094 23.589844 20.097656 C 23.359375 19.949219 23.078125 19.902344 22.8125 19.96875 C 22.691406 19.996094 22.601563 20 22.5 20 C 21.660156 20 21 19.339844 21 18.5 C 21 18.320313 21.023438 18.144531 21.09375 17.96875 C 21.277344 17.523438 21.121094 17.011719 20.71875 16.75 C 20.292969 16.480469 20 16.039063 20 15.5 C 20 15.398438 20.003906 15.308594 20.03125 15.1875 C 20.097656 14.921875 20.050781 14.640625 19.902344 14.410156 C 19.753906 14.179688 19.519531 14.019531 19.25 13.96875 C 18.546875 13.84375 18 13.246094 18 12.5 C 18 11.960938 18.292969 11.519531 18.71875 11.25 C 19.121094 10.988281 19.277344 10.476563 19.09375 10.03125 C 19.023438 9.855469 19 9.679688 19 9.5 C 19 8.660156 19.660156 8 20.5 8 C 20.601563 8 20.691406 8.003906 20.8125 8.03125 C 21.078125 8.097656 21.359375 8.050781 21.589844 7.902344 C 21.820313 7.753906 21.980469 7.519531 22.03125 7.25 C 22.15625 6.546875 22.753906 6 23.5 6 C 23.675781 6 23.851563 6.023438 24.03125 6.09375 C 24.476563 6.277344 24.988281 6.121094 25.25 5.71875 C 25.519531 5.292969 25.960938 5 26.5 5 C 26.882813 5 27.226563 5.128906 27.5 5.375 C 27.742188 5.59375 28.078125 5.675781 28.394531 5.601563 C 28.710938 5.527344 28.972656 5.300781 29.09375 5 C 29.304688 4.421875 29.84375 4 30.5 4 Z M 26.90625 9.96875 C 26.863281 9.976563 26.820313 9.988281 26.78125 10 C 26.316406 10.105469 25.988281 10.523438 26 11 C 26 11.566406 25.566406 12 25 12 C 24.640625 11.996094 24.304688 12.183594 24.121094 12.496094 C 23.941406 12.808594 23.941406 13.191406 24.121094 13.503906 C 24.304688 13.816406 24.640625 14.003906 25 14 C 26.644531 14 28 12.644531 28 11 C 28.011719 10.710938 27.894531 10.433594 27.6875 10.238281 C 27.476563 10.039063 27.191406 9.941406 26.90625 9.96875 Z M 37.90625 9.96875 C 37.863281 9.976563 37.820313 9.988281 37.78125 10 C 37.316406 10.105469 36.988281 10.523438 37 11 C 37 12.117188 36.117188 13 35 13 C 34.640625 12.996094 34.304688 13.183594 34.121094 13.496094 C 33.941406 13.808594 33.941406 14.191406 34.121094 14.503906 C 34.304688 14.816406 34.640625 15.003906 35 15 C 37.199219 15 39 13.199219 39 11 C 39.011719 10.710938 38.894531 10.433594 38.6875 10.238281 C 38.476563 10.039063 38.191406 9.941406 37.90625 9.96875 Z M 36.90625 18.96875 C 36.863281 18.976563 36.820313 18.988281 36.78125 19 C 36.316406 19.105469 35.988281 19.523438 36 20 C 36 20.566406 35.566406 21 35 21 C 34.640625 20.996094 34.304688 21.183594 34.121094 21.496094 C 33.941406 21.808594 33.941406 22.191406 34.121094 22.503906 C 34.304688 22.816406 34.640625 23.003906 35 23 C 36.644531 23 38 21.644531 38 20 C 38.011719 19.710938 37.894531 19.433594 37.6875 19.238281 C 37.476563 19.039063 37.191406 18.941406 36.90625 18.96875 Z M 19.40625 20.0625 C 19.65625 20.542969 20.003906 20.992188 20.4375 21.3125 C 19.199219 22.335938 17.070313 24.105469 14.59375 26.46875 C 12.890625 28.09375 11.242188 29.8125 10.125 31.3125 C 9.566406 32.0625 9.121094 32.730469 8.875 33.4375 C 8.753906 33.789063 8.6875 34.164063 8.71875 34.5625 C 8.746094 34.921875 8.871094 35.320313 9.125 35.625 C 9.136719 35.636719 9.144531 35.644531 9.15625 35.65625 C 9.175781 35.679688 9.199219 35.699219 9.21875 35.71875 C 9.339844 35.839844 9.492188 35.925781 9.65625 35.96875 C 9.679688 35.976563 9.699219 35.996094 9.71875 36 C 9.730469 36 9.738281 36 9.75 36 C 9.898438 36.035156 10.027344 36.039063 10.125 36.03125 C 10.335938 36.015625 10.46875 35.988281 10.59375 35.9375 C 10.847656 35.835938 11.0625 35.691406 11.3125 35.53125 C 11.8125 35.210938 12.417969 34.753906 13.125 34.1875 C 14.535156 33.054688 16.300781 31.511719 18.0625 29.9375 C 21.28125 27.058594 24.136719 24.363281 24.65625 23.875 C 24.921875 23.953125 25.199219 24 25.5 24 C 25.523438 24 25.539063 24 25.5625 24 C 25.707031 24.28125 25.863281 24.539063 26.0625 24.78125 C 25.257813 25.570313 22.710938 28.0625 19.78125 31.03125 C 18.066406 32.769531 16.382813 34.539063 15.125 35.90625 C 14.496094 36.589844 13.960938 37.164063 13.59375 37.625 C 13.410156 37.855469 13.277344 38.046875 13.15625 38.25 C 13.09375 38.351563 13.023438 38.453125 12.96875 38.625 C 12.933594 38.730469 12.894531 38.917969 12.9375 39.15625 C 12.945313 39.1875 12.957031 39.21875 12.96875 39.25 C 12.976563 39.273438 12.960938 39.289063 12.96875 39.3125 C 13.003906 39.425781 13.054688 39.53125 13.125 39.625 C 13.132813 39.636719 13.144531 39.644531 13.15625 39.65625 C 13.167969 39.667969 13.175781 39.675781 13.1875 39.6875 C 13.242188 39.757813 13.304688 39.820313 13.375 39.875 C 13.402344 39.898438 13.4375 39.917969 13.46875 39.9375 C 13.519531 39.960938 13.570313 39.984375 13.625 40 C 14.230469 40.339844 14.96875 40.332031 15.59375 40.15625 C 16.367188 39.9375 17.15625 39.523438 18 38.96875 C 19.683594 37.855469 21.574219 36.199219 23.40625 34.46875 C 26.773438 31.289063 29.582031 28.160156 30.0625 27.625 C 30.484375 27.859375 30.96875 28 31.5 28 C 31.523438 28 31.539063 28 31.5625 28 C 31.625 28.121094 31.710938 28.230469 31.78125 28.34375 C 29.429688 31.390625 21.855469 40.894531 19.375 43.375 C 15.851563 46.898438 10.148438 46.898438 6.625 43.375 C 3.101563 39.851563 3.101563 34.148438 6.625 30.625 C 7.9375 29.3125 10.820313 26.9375 13.625 24.6875 C 15.929688 22.835938 17.988281 21.214844 19.40625 20.0625 Z M 22.625 22.09375 C 22.738281 22.304688 22.855469 22.5 23 22.6875 C 22.191406 23.445313 19.71875 25.78125 16.75 28.4375 C 15.003906 30 13.230469 31.535156 11.875 32.625 C 11.703125 32.761719 11.566406 32.878906 11.40625 33 C 11.515625 32.835938 11.585938 32.679688 11.71875 32.5 C 12.707031 31.175781 14.308594 29.523438 15.96875 27.9375 C 19.074219 24.972656 22.199219 22.4375 22.625 22.09375 Z M 27.78125 25.90625 C 28.007813 25.964844 28.246094 26 28.5 26 C 28.523438 26 28.539063 26 28.5625 26 C 28.589844 26.054688 28.625 26.105469 28.65625 26.15625 C 28.3125 26.542969 25.402344 29.8125 22.03125 33 C 20.242188 34.691406 18.371094 36.292969 16.875 37.28125 C 16.644531 37.433594 16.457031 37.539063 16.25 37.65625 C 16.386719 37.503906 16.445313 37.414063 16.59375 37.25 C 17.816406 35.917969 19.511719 34.167969 21.21875 32.4375 C 24.382813 29.230469 27.328125 26.347656 27.78125 25.90625 Z"/></svg>