<svg xmlns="http://www.w3.org/2000/svg"  viewBox="0 0 50 50" width="1000px" height="1000px"><path d="M 3 2 A 1.0001 1.0001 0 0 0 2.1035156 3.4453125 L 4.8007812 8.875 L 1.2167969 13.376953 A 1.0001 1.0001 0 0 0 2 15 L 4.9824219 15 L 5 44 A 1.0001 1.0001 0 0 0 6 45 L 22.478516 45 C 23.882939 46.281759 25.629412 47.323658 27.740234 47.957031 C 27.834234 47.984031 27.930344 48 28.027344 48 L 38.027344 48 C 38.124344 48 38.221453 47.984031 38.314453 47.957031 C 45.959453 45.663031 48 38.733 48 35 L 48 32 C 48 31.447 47.552 31 47 31 L 42.035156 31 L 47.400391 23.625 C 47.943391 22.878 48.129156 21.934109 47.910156 21.037109 C 47.691156 20.141109 47.092578 19.390516 46.267578 18.978516 C 44.805578 18.244516 43.054266 18.744672 42.197266 20.138672 L 39.021484 25.298828 L 39.021484 9.2324219 L 41.896484 3.4453125 A 1.0001 1.0001 0 0 0 41 2 L 15 2 L 3 2 z M 4.6132812 4 L 12.611328 4 L 11.277344 8 L 6.5996094 8 L 4.6132812 4 z M 14.720703 4 L 15 4 L 39.386719 4 L 37.400391 8 L 13.388672 8 L 14.720703 4 z M 6.4609375 10 L 9.9199219 10 L 7.5195312 13 L 6.1367188 13 A 1.0001 1.0001 0 0 0 5.9667969 12.986328 A 1.0001 1.0001 0 0 0 5.8222656 13 L 4.0742188 13 L 6.4609375 10 z M 13 10 L 37.021484 10 L 37.021484 28.511719 A 1.0001 1.0001 0 0 0 37.023438 28.546875 L 35.513672 31 L 19.027344 31 C 18.480344 31 18.035344 31.439328 18.027344 31.986328 C 18.027344 31.986328 18 33.995 18 35 C 18 37.575539 18.875865 40.511352 20.697266 43 L 13 43 L 13 10 z M 11 11.851562 L 11 43 L 7 43 L 6.9824219 15 L 8 15 A 1.0001 1.0001 0 0 0 8.78125 14.625 L 11 11.851562 z M 25.041016 13 A 1.0001 1.0001 0 0 0 24.326172 13.261719 L 22.683594 14.761719 C 21.712437 15.650091 21.165553 16.812138 21.044922 18.003906 C 21.029661 18.003758 21.015305 18 21 18 L 19 18 A 1.0001 1.0001 0 0 0 18 19 L 18 21 C 18 23.749516 20.250484 26 23 26 L 25 26 L 27 26 C 29.749516 26 32 23.749516 32 21 L 32 19 A 1.0001 1.0001 0 0 0 31 18 L 29 18 C 28.984695 18 28.970339 18.003758 28.955078 18.003906 C 28.834659 16.812165 28.288009 15.650499 27.316406 14.761719 L 25.673828 13.261719 A 1.0001 1.0001 0 0 0 25.041016 13 z M 25 15.355469 L 25.966797 16.238281 C 26.673993 16.885194 26.920181 17.695465 26.910156 18.507812 C 26.631102 18.648736 26.366226 18.813776 26.119141 19.003906 C 25.693749 19.29013 25.308793 19.626692 25 20.039062 C 24.69129 19.626703 24.306291 19.290133 23.880859 19.003906 C 23.633774 18.813776 23.368898 18.648736 23.089844 18.507812 C 23.079016 17.695332 23.325607 16.88556 24.033203 16.238281 L 25 15.355469 z M 20 20 L 21 20 C 21.232342 20 21.455287 20.031123 21.671875 20.080078 A 1.0001 1.0001 0 0 0 21.679688 20.083984 A 1.0001 1.0001 0 0 0 21.800781 20.126953 C 22.431766 20.30285 22.9781 20.674105 23.369141 21.171875 C 23.370845 21.174045 23.373302 21.17556 23.375 21.177734 C 23.375864 21.178863 23.37609 21.180511 23.376953 21.181641 C 23.455017 21.281884 23.523088 21.390009 23.587891 21.5 C 23.620037 21.555713 23.651095 21.61197 23.679688 21.669922 C 23.724376 21.758679 23.765054 21.849636 23.800781 21.943359 C 23.834224 22.032933 23.861766 22.125226 23.886719 22.21875 C 23.907345 22.294564 23.93066 22.369025 23.945312 22.447266 C 23.978299 22.626854 24 22.81023 24 23 L 24 24 L 23 24 C 21.331516 24 20 22.668484 20 21 L 20 20 z M 29 20 L 30 20 L 30 21 C 30 22.668484 28.668484 24 27 24 L 26 24 L 26 23.013672 A 1.0001 1.0001 0 0 0 26 23 C 26 22.81023 26.021701 22.626854 26.054688 22.447266 C 26.069326 22.369026 26.092673 22.294563 26.113281 22.21875 C 26.138234 22.125226 26.165776 22.032933 26.199219 21.943359 C 26.234918 21.849638 26.275653 21.758676 26.320312 21.669922 C 26.349159 21.611454 26.379646 21.554234 26.412109 21.498047 C 26.474232 21.3927 26.538959 21.289772 26.613281 21.193359 C 26.624459 21.178566 26.636992 21.164965 26.648438 21.150391 C 27.03807 20.664112 27.57733 20.300212 28.199219 20.126953 A 1.0001 1.0001 0 0 0 28.330078 20.080078 C 28.546104 20.031393 28.768317 20 29 20 z M 44.962891 20.650391 C 45.101422 20.663047 45.239094 20.700578 45.371094 20.767578 L 45.373047 20.767578 C 45.676047 20.918578 45.885797 21.182719 45.966797 21.511719 C 46.046797 21.841719 45.98025 22.175219 45.78125 22.449219 L 39.5625 31 L 37.861328 31 L 43.900391 21.1875 C 44.132891 20.8095 44.547297 20.612422 44.962891 20.650391 z M 20.015625 33 L 46 33 L 46 35 C 46 38.158 44.285906 44.002 37.878906 46 L 28.177734 46 C 21.713734 43.983 20 37.936 20 35 C 20 34.466 20.008625 33.646 20.015625 33 z"/></svg>