<svg xmlns="http://www.w3.org/2000/svg"  viewBox="0 0 50 50" width="1000px" height="1000px"><path d="M 39 2.0058594 C 36.69525 2.0058594 34.389766 2.8827187 32.634766 4.6367188 L 27.634766 9.6367188 C 26.618766 10.653719 25.905516 11.857719 25.478516 13.136719 C 26.307516 12.652719 27.209203 12.313625 28.158203 12.140625 C 28.413203 11.754625 28.711781 11.389781 29.050781 11.050781 L 34.050781 6.0507812 C 35.415781 4.6867813 37.207 4.0039062 39 4.0039062 C 40.793 4.0039062 42.584219 4.6867813 43.949219 6.0507812 C 46.678219 8.7797812 46.678219 13.220219 43.949219 15.949219 L 38.949219 20.949219 C 36.219219 23.678219 31.778781 23.678219 29.050781 20.949219 C 28.470781 20.369219 28.026359 19.709812 27.693359 19.007812 L 26.210938 20.488281 C 26.595938 21.157281 27.065719 21.791281 27.636719 22.363281 C 29.391719 24.117281 31.696 24.994141 34 24.994141 C 36.304 24.994141 38.608281 24.117281 40.363281 22.363281 L 45.363281 17.363281 C 48.872281 13.853281 48.872281 8.1467187 45.363281 4.6367188 C 43.608281 2.8827187 41.30475 2.0058594 39 2.0058594 z M 29.667969 14 C 27.976969 14 26.3845 14.658516 25.1875 15.853516 L 15.855469 25.1875 C 13.385469 27.6575 13.385469 31.674531 15.855469 34.144531 C 17.089469 35.378531 18.710984 35.996094 20.333984 35.996094 C 20.414984 35.996094 20.497125 35.987375 20.578125 35.984375 C 20.860125 35.331375 20.999234 34.633594 20.990234 33.933594 C 19.672234 34.134594 18.282531 33.742469 17.269531 32.730469 C 15.580531 31.041469 15.580531 28.290563 17.269531 26.601562 L 26.601562 17.269531 C 27.420562 16.451531 28.510969 16 29.667969 16 C 30.824969 16 31.912469 16.450531 32.730469 17.269531 C 33.548469 18.088531 34 19.175031 34 20.332031 C 34 20.556031 33.968547 20.773234 33.935547 20.990234 C 33.957547 20.990234 33.979 20.996094 34 20.996094 C 34.697 20.996094 35.368281 20.848078 35.988281 20.580078 C 35.991281 20.497078 36 20.415031 36 20.332031 C 36 18.641031 35.340531 17.052469 34.144531 15.855469 C 32.947531 14.659469 31.358969 14 29.667969 14 z M 13.123047 25.494141 C 11.850047 25.921141 10.649719 26.623719 9.6367188 27.636719 L 4.6367188 32.636719 C 1.1277188 36.146719 1.1277188 41.855234 4.6367188 45.365234 C 6.3917187 47.119234 8.696 47.996094 11 47.996094 C 13.304 47.996094 15.608281 47.119234 17.363281 45.365234 L 22.363281 40.365234 C 25.872281 36.854234 25.872281 31.146719 22.363281 27.636719 C 21.791281 27.065719 21.157281 26.595938 20.488281 26.210938 L 19.011719 27.689453 C 19.712719 28.022453 20.370219 28.471781 20.949219 29.050781 C 23.678219 31.779781 23.678219 36.220219 20.949219 38.949219 L 15.949219 43.949219 C 13.219219 46.678219 8.7787812 46.678219 6.0507812 43.949219 C 3.3217812 41.220219 3.3217812 36.779781 6.0507812 34.050781 L 11.050781 29.050781 C 11.392781 28.709781 11.759437 28.410297 12.148438 28.154297 C 12.316437 27.230297 12.641047 26.329141 13.123047 25.494141 z M 29.919922 26.207031 L 26.197266 29.929688 C 26.482266 30.645688 26.692312 31.385719 26.820312 32.136719 L 32.126953 26.828125 C 31.367953 26.698125 30.627922 26.492031 29.919922 26.207031 z"/></svg>