<svg fill="#000000" xmlns="http://www.w3.org/2000/svg"  viewBox="0 0 50 50" width="1000px" height="1000px"><path d="M 42.46875 2.007813 C 41.25 2.007813 40.03125 2.46875 39.109375 3.390625 L 37.292969 5.207031 C 36.941406 5.558594 36.902344 6.117188 37.203125 6.515625 L 35.078125 8.640625 C 30.746094 12.972656 27.132813 14.285156 23.503906 15.496094 C 19.878906 16.707031 16.175781 17.8125 12.371094 21.621094 L 3.195313 30.792969 C 1.609375 32.378906 1.609375 34.980469 3.195313 36.570313 L 8.3125 41.6875 L 13.429688 46.800781 C 15.019531 48.390625 17.621094 48.390625 19.207031 46.800781 L 28.378906 37.628906 C 32.1875 33.824219 33.292969 30.121094 34.5 26.496094 C 35.710938 22.867188 37.023438 19.253906 41.359375 14.921875 L 43.484375 12.796875 C 43.882813 13.097656 44.441406 13.058594 44.792969 12.707031 L 46.609375 10.890625 C 48.457031 9.042969 48.457031 6.019531 46.609375 4.171875 L 45.828125 3.390625 C 44.902344 2.46875 43.6875 2.003906 42.46875 2.007813 Z M 42.46875 3.992188 C 43.171875 3.996094 43.875 4.265625 44.417969 4.804688 L 45.195313 5.585938 C 46.277344 6.667969 46.277344 8.394531 45.195313 9.476563 L 44.09375 10.578125 L 41.757813 8.242188 C 41.730469 8.214844 41.699219 8.1875 41.667969 8.164063 L 39.417969 5.914063 L 40.519531 4.804688 C 41.0625 4.265625 41.765625 3.992188 42.46875 3.992188 Z M 25 4 C 24.449219 4 24 4.449219 24 5 C 24 5.550781 24.449219 6 25 6 C 25.550781 6 26 5.550781 26 5 C 26 4.449219 25.550781 4 25 4 Z M 31 7 C 30.449219 7 30 7.449219 30 8 C 30 8.550781 30.449219 9 31 9 C 31.550781 9 32 8.550781 32 8 C 32 7.449219 31.550781 7 31 7 Z M 38.609375 7.9375 L 42.0625 11.390625 L 39.941406 13.507813 C 38.441406 15.011719 37.292969 16.453125 36.347656 17.855469 L 32.144531 13.652344 C 33.546875 12.707031 34.988281 11.558594 36.492188 10.058594 Z M 30.402344 14.734375 L 35.265625 19.597656 C 34.410156 21.113281 33.785156 22.570313 33.269531 23.96875 L 27.84375 22.15625 L 26.03125 16.730469 C 27.429688 16.214844 28.886719 15.589844 30.402344 14.734375 Z M 24.144531 17.390625 L 26.105469 23.265625 C 26.203125 23.5625 26.4375 23.796875 26.734375 23.894531 L 32.609375 25.855469 C 32.605469 25.855469 32.605469 25.859375 32.605469 25.859375 C 31.382813 29.53125 30.460938 32.722656 26.96875 36.21875 L 17.796875 45.390625 C 16.972656 46.210938 15.667969 46.210938 14.84375 45.390625 L 4.609375 35.15625 C 3.789063 34.332031 3.789063 33.027344 4.609375 32.203125 L 13.78125 23.03125 C 17.277344 19.539063 20.46875 18.617188 24.140625 17.394531 C 24.140625 17.394531 24.144531 17.394531 24.144531 17.390625 Z M 44 18 C 43.449219 18 43 18.449219 43 19 C 43 19.550781 43.449219 20 44 20 C 44.550781 20 45 19.550781 45 19 C 45 18.449219 44.550781 18 44 18 Z M 47 22 C 46.449219 22 46 22.449219 46 23 C 46 23.550781 46.449219 24 47 24 C 47.550781 24 48 23.550781 48 23 C 48 22.449219 47.550781 22 47 22 Z M 42 24 C 41.449219 24 41 24.449219 41 25 C 41 25.550781 41.449219 26 42 26 C 42.550781 26 43 25.550781 43 25 C 43 24.449219 42.550781 24 42 24 Z M 23 25 C 21.894531 25 21 25.894531 21 27 C 21 28.105469 21.894531 29 23 29 C 24.105469 29 25 28.105469 25 27 C 25 25.894531 24.105469 25 23 25 Z M 15.304688 25.566406 C 15.042969 25.570313 14.796875 25.675781 14.609375 25.859375 L 8.3125 32.160156 C 7.921875 32.550781 7.921875 33.1875 8.3125 33.578125 L 16.421875 41.6875 C 16.8125 42.074219 17.449219 42.074219 17.839844 41.6875 L 24.136719 35.386719 C 24.527344 34.996094 24.527344 34.363281 24.136719 33.972656 L 16.027344 25.859375 C 15.835938 25.671875 15.574219 25.566406 15.304688 25.566406 Z M 15.316406 27.984375 L 22.015625 34.679688 L 17.128906 39.5625 L 10.433594 32.871094 Z"/></svg>