<svg xmlns="http://www.w3.org/2000/svg"  viewBox="0 0 50 50" width="1000px" height="1000px"><path d="M 8 2 L 8 8.6875 C 7.96875 8.800781 7.960938 8.914063 7.96875 9.03125 C 7.96875 9.042969 7.96875 9.050781 7.96875 9.0625 C 7.855469 9.40625 7.222656 11.25 6.53125 13.90625 C 5.773438 16.824219 5 20.335938 5 23 L 5 48 L 38.21875 48 L 38.40625 47.90625 L 45.40625 44.90625 L 46 44.65625 L 46 20 C 46 14.210938 42.339844 9.179688 42 8.71875 L 42 2 Z M 10 4 L 40 4 L 40 8 L 39 8 C 38.96875 8 38.9375 8 38.90625 8 C 38.875 8 38.84375 8 38.8125 8 C 38.261719 8.050781 37.855469 8.542969 37.90625 9.09375 C 37.957031 9.644531 38.449219 10.050781 39 10 L 39.625 10 C 38.855469 12.410156 37 18.835938 37 25 L 37 46 L 7 46 L 7 23 C 7 20.738281 7.726563 17.257813 8.46875 14.40625 C 9.035156 12.222656 9.488281 10.734375 9.71875 10 L 11 10 C 11.359375 10.003906 11.695313 9.816406 11.878906 9.503906 C 12.058594 9.191406 12.058594 8.808594 11.878906 8.496094 C 11.695313 8.183594 11.359375 7.996094 11 8 L 10 8 Z M 13.71875 8 C 13.167969 8.078125 12.78125 8.589844 12.859375 9.140625 C 12.9375 9.691406 13.449219 10.078125 14 10 L 16 10 C 16.359375 10.003906 16.695313 9.816406 16.878906 9.503906 C 17.058594 9.191406 17.058594 8.808594 16.878906 8.496094 C 16.695313 8.183594 16.359375 7.996094 16 8 L 14 8 C 13.96875 8 13.9375 8 13.90625 8 C 13.875 8 13.84375 8 13.8125 8 C 13.78125 8 13.75 8 13.71875 8 Z M 18.71875 8 C 18.167969 8.078125 17.78125 8.589844 17.859375 9.140625 C 17.9375 9.691406 18.449219 10.078125 19 10 L 21 10 C 21.359375 10.003906 21.695313 9.816406 21.878906 9.503906 C 22.058594 9.191406 22.058594 8.808594 21.878906 8.496094 C 21.695313 8.183594 21.359375 7.996094 21 8 L 19 8 C 18.96875 8 18.9375 8 18.90625 8 C 18.875 8 18.84375 8 18.8125 8 C 18.78125 8 18.75 8 18.71875 8 Z M 23.71875 8 C 23.167969 8.078125 22.78125 8.589844 22.859375 9.140625 C 22.9375 9.691406 23.449219 10.078125 24 10 L 26 10 C 26.359375 10.003906 26.695313 9.816406 26.878906 9.503906 C 27.058594 9.191406 27.058594 8.808594 26.878906 8.496094 C 26.695313 8.183594 26.359375 7.996094 26 8 L 24 8 C 23.96875 8 23.9375 8 23.90625 8 C 23.875 8 23.84375 8 23.8125 8 C 23.78125 8 23.75 8 23.71875 8 Z M 28.71875 8 C 28.167969 8.078125 27.78125 8.589844 27.859375 9.140625 C 27.9375 9.691406 28.449219 10.078125 29 10 L 31 10 C 31.359375 10.003906 31.695313 9.816406 31.878906 9.503906 C 32.058594 9.191406 32.058594 8.808594 31.878906 8.496094 C 31.695313 8.183594 31.359375 7.996094 31 8 L 29 8 C 28.96875 8 28.9375 8 28.90625 8 C 28.875 8 28.84375 8 28.8125 8 C 28.78125 8 28.75 8 28.71875 8 Z M 33.71875 8 C 33.167969 8.078125 32.78125 8.589844 32.859375 9.140625 C 32.9375 9.691406 33.449219 10.078125 34 10 L 36 10 C 36.359375 10.003906 36.695313 9.816406 36.878906 9.503906 C 37.058594 9.191406 37.058594 8.808594 36.878906 8.496094 C 36.695313 8.183594 36.359375 7.996094 36 8 L 34 8 C 33.96875 8 33.9375 8 33.90625 8 C 33.875 8 33.84375 8 33.8125 8 C 33.78125 8 33.75 8 33.71875 8 Z M 41.3125 11.34375 C 42.4375 13.324219 44 16.699219 44 20 L 44 43.34375 L 39 45.5 L 39 25 C 39 19.945313 40.453125 14.269531 41.3125 11.34375 Z M 22.90625 17.03125 L 20.625 19.25 C 20.625 19.25 18.980469 20.859375 17.34375 23.21875 C 15.707031 25.578125 14 28.722656 14 32.03125 C 14 34.832031 15.257813 36.914063 16.875 38.1875 C 18.492188 39.460938 20.417969 40 22 40 C 24.742188 40 26.835938 39.074219 28.15625 37.5625 C 29.476563 36.050781 30 34.046875 30 32 C 30 27.882813 27.78125 24.375 27.78125 24.375 L 27.03125 23.125 L 26.15625 24.28125 C 26.15625 24.28125 25.847656 24.6875 25.3125 25.03125 C 24.777344 25.375 24.171875 25.605469 23.40625 25.34375 C 22.996094 25.203125 22.746094 24.933594 22.53125 24.46875 C 22.316406 24.003906 22.195313 23.371094 22.15625 22.71875 C 22.074219 21.417969 22.28125 20.15625 22.28125 20.15625 Z M 20.15625 22.90625 C 20.210938 23.695313 20.351563 24.523438 20.71875 25.3125 C 21.09375 26.121094 21.761719 26.878906 22.75 27.21875 C 24.207031 27.71875 25.527344 27.261719 26.375 26.71875 C 26.515625 26.628906 26.472656 26.59375 26.59375 26.5 C 27.144531 27.597656 28 29.523438 28 32 C 28 33.703125 27.570313 35.199219 26.65625 36.25 C 26.078125 36.910156 25.296875 37.421875 24.21875 37.71875 C 24.757813 36.898438 25 35.847656 25 35 C 25 33.394531 24 31 24 31 C 24 31 23.421875 33.324219 22.46875 33 C 21.273438 32.589844 21 28 21 28 C 21 28 19 31.90625 19 34.4375 C 19 35.824219 19.3125 36.816406 19.75 37.53125 C 19.183594 37.3125 18.628906 37.019531 18.125 36.625 C 16.914063 35.671875 16 34.257813 16 32.03125 C 16 29.433594 17.449219 26.566406 18.96875 24.375 C 19.570313 23.507813 19.652344 23.5 20.15625 22.90625 Z"/></svg>