<svg fill="#000000" xmlns="http://www.w3.org/2000/svg"  viewBox="0 0 50 50" width="1000px" height="1000px"><path d="M 15.847656 4.464844 C 4.152344 8.214844 0.375 18.75 0.101563 19.546875 C 0.0351563 19.683594 0 19.832031 0 19.984375 C 0 19.988281 0 19.992188 0 19.996094 C 0 19.996094 0 20 0 20 L 0 42.527344 C 0 43.972656 1.203125 45.160156 2.632813 45.160156 C 2.707031 45.160156 2.773438 45.160156 2.832031 45.15625 C 2.835938 45.15625 2.839844 45.15625 2.84375 45.15625 L 47.304688 41.828125 C 47.304688 41.828125 47.308594 41.828125 47.308594 41.828125 C 48.824219 41.710938 50 40.441406 50 38.921875 L 50 32.109375 C 50 31.679688 49.726563 31.296875 49.316406 31.160156 C 49.316406 31.160156 48.714844 30.953125 48.109375 30.488281 C 47.5 30.027344 47 29.425781 47 28.523438 C 47 27.621094 47.5 27.019531 48.109375 26.558594 C 48.714844 26.09375 49.316406 25.886719 49.316406 25.886719 C 49.726563 25.746094 50 25.367188 50 24.9375 L 50 20 C 50 19.980469 50 19.960938 50 19.941406 C 49.996094 19.917969 49.996094 19.894531 49.992188 19.871094 C 49.945313 19.460938 49.652344 19.125 49.253906 19.019531 L 16.5625 4.503906 L 16.15625 6.417969 Z M 16.140625 6.507813 L 20.417969 8.40625 C 20.175781 8.488281 19.941406 8.582031 19.722656 8.691406 C 18.820313 9.144531 18 9.90625 18 11 C 18 12.089844 18.820313 12.855469 19.722656 13.308594 C 20.628906 13.757813 21.757813 13.996094 23 13.996094 C 24.238281 13.996094 25.371094 13.757813 26.277344 13.308594 C 26.96875 12.960938 27.605469 12.429688 27.871094 11.714844 L 44.28125 19 L 35.796875 19 C 35.652344 18.65625 35.449219 18.351563 35.203125 18.121094 C 34.738281 17.675781 34.183594 17.441406 33.652344 17.289063 C 32.582031 16.984375 31.5 17 31 17 C 30.496094 17 29.417969 16.984375 28.347656 17.289063 C 27.816406 17.441406 27.261719 17.675781 26.796875 18.121094 C 26.550781 18.351563 26.347656 18.65625 26.203125 19 L 2.492188 19 C 3.65625 16.308594 7.378906 9.464844 16.140625 6.507813 Z M 23 10 C 23.277344 10 23.550781 10.015625 23.808594 10.046875 C 23.90625 10.058594 24.007813 10.058594 24.105469 10.042969 L 25.925781 10.847656 C 25.9375 10.878906 25.953125 10.90625 25.96875 10.933594 C 26.003906 10.988281 26 10.992188 26 11 C 26 11.007813 25.925781 11.246094 25.382813 11.515625 C 24.839844 11.789063 23.96875 11.996094 23 11.996094 C 22.027344 11.996094 21.160156 11.789063 20.617188 11.515625 C 20.074219 11.246094 20 11.007813 20 11 C 20 10.988281 20.078125 10.75 20.621094 10.480469 C 21.160156 10.210938 22.027344 10 23 10 Z M 31 19 C 31.5 19 32.417969 19.015625 33.097656 19.210938 C 33.441406 19.308594 33.699219 19.449219 33.828125 19.570313 C 33.957031 19.691406 34 19.75 34 20 C 34 21.667969 32.667969 23 31 23 C 29.332031 23 28 21.667969 28 20 C 28 19.75 28.042969 19.691406 28.171875 19.570313 C 28.300781 19.449219 28.558594 19.308594 28.898438 19.210938 C 29.578125 19.015625 30.496094 19 31 19 Z M 2 21 L 26.101563 21 C 26.566406 23.273438 28.59375 25 31 25 C 33.40625 25 35.433594 23.273438 35.898438 21 L 48 21 L 48 24.359375 C 47.65625 24.507813 47.445313 24.546875 46.890625 24.96875 C 46 25.652344 45 26.847656 45 28.523438 C 45 30.199219 46 31.390625 46.890625 32.078125 C 47.445313 32.5 47.65625 32.535156 48 32.683594 L 48 38.921875 C 48 39.355469 47.589844 39.796875 47.15625 39.832031 L 30.199219 41.101563 C 30.703125 40.242188 31 39.261719 31 38.21875 C 31 34.714844 27.785156 32 24 32 C 20.214844 32 17 34.714844 17 38.21875 C 17 39.640625 17.550781 40.941406 18.441406 41.980469 L 2.695313 43.160156 C 2.667969 43.160156 2.644531 43.160156 2.632813 43.160156 C 2.238281 43.160156 2 42.9375 2 42.527344 Z M 11 23 C 7.804688 23 5 25.117188 5 28 C 5 30.886719 7.804688 33 11 33 C 14.191406 33 17 30.886719 17 28 C 17 25.117188 14.191406 23 11 23 Z M 11 25 C 13.328125 25 15 26.46875 15 28 C 15 29.535156 13.328125 31 11 31 C 8.667969 31 7 29.535156 7 28 C 7 26.46875 8.667969 25 11 25 Z M 37.5 30 C 35.101563 30 33 31.714844 33 34 C 33 36.289063 35.101563 38 37.5 38 C 39.894531 38 42 36.289063 42 34 C 42 31.714844 39.894531 30 37.5 30 Z M 37.5 32 C 38.96875 32 40 32.976563 40 34 C 40 35.027344 38.96875 36 37.5 36 C 36.027344 36 35 35.027344 35 34 C 35 32.976563 36.027344 32 37.5 32 Z M 24 34 C 26.84375 34 29 35.960938 29 38.21875 C 29 39.320313 28.507813 40.324219 27.648438 41.09375 C 27.578125 41.15625 27.515625 41.226563 27.464844 41.308594 L 21.285156 41.765625 C 21.242188 41.734375 21.199219 41.703125 21.152344 41.675781 C 19.816406 40.894531 19 39.628906 19 38.21875 C 19 35.960938 21.15625 34 24 34 Z"/></svg>