<svg xmlns="http://www.w3.org/2000/svg"  viewBox="0 0 50 50" width="1000px" height="1000px"><path d="M 20.482422 11.185547 C 20.06964 11.194147 19.65951 11.288452 19.277344 11.466797 L 6.2304688 17.556641 C 5.1771896 18.048601 4.5 19.111292 4.5 20.273438 L 4.5 41 C 4.5 42.64497 5.8550302 44 7.5 44 L 44.5 44 A 1.0001 1.0001 0 0 0 45.5 43 L 45.5 22 A 1.0001 1.0001 0 0 0 44.884766 21.076172 L 21.699219 11.416016 C 21.310391 11.254191 20.895204 11.176914 20.482422 11.185547 z M 20.525391 13.185547 C 20.662686 13.182588 20.799754 13.20795 20.929688 13.261719 L 24.591797 14.787109 L 11.076172 21.09375 A 1.0001 1.0001 0 0 0 10.5 22 L 10.5 38 A 1.0001 1.0001 0 0 0 11.5 39 L 43.5 39 L 43.5 42 L 7.5 42 C 6.9349698 42 6.5 41.56503 6.5 41 L 6.5 20.273438 C 6.5 19.882538 6.7229369 19.533716 7.0761719 19.369141 A 1.0001 1.0001 0 0 0 7.0761719 19.367188 L 20.123047 13.279297 C 20.250572 13.219785 20.388095 13.188506 20.525391 13.185547 z M 27.089844 15.828125 L 41.902344 22 L 13.865234 22 L 27.089844 15.828125 z M 12.5 24 L 43.5 24 L 43.5 37 L 12.5 37 L 12.5 24 z"/></svg>