<svg fill="#000000" xmlns="http://www.w3.org/2000/svg"  viewBox="0 0 50 50" width="1000px" height="1000px"><path d="M 30.875 2 C 30.675781 2.027344 30.492188 2.117188 30.34375 2.25 C 30.34375 2.25 29.855469 2.65625 29.34375 3.28125 C 28.949219 3.761719 28.625 4.492188 28.34375 5.21875 C 26.21875 6.175781 22.78125 8.09375 19.75 11.5 C 16.804688 14.808594 14.316406 19.5 14.03125 25.78125 C 13.996094 25.761719 13.972656 25.769531 13.9375 25.75 C 13.238281 25.390625 12.242188 25 11 25 C 9.238281 25 6.996094 25.421875 5.15625 26.96875 C 3.316406 28.515625 2 31.167969 2 35.1875 C 2 42.296875 8.179688 48 15 48 C 18.253906 48 21.519531 46.5625 23.96875 44.21875 C 27.742188 47.96875 33.550781 49.179688 38.8125 46.59375 C 44.699219 43.703125 47.949219 35.671875 44.75 29.15625 C 42.914063 25.421875 40.285156 23.703125 37.84375 23.1875 C 36.625 22.929688 35.484375 22.945313 34.5 23.09375 C 33.515625 23.242188 32.679688 23.523438 32.09375 23.8125 C 30.953125 24.375 30.246094 25.207031 29.78125 25.84375 C 29.121094 24.175781 28.429688 21.683594 28.15625 18.84375 C 27.957031 16.785156 27.980469 14.53125 28.3125 12.21875 C 28.855469 13.640625 29.773438 15.097656 31.34375 16.28125 C 33.085938 17.59375 35.203125 18.035156 37.1875 18 C 39.171875 17.964844 41.035156 17.460938 42.4375 16.78125 C 42.707031 16.652344 42.90625 16.410156 42.980469 16.121094 C 43.050781 15.828125 42.992188 15.523438 42.8125 15.28125 C 41.503906 13.535156 40.570313 10.179688 37.4375 8.21875 C 35.390625 6.9375 33.226563 6.351563 31.5625 6.0625 C 31.773438 5.875 31.992188 5.679688 32.1875 5.5 C 32.59375 5.128906 32.925781 4.859375 33.1875 4.4375 C 33.398438 4.085938 33.375 3.640625 33.125 3.3125 C 32.703125 2.757813 32.226563 2.433594 31.84375 2.25 C 31.460938 2.066406 31.09375 2 31.09375 2 C 31.019531 1.992188 30.949219 1.992188 30.875 2 Z M 29.65625 7.875 C 30.773438 7.910156 33.480469 8.097656 36.375 9.90625 C 38.371094 11.15625 39.269531 13.359375 40.5 15.375 C 39.503906 15.714844 38.378906 15.976563 37.15625 16 C 35.492188 16.03125 33.8125 15.65625 32.53125 14.6875 C 29.402344 12.328125 29.542969 9.050781 29.65625 7.875 Z M 27.21875 8.0625 C 26.042969 11.898438 25.835938 15.734375 26.15625 19.0625 C 26.460938 22.222656 27.207031 24.890625 28 26.78125 C 27.949219 26.78125 27.925781 26.78125 27.875 26.78125 C 27.089844 26.761719 26.015625 26.835938 24.90625 27.375 C 24.742188 27.226563 24.578125 27.070313 24.40625 26.9375 C 22.449219 25.429688 20.296875 25 19 25 C 17.734375 25 16.757813 25.421875 16.0625 25.78125 C 16.050781 25.785156 16.042969 25.777344 16.03125 25.78125 C 16.308594 20.019531 18.566406 15.863281 21.25 12.84375 C 23.265625 10.578125 25.425781 9.070313 27.21875 8.0625 Z M 36.03125 25 C 36.476563 25.003906 36.933594 25.054688 37.40625 25.15625 C 39.296875 25.554688 41.355469 26.75 42.96875 30.03125 C 45.628906 35.453125 42.738281 42.453125 37.9375 44.8125 C 33.359375 47.0625 28.472656 46.019531 25.28125 42.75 C 26.945313 40.636719 28 38.042969 28 35.1875 C 28 32.523438 27.308594 30.460938 26.28125 28.9375 C 26.8125 28.769531 27.308594 28.769531 27.8125 28.78125 C 28.472656 28.796875 29.113281 29.015625 29.96875 28.59375 C 30.828125 28.171875 31.023438 27.523438 31.40625 27 C 31.789063 26.476563 32.203125 26 32.96875 25.625 C 33.519531 25.355469 34.691406 24.992188 36.03125 25 Z M 11 27 C 11.816406 27 12.417969 27.234375 13 27.53125 C 13.582031 27.828125 14.054688 28.3125 15 28.3125 C 15.945313 28.3125 16.398438 27.828125 16.96875 27.53125 C 17.539063 27.234375 18.148438 27 19 27 C 19.820313 27 21.671875 27.332031 23.1875 28.5 C 23.347656 28.625 23.503906 28.765625 23.65625 28.90625 C 23.742188 29.25 24.003906 29.523438 24.34375 29.625 C 25.304688 30.828125 26 32.574219 26 35.1875 C 26 37.714844 24.933594 40.050781 23.3125 41.90625 C 23.277344 41.933594 23.246094 41.964844 23.21875 42 C 23.214844 42.007813 23.222656 42.023438 23.21875 42.03125 C 23.144531 42.09375 23.082031 42.167969 23.03125 42.25 C 20.882813 44.539063 17.867188 46 15 46 C 9.308594 46 4 41.125 4 35.1875 C 4 31.589844 5.078125 29.644531 6.4375 28.5 C 7.796875 27.355469 9.566406 27 11 27 Z"/></svg>