<svg xmlns="http://www.w3.org/2000/svg"  viewBox="0 0 50 50" width="1000px" height="1000px"><path d="M 32.552734 1.0078125 C 29.79623 1.0078125 27.046863 2.0062718 24.873047 3.9785156 A 1.0001 1.0001 0 0 0 24.539062 4.28125 C 24.513168 4.3066632 24.484694 4.327806 24.458984 4.3535156 L 19.886719 8.9257812 C 18.057566 7.7110467 15.860397 7 13.5 7 C 7.1663101 7 2 12.104489 2 18.388672 L 2 20.832031 A 1.0001 1.0001 0 0 0 2 21.158203 L 2 29.832031 A 1.0001 1.0001 0 0 0 2 30.158203 L 2 31.611328 C 2 37.862852 7.113749 42.943418 13.402344 42.996094 C 15.33208 46.565953 19.078914 49 23.388672 49 L 33.832031 49 A 1.0001 1.0001 0 0 0 34.158203 49 L 36.611328 49 C 42.895511 49 48 43.83369 48 37.5 C 48 32.963896 45.374732 29.037518 41.580078 27.167969 A 1.0001 1.0001 0 0 0 41.298828 27.03125 C 39.867343 26.374641 38.283973 26 36.611328 26 L 35.189453 26 L 37.304688 23.882812 L 40.646484 20.541016 C 45.108576 16.078924 45.108717 8.8146543 40.646484 4.3535156 C 38.415863 2.122894 35.484227 1.0078125 32.552734 1.0078125 z M 32.552734 2.9941406 C 34.968242 2.9941406 37.384044 3.9191998 39.232422 5.7675781 C 42.93019 9.4644395 42.93033 15.427092 39.232422 19.125 L 36.402344 21.957031 L 33 20.363281 L 33 18 A 1.0001 1.0001 0 0 0 32.707031 17.292969 L 30.707031 15.292969 A 1.0001 1.0001 0 0 0 29.990234 14.990234 A 1.0001 1.0001 0 0 0 29.292969 16.707031 L 31 18.414062 L 31 21 A 1.0001 1.0001 0 0 0 31.576172 21.90625 L 34.896484 23.460938 L 31.576172 26.783203 L 29.125 29.232422 C 29.115109 29.242313 29.103673 29.249929 29.09375 29.259766 C 27.916405 30.424797 26.489428 31.103031 25 31.519531 L 25 25.167969 A 1.0001 1.0001 0 0 0 25 24.841797 L 25 18.388672 C 25 15.165051 23.634229 12.258525 21.455078 10.185547 L 25.679688 5.9628906 L 29.175781 6.8261719 L 30.029297 10.242188 A 1.0001 1.0001 0 0 0 31.316406 10.949219 L 34 10.054688 L 36.683594 10.949219 A 1.0005645 1.0005645 0 1 0 37.316406 9.0507812 L 34.316406 8.0507812 A 1.0001 1.0001 0 0 0 33.683594 8.0507812 L 31.708984 8.7089844 L 30.970703 5.7578125 A 1.0001 1.0001 0 0 0 30.240234 5.0292969 L 27.642578 4.3867188 C 29.147855 3.4651903 30.847409 2.9941406 32.552734 2.9941406 z M 13.5 9 C 15.621477 9 17.569003 9.6901423 19.146484 10.84375 L 19.376953 11.023438 C 20.468858 11.875284 21.36333 12.954739 21.992188 14.189453 C 22.010191 14.225052 22.027364 14.261019 22.044922 14.296875 C 22.170262 14.551049 22.282736 14.813622 22.384766 15.080078 C 22.413862 15.156651 22.443584 15.233032 22.470703 15.310547 C 22.554063 15.547021 22.625216 15.788423 22.689453 16.033203 C 22.713694 16.126237 22.740305 16.218365 22.761719 16.3125 C 22.816542 16.551884 22.856714 16.796859 22.892578 17.042969 C 22.907506 17.14607 22.927927 17.247399 22.939453 17.351562 C 22.977374 17.692225 23 18.037588 23 18.388672 L 23 24 L 21.302734 24 L 18.554688 22.167969 A 1.0001 1.0001 0 0 0 17.988281 22 A 1.0001 1.0001 0 0 0 17.445312 22.167969 L 14.445312 24.167969 A 1.0001 1.0001 0 0 0 14.167969 24.445312 L 12.167969 27.445312 A 1.0001 1.0001 0 1 0 13.832031 28.554688 L 15.720703 25.720703 L 18 24.201172 L 20.445312 25.832031 A 1.0001 1.0001 0 0 0 21 26 L 23 26 L 23 31.611328 C 23 31.986916 22.969435 32.367119 22.921875 32.757812 L 22.921875 32.759766 C 22.921875 32.759766 22.921875 32.761719 22.921875 32.761719 C 22.365711 37.252185 18.611702 40.756026 13.957031 40.974609 L 13.460938 40.998047 C 8.214975 40.977093 4 36.79014 4 31.611328 L 4 31 L 6.5859375 31 L 11.292969 35.707031 A 1.0001 1.0001 0 0 0 12 36 L 17 36 A 1.0001 1.0001 0 1 0 17 34 L 12.414062 34 L 7.7070312 29.292969 A 1.0001 1.0001 0 0 0 7 29 L 4 29 L 4 22 L 8 22 A 1.0001 1.0001 0 0 0 8.78125 21.625 L 12.480469 17 L 17 17 A 1.0001 1.0001 0 1 0 17 15 L 12 15 A 1.0001 1.0001 0 0 0 11.21875 15.375 L 7.5195312 20 L 4 20 L 4 18.388672 C 4 13.196855 8.2356899 9 13.5 9 z M 33.1875 28 L 33.189453 28 L 36.611328 28 C 37.59221 28 38.53752 28.152844 39.425781 28.433594 L 37.199219 31.400391 A 1.0001 1.0001 0 0 0 37 32 L 37 35.585938 L 34.292969 38.292969 A 1.0001 1.0001 0 1 0 35.707031 39.707031 L 38.707031 36.707031 A 1.0001 1.0001 0 0 0 39 36 L 39 32.333984 L 41.296875 29.269531 C 44.107166 30.90715 46 33.968841 46 37.5 C 46 42.76431 41.803145 47 36.611328 47 L 35 47 L 35 45 A 1.0001 1.0001 0 0 0 34.242188 44.029297 L 30.587891 43.115234 L 28 39.666016 L 28 37 A 1.0001 1.0001 0 0 0 26.984375 35.986328 A 1.0001 1.0001 0 0 0 26 37 L 26 40 A 1.0001 1.0001 0 0 0 26.199219 40.599609 L 29.199219 44.599609 A 1.0001 1.0001 0 0 0 29.757812 44.970703 L 33 45.78125 L 33 47 L 23.388672 47 C 20.159298 47 17.405103 45.294268 15.720703 42.78125 C 20.301759 41.888709 23.916223 38.293868 24.791016 33.742188 C 26.895457 33.307097 28.908252 32.2812 30.541016 30.648438 L 30.541016 30.646484 L 33.1875 28 z"/></svg>