<svg xmlns="http://www.w3.org/2000/svg"  viewBox="0 0 50 50" width="1000px" height="1000px"><path d="M 37.40625 1.09375 C 36.25 1.09375 35.375 1.703125 34.9375 2.28125 C 34.835938 2.417969 34.882813 2.433594 34.8125 2.5625 C 34.332031 2.5 33.722656 2.496094 33.09375 2.84375 C 31.667969 3.628906 30.851563 5.371094 31.5625 6.9375 C 31.777344 7.410156 32.109375 7.796875 32.5 8.09375 C 32.269531 8.34375 32.039063 8.597656 31.84375 8.875 C 30.683594 10.519531 30.046875 12.527344 29.375 14.46875 C 28.703125 16.410156 27.980469 18.253906 26.96875 19.53125 C 25.957031 20.808594 24.71875 21.59375 22.5 21.59375 C 17.085938 21.59375 12.972656 20.324219 10.09375 18.90625 C 7.214844 17.488281 5.527344 15.828125 5.1875 15.375 C 5.003906 15.128906 4.832031 14.882813 4.625 14.65625 C 4.417969 14.429688 4.234375 14.175781 3.71875 14.03125 C 3.460938 13.960938 3.050781 14 2.75 14.1875 C 2.449219 14.375 2.304688 14.632813 2.21875 14.84375 C 2.046875 15.269531 2.03125 15.625 2.03125 16.15625 C 2.03125 17.980469 3.035156 19.878906 4.3125 21.53125 C 4.859375 22.238281 5.46875 22.882813 6.09375 23.4375 C 5.148438 23.6875 4.289063 23.960938 3.625 24.625 C 3.425781 24.824219 3.242188 25.027344 3.125 25.34375 C 3.007813 25.660156 3.0625 26.199219 3.28125 26.5 C 3.71875 27.101563 4.070313 27.023438 4.1875 27.0625 C 4.34375 27.113281 4.726563 27.351563 5.09375 27.53125 C 4.816406 27.714844 4.519531 27.902344 4.34375 28.125 C 4.253906 28.238281 4.140625 28.367188 4.0625 28.625 C 3.984375 28.882813 4.046875 29.332031 4.21875 29.59375 C 4.5625 30.117188 4.835938 30.109375 5.09375 30.21875 C 5.703125 30.476563 6.222656 30.980469 6.65625 31.78125 C 7.445313 33.246094 9.484375 35.921875 12.65625 38.375 C 12.921875 38.578125 13.21875 38.769531 13.5 38.96875 C 13.539063 39.015625 13.578125 39.054688 13.625 39.09375 C 13.691406 39.15625 13.765625 39.207031 13.84375 39.25 C 13.855469 39.25 13.863281 39.25 13.875 39.25 C 13.886719 39.257813 13.894531 39.273438 13.90625 39.28125 C 16.640625 41.148438 20.054688 42.667969 24 42.9375 L 24 45.34375 C 22.175781 46.011719 21.1875 47.40625 21.1875 47.40625 C 20.859375 47.855469 20.957031 48.484375 21.40625 48.8125 C 21.855469 49.140625 22.484375 49.042969 22.8125 48.59375 C 22.8125 48.59375 23.96875 47 26 47 C 28.03125 47 29.1875 48.59375 29.1875 48.59375 C 29.515625 49.042969 30.144531 49.140625 30.59375 48.8125 C 31.042969 48.484375 31.140625 47.855469 30.8125 47.40625 C 30.8125 47.40625 29.078125 45 26 45 L 26 42.96875 C 28.847656 42.835938 32.515625 41.972656 35.6875 40 C 39.152344 37.847656 42 34.238281 42 29.0625 C 42 26.628906 41.574219 24.847656 41.1875 23.34375 C 40.800781 21.839844 40.46875 20.652344 40.46875 19.25 C 40.46875 17.511719 41.265625 16.457031 41.71875 16 C 41.925781 15.980469 42.253906 15.949219 42.71875 16.03125 C 43.300781 16.132813 43.917969 16.359375 44.34375 16.71875 C 44.640625 16.976563 45.054688 17.035156 45.414063 16.875 C 45.769531 16.714844 46 16.359375 46 15.96875 C 46 13.832031 45.417969 12.535156 44.75 11.78125 C 44.417969 11.402344 44.0625 11.160156 43.875 11.03125 C 43.746094 9.816406 43.246094 8.730469 42.4375 7.90625 C 42.667969 7.691406 42.871094 7.445313 43.03125 7.15625 C 43.832031 5.699219 43.308594 3.824219 41.84375 3.03125 C 41.167969 2.667969 40.507813 2.648438 40 2.71875 C 39.921875 2.570313 39.957031 2.566406 39.84375 2.40625 C 39.410156 1.792969 38.585938 1.09375 37.40625 1.09375 Z M 37.40625 3.09375 C 37.832031 3.09375 38.011719 3.269531 38.21875 3.5625 C 38.425781 3.855469 38.53125 4.15625 38.53125 4.15625 L 38.8125 5.21875 L 39.84375 4.84375 C 39.84375 4.84375 40.671875 4.6875 40.90625 4.8125 C 41.398438 5.078125 41.566406 5.667969 41.28125 6.1875 C 41.132813 6.457031 40.890625 6.621094 40.625 6.6875 C 39.644531 6.25 38.523438 6 37.34375 6 C 36.15625 6 35.132813 6.257813 34.25 6.71875 C 33.871094 6.675781 33.535156 6.480469 33.375 6.125 C 33.125 5.570313 33.394531 4.960938 34.0625 4.59375 C 34.28125 4.472656 34.9375 4.625 34.9375 4.625 L 36.03125 5.09375 L 36.3125 3.9375 C 36.3125 3.9375 36.355469 3.734375 36.53125 3.5 C 36.707031 3.265625 36.902344 3.09375 37.40625 3.09375 Z M 37.34375 8 C 38.71875 8 39.902344 8.398438 40.71875 9.03125 C 41.535156 9.664063 42 10.484375 42 11.53125 C 42 11.964844 42.261719 12.269531 42.40625 12.40625 C 42.550781 12.542969 42.65625 12.621094 42.75 12.6875 C 42.9375 12.816406 43.085938 12.910156 43.25 13.09375 C 43.445313 13.316406 43.660156 13.773438 43.8125 14.40625 C 43.554688 14.328125 43.304688 14.105469 43.0625 14.0625 C 42.234375 13.917969 41.570313 13.917969 41 14.0625 C 40.839844 14.097656 40.6875 14.171875 40.5625 14.28125 C 39.761719 14.976563 38.46875 16.644531 38.46875 19.25 C 38.46875 20.976563 38.902344 22.382813 39.28125 23.84375 C 39.660156 25.304688 40 26.847656 40 29.0625 C 40 33.527344 37.683594 36.414063 34.625 38.3125 C 31.566406 40.210938 27.742188 41 25.21875 41 C 23.515625 41 21.90625 40.738281 20.40625 40.28125 C 23.445313 40.183594 25.78125 39.148438 27.4375 37.59375 C 30.105469 35.089844 31 31.480469 31 28.6875 C 31.007813 28.417969 30.90625 28.15625 30.71875 27.960938 C 30.53125 27.765625 30.269531 27.65625 30 27.65625 C 29.730469 27.65625 29.46875 27.765625 29.28125 27.960938 C 29.09375 28.15625 28.992188 28.417969 29 28.6875 C 29 31.027344 28.179688 34.136719 26.0625 36.125 C 23.957031 38.101563 20.542969 39.199219 14.71875 37.4375 C 14.433594 37.238281 14.144531 37.019531 13.875 36.8125 C 10.945313 34.542969 8.976563 31.867188 8.40625 30.8125 C 7.996094 30.050781 7.40625 29.457031 6.75 28.96875 C 7.007813 28.886719 7.195313 28.804688 7.71875 28.6875 C 8.082031 28.601563 8.367188 28.320313 8.457031 27.960938 C 8.550781 27.597656 8.433594 27.21875 8.15625 26.96875 C 7.496094 26.367188 6.617188 26.066406 5.8125 25.71875 C 6.117188 25.574219 6.257813 25.457031 6.6875 25.34375 C 7.496094 25.132813 8.421875 24.996094 9 25 C 9.5 24.984375 9.910156 24.605469 9.964844 24.109375 C 10.019531 23.613281 9.703125 23.15625 9.21875 23.03125 C 8.484375 22.863281 7.011719 21.742188 5.90625 20.3125 C 5.125 19.304688 4.605469 18.222656 4.3125 17.28125 C 5.230469 18.242188 6.683594 19.472656 9.21875 20.71875 C 12.355469 22.261719 16.773438 23.59375 22.5 23.59375 C 25.242188 23.59375 27.226563 22.425781 28.53125 20.78125 C 29.835938 19.136719 30.570313 17.085938 31.25 15.125 C 31.929688 13.164063 32.5625 11.28125 33.46875 10 C 34.375 8.71875 35.40625 8 37.34375 8 Z M 38.5 10 C 37.671875 10 37 10.671875 37 11.5 C 37 12.328125 37.671875 13 38.5 13 C 39.328125 13 40 12.328125 40 11.5 C 40 10.671875 39.328125 10 38.5 10 Z"/></svg>