<svg xmlns="http://www.w3.org/2000/svg"  viewBox="0 0 50 50" width="1000px" height="1000px"><path d="M 46 0 C 44.71875 0 43.433594 0.417969 42.34375 1.40625 C 41.371094 2.289063 40.5 3.597656 39.59375 5.4375 C 39.433594 5.4375 39.28125 5.445313 39.125 5.46875 C 38.0625 5.632813 37.113281 6.265625 36.5 7.15625 C 36.042969 7.070313 35.550781 7 35 7 C 33.703125 7 32.363281 7.296875 31.1875 8.09375 C 30.023438 8.886719 29.074219 10.148438 28.46875 11.9375 C 28.464844 11.949219 28.441406 11.957031 28.4375 11.96875 L 28.4375 12 C 28.429688 12.019531 28.445313 12.042969 28.4375 12.0625 C 27.949219 13.296875 27.367188 13.921875 27 14.125 C 26.617188 14.335938 26.386719 14.3125 25.96875 14.03125 C 25.132813 13.46875 24.09375 11.445313 24.09375 9 C 24.089844 8.59375 23.84375 8.230469 23.464844 8.078125 C 23.089844 7.929688 22.65625 8.019531 22.375 8.3125 C 19.035156 11.863281 19.128906 15.050781 19.625 17.40625 C 19.875 18.582031 20.148438 19.578125 20.15625 20.375 C 20.164063 21.171875 20 21.78125 19.1875 22.59375 C 19.039063 22.742188 18.558594 22.976563 18.0625 22.96875 C 17.566406 22.960938 17.097656 22.792969 16.6875 22.28125 C 16.523438 22.070313 16.453125 21.800781 16.5 21.28125 C 16.546875 20.761719 16.734375 20.082031 16.875 19.3125 C 17.015625 18.542969 17.105469 17.664063 16.90625 16.75 C 16.707031 15.835938 16.152344 14.910156 15.1875 14.1875 C 14.859375 13.957031 14.425781 13.945313 14.085938 14.15625 C 13.746094 14.367188 13.566406 14.761719 13.625 15.15625 C 13.753906 15.921875 13.671875 16.402344 13.5625 16.65625 C 13.453125 16.910156 13.308594 16.988281 13.125 17.0625 C 12.757813 17.214844 12.023438 16.984375 11.96875 16.9375 C 11.957031 16.9375 11.949219 16.9375 11.9375 16.9375 C 11.464844 16.542969 11.0625 16.117188 11 14.90625 C 10.9375 13.695313 11.347656 11.652344 12.90625 8.4375 C 13.066406 8.109375 13.039063 7.722656 12.832031 7.421875 C 12.621094 7.125 12.269531 6.960938 11.90625 7 C 11.75 7.015625 11.601563 7.070313 11.46875 7.15625 C 7.773438 9.566406 6.144531 12.308594 6 15.03125 C 5.855469 17.753906 7.089844 20.277344 8.46875 22.59375 C 9.847656 24.910156 11.40625 27.050781 12.21875 28.8125 C 12.625 29.695313 12.835938 30.464844 12.8125 31.0625 C 12.789063 31.660156 12.617188 32.121094 12.03125 32.65625 C 12.019531 32.667969 12.011719 32.675781 12 32.6875 C 11.699219 32.976563 11.371094 33.039063 10.875 32.9375 C 10.378906 32.835938 9.773438 32.5 9.25 31.96875 C 8.199219 30.910156 7.546875 29.203125 8.25 27.34375 C 8.398438 26.949219 8.285156 26.5 7.960938 26.226563 C 7.636719 25.953125 7.179688 25.914063 6.8125 26.125 C 4.398438 27.453125 2.335938 30.792969 3.21875 35.09375 C 3.507813 36.660156 4.390625 38.886719 4.65625 41.09375 C 4.789063 42.195313 4.765625 43.265625 4.5 44.15625 C 4.261719 44.953125 3.832031 45.625 3.09375 46.1875 C 2.960938 46.25 2.8125 46.3125 2.6875 46.375 C 2.351563 46.539063 2.074219 46.6875 1.8125 46.84375 C 1.683594 46.921875 1.546875 47 1.40625 47.125 C 1.265625 47.25 1 47.433594 1 48 C 1 48.242188 1.136719 48.679688 1.40625 48.96875 C 1.675781 49.257813 2.007813 49.425781 2.4375 49.5625 C 3.296875 49.839844 4.601563 50 7 50 C 11.820313 50 20.445313 48.769531 28.8125 44.0625 C 37.179688 39.355469 45.242188 31.113281 48.65625 17.25 L 48.6875 17.25 L 48.6875 17.21875 C 49.226563 14.960938 49.0625 13.089844 48.40625 11.625 C 47.75 10.160156 46.59375 9.175781 45.3125 8.59375 C 44.648438 8.292969 44.011719 8.15625 43.40625 8.09375 C 43.089844 7.171875 42.449219 6.40625 41.59375 5.9375 C 42.367188 4.441406 43.058594 3.445313 43.6875 2.875 C 44.449219 2.1875 45.082031 2 46 2 C 46.359375 2.003906 46.695313 1.816406 46.878906 1.503906 C 47.058594 1.191406 47.058594 0.808594 46.878906 0.496094 C 46.695313 0.183594 46.359375 -0.00390625 46 0 Z M 39.5625 7.4375 C 39.789063 7.59375 40.074219 7.652344 40.34375 7.59375 C 40.675781 7.699219 40.960938 7.882813 41.1875 8.15625 C 40.542969 8.246094 40.003906 8.351563 39.6875 8.3125 C 39.683594 8.3125 39.660156 8.3125 39.65625 8.3125 C 39.472656 8.269531 39.074219 8.050781 38.5625 7.8125 C 38.851563 7.589844 39.191406 7.46875 39.5625 7.4375 Z M 35 9 C 35.617188 9 36.117188 9.078125 36.5625 9.21875 C 36.621094 9.246094 36.6875 9.265625 36.75 9.28125 C 37.644531 9.59375 38.316406 10.082031 39.3125 10.28125 L 39.34375 10.28125 C 40.335938 10.421875 41.179688 10.183594 42 10.09375 C 42.820313 10.003906 43.609375 10 44.5 10.40625 C 45.421875 10.824219 46.152344 11.484375 46.59375 12.46875 C 47.035156 13.449219 47.171875 14.824219 46.71875 16.75 C 46.714844 16.761719 46.722656 16.769531 46.71875 16.78125 C 43.429688 30.097656 35.820313 37.855469 27.84375 42.34375 C 19.863281 46.835938 11.476563 48 7 48 C 5.480469 48 5.035156 47.878906 4.375 47.78125 C 4.871094 47.535156 5.351563 47.28125 5.875 46.96875 C 5.882813 46.964844 5.898438 46.972656 5.90625 46.96875 C 13.101563 43.015625 23.261719 35.503906 30.3125 12.75 C 30.324219 12.71875 30.332031 12.6875 30.34375 12.65625 C 30.34375 12.644531 30.34375 12.636719 30.34375 12.625 C 30.347656 12.613281 30.339844 12.605469 30.34375 12.59375 C 30.347656 12.578125 30.371094 12.578125 30.375 12.5625 C 30.386719 12.523438 30.398438 12.480469 30.40625 12.4375 C 30.898438 11.070313 31.570313 10.253906 32.3125 9.75 C 33.089844 9.222656 33.996094 9 35 9 Z M 22.53125 11.375 C 22.933594 13.21875 23.636719 14.851563 24.875 15.6875 C 25.492188 16.105469 26.273438 16.296875 27.03125 16.1875 C 20.777344 33.851563 12.824219 40.5625 6.5 44.3125 C 6.769531 43.167969 6.761719 41.980469 6.625 40.84375 C 6.316406 38.300781 5.398438 35.851563 5.1875 34.71875 C 5.1875 34.707031 5.1875 34.699219 5.1875 34.6875 C 4.746094 32.539063 5.257813 30.859375 6.0625 29.625 C 6.25 31.109375 6.882813 32.433594 7.8125 33.375 C 8.574219 34.144531 9.511719 34.707031 10.5 34.90625 C 11.488281 35.105469 12.578125 34.886719 13.375 34.125 C 14.289063 33.285156 14.769531 32.230469 14.8125 31.15625 C 14.855469 30.082031 14.542969 29.039063 14.0625 28 C 13.101563 25.921875 11.464844 23.757813 10.15625 21.5625 C 8.847656 19.367188 7.890625 17.167969 8 15.125 C 8.0625 13.96875 8.613281 12.8125 9.53125 11.625 C 9.148438 12.953125 8.953125 14.074219 9 15 C 9.085938 16.714844 9.902344 17.824219 10.625 18.4375 C 10.636719 18.445313 10.644531 18.460938 10.65625 18.46875 C 11.5 19.199219 12.714844 19.429688 13.90625 18.9375 C 14.332031 18.761719 14.625 18.289063 14.9375 17.875 C 14.9375 18.226563 14.980469 18.558594 14.90625 18.96875 C 14.785156 19.636719 14.601563 20.359375 14.53125 21.125 C 14.460938 21.890625 14.539063 22.792969 15.125 23.53125 C 15.914063 24.519531 17.027344 24.953125 18.03125 24.96875 C 19.035156 24.984375 19.941406 24.652344 20.59375 24 C 21.730469 22.863281 22.167969 21.546875 22.15625 20.34375 C 22.144531 19.140625 21.820313 18.074219 21.59375 17 C 21.230469 15.273438 21.066406 13.589844 22.53125 11.375 Z"/></svg>