<svg xmlns="http://www.w3.org/2000/svg"  viewBox="0 0 50 50" width="1000px" height="1000px"><path d="M 39.175781 4.1503906 C 36.894632 4.1503906 35.180879 5.3036784 34.060547 6.6640625 C 33.749606 7.0406111 33.143633 7.3007814 32.492188 7.3007812 L 7.1503906 7.3007812 C 4.9149883 7.3007812 3 9.0031583 3 11.1875 L 3 34.8125 C 3 36.996211 4.9149883 38.699219 7.1503906 38.699219 L 11.904297 38.699219 C 11.862434 39.332068 11.827554 39.890209 11.777344 40.609375 C 11.595605 43.212429 11.373441 46.284849 11.212891 48.939453 A 1.0008566 1.0008566 0 1 0 13.210938 49.060547 C 13.370387 46.424151 13.591426 43.356946 13.773438 40.75 C 13.955448 38.143054 14.100187 36.055398 14.099609 35.148438 C 14.098595 32.939298 14.000885 24.522762 14 24 L 14 14.859375 C 16.275248 16.232777 17.880615 17.961425 18.751953 19.855469 C 19.812984 22.16185 20.072819 24.55141 20.074219 26.076172 C 20.071819 28.5881 18.912464 30.988578 17.658203 33.277344 C 16.403623 35.566693 14.998754 37.69049 15 40 C 14.9987 42.593363 16.724842 44.837615 16.953125 49.054688 A 1.0005192 1.0005192 0 0 0 18.951172 48.945312 C 18.697455 44.258385 16.999277 41.468637 17 40 C 16.999791 39.613681 17.091944 39.175109 17.244141 38.699219 L 32.492188 38.699219 C 33.142893 38.699219 33.750696 38.960585 34.060547 39.335938 C 35.181909 40.695783 36.895983 41.849609 39.175781 41.849609 C 40.855837 41.849609 42.314516 41.206988 43.390625 40.113281 C 44.466734 39.019574 45.189799 37.531378 45.710938 35.779297 C 46.753213 32.275134 47 27.647153 47 22.5625 C 47 17.477847 46.756261 13.065873 45.705078 9.765625 C 45.179486 8.1155009 44.443376 6.7225643 43.357422 5.7167969 C 42.271468 4.7110295 40.830556 4.1503906 39.175781 4.1503906 z M 39.175781 6.1503906 C 40.408507 6.1503906 41.262907 6.5027361 41.998047 7.1835938 C 42.733187 7.8644513 43.341998 8.9307177 43.800781 10.371094 C 44.718348 13.251846 45 17.547153 45 22.5625 C 45 27.577847 44.721396 32.094147 43.794922 35.208984 C 43.331685 36.766403 42.709829 37.953769 41.964844 38.710938 C 41.219859 39.468106 40.383225 39.849609 39.175781 39.849609 C 37.538714 39.849609 36.468184 39.11177 35.603516 38.0625 L 35.601562 38.0625 C 34.82346 37.119852 33.64548 36.699219 32.492188 36.699219 L 18.109375 36.699219 C 18.495738 35.927249 18.931527 35.115245 19.412109 34.238281 C 19.61225 33.873065 19.810583 33.482911 20.009766 33.099609 C 21.542022 33.990033 23.453861 34.5 25.525391 34.5 C 28.931596 34.5 31.898904 33.123003 33.410156 30.892578 C 36.433757 30.063942 38.599609 27.082475 38.599609 23.552734 C 38.599609 19.419082 35.633894 15.921875 31.824219 15.921875 C 31.604423 15.921875 31.400516 15.968828 31.1875 15.992188 C 29.608785 13.305619 26.508614 11.5 22.900391 11.5 C 20.374483 11.5 18.07313 12.368087 16.367188 13.806641 C 15.500618 13.155653 14.524691 12.564432 13.394531 12.080078 A 1.0001 1.0001 0 0 0 13.003906 12 A 1.0001 1.0001 0 0 0 12 13 L 12 24 A 1.0001 1.0001 0 0 0 12 24.001953 C 12.0011 24.703866 12.098619 32.997869 12.099609 35.150391 C 12.099773 35.407258 12.063666 36.049749 12.027344 36.699219 L 7.1503906 36.699219 C 5.9057929 36.699219 5 35.816789 5 34.8125 L 5 11.1875 C 5 10.181842 5.9057929 9.3007812 7.1503906 9.3007812 L 32.492188 9.3007812 C 33.644742 9.3007812 34.824456 8.8809483 35.603516 7.9375 C 36.467202 6.8883653 37.53755 6.1503906 39.175781 6.1503906 z M 35.5 11 C 34.672 11 34 11.672 34 12.5 C 34 13.328 34.672 14 35.5 14 C 36.328 14 37 13.328 37 12.5 C 37 11.672 36.328 11 35.5 11 z M 22.900391 13.5 C 26.096212 13.5 28.757537 15.209827 29.800781 17.466797 A 1.0001 1.0001 0 0 0 30.925781 18.023438 C 31.221955 17.957168 31.520753 17.921875 31.824219 17.921875 C 34.392544 17.921875 36.599609 20.360387 36.599609 23.552734 C 36.599609 26.408729 34.797308 28.671532 32.609375 29.101562 A 1.0001 1.0001 0 0 0 31.941406 29.574219 C 31.008409 31.158972 28.523836 32.5 25.525391 32.5 C 23.715259 32.5 22.09605 32.011551 20.888672 31.273438 C 21.567912 29.682261 22.072883 27.953839 22.074219 26.076172 A 1.0001 1.0001 0 0 0 22.074219 26.074219 C 22.072619 24.332027 21.796033 21.6839 20.570312 19.019531 C 19.954647 17.681248 19.088397 16.340783 17.90625 15.134766 C 19.211824 14.133674 20.958789 13.5 22.900391 13.5 z M 8 16 C 7.448 16 7 16.448 7 17 C 7 17.552 7.448 18 8 18 C 8.552 18 9 17.552 9 17 C 9 16.448 8.552 16 8 16 z M 41 17 C 40.448 17 40 17.448 40 18 C 40 18.552 40.448 19 41 19 C 41.552 19 42 18.552 42 18 C 42 17.448 41.552 17 41 17 z M 8.5 29 C 7.672 29 7 29.672 7 30.5 C 7 31.328 7.672 32 8.5 32 C 9.328 32 10 31.328 10 30.5 C 10 29.672 9.328 29 8.5 29 z M 41 32 C 40.448 32 40 32.448 40 33 C 40 33.552 40.448 34 41 34 C 41.552 34 42 33.552 42 33 C 42 32.448 41.552 32 41 32 z"/></svg>