<svg fill="#000000" xmlns="http://www.w3.org/2000/svg"  viewBox="0 0 50 50" width="1000px" height="1000px"><path d="M 9 3 L 9 4 L 9 27 L 9 29 L 9 44 C 9 46.197334 10.802666 48 13 48 L 37 48 C 39.197334 48 41 46.197334 41 44 L 41 36 L 40.919922 36 L 43.181641 34.384766 L 41 27.835938 L 41 3 L 9 3 z M 11 5 L 19 5 L 19 11 L 11 11 L 11 5 z M 21 5 L 29 5 L 29 11 L 21 11 L 21 5 z M 31 5 L 39 5 L 39 11 L 31 11 L 31 5 z M 11 13 L 19 13 L 19 19 L 11 19 L 11 13 z M 21 13 L 29 13 L 29 19 L 21 19 L 21 13 z M 31 13 L 39 13 L 39 19 L 31 19 L 31 13 z M 11 21 L 19 21 L 19 27 L 11 27 L 11 21 z M 21 21 L 29 21 L 29 27 L 21 27 L 21 21 z M 31 21 L 39 21 L 39 27 L 31 27 L 31 21 z M 14.757812 29 L 39.279297 29 L 40.818359 33.615234 L 34.882812 37.855469 L 14.757812 29 z M 11 29.533203 L 35.117188 40.144531 L 39 37.371094 L 39 44 C 39 45.116666 38.116666 46 37 46 L 13 46 C 11.883334 46 11 45.116666 11 44 L 11 29.533203 z"/></svg>