<svg xmlns="http://www.w3.org/2000/svg"  viewBox="0 0 50 50" width="1000px" height="1000px"><path d="M 44.037109 4.0097656 C 43.546096 3.9652576 43.033937 4.0554796 42.560547 4.2148438 C 41.701434 4.5040595 40.839734 5.0554572 40.041016 5.7988281 C 39.4018 5.3096051 38.764472 5.0551495 38.140625 5.0351562 C 37.317856 5.0087879 36.703022 5.315999 36.158203 5.5214844 C 34.605995 6.106169 32.893252 5.7429524 32.337891 5.5175781 A 0.96009598 0.96009598 0 0 0 32.111328 5.4570312 C 29.743503 4.5567955 27.181833 4.0390625 24.498047 4.0390625 C 12.657241 4.0390625 3.0390625 13.659251 3.0390625 25.5 C 3.0390625 37.340806 12.659194 46.960938 24.5 46.960938 C 36.340806 46.960938 45.960938 37.340806 45.960938 25.5 C 45.960938 22.7621 45.421851 20.150951 44.486328 17.742188 C 44.48588 17.740987 44.486777 17.739381 44.486328 17.738281 A 0.96009598 0.96009598 0 0 0 44.419922 17.503906 C 44.393162 17.440666 44.36466 17.375978 44.34375 17.326172 L 44.34375 17.324219 C 44.31908 17.264789 44.288806 17.190989 44.253906 17.107422 L 44.253906 17.105469 C 44.057281 16.615291 43.950254 15.505604 44.539062 13.904297 C 44.761635 13.300171 45.056102 12.629846 44.972656 11.777344 C 44.913955 11.177711 44.644558 10.58589 44.183594 9.9746094 C 44.935529 9.1708382 45.491857 8.3029384 45.783203 7.4375 C 46.101974 6.4905959 46.149289 5.3836079 45.380859 4.6171875 C 44.997272 4.2335996 44.528123 4.0542737 44.037109 4.0097656 z M 24.498047 5.9609375 C 27.019566 5.9609375 29.424641 6.441925 31.636719 7.3105469 A 0.96009598 0.96009598 0 0 0 31.982422 7.3769531 C 33.070745 7.7511919 34.848796 8.064921 36.835938 7.3164062 C 37.447117 7.0858916 37.824394 6.9449934 38.078125 6.953125 C 38.331856 6.961255 38.64659 7.04698 39.294922 7.6953125 C 39.861124 8.2615144 41.554575 9.9559691 42.148438 10.548828 C 42.880891 11.282078 43.03499 11.683797 43.0625 11.964844 C 43.09005 12.246341 42.97071 12.60936 42.738281 13.240234 A 0.96009598 0.96009598 0 0 0 42.738281 13.242188 C 42.029569 15.169579 42.027588 16.717787 42.472656 17.824219 A 0.96009598 0.96009598 0 0 0 42.478516 17.837891 C 42.503796 17.897931 42.534826 17.97241 42.572266 18.0625 A 0.96009598 0.96009598 0 0 0 42.572266 18.066406 C 42.588536 18.105196 42.599001 18.131032 42.613281 18.164062 A 0.96009598 0.96009598 0 0 0 42.636719 18.224609 C 43.539628 20.474732 44.039063 22.926774 44.039062 25.5 C 44.039062 36.303194 35.303194 45.039062 24.5 45.039062 C 17.975365 45.039062 12.221233 41.839479 8.6738281 36.935547 L 11.085938 37.888672 A 0.96009598 0.96009598 0 0 0 12.357422 36.720703 L 11.056641 32.369141 L 12.855469 28.853516 A 0.96009598 0.96009598 0 0 0 12.111328 27.462891 L 8.4804688 27.042969 L 5.9628906 23.435547 A 0.96009598 0.96009598 0 0 0 5.1386719 23.027344 A 0.96009598 0.96009598 0 0 0 5.1347656 23.027344 C 5.9020982 16.945145 9.4510722 11.75373 14.476562 8.7441406 L 14.630859 9.0195312 L 13.158203 11.693359 A 0.96009598 0.96009598 0 0 0 14.222656 13.091797 L 17.712891 12.259766 L 20.164062 13.810547 A 0.96009598 0.96009598 0 0 0 21.605469 13.248047 L 22.373047 10.375 L 25.490234 8.5253906 A 0.96009598 0.96009598 0 0 0 25.296875 6.7871094 L 22.953125 6.0273438 C 23.463419 5.987509 23.977394 5.9609375 24.498047 5.9609375 z M 43.794922 6.0019531 C 43.91733 6.0060208 43.968385 6.032838 43.966797 6.03125 A 1.0001 1.0001 0 0 0 43.96875 6.0332031 C 43.96535 6.0297831 44.078153 6.2379354 43.888672 6.8007812 C 43.725334 7.2859742 43.348609 7.9083254 42.818359 8.5039062 C 42.357751 8.0433959 41.976274 7.6619734 41.494141 7.1796875 C 42.089378 6.6495699 42.711671 6.2748011 43.197266 6.1113281 C 43.478751 6.0165675 43.672513 5.9978855 43.794922 6.0019531 z M 20.609375 6.3496094 L 20.714844 6.8222656 A 0.96009598 0.96009598 0 0 0 21.355469 7.5273438 L 22.683594 7.9589844 L 21.056641 8.9238281 A 0.96009598 0.96009598 0 0 0 20.619141 9.5019531 L 20.087891 11.490234 L 18.398438 10.421875 A 0.96009598 0.96009598 0 0 0 17.662109 10.298828 L 15.884766 10.720703 L 16.568359 9.4785156 A 0.96009598 0.96009598 0 0 0 16.566406 8.5488281 L 16.169922 7.8398438 C 17.569856 7.1792553 19.050261 6.6636673 20.609375 6.3496094 z M 37.322266 21.041016 A 0.96009598 0.96009598 0 0 0 36.705078 21.25 L 32.505859 24.617188 L 27.603516 23.650391 A 0.96009598 0.96009598 0 0 0 26.496094 24.861328 L 27.957031 29.875 L 25.171875 34.613281 A 0.96009598 0.96009598 0 0 0 26.052734 36.058594 L 31.091797 35.783203 L 34.273438 39.613281 A 0.96009598 0.96009598 0 0 0 35.923828 39.298828 L 37.632812 34.089844 L 42.419922 31.767578 A 0.96009598 0.96009598 0 0 0 42.560547 30.125 L 38.544922 27.234375 L 38.265625 21.949219 A 0.96009598 0.96009598 0 0 0 37.322266 21.041016 z M 36.447266 23.919922 L 36.652344 27.794922 A 0.96009598 0.96009598 0 0 0 37.050781 28.523438 L 40.132812 30.742188 L 36.429688 32.539062 A 0.96009598 0.96009598 0 0 0 35.935547 33.103516 L 34.640625 37.050781 L 32.261719 34.1875 A 0.96009598 0.96009598 0 0 0 31.470703 33.841797 L 27.734375 34.042969 L 29.822266 30.492188 A 0.96009598 0.96009598 0 0 0 29.916016 29.736328 L 28.78125 25.839844 L 32.572266 26.585938 A 0.96009598 0.96009598 0 0 0 33.357422 26.394531 L 36.447266 23.919922 z M 5.5566406 26.208984 L 7.1542969 28.496094 A 0.96009598 0.96009598 0 0 0 7.8300781 28.900391 L 10.515625 29.210938 L 9.171875 31.837891 A 0.96009598 0.96009598 0 0 0 9.1054688 32.550781 L 9.9511719 35.375 L 7.8027344 34.527344 A 0.96009598 0.96009598 0 0 0 7.1660156 34.505859 C 6.1028072 32.46103 5.3933158 30.206855 5.1113281 27.816406 L 5.5566406 26.208984 z"/></svg>