<svg xmlns="http://www.w3.org/2000/svg"  viewBox="0 0 50 50" width="1000px" height="1000px"><path d="M 24.990234 1 A 1.0001 1.0001 0 0 0 24.113281 1.5371094 L 22.806641 4.0429688 L 19.863281 4.4472656 A 1.0001 1.0001 0 0 0 19.322266 6.1738281 L 21.417969 8.1054688 L 20.925781 10.822266 A 1.0001 1.0001 0 0 0 22.355469 11.894531 L 23.367188 11.392578 L 14.244141 21.917969 A 1.0001 1.0001 0 0 0 14.712891 23.53125 C 14.712891 23.53125 15.89431 23.88027 17.712891 24.236328 L 9.7890625 32.248047 A 1.0001 1.0001 0 0 0 9.984375 33.808594 C 9.984375 33.808594 11.043783 34.419149 13.392578 34.951172 C 13.49079 34.973418 13.629288 34.993469 13.732422 35.015625 L 6.28125 42.716797 A 1.0001 1.0001 0 0 0 6.5078125 44.283203 C 6.5078125 44.283203 7.83998 45.015602 10.775391 45.681641 C 13.710801 46.34768 18.343289 47 25.228516 47 C 32.113742 47 36.632959 46.348072 39.460938 45.679688 C 42.288916 45.011302 43.53125 44.259766 43.53125 44.259766 A 1.0001 1.0001 0 0 0 43.716797 42.714844 L 36.271484 35.054688 C 36.435816 35.019198 36.64716 34.985021 36.798828 34.949219 C 37.930937 34.681973 38.715408 34.410542 39.232422 34.195312 C 39.749436 33.980083 40.058594 33.78125 40.058594 33.78125 A 1.0001 1.0001 0 0 0 40.208984 32.246094 L 32.294922 24.273438 C 34.179509 23.901982 35.363281 23.527344 35.363281 23.527344 A 1.0001 1.0001 0 0 0 35.816406 21.917969 L 26.736328 11.443359 L 27.644531 11.894531 A 1.0001 1.0001 0 0 0 29.074219 10.822266 L 28.582031 8.1054688 L 30.677734 6.1738281 A 1.0001 1.0001 0 0 0 30.136719 4.4472656 L 27.193359 4.0429688 L 25.886719 1.5371094 A 1.0001 1.0001 0 0 0 24.990234 1 z M 25 4.1640625 L 25.658203 5.4257812 A 1.0001 1.0001 0 0 0 26.408203 5.953125 L 27.763672 6.1386719 L 26.822266 7.0078125 A 1.0001 1.0001 0 0 0 26.517578 7.921875 L 26.751953 9.21875 L 25.445312 8.5683594 A 1.0001 1.0001 0 0 0 24.554688 8.5683594 L 23.248047 9.21875 L 23.482422 7.921875 A 1.0001 1.0001 0 0 0 23.177734 7.0078125 L 22.236328 6.1386719 L 23.591797 5.953125 A 1.0001 1.0001 0 0 0 24.341797 5.4257812 L 25 4.1640625 z M 25.029297 12.527344 L 33.232422 21.990234 C 31.697542 22.386839 28.974121 23 25.158203 23 C 21.303899 23 18.431552 22.371386 16.841797 21.976562 L 25.029297 12.527344 z M 20.128906 24.630859 C 21.645556 24.839322 23.353992 25 25.158203 25 C 26.859521 25 28.449401 24.855 29.871094 24.664062 A 1.0005893 1.0005893 0 0 0 29.929688 24.732422 L 37.71875 32.578125 C 37.32356 32.714933 37.013226 32.842995 36.339844 33.001953 C 34.264062 33.491962 30.760012 34 25.183594 34 C 19.607176 34 16.008189 33.492477 13.833984 33 C 12.676798 32.737887 12.758193 32.684597 12.333984 32.517578 L 20.0625 24.703125 A 1.0001 1.0001 0 0 0 20.128906 24.630859 z M 16.052734 35.419922 C 18.307217 35.747075 21.253651 36 25.183594 36 C 28.970311 36 31.785868 35.764961 33.958984 35.455078 A 1.0006891 1.0006891 0 0 0 34.154297 35.746094 L 41.197266 42.992188 C 40.730403 43.204999 40.676835 43.336107 39 43.732422 C 36.352979 44.358037 31.987289 45 25.228516 45 C 18.469742 45 13.98634 44.35843 11.21875 43.730469 C 9.4405474 43.326998 9.334691 43.18413 8.8242188 42.966797 L 15.859375 35.695312 A 1.0001 1.0001 0 0 0 16.052734 35.419922 z"/></svg>