<?xml version="1.0"?><svg xmlns="http://www.w3.org/2000/svg"  viewBox="0 0 50 50" width="1000px" height="1000px">    <path d="M 28 4 C 27.75 4 27.500781 4.1007812 27.300781 4.3007812 C 26.500781 5.1007812 24.100781 8.9003906 25.300781 12.400391 C 26.200781 14.900391 28.700391 16.5 32.900391 17 C 38.000391 17.7 39.499609 18.599219 40.099609 21.199219 C 40.199609 21.699219 40.599609 22 41.099609 22 L 41.300781 22 C 41.800781 21.9 42.199609 21.400781 42.099609 20.800781 C 41.299609 16.800781 38.499219 15.7 33.199219 15 C 29.899219 14.6 27.899219 13.499219 27.199219 11.699219 C 26.399219 9.2992187 28.299219 6.1992187 28.699219 5.6992188 C 29.099219 5.2992187 29.099219 4.7007813 28.699219 4.3007812 C 28.499219 4.1007812 28.25 4 28 4 z M 34 5.0996094 C 33.4 5.0996094 33 5.4996094 33 6.0996094 C 33 6.6996094 33.4 7 34 7 C 36.4 7 39.6 7.4996094 40 12.099609 C 40 12.599609 40.5 13 41 13 C 41.8 13 44.300391 13.100781 45.400391 14.800781 C 46.200391 16.100781 46.1 17.999609 45 20.599609 C 44.8 21.099609 45 21.700391 45.5 21.900391 C 45.7 22.000391 45.9 22 46 22 C 46.4 22 46.800391 21.800391 46.900391 21.400391 C 48.300391 18.100391 48.299609 15.499219 47.099609 13.699219 C 45.799609 11.699219 43.400391 11.199609 41.900391 11.099609 C 41.400391 8.1996094 39.6 5.0996094 34 5.0996094 z M 5.9003906 24 C 2.6003906 24 1.1842379e-15 26.7 0 30 C 0 33.3 2.6003906 36 5.9003906 36 L 40 36 L 42 36 L 44 36 L 46 36 L 50 36 L 50 24 L 46 24 L 44 24 L 42 24 L 40 24 L 5.9003906 24 z M 5.9003906 26 L 14 26 L 14 26.599609 C 12.8 27.299609 12 28.6 12 30 C 12 31.4 12.8 32.700391 14 33.400391 L 14 34 L 5.9003906 34 C 3.7003906 34 2 32.2 2 30 C 2 27.8 3.7003906 26 5.9003906 26 z M 18 26 L 40 26 L 40 34 L 18 34 L 18 33.400391 C 19.2 32.700391 20 31.4 20 30 C 20 28.6 19.2 27.299609 18 26.599609 L 18 26 z M 42 26 L 44 26 L 44 34 L 42 34 L 42 26 z M 46 26 L 48 26 L 48 34 L 46 34 L 46 26 z M 16 28 C 17.1 28 18 28.9 18 30 C 18 31.1 17.1 32 16 32 C 14.9 32 14 31.1 14 30 C 14 28.9 14.9 28 16 28 z"/></svg>