<svg xmlns="http://www.w3.org/2000/svg"  viewBox="0 0 50 50" width="1000px" height="1000px"><path d="M 27.183594 2.007813 C 26.933594 2 26.679688 2.015625 26.4375 2.054688 C 25.453125 2.207031 24.542969 2.730469 23.953125 3.605469 C 23.914063 3.667969 23.890625 3.734375 23.855469 3.796875 C 23.878906 3.742188 23.890625 3.675781 23.921875 3.628906 C 22.164063 6.296875 2.9375 37.417969 2.578125 38.058594 C 2.199219 38.71875 0.960938 41.324219 3.941406 43.175781 C 4.734375 43.667969 5.46875 43.863281 6.113281 43.863281 C 7.277344 43.863281 8.148438 43.234375 8.53125 42.605469 C 8.921875 41.957031 30.097656 8.390625 30.097656 8.390625 C 30.097656 8.390625 30.035156 8.441406 30.015625 8.460938 C 30.171875 8.296875 30.324219 8.125 30.453125 7.933594 C 31.589844 6.246094 31.140625 3.910156 29.371094 2.71875 C 28.703125 2.265625 27.9375 2.03125 27.183594 2.007813 Z M 27.136719 3.992188 C 27.507813 4.011719 27.894531 4.132813 28.253906 4.375 C 29.226563 5.03125 29.367188 5.96875 28.796875 6.816406 C 28.226563 7.664063 27.222656 7.9375 26.28125 7.304688 C 25.320313 6.65625 25.085938 5.503906 25.609375 4.722656 C 25.875 4.332031 26.296875 4.082031 26.769531 4.015625 C 26.890625 3.996094 27.011719 3.988281 27.136719 3.992188 Z M 26.90625 4.46875 C 26.554688 4.445313 26.203125 4.539063 25.984375 4.828125 C 25.816406 5.039063 25.710938 5.476563 26.070313 5.734375 C 26.519531 5.988281 27.015625 5.695313 27.285156 5.578125 C 27.027344 5.917969 27.246094 6.480469 27.53125 6.726563 C 27.785156 6.9375 28.179688 6.855469 28.453125 6.507813 C 28.8125 6.046875 28.308594 5.152344 27.84375 4.796875 C 27.609375 4.625 27.253906 4.492188 26.90625 4.46875 Z M 23.839844 7.476563 C 24.023438 7.820313 24.246094 8.144531 24.527344 8.429688 C 24.441406 8.585938 24.386719 8.695313 24.292969 8.855469 C 24.296875 8.855469 24.296875 8.859375 24.300781 8.859375 C 23.929688 9.511719 23.515625 10.234375 23.058594 11.019531 C 21.148438 14.273438 18.578125 18.578125 15.988281 22.890625 C 11.253906 30.675781 6.527344 38.46875 5.6875 39.855469 L 5.804688 39.6875 C 6.972656 37.988281 11.945313 30.734375 16.917969 23.464844 C 19.734375 19.304688 22.554688 15.128906 24.628906 11.972656 C 25.125 11.210938 25.566406 10.519531 25.96875 9.898438 C 25.972656 9.902344 25.976563 9.902344 25.980469 9.90625 C 26.089844 9.734375 26.164063 9.613281 26.265625 9.453125 C 26.597656 9.546875 26.933594 9.605469 27.269531 9.609375 C 26.105469 11.429688 7.101563 41.105469 6.828125 41.5625 C 6.789063 41.625 6.550781 41.863281 6.117188 41.863281 C 5.789063 41.863281 5.402344 41.730469 4.996094 41.476563 C 4.5 41.167969 3.46875 40.53125 4.316406 39.046875 C 4.898438 38.046875 22.601563 9.46875 23.839844 7.476563 Z M 44.003906 10.035156 C 43.046875 10.101563 42.132813 10.523438 41.472656 11.292969 L 41.460938 11.277344 C 41.460938 11.277344 41.277344 11.449219 40.949219 11.765625 C 40.847656 11.859375 40.730469 11.96875 40.597656 12.097656 C 35.828125 16.699219 12.648438 39.039063 12.1875 39.515625 C 11.648438 40.066406 9.789063 42.289063 12.21875 44.796875 C 13.132813 45.742188 14.078125 46.078125 14.898438 46.078125 C 15.714844 46.078125 16.40625 45.742188 16.8125 45.339844 C 17.359375 44.796875 46.589844 17.296875 46.589844 17.296875 L 46.578125 17.285156 L 46.578125 17.277344 L 46.5625 17.253906 C 46.949219 17.039063 47.308594 16.761719 47.605469 16.394531 C 48.933594 14.753906 48.542969 12.308594 46.871094 10.953125 C 46.03125 10.277344 44.996094 9.96875 44.003906 10.035156 Z M 44.167969 12.019531 C 44.644531 11.992188 45.164063 12.144531 45.609375 12.507813 C 46.507813 13.234375 46.640625 14.402344 46.046875 15.136719 C 45.457031 15.867188 44.285156 15.980469 43.390625 15.253906 C 42.492188 14.527344 42.355469 13.359375 42.949219 12.625 C 43.246094 12.261719 43.6875 12.046875 44.167969 12.019531 Z M 44.03125 12.453125 C 43.859375 12.460938 43.667969 12.542969 43.496094 12.691406 C 43.035156 13.097656 43.382813 14.105469 43.789063 14.550781 C 44.203125 14.992188 45.132813 15.375 45.695313 14.875 C 45.90625 14.6875 46.097656 14.261719 45.78125 13.929688 C 45.367188 13.585938 44.804688 13.792969 44.511719 13.859375 C 44.839844 13.558594 44.71875 12.945313 44.472656 12.640625 C 44.367188 12.511719 44.207031 12.449219 44.03125 12.453125 Z M 40.519531 14.953125 C 40.789063 15.542969 41.171875 16.101563 41.652344 16.578125 C 42.117188 17.054688 42.65625 17.441406 43.230469 17.714844 C 36.308594 24.226563 15.890625 43.4375 15.394531 43.921875 C 15.359375 43.957031 15.175781 44.078125 14.894531 44.078125 C 14.40625 44.078125 13.953125 43.710938 13.65625 43.40625 C 13.257813 42.992188 12.425781 42.132813 13.625 40.910156 C 14.214844 40.3125 31.171875 23.964844 38.414063 16.984375 Z"/></svg>