<svg xmlns="http://www.w3.org/2000/svg"  viewBox="0 0 50 50" width="1000px" height="1000px"><path d="M 25 0.1875 C 11.210938 0.1875 0 11.3125 0 25 C 0 38.6875 11.210938 49.8125 25 49.8125 C 38.789063 49.8125 50 38.6875 50 25 C 50 11.3125 38.789063 0.1875 25 0.1875 Z M 25 2.1875 C 35.902344 2.1875 45.027344 9.699219 47.40625 19.78125 C 47.410156 19.800781 47.402344 19.824219 47.40625 19.84375 C 46.226563 29.179688 42.445313 34.21875 38.40625 37.03125 C 34.359375 39.847656 29.941406 40.40625 27.59375 40.40625 C 22.847656 40.40625 18.109375 38.609375 14.5 35 C 8.78125 29.28125 8.78125 20.03125 14.5 14.3125 C 19.019531 9.792969 26.261719 9.792969 30.78125 14.3125 C 34.300781 17.832031 34.300781 23.480469 30.78125 27 C 28.070313 29.710938 23.617188 29.710938 20.90625 27 C 18.785156 24.878906 18.785156 21.527344 20.90625 19.40625 C 22.527344 17.785156 25.066406 17.785156 26.6875 19.40625 C 27.90625 20.625 27.90625 22.5625 26.6875 23.78125 C 26.289063 24.167969 26.285156 24.804688 26.671875 25.203125 C 27.058594 25.601563 27.695313 25.605469 28.09375 25.21875 C 30.078125 23.234375 30.078125 19.984375 28.09375 18 C 25.714844 15.621094 21.878906 15.621094 19.5 18 C 16.621094 20.878906 16.621094 25.527344 19.5 28.40625 C 22.988281 31.894531 28.730469 31.894531 32.21875 28.40625 C 36.5 24.125 36.5 17.1875 32.21875 12.90625 C 29.578125 10.265625 26.113281 8.9375 22.65625 8.9375 C 19.199219 8.9375 15.734375 10.265625 13.09375 12.90625 C 6.609375 19.390625 6.609375 29.921875 13.09375 36.40625 C 17.085938 40.398438 22.339844 42.40625 27.59375 42.40625 C 30.246094 42.40625 35.03125 41.789063 39.53125 38.65625 C 42.882813 36.324219 46.007813 32.589844 47.90625 26.78125 C 46.996094 38.550781 37.117188 47.8125 25 47.8125 C 12.28125 47.8125 2 37.597656 2 25 C 2 12.402344 12.28125 2.1875 25 2.1875 Z M 30.5 5 C 29.671875 5 29 5.671875 29 6.5 C 29 7.328125 29.671875 8 30.5 8 C 31.328125 8 32 7.328125 32 6.5 C 32 5.671875 31.328125 5 30.5 5 Z M 35.5 9 C 34.671875 9 34 9.671875 34 10.5 C 34 11.328125 34.671875 12 35.5 12 C 36.328125 12 37 11.328125 37 10.5 C 37 9.671875 36.328125 9 35.5 9 Z M 14.5 22 C 13.671875 22 13 22.671875 13 23.5 C 13 24.328125 13.671875 25 14.5 25 C 15.328125 25 16 24.328125 16 23.5 C 16 22.671875 15.328125 22 14.5 22 Z M 37.5 27 C 36.671875 27 36 27.671875 36 28.5 C 36 29.328125 36.671875 30 37.5 30 C 38.328125 30 39 29.328125 39 28.5 C 39 27.671875 38.328125 27 37.5 27 Z M 15.5 28 C 14.671875 28 14 28.671875 14 29.5 C 14 30.328125 14.671875 31 15.5 31 C 16.328125 31 17 30.328125 17 29.5 C 17 28.671875 16.328125 28 15.5 28 Z M 33.5 31 C 32.671875 31 32 31.671875 32 32.5 C 32 33.328125 32.671875 34 33.5 34 C 34.328125 34 35 33.328125 35 32.5 C 35 31.671875 34.328125 31 33.5 31 Z M 38.5 32 C 37.671875 32 37 32.671875 37 33.5 C 37 34.328125 37.671875 35 38.5 35 C 39.328125 35 40 34.328125 40 33.5 C 40 32.671875 39.328125 32 38.5 32 Z M 13.5 40 C 12.671875 40 12 40.671875 12 41.5 C 12 42.328125 12.671875 43 13.5 43 C 14.328125 43 15 42.328125 15 41.5 C 15 40.671875 14.328125 40 13.5 40 Z"/></svg>