<svg fill="#000000" xmlns="http://www.w3.org/2000/svg"  viewBox="0 0 50 50" width="1000px" height="1000px"><path d="M 19.5 2 C 9.171875 2 1 12.1875 1 24.5 C 1 36.8125 9.171875 47 19.5 47 C 19.636719 47 19.773438 47.003906 19.90625 47 C 19.980469 47.007813 20.050781 47.007813 20.125 47 C 33.332031 47 39.859375 42.527344 43.03125 37.84375 C 44.617188 35.503906 45.386719 33.140625 45.8125 31.34375 C 46.027344 30.445313 46.144531 29.679688 46.25 29.15625 C 46.304688 28.894531 46.34375 28.695313 46.375 28.59375 C 46.953125 28.140625 47.550781 27.597656 48.03125 26.96875 C 48.558594 26.277344 49 25.527344 49 24.59375 C 49 23.003906 47.808594 21.679688 46.09375 20.625 C 46.046875 20.523438 45.992188 20.324219 45.90625 20.0625 C 45.730469 19.539063 45.476563 18.773438 45.15625 17.875 C 44.515625 16.074219 43.53125 13.707031 41.8125 11.34375 C 38.375 6.621094 31.980469 2 20.34375 2 C 20.3125 2 20.28125 2 20.25 2 C 20.195313 2.007813 20.144531 2.015625 20.09375 2.03125 C 19.898438 2.023438 19.699219 2 19.5 2 Z M 19.5 4 C 28.5 4 36 13.066406 36 24.5 C 36 35.933594 28.5 45 19.5 45 C 10.5 45 3 35.933594 3 24.5 C 3 13.066406 10.5 4 19.5 4 Z M 28.6875 4.96875 C 34.492188 6.464844 37.96875 9.484375 40.1875 12.53125 C 41.75 14.675781 42.675781 16.832031 43.28125 18.53125 C 43.582031 19.382813 43.808594 20.117188 44 20.6875 C 44.09375 20.972656 44.179688 21.210938 44.28125 21.4375 C 44.382813 21.664063 44.421875 21.933594 44.90625 22.21875 C 46.433594 23.109375 47 24.039063 47 24.59375 C 47 24.765625 46.824219 25.246094 46.4375 25.75 C 46.050781 26.253906 45.492188 26.785156 45 27.15625 C 44.570313 27.480469 44.546875 27.757813 44.46875 28 C 44.390625 28.242188 44.339844 28.464844 44.28125 28.75 C 44.164063 29.324219 44.039063 30.042969 43.84375 30.875 C 43.449219 32.539063 42.777344 34.648438 41.375 36.71875 C 39.257813 39.84375 35.496094 42.96875 28.28125 44.3125 C 34.101563 40.496094 38 33.011719 38 24.5 C 38 16.1875 34.285156 8.863281 28.6875 4.96875 Z M 19.15625 8.3125 C 17.328125 8.371094 15.550781 8.867188 13.90625 9.78125 C 13.445313 10.042969 13.265625 10.617188 13.5 11.09375 L 18.53125 21.375 C 18.703125 21.722656 19.058594 21.945313 19.449219 21.9375 C 19.835938 21.929688 20.1875 21.699219 20.34375 21.34375 L 25.0625 10.8125 C 25.265625 10.328125 25.0625 9.769531 24.59375 9.53125 C 22.839844 8.652344 20.984375 8.253906 19.15625 8.3125 Z M 19.21875 10.28125 C 20.414063 10.242188 21.628906 10.511719 22.8125 10.96875 L 19.40625 18.59375 L 15.75 11.15625 C 16.875 10.660156 18.03125 10.320313 19.21875 10.28125 Z M 26.53125 11.15625 C 26.203125 11.207031 25.921875 11.417969 25.78125 11.71875 L 21.0625 22.25 C 20.921875 22.5625 20.953125 22.925781 21.144531 23.210938 C 21.335938 23.496094 21.65625 23.664063 22 23.65625 L 31.78125 23.40625 C 32.0625 23.398438 32.332031 23.273438 32.515625 23.058594 C 32.699219 22.84375 32.785156 22.5625 32.75 22.28125 C 32.265625 18.035156 30.402344 14.050781 27.34375 11.375 C 27.117188 11.1875 26.820313 11.105469 26.53125 11.15625 Z M 11.71875 11.5 C 11.527344 11.542969 11.355469 11.640625 11.21875 11.78125 C 9.824219 13.101563 8.636719 14.757813 7.75 16.75 C 6.859375 18.734375 6.355469 20.828125 6.1875 22.9375 C 6.160156 23.21875 6.253906 23.496094 6.445313 23.707031 C 6.636719 23.914063 6.90625 24.03125 7.1875 24.03125 L 16.96875 23.78125 C 17.308594 23.773438 17.621094 23.59375 17.796875 23.300781 C 17.976563 23.011719 17.992188 22.648438 17.84375 22.34375 L 12.78125 12.0625 C 12.59375 11.660156 12.160156 11.429688 11.71875 11.5 Z M 27 13.9375 C 28.792969 15.925781 29.917969 18.578125 30.4375 21.4375 L 23.5625 21.625 Z M 11.65625 14.3125 L 15.375 21.8125 L 8.34375 22 C 8.5625 20.480469 8.925781 18.980469 9.5625 17.5625 C 10.128906 16.296875 10.867188 15.253906 11.65625 14.3125 Z M 31.78125 24.96875 L 22 25.21875 C 21.664063 25.238281 21.363281 25.421875 21.191406 25.710938 C 21.023438 26 21.007813 26.355469 21.15625 26.65625 L 26.21875 36.9375 C 26.359375 37.214844 26.625 37.410156 26.929688 37.464844 C 27.238281 37.519531 27.550781 37.429688 27.78125 37.21875 C 29.171875 35.890625 30.359375 34.226563 31.25 32.25 C 32.136719 30.261719 32.648438 28.171875 32.8125 26.0625 C 32.839844 25.777344 32.742188 25.492188 32.542969 25.28125 C 32.347656 25.074219 32.070313 24.957031 31.78125 24.96875 Z M 17 25.34375 L 7.21875 25.59375 C 6.9375 25.601563 6.667969 25.726563 6.484375 25.941406 C 6.300781 26.15625 6.214844 26.4375 6.25 26.71875 C 6.734375 30.960938 8.570313 34.949219 11.625 37.625 C 11.863281 37.84375 12.195313 37.933594 12.511719 37.863281 C 12.828125 37.796875 13.089844 37.578125 13.21875 37.28125 L 17.9375 26.75 C 18.078125 26.4375 18.046875 26.074219 17.855469 25.789063 C 17.664063 25.503906 17.34375 25.335938 17 25.34375 Z M 30.53125 27 C 30.3125 28.507813 30.070313 30.019531 29.4375 31.4375 C 28.871094 32.699219 28.132813 33.742188 27.34375 34.6875 L 23.625 27.1875 Z M 19.375 27.0625 C 19.050781 27.128906 18.785156 27.351563 18.65625 27.65625 L 13.9375 38.1875 C 13.734375 38.671875 13.9375 39.230469 14.40625 39.46875 C 17.917969 41.234375 21.8125 41.027344 25.09375 39.21875 C 25.554688 38.957031 25.734375 38.382813 25.5 37.90625 L 20.46875 27.625 C 20.285156 27.246094 19.886719 27.019531 19.46875 27.0625 C 19.4375 27.0625 19.40625 27.0625 19.375 27.0625 Z M 15.4375 27.375 L 12 35.0625 C 10.207031 33.070313 9.082031 30.421875 8.5625 27.5625 Z M 19.59375 30.40625 L 23.25 37.84375 C 20.996094 38.828125 18.546875 38.941406 16.1875 38.03125 Z"/></svg>