<svg xmlns="http://www.w3.org/2000/svg"  viewBox="0 0 50 50" width="1000px" height="1000px"><path d="M 34.666016 6.109375 C 33.981603 6.1053947 33.274641 6.1201689 32.554688 6.1601562 C 30.63481 6.2667891 28.616175 6.5486035 26.646484 7.1132812 C 20.028556 9.0100556 11.121094 7.0996094 11.121094 7.0996094 A 1.0001 1.0001 0 0 0 9.9375 7.8183594 C 9.9375 7.8183594 8.5610595 13.035696 9.171875 19.220703 C 8.7084645 19.670318 8.3619927 20.257636 8.2128906 20.929688 C 8.2047906 20.961807 6.5293363 27.605521 6.0683594 30.693359 C 5.9807694 31.231725 6.0143824 31.794666 6.0371094 32.396484 C 6.0539654 32.84284 6.0636765 33.158412 6.0703125 33.443359 L 2.8378906 36.677734 A 1.0001 1.0001 0 0 0 2.8378906 38.091797 L 13.443359 48.697266 A 1.0001 1.0001 0 0 0 14.857422 48.697266 L 22.511719 41.042969 C 24.161379 40.827197 25.827289 40.390856 27.378906 39.59375 C 34.313883 36.030886 42.53125 39.617188 42.53125 39.617188 A 1.0001 1.0001 0 0 0 43.910156 38.949219 C 43.910156 38.949219 46.14213 30.343893 43.900391 22.583984 C 41.86305 15.531504 43.900391 8.3535156 43.900391 8.3535156 A 1.0001 1.0001 0 0 0 43.185547 7.1054688 C 43.185547 7.1054688 39.456902 6.1372373 34.666016 6.109375 z M 34.332031 8.0976562 C 38.021837 8.0907021 40.974264 8.7240713 41.783203 8.90625 C 41.404087 10.37998 40.003657 16.30248 41.978516 23.138672 C 43.782227 29.382419 42.479323 35.799333 42.142578 37.337891 C 39.615732 36.428383 32.851391 34.535299 26.464844 37.816406 C 26.054593 38.027162 25.627984 38.203208 25.193359 38.361328 L 33.242188 30.3125 C 34.40526 29.149427 34.40526 27.233387 33.242188 26.070312 C 32.967422 25.795548 32.579191 25.803147 32.240234 25.658203 L 33.242188 24.65625 C 34.40526 23.493177 34.40526 21.577137 33.242188 20.414062 C 32.813255 19.985132 32.235954 19.884043 31.677734 19.771484 C 31.96632 18.755599 31.916179 17.672038 31.123047 16.878906 C 30.272168 16.028028 29.086762 16.016067 28.019531 16.410156 C 27.896505 15.88643 27.816904 15.338388 27.412109 14.933594 C 26.830573 14.352057 26.060801 14.0625 25.291016 14.0625 C 24.52123 14.0625 23.751458 14.352057 23.169922 14.933594 L 14.154297 23.947266 L 14.392578 22.28125 L 14.380859 22.347656 C 14.755278 20.595268 13.743931 18.789213 12.009766 18.386719 A 1.0001 1.0001 0 0 0 12.003906 18.384766 C 11.696875 18.314998 11.395078 18.312653 11.097656 18.337891 C 10.735786 13.715796 11.478125 10.219868 11.716797 9.1992188 C 13.183184 9.5070615 20.498405 10.95708 27.197266 9.0371094 C 29.639387 8.3369935 32.118148 8.1018288 34.332031 8.0976562 z M 25.291016 16.048828 C 25.54473 16.048828 25.798583 16.148188 25.998047 16.347656 C 26.396974 16.746583 26.396974 17.362792 25.998047 17.761719 L 19.447266 24.3125 A 1.0001 1.0001 0 0 0 20.861328 25.726562 L 27.412109 19.175781 L 28.294922 18.292969 C 28.693849 17.894042 29.310057 17.894042 29.708984 18.292969 C 30.107911 18.691896 30.107911 19.308104 29.708984 19.707031 L 29.003906 20.412109 C 29.002806 20.413209 29.0011 20.412911 29 20.414062 L 22.275391 27.140625 L 23.689453 28.554688 L 30.416016 21.830078 C 30.814943 21.431151 31.429198 21.431151 31.828125 21.830078 C 32.227052 22.229005 32.227052 22.843261 31.828125 23.242188 L 29.001953 26.070312 L 29 26.070312 L 24.050781 31.021484 L 25.464844 32.435547 L 30.416016 27.484375 C 30.814943 27.085448 31.429198 27.085448 31.828125 27.484375 C 32.227052 27.883302 32.227052 28.49951 31.828125 28.898438 L 21.316406 39.412109 L 14.150391 46.576172 L 4.9589844 37.384766 L 7.7890625 34.554688 A 1.0001 1.0001 0 0 0 8.0800781 33.882812 C 8.0945031 33.460366 8.0570753 32.900736 8.0351562 32.320312 C 8.0132372 31.739891 8.0241356 31.11411 8.0410156 31.011719 A 1.0001 1.0001 0 0 0 8.0449219 30.996094 C 8.4604346 28.206087 10.158203 21.392578 10.158203 21.392578 A 1.0001 1.0001 0 0 0 10.164062 21.365234 C 10.243914 21.003011 10.435722 20.729041 10.673828 20.548828 A 1.0001 1.0001 0 0 0 10.783203 20.482422 C 11.022472 20.339646 11.294878 20.276555 11.558594 20.335938 L 11.560547 20.335938 C 12.142363 20.473745 12.587025 21.165875 12.423828 21.929688 A 1.0001 1.0001 0 0 0 12.412109 21.998047 L 11.748047 26.636719 A 1.0001 1.0001 0 0 0 13.443359 27.484375 L 24.583984 16.347656 C 24.783448 16.148193 25.037301 16.048828 25.291016 16.048828 z"/></svg>