<svg xmlns="http://www.w3.org/2000/svg"  viewBox="0 0 50 50" width="1000px" height="1000px"><path d="M 25 3 C 12.86158 3 3 12.86158 3 25 C 3 37.13842 12.86158 47 25 47 C 37.13842 47 47 37.13842 47 25 C 47 12.86158 37.13842 3 25 3 z M 25 5 C 25.391297 5 25.778367 5.0130623 26.164062 5.0351562 C 18.966334 8.6065522 14 16.156214 14 25.005859 C 14 33.755739 18.846817 41.320311 25.916016 44.976562 C 25.611909 44.990249 25.307525 45 25 45 C 23.954481 45 22.927711 44.919748 21.925781 44.765625 C 14.913611 41.736347 10 34.082272 10 25.005859 C 10 15.659893 15.424065 7.9377199 22.855469 5.1152344 C 23.560121 5.0403246 24.275253 5 25 5 z M 30.005859 5.65625 C 38.097253 7.7409216 44.198981 14.731674 44.921875 23.291016 C 41.95453 14.876779 34.138992 8.6297639 24.923828 8.0488281 C 26.48035 7.0130761 28.188697 6.2057575 30.005859 5.65625 z M 15.460938 7.4121094 C 10.89278 11.626259 8 17.917238 8 25.005859 C 8 31.751371 10.516529 37.843172 14.636719 42.087891 C 8.8639028 38.582734 5 32.256511 5 25 C 5 17.397941 9.2260829 10.796191 15.460938 7.4121094 z M 23.519531 10 C 34.773995 10 44.108704 19.32942 44.199219 30.572266 C 44.122503 30.837527 44.038436 31.098798 43.951172 31.359375 C 41.807517 21.461496 33.59152 14.005859 22.929688 14.005859 C 21.558279 14.005859 20.218991 14.140947 18.914062 14.375 C 19.879706 12.762061 21.052378 11.301586 22.404297 10.039062 C 22.773234 10.018902 23.142053 10 23.519531 10 z M 22.929688 16.005859 C 23.277963 16.005859 23.61486 16.037747 23.957031 16.054688 C 20.860811 17.534537 18.186869 19.74894 16.15625 22.474609 C 16.400747 20.426708 16.931658 18.480812 17.714844 16.681641 C 19.37952 16.246847 21.124462 16.005859 22.929688 16.005859 z M 28.007812 16.669922 C 29.124845 16.963115 30.192409 17.352625 31.208984 17.828125 C 31.263109 18.017131 31.322442 18.204153 31.373047 18.394531 C 24.703835 20.37813 19.594261 25.503428 17.21875 32.060547 C 16.586956 30.283066 16.184149 28.390215 16.054688 26.412109 C 18.458619 21.68069 22.787242 18.088099 28.007812 16.669922 z M 33.591797 19.136719 C 35.271097 20.244903 36.742251 21.626774 37.996094 23.205078 C 37.980392 26.562039 37.11414 29.722466 35.582031 32.519531 L 35.583984 32.519531 C 33.281431 36.719742 29.471105 40.084705 24.822266 41.984375 C 24.438109 41.722186 24.06399 41.447303 23.699219 41.158203 C 26.945653 39.13069 29.620546 36.354303 31.429688 33.076172 L 31.431641 33.076172 C 33.071109 30.102583 34 26.71745 34 23.136719 C 34 21.768891 33.850461 20.435243 33.591797 19.136719 z M 31.785156 20.357422 C 31.922893 21.265456 32 22.192235 32 23.136719 C 32 23.551092 31.986014 23.961352 31.958984 24.369141 C 26.516836 26.810247 21.616367 31.258892 19.648438 36.824219 C 19.215709 36.196105 18.817979 35.540744 18.455078 34.861328 C 20.212897 27.890592 25.127116 22.397097 31.785156 20.357422 z M 39.816406 25.908203 C 41.277214 28.534402 42.197768 31.54488 42.443359 34.779297 C 39.767978 39.546832 35.195612 43.086497 29.744141 44.412109 C 28.764294 44.097792 27.818319 43.704479 26.910156 43.240234 C 31.368013 41.09976 35.030279 37.686341 37.335938 33.480469 L 37.337891 33.480469 C 38.607126 31.163185 39.463164 28.608707 39.816406 25.908203 z M 31.646484 26.738281 C 31.269204 28.638008 30.599212 30.44163 29.679688 32.109375 C 27.947532 35.248011 25.321144 37.89384 22.119141 39.769531 C 21.785599 39.441902 21.465065 39.099373 21.154297 38.748047 C 22.442854 33.683602 26.688125 29.293048 31.646484 26.738281 z"/></svg>