<svg xmlns="http://www.w3.org/2000/svg"  viewBox="0 0 50 50" width="1000px" height="1000px"><path d="M 22.109375 1.992188 C 21.242188 1.980469 20.101563 2.058594 19.015625 2.40625 C 16.835938 3.109375 15.132813 4.8125 15.132813 4.8125 C 14.886719 5.050781 14.777344 5.398438 14.84375 5.734375 L 16.5625 14.171875 L 12.183594 20.425781 C 12.179688 20.425781 12.179688 20.429688 12.179688 20.429688 C 12.164063 20.453125 12.148438 20.476563 12.132813 20.503906 C 12.128906 20.507813 12.128906 20.511719 12.125 20.515625 C 12.113281 20.542969 12.101563 20.566406 12.089844 20.589844 C 12.085938 20.59375 12.085938 20.601563 12.082031 20.609375 C 12.046875 20.6875 12.023438 20.769531 12.011719 20.859375 C 12.007813 20.875 12.007813 20.894531 12.003906 20.917969 C 12.003906 20.933594 12.003906 20.949219 12 20.964844 C 12 20.976563 12 20.992188 12 21.003906 C 12 21.03125 12 21.058594 12.003906 21.085938 C 12.003906 21.085938 12.003906 21.085938 12.003906 21.089844 C 12.007813 21.121094 12.011719 21.152344 12.015625 21.183594 C 12.019531 21.1875 12.019531 21.191406 12.019531 21.199219 C 12.023438 21.21875 12.027344 21.242188 12.035156 21.265625 C 12.035156 21.265625 12.039063 21.273438 12.039063 21.277344 C 12.050781 21.3125 12.0625 21.347656 12.078125 21.382813 C 12.117188 21.53125 12.664063 23.398438 14.625 27.453125 C 16.660156 31.671875 20.203125 38.207031 26.246094 47.542969 C 26.496094 47.925781 26.96875 48.09375 27.402344 47.949219 L 39.316406 43.949219 C 39.742188 43.804688 40.019531 43.398438 40 42.953125 C 39.457031 31.839844 38.453125 24.542969 37.578125 20.003906 C 36.738281 15.664063 36.007813 13.824219 35.941406 13.671875 C 35.9375 13.648438 35.929688 13.628906 35.921875 13.609375 C 35.914063 13.597656 35.910156 13.585938 35.90625 13.578125 C 35.902344 13.566406 35.898438 13.558594 35.894531 13.550781 C 35.882813 13.53125 35.871094 13.507813 35.859375 13.488281 C 35.859375 13.484375 35.855469 13.484375 35.855469 13.484375 C 35.804688 13.398438 35.742188 13.324219 35.671875 13.257813 C 35.652344 13.242188 35.636719 13.230469 35.621094 13.214844 C 35.617188 13.210938 35.613281 13.210938 35.609375 13.207031 C 35.585938 13.1875 35.5625 13.171875 35.535156 13.15625 C 35.527344 13.148438 35.519531 13.144531 35.507813 13.140625 C 35.488281 13.128906 35.46875 13.117188 35.453125 13.109375 C 35.449219 13.105469 35.445313 13.101563 35.4375 13.101563 C 35.414063 13.089844 35.386719 13.078125 35.359375 13.066406 C 35.355469 13.066406 35.351563 13.0625 35.347656 13.0625 C 35.339844 13.058594 35.328125 13.054688 35.320313 13.050781 L 27.863281 10.527344 L 24.339844 2.679688 C 24.199219 2.367188 23.90625 2.148438 23.566406 2.097656 C 23.566406 2.097656 22.972656 2 22.109375 1.992188 Z M 22.03125 4.007813 C 22.453125 4.011719 22.539063 4.03125 22.761719 4.046875 L 25.761719 10.722656 L 18.386719 13.097656 L 16.925781 5.929688 C 17.390625 5.53125 18.417969 4.703125 19.625 4.3125 C 20.390625 4.066406 21.304688 4.007813 22.03125 4.007813 Z M 39.945313 7.992188 C 39.574219 8.007813 39.246094 8.226563 39.085938 8.5625 C 38.929688 8.898438 38.96875 9.292969 39.191406 9.589844 C 39.191406 9.589844 40.09375 10.808594 41.058594 13.515625 C 42.023438 16.222656 43 20.355469 43 26 C 42.996094 26.359375 43.183594 26.695313 43.496094 26.878906 C 43.808594 27.058594 44.191406 27.058594 44.503906 26.878906 C 44.816406 26.695313 45.003906 26.359375 45 26 C 45 20.125 43.976563 15.757813 42.941406 12.84375 C 41.90625 9.933594 40.808594 8.410156 40.808594 8.410156 C 40.609375 8.132813 40.285156 7.972656 39.945313 7.992188 Z M 27.125 12.386719 L 31.796875 13.96875 L 23.269531 16.683594 L 15.515625 19.148438 L 18.253906 15.238281 L 25.234375 12.992188 Z M 34.304688 15.269531 C 34.464844 15.6875 34.886719 16.609375 35.613281 20.386719 C 36.445313 24.691406 37.398438 31.765625 37.941406 42.300781 L 27.519531 45.796875 C 21.816406 36.929688 18.363281 30.601563 16.421875 26.585938 C 14.734375 23.082031 14.480469 22.082031 14.339844 21.625 L 23.734375 18.636719 Z M 5.984375 16.984375 C 5.433594 16.996094 4.992188 17.449219 5 18 C 5 28.660156 11.253906 35.667969 11.253906 35.667969 C 11.621094 36.078125 12.253906 36.113281 12.667969 35.746094 C 13.078125 35.378906 13.113281 34.746094 12.746094 34.332031 C 12.746094 34.332031 7 27.878906 7 18 C 7.003906 17.730469 6.898438 17.46875 6.707031 17.277344 C 6.515625 17.085938 6.253906 16.980469 5.984375 16.984375 Z"/></svg>