<svg fill="#000000" xmlns="http://www.w3.org/2000/svg"  viewBox="0 0 50 50" width="1000px" height="1000px"><path d="M 22.146484 3 C 21.968124 3 21.794087 3.0154911 21.617188 3.0214844 C 17.719146 3.0904295 13.854959 4.6762911 10.417969 8.1132812 C 1.7377548 16.793495 -0.036304845 32.483226 8.7402344 41.259766 C 17.51666 50.036191 33.204597 48.264153 41.886719 39.582031 C 45.413896 36.054854 47.012842 32.081499 47 28.080078 L 46.990234 28.080078 C 47.007556 26.92601 46.906495 25.740102 46.681641 24.541016 C 45.812575 19.906526 43.206611 15.03083 39.087891 10.912109 C 33.970539 5.7947582 27.69091 3 22.148438 3 L 22.146484 3 z M 22.126953 5 C 22.133566 4.9999909 22.139867 5 22.146484 5 L 22.148438 5 C 27.007964 5 32.88118 7.5335233 37.673828 12.326172 C 41.531107 16.183451 43.935112 20.739693 44.716797 24.908203 C 45.498481 29.076713 44.683677 32.78462 42.234375 35.234375 C 40.379085 37.089619 37.819188 38 34.855469 38 C 33.624535 38 32.327215 37.831856 31 37.513672 L 31 33.257812 C 32.430992 33.737496 33.856701 34.078125 35.226562 34.078125 C 36.465927 34.078125 38.272788 33.892548 39.583984 32.583984 C 41.112184 31.054451 41.369942 28.515718 40.755859 25.658203 C 39.976059 22.028061 37.792334 18.282568 34.755859 15.246094 C 30.884364 11.374598 26.026633 8.921875 21.775391 8.921875 L 21.773438 8.921875 C 20.533183 8.921875 18.728374 9.1069273 17.417969 10.416016 A 1.0001 1.0001 0 0 0 17.416016 10.416016 C 15.887816 11.945549 15.632011 14.484282 16.246094 17.341797 C 17.025894 20.971939 19.207666 24.717432 22.244141 27.753906 C 22.940142 28.449907 23.684632 29.049678 24.429688 29.636719 L 23.498047 34.113281 C 22.055565 33.138933 20.650349 31.996053 19.328125 30.673828 C 15.470387 26.816574 13.066721 22.258465 12.285156 18.089844 C 11.503592 13.921222 12.31834 10.214863 14.767578 7.765625 C 16.588807 5.9443953 19.091581 5.0386411 21.986328 5.0058594 C 22.033308 5.0062736 22.079941 5.0010542 22.126953 5.0019531 L 22.126953 5 z M 10.666016 10.806641 C 9.9117037 13.132364 9.815448 15.766194 10.320312 18.458984 C 11.189248 23.093613 13.7948 27.969145 17.914062 32.087891 C 19.518078 33.691906 21.240705 35.054165 23.015625 36.185547 C 22.697298 37.281608 21.979057 39.540861 20.900391 41.582031 A 1.0001 1.0001 0 0 0 22.066406 43.009766 C 25.945396 41.870482 28.693502 40.158448 29.916016 39.302734 C 31.592391 39.758026 33.255062 40 34.855469 40 C 36.376595 40 37.841156 39.770838 39.207031 39.324219 C 31.081277 46.217291 17.576871 47.268278 10.154297 39.845703 C 2.7358243 32.427193 3.7845438 18.932228 10.666016 10.806641 z M 21.773438 10.921875 L 21.775391 10.921875 C 25.226148 10.921875 29.773293 13.091652 33.341797 16.660156 C 36.131322 19.449682 38.124582 22.930267 38.800781 26.078125 A 1.0001 1.0001 0 0 0 38.800781 26.080078 C 39.334699 28.564563 38.933722 30.405455 38.169922 31.169922 C 37.489118 31.849359 36.217198 32.078125 35.226562 32.078125 C 33.770564 32.078125 32.100262 31.679919 30.390625 30.955078 A 1.0001 1.0001 0 0 0 29.283203 31.177734 L 29.277344 31.169922 C 29.253549 31.191073 27.760407 32.929652 25.490234 34.355469 L 26.507812 29.472656 A 1.0001 1.0001 0 0 0 26.128906 28.46875 C 25.267822 27.821006 24.435497 27.117138 23.658203 26.339844 C 20.868678 23.550318 18.877371 20.069733 18.201172 16.921875 A 1.0001 1.0001 0 0 0 18.201172 16.919922 C 17.667254 14.435437 18.068231 12.594545 18.832031 11.830078 C 19.511911 11.152057 20.782252 10.921875 21.773438 10.921875 z M 29 34.128906 L 29 37.470703 C 28.635321 37.758228 26.680013 38.93954 23.652344 40.169922 C 24.191303 38.832556 24.562674 37.763313 24.822266 36.984375 C 26.583863 36.063217 27.984836 34.99786 29 34.128906 z"/></svg>