<svg xmlns="http://www.w3.org/2000/svg"  viewBox="0 0 50 50" width="1000px" height="1000px"><path d="M 22 2 A 1.0001 1.0001 0 0 0 21 3 L 21 6.6972656 L 17.244141 12.332031 A 1.0001 1.0001 0 0 0 17 13.158203 L 17 22.257812 C 14.568861 21.829468 12.230449 22.227223 10.568359 23.697266 L 10.548828 23.677734 C 10.490976 23.735596 10.441746 23.797213 10.384766 23.855469 C 10.356806 23.882347 10.324406 23.902156 10.296875 23.929688 C 10.221044 24.005521 10.162688 24.092829 10.091797 24.171875 C 7.1755946 27.273116 5.4559951 30.887369 5.0800781 34.429688 C 4.6842807 38.159341 5.7943226 41.81776 8.4882812 44.511719 C 10.981486 47.005428 14.302858 48.12679 17.740234 47.96875 A 1.0001 1.0001 0 0 0 18 48 L 35 48 L 41 48 A 1.0001 1.0001 0 0 0 42 47 L 42 13 A 1.0001 1.0001 0 0 0 41.894531 12.552734 L 39 6.7636719 L 39 3 A 1.0001 1.0001 0 0 0 38 2 L 22 2 z M 23 4 L 37 4 L 37 6 L 23 6 L 23 4 z M 22.535156 8 L 36.382812 8 L 34.382812 12 L 19.869141 12 L 22.535156 8 z M 38 9.2363281 L 40 13.236328 L 40 46 L 36 46 L 36 13.236328 L 38 9.2363281 z M 19 14 L 34 14 L 34 46 L 24.574219 46 C 26.063612 45.199011 27.501099 44.159726 28.84375 42.894531 C 28.917167 42.828189 28.997733 42.773754 29.068359 42.703125 C 29.09286 42.678623 29.110783 42.649841 29.134766 42.625 C 29.196369 42.564811 29.261103 42.512335 29.322266 42.451172 L 29.300781 42.429688 C 30.892178 40.629692 31.238915 38.037777 30.628906 35.394531 C 29.988448 32.619347 28.330763 29.699817 25.814453 27.183594 C 23.717013 25.086227 21.340206 23.595611 19 22.783203 L 19 14 z M 15.490234 24.083984 C 16.016808 24.106127 16.573826 24.183969 17.15625 24.318359 C 19.485945 24.855921 22.122932 26.320277 24.400391 28.597656 C 26.67785 30.875036 28.143997 33.514073 28.681641 35.84375 C 29.208083 38.124892 28.856602 40.011773 27.722656 41.208984 C 27.628981 41.30031 27.532137 41.383939 27.4375 41.472656 C 26.235443 42.510459 24.407457 42.82369 22.208984 42.316406 C 19.879287 41.778844 17.242304 40.310583 14.964844 38.033203 C 12.687385 35.755824 11.221236 33.120693 10.683594 30.791016 C 10.181246 28.614281 10.482962 26.798334 11.496094 25.595703 C 11.597467 25.487044 11.694027 25.376928 11.798828 25.269531 C 12.690004 24.429722 13.958554 24.019577 15.490234 24.083984 z M 15.501953 25.919922 C 14.670675 25.919929 13.813383 26.200267 13.189453 26.824219 C 12.565523 27.448171 12.287087 28.303487 12.287109 29.134766 C 12.287131 29.966045 12.521312 30.799378 12.890625 31.638672 C 13.629252 33.317262 14.928024 35.039406 16.443359 36.554688 C 17.958695 38.06997 19.68076 39.368855 21.359375 40.107422 C 22.198682 40.476706 23.032003 40.712898 23.863281 40.712891 C 24.69456 40.712884 25.551851 40.432546 26.175781 39.808594 C 26.799711 39.184642 27.078148 38.329325 27.078125 37.498047 C 27.078104 36.666768 26.843922 35.831481 26.474609 34.992188 C 25.735983 33.313598 24.435257 31.591455 22.919922 30.076172 C 21.404587 28.56089 19.684474 27.262005 18.005859 26.523438 C 17.166551 26.154155 16.333232 25.919915 15.501953 25.919922 z M 15.501953 27.919922 C 15.936406 27.919918 16.531685 28.061764 17.199219 28.355469 C 18.534287 28.942881 20.128017 30.114393 21.505859 31.492188 C 22.883702 32.869982 24.05512 34.463782 24.642578 35.798828 C 24.936307 36.466353 25.080066 37.063593 25.080078 37.498047 C 25.080089 37.932499 24.981589 38.174655 24.761719 38.394531 C 24.54185 38.614408 24.297734 38.712887 23.863281 38.712891 C 23.428828 38.712894 22.831597 38.571051 22.164062 38.277344 C 20.828995 37.689933 19.235265 36.51842 17.857422 35.140625 C 16.47958 33.762831 15.308161 32.169032 14.720703 30.833984 C 14.426974 30.166461 14.285167 29.569218 14.285156 29.134766 C 14.285144 28.700312 14.383646 28.458158 14.603516 28.238281 C 14.823385 28.018404 15.0675 27.919925 15.501953 27.919922 z M 8.5117188 29.837891 C 8.5587712 30.30196 8.6256942 30.769307 8.734375 31.240234 C 9.3748331 34.015418 11.034472 36.931045 13.550781 39.447266 C 16.067092 41.963489 18.98456 43.625264 21.759766 44.265625 C 22.231392 44.37445 22.699323 44.441269 23.164062 44.488281 C 21.568787 45.28061 19.939308 45.763975 18.359375 45.931641 C 15.146577 46.272588 12.156412 45.35218 9.9023438 43.097656 C 7.6483023 40.843615 6.7274068 37.85347 7.0683594 34.640625 C 7.2359704 33.061202 7.7198078 31.432646 8.5117188 29.837891 z"/></svg>