<svg fill="#000000" xmlns="http://www.w3.org/2000/svg"  viewBox="0 0 50 50" width="1000px" height="1000px"><path d="M 19 3 A 1.0001 1.0001 0 0 0 18.425781 3.1816406 L 8.5234375 10.113281 A 1.0001 1.0001 0 0 0 8.5195312 10.115234 A 1.0001 1.0001 0 0 0 7.9882812 11.058594 L 5.0917969 41 L 4 41 C 2.3550302 41 1 42.35503 1 44 C 1 45.64497 2.3550302 47 4 47 L 46 47 C 47.64497 47 49 45.64497 49 44 C 49 42.35503 47.64497 41 46 41 L 44.908203 41 L 42.011719 11.056641 A 1.0001 1.0001 0 0 0 41.480469 10.115234 L 31.574219 3.1816406 A 1.0001 1.0001 0 0 0 31 3 L 19 3 z M 19.314453 5 L 30.685547 5 L 37.828125 10 L 12.171875 10 L 19.314453 5 z M 9.9082031 12 L 40.091797 12 L 42.898438 41 L 7.1015625 41 L 9.9082031 12 z M 4 43 L 6 43 L 44 43 L 46 43 C 46.56503 43 47 43.43497 47 44 C 47 44.56503 46.56503 45 46 45 L 4 45 C 3.4349698 45 3 44.56503 3 44 C 3 43.43497 3.4349698 43 4 43 z"/></svg>