<svg fill="#000000" xmlns="http://www.w3.org/2000/svg"  viewBox="0 0 50 50" width="1000px" height="1000px"><path d="M 17.533203 3 C 13.752129 3 10.118563 5.2660221 7.4394531 8.78125 C 4.7603429 12.296478 3 17.10763 3 22.435547 C 3 32.035891 8.6386101 40.08334 15.306641 41.642578 C 15.774758 42.479614 16.352788 43.255155 17.048828 43.951172 C 19.849214 46.75146 23.934969 47.673933 28.140625 46.990234 C 32.346281 46.306534 36.729929 44.043636 40.386719 40.386719 C 44.043509 36.729801 46.306681 32.346304 46.990234 28.140625 C 47.673787 23.934944 46.751558 19.849117 43.951172 17.048828 C 41.150786 14.24854 37.065031 13.326067 32.859375 14.009766 C 32.134809 14.127556 31.404319 14.308962 30.673828 14.519531 C 28.288777 7.7908432 23.089613 3 17.533203 3 z M 17.533203 5 C 21.896055 5 26.601456 9.0598344 28.78125 15.169922 C 25.91267 16.309587 23.09519 18.131286 20.613281 20.613281 C 16.956491 24.270199 14.693319 28.653696 14.009766 32.859375 C 13.650431 35.070246 13.748804 37.241276 14.316406 39.216797 C 9.4609224 37.111665 5 30.444703 5 22.435547 C 5 17.550464 6.6308602 13.143663 9.03125 9.9941406 C 11.43164 6.8446185 14.564277 5 17.533203 5 z M 16.980469 6.9882812 A 1.0001 1.0001 0 0 0 16.167969 7.4453125 C 16.167969 7.4453125 14 10.555556 14 14 C 14 16.183956 14.512685 19.070661 16.167969 21.554688 A 1.0001 1.0001 0 1 0 17.832031 20.445312 C 16.475315 18.409339 16 15.858044 16 14 C 16 11.444444 17.832031 8.5546875 17.832031 8.5546875 A 1.0001 1.0001 0 0 0 16.980469 6.9882812 z M 35.896484 15.796875 C 38.520529 15.876809 40.8347 16.760541 42.537109 18.462891 C 44.806989 20.732691 45.621778 24.088892 45.015625 27.818359 C 44.409472 31.547825 42.354167 35.591026 38.972656 38.972656 C 35.591144 42.354286 31.549757 44.409342 27.820312 45.015625 C 24.090867 45.621908 20.732771 44.806908 18.462891 42.537109 C 17.88007 41.95431 17.397463 41.298079 17.005859 40.583984 A 1.0001 1.0001 0 0 0 16.808594 40.167969 C 15.845226 38.175484 15.563048 35.773932 15.984375 33.181641 C 16.590528 29.452175 18.645833 25.408974 22.027344 22.027344 C 25.408856 18.645714 29.450243 16.590658 33.179688 15.984375 C 34.112049 15.832804 35.021803 15.77023 35.896484 15.796875 z M 40.984375 20.003906 A 1.0001 1.0001 0 0 0 40 21.017578 C 40 23.69058 37.939448 27.827603 30.378906 29.638672 C 25.633947 30.773381 22.958165 32.708738 21.542969 34.882812 C 20.127772 37.056888 20.021484 39.356875 20.021484 41 A 1.0001 1.0001 0 1 0 22.021484 41 C 22.021484 39.446125 22.129447 37.648035 23.21875 35.974609 C 24.308053 34.301183 26.426709 32.640275 30.84375 31.583984 C 39.013208 29.627054 42 24.742576 42 21.017578 A 1.0001 1.0001 0 0 0 40.984375 20.003906 z"/></svg>