<svg fill="#000000" xmlns="http://www.w3.org/2000/svg"  viewBox="0 0 50 50" width="1000px" height="1000px"><path d="M 23 0.91601562 C 21.309289 0.91601562 19.916016 2.3104127 19.916016 4 L 19.916016 6 A 1.0836084 1.0836084 0 0 0 20.996094 7.0839844 C 20.974944 10.786007 19.611396 13.292845 18.123047 16.021484 C 17.605146 16.97097 17.076933 17.953104 16.601562 19 L 16.5 19 L 16.5 19.216797 C 15.646963 21.147226 15 23.31982 15 26 C 15 32.222222 17 36.532335 17 39.087891 C 17 40.315531 16.577446 41.385711 16.087891 42.476562 C 15.598335 43.567414 15 44.666667 15 46 C 15 47.333333 15.81422 48.275274 16.552734 48.644531 C 17.291248 49.013788 18 49 18 49 L 23 49 L 27 49 L 32 49 C 32 49 32.708752 49.01379 33.447266 48.644531 C 34.18578 48.275274 35 47.333333 35 46 C 35 44.666667 34.401665 43.567414 33.912109 42.476562 C 33.422554 41.385711 33 40.315531 33 39.087891 C 33 36.532335 35 32.222222 35 26 C 35 23.31982 34.353037 21.147226 33.5 19.216797 L 33.5 19 L 33.398438 19 C 32.923067 17.953104 32.394854 16.97097 31.876953 16.021484 C 30.388604 13.292845 29.025056 10.786007 29.003906 7.0839844 A 1.0836084 1.0836084 0 0 0 30.083984 6 L 30.083984 4 C 30.083984 2.3104127 28.690711 0.91601562 27 0.91601562 L 23 0.91601562 z M 23 3.0839844 L 27 3.0839844 C 27.519289 3.0839844 27.916016 3.4815873 27.916016 4 L 27.916016 4.9160156 L 22.083984 4.9160156 L 22.083984 4 C 22.083984 3.4815873 22.480711 3.0839844 23 3.0839844 z M 22.996094 7.0839844 L 27.003906 7.0839844 C 27.025843 11.287758 28.633291 14.247297 30.123047 16.978516 C 30.494077 17.658738 30.856362 18.325689 31.193359 19 L 29.191406 19 L 27.935547 15.648438 A 1.0001 1.0001 0 0 0 27.021484 14.986328 A 1.0001 1.0001 0 0 0 26.064453 16.351562 L 27.058594 19 L 22.941406 19 L 23.935547 16.351562 A 1.0001 1.0001 0 0 0 22.949219 14.988281 A 1.0001 1.0001 0 0 0 22.064453 15.648438 L 20.808594 19 L 18.806641 19 C 19.143638 18.325689 19.505923 17.658738 19.876953 16.978516 C 21.366709 14.247297 22.974157 11.287758 22.996094 7.0839844 z M 17.921875 21 L 21.222656 21 A 1.0001 1.0001 0 0 0 21.746094 21 L 28.253906 21 A 1.0001 1.0001 0 0 0 28.773438 21 L 32.078125 21 C 32.63461 22.475174 33 24.074152 33 26 C 33 27.445215 32.875167 28.770722 32.6875 30 L 17.3125 30 C 17.124833 28.770722 17 27.445215 17 26 C 17 24.074152 17.36539 22.475174 17.921875 21 z M 17.683594 32 L 20.486328 32 A 1.0001 1.0001 0 0 0 20.492188 32.103516 C 20.744518 34.517542 21 37.58715 21 39 C 21 41.684141 20 43.666667 20 46 C 20 46.364794 20.064298 46.697514 20.167969 47 L 18 47 C 18 47 17.708752 46.98621 17.447266 46.855469 C 17.18578 46.724726 17 46.666667 17 46 C 17 45.333333 17.401665 44.43232 17.912109 43.294922 C 18.422554 42.157524 19 40.77325 19 39.087891 C 19 36.994792 18.263087 34.738733 17.683594 32 z M 22.492188 32 L 27.507812 32 C 27.25546 34.427941 27 37.38287 27 39 C 27 42.141859 28 44.333333 28 46 C 28 46.666667 27.81422 46.724726 27.552734 46.855469 C 27.291248 46.986212 27 47 27 47 L 23 47 C 23 47 22.708752 46.98621 22.447266 46.855469 C 22.18578 46.724726 22 46.666667 22 46 C 22 44.333333 23 42.141859 23 39 C 23 37.38287 22.74454 34.427941 22.492188 32 z M 29.513672 32 L 32.316406 32 C 31.736913 34.738733 31 36.994792 31 39.087891 C 31 40.77325 31.577446 42.157524 32.087891 43.294922 C 32.598335 44.43232 33 45.333333 33 46 C 33 46.666667 32.81422 46.724726 32.552734 46.855469 C 32.291248 46.986212 32 47 32 47 L 29.832031 47 C 29.935702 46.697514 30 46.364794 30 46 C 30 43.666667 29 41.684141 29 39 C 29 37.58715 29.255482 34.517542 29.507812 32.103516 A 1.0001 1.0001 0 0 0 29.513672 32 z"/></svg>