<svg xmlns="http://www.w3.org/2000/svg"  viewBox="0 0 50 50" width="1000px" height="1000px"><path d="M 33.65625 0 C 32.085938 0.0703125 30.453125 0.640625 29.21875 1.875 L 2.125 28.9375 C -0.640625 31.699219 -0.761719 36.4375 1.875 39.09375 L 1.84375 39.125 L 4.09375 41.46875 L 4.09375 41.5 C 4.148438 41.570313 4.210938 41.632813 4.28125 41.6875 C 4.28125 41.699219 4.28125 41.707031 4.28125 41.71875 C 4.300781 41.730469 4.324219 41.742188 4.34375 41.75 L 12.28125 49.71875 C 12.679688 50.117188 13.320313 50.117188 13.71875 49.71875 C 14.117188 49.320313 14.117188 48.679688 13.71875 48.28125 L 6.21875 40.78125 C 6.449219 40.277344 6.78125 39.53125 7.34375 38.78125 L 15.28125 46.71875 C 15.679688 47.117188 16.320313 47.117188 16.71875 46.71875 C 17.117188 46.320313 17.117188 45.679688 16.71875 45.28125 L 8.75 37.3125 L 10.3125 35.75 L 18.28125 43.71875 C 18.679688 44.117188 19.320313 44.117188 19.71875 43.71875 C 20.117188 43.320313 20.117188 42.679688 19.71875 42.28125 L 11.75 34.3125 L 13.3125 32.75 L 21.28125 40.71875 C 21.679688 41.117188 22.320313 41.117188 22.71875 40.71875 C 23.117188 40.320313 23.117188 39.679688 22.71875 39.28125 L 14.75 31.3125 L 16.3125 29.75 L 24.28125 37.71875 C 24.679688 38.117188 25.320313 38.117188 25.71875 37.71875 C 26.117188 37.320313 26.117188 36.679688 25.71875 36.28125 L 17.75 28.3125 L 19.3125 26.75 L 27.28125 34.71875 C 27.679688 35.117188 28.320313 35.117188 28.71875 34.71875 C 29.117188 34.320313 29.117188 33.679688 28.71875 33.28125 L 20.75 25.3125 L 22.3125 23.75 L 30.28125 31.71875 C 30.679688 32.117188 31.320313 32.117188 31.71875 31.71875 C 32.117188 31.320313 32.117188 30.679688 31.71875 30.28125 L 23.78125 22.34375 L 25.34375 20.78125 L 33.28125 28.71875 C 33.679688 29.117188 34.320313 29.117188 34.71875 28.71875 C 35.117188 28.320313 35.117188 27.679688 34.71875 27.28125 L 26.78125 19.34375 L 28.34375 17.78125 L 36.28125 25.71875 C 36.679688 26.117188 37.320313 26.117188 37.71875 25.71875 C 38.117188 25.320313 38.117188 24.679688 37.71875 24.28125 L 29.78125 16.34375 L 31.34375 14.78125 L 39.28125 22.71875 C 39.679688 23.117188 40.320313 23.117188 40.71875 22.71875 C 41.117188 22.320313 41.117188 21.679688 40.71875 21.28125 L 32.78125 13.34375 L 34.34375 11.78125 L 42.28125 19.71875 C 42.679688 20.117188 43.320313 20.117188 43.71875 19.71875 C 44.117188 19.320313 44.117188 18.679688 43.71875 18.28125 L 35.78125 10.34375 L 37.34375 8.78125 L 45.28125 16.71875 C 45.679688 17.117188 46.320313 17.117188 46.71875 16.71875 C 47.117188 16.320313 47.117188 15.679688 46.71875 15.28125 L 38.8125 7.375 C 39.5625 6.8125 40.277344 6.457031 40.78125 6.21875 L 48.28125 13.71875 C 48.679688 14.117188 49.320313 14.117188 49.71875 13.71875 C 50.117188 13.320313 50.117188 12.679688 49.71875 12.28125 L 41.75 4.34375 C 41.742188 4.324219 41.730469 4.300781 41.71875 4.28125 C 41.707031 4.28125 41.699219 4.28125 41.6875 4.28125 C 41.675781 4.269531 41.667969 4.261719 41.65625 4.25 C 41.628906 4.214844 41.597656 4.183594 41.5625 4.15625 L 41.53125 4.125 C 41.511719 4.113281 41.488281 4.101563 41.46875 4.09375 L 38.9375 1.8125 C 37.75 0.722656 36.078125 0.078125 34.3125 0 C 34.089844 -0.0117188 33.878906 -0.0117188 33.65625 0 Z M 34.21875 2 C 35.535156 2.058594 36.832031 2.582031 37.59375 3.28125 C 37.59375 3.292969 37.59375 3.300781 37.59375 3.3125 L 39.21875 4.75 C 38.484375 5.144531 37.589844 5.699219 36.875 6.40625 C 36.867188 6.414063 36.851563 6.398438 36.84375 6.40625 L 6.375 36.875 C 5.648438 37.601563 5.105469 38.503906 4.71875 39.25 L 3.3125 37.75 C 3.300781 37.738281 3.292969 37.730469 3.28125 37.71875 C 1.566406 36.007813 1.625 32.277344 3.5625 30.34375 L 30.65625 3.28125 C 31.609375 2.328125 32.902344 1.941406 34.21875 2 Z"/></svg>