<svg xmlns="http://www.w3.org/2000/svg"  viewBox="0 0 50 50" width="1000px" height="1000px"><path d="M 3 4 L 3 6.3808594 L 4.6875 7.9882812 L 2.7792969 10.714844 L 4.7792969 13.570312 L 2.7792969 16.429688 L 4.7792969 19.285156 L 2.7792969 22.142578 L 4.7792969 25 L 2.7792969 27.857422 L 4.7792969 30.714844 L 2.7792969 33.570312 L 4.7792969 36.429688 L 2.7792969 39.285156 L 4.6875 42.011719 L 3 43.619141 L 3 46 L 47 46 L 47 43.619141 L 46.689453 43.324219 L 45.3125 42.011719 L 47.220703 39.285156 L 45.220703 36.429688 L 47.220703 33.570312 L 45.220703 30.714844 L 47.220703 27.857422 L 45.220703 25 L 47.220703 22.142578 L 45.220703 19.285156 L 47.220703 16.429688 L 45.220703 13.570312 L 47.220703 10.714844 L 45.3125 7.9882812 L 47 6.3808594 L 47 4 L 3 4 z M 5.5 6 L 44.5 6 L 42.6875 7.7265625 L 44.779297 10.714844 L 42.779297 13.570312 L 44.779297 16.429688 L 42.779297 19.285156 L 44.779297 22.142578 L 42.779297 25 L 44.779297 27.857422 L 42.779297 30.714844 L 44.779297 33.570312 L 42.779297 36.429688 L 44.779297 39.285156 L 42.6875 42.273438 L 44.5 44 L 5.5 44 L 7.3125 42.273438 L 5.2207031 39.285156 L 7.2207031 36.429688 L 5.2207031 33.570312 L 7.2207031 30.714844 L 5.2207031 27.857422 L 7.2207031 25 L 5.2207031 22.142578 L 7.2207031 19.285156 L 5.2207031 16.429688 L 7.2207031 13.570312 L 5.2207031 10.714844 L 7.3125 7.7265625 L 5.5 6 z M 25 11 C 22.369798 11 19.911094 11.739983 17.8125 13 A 1.0001 1.0001 0 1 0 18.841797 14.714844 C 20.647203 13.63086 22.744202 13 25 13 C 31.638535 13 37 18.360483 37 25 C 37 31.639517 31.638535 37 25 37 C 18.361465 37 13 31.639517 13 25 C 13 22.744202 13.63086 20.647203 14.714844 18.841797 A 1.0001 1.0001 0 1 0 13 17.8125 C 11.739983 19.911094 11 22.369798 11 25 C 11 32.720483 17.280535 39 25 39 C 32.719465 39 39 32.720483 39 25 C 39 17.279517 32.719465 11 25 11 z M 25 15 C 19.489423 15 15 19.489423 15 25 C 15 30.510577 19.489423 35 25 35 A 1.0001 1.0001 0 1 0 25 33 C 20.570577 33 17 29.429423 17 25 C 17 20.570577 20.570577 17 25 17 C 29.429423 17 33 20.570577 33 25 A 1.0001 1.0001 0 1 0 35 25 C 35 19.489423 30.510577 15 25 15 z"/></svg>