<svg xmlns="http://www.w3.org/2000/svg"  viewBox="0 0 50 50" width="1000px" height="1000px"><path d="M 12 2 C 8.6983746 2 6 4.6983746 6 8 L 6 42.417969 C 6 45.591903 8.832306 48 12 48 L 44 48 L 44 46 L 12 46 C 9.841694 46 8 44.378035 8 42.417969 C 8 40.457903 9.8001368 39 12 39 L 44 39 L 44 2 L 12 2 z M 12 4 L 42 4 L 42 37 L 12 37 C 10.506931 37 9.0923623 37.537598 8 38.417969 L 8 8 C 8 5.7796254 9.7796254 4 12 4 z M 26 9 C 24.053182 9 22.446441 10.050393 21.355469 11.490234 C 20.764604 11.262778 20.183373 11 19.5 11 C 16.474423 11 14 13.474423 14 16.5 C 14 18.614307 15.241572 20.393735 17 21.308594 L 17 26.832031 A 1.0001 1.0001 0 0 0 17 27.158203 L 17 31 A 1.0001 1.0001 0 0 0 18 32 L 34 32 A 1.0001 1.0001 0 0 0 35 31 L 35 27.167969 A 1.0001 1.0001 0 0 0 35 26.841797 L 35 21.308594 C 36.758428 20.393735 38 18.614307 38 16.5 C 38 13.474423 35.525577 11 32.5 11 C 31.816627 11 31.235396 11.262778 30.644531 11.490234 C 29.553559 10.050393 27.946818 9 26 9 z M 26 11 C 27.503444 11 28.785791 11.831778 29.474609 13.060547 A 1.0001 1.0001 0 0 0 30.828125 13.449219 C 31.343844 13.165654 31.900987 13 32.5 13 C 34.444423 13 36 14.555577 36 16.5 C 36 18.027915 35.025062 19.298882 33.666016 19.78125 A 1.0001 1.0001 0 0 0 33 20.724609 L 33 26 L 19 26 L 19 20.724609 A 1.0001 1.0001 0 0 0 18.333984 19.78125 C 16.974938 19.298882 16 18.027915 16 16.5 C 16 14.555577 17.555577 13 19.5 13 C 20.099013 13 20.656156 13.165654 21.171875 13.449219 A 1.0001 1.0001 0 0 0 22.525391 13.060547 C 23.214209 11.831778 24.496556 11 26 11 z M 21.984375 19.986328 A 1.0001 1.0001 0 0 0 21 21 L 21 23 A 1.0001 1.0001 0 1 0 23 23 L 23 21 A 1.0001 1.0001 0 0 0 21.984375 19.986328 z M 25.984375 19.986328 A 1.0001 1.0001 0 0 0 25 21 L 25 23 A 1.0001 1.0001 0 1 0 27 23 L 27 21 A 1.0001 1.0001 0 0 0 25.984375 19.986328 z M 29.984375 19.986328 A 1.0001 1.0001 0 0 0 29 21 L 29 23 A 1.0001 1.0001 0 1 0 31 23 L 31 21 A 1.0001 1.0001 0 0 0 29.984375 19.986328 z M 19 28 L 33 28 L 33 30 L 19 30 L 19 28 z"/></svg>