<svg fill="#000000" xmlns="http://www.w3.org/2000/svg"  viewBox="0 0 50 50" width="1000px" height="1000px"><path d="M 31 0 C 22.652344 0 15.523438 5.429688 13.03125 12.96875 C 5.464844 15.472656 0 22.601563 0 31 C 0 41.480469 8.519531 50 19 50 C 27.398438 50 34.527344 44.535156 37.03125 36.96875 C 44.570313 34.476563 50 27.347656 50 19 C 50 8.554688 41.445313 0 31 0 Z M 31 2 C 40.355469 2 48 9.644531 48 19 C 48 26 43.722656 32.054688 37.65625 34.625 C 37.886719 33.445313 38 32.246094 38 31 C 38 29.234375 37.765625 27.527344 37.3125 25.90625 C 37.539063 25.960938 37.757813 26 38 26 C 39.65625 26 41 24.65625 41 23 C 41 21.34375 39.65625 20 38 20 C 36.90625 20 35.960938 20.59375 35.4375 21.46875 C 33.640625 18.375 30.988281 15.855469 27.8125 14.1875 C 27.917969 13.980469 28 13.75 28 13.5 C 28 12.671875 27.328125 12 26.5 12 C 25.84375 12 25.296875 12.414063 25.09375 13 C 23.179688 12.351563 21.132813 12 19 12 C 17.753906 12 16.554688 12.113281 15.375 12.34375 C 17.945313 6.277344 24 2 31 2 Z M 32.5 9 C 31.121094 9 30 10.121094 30 11.5 C 30 12.878906 31.121094 14 32.5 14 C 33.878906 14 35 12.878906 35 11.5 C 35 10.121094 33.878906 9 32.5 9 Z M 19 14 C 28.402344 14 36 21.597656 36 31 C 36 32.59375 35.78125 34.132813 35.375 35.59375 C 35.363281 35.605469 35.355469 35.613281 35.34375 35.625 C 35.207031 35.816406 35.140625 36.046875 35.15625 36.28125 C 35.15625 36.292969 35.15625 36.300781 35.15625 36.3125 C 32.929688 43.105469 26.542969 48 19 48 C 9.597656 48 2 40.402344 2 31 C 2 23.464844 6.878906 17.078125 13.65625 14.84375 C 13.664063 14.839844 13.679688 14.847656 13.6875 14.84375 C 13.9375 14.859375 14.179688 14.78125 14.375 14.625 C 14.382813 14.621094 14.398438 14.628906 14.40625 14.625 C 15.867188 14.21875 17.40625 14 19 14 Z M 39.5 14 C 38.671875 14 38 14.671875 38 15.5 C 38 16.328125 38.671875 17 39.5 17 C 40.328125 17 41 16.328125 41 15.5 C 41 14.671875 40.328125 14 39.5 14 Z M 13 25 C 11.34375 25 10 26.34375 10 28 C 10 29.65625 11.34375 31 13 31 C 14.65625 31 16 29.65625 16 28 C 16 26.34375 14.65625 25 13 25 Z M 22.5 25 C 21.671875 25 21 25.671875 21 26.5 C 21 27.328125 21.671875 28 22.5 28 C 23.328125 28 24 27.328125 24 26.5 C 24 25.671875 23.328125 25 22.5 25 Z M 26.5 31 C 25.121094 31 24 32.121094 24 33.5 C 24 34.878906 25.121094 36 26.5 36 C 27.878906 36 29 34.878906 29 33.5 C 29 32.121094 27.878906 31 26.5 31 Z M 12.5 35 C 11.671875 35 11 35.671875 11 36.5 C 11 37.328125 11.671875 38 12.5 38 C 13.328125 38 14 37.328125 14 36.5 C 14 35.671875 13.328125 35 12.5 35 Z M 20.5 39 C 19.671875 39 19 39.671875 19 40.5 C 19 41.328125 19.671875 42 20.5 42 C 21.328125 42 22 41.328125 22 40.5 C 22 39.671875 21.328125 39 20.5 39 Z"/></svg>