<svg xmlns="http://www.w3.org/2000/svg"  viewBox="0 0 50 50" width="1000px" height="1000px"><path d="M 25 2 C 23.75 2 22.685226 2.5047556 22.001953 3.2734375 C 21.318681 4.0421194 21 5.0277779 21 6 C 21 6.9100844 21.308073 7.8178316 21.904297 8.5625 C 19.688776 9.0697678 17.339432 9.8537816 15.080078 10.980469 C 13.40531 11.815636 11.852133 12.746076 10.619141 13.691406 C 9.6090361 14.465849 8.7929871 15.211168 8.3183594 16.085938 C 6.9980222 16.39915 6 17.590026 6 19 C 6 20.064522 6.6595739 20.843931 7.5058594 21.376953 C 6.3359115 24.093004 5 29.20954 5 31.919922 C 5 35.085804 5.9680574 38.590784 9.0332031 41.449219 C 9.1825444 42.557555 9.8633495 43.5196 10.671875 44.328125 C 11.587896 45.244146 12.700166 46 14 46 L 36 46 C 37.299834 46 38.412104 45.244146 39.328125 44.328125 C 40.13665 43.5196 40.817456 42.557555 40.966797 41.449219 C 44.031942 38.590784 45 35.085804 45 31.919922 C 45 29.208606 43.662847 24.09472 42.492188 21.376953 C 43.339325 20.844105 44 20.065169 44 19 C 44 17.590026 43.001978 16.39915 41.681641 16.085938 C 41.207013 15.211168 40.390963 14.465849 39.380859 13.691406 C 38.147867 12.746076 36.59469 11.815636 34.919922 10.980469 C 32.660568 9.8537816 30.311224 9.0697678 28.095703 8.5625 C 28.691927 7.8178316 29 6.9100844 29 6 C 29 5.0277779 28.681319 4.0421194 27.998047 3.2734375 C 27.314774 2.5047556 26.25 2 25 2 z M 25 4 C 25.749999 4 26.185226 4.2452444 26.501953 4.6015625 C 26.81868 4.9578806 27 5.4722221 27 6 C 27 6.5277779 26.81868 7.0421194 26.501953 7.3984375 C 26.185226 7.7547556 25.749999 8 25 8 C 24.250001 8 23.814774 7.7547556 23.498047 7.3984375 C 23.18132 7.0421194 23 6.5277779 23 6 C 23 5.4722221 23.18132 4.9578806 23.498047 4.6015625 C 23.814774 4.2452444 24.250001 4 25 4 z M 25 10 C 27.127502 10 30.85963 11.189866 34.027344 12.769531 C 35.611201 13.559364 37.073774 14.441424 38.164062 15.277344 C 38.484301 15.522869 38.75646 15.764828 39.001953 16 L 10.998047 16 C 11.24354 15.764828 11.515699 15.522869 11.835938 15.277344 C 12.926227 14.441424 14.388799 13.559364 15.972656 12.769531 C 19.14037 11.189866 22.872498 10 25 10 z M 9 18 L 41 18 C 41.56503 18 42 18.43497 42 19 C 42 19.56503 41.56503 20 41 20 L 9 20 C 8.4349698 20 8 19.56503 8 19 C 8 18.43497 8.4349698 18 9 18 z M 9.3964844 22 L 40.601562 22 C 41.505204 24.121724 43 29.969794 43 31.919922 C 43 34.7139 42.218293 37.545713 39.568359 40 L 10.431641 40 C 7.7817071 37.545713 7 34.7139 7 31.919922 C 7 29.971061 8.4938501 24.11868 9.3964844 22 z M 11.392578 42 L 38.607422 42 C 38.426695 42.306507 38.199437 42.628688 37.914062 42.914062 C 37.244335 43.583791 36.357166 44 36 44 L 14 44 C 13.642834 44 12.755665 43.583791 12.085938 42.914062 C 11.800563 42.628688 11.573305 42.306507 11.392578 42 z"/></svg>