<svg fill="#000000" xmlns="http://www.w3.org/2000/svg"  viewBox="0 0 50 50" width="1000px" height="1000px"><path d="M 25 0 C 24.824219 0 24.644531 0.0195313 24.46875 0.03125 C 20.867188 0.289063 17.789063 3.179688 15.625 7.40625 C 13.355469 11.839844 12 17.863281 12 24.5 C 12 25.292969 11.988281 26.058594 12 26.8125 C 10.078125 25.636719 7.972656 24.472656 5.65625 23.25 C 5.582031 23.210938 5.542969 23.164063 5.46875 23.125 C 5.289063 23.023438 5.082031 22.980469 4.875 23 C 4.480469 23.046875 4.15625 23.324219 4.039063 23.703125 C 3.925781 24.082031 4.042969 24.492188 4.34375 24.75 C 7.699219 27.578125 8.535156 33.617188 10.5 39.21875 C 11.484375 42.019531 12.789063 44.738281 15.0625 46.75 C 17.304688 48.734375 20.457031 49.964844 24.8125 50 C 24.875 50 24.9375 50 25 50 C 25.03125 50 25.0625 50 25.09375 50 C 29.097656 49.984375 31.878906 49.023438 33.84375 47.5 C 35.824219 45.964844 36.921875 43.921875 37.8125 41.96875 C 38.703125 40.015625 39.40625 38.128906 40.4375 36.71875 C 41.46875 35.308594 42.769531 34.339844 45.15625 34 C 45.574219 33.9375 45.90625 33.621094 45.992188 33.210938 C 46.074219 32.796875 45.890625 32.375 45.53125 32.15625 C 42.769531 30.457031 40.164063 29.824219 37.78125 29.90625 C 37.902344 28.207031 38 26.425781 38 24.5 C 38 21.402344 37.671875 18.449219 37.125 15.71875 C 36.5 12.597656 35.585938 9.769531 34.375 7.40625 C 32.210938 3.179688 29.132813 0.289063 25.53125 0.03125 C 25.359375 0.00390625 25.179688 0 25 0 Z M 24 2.40625 L 24 7.9375 C 22.878906 7.851563 21.96875 7.65625 21.25 7.375 C 21.800781 5.6875 22.421875 4.3125 23.0625 3.40625 C 23.390625 2.941406 23.707031 2.628906 24 2.40625 Z M 26 2.40625 C 26.292969 2.628906 26.609375 2.941406 26.9375 3.40625 C 27.578125 4.3125 28.199219 5.6875 28.75 7.375 C 28.03125 7.65625 27.121094 7.851563 26 7.9375 Z M 20.375 4.21875 C 20.066406 4.878906 19.769531 5.589844 19.5 6.375 C 19.257813 6.179688 19.078125 6 18.9375 5.84375 C 19.398438 5.214844 19.882813 4.699219 20.375 4.21875 Z M 29.625 4.21875 C 30.117188 4.699219 30.601563 5.214844 31.0625 5.84375 C 30.921875 6 30.742188 6.179688 30.5 6.375 C 30.230469 5.589844 29.933594 4.878906 29.625 4.21875 Z M 17.84375 7.5625 C 18.042969 7.757813 18.238281 7.960938 18.5 8.15625 C 18.613281 8.242188 18.746094 8.324219 18.875 8.40625 C 18.5625 9.558594 18.273438 10.796875 18.03125 12.125 C 18.019531 12.117188 18.011719 12.101563 18 12.09375 C 16.996094 11.355469 16.597656 10.703125 16.46875 10.46875 C 16.765625 9.722656 17.066406 9.003906 17.40625 8.34375 C 17.546875 8.066406 17.695313 7.820313 17.84375 7.5625 Z M 32.15625 7.5625 C 32.304688 7.820313 32.453125 8.066406 32.59375 8.34375 C 32.933594 9.003906 33.234375 9.722656 33.53125 10.46875 C 33.402344 10.703125 33.003906 11.355469 32 12.09375 C 31.988281 12.101563 31.980469 12.117188 31.96875 12.125 C 31.726563 10.796875 31.4375 9.558594 31.125 8.40625 C 31.253906 8.324219 31.386719 8.242188 31.5 8.15625 C 31.761719 7.960938 31.957031 7.757813 32.15625 7.5625 Z M 20.6875 9.3125 C 21.597656 9.644531 22.703125 9.855469 24 9.9375 L 24 13.96875 C 22.292969 13.871094 20.945313 13.542969 19.90625 13.125 C 20.136719 11.75 20.382813 10.484375 20.6875 9.3125 Z M 29.3125 9.3125 C 29.617188 10.484375 29.863281 11.75 30.09375 13.125 C 29.054688 13.542969 27.707031 13.871094 26 13.96875 L 26 9.9375 C 27.296875 9.855469 28.402344 9.644531 29.3125 9.3125 Z M 15.6875 12.71875 C 15.992188 13.046875 16.355469 13.382813 16.8125 13.71875 C 17.070313 13.910156 17.375 14.097656 17.6875 14.28125 C 17.519531 15.476563 17.390625 16.742188 17.28125 18.03125 C 17.09375 17.910156 16.910156 17.808594 16.75 17.6875 C 15.621094 16.84375 15.097656 16.074219 14.90625 15.75 C 15.132813 14.703125 15.394531 13.679688 15.6875 12.71875 Z M 34.3125 12.71875 C 34.605469 13.679688 34.867188 14.703125 35.09375 15.75 C 34.902344 16.074219 34.378906 16.84375 33.25 17.6875 C 33.089844 17.808594 32.90625 17.910156 32.71875 18.03125 C 32.609375 16.742188 32.480469 15.476563 32.3125 14.28125 C 32.625 14.097656 32.929688 13.910156 33.1875 13.71875 C 33.644531 13.382813 34.007813 13.046875 34.3125 12.71875 Z M 19.59375 15.15625 C 20.789063 15.578125 22.257813 15.882813 24 15.96875 L 24 19.96875 C 22.03125 19.875 20.460938 19.511719 19.21875 19.03125 C 19.316406 17.695313 19.433594 16.390625 19.59375 15.15625 Z M 30.40625 15.15625 C 30.566406 16.390625 30.683594 17.695313 30.78125 19.03125 C 29.539063 19.511719 27.96875 19.875 26 19.96875 L 26 15.96875 C 27.742188 15.882813 29.210938 15.578125 30.40625 15.15625 Z M 14.4375 18.34375 C 14.753906 18.664063 15.128906 18.988281 15.5625 19.3125 C 16.011719 19.648438 16.53125 19.972656 17.125 20.28125 C 17.058594 21.523438 17.007813 22.789063 17 24.09375 C 16.726563 23.929688 16.476563 23.761719 16.25 23.59375 C 14.65625 22.417969 14.21875 21.375 14.21875 21.375 C 14.195313 21.308594 14.164063 21.246094 14.125 21.1875 C 14.199219 20.210938 14.300781 19.273438 14.4375 18.34375 Z M 35.5625 18.34375 C 35.699219 19.273438 35.800781 20.210938 35.875 21.1875 C 35.835938 21.246094 35.804688 21.308594 35.78125 21.375 C 35.78125 21.375 35.34375 22.417969 33.75 23.59375 C 33.523438 23.761719 33.273438 23.929688 33 24.09375 C 32.992188 22.789063 32.941406 21.523438 32.875 20.28125 C 33.46875 19.972656 33.988281 19.648438 34.4375 19.3125 C 34.871094 18.988281 35.246094 18.664063 35.5625 18.34375 Z M 19.09375 21.125 C 20.449219 21.574219 22.074219 21.882813 24 21.96875 L 24 25.96875 C 21.945313 25.878906 20.3125 25.511719 19 25.03125 C 19 24.859375 19 24.664063 19 24.5 C 19 23.347656 19.042969 22.230469 19.09375 21.125 Z M 30.90625 21.125 C 30.957031 22.230469 31 23.347656 31 24.5 C 31 24.671875 31 24.855469 31 25.03125 C 29.6875 25.511719 28.054688 25.878906 26 25.96875 L 26 21.96875 C 27.925781 21.882813 29.550781 21.574219 30.90625 21.125 Z M 14 24.3125 C 14.308594 24.613281 14.648438 24.914063 15.0625 25.21875 C 15.609375 25.621094 16.277344 26.015625 17.03125 26.375 C 17.074219 27.660156 17.167969 28.957031 17.25 30.21875 C 16.882813 30.011719 16.539063 29.808594 16.25 29.59375 C 14.65625 28.417969 14.21875 27.375 14.21875 27.375 C 14.171875 27.269531 14.109375 27.175781 14.03125 27.09375 C 14.011719 26.273438 14 25.421875 14 24.5 C 14 24.4375 14 24.375 14 24.3125 Z M 36 24.3125 C 36 24.375 36 24.4375 36 24.5 C 36 25.398438 35.992188 26.246094 35.96875 27.09375 C 35.890625 27.175781 35.828125 27.269531 35.78125 27.375 C 35.78125 27.375 35.34375 28.417969 33.75 29.59375 C 33.476563 29.796875 33.15625 29.988281 32.8125 30.1875 C 32.875 28.945313 32.9375 27.707031 32.96875 26.375 C 33.722656 26.015625 34.390625 25.621094 34.9375 25.21875 C 35.351563 24.914063 35.691406 24.613281 36 24.3125 Z M 19.0625 27.15625 C 20.449219 27.582031 22.074219 27.890625 24 27.96875 L 24 31.96875 C 22.101563 31.886719 20.542969 31.582031 19.28125 31.15625 C 19.1875 29.902344 19.113281 28.566406 19.0625 27.15625 Z M 30.9375 27.15625 C 30.890625 28.558594 30.84375 29.863281 30.78125 31.125 C 29.511719 31.5625 27.929688 31.882813 26 31.96875 L 26 27.96875 C 27.925781 27.890625 29.550781 27.582031 30.9375 27.15625 Z M 8.59375 27.25 C 13.164063 29.886719 16.960938 32.449219 19.375 35.25 C 22.296875 38.636719 23.714844 42.511719 23.90625 47.84375 C 20.523438 47.644531 18.097656 46.746094 16.40625 45.25 C 14.511719 43.574219 13.304688 41.210938 12.375 38.5625 C 11.082031 34.878906 10.324219 30.695313 8.59375 27.25 Z M 37.78125 31.90625 C 39.160156 31.914063 40.660156 32.296875 42.25 32.9375 C 40.839844 33.597656 39.652344 34.425781 38.84375 35.53125 C 37.578125 37.261719 36.847656 39.296875 36 41.15625 C 35.152344 43.015625 34.214844 44.675781 32.625 45.90625 C 31.179688 47.027344 29.144531 47.832031 25.96875 47.96875 C 25.90625 45.929688 25.652344 44.046875 25.21875 42.3125 C 25.457031 41.8125 27.25 38.175781 30.40625 35.28125 C 32.101563 33.730469 34.121094 32.464844 36.4375 32.03125 C 36.867188 31.949219 37.320313 31.902344 37.78125 31.90625 Z M 20.53125 33.53125 C 21.574219 33.753906 22.710938 33.917969 24 33.96875 L 24 38.71875 C 23.210938 36.992188 22.179688 35.414063 20.90625 33.9375 C 20.789063 33.800781 20.65625 33.664063 20.53125 33.53125 Z M 29.3125 33.59375 C 29.230469 33.667969 29.144531 33.738281 29.0625 33.8125 C 27.851563 34.921875 26.839844 36.117188 26 37.25 L 26 33.96875 C 27.222656 33.917969 28.3125 33.796875 29.3125 33.59375 Z"/></svg>