<svg xmlns="http://www.w3.org/2000/svg"  viewBox="0 0 50 50" width="1000px" height="1000px"><path d="M 14.71875 -0.03125 C 14.6875 -0.0234375 14.65625 -0.0117188 14.625 0 C 14.03125 0.09375 11.671875 0.394531 9.53125 2 C 5.578125 4.964844 3.574219 8.464844 3.09375 11.625 C 2.757813 13.828125 3.191406 15.882813 4.21875 17.40625 C 4.007813 18.667969 4.039063 20.058594 4.59375 21.375 C 5.164063 22.726563 6.394531 23.863281 8.09375 24.625 C 8.175781 25.285156 8.3125 26.089844 8.875 26.90625 C 9.496094 27.808594 10.53125 28.621094 12.125 29.125 C 11.839844 29.769531 11.542969 30.535156 11.25 31.28125 C 9.742188 31.351563 8.230469 31.136719 7.09375 30.6875 C 5.894531 30.214844 5.183594 29.558594 4.96875 28.75 C 4.871094 28.308594 4.484375 27.984375 4.03125 27.96875 C 3.957031 27.972656 3.882813 27.980469 3.8125 28 C 3.535156 28.050781 3.296875 28.214844 3.148438 28.453125 C 3 28.691406 2.957031 28.980469 3.03125 29.25 C 3.457031 30.855469 4.8125 31.945313 6.375 32.5625 C 7.609375 33.050781 9.023438 33.292969 10.46875 33.3125 C 10.410156 33.46875 10.371094 33.589844 10.3125 33.75 C 9.863281 34.992188 9.960938 36.179688 10.40625 37.25 C 8.792969 37.71875 7.582031 37.984375 6.625 38 C 5.476563 38.019531 4.628906 37.773438 3.5 37.125 C 3.015625 36.847656 2.402344 37.015625 2.125 37.5 C 1.847656 37.984375 2.015625 38.597656 2.5 38.875 C 3.839844 39.644531 5.160156 40.027344 6.65625 40 C 8.039063 39.976563 9.566406 39.601563 11.53125 39 C 11.574219 39.050781 11.609375 39.105469 11.65625 39.15625 C 12.359375 39.910156 13.242188 40.59375 14.1875 41.28125 C 12.121094 41.90625 10.511719 42.84375 9.34375 43.875 C 7.835938 45.210938 7 46.632813 7 48 C 6.996094 48.359375 7.183594 48.695313 7.496094 48.878906 C 7.808594 49.058594 8.191406 49.058594 8.503906 48.878906 C 8.816406 48.695313 9.003906 48.359375 9 48 C 9 47.613281 9.445313 46.449219 10.65625 45.375 C 11.847656 44.320313 13.714844 43.3125 16.34375 42.8125 C 16.527344 42.941406 16.691406 43.058594 16.875 43.1875 C 18.113281 44.058594 19.195313 45.203125 20.4375 46.1875 C 21.679688 47.171875 23.152344 48 25 48 C 26.847656 48 28.320313 47.171875 29.5625 46.1875 C 30.804688 45.203125 31.886719 44.058594 33.125 43.1875 C 33.308594 43.058594 33.472656 42.941406 33.65625 42.8125 C 36.285156 43.3125 38.152344 44.320313 39.34375 45.375 C 40.554688 46.449219 41 47.613281 41 48 C 40.996094 48.359375 41.183594 48.695313 41.496094 48.878906 C 41.808594 49.058594 42.191406 49.058594 42.503906 48.878906 C 42.816406 48.695313 43.003906 48.359375 43 48 C 43 46.632813 42.164063 45.210938 40.65625 43.875 C 39.488281 42.84375 37.878906 41.90625 35.8125 41.28125 C 36.757813 40.59375 37.640625 39.910156 38.34375 39.15625 C 38.390625 39.105469 38.425781 39.050781 38.46875 39 C 40.433594 39.601563 41.960938 39.976563 43.34375 40 C 44.839844 40.027344 46.160156 39.644531 47.5 38.875 C 47.984375 38.597656 48.152344 37.984375 47.875 37.5 C 47.597656 37.015625 46.984375 36.847656 46.5 37.125 C 45.371094 37.773438 44.523438 38.019531 43.375 38 C 42.417969 37.984375 41.207031 37.71875 39.59375 37.25 C 40.039063 36.179688 40.136719 34.992188 39.6875 33.75 C 39.628906 33.589844 39.589844 33.46875 39.53125 33.3125 C 40.976563 33.292969 42.390625 33.050781 43.625 32.5625 C 45.1875 31.945313 46.542969 30.855469 46.96875 29.25 C 47.058594 28.921875 46.976563 28.570313 46.746094 28.316406 C 46.519531 28.066406 46.179688 27.945313 45.84375 28 C 45.445313 28.0625 45.125 28.359375 45.03125 28.75 C 44.816406 29.558594 44.105469 30.214844 42.90625 30.6875 C 41.769531 31.136719 40.257813 31.351563 38.75 31.28125 C 38.472656 30.578125 38.207031 29.960938 37.9375 29.34375 C 39.410156 28.917969 40.445313 28.144531 41.125 27.28125 C 41.753906 26.480469 42.027344 25.664063 42.15625 24.9375 C 44.328125 23.972656 45.605469 22.425781 45.96875 20.8125 C 46.355469 19.109375 46.023438 17.488281 45.625 16.34375 C 46.238281 14.609375 46.121094 12.503906 45.25 10.4375 C 44.011719 7.503906 41.257813 4.605469 36.875 2.75 C 35.648438 2.230469 34.476563 2.0625 33.53125 2.03125 C 32.585938 2 31.78125 2.09375 31.59375 2.09375 C 31.1875 2.097656 30.824219 2.34375 30.671875 2.722656 C 30.523438 3.097656 30.613281 3.53125 30.90625 3.8125 C 32.28125 5.132813 33.742188 6.921875 34.84375 8.5625 C 35.371094 9.347656 35.417969 9.714844 35.75 10.375 C 35.027344 9.980469 34.246094 9.484375 33.4375 8.90625 C 31.605469 7.601563 29.769531 5.980469 28.9375 4.9375 C 28.707031 4.640625 28.328125 4.5 27.957031 4.574219 C 27.585938 4.644531 27.289063 4.917969 27.1875 5.28125 C 26.664063 7.152344 27.207031 9.511719 28.21875 11.8125 C 29.230469 14.113281 30.765625 16.332031 32.75 17.5625 C 33.511719 18.035156 34.9375 18.816406 36.625 19.375 C 36.417969 20.40625 36.539063 21.3125 36.65625 21.9375 C 36.015625 22.226563 35.140625 22.757813 34.65625 23.875 C 34.4375 23.648438 34.203125 23.449219 33.96875 23.25 C 31.726563 21.351563 28.925781 21 25 21 C 21.074219 21 18.273438 21.351563 16.03125 23.25 C 15.960938 23.3125 15.882813 23.375 15.8125 23.4375 C 15.132813 22.402344 14.21875 21.941406 13.5625 21.6875 C 13.65625 21.058594 13.710938 20.140625 13.40625 19.09375 C 15.390625 18.269531 17.011719 17.128906 17.84375 16.28125 C 21.078125 13 22.160156 6.976563 19.65625 2.21875 C 19.488281 1.921875 19.1875 1.726563 18.847656 1.703125 C 18.507813 1.675781 18.175781 1.824219 17.96875 2.09375 C 17.34375 2.945313 16.144531 4.464844 14.875 5.8125 C 14.304688 6.417969 13.925781 6.542969 13.375 7 C 13.558594 6.464844 13.742188 5.941406 13.96875 5.375 C 14.652344 3.683594 15.429688 2.0625 15.71875 1.4375 C 15.875 1.125 15.859375 0.75 15.675781 0.449219 C 15.492188 0.152344 15.164063 -0.03125 14.8125 -0.03125 C 14.78125 -0.03125 14.75 -0.03125 14.71875 -0.03125 Z M 13.03125 2.46875 C 12.695313 3.203125 12.46875 3.660156 12.09375 4.59375 C 11.738281 5.480469 11.398438 6.410156 11.15625 7.25 C 10.914063 8.089844 10.738281 8.816406 10.8125 9.5625 C 10.84375 9.859375 11.003906 10.128906 11.25 10.296875 C 11.496094 10.46875 11.804688 10.519531 12.09375 10.4375 C 13.625 9.988281 14.992188 8.625 16.34375 7.1875 C 17.1875 6.289063 17.734375 5.554688 18.375 4.75 C 19.492188 8.394531 18.570313 12.675781 16.40625 14.875 C 15.859375 15.433594 14.125 16.667969 12.25 17.375 C 10.375 18.082031 8.421875 18.269531 6.96875 17.34375 C 6.695313 17.167969 6.449219 16.945313 6.21875 16.6875 C 6.148438 16.484375 6.019531 16.308594 5.84375 16.1875 C 5.164063 15.148438 4.828125 13.6875 5.09375 11.9375 C 5.480469 9.386719 7.148438 6.328125 10.75 3.625 C 11.523438 3.046875 12.316406 2.707031 13.03125 2.46875 Z M 33.71875 4.09375 C 34.445313 4.136719 35.25 4.238281 36.09375 4.59375 C 40.066406 6.273438 42.398438 8.824219 43.40625 11.21875 C 44.414063 13.613281 44.085938 15.78125 43 16.9375 C 41.863281 18.152344 40.140625 18.222656 38.28125 17.78125 C 36.421875 17.339844 34.601563 16.363281 33.8125 15.875 C 32.382813 14.988281 30.957031 13.03125 30.0625 11 C 29.558594 9.851563 29.289063 8.746094 29.15625 7.75 C 30.152344 8.695313 31.039063 9.644531 32.28125 10.53125 C 33.253906 11.226563 34.242188 11.871094 35.15625 12.34375 C 36.070313 12.816406 36.878906 13.152344 37.71875 13.1875 C 38.019531 13.199219 38.308594 13.078125 38.507813 12.855469 C 38.707031 12.628906 38.796875 12.328125 38.75 12.03125 C 38.554688 10.707031 37.679688 9.1875 36.5 7.4375 C 35.71875 6.277344 34.691406 5.199219 33.71875 4.09375 Z M 44.0625 18.65625 C 44.132813 19.230469 44.15625 19.816406 44.03125 20.375 C 43.761719 21.570313 43.050781 22.644531 40.9375 23.375 L 40.3125 23.59375 L 40.28125 24.25 C 40.25 24.695313 40.058594 25.429688 39.5625 26.0625 C 39.101563 26.648438 38.363281 27.203125 37.09375 27.5 C 36.746094 26.816406 36.394531 26.214844 36.03125 25.65625 C 36.199219 25.5 36.3125 25.289063 36.34375 25.0625 C 36.523438 24.089844 38.0625 23.4375 38.0625 23.4375 L 38.9375 23.15625 L 38.71875 22.28125 C 38.71875 22.28125 38.480469 20.832031 38.59375 19.875 C 40.457031 20.183594 42.503906 20.007813 44.0625 18.65625 Z M 6.125 19.1875 C 7.808594 20.148438 9.710938 20.140625 11.46875 19.71875 C 11.6875 20.734375 11.5 22.09375 11.5 22.09375 L 11.3125 23 L 12.21875 23.25 C 12.21875 23.25 13.957031 23.894531 14.40625 25 C 14.40625 25.011719 14.40625 25.019531 14.40625 25.03125 C 13.921875 25.6875 13.453125 26.417969 13 27.28125 C 11.589844 26.886719 10.90625 26.296875 10.53125 25.75 C 10.125 25.160156 10.007813 24.542969 9.96875 23.96875 L 9.9375 23.3125 L 9.3125 23.09375 C 7.703125 22.535156 6.875 21.628906 6.4375 20.59375 C 6.25 20.152344 6.167969 19.667969 6.125 19.1875 Z M 25 23 C 28.816406 23 30.941406 23.328125 32.65625 24.78125 C 34.371094 26.234375 35.871094 29.078125 37.8125 34.4375 C 38.308594 35.808594 37.9375 36.640625 36.875 37.78125 C 35.8125 38.921875 34.015625 40.144531 32 41.5625 C 31.988281 41.5625 31.980469 41.5625 31.96875 41.5625 C 30.527344 42.578125 29.402344 43.730469 28.3125 44.59375 C 27.222656 45.457031 26.257813 46 25 46 C 23.742188 46 22.777344 45.457031 21.6875 44.59375 C 20.597656 43.730469 19.472656 42.578125 18.03125 41.5625 C 18.019531 41.5625 18.011719 41.5625 18 41.5625 C 15.984375 40.144531 14.1875 38.921875 13.125 37.78125 C 12.0625 36.640625 11.691406 35.808594 12.1875 34.4375 C 14.128906 29.078125 15.628906 26.234375 17.34375 24.78125 C 19.058594 23.328125 21.183594 23 25 23 Z"/></svg>