<svg xmlns="http://www.w3.org/2000/svg"  viewBox="0 0 50 50" width="1000px" height="1000px"><path d="M 9.078125 0 C 8.117188 0 7.21875 0.367188 6.546875 0.992188 C 5.871094 1.613281 5.402344 2.449219 5.046875 3.421875 C 4.34375 5.375 4.085938 7.949219 4.085938 10.980469 C 4.085938 11.039063 4.082031 11.105469 4.085938 11.164063 L 2.195313 11.628906 C 1.785156 11.734375 1.484375 12.082031 1.441406 12.5 C 1.441406 12.5 1.050781 16.84375 3.140625 22.8125 L 1.46875 23.855469 C 1.101563 24.082031 0.925781 24.523438 1.03125 24.945313 C 1.03125 24.945313 2.0625 28.839844 6.117188 34.199219 L 5.148438 35.050781 C 4.855469 35.3125 4.738281 35.71875 4.851563 36.09375 C 4.851563 36.09375 5.648438 38.660156 8.492188 41.503906 C 11.339844 44.351563 13.90625 45.152344 13.90625 45.152344 C 14.285156 45.261719 14.691406 45.148438 14.949219 44.851563 L 15.800781 43.882813 C 21.15625 47.941406 25.054688 48.96875 25.054688 48.96875 C 25.476563 49.074219 25.917969 48.898438 26.144531 48.53125 L 27.1875 46.859375 C 33.15625 48.949219 37.5 48.558594 37.5 48.558594 C 37.917969 48.515625 38.265625 48.214844 38.371094 47.804688 L 38.835938 45.917969 C 38.894531 45.917969 38.960938 45.917969 39.019531 45.917969 C 42.175781 45.917969 44.851563 45.136719 46.792969 43.890625 C 48.734375 42.648438 50 40.875 50 38.925781 C 50 38.179688 49.644531 37.558594 49.1875 36.996094 C 48.726563 36.433594 48.125 35.894531 47.394531 35.316406 C 46.078125 34.277344 44.308594 33.109375 42.332031 31.792969 L 42.332031 31.789063 C 42.417969 31.449219 42.320313 31.089844 42.070313 30.839844 L 39.070313 27.84375 L 39.515625 27.128906 C 39.761719 26.734375 39.703125 26.222656 39.375 25.890625 L 35.234375 21.753906 L 35.824219 21.082031 C 36.171875 20.6875 36.152344 20.089844 35.78125 19.71875 L 30.28125 14.21875 C 30.089844 14.03125 29.832031 13.925781 29.5625 13.925781 C 29.324219 13.929688 29.09375 14.019531 28.917969 14.175781 L 28.246094 14.765625 L 24.109375 10.625 C 23.914063 10.433594 23.65625 10.328125 23.386719 10.332031 C 23.203125 10.335938 23.027344 10.386719 22.871094 10.484375 L 22.15625 10.929688 L 19.160156 7.929688 C 18.96875 7.738281 18.707031 7.632813 18.4375 7.640625 C 18.363281 7.640625 18.285156 7.648438 18.214844 7.667969 L 17.359375 7.878906 C 15.730469 5.8125 14.257813 3.964844 12.992188 2.601563 C 12.304688 1.863281 11.671875 1.253906 11.058594 0.800781 C 10.441406 0.347656 9.832031 0 9.078125 0 Z M 9.078125 2 C 9.101563 2 9.421875 2.082031 9.867188 2.414063 C 10.316406 2.742188 10.890625 3.277344 11.53125 3.964844 C 12.566406 5.078125 13.839844 6.660156 15.222656 8.40625 L 6.09375 10.667969 C 6.113281 7.902344 6.390625 5.597656 6.929688 4.101563 C 7.210938 3.328125 7.554688 2.78125 7.902344 2.460938 C 8.25 2.136719 8.578125 2 9.078125 2 Z M 18.144531 9.742188 L 20.417969 12.015625 L 4.871094 21.730469 C 3.3125 17.121094 3.398438 14.167969 3.445313 13.378906 L 5.164063 12.957031 C 5.273438 12.949219 5.378906 12.921875 5.480469 12.875 L 17.113281 10 C 17.183594 9.988281 17.257813 9.972656 17.324219 9.945313 Z M 23.253906 12.601563 L 26.738281 16.089844 L 7.621094 32.878906 C 4.363281 28.578125 3.453125 25.875 3.226563 25.113281 L 4.898438 24.074219 C 4.898438 24.070313 4.898438 24.070313 4.898438 24.070313 L 22.382813 13.144531 C 22.503906 13.101563 22.617188 13.03125 22.714844 12.9375 Z M 29.53125 16.296875 L 33.703125 20.46875 L 33.222656 21.011719 C 33.136719 21.082031 33.0625 21.167969 33.003906 21.261719 L 13.929688 42.980469 C 13.3125 42.738281 11.9375 42.117188 9.90625 40.089844 C 7.878906 38.058594 7.257813 36.683594 7.019531 36.070313 L 8.117188 35.109375 L 28.71875 17.011719 C 28.832031 16.945313 28.929688 16.859375 29.007813 16.757813 Z M 33.910156 23.261719 L 37.398438 26.746094 L 37.039063 27.320313 C 36.96875 27.398438 36.914063 27.488281 36.875 27.585938 L 24.886719 46.773438 C 24.125 46.546875 21.421875 45.640625 17.121094 42.378906 Z M 37.984375 29.582031 L 40.253906 31.855469 C 40.21875 31.945313 40.195313 32.039063 40.1875 32.140625 L 37.121094 44.519531 C 37.078125 44.621094 37.054688 44.726563 37.046875 44.832031 L 36.621094 46.550781 C 35.832031 46.601563 32.878906 46.6875 28.269531 45.128906 Z M 41.824219 33.859375 C 43.535156 35 45.082031 36.035156 46.15625 36.886719 C 46.820313 37.414063 47.332031 37.886719 47.636719 38.261719 C 47.9375 38.632813 48 38.875 48 38.925781 C 48 39.992188 47.265625 41.214844 45.714844 42.207031 C 44.21875 43.167969 42.015625 43.855469 39.332031 43.90625 Z"/></svg>