<svg fill="#000000" xmlns="http://www.w3.org/2000/svg"  viewBox="0 0 50 50" width="1000px" height="1000px"><path d="M 42.15625 1 C 41.152344 1 40.261719 1.332031 39.5625 1.875 C 38.863281 2.417969 38.339844 3.136719 37.90625 3.9375 C 37.058594 5.496094 36.40625 7.398438 35.40625 9.40625 C 34.613281 9.824219 34 10.546875 34 11.5 C 34 11.632813 34.074219 11.746094 34.09375 11.875 C 33.453125 13.015625 32.8125 14.121094 32.15625 15.15625 C 30.972656 15.351563 30 16.265625 30 17.5 C 30 17.707031 30.109375 17.871094 30.15625 18.0625 C 28.816406 19.949219 27.449219 21.625 26.09375 23.15625 C 24.996094 23.363281 24.144531 24.210938 24.0625 25.34375 C 22.648438 26.777344 21.25 28.089844 19.875 29.21875 C 19.234375 29.402344 18.757813 29.800781 18.4375 30.375 C 17.132813 31.371094 15.851563 32.246094 14.625 33.03125 C 14.578125 33.027344 14.550781 33 14.5 33 C 13.550781 33 12.828125 33.617188 12.40625 34.40625 C 11.261719 35.078125 10.203125 35.671875 9.1875 36.21875 C 8.957031 36.148438 8.75 36 8.5 36 C 7.414063 36 6.652344 36.800781 6.3125 37.78125 C 4.871094 38.574219 3.585938 39.308594 2.65625 40.15625 C 1.667969 41.058594 1 42.203125 1 43.53125 C 1 45.433594 2.378906 47.128906 4.6875 48.0625 C 5.144531 48.59375 5.746094 49 6.5 49 C 6.804688 49 7.046875 48.847656 7.3125 48.75 C 8.210938 48.886719 9.179688 49 10.28125 49 C 11.917969 49 13.632813 48.816406 15.375 48.5 C 15.738281 48.707031 16.054688 49 16.5 49 C 17.386719 49 18.058594 48.453125 18.5 47.75 C 20.292969 47.253906 22.101563 46.625 23.90625 45.84375 C 24.105469 45.898438 24.277344 46 24.5 46 C 25.453125 46 26.171875 45.390625 26.59375 44.59375 C 27.675781 44.039063 28.730469 43.4375 29.78125 42.78125 C 30.023438 42.859375 30.234375 43 30.5 43 C 31.832031 43 32.914063 41.914063 32.96875 40.59375 C 33.691406 40.050781 34.402344 39.496094 35.09375 38.90625 C 35.234375 38.933594 35.351563 39 35.5 39 C 36.867188 39 38 37.867188 38 36.5 C 38 36.410156 37.945313 36.339844 37.9375 36.25 C 38.742188 35.429688 39.519531 34.574219 40.25 33.6875 C 41.21875 33.34375 42 32.578125 42 31.5 C 42 31.464844 42 31.441406 42 31.40625 C 42.835938 30.214844 43.59375 28.980469 44.28125 27.6875 C 45.230469 27.332031 46 26.5625 46 25.5 C 46 25.167969 45.804688 24.914063 45.6875 24.625 C 46.253906 23.234375 46.730469 21.796875 47.09375 20.3125 C 47.613281 19.855469 48 19.246094 48 18.5 C 48 18.125 47.773438 17.847656 47.625 17.53125 C 47.839844 16.078125 48 14.597656 48 13.0625 C 48 9.441406 47.636719 6.566406 46.75 4.46875 C 45.863281 2.371094 44.222656 1 42.15625 1 Z M 42.15625 3 C 43.433594 3 44.207031 3.59375 44.90625 5.25 C 45.605469 6.90625 46 9.582031 46 13.0625 C 46 14.539063 45.871094 15.992188 45.65625 17.40625 C 45.617188 17.6875 45.695313 17.96875 45.875 18.1875 C 45.957031 18.285156 46 18.382813 46 18.5 C 46 18.695313 45.882813 18.847656 45.71875 18.9375 C 45.464844 19.074219 45.285156 19.3125 45.21875 19.59375 C 44.84375 21.179688 44.367188 22.714844 43.75 24.1875 C 43.609375 24.519531 43.65625 24.902344 43.875 25.1875 C 43.953125 25.285156 44 25.386719 44 25.5 C 44 25.785156 43.785156 25.996094 43.5 26 C 43.144531 26.015625 42.824219 26.214844 42.65625 26.53125 C 41.925781 27.9375 41.082031 29.273438 40.15625 30.5625 C 39.976563 30.792969 39.910156 31.089844 39.96875 31.375 C 39.980469 31.429688 40 31.476563 40 31.5 C 40 31.78125 39.808594 31.992188 39.53125 32 C 39.238281 32.007813 38.964844 32.144531 38.78125 32.375 C 37.960938 33.375 37.097656 34.3125 36.1875 35.21875 C 35.898438 35.503906 35.8125 35.9375 35.96875 36.3125 C 35.996094 36.378906 36 36.433594 36 36.5 C 36 36.785156 35.785156 37 35.5 37 C 35.429688 37 35.363281 36.980469 35.28125 36.9375 C 34.917969 36.765625 34.488281 36.828125 34.1875 37.09375 C 33.28125 37.882813 32.308594 38.609375 31.34375 39.3125 C 31.011719 39.554688 30.863281 39.976563 30.96875 40.375 C 30.984375 40.441406 31 40.476563 31 40.5 C 31 40.785156 30.785156 41 30.5 41 C 30.390625 41 30.308594 40.972656 30.21875 40.90625 C 29.886719 40.664063 29.441406 40.652344 29.09375 40.875 C 27.925781 41.617188 26.738281 42.289063 25.53125 42.90625 C 25.257813 43.042969 25.0625 43.296875 25 43.59375 C 24.953125 43.820313 24.753906 44 24.5 44 C 24.433594 44 24.367188 43.980469 24.28125 43.9375 C 24.011719 43.792969 23.6875 43.78125 23.40625 43.90625 C 21.488281 44.757813 19.578125 45.433594 17.6875 45.9375 C 17.34375 46.023438 17.070313 46.285156 16.96875 46.625 C 16.90625 46.835938 16.734375 47 16.5 47 C 16.351563 47 16.222656 46.957031 16.125 46.84375 C 15.894531 46.570313 15.539063 46.4375 15.1875 46.5 C 13.480469 46.820313 11.832031 47 10.28125 47 C 9.207031 47 8.261719 46.917969 7.4375 46.78125 C 7.199219 46.738281 6.957031 46.785156 6.75 46.90625 C 6.664063 46.960938 6.589844 47 6.5 47 C 6.3125 47 6.152344 46.90625 6.0625 46.75 C 5.949219 46.550781 5.773438 46.398438 5.5625 46.3125 C 3.628906 45.589844 3 44.597656 3 43.53125 C 3 42.835938 3.289063 42.304688 4.03125 41.625 C 4.773438 40.945313 5.945313 40.207031 7.46875 39.375 C 7.792969 39.203125 7.996094 38.867188 8 38.5 C 8 38.214844 8.214844 38 8.5 38 C 8.609375 38 8.699219 38.039063 8.78125 38.09375 C 9.09375 38.292969 9.488281 38.304688 9.8125 38.125 C 10.957031 37.511719 12.199219 36.847656 13.53125 36.0625 C 13.773438 35.917969 13.941406 35.679688 14 35.40625 C 14.046875 35.183594 14.25 35 14.5 35 C 14.519531 35 14.550781 35.011719 14.625 35.03125 C 14.902344 35.109375 15.195313 35.0625 15.4375 34.90625 C 16.789063 34.050781 18.203125 33.078125 19.65625 31.96875 C 19.835938 31.816406 19.960938 31.605469 20 31.375 C 20.050781 31.152344 20.25 31 20.5 31 L 20.53125 31 C 20.757813 31 20.980469 30.921875 21.15625 30.78125 C 22.671875 29.539063 24.199219 28.125 25.75 26.53125 C 25.988281 26.28125 26.085938 25.929688 26 25.59375 C 25.988281 25.546875 26 25.527344 26 25.5 C 26 25.214844 26.214844 25 26.5 25 C 26.484375 25 26.496094 24.988281 26.5625 25 C 26.898438 25.058594 27.238281 24.9375 27.46875 24.6875 C 29.007813 22.964844 30.550781 21.03125 32.0625 18.875 C 32.289063 18.550781 32.300781 18.121094 32.09375 17.78125 C 32.039063 17.695313 32 17.597656 32 17.5 C 32 17.214844 32.214844 17 32.5 17 C 32.515625 17 32.550781 16.992188 32.59375 17 C 32.996094 17.078125 33.402344 16.90625 33.625 16.5625 C 34.429688 15.308594 35.21875 13.996094 36 12.59375 C 36.15625 12.3125 36.167969 11.976563 36.03125 11.6875 C 36.003906 11.621094 36 11.570313 36 11.5 C 36 11.242188 36.167969 11.039063 36.40625 11 C 36.714844 10.945313 36.980469 10.75 37.125 10.46875 C 38.25 8.242188 38.960938 6.214844 39.6875 4.875 C 40.050781 4.207031 40.40625 3.730469 40.78125 3.4375 C 41.15625 3.144531 41.535156 3 42.15625 3 Z M 39.9375 17.53125 C 39.386719 17.53125 38.9375 17.980469 38.9375 18.53125 C 38.9375 19.082031 39.386719 19.53125 39.9375 19.53125 C 40.488281 19.53125 40.9375 19.082031 40.9375 18.53125 C 40.9375 17.980469 40.488281 17.53125 39.9375 17.53125 Z M 33.9375 21.53125 C 33.386719 21.53125 32.9375 21.980469 32.9375 22.53125 C 32.9375 23.082031 33.386719 23.53125 33.9375 23.53125 C 34.488281 23.53125 34.9375 23.082031 34.9375 22.53125 C 34.9375 21.980469 34.488281 21.53125 33.9375 21.53125 Z M 37.9375 25.53125 C 37.386719 25.53125 36.9375 25.980469 36.9375 26.53125 C 36.9375 27.082031 37.386719 27.53125 37.9375 27.53125 C 38.488281 27.53125 38.9375 27.082031 38.9375 26.53125 C 38.9375 25.980469 38.488281 25.53125 37.9375 25.53125 Z M 31.9375 32.53125 C 31.386719 32.53125 30.9375 32.980469 30.9375 33.53125 C 30.9375 34.082031 31.386719 34.53125 31.9375 34.53125 C 32.488281 34.53125 32.9375 34.082031 32.9375 33.53125 C 32.9375 32.980469 32.488281 32.53125 31.9375 32.53125 Z M 26.9375 34.53125 C 26.386719 34.53125 25.9375 34.980469 25.9375 35.53125 C 25.9375 36.082031 26.386719 36.53125 26.9375 36.53125 C 27.488281 36.53125 27.9375 36.082031 27.9375 35.53125 C 27.9375 34.980469 27.488281 34.53125 26.9375 34.53125 Z M 18.9375 39.53125 C 18.386719 39.53125 17.9375 39.980469 17.9375 40.53125 C 17.9375 41.082031 18.386719 41.53125 18.9375 41.53125 C 19.488281 41.53125 19.9375 41.082031 19.9375 40.53125 C 19.9375 39.980469 19.488281 39.53125 18.9375 39.53125 Z M 11.9375 41.53125 C 11.386719 41.53125 10.9375 41.980469 10.9375 42.53125 C 10.9375 43.082031 11.386719 43.53125 11.9375 43.53125 C 12.488281 43.53125 12.9375 43.082031 12.9375 42.53125 C 12.9375 41.980469 12.488281 41.53125 11.9375 41.53125 Z"/></svg>