<svg xmlns="http://www.w3.org/2000/svg"  viewBox="0 0 50 50" width="1000px" height="1000px"><path d="M 25 0 C 23.429688 0 22.234375 1 21.5625 2.3125 C 16.480469 2.988281 11.09375 5.21875 6.90625 8.53125 C 6.832031 8.515625 6.765625 8.476563 6.6875 8.46875 C 6.273438 8.429688 5.871094 8.492188 5.5 8.625 C 4.757813 8.886719 4.085938 9.414063 3.46875 10.09375 C 2.851563 10.773438 2.378906 11.488281 2.1875 12.25 C 2.078125 12.691406 2.085938 13.1875 2.21875 13.65625 C 0.871094 15.8125 0 18.335938 0 21 C 0 22.621094 0.398438 24.058594 1.1875 25.15625 C 1.976563 26.253906 3.210938 27 4.59375 27 L 4.90625 27 L 12.25 47.4375 C 12.394531 47.832031 12.769531 48.09375 13.1875 48.09375 L 18.6875 48.09375 C 18.910156 48.175781 19.152344 48.175781 19.375 48.09375 L 30.65625 48.09375 C 30.878906 48.175781 31.121094 48.175781 31.34375 48.09375 L 36.8125 48.09375 C 37.230469 48.09375 37.605469 47.832031 37.75 47.4375 L 45.125 27 C 46.628906 26.96875 47.941406 26.40625 48.78125 25.34375 C 49.644531 24.25 50 22.78125 50 21 C 50 15.761719 45.816406 10.722656 40.34375 7.125 C 40.273438 6.800781 40.167969 6.492188 40 6.21875 C 39.589844 5.546875 38.949219 4.964844 38.15625 4.5 C 37.363281 4.035156 36.535156 3.78125 35.75 3.75 C 35.285156 3.734375 34.796875 3.832031 34.375 4.0625 C 32.414063 3.300781 30.414063 2.695313 28.4375 2.3125 C 27.765625 1 26.570313 0 25 0 Z M 25 2 C 25.972656 2 26.652344 2.570313 26.9375 3.5 C 27.046875 3.855469 27.351563 4.121094 27.71875 4.1875 C 29.5625 4.523438 31.492188 5.097656 33.375 5.8125 C 33.394531 6.28125 33.550781 6.746094 33.78125 7.125 C 34.191406 7.796875 34.863281 8.347656 35.65625 8.8125 C 36.449219 9.277344 37.214844 9.5625 38 9.59375 C 38.566406 9.613281 39.175781 9.46875 39.65625 9.09375 C 44.550781 12.445313 48 16.988281 48 21 C 48 22.519531 47.679688 23.542969 47.21875 24.125 C 46.757813 24.707031 46.140625 25 45 25 L 44.8125 25 C 44.683594 24.953125 44.542969 24.929688 44.40625 24.9375 C 44.308594 24.945313 44.214844 24.964844 44.125 25 L 4.59375 25 C 3.878906 25 3.300781 24.675781 2.8125 24 C 2.324219 23.324219 2 22.277344 2 21 C 2 18.902344 2.636719 16.835938 3.6875 15.03125 C 4.148438 15.113281 4.632813 15.058594 5.0625 14.90625 C 5.804688 14.644531 6.539063 14.117188 7.15625 13.4375 C 7.773438 12.757813 8.183594 12.042969 8.375 11.28125 C 8.484375 10.839844 8.5 10.335938 8.375 9.875 C 12.332031 6.832031 17.535156 4.726563 22.21875 4.1875 C 22.609375 4.144531 22.941406 3.875 23.0625 3.5 C 23.347656 2.570313 24.027344 2 25 2 Z M 35.53125 5.78125 C 35.582031 5.78125 35.597656 5.777344 35.6875 5.78125 C 36.050781 5.792969 36.613281 5.902344 37.15625 6.21875 C 37.699219 6.535156 38.089844 6.972656 38.28125 7.28125 C 38.375 7.4375 38.394531 7.523438 38.40625 7.5625 C 38.355469 7.578125 38.257813 7.601563 38.09375 7.59375 C 37.730469 7.582031 37.199219 7.410156 36.65625 7.09375 C 36.113281 6.777344 35.722656 6.371094 35.53125 6.0625 C 35.480469 5.980469 35.464844 5.953125 35.4375 5.90625 C 35.472656 5.867188 35.503906 5.824219 35.53125 5.78125 Z M 17 8 C 16.515625 8.011719 16.027344 8.121094 15.59375 8.40625 C 14.730469 8.972656 14.324219 9.988281 14.3125 10.96875 C 14.300781 11.949219 14.632813 12.96875 15.25 13.90625 C 15.867188 14.84375 16.660156 15.5625 17.5625 15.9375 C 18.464844 16.3125 19.574219 16.347656 20.4375 15.78125 C 21.300781 15.214844 21.675781 14.230469 21.6875 13.25 C 21.699219 12.269531 21.367188 11.25 20.75 10.3125 C 20.132813 9.375 19.308594 8.65625 18.40625 8.28125 C 17.953125 8.09375 17.484375 7.988281 17 8 Z M 16.84375 10 C 17.03125 9.949219 17.304688 9.980469 17.65625 10.125 C 18.125 10.320313 18.679688 10.773438 19.09375 11.40625 C 19.507813 12.039063 19.695313 12.710938 19.6875 13.21875 C 19.679688 13.726563 19.539063 13.996094 19.34375 14.125 C 19.148438 14.253906 18.8125 14.289063 18.34375 14.09375 C 17.875 13.898438 17.320313 13.445313 16.90625 12.8125 C 16.492188 12.179688 16.304688 11.507813 16.3125 11 C 16.320313 10.492188 16.492188 10.222656 16.6875 10.09375 C 16.738281 10.0625 16.78125 10.015625 16.84375 10 Z M 6.1875 10.53125 C 6.261719 10.605469 6.34375 10.667969 6.4375 10.71875 C 6.433594 10.734375 6.441406 10.734375 6.4375 10.75 C 6.347656 11.101563 6.109375 11.628906 5.6875 12.09375 C 5.265625 12.558594 4.75 12.878906 4.40625 13 C 4.25 13.054688 4.171875 13.058594 4.125 13.0625 C 4.113281 13.050781 4.105469 13.042969 4.09375 13.03125 C 4.089844 12.980469 4.089844 12.921875 4.125 12.78125 C 4.214844 12.429688 4.515625 11.902344 4.9375 11.4375 C 5.359375 10.972656 5.84375 10.652344 6.1875 10.53125 Z M 37.90625 13.90625 C 36.984375 13.90625 36.195313 14.453125 35.71875 15.15625 C 35.242188 15.859375 35 16.730469 35 17.6875 C 35 18.644531 35.242188 19.546875 35.71875 20.25 C 36.195313 20.953125 36.984375 21.5 37.90625 21.5 C 38.828125 21.5 39.585938 20.953125 40.0625 20.25 C 40.539063 19.546875 40.8125 18.644531 40.8125 17.6875 C 40.8125 16.730469 40.539063 15.859375 40.0625 15.15625 C 39.585938 14.453125 38.828125 13.90625 37.90625 13.90625 Z M 37.90625 15.90625 C 38.03125 15.90625 38.195313 15.96875 38.40625 16.28125 C 38.617188 16.59375 38.8125 17.097656 38.8125 17.6875 C 38.8125 18.277344 38.617188 18.8125 38.40625 19.125 C 38.195313 19.4375 38.03125 19.5 37.90625 19.5 C 37.78125 19.5 37.585938 19.4375 37.375 19.125 C 37.164063 18.8125 37 18.277344 37 17.6875 C 37 17.097656 37.164063 16.59375 37.375 16.28125 C 37.585938 15.96875 37.78125 15.90625 37.90625 15.90625 Z M 7.03125 27 L 42.96875 27 L 36.09375 46.09375 L 32.1875 46.09375 L 34.96875 32.1875 C 35.039063 31.855469 34.9375 31.511719 34.699219 31.269531 C 34.457031 31.03125 34.113281 30.929688 33.78125 31 C 33.390625 31.09375 33.09375 31.414063 33.03125 31.8125 L 30.1875 46.09375 L 26 46.09375 L 26 32 C 26.011719 31.710938 25.894531 31.433594 25.6875 31.238281 C 25.476563 31.039063 25.191406 30.941406 24.90625 30.96875 C 24.863281 30.976563 24.820313 30.988281 24.78125 31 C 24.316406 31.105469 23.988281 31.523438 24 32 L 24 46.09375 L 19.8125 46.09375 L 16.96875 31.8125 C 16.921875 31.546875 16.769531 31.308594 16.546875 31.152344 C 16.324219 31 16.046875 30.945313 15.78125 31 C 15.25 31.125 14.914063 31.652344 15.03125 32.1875 L 17.8125 46.09375 L 13.90625 46.09375 Z"/></svg>