<svg xmlns="http://www.w3.org/2000/svg"  viewBox="0 0 50 50" width="1000px" height="1000px"><path d="M 8 9 C 5.2504839 9 3 11.250484 3 14 L 3 36 C 3 38.749516 5.2504839 41 8 41 L 35 41 C 37.749516 41 40 38.749516 40 36 L 40 32 C 40 31.43497 40.43497 31 41 31 L 42 31 C 45.301625 31 48 28.301625 48 25 C 48 21.698375 45.301625 19 42 19 L 41 19 C 40.43497 19 40 18.56503 40 18 L 40 14 C 40 11.250484 37.749516 9 35 9 L 8 9 z M 8 11 L 35 11 C 36.668484 11 38 12.331516 38 14 L 38 18 C 38 19.64497 39.35503 21 41 21 L 42 21 C 44.220375 21 46 22.779625 46 25 C 46 27.220375 44.220375 29 42 29 L 41 29 C 39.35503 29 38 30.35503 38 32 L 38 36 C 38 37.668484 36.668484 39 35 39 L 8 39 C 6.3315161 39 5 37.668484 5 36 L 5 14 C 5 12.331516 6.3315161 11 8 11 z M 11 14 C 9.3550302 14 8 15.35503 8 17 L 8 33 C 8 34.64497 9.3550302 36 11 36 L 32 36 C 33.64497 36 35 34.64497 35 33 L 35 17 C 35 15.35503 33.64497 14 32 14 L 11 14 z M 11 16 L 32 16 C 32.56503 16 33 16.43497 33 17 L 33 33 C 33 33.56503 32.56503 34 32 34 L 11 34 C 10.43497 34 10 33.56503 10 33 L 10 17 C 10 16.43497 10.43497 16 11 16 z M 42 23 A 2 2 0 0 0 42 27 A 2 2 0 0 0 42 23 z"/></svg>