<svg xmlns="http://www.w3.org/2000/svg"  viewBox="0 0 50 50" width="1000px" height="1000px"><path d="M 37.5 4 C 34.472656 4 32 6.472656 32 9.5 C 32 12.527344 34.472656 15 37.5 15 C 40.527344 15 43 12.527344 43 9.5 C 43 6.472656 40.527344 4 37.5 4 Z M 37.5 6 C 39.445313 6 41 7.554688 41 9.5 C 41 11.445313 39.445313 13 37.5 13 C 35.554688 13 34 11.445313 34 9.5 C 34 7.554688 35.554688 6 37.5 6 Z M 26.5 10 C 25.503906 10 24.617188 10.371094 23.882813 10.910156 C 23.78125 10.949219 23.6875 11.003906 23.605469 11.070313 L 15.136719 17.894531 C 15.027344 17.984375 14.9375 18.09375 14.875 18.21875 C 13.769531 19.136719 13 20.460938 13 22 C 13 23.480469 13.71875 24.753906 14.738281 25.664063 C 14.816406 25.816406 14.929688 25.949219 15.074219 26.046875 L 15.136719 26.089844 C 15.179688 26.121094 15.226563 26.15625 15.289063 26.195313 L 22.53125 31.125 L 21.066406 39.816406 C 21.066406 39.828125 21.0625 39.851563 21.0625 39.84375 C 21.0625 39.851563 21.0625 39.859375 21.0625 39.867188 L 21.046875 39.964844 C 21.035156 40.023438 21.03125 40.085938 21.03125 40.152344 C 21.03125 40.15625 21.03125 40.15625 21.03125 40.160156 C 21.015625 40.265625 21 40.351563 21 40.5 C 21 42.421875 22.578125 44 24.5 44 C 26.296875 44 27.78125 42.617188 27.96875 40.871094 L 27.957031 40.9375 L 29.953125 29.527344 C 29.964844 29.460938 29.96875 29.394531 29.96875 29.328125 C 29.96875 29.328125 29.96875 29.328125 29.96875 29.324219 C 29.980469 29.21875 30 29.125 30 29 C 30 28.144531 29.582031 27.417969 29.003906 26.871094 C 28.933594 26.738281 28.835938 26.625 28.714844 26.535156 L 24.339844 23.304688 L 28.433594 19.683594 L 31.578125 23.769531 C 31.667969 23.890625 31.785156 23.988281 31.921875 24.058594 C 32.464844 24.605469 33.167969 25 34 25 L 42 25 C 43.644531 25 45 23.644531 45 22 C 45 20.355469 43.644531 19 42 19 L 35.5 19 L 30.21875 11.96875 L 30.25 12.019531 C 29.445313 10.804688 28.0625 10 26.5 10 Z M 26.5 12 C 27.378906 12 28.136719 12.445313 28.582031 13.125 C 28.59375 13.140625 28.605469 13.15625 28.617188 13.171875 L 34.203125 20.601563 C 34.390625 20.851563 34.6875 21 35 21 L 42 21 C 42.566406 21 43 21.433594 43 22 C 43 22.566406 42.566406 23 42 23 L 34 23 C 33.664063 23 33.378906 22.839844 33.191406 22.582031 C 33.097656 22.453125 32.976563 22.347656 32.832031 22.277344 L 33.019531 22.371094 L 29.363281 17.613281 C 29.195313 17.394531 28.945313 17.253906 28.667969 17.230469 C 28.390625 17.203125 28.117188 17.292969 27.910156 17.472656 L 22.089844 22.625 C 21.859375 22.828125 21.738281 23.117188 21.75 23.421875 C 21.765625 23.722656 21.914063 24.003906 22.15625 24.183594 L 27.316406 27.984375 L 27.214844 27.753906 C 27.289063 27.921875 27.410156 28.070313 27.5625 28.171875 C 27.828125 28.355469 28 28.648438 28 29 C 28 29.035156 27.996094 29.089844 27.980469 29.171875 C 27.945313 29.367188 27.96875 29.570313 28.050781 29.753906 L 27.933594 29.484375 L 25.988281 40.589844 C 25.984375 40.613281 25.980469 40.632813 25.980469 40.65625 C 25.898438 41.417969 25.285156 42 24.5 42 C 23.660156 42 23 41.339844 23 40.5 C 23 40.472656 23.007813 40.398438 23.027344 40.273438 C 23.027344 40.246094 23.03125 40.21875 23.03125 40.191406 L 23.03125 40.1875 C 23.035156 40.183594 23.035156 40.179688 23.035156 40.171875 C 23.058594 39.667969 22.699219 39.222656 22.203125 39.140625 L 23.179688 39.304688 L 23.042969 40.148438 L 24.609375 30.824219 C 24.675781 30.4375 24.511719 30.050781 24.1875 29.828125 L 16.636719 24.691406 L 16.636719 25.214844 C 16.636719 24.921875 16.511719 24.648438 16.292969 24.457031 C 16.289063 24.457031 16.289063 24.457031 16.285156 24.453125 C 16.265625 24.4375 16.25 24.421875 16.230469 24.40625 C 15.484375 23.859375 15 22.992188 15 22 C 15 20.957031 15.523438 20.050781 16.324219 19.515625 C 16.597656 19.328125 16.761719 19.015625 16.761719 18.6875 L 16.761719 19.15625 L 24.511719 12.90625 L 24.074219 12.835938 C 24.367188 12.882813 24.664063 12.800781 24.890625 12.609375 C 25.335938 12.226563 25.882813 12 26.5 12 Z M 11 28 C 6.042969 28 2 32.042969 2 37 C 2 41.957031 6.042969 46 11 46 C 15.957031 46 20 41.957031 20 37 C 20 32.042969 15.957031 28 11 28 Z M 39 28 C 34.042969 28 30 32.042969 30 37 C 30 41.957031 34.042969 46 39 46 C 43.957031 46 48 41.957031 48 37 C 48 32.042969 43.957031 28 39 28 Z M 11 30 C 14.878906 30 18 33.121094 18 37 C 18 40.878906 14.878906 44 11 44 C 7.121094 44 4 40.878906 4 37 C 4 33.121094 7.121094 30 11 30 Z M 39 30 C 42.878906 30 46 33.121094 46 37 C 46 40.878906 42.878906 44 39 44 C 35.121094 44 32 40.878906 32 37 C 32 33.121094 35.121094 30 39 30 Z"/></svg>