<?xml version="1.0" encoding="UTF-8" standalone="no"?>
<svg
   viewBox="0 0 48 48"
   width="1000"
   height="1000"
   version="1.1"
   id="svg1"
   xmlns="http://www.w3.org/2000/svg"
   xmlns:svg="http://www.w3.org/2000/svg">
  <path d="M 28.414062,0.63671875 C 25.570142,1.706219 23.836295,3.4092752 22.759766,6.5 a 0.96009598,0.96009598 0 0 0 -0.0039,0.013672 c -0.09029,0.00822 -0.11801,0.00679 -0.333984,0.027344 -0.163371,0.015549 -0.440123,0.021658 -0.777344,0.074219 -0.839835,0.1309046 -1.742498,0.2878421 -2.638672,0.625 -0.474887,0.1786617 -0.834888,0.331941 -1.273437,0.6054687 -0.767804,0.4788867 -1.536058,1.0751001 -2.199219,1.6738282 -0.154987,0.1399281 -0.252379,0.2445498 -0.33789,0.3222656 -0.07047,0.064037 -0.181794,0.15025 -0.326172,0.3027345 -0.126718,0.133817 -0.189291,0.213588 -0.253907,0.28125 -0.09596,0.100487 -0.208429,0.206514 -0.347656,0.365235 -0.312775,0.356565 -0.594848,0.747534 -0.835937,1.126953 -0.240981,0.379245 -0.40644,0.75281 -0.552735,1.117187 -0.148132,0.368956 -0.226529,0.706988 -0.296875,0.984375 -0.115892,0.456993 -0.259709,0.97312 -0.339843,1.542969 -0.04534,0.322434 -0.12583,0.675703 -0.185547,1.105469 -0.06482,0.466512 -0.219362,1.113365 -0.31836,1.699218 -0.08926,0.528246 -0.224772,1.035643 -0.408203,1.585938 -0.260996,0.782988 -0.672332,1.798962 -0.83789,2.783203 -0.08177,0.486119 -0.08657,0.875742 -0.13086,1.246094 -0.02406,0.201163 -0.04883,0.431469 -0.04883,0.689453 0,0.290651 0.0355,0.546467 0.05273,0.71875 0.03447,0.3447 0.05807,0.748319 0.136719,1.181641 0.134029,0.738365 0.434374,1.587997 0.673828,2.228515 0.220522,0.589882 0.365878,1.198985 0.484375,1.851563 0.166362,0.916168 0.36161,2.064181 0.501953,2.99414 0.08282,0.548765 0.237331,1.072373 0.333985,1.47461 0.11005,0.458001 0.249065,0.881256 0.416015,1.318359 0.171631,0.44936 0.388836,0.845791 0.632813,1.228516 0.458968,0.71998 1.076852,1.352631 1.667969,1.863281 0.812207,0.701647 1.661152,1.31487 2.43164,1.925781 0.785089,0.622491 1.642264,1.355603 2.595703,1.931641 0.41521,0.250858 0.891243,0.528574 1.435547,0.746094 0.637563,0.254787 1.184101,0.344039 1.736328,0.40625 0.33217,0.03743 0.677913,0.05423 1.087891,0.0039 a 0.96009598,0.96009598 0 0 0 0.002,0 c 0.722239,-0.08875 1.290831,-0.184802 2.126953,-0.53711 1.698553,-0.715701 3.022468,-1.953192 4.292969,-2.93164 1.209675,-0.931601 2.534813,-1.95164 3.509766,-3.384766 0.285956,-0.42034 0.510516,-0.839346 0.679687,-1.332031 0.09144,-0.266314 0.16131,-0.498821 0.238281,-0.748047 0.437258,-1.415837 0.572473,-2.81688 0.804688,-4.095703 0.07795,-0.429276 0.127609,-0.753569 0.214844,-1.064453 0.215544,-0.768143 0.524723,-1.603318 0.779296,-2.490235 0.176497,-0.614893 0.35419,-1.317687 0.421875,-1.99414 0.02161,-0.21594 0.04626,-0.530101 0.0625,-0.742188 0.0029,-0.03798 0.04521,-0.14897 0.05078,-0.4375 0.0067,-0.346324 -0.04707,-0.486402 -0.05078,-0.552734 -0.07223,-1.289737 -0.370252,-2.466534 -0.826171,-3.689453 -0.212787,-0.570761 -0.41464,-1.176833 -0.542969,-1.712891 -0.06194,-0.258737 -0.09177,-0.413322 -0.150391,-0.722656 -0.05483,-0.289377 -0.112028,-0.475118 -0.121094,-0.554688 -0.07961,-0.698769 -0.230264,-1.382921 -0.328125,-1.968749 -0.103925,-0.622112 -0.235305,-1.269143 -0.439453,-1.910157 -0.0575,-0.18056 -0.116204,-0.364306 -0.195312,-0.574218 C 34.92748,12.831394 34.817039,12.550822 34.658203,12.259766 34.175651,11.37551 33.4845,10.563312 32.755859,9.9042969 31.95912,9.1836908 30.991379,8.3739845 30.027344,7.7734375 29.604189,7.5098341 29.244442,7.3463428 28.753906,7.1621094 28.320285,6.9992518 27.944283,6.9296615 27.669922,6.8515625 27.354626,6.7618134 27.098462,6.7320163 26.914062,6.6972656 26.386371,6.5978208 25.913764,6.5303412 25.300781,6.5273437 c -9.66e-4,-4.7e-6 -0.269331,-0.009 -0.384765,-0.013672 0.888574,-2.1658933 1.911039,-3.2291216 4.173828,-4.0800781 A 0.95999998,0.95999998 0 0 0 29.650391,1.1972656 0.95999998,0.95999998 0 0 0 28.414062,0.63671875 Z M 23.464844,8.3925781 c 0.19372,-6.81e-5 0.439918,0.00571 0.685547,0.013672 0.491257,0.015918 0.90212,0.039851 1.140625,0.041016 0.489404,0.00239 0.77996,0.044826 1.267578,0.1367188 0.265532,0.05004 0.462003,0.078003 0.585937,0.1132812 0.38379,0.1092487 0.697042,0.1728754 0.933594,0.2617188 0.445791,0.1674284 0.601476,0.2364672 0.933594,0.4433594 0.789172,0.491616 1.707114,1.2475227 2.457031,1.9257817 0.585624,0.529664 1.160026,1.221417 1.503906,1.851563 0.08759,0.160494 0.166753,0.3528 0.259766,0.599609 0.05917,0.157 0.105387,0.302352 0.162109,0.480469 0.163118,0.512181 0.281299,1.069976 0.376953,1.642578 0.1087,0.650713 0.248374,1.308251 0.3125,1.871092 0.03947,0.346449 0.121454,0.58188 0.142578,0.69336 0.05971,0.315127 0.100247,0.52147 0.169922,0.8125 0.157126,0.656347 0.382688,1.322259 0.611328,1.935547 0.411994,1.105096 0.647384,2.06192 0.707032,3.126953 0.01811,0.323378 0.05191,0.349819 0.05078,0.408203 -6.09e-4,0.03156 -0.02622,0.0582 -0.04687,0.328125 -0.0159,0.207713 -0.04134,0.526787 -0.05859,0.699219 -0.04609,0.460591 -0.196119,1.092336 -0.357422,1.654297 -0.227236,0.791676 -0.538095,1.628453 -0.783203,2.501953 -0.127294,0.453647 -0.182557,0.845358 -0.253906,1.238281 -0.250626,1.380216 -0.388397,2.702179 -0.75,3.873047 -0.07832,0.253577 -0.142203,0.462778 -0.220703,0.691406 -0.116363,0.338888 -0.225679,0.543537 -0.451172,0.875 -0.751444,1.10458 -1.892441,2.018203 -3.09375,2.943359 -1.359608,1.047072 -2.593293,2.146828 -3.867188,2.683594 -0.696416,0.293442 -0.91105,0.31386 -1.615234,0.400391 -0.0065,7.96e-4 -0.598791,-0.0011 -0.640625,-0.0059 -0.507771,-0.0572 -0.790307,-0.100274 -1.238281,-0.279297 -0.370664,-0.148128 -0.763681,-0.372196 -1.15625,-0.609375 -0.764045,-0.461612 -1.576796,-1.143045 -2.396485,-1.792969 -0.815362,-0.646492 -1.641361,-1.244335 -2.36914,-1.873047 -0.48802,-0.421587 -0.998841,-0.964691 -1.302734,-1.441406 -0.199499,-0.312953 -0.344312,-0.582577 -0.458985,-0.882813 -0.147439,-0.38602 -0.25678,-0.720083 -0.34375,-1.082031 -0.112498,-0.468172 -0.246439,-0.950463 -0.300781,-1.310547 -0.144342,-0.956453 -0.339766,-2.116532 -0.509766,-3.052734 -0.130236,-0.717225 -0.300998,-1.44557 -0.576172,-2.181641 -0.222423,-0.594964 -0.500073,-1.436171 -0.583984,-1.898437 -0.05142,-0.283268 -0.07622,-0.637139 -0.115234,-1.027344 -0.02041,-0.204083 -0.04297,-0.419965 -0.04297,-0.529297 0,-0.133178 0.01424,-0.286029 0.03516,-0.460937 0.05757,-0.481343 0.06619,-0.841431 0.119141,-1.15625 0.109821,-0.652882 0.477972,-1.637044 0.763672,-2.494141 0.204422,-0.61327 0.372702,-1.223729 0.482422,-1.873047 0.08085,-0.478431 0.240254,-1.137526 0.326171,-1.755859 0.0452,-0.325278 0.125666,-0.675713 0.185547,-1.101563 0.05722,-0.406908 0.176961,-0.857338 0.298828,-1.33789 0.07489,-0.295313 0.139126,-0.548731 0.216797,-0.742188 0.128571,-0.320232 0.242372,-0.569419 0.390625,-0.802734 0.194094,-0.305459 0.428994,-0.627098 0.660157,-0.890625 0.07526,-0.0858 0.161943,-0.167483 0.292968,-0.304688 0.130435,-0.136583 0.197643,-0.221506 0.259766,-0.287108 0.04375,-0.0462 0.09578,-0.08782 0.222656,-0.203125 0.151584,-0.137765 0.244793,-0.237646 0.332031,-0.316407 0.583878,-0.527149 1.283975,-1.0679657 1.929688,-1.4707031 0.330408,-0.2060792 0.4819,-0.2656114 0.933594,-0.4355469 0.677489,-0.2548846 1.448507,-0.3992447 2.257812,-0.5253906 0.191751,-0.029887 0.40313,-0.037667 0.664063,-0.0625 0.205424,-0.019552 0.219223,-0.00311 0.52539,-0.044922 a 0.96009598,0.96009598 0 0 0 0.02148,-0.00391 c 0.01228,-0.00196 0.02137,-0.00402 0.0332,-0.00586 -0.112138,0.02193 0.08753,-0.00384 0.28125,-0.00391 z M 29.759766,12.5625 a 0.95999998,0.95999998 0 0 0 -1.357422,0.01367 c -0.360959,0.368851 -0.611363,0.791111 -0.808594,1.255859 -0.202221,0.476508 -0.381029,1.087298 -0.496094,1.523438 -0.163891,0.621214 -0.280055,1.113625 -0.457031,1.591797 -0.144985,0.391735 -0.264421,0.630162 -0.470703,0.894531 -0.30137,0.386232 -0.561432,0.564975 -1.048828,0.914062 a 0.95999998,0.95999998 0 0 0 -0.220703,1.339844 0.95999998,0.95999998 0 0 0 1.33789,0.220703 c 0.475867,-0.34083 0.972836,-0.687449 1.445313,-1.292969 0.349413,-0.447802 0.576202,-0.919464 0.757812,-1.410156 0.22834,-0.616951 0.357849,-1.176945 0.513672,-1.767578 0.09736,-0.369049 0.288139,-0.983405 0.40625,-1.261719 0.15129,-0.356494 0.213533,-0.461144 0.412109,-0.664062 A 0.95999998,0.95999998 0 0 0 29.759766,12.5625 Z M 19.466797,14.546875 A 0.95999998,0.95999998 0 0 0 18.810547,14.875 c -0.472325,0.545889 -0.772847,1.091382 -0.990235,1.695312 -0.187357,0.520504 -0.325375,1.063587 -0.416015,1.607422 -0.107986,0.647939 -0.147834,1.298953 -0.173828,1.892578 -0.0049,0.112687 -0.03785,0.209633 -0.04492,0.498047 -0.005,0.202864 -0.04823,0.653321 -0.04883,1.029297 -4.83e-4,0.300344 0.005,0.412715 -0.002,0.699219 -0.0044,0.177623 -0.04136,0.300514 -0.04687,0.630859 -0.0023,0.136612 0.002,0.09846 -0.02148,0.22461 -0.0819,0.439215 -0.09954,0.78125 -0.164062,1.068359 -0.06064,0.269839 -0.09818,0.44779 -0.169922,0.632813 -0.08635,0.222701 -0.213097,0.451236 -0.310547,0.578125 a 0.95999998,0.95999998 0 0 0 0.177734,1.345703 0.95999998,0.95999998 0 0 0 1.345703,-0.175782 c 0.24914,-0.3244 0.434716,-0.684819 0.578125,-1.054687 0.138478,-0.357151 0.197335,-0.661254 0.251954,-0.904297 0.109104,-0.485464 0.128332,-0.873728 0.177734,-1.138672 0.03153,-0.169143 0.05143,-0.352657 0.05469,-0.542969 v -0.002 c 0.0025,-0.139631 0.03846,-0.272163 0.04687,-0.615234 0.008,-0.329615 0.0015,-0.475538 0.002,-0.742188 3.04e-4,-0.191875 0.03843,-0.64093 0.04687,-0.986328 0.0021,-0.08371 0.03224,-0.170774 0.04492,-0.460937 0.02481,-0.566611 0.0647,-1.14597 0.150391,-1.660156 0.07244,-0.434611 0.183237,-0.87092 0.328125,-1.273438 0.165964,-0.461069 0.287432,-0.68646 0.634766,-1.087891 a 0.95999998,0.95999998 0 0 0 -0.09766,-1.355468 0.95999998,0.95999998 0 0 0 -0.697265,-0.230469 z m 6.21289,11.998047 a 0.95999998,0.95999998 0 0 0 -0.677734,0.28125 c -0.255317,0.255345 -0.539019,0.53064 -0.794922,0.902344 -0.195938,0.284603 -0.328908,0.560754 -0.423828,0.925781 -0.118613,0.456153 -0.143072,0.656602 -0.214844,1.095703 -0.02635,0.161223 -0.05625,0.313571 -0.07031,0.521484 -0.02808,0.415042 0.04786,0.68029 0.06836,0.851563 0.03574,0.29852 0.06229,0.542545 0.115235,0.892578 0.08129,0.537529 0.278256,1.147931 0.345703,1.455078 0.0723,0.329233 0.08243,0.556851 0.130859,0.962891 0.02006,0.168179 0.02274,0.221935 0.02539,0.171875 -0.004,0.076 -0.01383,0.09901 -0.05273,0.30664 -0.06099,0.325531 -0.08782,0.474864 -0.146484,0.720703 -0.04406,0.184637 -0.09343,0.278451 -0.154297,0.357422 -0.110937,0.143939 -0.223469,0.231995 -0.460937,0.439453 a 0.95999998,0.95999998 0 0 0 -0.0918,1.353516 0.95999998,0.95999998 0 0 0 1.353515,0.0918 c 0.183193,-0.160041 0.452823,-0.365322 0.720703,-0.712891 0.251186,-0.3259 0.40942,-0.704393 0.5,-1.083984 0.06868,-0.287814 0.105347,-0.488689 0.166016,-0.8125 0.0297,-0.158498 0.07141,-0.321386 0.08398,-0.558594 0.01453,-0.274151 -0.02971,-0.437947 -0.03711,-0.5 -0.04027,-0.33758 -0.05807,-0.674637 -0.162109,-1.148437 -0.104383,-0.475349 -0.289518,-1.113542 -0.322266,-1.330078 -0.04662,-0.308209 -0.06781,-0.519416 -0.105469,-0.833985 -0.03322,-0.27749 -0.05819,-0.529015 -0.06055,-0.49414 0.0062,-0.09136 0.01874,-0.157729 0.04883,-0.341797 0.07629,-0.466774 0.07526,-0.527781 0.177734,-0.921875 0.01202,-0.04622 0.128333,-0.293948 0.146484,-0.320313 0.122595,-0.17807 0.316052,-0.37657 0.572266,-0.632812 a 0.95999998,0.95999998 0 0 0 0,-1.359375 0.95999998,0.95999998 0 0 0 -0.679688,-0.279297 z" />
</svg>
