<svg xmlns="http://www.w3.org/2000/svg"  viewBox="0 0 50 50" width="1000px" height="1000px"><path d="M 24.980469 1 C 24.6875 1.003906 24.414063 1.136719 24.230469 1.363281 C 24.230469 1.363281 20.195313 6.242188 16.160156 12.46875 C 12.125 18.699219 8 26.191406 8 32.019531 C 8 41.386719 15.621094 49 25 49 C 34.378906 49 42 41.386719 42 32.019531 C 42 26.191406 37.875 18.699219 33.839844 12.46875 C 29.804688 6.242188 25.769531 1.363281 25.769531 1.363281 C 25.578125 1.128906 25.285156 0.992188 24.980469 1 Z M 25 3.621094 C 25.960938 4.8125 28.8125 8.390625 32.160156 13.558594 C 36.125 19.675781 40 27.191406 40 32.019531 C 40 40.304688 33.296875 47 25 47 C 16.703125 47 10 40.304688 10 32.019531 C 10 27.195313 13.875 19.675781 17.839844 13.558594 C 21.1875 8.390625 24.039063 4.8125 25 3.621094 Z M 24.984375 19.984375 C 24.433594 19.996094 23.992188 20.449219 24 21 L 24 22.585938 L 23.707031 22.292969 C 23.519531 22.097656 23.261719 21.992188 22.988281 21.988281 C 22.582031 21.992188 22.21875 22.238281 22.0625 22.613281 C 21.910156 22.992188 22 23.421875 22.292969 23.707031 L 24 25.414063 L 24 29.265625 L 20.660156 27.34375 L 20.035156 25.011719 C 19.925781 24.574219 19.539063 24.265625 19.09375 24.253906 C 18.773438 24.246094 18.472656 24.390625 18.277344 24.640625 C 18.082031 24.894531 18.019531 25.222656 18.105469 25.527344 L 18.214844 25.925781 L 16.839844 25.136719 C 16.695313 25.046875 16.53125 25 16.363281 24.992188 C 16.332031 24.992188 16.296875 24.992188 16.265625 24.996094 C 15.824219 25.023438 15.449219 25.335938 15.351563 25.769531 C 15.253906 26.203125 15.453125 26.648438 15.839844 26.863281 L 17.214844 27.65625 L 16.8125 27.765625 C 16.460938 27.851563 16.183594 28.121094 16.085938 28.472656 C 15.992188 28.820313 16.089844 29.195313 16.347656 29.449219 C 16.605469 29.703125 16.980469 29.796875 17.328125 29.699219 L 19.664063 29.074219 L 23 31 L 19.664063 32.925781 L 17.328125 32.300781 C 17.234375 32.273438 17.136719 32.261719 17.035156 32.265625 C 16.53125 32.273438 16.117188 32.652344 16.058594 33.152344 C 16.003906 33.648438 16.324219 34.113281 16.8125 34.234375 L 17.214844 34.34375 L 15.839844 35.136719 C 15.515625 35.304688 15.308594 35.640625 15.304688 36.007813 C 15.300781 36.375 15.496094 36.714844 15.816406 36.894531 C 16.136719 37.070313 16.53125 37.0625 16.839844 36.863281 L 18.214844 36.074219 L 18.105469 36.472656 C 18.003906 36.820313 18.101563 37.195313 18.355469 37.453125 C 18.609375 37.710938 18.980469 37.8125 19.332031 37.714844 C 19.679688 37.621094 19.949219 37.34375 20.035156 36.988281 L 20.660156 34.65625 L 24 32.734375 L 24 36.585938 L 22.292969 38.292969 C 22.03125 38.542969 21.925781 38.917969 22.019531 39.265625 C 22.109375 39.617188 22.382813 39.890625 22.734375 39.980469 C 23.082031 40.074219 23.457031 39.96875 23.707031 39.707031 L 24 39.414063 L 24 41 C 23.996094 41.359375 24.183594 41.695313 24.496094 41.878906 C 24.808594 42.058594 25.191406 42.058594 25.503906 41.878906 C 25.816406 41.695313 26.003906 41.359375 26 41 L 26 39.414063 L 26.292969 39.707031 C 26.542969 39.96875 26.917969 40.074219 27.265625 39.980469 C 27.617188 39.890625 27.890625 39.617188 27.980469 39.265625 C 28.074219 38.917969 27.96875 38.542969 27.707031 38.292969 L 26 36.585938 L 26 32.734375 L 29.339844 34.65625 L 29.964844 36.988281 C 30.050781 37.34375 30.320313 37.621094 30.667969 37.714844 C 31.019531 37.8125 31.390625 37.710938 31.644531 37.453125 C 31.898438 37.195313 31.996094 36.820313 31.894531 36.472656 L 31.785156 36.074219 L 33.160156 36.863281 C 33.46875 37.0625 33.863281 37.070313 34.183594 36.894531 C 34.503906 36.714844 34.699219 36.375 34.695313 36.007813 C 34.691406 35.640625 34.484375 35.304688 34.160156 35.136719 L 32.785156 34.34375 L 33.1875 34.234375 C 33.679688 34.113281 34.003906 33.640625 33.9375 33.136719 C 33.875 32.632813 33.441406 32.257813 32.9375 32.265625 C 32.84375 32.265625 32.757813 32.277344 32.671875 32.300781 L 30.335938 32.925781 L 27 31 L 30.335938 29.074219 L 32.671875 29.699219 C 33.019531 29.796875 33.394531 29.703125 33.652344 29.449219 C 33.910156 29.195313 34.007813 28.820313 33.914063 28.472656 C 33.816406 28.121094 33.539063 27.851563 33.1875 27.765625 L 32.785156 27.65625 L 34.160156 26.863281 C 34.550781 26.644531 34.746094 26.191406 34.640625 25.757813 C 34.535156 25.320313 34.152344 25.011719 33.703125 24.996094 C 33.515625 24.988281 33.324219 25.035156 33.160156 25.136719 L 31.785156 25.925781 L 31.894531 25.527344 C 31.984375 25.214844 31.914063 24.882813 31.714844 24.628906 C 31.511719 24.378906 31.203125 24.238281 30.878906 24.253906 C 30.441406 24.28125 30.070313 24.585938 29.964844 25.011719 L 29.339844 27.34375 L 26 29.265625 L 26 25.414063 L 27.707031 23.707031 C 28.003906 23.421875 28.09375 22.980469 27.9375 22.601563 C 27.777344 22.222656 27.402344 21.976563 26.988281 21.984375 C 26.726563 21.992188 26.476563 22.101563 26.292969 22.292969 L 26 22.585938 L 26 21 C 26.003906 20.730469 25.898438 20.46875 25.707031 20.277344 C 25.515625 20.085938 25.253906 19.980469 24.984375 19.984375 Z"/></svg>