<svg xmlns="http://www.w3.org/2000/svg"  viewBox="0 0 50 50" width="1000px" height="1000px"><path d="M 18 3 C 14.154545 3 11 6.1545455 11 10 L 11 12 L 10 12 A 1.0001 1.0001 0 0 0 9 13 L 9 46 A 1.0001 1.0001 0 0 0 10 47 L 18.957031 47 L 20 47 L 20 42 L 22 42 L 22 47 L 24 47 L 24 42 L 26 42 L 26 47 L 28 47 L 28 42 L 30 42 L 30 47 L 32 47 L 40 47 A 1.0001 1.0001 0 0 0 41 46 L 41 13 A 1.0001 1.0001 0 0 0 40 12 L 39 12 L 39 10 C 39 6.1545455 35.845455 3 32 3 L 18 3 z M 18 5 L 32 5 C 34.754545 5 37 7.2454545 37 10 L 37 12 L 13 12 L 13 10 C 13 7.2454545 15.245455 5 18 5 z M 11 14 L 39 14 L 39 45 L 32 45 L 32 41 A 1.0001 1.0001 0 0 0 31 40 L 19 40 A 1.0001 1.0001 0 0 0 18 41 L 18 45 L 11 45 L 11 14 z M 15 21 L 15 22 L 15 34 L 35 34 L 35 21 L 15 21 z M 17 23 L 33 23 L 33 32 L 17 32 L 17 23 z"/></svg>