<svg xmlns="http://www.w3.org/2000/svg"  viewBox="0 0 50 50" width="1000px" height="1000px"><path d="M 16.996094 1.9980469 C 16.823844 1.9985469 16.652047 2.0452656 16.498047 2.1347656 C 16.189047 2.3147656 16 2.644 16 3 C 16 3.014 15.982734 4.3904688 14.552734 5.1054688 L 14.068359 5.3457031 C 11.435359 6.6457031 7.5466875 8.5681094 7.0546875 13.037109 C 2.7376875 13.374109 -5.9211895e-16 16.031 0 20 C 0 21.760208 0.94239497 23.576353 3.1835938 24.917969 L 4.8183594 32.082031 C 5.1723594 32.034031 5.5314375 32 5.8984375 32 L 6.8515625 32 L 5.4726562 25.957031 C 7.2353241 26.547379 9.4751682 26.925671 12.271484 26.982422 C 12.421484 26.370422 12.643266 25.699047 12.947266 24.998047 C 6.2952656 24.987047 2 23.029 2 20 C 2 15.487 6.196 15 8 15 C 8.553 15 9 14.552 9 14 C 9 10.08 12.163125 8.518625 14.953125 7.140625 L 15.447266 6.8945312 C 16.675266 6.2805313 17.311578 5.3680781 17.642578 4.5800781 C 19.774578 6.0090781 23 8.673 23 11 C 23 11.504 23.376953 11.930188 23.876953 11.992188 C 27.794953 12.482188 30.037219 13.692578 31.324219 15.017578 C 31.631219 15.010578 31.934 15 32.25 15 C 32.816 15 33.364391 15.015062 33.900391 15.039062 C 32.672391 13.000063 30.128062 10.929187 24.914062 10.117188 C 24.130063 6.0331875 18.213094 2.5408594 17.496094 2.1308594 C 17.341094 2.0423594 17.168344 1.9975469 16.996094 1.9980469 z M 32.25 17 C 17.353 17 14 25.851172 14 28.951172 C 14 30.182172 14.501609 31.34 14.849609 32 L 15.011719 32 L 16.980469 32 L 17.5 32 C 18.11 31.536 19.023 31 20 31 C 21.104 31 22.118891 31.675016 22.712891 32.166016 C 23.358891 32.301016 23.972781 32.521688 24.550781 32.804688 C 24.617781 32.761688 24.689141 32.728969 24.744141 32.667969 C 24.759141 32.650969 26.286 31 28 31 C 29.724 31 31.242859 32.653969 31.255859 32.667969 C 31.624859 33.080969 32.257969 33.112141 32.667969 32.744141 L 32.744141 32.667969 C 32.759141 32.650969 34.286 31 36 31 C 37.724 31 39.242859 32.653969 39.255859 32.667969 C 39.634859 33.091969 40.365141 33.091969 40.744141 32.667969 C 40.759141 32.650969 42.286 31 44 31 C 45.171557 31 46.20893 31.745992 46.783203 32.240234 L 40.363281 46 L 38.308594 46 L 40.964844 36.263672 A 1.0001 1.0001 0 0 0 39.955078 34.988281 A 1.0001 1.0001 0 0 0 39.035156 35.736328 L 36.236328 46 L 33 46 L 33 36 A 1.0001 1.0001 0 0 0 31.984375 34.986328 A 1.0001 1.0001 0 0 0 31 36 L 31 46 L 27.962891 46 C 27.532891 46.754 26.980937 47.427 26.335938 48 L 31.832031 48 A 1.0001 1.0001 0 0 0 32.158203 48 L 41 48 C 41.389 48 41.74225 47.775828 41.90625 47.423828 L 48.886719 32.464844 C 49.101471 32.135648 50 30.667399 50 29 C 50 25.662 46.812 17 32.25 17 z M 32.25 19 C 45.171 19 48 26.219 48 29 C 48 29.493091 47.849559 29.976944 47.683594 30.396484 C 46.823489 29.746787 45.51887 29 44 29 C 42.291 29 40.834 29.946766 40 30.634766 C 39.166 29.946766 37.709 29 36 29 C 34.283 29 32.831 29.951625 32 30.640625 C 31.169 29.951625 29.717 29 28 29 C 26.291 29 24.834 29.946766 24 30.634766 C 23.166 29.946766 21.709 29 20 29 C 18.486161 29 17.184512 29.740483 16.324219 30.388672 C 16.15414 29.954611 16 29.453404 16 28.951172 C 16 26.849172 18.758 19 32.25 19 z M 5.8984375 34 C 2.6521566 34 0 36.652157 0 39.898438 L 0 40.832031 A 1.0001 1.0001 0 0 0 0 41.158203 L 0 42.101562 C 0 45.347843 2.6521566 48 5.8984375 48 L 21.101562 48 C 24.347843 48 27 45.347844 27 42.101562 L 27 41.167969 A 1.0001 1.0001 0 0 0 27 40.841797 L 27 39.898438 C 27 36.652157 24.347843 34 21.101562 34 L 5.8984375 34 z M 5.8984375 36 L 21.101562 36 C 23.267283 36 25 37.732717 25 39.898438 L 25 40 L 2 40 L 2 39.898438 C 2 37.732717 3.7327184 36 5.8984375 36 z M 2 42 L 25 42 L 25 42.101562 C 25 44.267283 23.267282 46 21.101562 46 L 5.8984375 46 C 3.7327184 46 2 44.267283 2 42.101562 L 2 42 z"/></svg>