<svg xmlns="http://www.w3.org/2000/svg"  viewBox="0 0 50 50" width="1000px" height="1000px"><path d="M 25 2 C 23.980469 2 23.132813 2.523438 22.625 3.15625 C 22.117188 3.789063 21.847656 4.5 21.59375 5.125 C 21.339844 5.75 21.089844 6.292969 20.84375 6.59375 C 20.597656 6.894531 20.464844 7 20 7 C 19.773438 7 19.09375 6.8125 18.375 6.5625 C 17.65625 6.3125 16.882813 6 16 6 C 15.453125 6 14.820313 6.136719 14.1875 6.59375 C 13.554688 7.050781 13 7.925781 13 9 C 13 10.222656 13.421875 11.1875 13.71875 12.09375 C 6.734375 16.109375 2 23.46875 2 31 C 2 36.558594 4.671875 40.910156 8.875 43.75 C 13.078125 46.589844 18.773438 48 25 48 C 31.226563 48 36.921875 46.589844 41.125 43.75 C 45.328125 40.910156 48 36.558594 48 31 C 48 23.753906 43.613281 16.640625 37.0625 12.53125 C 37.082031 12.367188 37.097656 12.195313 37.125 12.03125 C 37.253906 11.269531 37.476563 10.546875 37.65625 9.875 C 37.835938 9.203125 38 8.632813 38 8 C 38 6.273438 36.566406 5 35 5 C 33.832031 5 32.980469 5.628906 32.09375 6.125 C 31.207031 6.621094 30.320313 7 30 7 C 29.546875 7 29.402344 6.898438 29.15625 6.59375 C 28.910156 6.289063 28.664063 5.75 28.40625 5.125 C 28.148438 4.5 27.878906 3.789063 27.375 3.15625 C 26.871094 2.523438 26.011719 2 25 2 Z M 25 4 C 25.433594 4 25.570313 4.101563 25.8125 4.40625 C 26.054688 4.710938 26.300781 5.25 26.5625 5.875 C 26.824219 6.5 27.078125 7.210938 27.59375 7.84375 C 28.109375 8.476563 28.980469 9 30 9 C 31.199219 9 32.164063 8.378906 33.0625 7.875 C 33.960938 7.371094 34.832031 7 35 7 C 35.476563 7 36 7.390625 36 8 C 36 8.15625 35.894531 8.71875 35.71875 9.375 C 35.542969 10.03125 35.308594 10.835938 35.15625 11.71875 C 34.851563 13.488281 34.855469 15.644531 36.1875 17.5625 C 36.359375 17.917969 36.722656 18.136719 37.117188 18.125 C 37.511719 18.113281 37.863281 17.871094 38.011719 17.507813 C 38.164063 17.140625 38.085938 16.722656 37.8125 16.4375 C 37.496094 15.984375 37.285156 15.496094 37.15625 15 C 42.511719 18.855469 46 24.992188 46 31 C 46 35.933594 43.757813 39.554688 40 42.09375 C 36.242188 44.632813 30.925781 46 25 46 C 19.074219 46 13.757813 44.632813 10 42.09375 C 6.242188 39.554688 4 35.933594 4 31 C 4 24.554688 8.007813 17.953125 14.03125 14.1875 C 13.976563 14.828125 13.746094 15.539063 13.15625 16.4375 C 12.84375 16.902344 12.972656 17.53125 13.4375 17.84375 C 13.902344 18.15625 14.53125 18.027344 14.84375 17.5625 C 16.15625 15.5625 16.175781 13.730469 15.84375 12.3125 C 15.511719 10.894531 15 9.847656 15 9 C 15 8.519531 15.128906 8.371094 15.34375 8.21875 C 15.558594 8.066406 15.933594 8 16 8 C 16.339844 8 17.011719 8.1875 17.71875 8.4375 C 18.425781 8.6875 19.152344 9 20 9 C 21.023438 9 21.894531 8.480469 22.40625 7.84375 C 22.917969 7.207031 23.179688 6.5 23.4375 5.875 C 23.695313 5.25 23.945313 4.710938 24.1875 4.40625 C 24.429688 4.101563 24.550781 4 25 4 Z M 24.90625 11.96875 C 24.863281 11.976563 24.820313 11.988281 24.78125 12 C 24.316406 12.105469 23.988281 12.523438 24 13 L 24 17 C 23.996094 17.359375 24.183594 17.695313 24.496094 17.878906 C 24.808594 18.058594 25.191406 18.058594 25.503906 17.878906 C 25.816406 17.695313 26.003906 17.359375 26 17 L 26 13 C 26.011719 12.710938 25.894531 12.433594 25.6875 12.238281 C 25.476563 12.039063 25.191406 11.941406 24.90625 11.96875 Z M 19.90625 12.96875 C 19.863281 12.976563 19.820313 12.988281 19.78125 13 C 19.316406 13.105469 18.988281 13.523438 19 14 C 19 17.617188 18.09375 19.59375 18.09375 19.59375 C 17.894531 19.925781 17.90625 20.339844 18.117188 20.660156 C 18.332031 20.980469 18.710938 21.152344 19.09375 21.097656 C 19.472656 21.042969 19.792969 20.773438 19.90625 20.40625 C 19.90625 20.40625 21 17.96875 21 14 C 21.011719 13.710938 20.894531 13.433594 20.6875 13.238281 C 20.476563 13.039063 20.191406 12.941406 19.90625 12.96875 Z M 30.90625 12.96875 C 30.863281 12.976563 30.820313 12.988281 30.78125 13 C 30.316406 13.105469 29.988281 13.523438 30 14 C 30 15.523438 30.238281 18.152344 32.125 21.5 C 32.402344 21.984375 33.015625 22.152344 33.5 21.875 C 33.984375 21.597656 34.152344 20.984375 33.875 20.5 C 32.164063 17.46875 32 15.335938 32 14 C 32.011719 13.710938 31.894531 13.433594 31.6875 13.238281 C 31.476563 13.039063 31.191406 12.941406 30.90625 12.96875 Z"/></svg>