<svg xmlns="http://www.w3.org/2000/svg"  viewBox="0 0 50 50" width="1000px" height="1000px"><path d="M 15 0 C 11.964844 0 9.375 2.21875 9.375 2.21875 C 8.941406 2.5625 8.875 3.195313 9.21875 3.625 C 9.5625 4.058594 10.195313 4.125 10.625 3.78125 C 10.625 3.78125 13.035156 2 15 2 C 17.554688 2 19.75 3.78125 19.75 3.78125 L 20 3.96875 L 20 8 L 19 8 C 18.96875 8 18.9375 8 18.90625 8 C 18.875 8 18.84375 8 18.8125 8 C 18.335938 8.089844 17.992188 8.511719 18 9 L 18 14 L 17 14 C 12.054688 14 8 18.054688 8 23 L 8 28.6875 C 7.941406 28.882813 7.941406 29.085938 8 29.28125 L 8 45 C 8 47.746094 10.253906 50 13 50 L 37 50 C 39.746094 50 42 47.746094 42 45 L 42 29.1875 C 42.027344 29.054688 42.027344 28.914063 42 28.78125 L 42 23 C 42 18.054688 37.945313 14 33 14 L 32 14 L 32 9 C 32 8.449219 31.550781 8 31 8 L 30 8 L 30 4 L 31 4 C 31.359375 4.003906 31.695313 3.816406 31.878906 3.503906 C 32.058594 3.191406 32.058594 2.808594 31.878906 2.496094 C 31.695313 2.183594 31.359375 1.996094 31 2 L 29.21875 2 C 29.117188 1.972656 29.011719 1.960938 28.90625 1.96875 C 28.875 1.976563 28.84375 1.988281 28.8125 2 L 21.21875 2 C 21.117188 1.972656 21.011719 1.960938 20.90625 1.96875 C 20.875 1.976563 20.84375 1.988281 20.8125 2 L 20.6875 2 C 20.234375 1.636719 18.101563 0 15 0 Z M 22 4 L 28 4 L 28 8 L 22 8 Z M 20 10 L 30 10 L 30 14 L 20 14 Z M 17 16 L 33 16 C 36.855469 16 40 19.144531 40 23 L 40 28 L 27.90625 28 C 27.960938 27.679688 28 27.335938 28 27 C 28 23.699219 25.300781 21 22 21 C 18.699219 21 16 23.699219 16 27 C 16 27.335938 16.039063 27.679688 16.09375 28 L 10 28 L 10 23 C 10 19.144531 13.144531 16 17 16 Z M 22 23 C 24.222656 23 26 24.777344 26 27 C 26 29.222656 24.222656 31 22 31 C 20.382813 31 19.007813 30.054688 18.375 28.6875 C 18.375 28.675781 18.375 28.667969 18.375 28.65625 C 18.367188 28.636719 18.351563 28.613281 18.34375 28.59375 C 18.332031 28.582031 18.324219 28.574219 18.3125 28.5625 C 18.308594 28.554688 18.316406 28.539063 18.3125 28.53125 C 18.300781 28.519531 18.292969 28.511719 18.28125 28.5 C 18.097656 28.039063 18 27.53125 18 27 C 18 24.777344 19.777344 23 22 23 Z M 10 30 L 16.8125 30 C 17.855469 31.785156 19.792969 33 22 33 C 24.207031 33 26.144531 31.785156 27.1875 30 L 40 30 L 40 45 C 40 46.65625 38.65625 48 37 48 L 13 48 C 11.34375 48 10 46.65625 10 45 Z M 31 33 C 28.800781 33 27 34.800781 27 37 C 27 39.199219 28.800781 41 31 41 C 33.199219 41 35 39.199219 35 37 C 35 34.800781 33.199219 33 31 33 Z M 31 35 C 32.117188 35 33 35.882813 33 37 C 33 38.117188 32.117188 39 31 39 C 29.882813 39 29 38.117188 29 37 C 29 35.882813 29.882813 35 31 35 Z M 23 40 C 21.355469 40 20 41.355469 20 43 C 20 44.644531 21.355469 46 23 46 C 24.644531 46 26 44.644531 26 43 C 26 41.355469 24.644531 40 23 40 Z M 23 42 C 23.5625 42 24 42.4375 24 43 C 24 43.5625 23.5625 44 23 44 C 22.4375 44 22 43.5625 22 43 C 22 42.4375 22.4375 42 23 42 Z"/></svg>