<svg xmlns="http://www.w3.org/2000/svg"  viewBox="0 0 50 50" width="1000px" height="1000px"><path d="M 34 0 C 29.570313 0 26 3.570313 26 8 C 26 9.820313 26.738281 11.492188 27.8125 12.875 L 12.875 27.8125 C 11.519531 26.75 9.890625 26 8 26 C 3.570313 26 0 29.570313 0 34 C 0 38.429688 3.570313 42 8 42 C 8 46.429688 11.570313 50 16 50 C 20.429688 50 24 46.429688 24 42 C 24 40.179688 23.261719 38.507813 22.1875 37.125 L 37.125 22.1875 C 38.480469 23.25 40.109375 24 42 24 C 46.429688 24 50 20.429688 50 16 C 50 11.570313 46.429688 8 42 8 C 42 3.570313 38.429688 0 34 0 Z M 34 2 C 37.371094 2 40 4.628906 40 8 C 40 8.234375 39.90625 8.527344 39.90625 9.09375 C 39.90625 9.644531 40.355469 10.09375 40.90625 10.09375 C 41.472656 10.09375 41.765625 10 42 10 C 45.371094 10 48 12.628906 48 16 C 48 19.371094 45.371094 22 42 22 C 40.265625 22 38.855469 21.324219 37.71875 20.1875 C 37.53125 19.992188 37.269531 19.882813 37 19.882813 C 36.730469 19.882813 36.46875 19.992188 36.28125 20.1875 L 20.1875 36.28125 C 19.992188 36.46875 19.882813 36.730469 19.882813 37 C 19.882813 37.269531 19.992188 37.53125 20.1875 37.71875 C 21.304688 38.835938 22 40.378906 22 42 C 22 45.371094 19.371094 48 16 48 C 12.628906 48 10 45.371094 10 42 C 10 41.765625 10.09375 41.472656 10.09375 40.90625 C 10.09375 40.355469 9.644531 39.90625 9.09375 39.90625 C 8.527344 39.90625 8.234375 40 8 40 C 4.628906 40 2 37.371094 2 34 C 2 30.628906 4.628906 28 8 28 C 9.734375 28 11.144531 28.675781 12.28125 29.8125 C 12.46875 30.007813 12.730469 30.117188 13 30.117188 C 13.269531 30.117188 13.53125 30.007813 13.71875 29.8125 L 29.8125 13.71875 C 30.007813 13.53125 30.117188 13.269531 30.117188 13 C 30.117188 12.730469 30.007813 12.46875 29.8125 12.28125 C 28.695313 11.164063 28 9.621094 28 8 C 28 4.628906 30.628906 2 34 2 Z"/></svg>