<svg xmlns="http://www.w3.org/2000/svg"  viewBox="0 0 50 50" width="1000px" height="1000px"><path d="M 8 3 L 8 15.101562 C 7.8477581 15.454054 5 22.080382 5 27.273438 L 5 47 L 37.205078 47 L 45 43.660156 L 45 25.273438 C 45 19.497487 41.355018 14.488779 41 14.007812 L 41 3 L 8 3 z M 10 5 L 39 5 L 39 14.117188 C 38.829857 14.604772 36 22.813012 36 30.273438 L 36 45 L 7 45 L 7 27.273438 C 7 22.753446 9.9199219 15.664064 9.9199219 15.664062 L 10 15.476562 L 10 5 z M 18.5 8 C 16.578812 8 15 9.5788117 15 11.5 L 15 12.5 L 15.205078 12.5 C 15.645351 13.930183 16.932695 15 18.5 15 L 29 15 C 30.567305 15 31.854649 13.930183 32.294922 12.5 L 32.5 12.5 L 32.5 11.5 C 32.5 9.5788117 30.921188 8 29 8 L 18.5 8 z M 18.5 10 L 29 10 C 29.840812 10 30.5 10.659188 30.5 11.5 C 30.5 12.340812 29.840812 13 29 13 L 18.5 13 C 17.659188 13 17 12.340812 17 11.5 C 17 10.659188 17.659188 10 18.5 10 z M 40.306641 16.658203 C 41.43007 18.641137 43 21.988676 43 25.273438 L 43 42.339844 L 38 44.482422 L 38 30.273438 C 38 25.247547 39.442624 19.60277 40.306641 16.658203 z M 18.494141 22 C 17.347832 22 16.447996 22.64289 15.886719 23.341797 C 15.325441 24.040703 15 24.761401 15 25.556641 C 15 26.195226 15.172771 26.932621 15.646484 27.642578 C 16.120197 28.352536 17.01611 29 18.150391 29 C 19.371433 29 20.224329 28.111445 20.580078 27.34375 C 20.935827 26.576055 21 25.900838 21 25.480469 C 21 25.235969 21.01917 24.509262 20.759766 23.738281 C 20.630062 23.352791 20.422139 22.932091 20.041016 22.582031 C 19.659892 22.231972 19.090989 22 18.494141 22 z M 24.310547 22 C 23.719901 22 23.159688 22.294061 22.826172 22.664062 C 22.492656 23.034066 22.327058 23.441632 22.216797 23.822266 C 21.996275 24.583534 22 25.300824 22 25.570312 C 22 26.054088 22.09999 26.685885 22.476562 27.423828 C 22.853133 28.161771 23.691695 29 24.878906 29 C 25.946655 29 26.820848 28.456761 27.3125 27.802734 C 27.804152 27.148708 28 26.433363 28 25.78125 C 28 24.910922 27.640866 24.071188 27.029297 23.341797 C 26.417728 22.612406 25.470341 22 24.310547 22 z M 18.494141 24 C 18.649793 24 18.647295 24.015967 18.689453 24.054688 C 18.731613 24.093408 18.80486 24.203318 18.863281 24.376953 C 18.980125 24.72422 19 25.235969 19 25.480469 C 19 25.5491 18.936876 26.134352 18.765625 26.503906 C 18.594374 26.873461 18.521349 27 18.150391 27 C 17.693671 27 17.514084 26.838246 17.310547 26.533203 C 17.10701 26.228161 17 25.744055 17 25.556641 C 17 25.523881 17.148043 24.966344 17.447266 24.59375 C 17.746488 24.221156 18.092449 24 18.494141 24 z M 24.310547 24 C 24.770753 24 25.168163 24.235844 25.496094 24.626953 C 25.824025 25.018062 26 25.569578 26 25.78125 C 26 25.956137 25.899488 26.351386 25.712891 26.599609 C 25.526293 26.847833 25.340158 27 24.878906 27 C 24.538117 27 24.438743 26.868229 24.257812 26.513672 C 24.076883 26.159115 24 25.576537 24 25.570312 C 24 25.349802 24.02244 24.780138 24.138672 24.378906 C 24.196782 24.17829 24.278719 24.037263 24.310547 24.001953 L 24.310547 24 z M 14.251953 28 C 13.321611 28 12.567891 28.682682 12.265625 29.388672 C 11.963359 30.094661 11.930132 30.865802 12.087891 31.611328 C 12.205894 32.170585 12.450528 32.70991 12.851562 33.164062 C 13.253006 33.618676 13.87 34 14.601562 34 C 15.181147 34 15.739717 33.561341 15.9375 33.28125 C 16.135283 33.001159 16.198182 32.87441 16.238281 32.833984 A 1.0001 1.0001 0 0 0 16.240234 32.832031 C 16.376829 32.693121 16.555877 32.539801 16.730469 32.251953 C 16.905014 31.964152 17 31.5725 17 31.212891 C 17 30.636781 16.792069 30.399825 16.634766 30.132812 C 16.477961 29.866649 16.310453 29.621115 16.185547 29.416016 L 16.183594 29.414062 C 16.018793 29.142464 15.83586 28.846127 15.548828 28.564453 C 15.261057 28.282053 14.795905 28 14.251953 28 z M 28.771484 29 C 27.844841 29 27.163893 29.643634 26.761719 30.300781 C 26.625286 30.523116 26.4652 30.76501 26.320312 31.029297 C 26.175142 31.294103 26 31.553439 26 32.064453 C 26 32.489156 26.194513 32.938532 26.365234 33.166016 C 26.535956 33.393499 26.608926 33.453762 26.664062 33.542969 A 1.0001 1.0001 0 0 0 26.664062 33.544922 C 26.797072 33.759057 26.960408 34.055704 27.242188 34.359375 C 27.523966 34.662999 28.018235 35 28.617188 35 C 29.419071 35 30.134592 34.479916 30.4375 33.957031 C 30.740408 33.434147 30.815305 32.943943 30.890625 32.626953 C 31.067796 31.882835 31.050356 31.110299 30.755859 30.398438 C 30.461363 29.686576 29.702392 29 28.771484 29 z M 21.285156 30 C 20.70669 30 19.994358 30.056439 19.439453 30.554688 C 18.884548 31.05294 18.646024 31.689785 18.328125 32.644531 C 18.059015 33.452933 17.52372 33.798154 16.773438 34.335938 C 16.398295 34.604828 15.974379 34.908027 15.613281 35.378906 C 15.252183 35.849785 15 36.506332 15 37.236328 C 15 38.169998 15.395638 39.032625 15.998047 39.732422 C 16.600455 40.432219 17.470137 41 18.523438 41 C 19.242417 41 19.81731 40.843329 20.244141 40.71875 C 20.670972 40.594171 20.935018 40.519531 21.191406 40.519531 C 21.462154 40.519531 21.624908 40.577722 21.998047 40.695312 C 22.371186 40.81291 22.918627 40.964844 23.638672 40.964844 C 24.827976 40.964844 25.790997 40.390144 26.314453 39.660156 C 26.837909 38.930168 27 38.120782 27 37.441406 C 27 36.161863 26.133879 35.364808 25.494141 34.699219 C 24.854402 34.033629 24.358529 33.461909 24.244141 32.894531 C 24.117299 32.267029 23.934361 31.597243 23.46875 31.005859 C 23.003139 30.414476 22.189539 30 21.285156 30 z M 14.199219 30.0625 C 14.266629 30.14086 14.357114 30.25949 14.474609 30.453125 A 1.0001 1.0001 0 0 0 14.476562 30.453125 C 14.640534 30.722626 14.806663 30.967496 14.912109 31.146484 C 14.944799 31.202 14.951618 31.233245 14.964844 31.273438 C 14.944247 31.2954 14.930117 31.312063 14.814453 31.429688 C 14.590643 31.656731 14.538154 31.778084 14.460938 31.910156 C 14.424188 31.886636 14.407208 31.902854 14.351562 31.839844 C 14.224505 31.695957 14.095055 31.435399 14.044922 31.197266 C 13.965682 30.822792 14.011036 30.391792 14.103516 30.175781 C 14.163126 30.036548 14.178109 30.068151 14.199219 30.0625 z M 28.771484 31 C 28.877577 31 28.822204 30.95422 28.908203 31.162109 C 28.994203 31.369998 29.033141 31.795181 28.945312 32.164062 C 28.857633 32.533074 28.769373 32.84551 28.707031 32.953125 C 28.691981 32.979105 28.683627 32.955324 28.685547 32.964844 C 28.614397 32.881224 28.503535 32.714757 28.365234 32.492188 L 28.363281 32.490234 C 28.205797 32.236222 28.092809 32.120999 28.033203 32.054688 C 28.03924 32.049473 28.047622 32.038749 28.074219 31.990234 C 28.163549 31.82729 28.311407 31.59901 28.466797 31.345703 A 1.0001 1.0001 0 0 0 28.46875 31.34375 C 28.678572 31.000988 28.772127 31 28.771484 31 z M 15 31.212891 C 15 31.234118 15.001396 31.224341 15.001953 31.232422 C 15.001956 31.232357 15.000026 31.236356 15 31.236328 C 14.999834 31.218854 15 31.236459 15 31.212891 z M 21.285156 32 C 21.699774 32 21.761547 32.07027 21.898438 32.244141 C 22.035327 32.418007 22.183045 32.795518 22.283203 33.291016 C 22.545289 34.587541 23.416334 35.425852 24.050781 36.085938 C 24.685542 36.746347 25 37.189949 25 37.441406 C 25 37.75903 24.891497 38.212379 24.689453 38.494141 C 24.487409 38.775902 24.269368 38.964844 23.638672 38.964844 C 23.167717 38.964844 22.93247 38.892014 22.599609 38.787109 C 22.266748 38.682206 21.799659 38.519531 21.191406 38.519531 C 20.569794 38.519531 20.080763 38.682907 19.683594 38.798828 C 19.286425 38.914749 18.966456 39 18.523438 39 C 18.227737 39 17.836013 38.802187 17.513672 38.427734 C 17.19133 38.053281 17 37.533659 17 37.236328 C 17 36.901324 17.06354 36.772637 17.199219 36.595703 C 17.334902 36.41877 17.58947 36.211796 17.939453 35.960938 C 18.639419 35.459221 19.742672 34.730942 20.226562 33.277344 C 20.514664 32.41209 20.745045 32.070216 20.775391 32.042969 C 20.805736 32.015722 20.794623 32 21.285156 32 z"/></svg>