<svg xmlns="http://www.w3.org/2000/svg"  viewBox="0 0 50 50" width="1000px" height="1000px"><path d="M 27.5625 10.96875 C 27.53125 10.976563 27.5 10.988281 27.46875 11 L 2 11 C 0.90625 11 0 11.90625 0 13 L 0 15.78125 C -0.0429688 15.945313 -0.0429688 16.117188 0 16.28125 L 0 30.375 C -0.105469 30.625 -0.105469 30.90625 0 31.15625 L 0 37 C 0 38.09375 0.90625 39 2 39 L 48 39 C 49.09375 39 50 38.09375 50 37 L 50 31.84375 C 50.027344 31.710938 50.027344 31.570313 50 31.4375 L 50 16.1875 C 50.015625 16.082031 50.015625 15.980469 50 15.875 L 50 13 C 50 11.90625 49.09375 11 48 11 L 27.65625 11 C 27.625 10.988281 27.59375 10.976563 27.5625 10.96875 Z M 2 13 L 17.25 13 C 15.183594 17.179688 12.828125 21.347656 12.03125 22.75 C 11.199219 21.234375 10.117188 20.003906 8.96875 19 C 8.832031 18.726563 8.578125 18.53125 8.28125 18.46875 C 5.804688 16.535156 3.238281 15.609375 2 15.25 Z M 19.46875 13 L 26.21875 13 C 24.476563 18.789063 24.105469 23.980469 24.03125 26.59375 C 22.765625 25.4375 21.277344 24.558594 19.625 24.03125 C 19.617188 24.027344 19.601563 24.035156 19.59375 24.03125 C 19.359375 23.746094 18.988281 23.613281 18.625 23.6875 C 18.570313 23.703125 18.519531 23.726563 18.46875 23.75 C 18.457031 23.746094 18.449219 23.753906 18.4375 23.75 C 17.007813 23.457031 15.464844 23.421875 13.8125 23.6875 C 14.691406 22.136719 17.351563 17.394531 19.46875 13 Z M 28.28125 13 L 34.28125 13 C 34.90625 17.875 35.953125 21.78125 36.5 23.59375 C 34.363281 23.035156 32.449219 22.957031 30.78125 23.375 C 30.660156 23.386719 30.546875 23.417969 30.4375 23.46875 C 30.199219 23.539063 29.976563 23.628906 29.75 23.71875 C 28.289063 24.304688 27.09375 25.269531 26.03125 26.375 C 26.117188 23.707031 26.515625 18.609375 28.28125 13 Z M 36.3125 13 L 48 13 L 48 15.125 C 45.667969 15.558594 43.414063 16.777344 41.46875 18.5625 C 41.285156 18.648438 41.132813 18.792969 41.03125 18.96875 C 39.996094 19.988281 39.082031 21.179688 38.28125 22.5 C 37.75 20.65625 36.878906 17.292969 36.3125 13 Z M 48 17.1875 L 48 28.90625 C 46.625 27.070313 44.6875 24.011719 43.09375 19.78125 C 44.625 18.476563 46.320313 17.578125 48 17.1875 Z M 2 17.3125 C 3.183594 17.707031 5.078125 18.453125 6.875 19.78125 C 5.621094 23.339844 3.496094 26.316406 2 28.125 Z M 8.5 21.21875 C 9.570313 22.3125 10.488281 23.660156 11.0625 25.3125 C 11.226563 25.839844 11.785156 26.132813 12.3125 25.96875 C 14.300781 25.363281 16.078125 25.234375 17.65625 25.46875 C 17.285156 27.476563 16.492188 30.242188 15.71875 32.625 C 15.003906 34.828125 14.457031 36.359375 14.21875 37 L 2 37 L 2 31.125 C 2.726563 30.410156 6.363281 26.691406 8.5 21.21875 Z M 41.53125 21.3125 C 44.117188 27.777344 47.328125 31.375 48 32.09375 L 48 37 L 35.84375 37 C 35.730469 36.757813 35.585938 36.433594 35.40625 36.03125 C 35.039063 35.203125 34.542969 34.066406 34.0625 32.78125 C 33.199219 30.472656 32.3125 27.652344 31.96875 25.15625 C 33.523438 24.875 35.363281 25.058594 37.65625 25.9375 C 38.148438 26.113281 38.691406 25.882813 38.90625 25.40625 C 39.597656 23.859375 40.503906 22.484375 41.53125 21.3125 Z M 30.03125 25.8125 C 30.441406 28.457031 31.335938 31.226563 32.1875 33.5 C 32.6875 34.832031 33.179688 35.984375 33.5625 36.84375 C 33.589844 36.90625 33.597656 36.941406 33.625 37 L 16.34375 37 C 16.675781 36.078125 17.113281 34.820313 17.625 33.25 C 18.394531 30.886719 19.175781 28.167969 19.59375 25.96875 C 21.414063 26.675781 22.933594 27.953125 24.1875 29.625 C 24.375 29.886719 24.679688 30.042969 25 30.042969 C 25.320313 30.042969 25.625 29.886719 25.8125 29.625 C 27.039063 27.960938 28.394531 26.601563 30.03125 25.8125 Z"/></svg>