<svg fill="#000000" xmlns="http://www.w3.org/2000/svg"  viewBox="0 0 50 50" width="1000px" height="1000px"><path d="M 25 5 C 18.714844 5 12.523438 6.726563 7.84375 9.96875 C 5.078125 11.886719 2.867188 14.378906 1.5 17.3125 C 1.496094 17.324219 1.472656 17.332031 1.46875 17.34375 C 1.414063 17.429688 1.371094 17.523438 1.34375 17.625 C 0.488281 19.570313 0 21.691406 0 24 C 0 29.953125 3.164063 34.789063 7.84375 38.03125 C 12.523438 41.273438 18.714844 43 25 43 C 31.28125 43 37.476563 41.292969 42.15625 38.0625 C 46.601563 34.996094 49.671875 30.488281 49.96875 24.90625 C 49.972656 24.84375 49.964844 24.78125 49.96875 24.71875 C 49.972656 24.585938 49.996094 24.445313 50 24.3125 C 50 24.300781 50 24.292969 50 24.28125 C 50 24.1875 50 24.09375 50 24 C 50 18.046875 46.835938 13.210938 42.15625 9.96875 C 37.476563 6.726563 31.285156 5 25 5 Z M 25 7 C 30.914063 7 36.726563 8.664063 41 11.625 C 45.273438 14.585938 48 18.75 48 24 C 48 24.085938 48 24.164063 48 24.25 C 48 24.28125 48 24.3125 48 24.34375 C 48 24.363281 48 24.386719 48 24.40625 C 47.996094 24.597656 47.980469 24.78125 47.96875 24.96875 C 47.941406 25.09375 47.890625 25.171875 47.84375 25.25 C 47.753906 25.410156 47.535156 25.652344 47.0625 26.03125 C 46.792969 26.25 46.429688 26.308594 45.78125 26.4375 C 45.132813 26.566406 44.257813 26.765625 43.34375 27.375 C 42.15625 28.144531 41.664063 29.085938 41.34375 29.625 C 41.023438 30.164063 41.058594 30.257813 40.3125 30.40625 L 40.28125 30.40625 C 38.15625 30.847656 36.355469 30.222656 34.46875 30.75 C 34.457031 30.753906 34.449219 30.746094 34.4375 30.75 C 32.515625 31.246094 31.417969 32.402344 30.21875 32.625 L 30.1875 32.625 C 29.3125 32.816406 28.632813 32.589844 27.8125 32.25 C 26.992188 31.910156 26.089844 31.40625 24.90625 31.40625 C 23.800781 31.40625 22.871094 31.894531 21.84375 32.28125 C 20.816406 32.667969 19.75 32.984375 18.875 32.90625 C 17.707031 32.824219 16.296875 32.167969 15.0625 31.4375 C 13.828125 30.707031 12.90625 29.941406 12 29.5625 L 11.9375 29.5625 C 10.785156 29.128906 9.804688 29.449219 9.0625 29.5625 C 8.320313 29.675781 7.828125 29.722656 7.0625 29.1875 C 6.039063 28.476563 5.601563 27.851563 5.125 27.1875 C 4.648438 26.523438 4.058594 25.730469 2.96875 25.28125 L 2.9375 25.25 C 2.800781 25.199219 2.714844 25.144531 2.59375 24.875 C 2.472656 24.605469 2.390625 24.15625 2.375 23.53125 C 2.34375 22.300781 2.605469 20.480469 3.21875 18.28125 C 3.226563 18.246094 3.242188 18.222656 3.25 18.1875 C 4.449219 15.589844 6.453125 13.390625 9 11.625 C 13.273438 8.664063 19.085938 7 25 7 Z M 20.46875 8 C 19.917969 8.042969 19.503906 8.527344 19.546875 9.078125 C 19.589844 9.628906 20.074219 10.042969 20.625 10 L 24.125 10.59375 C 24.484375 10.671875 24.855469 10.546875 25.09375 10.269531 C 25.335938 9.988281 25.402344 9.601563 25.273438 9.261719 C 25.140625 8.917969 24.832031 8.671875 24.46875 8.625 L 20.96875 8 C 20.863281 7.984375 20.761719 7.984375 20.65625 8 C 20.625 8 20.59375 8 20.5625 8 C 20.53125 8 20.5 8 20.46875 8 Z M 33.65625 9.1875 C 33.570313 9.199219 33.488281 9.21875 33.40625 9.25 L 30.28125 10.25 C 29.753906 10.421875 29.46875 10.988281 29.640625 11.515625 C 29.8125 12.042969 30.378906 12.328125 30.90625 12.15625 L 34 11.15625 C 34.523438 11.042969 34.867188 10.535156 34.773438 10.007813 C 34.679688 9.476563 34.1875 9.117188 33.65625 9.1875 Z M 14.46875 9.78125 C 14.113281 9.820313 13.804688 10.050781 13.664063 10.378906 C 13.519531 10.707031 13.566406 11.089844 13.78125 11.375 L 15.375 13.65625 C 15.6875 14.113281 16.308594 14.234375 16.765625 13.921875 C 17.222656 13.609375 17.34375 12.988281 17.03125 12.53125 L 15.40625 10.21875 C 15.199219 9.910156 14.839844 9.742188 14.46875 9.78125 Z M 25 13 C 22.621094 13 20.453125 13.597656 18.8125 14.625 C 17.171875 15.652344 16 17.1875 16 19 C 16 20.8125 17.171875 22.347656 18.8125 23.375 C 20.453125 24.402344 22.621094 25 25 25 C 27.378906 25 29.546875 24.402344 31.1875 23.375 C 32.828125 22.347656 34 20.8125 34 19 C 34 17.1875 32.828125 15.652344 31.1875 14.625 C 29.546875 13.597656 27.378906 13 25 13 Z M 9.75 13.6875 C 9.589844 13.714844 9.441406 13.777344 9.3125 13.875 L 6.625 15.78125 C 6.304688 15.976563 6.117188 16.332031 6.144531 16.707031 C 6.167969 17.082031 6.402344 17.410156 6.75 17.558594 C 7.09375 17.707031 7.492188 17.648438 7.78125 17.40625 L 10.46875 15.53125 C 10.863281 15.285156 11.035156 14.800781 10.886719 14.363281 C 10.738281 13.921875 10.304688 13.644531 9.84375 13.6875 C 9.8125 13.6875 9.78125 13.6875 9.75 13.6875 Z M 39.03125 13.96875 C 38.988281 13.976563 38.945313 13.988281 38.90625 14 C 38.613281 14.054688 38.359375 14.234375 38.214844 14.496094 C 38.070313 14.753906 38.050781 15.066406 38.15625 15.34375 L 39.46875 18.75 C 39.667969 19.269531 40.246094 19.527344 40.765625 19.328125 C 41.285156 19.128906 41.542969 18.550781 41.34375 18.03125 L 40.03125 14.65625 C 39.902344 14.261719 39.539063 13.988281 39.125 13.96875 C 39.09375 13.96875 39.0625 13.96875 39.03125 13.96875 Z M 25 15 C 27.039063 15 28.871094 15.527344 30.125 16.3125 C 31.378906 17.097656 32 18.050781 32 19 C 32 19.949219 31.378906 20.902344 30.125 21.6875 C 28.871094 22.472656 27.039063 23 25 23 C 22.960938 23 21.128906 22.472656 19.875 21.6875 C 18.621094 20.902344 18 19.949219 18 19 C 18 18.050781 18.621094 17.097656 19.875 16.3125 C 21.128906 15.527344 22.960938 15 25 15 Z M 7.90625 21.40625 C 7.457031 21.496094 7.125 21.878906 7.105469 22.339844 C 7.082031 22.796875 7.375 23.210938 7.8125 23.34375 L 11.125 24.34375 C 11.480469 24.492188 11.886719 24.425781 12.175781 24.171875 C 12.464844 23.917969 12.582031 23.523438 12.476563 23.152344 C 12.371094 22.78125 12.066406 22.503906 11.6875 22.4375 L 8.375 21.4375 C 8.222656 21.390625 8.0625 21.378906 7.90625 21.40625 Z M 35.40625 21.78125 C 34.929688 21.859375 34.574219 22.269531 34.566406 22.753906 C 34.558594 23.238281 34.898438 23.65625 35.375 23.75 L 38.6875 24.84375 C 39.214844 25.015625 39.78125 24.730469 39.953125 24.203125 C 40.125 23.675781 39.839844 23.109375 39.3125 22.9375 L 36.03125 21.84375 C 35.929688 21.804688 35.824219 21.785156 35.71875 21.78125 C 35.613281 21.765625 35.511719 21.765625 35.40625 21.78125 Z M 16.0625 25.5 C 15.644531 25.5625 15.3125 25.878906 15.226563 26.289063 C 15.144531 26.703125 15.328125 27.125 15.6875 27.34375 L 18.96875 29.34375 C 19.269531 29.566406 19.671875 29.605469 20.007813 29.4375 C 20.347656 29.269531 20.5625 28.929688 20.566406 28.554688 C 20.570313 28.179688 20.363281 27.832031 20.03125 27.65625 L 16.71875 25.65625 C 16.523438 25.53125 16.292969 25.472656 16.0625 25.5 Z M 30.75 26.875 C 30.695313 26.882813 30.644531 26.890625 30.59375 26.90625 C 30.46875 26.9375 30.355469 26.988281 30.25 27.0625 L 27.34375 28.96875 C 26.996094 29.140625 26.78125 29.496094 26.789063 29.882813 C 26.792969 30.269531 27.023438 30.617188 27.378906 30.777344 C 27.730469 30.9375 28.144531 30.875 28.4375 30.625 L 31.34375 28.75 C 31.769531 28.523438 31.972656 28.023438 31.828125 27.566406 C 31.679688 27.105469 31.226563 26.816406 30.75 26.875 Z M 2.375 27.1875 C 2.863281 27.429688 3.070313 27.746094 3.5 28.34375 C 3.972656 29.003906 4.660156 29.925781 5.9375 30.8125 C 7.171875 31.675781 8.433594 31.667969 9.34375 31.53125 C 10.238281 31.394531 10.777344 31.28125 11.21875 31.4375 C 11.222656 31.4375 11.246094 31.4375 11.25 31.4375 C 11.554688 31.570313 12.730469 32.398438 14.0625 33.1875 C 15.402344 33.980469 16.984375 34.785156 18.71875 34.90625 C 20.140625 35.03125 21.433594 34.570313 22.53125 34.15625 C 23.628906 33.742188 24.609375 33.40625 24.90625 33.40625 C 25.421875 33.40625 26.101563 33.738281 27.03125 34.125 C 27.953125 34.507813 29.183594 34.859375 30.59375 34.5625 C 30.597656 34.554688 30.617188 34.5625 30.625 34.5625 C 32.589844 34.179688 33.699219 32.964844 34.9375 32.65625 L 34.96875 32.65625 C 35.867188 32.398438 38.039063 32.917969 40.6875 32.375 C 40.699219 32.371094 40.707031 32.378906 40.71875 32.375 C 41.953125 32.117188 42.6875 31.285156 43.0625 30.65625 C 43.441406 30.019531 43.625 29.5625 44.4375 29.03125 L 44.46875 29.03125 C 45.054688 28.640625 45.5625 28.527344 46.1875 28.40625 C 46.554688 28.335938 46.976563 28.253906 47.40625 28.09375 C 46.382813 31.480469 44.097656 34.269531 41 36.40625 C 36.730469 39.351563 30.917969 41 25 41 C 19.085938 41 13.273438 39.335938 9 36.375 C 5.632813 34.042969 3.246094 30.957031 2.375 27.1875 Z"/></svg>