<svg xmlns="http://www.w3.org/2000/svg"  viewBox="0 0 50 50" width="1000px" height="1000px"><path d="M 14 2 A 1.0001 1.0001 0 1 0 14 4 L 16 4 L 16 15.96875 C 14.446048 13.452753 12.554687 12.167969 12.554688 12.167969 A 1.0001 1.0001 0 0 0 11.990234 11.992188 A 1.0001 1.0001 0 0 0 11.445312 13.832031 C 11.445312 13.832031 15.327642 16.582422 15.824219 22 L 14 22 A 1.0001 1.0001 0 1 0 14 24 L 16 24 L 16 27 L 14 27 A 1.0001 1.0001 0 1 0 14 29 L 16 29 L 16 32 L 14 32 A 1.0001 1.0001 0 1 0 14 34 L 16 34 L 16 38 C 16 38.818602 16.20119 39.596674 16.554688 40.277344 C 17.426111 41.955712 18 43.700956 18 45.482422 L 18 47 A 1.0001 1.0001 0 0 0 19 48 L 29 48 A 1.0001 1.0001 0 0 0 30 47 L 30 45.482422 C 30 43.702063 30.573891 41.955712 31.445312 40.277344 C 31.798369 39.596271 32 38.818602 32 38 L 32 34 L 34 34 A 1.0001 1.0001 0 1 0 34 32 L 32 32 L 32 29 L 34 29 A 1.0001 1.0001 0 1 0 34 27 L 32 27 L 32 24 L 34 24 A 1.0001 1.0001 0 1 0 34 22 L 32.175781 22 C 32.672358 16.582422 36.554687 13.832031 36.554688 13.832031 A 1.0001 1.0001 0 0 0 35.980469 11.992188 A 1.0001 1.0001 0 0 0 35.445312 12.167969 C 35.445312 12.167969 33.553952 13.452753 32 15.96875 L 32 4 L 34 4 A 1.0001 1.0001 0 1 0 34 2 L 14 2 z M 18 4 L 30 4 L 30 23 L 30 24 L 30 27.832031 A 1.0001 1.0001 0 0 0 30 28.158203 L 30 32.832031 A 1.0001 1.0001 0 0 0 30 33.158203 L 30 38 C 30 38.493398 29.880866 38.950495 29.669922 39.357422 C 28.703772 41.218634 28 43.275411 28 45.482422 L 28 46 L 20 46 L 20 45.482422 C 20 43.273888 19.296654 41.217101 18.330078 39.355469 C 18.119575 38.950139 18 38.493398 18 38 L 18 33.167969 A 1.0001 1.0001 0 0 0 18 32.841797 L 18 28.167969 A 1.0001 1.0001 0 0 0 18 27.841797 L 18 4 z M 20.984375 12.986328 A 1.0001 1.0001 0 0 0 20 14 L 20 17.832031 A 1.0001 1.0001 0 0 0 20 18.158203 L 20 22.832031 A 1.0001 1.0001 0 0 0 20 23.158203 L 20 27.832031 A 1.0001 1.0001 0 0 0 20 28.158203 L 20 32.832031 A 1.0001 1.0001 0 0 0 20 33.158203 L 20 37 A 1.0001 1.0001 0 1 0 22 37 L 22 34 L 23 34 A 1.0001 1.0001 0 1 0 25 34 L 26 34 L 26 37 A 1.0001 1.0001 0 1 0 28 37 L 28 33.167969 A 1.0001 1.0001 0 0 0 28 32.841797 L 28 28.167969 A 1.0001 1.0001 0 0 0 28 27.841797 L 28 23.167969 A 1.0001 1.0001 0 0 0 28 22.841797 L 28 18.167969 A 1.0001 1.0001 0 0 0 28 17.841797 L 28 14 A 1.0001 1.0001 0 0 0 26.984375 12.986328 A 1.0001 1.0001 0 0 0 26 14 L 26 17 L 24.154297 17 A 1.0001 1.0001 0 0 0 23.984375 16.986328 A 1.0001 1.0001 0 0 0 23.839844 17 L 22 17 L 22 14 A 1.0001 1.0001 0 0 0 20.984375 12.986328 z M 22 19 L 23 19 A 1.0001 1.0001 0 1 0 25 19 L 26 19 L 26 22 L 24.154297 22 A 1.0001 1.0001 0 0 0 23.984375 21.986328 A 1.0001 1.0001 0 0 0 23.839844 22 L 22 22 L 22 19 z M 22 24 L 23 24 A 1.0001 1.0001 0 1 0 25 24 L 26 24 L 26 27 L 24.154297 27 A 1.0001 1.0001 0 0 0 23.984375 26.986328 A 1.0001 1.0001 0 0 0 23.839844 27 L 22 27 L 22 24 z M 22 29 L 23 29 A 1.0001 1.0001 0 1 0 25 29 L 26 29 L 26 32 L 24.154297 32 A 1.0001 1.0001 0 0 0 23.984375 31.986328 A 1.0001 1.0001 0 0 0 23.839844 32 L 22 32 L 22 29 z"/></svg>