<svg xmlns="http://www.w3.org/2000/svg"  viewBox="0 0 50 50" width="1000px" height="1000px"><path d="M 27.96875 1 C 26.082031 1.035156 24.644531 2.246094 23.125 3.5625 C 21.605469 4.878906 19.972656 6.414063 17.875 7.53125 C 14.085938 9.550781 10.859375 12.980469 8.71875 17.125 C 8.417969 17.019531 8.058594 16.816406 7.84375 16.46875 C 7.625 16.132813 7.230469 15.957031 6.835938 16.027344 C 6.441406 16.09375 6.125 16.390625 6.03125 16.78125 C 5.714844 18.113281 6.035156 19.363281 6.34375 20.34375 C 6.496094 20.835938 6.65625 21.261719 6.75 21.5625 C 6.84375 21.863281 6.769531 22.125 6.875 21.75 C 6.316406 23.753906 6 25.851563 6 28 C 6 28.914063 6.085938 29.804688 6.1875 30.6875 C 5.925781 30.8125 5.527344 30.964844 4.9375 31 C 4.613281 31.015625 4.320313 31.1875 4.144531 31.460938 C 3.972656 31.734375 3.941406 32.074219 4.0625 32.375 C 4.511719 33.46875 5.371094 34.054688 6.03125 34.59375 C 6.691406 35.132813 7.257813 35.621094 7.6875 36.65625 C 10.65625 43.902344 17.273438 49 25 49 C 30.109375 49 34.78125 46.804688 38.15625 43.15625 C 38.8125 42.445313 39.535156 42.039063 40.34375 41.625 C 41.152344 41.210938 42.074219 40.800781 42.90625 40 C 43.183594 39.742188 43.292969 39.351563 43.1875 38.984375 C 43.082031 38.621094 42.78125 38.347656 42.40625 38.28125 C 41.945313 38.195313 41.8125 37.984375 41.75 37.8125 C 43.160156 34.875 44 31.550781 44 28 C 44 27.003906 43.941406 25.980469 43.8125 24.96875 L 43.84375 24.96875 C 43.730469 23.332031 44.058594 22.261719 44.4375 20.9375 C 44.816406 19.613281 45.226563 18.070313 45 15.90625 C 44.964844 15.453125 44.628906 15.078125 44.179688 14.996094 C 43.730469 14.914063 43.285156 15.148438 43.09375 15.5625 C 42.75 16.28125 42.1875 16.71875 41.75 16.875 C 41.546875 16.949219 41.40625 16.945313 41.34375 16.9375 C 39.335938 12.945313 36.320313 9.632813 32.65625 7.78125 C 30.359375 6.621094 29.503906 5.5625 29.15625 4.6875 C 28.808594 3.8125 28.945313 3 29 2.0625 C 29.019531 1.78125 28.914063 1.503906 28.71875 1.304688 C 28.523438 1.101563 28.25 0.992188 27.96875 1 Z M 26.9375 3.375 C 26.945313 3.988281 27.019531 4.699219 27.3125 5.4375 C 27.878906 6.855469 29.183594 8.265625 31.75 9.5625 C 34.988281 11.199219 37.78125 14.242188 39.625 17.96875 C 39.890625 18.511719 40.4375 18.816406 40.9375 18.90625 C 41.4375 18.996094 41.925781 18.921875 42.40625 18.75 C 42.59375 18.683594 42.785156 18.539063 42.96875 18.4375 C 42.871094 19.117188 42.714844 19.730469 42.53125 20.375 C 42.160156 21.667969 41.707031 23.136719 41.84375 25.125 C 41.84375 25.144531 41.84375 25.167969 41.84375 25.1875 C 41.964844 26.105469 42 27.039063 42 28 C 42 31.402344 41.207031 34.585938 39.8125 37.34375 C 39.707031 37.546875 39.675781 37.777344 39.71875 38 C 39.71875 38 39.910156 38.640625 40.40625 39.25 C 40.078125 39.4375 39.828125 39.644531 39.4375 39.84375 C 38.589844 40.277344 37.585938 40.808594 36.6875 41.78125 C 33.664063 45.050781 29.535156 47 25 47 C 18.152344 47 12.230469 42.496094 9.53125 35.90625 C 9.53125 35.894531 9.53125 35.886719 9.53125 35.875 C 8.9375 34.453125 8.007813 33.621094 7.28125 33.03125 C 7.035156 32.828125 6.996094 32.722656 6.8125 32.5625 C 6.894531 32.527344 7.050781 32.503906 7.125 32.46875 C 7.601563 32.230469 7.9375 31.9375 7.9375 31.9375 C 8.15625 31.714844 8.261719 31.402344 8.21875 31.09375 C 8.074219 30.09375 8 29.050781 8 28 C 8 26.039063 8.269531 24.117188 8.78125 22.28125 C 8.972656 21.601563 8.777344 21.34375 8.65625 20.96875 C 8.535156 20.59375 8.386719 20.179688 8.25 19.75 C 8.175781 19.515625 8.242188 19.300781 8.1875 19.0625 C 8.722656 19.214844 9.21875 19.25 9.21875 19.25 C 9.621094 19.257813 9.992188 19.023438 10.15625 18.65625 C 12.113281 14.554688 15.242188 11.183594 18.8125 9.28125 C 21.191406 8.011719 22.960938 6.371094 24.4375 5.09375 C 25.417969 4.246094 26.207031 3.710938 26.9375 3.375 Z M 25 11 C 16.648438 11 10 18.691406 10 28 C 10 37.308594 16.648438 45 25 45 C 33.351563 45 40 37.308594 40 28 C 40 18.691406 33.351563 11 25 11 Z M 25 13 C 32.113281 13 38 19.636719 38 28 C 38 36.363281 32.113281 43 25 43 C 17.886719 43 12 36.363281 12 28 C 12 19.636719 17.886719 13 25 13 Z M 24.5625 14.90625 C 24.011719 14.90625 23.5625 15.355469 23.5625 15.90625 C 23.5625 16.457031 24.011719 16.90625 24.5625 16.90625 C 25.113281 16.90625 25.5625 16.457031 25.5625 15.90625 C 25.5625 15.355469 25.113281 14.90625 24.5625 14.90625 Z M 27.5625 17.90625 C 27.011719 17.90625 26.5625 18.355469 26.5625 18.90625 C 26.5625 19.457031 27.011719 19.90625 27.5625 19.90625 C 28.113281 19.90625 28.5625 19.457031 28.5625 18.90625 C 28.5625 18.355469 28.113281 17.90625 27.5625 17.90625 Z M 31.5625 17.90625 C 31.011719 17.90625 30.5625 18.355469 30.5625 18.90625 C 30.5625 19.457031 31.011719 19.90625 31.5625 19.90625 C 32.113281 19.90625 32.5625 19.457031 32.5625 18.90625 C 32.5625 18.355469 32.113281 17.90625 31.5625 17.90625 Z M 17.5625 20.90625 C 17.011719 20.90625 16.5625 21.355469 16.5625 21.90625 C 16.5625 22.457031 17.011719 22.90625 17.5625 22.90625 C 18.113281 22.90625 18.5625 22.457031 18.5625 21.90625 C 18.5625 21.355469 18.113281 20.90625 17.5625 20.90625 Z M 30.5625 20.90625 C 30.011719 20.90625 29.5625 21.355469 29.5625 21.90625 C 29.5625 22.457031 30.011719 22.90625 30.5625 22.90625 C 31.113281 22.90625 31.5625 22.457031 31.5625 21.90625 C 31.5625 21.355469 31.113281 20.90625 30.5625 20.90625 Z M 20.5625 23.90625 C 20.011719 23.90625 19.5625 24.355469 19.5625 24.90625 C 19.5625 25.457031 20.011719 25.90625 20.5625 25.90625 C 21.113281 25.90625 21.5625 25.457031 21.5625 24.90625 C 21.5625 24.355469 21.113281 23.90625 20.5625 23.90625 Z M 34.5625 23.90625 C 34.011719 23.90625 33.5625 24.355469 33.5625 24.90625 C 33.5625 25.457031 34.011719 25.90625 34.5625 25.90625 C 35.113281 25.90625 35.5625 25.457031 35.5625 24.90625 C 35.5625 24.355469 35.113281 23.90625 34.5625 23.90625 Z M 25.5625 25.90625 C 25.011719 25.90625 24.5625 26.355469 24.5625 26.90625 C 24.5625 27.457031 25.011719 27.90625 25.5625 27.90625 C 26.113281 27.90625 26.5625 27.457031 26.5625 26.90625 C 26.5625 26.355469 26.113281 25.90625 25.5625 25.90625 Z M 14.5625 26.90625 C 14.011719 26.90625 13.5625 27.355469 13.5625 27.90625 C 13.5625 28.457031 14.011719 28.90625 14.5625 28.90625 C 15.113281 28.90625 15.5625 28.457031 15.5625 27.90625 C 15.5625 27.355469 15.113281 26.90625 14.5625 26.90625 Z M 31.5625 26.90625 C 31.011719 26.90625 30.5625 27.355469 30.5625 27.90625 C 30.5625 28.457031 31.011719 28.90625 31.5625 28.90625 C 32.113281 28.90625 32.5625 28.457031 32.5625 27.90625 C 32.5625 27.355469 32.113281 26.90625 31.5625 26.90625 Z M 23.5625 29.90625 C 23.011719 29.90625 22.5625 30.355469 22.5625 30.90625 C 22.5625 31.457031 23.011719 31.90625 23.5625 31.90625 C 24.113281 31.90625 24.5625 31.457031 24.5625 30.90625 C 24.5625 30.355469 24.113281 29.90625 23.5625 29.90625 Z M 18.5625 30.90625 C 18.011719 30.90625 17.5625 31.355469 17.5625 31.90625 C 17.5625 32.457031 18.011719 32.90625 18.5625 32.90625 C 19.113281 32.90625 19.5625 32.457031 19.5625 31.90625 C 19.5625 31.355469 19.113281 30.90625 18.5625 30.90625 Z M 33.5625 30.90625 C 33.011719 30.90625 32.5625 31.355469 32.5625 31.90625 C 32.5625 32.457031 33.011719 32.90625 33.5625 32.90625 C 34.113281 32.90625 34.5625 32.457031 34.5625 31.90625 C 34.5625 31.355469 34.113281 30.90625 33.5625 30.90625 Z M 30.5625 33.90625 C 30.011719 33.90625 29.5625 34.355469 29.5625 34.90625 C 29.5625 35.457031 30.011719 35.90625 30.5625 35.90625 C 31.113281 35.90625 31.5625 35.457031 31.5625 34.90625 C 31.5625 34.355469 31.113281 33.90625 30.5625 33.90625 Z M 18.5625 35.90625 C 18.011719 35.90625 17.5625 36.355469 17.5625 36.90625 C 17.5625 37.457031 18.011719 37.90625 18.5625 37.90625 C 19.113281 37.90625 19.5625 37.457031 19.5625 36.90625 C 19.5625 36.355469 19.113281 35.90625 18.5625 35.90625 Z M 23.5625 37.90625 C 23.011719 37.90625 22.5625 38.355469 22.5625 38.90625 C 22.5625 39.457031 23.011719 39.90625 23.5625 39.90625 C 24.113281 39.90625 24.5625 39.457031 24.5625 38.90625 C 24.5625 38.355469 24.113281 37.90625 23.5625 37.90625 Z"/></svg>