<svg xmlns="http://www.w3.org/2000/svg"  viewBox="0 0 50 50" width="1000px" height="1000px"><path d="M 42.900391 2.9003906 C 41.794391 2.9003906 40.761187 3.32475 39.992188 4.09375 L 39.173828 4.9121094 L 39.169922 4.9101562 C 38.789922 4.7101562 38.310234 4.7698438 37.990234 5.0898438 L 24.099609 18.980469 L 9.3808594 4.2792969 C 9.2908594 4.1892969 9.1998437 4.1200781 9.0898438 4.0800781 C 7.0298438 3.1400781 4.6204687 3.6691406 3.2304688 5.3691406 C 2.0204688 6.8291406 1.8096875 8.9099219 2.6796875 10.669922 C 2.7196875 10.759922 2.7891406 10.849687 2.8691406 10.929688 L 17.509766 25.570312 L 6.5898438 36.490234 C 6.4898438 36.590234 6.409375 36.719609 6.359375 36.849609 L 3.0605469 45.650391 C 2.9305469 46.020391 3.0190625 46.430937 3.2890625 46.710938 C 3.4790625 46.900937 3.74 47 4 47 C 4.12 47 4.2396094 46.979453 4.3496094 46.939453 L 13.150391 43.640625 C 13.280391 43.590625 13.409766 43.510156 13.509766 43.410156 L 24.429688 32.490234 L 25.560547 33.619141 C 25.590547 33.649141 25.620391 33.679219 25.650391 33.699219 L 31.779297 38.539062 C 31.849297 38.589062 31.92 38.639922 32 38.669922 C 32.3 38.799922 32.600156 38.889219 32.910156 38.949219 C 32.916156 38.950219 32.921734 38.950172 32.927734 38.951172 C 32.926734 38.981172 32.913062 39.007109 32.914062 39.037109 C 32.960062 40.376109 33.322234 42.900391 35.240234 44.775391 C 36.743234 46.245391 38.824594 46.982422 41.058594 46.982422 C 43.224594 46.982422 45.535469 46.291344 47.605469 44.902344 C 47.998469 44.639344 48.174969 44.151266 48.042969 43.697266 C 47.911969 43.243266 47.500344 42.926063 47.027344 42.914062 C 46.046344 42.888062 45.260359 42.635063 44.693359 42.164062 C 43.960359 41.554063 43.742234 40.680969 43.490234 39.667969 C 43.203234 38.515969 42.88075 37.209547 41.71875 36.185547 C 40.71175 35.297547 39.296781 34.886062 37.550781 34.914062 L 37.550781 34.900391 C 37.530781 34.420391 37.420938 33.940703 37.210938 33.470703 C 37.170938 33.390703 37.130078 33.321953 37.080078 33.251953 L 32.240234 27.111328 C 32.210234 27.081328 32.190156 27.051484 32.160156 27.021484 L 31.029297 25.890625 L 44.910156 12.011719 C 45.260156 11.661719 45.299766 11.110938 45.009766 10.710938 L 45.007812 10.707031 L 45.806641 9.9082031 C 47.410641 8.3052031 47.410641 5.6987031 45.806641 4.0957031 C 45.038641 3.3247031 44.006391 2.9003906 42.900391 2.9003906 z M 42.900391 4.9199219 C 43.451016 4.9199219 44.000578 5.1168125 44.392578 5.5078125 C 45.202578 6.3178125 45.202578 7.6831875 44.392578 8.4921875 L 43.603516 9.2832031 L 40.617188 6.296875 L 41.40625 5.5078125 C 41.79775 5.1168125 42.349766 4.9199219 42.900391 4.9199219 z M 7.1894531 5.6230469 C 7.4957031 5.6442969 7.8021094 5.7125781 8.0996094 5.8300781 L 22.679688 20.400391 L 24.099609 21.810547 L 28.189453 25.900391 L 29.609375 27.310547 L 30.466797 28.166016 C 30.410797 28.674016 30.211234 29.602406 29.490234 30.441406 C 28.507234 31.587406 27.200594 31.829859 26.683594 31.880859 C 26.671594 31.881859 26.662391 31.889625 26.650391 31.890625 L 25.839844 31.080078 L 24.429688 29.669922 L 20.339844 25.580078 L 18.919922 24.160156 L 4.4003906 9.640625 C 3.9603906 8.620625 4.0995313 7.4608594 4.7695312 6.6308594 C 5.3620313 5.9183594 6.2707031 5.5592969 7.1894531 5.6230469 z M 38.699219 7.2109375 L 42.789062 11.300781 L 40.060547 14.039062 L 40.056641 14.042969 L 35.966797 9.953125 L 35.970703 9.9492188 L 38.699219 7.2109375 z M 34.552734 11.367188 L 38.642578 15.457031 L 38.640625 15.460938 L 29.609375 24.480469 L 25.519531 20.390625 L 34.550781 11.369141 L 34.552734 11.367188 z M 18.929688 26.990234 L 23.019531 31.080078 L 12.751953 41.337891 L 12 40.585938 L 12 39 C 12 38.447 11.553 38 11 38 L 9.4140625 38 L 8.6621094 37.248047 L 18.929688 26.990234 z M 32.019531 30.074219 L 35.419922 34.380859 C 35.699922 35.130859 35.549766 35.940469 35.009766 36.480469 C 34.479766 37.010469 33.660156 37.170859 32.910156 36.880859 L 28.564453 33.457031 C 29.350453 33.153031 30.242766 32.639094 31.009766 31.746094 C 31.433766 31.252094 31.770531 30.683219 32.019531 30.074219 z M 38.095703 37.070312 C 39.040656 37.121875 39.77575 37.369703 40.28125 37.814453 C 40.93425 38.390453 41.141813 39.226359 41.382812 40.193359 C 41.683813 41.401359 42.025641 42.769938 43.306641 43.835938 C 43.513641 44.008938 43.73475 44.162781 43.96875 44.300781 C 41.25775 45.215781 38.437766 44.863609 36.759766 43.224609 C 35.383766 41.878609 35.119938 39.976891 35.085938 38.962891 C 35.083937 38.891891 35.052109 38.833578 35.037109 38.767578 C 35.044109 38.764578 35.053547 38.763719 35.060547 38.761719 C 35.570547 38.581719 36.029688 38.280625 36.429688 37.890625 C 36.669688 37.640625 36.879063 37.370078 37.039062 37.080078 C 37.039062 37.080078 37.041016 37.078125 37.041016 37.078125 C 37.055016 37.078125 37.068031 37.084984 37.082031 37.083984 C 37.443281 37.057234 37.780719 37.053125 38.095703 37.070312 z M 7.6621094 39.076172 L 8.2929688 39.707031 C 8.4799688 39.895031 8.734 40 9 40 L 10 40 L 10 41 C 10 41.266 10.104969 41.520031 10.292969 41.707031 L 10.923828 42.337891 L 10.919922 42.339844 L 7.0800781 43.779297 L 6.2207031 42.919922 L 7.6601562 39.080078 L 7.6621094 39.076172 z"/></svg>