<svg xmlns="http://www.w3.org/2000/svg"  viewBox="0 0 50 50" width="1000px" height="1000px"><path d="M 15 3 A 1.0001 1.0001 0 0 0 14.005859 3.8886719 L 13.105469 12 L 11 12 C 10.416667 12 9.9501035 12.260834 9.6054688 12.605469 C 9.2608338 12.950104 9 13.416667 9 14 L 9 16.205078 C 7.3005746 16.66558 6 18.169478 6 20 L 6 44 C 6 45.645455 7.3545455 47 9 47 L 23 47 C 23.777194 47 24.464685 46.658317 25 46.166016 C 25.535315 46.658317 26.222806 47 27 47 L 41 47 C 42.645455 47 44 45.645455 44 44 L 44 20 C 44 18.19839 42.732298 16.66811 41 16.205078 L 41 14 C 41 13.416667 40.739166 12.950104 40.394531 12.605469 C 40.049896 12.260834 39.583333 12 39 12 L 36.894531 12 L 35.994141 3.8886719 A 1.0001 1.0001 0 0 0 35 3 L 33 3 A 1.0001 1.0001 0 0 0 32.005859 3.8886719 L 31.105469 12 L 29 12 C 28.416667 12 27.950104 12.260834 27.605469 12.605469 C 27.260834 12.950104 27 13.416667 27 14 L 27 16.205078 C 26.21064 16.418975 25.527302 16.833201 25.005859 17.441406 C 24.489446 16.833014 23.801287 16.419257 23 16.205078 L 23 14 C 23 13.416667 22.739166 12.950104 22.394531 12.605469 C 22.049896 12.260834 21.583333 12 21 12 L 18.894531 12 L 17.994141 3.8886719 A 1.0001 1.0001 0 0 0 17 3 L 15 3 z M 15.894531 5 L 16.105469 5 L 17.005859 13.111328 A 1.0001 1.0001 0 0 0 18 14 L 21 14 L 21 16 L 11 16 L 11 14 L 14 14 A 1.0001 1.0001 0 0 0 14.994141 13.111328 L 15.894531 5 z M 33.894531 5 L 34.105469 5 L 35.005859 13.111328 A 1.0001 1.0001 0 0 0 36 14 L 39 14 L 39 16 L 29 16 L 29 14 L 32 14 A 1.0001 1.0001 0 0 0 32.994141 13.111328 L 33.894531 5 z M 10 18 L 22 18 C 23.15098 18 24 18.941667 24 20 L 24 44 C 24 44.554545 23.554545 45 23 45 L 9 45 C 8.4454545 45 8 44.554545 8 44 L 8 38 L 19 38 A 1.0001 1.0001 0 0 0 20 37 L 20 26 A 1.0001 1.0001 0 0 0 19 25 L 8 25 L 8 20 C 8 18.983333 8.9833333 18 10 18 z M 28 18 L 40 18 C 41.15098 18 42 18.941667 42 20 L 42 44 C 42 44.554545 41.554545 45 41 45 L 27 45 C 26.445455 45 26 44.554545 26 44 L 26 38 L 37 38 A 1.0001 1.0001 0 0 0 38 37 L 38 26 A 1.0001 1.0001 0 0 0 37 25 L 26 25 L 26 20 C 26 18.983333 26.983333 18 28 18 z M 8 27 L 18 27 L 18 36 L 8 36 L 8 27 z M 26 27 L 36 27 L 36 36 L 26 36 L 26 27 z"/></svg>