<svg xmlns="http://www.w3.org/2000/svg"  viewBox="0 0 50 50" width="1000px" height="1000px"><path d="M 23.339844 2.0097656 C 22.951172 2.0004472 22.562354 2.0272598 22.179688 2.0898438 C 20.649021 2.3401795 19.2089 3.1580665 18.201172 4.4863281 L 17.410156 5.5292969 C 16.587579 6.6135135 15.624026 7.3274866 14.492188 7.4023438 L 13.244141 7.4863281 C 10.096939 7.6957452 7.5908128 10.258115 7.3867188 13.4375 L 7.3046875 14.708984 C 7.2291895 15.883402 6.5203866 16.866808 5.4570312 17.703125 L 4.4335938 18.507812 C 1.8196015 20.564628 1.2277815 24.335502 3.0722656 27.115234 A 1.0001 1.0001 0 0 0 3.0722656 27.117188 L 3.1875 27.289062 C 3.5585894 27.848233 3.6381095 28.242092 3.6074219 28.75 C 3.5767339 29.257908 3.3831475 29.892743 3.0957031 30.6875 C 2.4810969 32.389264 2.6106931 34.104366 3.3769531 35.480469 C 4.1432132 36.856572 5.5078133 37.871835 7.1972656 38.363281 A 1.0001 1.0001 0 0 0 7.203125 38.365234 L 7.2558594 38.380859 C 8.4199843 38.71956 8.5951446 38.824232 9.3457031 39.435547 C 9.4144775 40.193301 9.6290877 40.913529 9.9882812 41.558594 C 10.754541 42.934697 12.117188 43.94996 13.806641 44.441406 A 1.0001 1.0001 0 0 0 13.8125 44.443359 L 13.873047 44.460938 C 15.2055 44.84879 15.187504 44.885091 16.308594 45.798828 C 17.501093 46.77075 18.771072 47.568116 20.132812 47.875 C 21.494553 48.181884 23.01507 47.8727 24.134766 46.732422 C 24.817109 46.037409 25.160403 45.335321 25.501953 44.708984 C 25.843503 44.082648 26.192299 43.483888 26.962891 42.699219 C 28.284527 41.354699 29.604992 40.54622 31.097656 39.605469 C 32.590321 38.664717 34.240319 37.594836 36.015625 35.787109 C 37.790448 33.979342 38.83991 32.299221 39.763672 30.779297 C 40.687434 29.259373 41.484057 27.913741 42.804688 26.568359 C 43.57537 25.783598 44.161051 25.429686 44.775391 25.082031 C 45.38973 24.734376 46.081032 24.382804 46.763672 23.6875 C 47.883004 22.547566 48.179417 21.023195 47.880859 19.648438 C 47.582302 18.27368 46.801493 16.9816 45.847656 15.767578 C 44.9486 14.622873 44.909497 14.636077 44.525391 13.267578 C 44.041681 11.543359 43.038208 10.152026 41.666016 9.3710938 C 40.737079 8.842424 39.648556 8.6264166 38.519531 8.7382812 C 38.255061 8.3418824 38.153754 8.0461149 37.914062 7.1914062 C 37.430397 5.4672784 36.428833 4.0758544 35.056641 3.2949219 C 33.684448 2.5139893 31.963423 2.3919451 30.277344 3.0449219 A 1.0001 1.0001 0 0 0 30.273438 3.046875 L 30.177734 3.0839844 C 29.396223 3.3860181 28.769322 3.5880287 28.273438 3.6210938 C 27.776611 3.6542214 27.394899 3.5759587 26.841797 3.1953125 L 26.701172 3.0996094 C 25.674283 2.3929286 24.505858 2.037721 23.339844 2.0097656 z M 23.28125 3.9941406 C 24.069353 4.0152394 24.861545 4.2610246 25.566406 4.7460938 L 25.708984 4.84375 C 26.579882 5.4431038 27.527077 5.6738566 28.40625 5.6152344 C 29.285423 5.5566124 30.079924 5.267228 30.902344 4.9492188 A 1.0001 1.0001 0 0 0 30.90625 4.9472656 L 31 4.9101562 C 32.205921 4.4431331 33.217599 4.5501357 34.066406 5.0332031 C 34.915214 5.5162706 35.621947 6.4245965 35.988281 7.7304688 C 36.164018 8.3571233 36.333306 8.8290233 36.537109 9.25 C 35.88009 9.494498 35.319715 9.6700126 34.882812 9.6992188 C 34.385928 9.7324347 34.004274 9.6540838 33.451172 9.2734375 L 33.310547 9.1777344 C 31.941362 8.2354933 30.319728 7.9176329 28.789062 8.1679688 C 27.258398 8.4183046 25.818275 9.2361916 24.810547 10.564453 L 24.021484 11.607422 C 23.198706 12.692316 22.235776 13.405584 21.103516 13.480469 L 19.853516 13.564453 C 16.706314 13.77387 14.200188 16.33624 13.996094 19.515625 L 13.914062 20.787109 C 13.838563 21.961527 13.129762 22.944933 12.066406 23.78125 L 11.042969 24.585938 C 8.4289764 26.642751 7.8371565 30.413627 9.6816406 33.193359 A 1.0001 1.0001 0 0 0 9.6835938 33.195312 L 9.796875 33.367188 C 10.167964 33.926358 10.247485 34.320217 10.216797 34.828125 C 10.186107 35.336033 9.9925225 35.970868 9.7050781 36.765625 C 9.6559698 36.9016 9.6197159 37.037863 9.5800781 37.173828 C 9.0936678 36.892477 8.5754806 36.680404 7.8144531 36.458984 A 1.0001 1.0001 0 0 0 7.8085938 36.457031 L 7.7558594 36.443359 C 6.492312 36.07585 5.6054899 35.370711 5.125 34.507812 C 4.6445101 33.644915 4.5311688 32.600423 4.9765625 31.367188 C 5.2761182 30.538943 5.5507033 29.745186 5.6035156 28.871094 C 5.6563276 27.997002 5.4334262 27.057423 4.8535156 26.183594 A 1.0001 1.0001 0 0 0 4.8535156 26.181641 L 4.7382812 26.009766 L 4.7363281 26.007812 C 3.4625893 24.08586 3.8746018 21.492722 5.6699219 20.080078 L 6.6933594 19.275391 C 8.028004 18.225708 9.1782796 16.743473 9.3007812 14.837891 L 9.3828125 13.564453 C 9.5247187 11.353838 11.234155 9.6250051 13.376953 9.4824219 L 14.625 9.3984375 C 16.51674 9.2733224 17.974685 8.0934337 19.003906 6.7363281 L 19.794922 5.6953125 C 20.665261 4.5481395 21.967744 3.9589759 23.28125 3.9941406 z M 29.890625 10.072266 C 30.679299 10.093513 31.472873 10.33915 32.177734 10.824219 L 32.318359 10.921875 C 33.189257 11.521229 34.138212 11.752143 35.017578 11.693359 C 35.896944 11.634579 36.690692 11.34393 37.513672 11.025391 A 1.0001 1.0001 0 0 0 37.517578 11.023438 L 37.611328 10.988281 C 38.817249 10.521258 39.828927 10.626308 40.677734 11.109375 C 41.526542 11.592442 42.233276 12.502722 42.599609 13.808594 C 43.011503 15.276094 43.366447 15.844659 44.275391 17.001953 C 45.121554 18.078931 45.731089 19.175773 45.925781 20.072266 C 46.120474 20.968758 46.011561 21.59909 45.337891 22.285156 C 44.888531 22.742852 44.449426 22.967249 43.791016 23.339844 C 43.132605 23.712439 42.303271 24.222777 41.376953 25.166016 C 39.869584 26.701634 38.969425 28.235158 38.054688 29.740234 C 37.13995 31.24531 36.209021 32.735533 34.589844 34.384766 C 32.97015 36.034039 31.508836 36.980861 30.03125 37.912109 C 28.553664 38.843358 27.045473 39.762395 25.537109 41.296875 C 24.610701 42.240206 24.111543 43.08179 23.746094 43.751953 C 23.380644 44.422116 23.157641 44.873091 22.708984 45.330078 C 22.03468 46.016786 21.440275 46.119444 20.572266 45.923828 C 19.704256 45.728212 18.628766 45.109125 17.572266 44.248047 C 16.435806 43.321782 15.868476 42.956859 14.425781 42.537109 A 1.0001 1.0001 0 0 0 14.417969 42.535156 L 14.359375 42.519531 C 13.099277 42.151454 12.214043 41.447358 11.734375 40.585938 C 11.490407 40.147802 11.344034 39.66161 11.314453 39.128906 A 1.0002437 1.0002437 0 0 0 11.326172 38.867188 C 11.333196 38.422198 11.402208 37.954036 11.585938 37.445312 C 11.885492 36.617069 12.160078 35.823311 12.212891 34.949219 C 12.265701 34.075127 12.044754 33.135548 11.464844 32.261719 A 1.0001 1.0001 0 0 0 11.462891 32.259766 L 11.347656 32.087891 L 11.347656 32.085938 C 10.073395 30.163826 10.485727 27.571007 12.28125 26.158203 L 13.302734 25.353516 C 14.637379 24.303833 15.787655 22.821598 15.910156 20.916016 L 15.992188 19.642578 C 16.134093 17.431963 17.84353 15.70313 19.986328 15.560547 L 21.234375 15.476562 C 23.126115 15.351448 24.586013 14.171559 25.615234 12.814453 L 26.404297 11.773438 C 27.100569 10.855699 28.073337 10.294414 29.107422 10.125 C 29.365943 10.082646 29.627734 10.065183 29.890625 10.072266 z M 32.404297 15.091797 C 31.971135 15.110453 31.534984 15.151046 31.097656 15.212891 C 27.599039 15.707641 23.990586 17.540718 21.021484 20.564453 C 18.052313 23.588259 16.259099 27.25809 15.775391 30.808594 C 15.291682 34.359097 16.139989 37.838607 18.527344 40.269531 C 19.153376 40.906742 19.85438 41.438595 20.609375 41.865234 A 1.0005261 1.0005261 0 1 0 21.59375 40.123047 C 20.996745 39.785686 20.449046 39.369976 19.955078 38.867188 C 18.068433 36.946112 17.337068 34.152122 17.755859 31.078125 C 18.174651 28.004128 19.76639 24.697038 22.449219 21.964844 C 25.132117 19.232578 28.371571 17.618359 31.376953 17.193359 C 34.382335 16.768359 37.105463 17.50223 38.992188 19.423828 C 39.569688 20.01191 40.033573 20.677401 40.390625 21.410156 A 1.0001 1.0001 0 1 0 42.1875 20.535156 C 41.740552 19.617911 41.152421 18.769356 40.419922 18.023438 C 38.629465 16.199886 36.247738 15.25242 33.693359 15.101562 C 33.26763 15.076422 32.837458 15.073141 32.404297 15.091797 z"/></svg>