<svg xmlns="http://www.w3.org/2000/svg"  viewBox="0 0 50 50" width="1000px" height="1000px"><path d="M 25 2.5625 L 24.28125 3.3125 L 22.96875 4.65625 L 21.40625 3.65625 L 20.5625 3.09375 L 20.03125 3.9375 L 18.96875 5.59375 L 17.25 4.96875 L 16.34375 4.625 L 15.96875 5.53125 L 15.21875 7.4375 L 13.4375 7.21875 L 12.46875 7.09375 L 12.3125 8.03125 L 11.9375 10.09375 L 10.09375 10.28125 L 9.1875 10.375 L 9.21875 11.28125 L 9.25 13.4375 L 7.4375 14.0625 L 6.59375 14.34375 L 6.78125 15.1875 L 7.21875 17.3125 L 5.53125 18.34375 L 4.8125 18.8125 L 5.15625 19.59375 L 5.96875 21.5625 L 4.5 22.96875 L 3.90625 23.5625 L 4.375 24.25 L 5.53125 26 L 4.375 27.75 L 3.90625 28.4375 L 4.5 29.03125 L 5.96875 30.4375 L 5.15625 32.40625 L 4.8125 33.1875 L 5.53125 33.65625 L 7.21875 34.6875 L 6.78125 36.8125 L 6.59375 37.65625 L 7.4375 37.9375 L 9.25 38.5625 L 9.21875 40.71875 L 9.1875 41.625 L 10.09375 41.71875 L 11.9375 41.90625 L 12.3125 43.96875 L 12.46875 44.90625 L 13.4375 44.78125 L 15.21875 44.5625 L 15.96875 46.46875 L 16.34375 47.375 L 17.25 47.03125 L 18.96875 46.40625 L 20.03125 48.0625 L 20.5625 48.90625 L 21.40625 48.34375 L 22.96875 47.34375 L 24.28125 48.6875 L 25 49.4375 L 25.71875 48.6875 L 27.03125 47.34375 L 28.59375 48.34375 L 29.4375 48.90625 L 29.96875 48.0625 L 31.03125 46.40625 L 32.75 47.03125 L 33.65625 47.375 L 34.03125 46.46875 L 34.78125 44.5625 L 36.5625 44.78125 L 37.53125 44.90625 L 37.6875 43.96875 L 38.0625 41.90625 L 39.90625 41.71875 L 40.8125 41.625 L 40.78125 40.71875 L 40.75 38.5625 L 42.5625 37.9375 L 43.40625 37.65625 L 43.21875 36.8125 L 42.78125 34.6875 L 44.46875 33.65625 L 45.1875 33.1875 L 44.84375 32.40625 L 44.03125 30.4375 L 45.5 29.03125 L 46.09375 28.4375 L 45.625 27.75 L 44.46875 26 L 45.625 24.25 L 46.09375 23.5625 L 45.5 22.96875 L 44.03125 21.5625 L 44.84375 19.59375 L 45.1875 18.8125 L 44.46875 18.34375 L 42.78125 17.3125 L 43.21875 15.1875 L 43.40625 14.34375 L 42.5625 14.0625 L 40.75 13.4375 L 40.78125 11.28125 L 40.8125 10.375 L 39.90625 10.28125 L 38.0625 10.09375 L 37.6875 8.03125 L 37.53125 7.09375 L 36.5625 7.21875 L 34.78125 7.4375 L 34.03125 5.53125 L 33.65625 4.625 L 32.75 4.96875 L 31.03125 5.59375 L 29.96875 3.9375 L 29.4375 3.09375 L 28.59375 3.65625 L 27.03125 4.65625 L 25.71875 3.3125 Z M 25 5.4375 L 26.1875 6.65625 L 26.78125 7.21875 L 27.46875 6.78125 L 28.84375 5.875 L 29.8125 7.375 L 30.21875 8.03125 L 31 7.75 L 32.53125 7.1875 L 33.1875 8.90625 L 33.46875 9.625 L 34.25 9.53125 L 35.875 9.3125 L 36.21875 11.1875 L 36.375 11.9375 L 37.125 12 L 38.78125 12.1875 L 38.75 14.125 L 38.75 14.84375 L 39.4375 15.09375 L 41.09375 15.65625 L 40.6875 17.59375 L 40.5625 18.28125 L 41.15625 18.65625 L 42.6875 19.59375 L 41.9375 21.4375 L 41.65625 22.0625 L 42.15625 22.53125 L 43.5 23.84375 L 42.40625 25.4375 L 42.03125 26 L 42.40625 26.5625 L 43.5 28.15625 L 42.15625 29.46875 L 41.65625 29.9375 L 41.9375 30.5625 L 42.6875 32.40625 L 41.15625 33.34375 L 40.5625 33.71875 L 40.6875 34.40625 L 41.09375 36.34375 L 39.4375 36.90625 L 38.75 37.15625 L 38.75 37.875 L 38.78125 39.8125 L 37.125 40 L 36.375 40.0625 L 36.21875 40.8125 L 35.875 42.6875 L 34.25 42.46875 L 33.46875 42.375 L 33.1875 43.09375 L 32.53125 44.8125 L 31 44.25 L 30.21875 43.96875 L 29.8125 44.625 L 28.84375 46.125 L 27.46875 45.21875 L 26.78125 44.78125 L 26.1875 45.34375 L 25 46.5625 L 23.8125 45.34375 L 23.21875 44.78125 L 22.53125 45.21875 L 21.15625 46.125 L 20.1875 44.625 L 19.78125 43.96875 L 19 44.25 L 17.46875 44.8125 L 16.8125 43.09375 L 16.53125 42.375 L 15.75 42.46875 L 14.125 42.6875 L 13.78125 40.8125 L 13.625 40.0625 L 12.875 40 L 11.21875 39.8125 L 11.25 37.875 L 11.25 37.15625 L 10.5625 36.90625 L 8.90625 36.34375 L 9.3125 34.40625 L 9.4375 33.71875 L 8.84375 33.34375 L 7.3125 32.40625 L 8.0625 30.5625 L 8.34375 29.9375 L 7.84375 29.46875 L 6.5 28.15625 L 7.59375 26.5625 L 7.96875 26 L 7.59375 25.4375 L 6.5 23.84375 L 7.84375 22.53125 L 8.34375 22.0625 L 8.0625 21.4375 L 7.3125 19.59375 L 8.84375 18.65625 L 9.4375 18.28125 L 9.3125 17.59375 L 8.90625 15.65625 L 10.5625 15.09375 L 11.25 14.84375 L 11.25 14.125 L 11.21875 12.1875 L 12.875 12 L 13.625 11.9375 L 13.78125 11.1875 L 14.125 9.3125 L 15.75 9.53125 L 16.53125 9.625 L 16.8125 8.90625 L 17.46875 7.1875 L 19 7.75 L 19.78125 8.03125 L 20.1875 7.375 L 21.15625 5.875 L 22.53125 6.78125 L 23.21875 7.21875 L 23.8125 6.65625 Z M 25 8 C 16.101563 8 9 16.132813 9 26 C 9 35.867188 16.101563 44 25 44 C 33.898438 44 41 35.867188 41 26 C 41 16.132813 33.898438 8 25 8 Z M 24 10.0625 L 24 21 C 24 23.21875 22.21875 25 20 25 L 11.03125 25 C 11.464844 16.953125 17.078125 10.632813 24 10.0625 Z M 26 10.0625 C 32.921875 10.632813 38.535156 16.953125 38.96875 25 L 30 25 C 27.78125 25 26 23.21875 26 21 Z M 25 24.28125 C 25.449219 24.964844 26.035156 25.550781 26.71875 26 C 26.035156 26.449219 25.449219 27.035156 25 27.71875 C 24.550781 27.035156 23.964844 26.449219 23.28125 26 C 23.964844 25.550781 24.550781 24.964844 25 24.28125 Z M 11.03125 27 L 20 27 C 22.21875 27 24 28.78125 24 31 L 24 41.9375 C 17.078125 41.367188 11.464844 35.046875 11.03125 27 Z M 30 27 L 38.96875 27 C 38.535156 35.046875 32.921875 41.367188 26 41.9375 L 26 31 C 26 28.78125 27.78125 27 30 27 Z"/></svg>