<svg xmlns="http://www.w3.org/2000/svg"  viewBox="0 0 50 50" width="1000px" height="1000px"><path d="M 16.5 2 C 14.026562 2 12 4.026562 12 6.5 L 12 7 A 1.0001 1.0001 0 0 0 13 8 C 15.14596 8 16.86468 9.6672502 16.978516 11.783203 C 13.448936 18.005512 11.752141 26.67786 10.882812 33.880859 C 10.000277 41.193303 10 47 10 47 A 1.0001 1.0001 0 0 0 11 48 L 38 48 A 1.0001 1.0001 0 0 0 39 47.029297 C 39 47.029297 39.40904 33.998958 36.966797 24.744141 A 1.0001 1.0001 0 0 0 36 24 C 33.7 24 31.962058 23.319023 30.796875 22.259766 C 29.631692 21.200508 29 19.75 29 18 L 29 12 C 29 11.401896 29.137049 10.840004 29.369141 10.332031 C 29.637921 11.146585 30.046942 12.233409 30.753906 13.490234 C 31.956495 15.628169 33.966667 18 37 18 A 1.0001 1.0001 0 1 0 37 16 C 35.033333 16 33.543505 14.371831 32.496094 12.509766 C 31.448682 10.6477 30.970703 8.7578125 30.970703 8.7578125 A 1.0001 1.0001 0 0 0 30.916016 8.59375 C 31.523129 8.2233691 32.232041 8 33 8 L 37 8 A 1.0001 1.0001 0 0 0 38 7 L 38 3 A 1.0001 1.0001 0 0 0 37 2 L 33 2 L 17 2 L 16.5 2 z M 16.5 4 L 17 4 L 33 4 L 36 4 L 36 6 L 33 6 C 30.052633 6 27.698522 8.1897314 27.203125 11 L 18.796875 11 C 18.367773 8.565804 16.531661 6.7019557 14.113281 6.2265625 C 14.266653 4.9867727 15.215027 4 16.5 4 z M 18.591797 13 L 27 13 L 27 18 C 27 20.25 27.868308 22.299492 29.453125 23.740234 C 30.853895 25.013662 32.848746 25.697443 35.142578 25.863281 C 37.150466 34.019342 37.013044 44.545058 36.984375 46 L 12.029297 46 C 12.042767 44.74749 12.115566 40.346854 12.867188 34.119141 C 13.71051 27.131605 15.410983 18.753571 18.591797 13 z M 26.734375 29.001953 C 20.002844 28.987798 17 32.831719 17 35.480469 C 17 37.548469 17.808297 38.626313 18.654297 39.195312 C 18.625297 39.286313 18.588547 39.379703 18.560547 39.470703 C 18.460547 39.790703 18.380781 40.109688 18.300781 40.429688 C 18.110781 41.289687 18 42.15 18 43 C 18 43.55 18.45 44 19 44 C 19.55 44 19.992 43.55 20 43 C 20.011 42.265 20.339078 40.804375 20.705078 39.609375 C 21.720078 36.574375 24.185547 33.253609 26.560547 32.099609 C 27.060547 31.859609 27.660391 32.070547 27.900391 32.560547 C 28.140391 33.060547 27.929453 33.660391 27.439453 33.900391 C 25.219453 34.970391 22.720781 38.700625 22.300781 41.390625 C 23.940781 42.210625 26.399687 42.430781 28.429688 40.550781 C 31.799688 37.410781 29.5 32.949453 32 29.689453 C 30.040625 29.213203 28.287805 29.00522 26.734375 29.001953 z"/></svg>