<svg fill="#000000" xmlns="http://www.w3.org/2000/svg"  viewBox="0 0 50 50" width="1000px" height="1000px"><path d="M 46.21875 1.03125 C 45.933594 1.082031 45.679688 1.25 45.53125 1.5 C 45.53125 1.5 43.191406 4.921875 40.53125 7.15625 C 38.648438 7.125 34.394531 6.171875 31 10.75 C 30.945313 10.835938 30.902344 10.929688 30.875 11.03125 C 29.554688 12.0625 28.296875 13.433594 26.96875 14.875 C 24.90625 17.105469 22.746094 19.535156 20.5 21.21875 C 16.429688 24.269531 11.808594 25.195313 7.9375 26.9375 C 6 27.808594 4.234375 28.925781 2.96875 30.6875 C 1.703125 32.449219 1 34.816406 1 38 C 1 44.0625 5.9375 49 12 49 C 20.355469 49 28.152344 44.292969 34 38.25 C 39.253906 32.820313 42.96875 26.308594 44.0625 20.75 C 44.3125 20.65625 44.515625 20.464844 44.625 20.21875 C 46.03125 17.222656 46.179688 14.824219 45.875 13.0625 C 45.722656 12.183594 45.445313 11.472656 45.21875 10.9375 C 45.09375 10.636719 45.078125 10.578125 45 10.40625 C 47.871094 6.953125 48.96875 3.28125 48.96875 3.28125 C 49.101563 2.832031 48.90625 2.355469 48.5 2.125 L 46.875 1.1875 C 46.707031 1.082031 46.511719 1.027344 46.3125 1.03125 C 46.28125 1.03125 46.25 1.03125 46.21875 1.03125 Z M 46.65625 3.375 L 46.75 3.4375 C 46.453125 4.332031 45.542969 6.894531 43.125 9.59375 C 42.898438 9.847656 42.8125 10.203125 42.90625 10.53125 C 43.035156 11 43.1875 11.273438 43.375 11.71875 C 43.5625 12.164063 43.785156 12.714844 43.90625 13.40625 C 44.082031 14.414063 43.894531 15.832031 43.40625 17.5 C 42.851563 16.5625 42.4375 15.59375 42.5625 14.625 C 42.632813 14.191406 42.414063 13.757813 42.015625 13.566406 C 41.621094 13.371094 41.144531 13.457031 40.84375 13.78125 C 39.835938 14.789063 38.632813 15.222656 37.65625 15.46875 C 37.714844 15.140625 37.683594 15.125 37.78125 14.71875 C 38.0625 13.546875 38.59375 12.21875 39.09375 11.71875 C 39.394531 11.429688 39.484375 10.980469 39.316406 10.597656 C 39.148438 10.214844 38.761719 9.976563 38.34375 10 C 36.558594 10.0625 35.589844 10.136719 34.40625 10.21875 C 36.722656 8.523438 38.898438 9.246094 41 9.15625 C 41.207031 9.144531 41.402344 9.066406 41.5625 8.9375 C 44.15625 6.851563 45.984375 4.347656 46.65625 3.375 Z M 36.53125 12.09375 C 36.21875 12.8125 36.011719 13.558594 35.84375 14.25 C 35.523438 15.566406 35.40625 16.65625 35.40625 16.65625 C 35.378906 16.949219 35.480469 17.238281 35.683594 17.449219 C 35.890625 17.660156 36.175781 17.769531 36.46875 17.75 C 36.46875 17.75 38.644531 17.582031 40.71875 16.34375 C 41.011719 17.5625 41.632813 18.625 42.25 19.5 C 41.511719 24.589844 37.886719 31.371094 32.5625 36.875 C 26.976563 42.648438 19.597656 47 12 47 C 7.015625 47 3 42.984375 3 38 C 3 35.105469 3.613281 33.246094 4.59375 31.875 C 5.574219 30.503906 6.976563 29.578125 8.75 28.78125 C 12.292969 27.183594 17.230469 26.210938 21.71875 22.84375 C 24.203125 20.980469 26.398438 18.457031 28.4375 16.25 C 29.886719 14.679688 31.273438 13.28125 32.5 12.375 C 33.804688 12.386719 35.148438 12.207031 36.53125 12.09375 Z M 31.375 18.71875 C 31.3125 18.722656 31.25 18.734375 31.1875 18.75 C 30.929688 18.808594 30.703125 18.964844 30.5625 19.1875 C 30.5625 19.1875 23.820313 28.898438 11.15625 31.78125 C 10.773438 31.820313 10.445313 32.078125 10.316406 32.441406 C 10.1875 32.804688 10.28125 33.210938 10.550781 33.484375 C 10.824219 33.753906 11.230469 33.847656 11.59375 33.71875 C 25.058594 30.652344 32.1875 20.3125 32.1875 20.3125 C 32.414063 20.007813 32.445313 19.601563 32.273438 19.265625 C 32.101563 18.925781 31.753906 18.714844 31.375 18.71875 Z"/></svg>