<svg fill="#000000" xmlns="http://www.w3.org/2000/svg"  viewBox="0 0 50 50" width="1000px" height="1000px"><path d="M 15 1 C 11.019531 1 7.523438 3.835938 5.03125 7.75 C 2.539063 11.664063 1 16.746094 1 21.65625 C 1 30.636719 6.980469 35.984375 13.15625 36.875 C 14.058594 43.046875 19.375 49 28.34375 49 C 33.253906 49 38.335938 47.460938 42.25 44.96875 C 46.164063 42.476563 49 38.980469 49 35 C 49 31.019531 46.164063 27.523438 42.25 25.03125 C 38.5 22.644531 33.683594 21.15625 28.96875 21.03125 C 28.84375 16.316406 27.355469 11.5 24.96875 7.75 C 22.476563 3.835938 18.980469 1 15 1 Z M 15 3 C 17.980469 3 20.980469 5.28125 23.25 8.84375 C 25.417969 12.25 26.84375 16.761719 26.96875 21.0625 C 18.0625 21.691406 13.109375 28.390625 13 34.78125 C 7.917969 33.867188 3 29.523438 3 21.65625 C 3 17.179688 4.480469 12.40625 6.75 8.84375 C 9.019531 5.28125 12.019531 3 15 3 Z M 28.15625 23 C 28.167969 23 28.175781 23 28.1875 23 C 28.242188 23 28.289063 23 28.34375 23 C 32.820313 23 37.59375 24.480469 41.15625 26.75 C 44.71875 29.019531 47 32.019531 47 35 C 47 37.980469 44.71875 40.980469 41.15625 43.25 C 37.59375 45.519531 32.820313 47 28.34375 47 C 20.015625 47 15.597656 41.472656 15.0625 36.09375 C 15.0625 36.082031 15.0625 36.074219 15.0625 36.0625 C 15.058594 36.042969 15.0625 36.019531 15.0625 36 C 15.066406 35.894531 15.058594 35.789063 15.03125 35.6875 C 15.015625 35.457031 15 35.230469 15 35 C 15 29.410156 19.285156 23.265625 27.84375 23.03125 C 27.863281 23.03125 27.886719 23.03125 27.90625 23.03125 C 27.992188 23.03125 28.074219 23.019531 28.15625 23 Z"/></svg>