<svg xmlns="http://www.w3.org/2000/svg"  viewBox="0 0 50 50" width="1000px" height="1000px"><path d="M 16 2 C 14.35503 2 13 3.3550302 13 5 C 13 5.6717443 13.233882 6.2885032 13.613281 6.7910156 C 13.234115 7.2953459 12.609069 7.9485859 11.958984 8.6113281 C 11.206274 9.3786945 10.478203 10.255973 10.212891 11.363281 A 1.0001 1.0001 0 0 0 10 12.158203 L 10 42 C 10 43.609324 11.059233 44.851251 12.439453 45.482422 L 12.595703 45.949219 C 13.002875 47.170734 14.153771 48 15.441406 48 L 34.558594 48 C 35.84568 48 36.997124 47.169991 37.404297 45.949219 L 37.404297 45.947266 L 37.560547 45.480469 C 38.940395 44.849715 40 43.608774 40 42 L 40 12.167969 A 1.0001 1.0001 0 0 0 39.787109 11.367188 C 39.522816 10.259106 38.796256 9.3803555 38.042969 8.6113281 C 37.393043 7.947822 36.767087 7.2949647 36.386719 6.7910156 C 36.766118 6.2885032 37 5.6717443 37 5 C 37 3.3550302 35.64497 2 34 2 L 16 2 z M 16 4 L 34 4 C 34.56503 4 35 4.4349698 35 5 C 35 5.3079989 34.863401 5.5686782 34.654297 5.75 C 34.649666 5.7540157 34.643381 5.7558369 34.638672 5.7597656 A 1.0001 1.0001 0 0 0 34.498047 5.8535156 A 1.0001 1.0001 0 0 0 34.488281 5.8613281 C 34.34293 5.9422159 34.182992 6 34 6 L 16 6 C 15.43497 6 15 5.5650302 15 5 C 15 4.4349698 15.43497 4 16 4 z M 15.310547 7.9121094 C 15.533016 7.9655296 15.762194 8 16 8 L 34 8 C 34.237806 8 34.466984 7.9655296 34.689453 7.9121094 C 35.234652 8.7133078 35.978767 9.3639455 36.613281 10.011719 C 37.038477 10.4458 37.063311 10.650161 37.302734 11 L 21 11 A 1.0001 1.0001 0 1 0 21 13 L 38 13 L 38 42 L 21 42 A 1.0001 1.0001 0 1 0 21 44 L 36.28125 44 A 1.0001 1.0001 0 0 0 35.748047 44.59375 L 35.507812 45.314453 A 1.0001 1.0001 0 0 0 35.507812 45.316406 C 35.370523 45.728732 34.992958 46 34.558594 46 L 15.441406 46 C 15.007042 46 14.629015 45.726891 14.492188 45.316406 L 14.251953 44.59375 A 1.0001 1.0001 0 0 0 13.712891 44 L 17 44 A 1.0001 1.0001 0 1 0 17 42 L 12 42 L 12 13 L 17 13 A 1.0001 1.0001 0 1 0 17 11 L 12.697266 11 C 12.936647 10.650556 12.961468 10.44525 13.386719 10.011719 C 14.021315 9.3647661 14.765464 8.714473 15.310547 7.9121094 z M 28 16 L 19 29 L 24 29 L 22 39 L 31 26 L 26 26 L 28 16 z"/></svg>