<svg xmlns="http://www.w3.org/2000/svg"  viewBox="0 0 50 50" width="1000px" height="1000px"><path d="M 30.9375 3 C 30.160156 2.996094 29.371094 3.316406 28.78125 3.90625 L 3.90625 28.78125 C 2.679688 29.890625 2.734375 31.828125 3.90625 33 L 17 46.09375 C 18.152344 47.246094 20.066406 47.246094 21.21875 46.09375 L 46.0625 21.25 C 46.074219 21.238281 46.082031 21.230469 46.09375 21.21875 C 47.320313 20.109375 47.265625 18.171875 46.09375 17 L 33.0625 3.9375 C 33.054688 3.929688 33.039063 3.945313 33.03125 3.9375 C 33.019531 3.925781 33.011719 3.917969 33 3.90625 C 32.453125 3.3125 31.695313 3.003906 30.9375 3 Z M 30.9375 5 C 31.183594 4.996094 31.414063 5.082031 31.5625 5.25 C 31.570313 5.269531 31.582031 5.292969 31.59375 5.3125 L 44.6875 18.40625 C 45.105469 18.824219 45.089844 19.453125 44.75 19.75 C 44.730469 19.757813 44.707031 19.769531 44.6875 19.78125 L 32.9375 31.53125 L 18.46875 17.0625 L 30.21875 5.3125 C 30.425781 5.105469 30.691406 5.003906 30.9375 5 Z M 31 6 C 30.449219 6 30 6.449219 30 7 C 30 7.550781 30.449219 8 31 8 C 31.550781 8 32 7.550781 32 7 C 32 6.449219 31.550781 6 31 6 Z M 28 9 C 27.449219 9 27 9.449219 27 10 C 27 10.550781 27.449219 11 28 11 C 28.550781 11 29 10.550781 29 10 C 29 9.449219 28.550781 9 28 9 Z M 34 9 C 33.449219 9 33 9.449219 33 10 C 33 10.550781 33.449219 11 34 11 C 34.550781 11 35 10.550781 35 10 C 35 9.449219 34.550781 9 34 9 Z M 25 12 C 24.449219 12 24 12.449219 24 13 C 24 13.550781 24.449219 14 25 14 C 25.550781 14 26 13.550781 26 13 C 26 12.449219 25.550781 12 25 12 Z M 31 12 C 30.449219 12 30 12.449219 30 13 C 30 13.550781 30.449219 14 31 14 C 31.550781 14 32 13.550781 32 13 C 32 12.449219 31.550781 12 31 12 Z M 37 12 C 36.449219 12 36 12.449219 36 13 C 36 13.550781 36.449219 14 37 14 C 37.550781 14 38 13.550781 38 13 C 38 12.449219 37.550781 12 37 12 Z M 22 15 C 21.449219 15 21 15.449219 21 16 C 21 16.550781 21.449219 17 22 17 C 22.550781 17 23 16.550781 23 16 C 23 15.449219 22.550781 15 22 15 Z M 28 15 C 27.449219 15 27 15.449219 27 16 C 27 16.550781 27.449219 17 28 17 C 28.550781 17 29 16.550781 29 16 C 29 15.449219 28.550781 15 28 15 Z M 34 15 C 33.449219 15 33 15.449219 33 16 C 33 16.550781 33.449219 17 34 17 C 34.550781 17 35 16.550781 35 16 C 35 15.449219 34.550781 15 34 15 Z M 40 15 C 39.449219 15 39 15.449219 39 16 C 39 16.550781 39.449219 17 40 17 C 40.550781 17 41 16.550781 41 16 C 41 15.449219 40.550781 15 40 15 Z M 25 18 C 24.449219 18 24 18.449219 24 19 C 24 19.550781 24.449219 20 25 20 C 25.550781 20 26 19.550781 26 19 C 26 18.449219 25.550781 18 25 18 Z M 31 18 C 30.449219 18 30 18.449219 30 19 C 30 19.550781 30.449219 20 31 20 C 31.550781 20 32 19.550781 32 19 C 32 18.449219 31.550781 18 31 18 Z M 37 18 C 36.449219 18 36 18.449219 36 19 C 36 19.550781 36.449219 20 37 20 C 37.550781 20 38 19.550781 38 19 C 38 18.449219 37.550781 18 37 18 Z M 43 18 C 42.449219 18 42 18.449219 42 19 C 42 19.550781 42.449219 20 43 20 C 43.550781 20 44 19.550781 44 19 C 44 18.449219 43.550781 18 43 18 Z M 17.0625 18.46875 L 31.53125 32.9375 L 19.78125 44.6875 C 19.335938 45.132813 18.851563 45.132813 18.40625 44.6875 L 5.3125 31.59375 C 4.894531 31.175781 4.910156 30.546875 5.25 30.25 C 5.269531 30.242188 5.292969 30.230469 5.3125 30.21875 Z M 28 21 C 27.449219 21 27 21.449219 27 22 C 27 22.550781 27.449219 23 28 23 C 28.550781 23 29 22.550781 29 22 C 29 21.449219 28.550781 21 28 21 Z M 34 21 C 33.449219 21 33 21.449219 33 22 C 33 22.550781 33.449219 23 34 23 C 34.550781 23 35 22.550781 35 22 C 35 21.449219 34.550781 21 34 21 Z M 40 21 C 39.449219 21 39 21.449219 39 22 C 39 22.550781 39.449219 23 40 23 C 40.550781 23 41 22.550781 41 22 C 41 21.449219 40.550781 21 40 21 Z M 31 24 C 30.449219 24 30 24.449219 30 25 C 30 25.550781 30.449219 26 31 26 C 31.550781 26 32 25.550781 32 25 C 32 24.449219 31.550781 24 31 24 Z M 37 24 C 36.449219 24 36 24.449219 36 25 C 36 25.550781 36.449219 26 37 26 C 37.550781 26 38 25.550781 38 25 C 38 24.449219 37.550781 24 37 24 Z M 34 27 C 33.449219 27 33 27.449219 33 28 C 33 28.550781 33.449219 29 34 29 C 34.550781 29 35 28.550781 35 28 C 35 27.449219 34.550781 27 34 27 Z"/></svg>