<svg xmlns="http://www.w3.org/2000/svg"  viewBox="0 0 50 50" width="1000px" height="1000px"><path d="M 8.8007812 4 C 6.1615242 4 4 6.1615241 4 8.8007812 L 4 41.199219 C 4 43.838476 6.1615241 46 8.8007812 46 L 41.199219 46 C 43.838476 46 46 43.838476 46 41.199219 L 46 8.8007812 C 46 6.1615242 43.838476 4 41.199219 4 L 8.8007812 4 z M 8.8007812 6 L 41.199219 6 C 42.757961 6 44 7.2420387 44 8.8007812 L 44 41.199219 C 44 42.757961 42.757961 44 41.199219 44 L 8.8007812 44 C 7.2420387 44 6 42.757961 6 41.199219 L 6 8.8007812 C 6 7.2420387 7.2420387 6 8.8007812 6 z M 16.5 9 C 12.369709 9 9 12.369709 9 16.5 C 9 20.630291 12.369709 24 16.5 24 C 20.630291 24 24 20.630291 24 16.5 C 24 12.369709 20.630291 9 16.5 9 z M 33.5 9 C 29.369709 9 26 12.369709 26 16.5 C 26 20.630291 29.369709 24 33.5 24 C 37.630291 24 41 20.630291 41 16.5 C 41 12.369709 37.630291 9 33.5 9 z M 16.5 11 C 16.870997 11 17.232096 11.038211 17.582031 11.107422 L 11.107422 17.582031 C 11.038211 17.232096 11 16.870997 11 16.5 C 11 13.450589 13.450589 11 16.5 11 z M 33.5 11 C 36.549411 11 39 13.450589 39 16.5 C 39 19.549411 36.549411 22 33.5 22 C 30.450589 22 28 19.549411 28 16.5 C 28 13.450589 30.450589 11 33.5 11 z M 19.140625 11.669922 C 20.065089 12.174024 20.825976 12.934911 21.330078 13.859375 L 13.859375 21.330078 C 12.934911 20.825976 12.174024 20.065089 11.669922 19.140625 L 19.140625 11.669922 z M 21.892578 15.417969 C 21.961789 15.767904 22 16.129003 22 16.5 C 22 19.549411 19.549411 22 16.5 22 C 16.129003 22 15.767904 21.961789 15.417969 21.892578 L 21.892578 15.417969 z M 16.5 26 C 12.369709 26 9 29.369709 9 33.5 C 9 37.630291 12.369709 41 16.5 41 C 20.630291 41 24 37.630291 24 33.5 C 24 29.369709 20.630291 26 16.5 26 z M 33.5 26 C 29.369709 26 26 29.369709 26 33.5 C 26 37.630291 29.369709 41 33.5 41 C 37.630291 41 41 37.630291 41 33.5 C 41 29.369709 37.630291 26 33.5 26 z M 16.5 28 C 19.549411 28 22 30.450589 22 33.5 C 22 36.549411 19.549411 39 16.5 39 C 13.450589 39 11 36.549411 11 33.5 C 11 30.450589 13.450589 28 16.5 28 z M 33.5 28 C 33.870997 28 34.232096 28.038211 34.582031 28.107422 L 28.107422 34.582031 C 28.038211 34.232096 28 33.870997 28 33.5 C 28 30.450589 30.450589 28 33.5 28 z M 36.140625 28.669922 C 37.065089 29.174024 37.825976 29.934911 38.330078 30.859375 L 30.859375 38.330078 C 29.934911 37.825976 29.174024 37.065089 28.669922 36.140625 L 36.140625 28.669922 z M 38.892578 32.417969 C 38.961789 32.767904 39 33.129003 39 33.5 C 39 36.549411 36.549411 39 33.5 39 C 33.129003 39 32.767904 38.961789 32.417969 38.892578 L 38.892578 32.417969 z"/></svg>