<svg xmlns="http://www.w3.org/2000/svg"  viewBox="0 0 50 50" width="1000px" height="1000px"><path fill="none" stroke="#000" stroke-linecap="round" stroke-linejoin="round" stroke-miterlimit="10" stroke-width="2" d="M1.021 36.194C22.511 15.258 32 33.322 44 33.322M33.541 30.012c7.31.416 12.459-.69 15.097-4.669M41.261 33.007c3.124.696 5.498.28 7.654-.951M29.465 28.129c7.641.074 14.024-3.147 16.109-8.033M26.383 26.655C33.98 25.988 39.064 21.4 40.58 16.343M22.239 26.014c7.825-2.394 11.023-6.989 12.137-11.159M18.096 26.081c6.194-2.592 9.654-8.353 9.873-12.276M14.349 26.975c5.396-3.951 7.162-8.513 7.651-12.546M8.621 30.012c5.16-3.93 6.239-8.288 6.485-12.222M6.273 31.586c2.494-3.271 2.887-6.741 2.849-9.862"/></svg>