<svg xmlns="http://www.w3.org/2000/svg"  viewBox="0 0 50 50" width="1000px" height="1000px"><path d="M 25 2 C 15.126556 2 9.5644531 8.6464844 9.5644531 8.6464844 A 1.0001 1.0001 0 0 0 9.4394531 9.7324219 L 10.560547 11.978516 L 8.4804688 11.457031 A 1.0001 1.0001 0 0 0 7.359375 11.951172 A 1.0001 1.0001 0 0 0 7.3574219 11.953125 C 7.3501019 11.966015 7.34085 11.983019 7.328125 12.005859 C 7.30155 12.053559 7.264106 12.122185 7.2167969 12.210938 C 7.122175 12.388399 6.9883547 12.645192 6.8300781 12.974609 C 6.513525 13.633443 6.0961705 14.581626 5.6777344 15.753906 C 4.8408622 18.098467 4 21.34581 4 25 C 4 32.308381 7.3730469 38.074219 7.3730469 38.074219 A 1.0001 1.0001 0 0 0 8.4804688 38.541016 L 10.5625 38.019531 L 9.4394531 40.265625 A 1.0001 1.0001 0 0 0 9.5644531 41.353516 C 9.5644531 41.353516 15.126556 47.998047 25 47.998047 C 34.873444 47.998047 40.435547 41.353516 40.435547 41.353516 A 1.0001 1.0001 0 0 0 40.560547 40.265625 L 39.4375 38.019531 L 41.519531 38.541016 A 1.0001 1.0001 0 0 0 42.626953 38.074219 C 42.626953 38.074219 46 32.308381 46 25 C 46 17.691619 42.626953 11.925781 42.626953 11.925781 A 1.0001 1.0001 0 0 0 41.519531 11.458984 L 39.4375 11.980469 L 40.560547 9.734375 A 1.0001 1.0001 0 0 0 40.667969 9.2871094 C 40.667969 9.2871094 40.425697 8.6350256 40.412109 8.6191406 C 40.398519 8.6032556 40.379169 8.5815575 40.355469 8.5546875 C 40.308058 8.5009472 40.240618 8.4259503 40.152344 8.3320312 C 39.975795 8.1441933 39.716901 7.8823972 39.378906 7.5703125 C 38.702917 6.9461432 37.708645 6.1207669 36.404297 5.296875 C 33.795601 3.6490912 29.936722 2 25 2 z M 25 4 C 29.492278 4 32.968384 5.4928152 35.335938 6.9882812 C 36.519714 7.7360143 37.422644 8.4843256 38.023438 9.0390625 C 38.218275 9.2189655 38.328404 9.3362284 38.458984 9.46875 L 36.677734 13.029297 A 1.0001 1.0001 0 0 0 37.814453 14.447266 L 41.191406 13.601562 C 41.674238 14.492991 44 18.944128 44 25 C 44 31.055872 41.674238 35.50701 41.191406 36.398438 L 37.814453 35.552734 A 1.0001 1.0001 0 0 0 36.677734 36.970703 L 38.455078 40.523438 C 37.413782 41.637709 32.889004 45.998047 25 45.998047 C 17.110996 45.998047 12.586218 41.637709 11.544922 40.523438 L 13.322266 36.970703 A 1.0001 1.0001 0 0 0 12.185547 35.552734 L 8.8085938 36.398438 C 8.3257617 35.50701 6 31.055872 6 25 C 6 21.65419 6.7784191 18.616971 7.5605469 16.425781 C 7.9516108 15.330186 8.3422406 14.446557 8.6328125 13.841797 C 8.6858975 13.731312 8.7140025 13.681309 8.7597656 13.589844 L 12.185547 14.445312 A 1.0001 1.0001 0 0 0 13.322266 13.029297 L 11.544922 9.4746094 C 12.586218 8.3603383 17.110996 4 25 4 z M 18 19 C 16.510417 19 15.306277 19.343792 14.425781 19.962891 C 13.545286 20.581989 13 21.519445 13 22.5 C 13 23.480555 13.545286 24.418011 14.425781 25.037109 C 15.306277 25.656208 16.510417 26 18 26 C 19.489583 26 20.693723 25.656208 21.574219 25.037109 C 22.454714 24.418011 23 23.480555 23 22.5 C 23 21.519445 22.454714 20.581989 21.574219 19.962891 C 20.693723 19.343792 19.489583 19 18 19 z M 32 19 C 30.510417 19 29.306277 19.343792 28.425781 19.962891 C 27.545286 20.581989 27 21.519445 27 22.5 C 27 23.480555 27.545286 24.418011 28.425781 25.037109 C 29.306277 25.656208 30.510417 26 32 26 C 33.489583 26 34.693723 25.656208 35.574219 25.037109 C 36.454714 24.418011 37 23.480555 37 22.5 C 37 21.519445 36.454714 20.581989 35.574219 19.962891 C 34.693723 19.343792 33.489583 19 32 19 z M 18 21 C 19.177083 21 19.972944 21.281208 20.425781 21.599609 C 20.878619 21.918011 21 22.230555 21 22.5 C 21 22.769445 20.878619 23.081989 20.425781 23.400391 C 19.972944 23.718792 19.177083 24 18 24 C 16.822917 24 16.027056 23.718792 15.574219 23.400391 C 15.121381 23.081989 15 22.769445 15 22.5 C 15 22.230555 15.121381 21.918011 15.574219 21.599609 C 16.027056 21.281208 16.822917 21 18 21 z M 32 21 C 33.177083 21 33.972944 21.281208 34.425781 21.599609 C 34.878619 21.918011 35 22.230555 35 22.5 C 35 22.769445 34.878619 23.081989 34.425781 23.400391 C 33.972944 23.718792 33.177083 24 32 24 C 30.822917 24 30.027056 23.718792 29.574219 23.400391 C 29.121381 23.081989 29 22.769445 29 22.5 C 29 22.230555 29.121381 21.918011 29.574219 21.599609 C 30.027056 21.281208 30.822917 21 32 21 z M 22.15625 28.001953 A 1.0001 1.0001 0 0 0 21.152344 28.771484 C 20.940852 29.616111 21.061834 30.521272 21.611328 31.142578 C 22.084031 31.677058 22.764717 31.886174 23.474609 31.945312 A 1.0001 1.0001 0 0 0 23.810547 32 L 23.8125 32 L 26.1875 32 A 1.0001 1.0001 0 0 0 26.519531 31.945312 C 27.231854 31.887052 27.914671 31.678525 28.388672 31.142578 C 28.938165 30.521272 29.060367 29.617805 28.849609 28.773438 A 1.0004593 1.0004593 0 1 0 26.908203 29.257812 C 27.012446 29.675445 26.939885 29.762666 26.890625 29.818359 C 26.841324 29.874055 26.6534 30 26.1875 30 L 23.8125 30 C 23.8125 30 23.810547 30 23.810547 30 C 23.347941 29.999347 23.158503 29.873908 23.109375 29.818359 C 23.060115 29.762669 22.98729 29.675186 23.091797 29.257812 A 1.0001 1.0001 0 0 0 22.15625 28.001953 z M 25 34 C 23.783081 34 22.463861 34.19332 21.355469 34.5625 C 20.801273 34.74709 20.298868 34.969056 19.865234 35.298828 C 19.4316 35.628601 19 36.152394 19 36.849609 C 19 37.546825 19.40238 38.05459 19.820312 38.412109 C 20.238246 38.769629 20.73789 39.03604 21.292969 39.263672 C 22.403127 39.718935 23.737812 40 25 40 C 26.262188 40 27.596873 39.718935 28.707031 39.263672 C 29.26211 39.03604 29.761754 38.769629 30.179688 38.412109 C 30.597619 38.05459 31 37.546825 31 36.849609 C 31 36.152394 30.5684 35.628601 30.134766 35.298828 C 29.701132 34.969056 29.198727 34.74709 28.644531 34.5625 C 27.536139 34.19332 26.216919 34 25 34 z M 25 36 C 25.992081 36 27.172361 36.179414 28.011719 36.458984 C 28.4234 36.596106 28.744068 36.762569 28.90625 36.882812 C 28.88689 36.904322 28.918316 36.858828 28.878906 36.892578 C 28.704495 37.041778 28.368015 37.24232 27.949219 37.414062 C 27.111623 37.757515 25.946812 38 25 38 C 24.053188 38 22.888373 37.757549 22.050781 37.414062 C 21.631985 37.24232 21.295505 37.041778 21.121094 36.892578 C 21.081684 36.858858 21.11309 36.904362 21.09375 36.882812 C 21.255932 36.762569 21.5766 36.596106 21.988281 36.458984 C 22.827635 36.179448 24.007919 36 25 36 z"/></svg>