<svg xmlns="http://www.w3.org/2000/svg"  viewBox="0 0 50 50" width="1000px" height="1000px"><path d="M 25 4 C 20.660156 4 16.722656 5.273438 13.8125 7.40625 C 10.902344 9.539063 9 12.59375 9 16 C 9 19.40625 10.902344 22.460938 13.8125 24.59375 C 14.902344 25.394531 16.152344 26.058594 17.5 26.59375 C 15.714844 26.898438 14.074219 27.3125 12.65625 27.8125 C 11.042969 28.382813 9.683594 29.074219 8.6875 29.90625 C 7.691406 30.738281 7 31.789063 7 33 L 7 38.375 C 7 40.585938 8.511719 42.996094 11.46875 44.84375 C 14.425781 46.691406 18.871094 48 25 48 C 31.132813 48 35.578125 46.671875 38.53125 44.8125 C 41.484375 42.953125 43 40.558594 43 38.375 L 43 33 C 43 31.789063 42.308594 30.738281 41.3125 29.90625 C 40.316406 29.074219 38.957031 28.382813 37.34375 27.8125 C 35.925781 27.3125 34.285156 26.898438 32.5 26.59375 C 33.847656 26.058594 35.097656 25.394531 36.1875 24.59375 C 39.097656 22.460938 41 19.40625 41 16 C 41 12.59375 39.097656 9.539063 36.1875 7.40625 C 33.277344 5.273438 29.339844 4 25 4 Z M 25 6 C 28.945313 6 32.480469 7.183594 35 9.03125 C 37.519531 10.878906 39 13.332031 39 16 C 39 18.667969 37.519531 21.121094 35 22.96875 C 32.480469 24.816406 28.945313 26 25 26 C 21.054688 26 17.519531 24.816406 15 22.96875 C 12.480469 21.121094 11 18.667969 11 16 C 11 13.332031 12.480469 10.878906 15 9.03125 C 17.519531 7.183594 21.054688 6 25 6 Z M 25.1875 9.15625 C 25.132813 9.164063 25.082031 9.171875 25.03125 9.1875 C 24.90625 9.21875 24.792969 9.269531 24.6875 9.34375 L 17.3125 14.09375 C 16.847656 14.394531 16.714844 15.019531 17.015625 15.484375 C 17.316406 15.949219 17.941406 16.082031 18.40625 15.78125 L 25.78125 11.03125 C 26.207031 10.804688 26.410156 10.304688 26.265625 9.847656 C 26.117188 9.386719 25.664063 9.097656 25.1875 9.15625 Z M 30.8125 10.9375 C 30.652344 10.964844 30.503906 11.027344 30.375 11.125 L 18.5625 18.75 C 18.230469 18.925781 18.023438 19.273438 18.027344 19.648438 C 18.03125 20.023438 18.246094 20.363281 18.585938 20.53125 C 18.921875 20.699219 19.324219 20.660156 19.625 20.4375 L 31.4375 12.8125 C 31.84375 12.589844 32.042969 12.113281 31.917969 11.664063 C 31.789063 11.214844 31.371094 10.914063 30.90625 10.9375 C 30.875 10.9375 30.84375 10.9375 30.8125 10.9375 Z M 32.03125 15.59375 C 31.875 15.609375 31.726563 15.664063 31.59375 15.75 L 24.21875 20.53125 C 23.871094 20.703125 23.65625 21.058594 23.664063 21.445313 C 23.667969 21.832031 23.898438 22.179688 24.253906 22.339844 C 24.605469 22.5 25.019531 22.4375 25.3125 22.1875 L 32.6875 17.4375 C 33.089844 17.191406 33.265625 16.695313 33.105469 16.25 C 32.949219 15.804688 32.5 15.53125 32.03125 15.59375 Z M 25 28 C 29.597656 28 33.761719 28.65625 36.6875 29.6875 C 38.152344 30.203125 39.308594 30.835938 40.03125 31.4375 C 40.753906 32.039063 41 32.554688 41 33 C 41 33.445313 40.753906 33.960938 40.03125 34.5625 C 39.308594 35.164063 38.152344 35.796875 36.6875 36.3125 C 33.761719 37.34375 29.597656 38 25 38 C 20.402344 38 16.238281 37.34375 13.3125 36.3125 C 11.847656 35.796875 10.691406 35.164063 9.96875 34.5625 C 9.246094 33.960938 9 33.445313 9 33 C 9 32.554688 9.246094 32.039063 9.96875 31.4375 C 10.691406 30.835938 11.847656 30.203125 13.3125 29.6875 C 16.238281 28.65625 20.402344 28 25 28 Z M 25 30 C 21.914063 30 19.109375 30.214844 17.03125 30.59375 C 15.992188 30.78125 15.148438 31.019531 14.46875 31.3125 C 14.128906 31.457031 13.835938 31.601563 13.5625 31.84375 C 13.289063 32.085938 13 32.492188 13 33 C 13 33.507813 13.289063 33.914063 13.5625 34.15625 C 13.835938 34.398438 14.128906 34.542969 14.46875 34.6875 C 15.148438 34.980469 15.992188 35.21875 17.03125 35.40625 C 19.109375 35.785156 21.914063 36 25 36 C 28.085938 36 30.890625 35.785156 32.96875 35.40625 C 34.007813 35.21875 34.851563 34.980469 35.53125 34.6875 C 35.871094 34.542969 36.164063 34.398438 36.4375 34.15625 C 36.710938 33.914063 37 33.507813 37 33 C 37 32.492188 36.710938 32.085938 36.4375 31.84375 C 36.164063 31.601563 35.871094 31.457031 35.53125 31.3125 C 34.851563 31.019531 34.007813 30.78125 32.96875 30.59375 C 30.890625 30.214844 28.085938 30 25 30 Z M 25 32 C 27.988281 32 30.691406 32.214844 32.59375 32.5625 C 33.339844 32.699219 33.835938 32.847656 34.28125 33 C 33.835938 33.152344 33.339844 33.300781 32.59375 33.4375 C 30.691406 33.785156 27.988281 34 25 34 C 22.011719 34 19.308594 33.785156 17.40625 33.4375 C 16.660156 33.300781 16.164063 33.152344 15.71875 33 C 16.164063 32.847656 16.660156 32.699219 17.40625 32.5625 C 19.308594 32.214844 22.011719 32 25 32 Z M 9 36.3125 C 9.964844 37.042969 11.195313 37.671875 12.65625 38.1875 C 15.882813 39.328125 20.210938 40 25 40 C 29.789063 40 34.117188 39.328125 37.34375 38.1875 C 38.804688 37.671875 40.035156 37.042969 41 36.3125 L 41 38.375 C 41 39.5625 40.023438 41.488281 37.46875 43.09375 C 34.914063 44.699219 30.839844 46 25 46 C 19.15625 46 15.082031 44.722656 12.53125 43.125 C 9.980469 41.527344 9 39.617188 9 38.375 Z"/></svg>