<svg xmlns="http://www.w3.org/2000/svg"  viewBox="0 0 50 50" width="1000px" height="1000px"><path d="M 14 0 C 11.800781 0 10 1.800781 10 4 C 10 5.214844 10.570313 6.296875 11.4375 7.03125 C 10.621094 7.375 9.886719 7.785156 9.25 8.28125 C 7.421875 9.714844 6.410156 11.695313 6.03125 13.8125 C 5.894531 14.183594 5.988281 14.601563 6.273438 14.878906 C 6.558594 15.15625 6.980469 15.234375 7.347656 15.085938 C 7.714844 14.9375 7.957031 14.582031 7.96875 14.1875 C 8.277344 12.46875 9.085938 10.953125 10.5 9.84375 C 11.753906 8.863281 13.523438 8.175781 16 8.03125 L 16 12.1875 C 14.230469 12.664063 12.695313 14.027344 11.5 15.625 C 10.011719 17.617188 9 20.042969 9 22.21875 L 9 45.3125 C 9 47.882813 11.089844 50 13.65625 50 L 28.34375 50 C 30.910156 50 33 47.882813 33 45.3125 L 33 22.21875 C 33 20.042969 31.988281 17.617188 30.5 15.625 C 29.304688 14.027344 27.769531 12.664063 26 12.1875 L 26 10 L 29.25 10 C 29.28125 10.082031 29.304688 10.171875 29.34375 10.25 C 29.574219 10.6875 29.933594 11.101563 30.53125 11.28125 C 30.550781 11.292969 30.574219 11.304688 30.59375 11.3125 L 42.78125 13.96875 C 43.078125 14.035156 43.386719 13.964844 43.621094 13.777344 C 43.859375 13.585938 43.996094 13.300781 44 13 L 44 2 C 44.003906 1.710938 43.878906 1.4375 43.664063 1.246094 C 43.449219 1.054688 43.160156 0.964844 42.875 1 C 42.84375 1.007813 42.8125 1.019531 42.78125 1.03125 L 30.59375 3.6875 C 30.574219 3.695313 30.550781 3.707031 30.53125 3.71875 C 29.933594 3.898438 29.574219 4.3125 29.34375 4.75 C 29.304688 4.828125 29.28125 4.917969 29.25 5 L 26 5 L 26 3.84375 C 26 2.242188 24.601563 1 23 1 L 19 1 C 18.320313 1 17.671875 1.210938 17.15625 1.59375 C 16.421875 0.640625 15.285156 0 14 0 Z M 14 2 C 15.117188 2 16 2.882813 16 4 C 16 5.117188 15.117188 6 14 6 C 12.882813 6 12 5.117188 12 4 C 12 2.882813 12.882813 2 14 2 Z M 19 3 L 23 3 C 23.609375 3 24 3.421875 24 3.84375 L 24 5.6875 C 23.941406 5.882813 23.941406 6.085938 24 6.28125 L 24 8.6875 C 23.941406 8.882813 23.941406 9.085938 24 9.28125 L 24 12 L 18 12 L 18 7.1875 C 18.027344 7.054688 18.027344 6.914063 18 6.78125 L 18 3.84375 C 18 3.421875 18.390625 3 19 3 Z M 42 3.25 L 42 11.75 L 31.125 9.375 C 31.125 9.375 31.125 9.34375 31.125 9.34375 C 31.136719 9.34375 31.144531 9.347656 31.125 9.3125 C 31.074219 9.214844 31.015625 9.042969 31 8.875 C 31 8.84375 31 8.8125 31 8.78125 L 31 6.21875 C 31.003906 6.175781 31.003906 6.136719 31 6.09375 C 31.019531 5.9375 31.078125 5.777344 31.125 5.6875 C 31.144531 5.652344 31.136719 5.65625 31.125 5.65625 C 31.125 5.65625 31.125 5.625 31.125 5.625 Z M 26 7 L 29 7 L 29 8 L 26 8 Z M 17.21875 14 C 17.261719 13.996094 17.304688 14 17.34375 14 L 24.65625 14 C 25.988281 14 27.644531 15.121094 28.90625 16.8125 C 30.167969 18.503906 31 20.707031 31 22.21875 L 31 45.3125 C 31 46.808594 29.824219 48 28.34375 48 L 13.65625 48 C 12.175781 48 11 46.808594 11 45.3125 L 11 22.21875 C 11 20.707031 11.832031 18.503906 13.09375 16.8125 C 14.320313 15.171875 15.910156 14.066406 17.21875 14 Z"/></svg>