<svg xmlns="http://www.w3.org/2000/svg"  viewBox="0 0 50 50" width="1000px" height="1000px"><path d="M 48.277344 1.726563 L 24.96875 6.386719 L 26.292969 7.707031 L 27.792969 9.207031 L 6.871094 30.128906 C 5.699219 31.300781 5.699219 33.199219 6.871094 34.371094 L 10.332031 37.832031 C 9.1875 38.574219 8.40625 39.277344 7.882813 39.96875 C 7.230469 40.824219 6.96875 41.632813 6.734375 42.269531 C 6.496094 42.90625 6.304688 43.378906 5.757813 43.96875 C 5.214844 44.554688 4.28125 45.257813 2.5625 46.101563 C 2.0625 46.34375 1.859375 46.941406 2.101563 47.4375 C 2.34375 47.9375 2.941406 48.140625 3.4375 47.898438 C 5.296875 46.988281 6.453125 46.164063 7.226563 45.328125 C 8.003906 44.488281 8.355469 43.648438 8.609375 42.964844 C 8.859375 42.28125 9.027344 41.765625 9.472656 41.179688 C 9.875 40.648438 10.5625 40.027344 11.785156 39.285156 L 15.628906 43.128906 C 16.214844 43.714844 16.980469 44.007813 17.75 44.007813 C 18.515625 44.007813 19.285156 43.714844 19.871094 43.128906 L 40.792969 22.207031 L 43.613281 25.03125 Z M 45.726563 4.273438 L 42.386719 20.972656 L 29.027344 7.613281 Z M 29.207031 10.621094 L 34.257813 15.671875 L 26.703125 13.125 Z M 25.125 14.703125 L 37.441406 18.859375 L 39.378906 20.792969 L 36.917969 23.253906 L 21.703125 18.125 Z M 20.125 19.703125 L 35.339844 24.832031 L 31.917969 28.253906 L 16.703125 23.125 Z M 15.125 24.703125 L 30.339844 29.832031 L 27.171875 33 L 11.953125 27.875 Z M 10.375 29.453125 L 25.59375 34.578125 L 22.171875 38 L 8.839844 33.511719 L 8.285156 32.957031 C 8.03125 32.703125 7.992188 32.40625 7.992188 32.25 C 7.992188 32.09375 8.03125 31.796875 8.285156 31.542969 Z M 12.019531 36.691406 L 20.59375 39.578125 L 18.457031 41.714844 C 18.292969 41.878906 18.113281 41.953125 17.964844 41.984375 C 17.878906 42.003906 17.804688 42.007813 17.75 42.007813 C 17.59375 42.007813 17.296875 41.96875 17.042969 41.714844 Z"/></svg>