<svg xmlns="http://www.w3.org/2000/svg"  viewBox="0 0 50 50" width="1000px" height="1000px"><path d="M 9.34375 8.4375 C 9.117188 8.46875 8.90625 8.582031 8.75 8.75 C 4.589844 12.910156 2 18.65625 2 25 C 2 31.34375 4.589844 37.089844 8.75 41.25 C 9.140625 41.636719 9.765625 41.636719 10.15625 41.25 L 17.21875 34.1875 C 17.605469 33.796875 17.605469 33.171875 17.21875 32.78125 C 15.226563 30.789063 14 28.042969 14 25 C 14 21.957031 15.226563 19.210938 17.21875 17.21875 C 17.605469 16.828125 17.605469 16.203125 17.21875 15.8125 L 10.15625 8.75 C 9.949219 8.527344 9.648438 8.414063 9.34375 8.4375 Z M 40.4375 8.4375 C 40.210938 8.46875 40 8.582031 39.84375 8.75 L 32.78125 15.8125 C 32.394531 16.203125 32.394531 16.828125 32.78125 17.21875 C 34.773438 19.210938 36 21.957031 36 25 C 36 28.042969 34.773438 30.789063 32.78125 32.78125 C 32.394531 33.171875 32.394531 33.796875 32.78125 34.1875 L 39.84375 41.25 C 40.234375 41.636719 40.859375 41.636719 41.25 41.25 C 45.410156 37.089844 48 31.34375 48 25 C 48 18.65625 45.410156 12.910156 41.25 8.75 C 41.042969 8.527344 40.742188 8.414063 40.4375 8.4375 Z M 9.53125 10.9375 L 15.25 16.65625 C 13.308594 18.929688 12 21.78125 12 25 C 12 28.21875 13.308594 31.070313 15.25 33.34375 L 9.53125 39.0625 C 6.140625 35.332031 4 30.445313 4 25 C 4 19.554688 6.140625 14.667969 9.53125 10.9375 Z M 40.46875 10.9375 C 43.859375 14.667969 46 19.554688 46 25 C 46 30.445313 43.859375 35.332031 40.46875 39.0625 L 34.75 33.34375 C 36.691406 31.070313 38 28.21875 38 25 C 38 21.78125 36.691406 18.929688 34.75 16.65625 Z M 25 19 C 21.699219 19 19 21.699219 19 25 C 19 28.300781 21.699219 31 25 31 C 28.300781 31 31 28.300781 31 25 C 31 21.699219 28.300781 19 25 19 Z M 25 21 C 27.222656 21 29 22.777344 29 25 C 29 27.222656 27.222656 29 25 29 C 22.777344 29 21 27.222656 21 25 C 21 22.777344 22.777344 21 25 21 Z"/></svg>