<svg xmlns="http://www.w3.org/2000/svg"  viewBox="0 0 50 50" width="1000px" height="1000px"><path d="M 24 0 L 24 6.03125 C 15.195313 6.472656 8 12.65625 8 20.5 C 8 20.660156 8.023438 20.835938 8.03125 21 L 8 21 C 8 21.289063 8.027344 21.566406 8.09375 21.84375 C 8.476563 25.789063 10.414063 30.78125 13.1875 35.09375 C 16.058594 39.558594 19.820313 43.363281 24 43.90625 L 24 50 L 26 50 L 26 43.90625 C 30.179688 43.363281 33.941406 39.558594 36.8125 35.09375 C 39.585938 30.78125 41.523438 25.789063 41.90625 21.84375 C 41.972656 21.566406 42 21.289063 42 21 L 41.96875 21 C 41.976563 20.835938 42 20.660156 42 20.5 C 42 12.65625 34.804688 6.472656 26 6.03125 L 26 0 Z M 25 8 C 27.113281 8 29.121094 8.378906 30.9375 9.03125 C 30.417969 9.070313 30 9.472656 30 10 C 30 10.550781 30.449219 11 31 11 C 31.550781 11 32 10.550781 32 10 C 32 9.75 31.902344 9.519531 31.75 9.34375 C 35.820313 11.050781 38.777344 14.25 39.6875 18.0625 C 39.292969 18.199219 39 18.5625 39 19 C 39 19.542969 39.429688 19.984375 39.96875 20 C 39.976563 20.164063 40 20.332031 40 20.5 C 40 20.808594 39.96875 21.15625 39.9375 21.5 C 39.828125 21.875 39.574219 22.25 39.15625 22.65625 C 38.550781 23.242188 37.589844 23.839844 36.28125 24.34375 C 35.867188 24.503906 35.417969 24.671875 34.9375 24.8125 C 34.84375 24.359375 34.480469 24 34 24 C 33.449219 24 33 24.449219 33 25 C 33 25.09375 33.039063 25.164063 33.0625 25.25 C 31.6875 25.535156 30.144531 25.753906 28.4375 25.875 C 28.761719 25.710938 29 25.390625 29 25 C 29 24.449219 28.550781 24 28 24 C 27.449219 24 27 24.449219 27 25 C 27 25.414063 27.265625 25.753906 27.625 25.90625 C 26.78125 25.953125 25.910156 26 25 26 C 24.089844 26 23.21875 25.953125 22.375 25.90625 C 22.734375 25.753906 23 25.414063 23 25 C 23 24.449219 22.550781 24 22 24 C 21.449219 24 21 24.449219 21 25 C 21 25.390625 21.238281 25.710938 21.5625 25.875 C 19.855469 25.753906 18.3125 25.535156 16.9375 25.25 C 16.960938 25.164063 17 25.09375 17 25 C 17 24.449219 16.550781 24 16 24 C 15.519531 24 15.15625 24.359375 15.0625 24.8125 C 14.582031 24.671875 14.132813 24.503906 13.71875 24.34375 C 12.410156 23.839844 11.449219 23.242188 10.84375 22.65625 C 10.425781 22.25 10.171875 21.875 10.0625 21.5 C 10.03125 21.15625 10 20.808594 10 20.5 C 10 20.332031 10.023438 20.167969 10.03125 20 C 10.570313 19.984375 11 19.542969 11 19 C 11 18.550781 10.6875 18.1875 10.28125 18.0625 C 11.1875 14.253906 14.179688 11.054688 18.25 9.34375 C 18.097656 9.519531 18 9.75 18 10 C 18 10.550781 18.449219 11 19 11 C 19.550781 11 20 10.550781 20 10 C 20 9.472656 19.582031 9.070313 19.0625 9.03125 C 20.878906 8.378906 22.886719 8 25 8 Z M 25 9 C 24.449219 9 24 9.449219 24 10 C 24 10.550781 24.449219 11 25 11 C 25.550781 11 26 10.550781 26 10 C 26 9.449219 25.550781 9 25 9 Z M 16 12 C 15.449219 12 15 12.449219 15 13 C 15 13.550781 15.449219 14 16 14 C 16.550781 14 17 13.550781 17 13 C 17 12.449219 16.550781 12 16 12 Z M 22 12 C 21.449219 12 21 12.449219 21 13 C 21 13.550781 21.449219 14 22 14 C 22.550781 14 23 13.550781 23 13 C 23 12.449219 22.550781 12 22 12 Z M 28 12 C 27.449219 12 27 12.449219 27 13 C 27 13.550781 27.449219 14 28 14 C 28.550781 14 29 13.550781 29 13 C 29 12.449219 28.550781 12 28 12 Z M 34 12 C 33.449219 12 33 12.449219 33 13 C 33 13.550781 33.449219 14 34 14 C 34.550781 14 35 13.550781 35 13 C 35 12.449219 34.550781 12 34 12 Z M 13 15 C 12.449219 15 12 15.449219 12 16 C 12 16.550781 12.449219 17 13 17 C 13.550781 17 14 16.550781 14 16 C 14 15.449219 13.550781 15 13 15 Z M 19 15 C 18.449219 15 18 15.449219 18 16 C 18 16.550781 18.449219 17 19 17 C 19.550781 17 20 16.550781 20 16 C 20 15.449219 19.550781 15 19 15 Z M 25 15 C 24.449219 15 24 15.449219 24 16 C 24 16.550781 24.449219 17 25 17 C 25.550781 17 26 16.550781 26 16 C 26 15.449219 25.550781 15 25 15 Z M 31 15 C 30.449219 15 30 15.449219 30 16 C 30 16.550781 30.449219 17 31 17 C 31.550781 17 32 16.550781 32 16 C 32 15.449219 31.550781 15 31 15 Z M 37 15 C 36.449219 15 36 15.449219 36 16 C 36 16.550781 36.449219 17 37 17 C 37.550781 17 38 16.550781 38 16 C 38 15.449219 37.550781 15 37 15 Z M 16 18 C 15.449219 18 15 18.449219 15 19 C 15 19.550781 15.449219 20 16 20 C 16.550781 20 17 19.550781 17 19 C 17 18.449219 16.550781 18 16 18 Z M 22 18 C 21.449219 18 21 18.449219 21 19 C 21 19.550781 21.449219 20 22 20 C 22.550781 20 23 19.550781 23 19 C 23 18.449219 22.550781 18 22 18 Z M 28 18 C 27.449219 18 27 18.449219 27 19 C 27 19.550781 27.449219 20 28 20 C 28.550781 20 29 19.550781 29 19 C 29 18.449219 28.550781 18 28 18 Z M 34 18 C 33.449219 18 33 18.449219 33 19 C 33 19.550781 33.449219 20 34 20 C 34.550781 20 35 19.550781 35 19 C 35 18.449219 34.550781 18 34 18 Z M 13 21 C 12.449219 21 12 21.449219 12 22 C 12 22.550781 12.449219 23 13 23 C 13.550781 23 14 22.550781 14 22 C 14 21.449219 13.550781 21 13 21 Z M 19 21 C 18.449219 21 18 21.449219 18 22 C 18 22.550781 18.449219 23 19 23 C 19.550781 23 20 22.550781 20 22 C 20 21.449219 19.550781 21 19 21 Z M 25 21 C 24.449219 21 24 21.449219 24 22 C 24 22.550781 24.449219 23 25 23 C 25.550781 23 26 22.550781 26 22 C 26 21.449219 25.550781 21 25 21 Z M 31 21 C 30.449219 21 30 21.449219 30 22 C 30 22.550781 30.449219 23 31 23 C 31.550781 23 32 22.550781 32 22 C 32 21.449219 31.550781 21 31 21 Z M 37 21 C 36.449219 21 36 21.449219 36 22 C 36 22.550781 36.449219 23 37 23 C 37.550781 23 38 22.550781 38 22 C 38 21.449219 37.550781 21 37 21 Z M 10.8125 25.125 C 11.457031 25.527344 12.175781 25.902344 13 26.21875 C 15.960938 27.359375 20.0625 28 25 28 C 29.9375 28 34.039063 27.359375 37 26.21875 C 37.824219 25.902344 38.542969 25.527344 39.1875 25.125 C 38.355469 27.972656 36.941406 31.207031 35.125 34.03125 C 32.199219 38.585938 28.316406 42 25 42 C 21.683594 42 17.800781 38.585938 14.875 34.03125 C 13.058594 31.207031 11.644531 27.972656 10.8125 25.125 Z"/></svg>