<svg fill="#000000" xmlns="http://www.w3.org/2000/svg"  viewBox="0 0 50 50" width="1000px" height="1000px"><path d="M 29 6 C 28.914063 6 28.832031 6.011719 28.75 6.03125 L 16.710938 9.109375 C 16.269531 9.21875 15.960938 9.613281 15.957031 10.066406 C 15.957031 10.523438 16.257813 10.921875 16.695313 11.042969 C 16.769531 11.0625 17.621094 11.527344 18.082031 12.359375 C 18.535156 13.175781 18.789063 14.351563 18.128906 16.144531 C 17.453125 16.53125 16.796875 16.925781 16.1875 17.324219 C 13.769531 18.898438 12.292969 20.183594 11.457031 20.941406 C 10.621094 19.476563 8 15.300781 2.796875 15.300781 C 2.445313 15.300781 1.933594 15.351563 1.53125 15.941406 C 1.328125 16.238281 1.253906 16.636719 1.300781 16.984375 C 1.347656 17.328125 1.476563 17.632813 1.671875 17.953125 C 2.546875 19.425781 4.117188 22.410156 4.117188 24.800781 C 4.117188 27.179688 2.46875 30.875 1.53125 32.171875 C 1.199219 32.625 1 33.269531 1.28125 33.871094 C 1.558594 34.472656 2.214844 34.742188 2.757813 34.742188 C 6.566406 34.742188 9.042969 32.898438 10.441406 31.089844 C 11.046875 30.308594 11.402344 29.570313 11.6875 28.925781 C 13.550781 30.605469 18.085938 34.230469 23.996094 35.628906 C 24.507813 36.625 24.347656 37.710938 24.097656 38.757813 C 23.964844 39.320313 23.792969 39.808594 23.777344 40.414063 C 23.769531 40.71875 23.808594 41.132813 24.125 41.5 C 24.441406 41.871094 24.929688 42 25.304688 42 L 28.988281 42 C 29.171875 42 29.351563 41.949219 29.507813 41.855469 C 29.410156 41.914063 29.910156 41.667969 30.425781 41.390625 C 30.945313 41.113281 31.597656 40.71875 32.253906 40.183594 C 33.433594 39.21875 34.644531 37.734375 34.996094 35.6875 C 41.363281 34.570313 45.386719 31.71875 47.886719 28.027344 C 48.230469 27.515625 48.632813 26.9375 48.777344 26.148438 C 48.917969 25.359375 48.734375 24.460938 48.203125 23.511719 C 47.492188 22.230469 45.960938 19.539063 42.925781 17.203125 C 41.308594 15.960938 39.238281 14.828125 36.667969 14.035156 C 36.25 12.386719 34.511719 7.082031 29.195313 6.019531 C 29.128906 6.007813 29.0625 6 29 6 Z M 28.9375 8.046875 C 32.152344 8.773438 33.695313 11.664063 34.371094 13.457031 C 32.671875 13.117188 30.808594 12.902344 28.714844 12.902344 C 25.8125 12.902344 22.988281 13.761719 20.460938 14.933594 C 20.617188 13.515625 20.335938 12.304688 19.832031 11.390625 C 19.632813 11.03125 19.382813 10.820313 19.15625 10.546875 Z M 28.714844 14.902344 C 34.949219 14.902344 39 16.710938 41.707031 18.792969 C 44.414063 20.871094 45.757813 23.226563 46.453125 24.480469 C 46.457031 24.480469 46.457031 24.480469 46.457031 24.480469 C 46.839844 25.171875 46.859375 25.503906 46.808594 25.789063 C 46.753906 26.074219 46.5625 26.410156 46.230469 26.90625 C 43.351563 31.160156 38.4375 34.199219 28.714844 34.199219 C 19.652344 34.199219 12.015625 26.515625 12.015625 26.515625 C 11.761719 26.253906 11.386719 26.152344 11.035156 26.25 C 10.683594 26.347656 10.414063 26.625 10.328125 26.980469 C 10.328125 26.980469 9.984375 28.410156 8.859375 29.863281 C 7.832031 31.195313 6.195313 32.4375 3.507813 32.65625 C 4.714844 30.777344 6.117188 27.691406 6.117188 24.800781 C 6.117188 21.902344 4.675781 19.214844 3.710938 17.558594 C 7.78125 18.253906 10.410156 22.871094 10.410156 22.871094 C 10.554688 23.15625 10.824219 23.355469 11.140625 23.40625 C 11.453125 23.457031 11.773438 23.355469 12 23.132813 C 12 23.132813 14.105469 21.070313 17.28125 19 C 20.457031 16.925781 24.675781 14.902344 28.714844 14.902344 Z M 38 22 C 36.894531 22 36 22.898438 36 24 C 36 25.105469 36.894531 26 38 26 C 39.105469 26 40 25.105469 40 24 C 40 22.898438 39.105469 22 38 22 Z M 32.882813 35.980469 C 32.527344 37.128906 31.789063 37.976563 30.988281 38.632813 C 30.464844 39.0625 29.921875 39.390625 29.480469 39.628906 C 29.160156 39.800781 28.972656 39.890625 28.753906 40 L 25.875 40 C 25.921875 39.769531 25.949219 39.609375 26.042969 39.21875 C 26.242188 38.378906 26.453125 37.230469 26.222656 36.03125 C 27.035156 36.132813 27.863281 36.199219 28.714844 36.199219 C 30.199219 36.199219 31.578125 36.117188 32.882813 35.980469 Z"/></svg>