<svg xmlns="http://www.w3.org/2000/svg"  viewBox="0 0 50 50" width="1000px" height="1000px"><path d="M 37 9 C 31.855469 9 24.039063 11.414063 16.9375 14.125 C 13.386719 15.480469 10.03125 16.929688 7.34375 18.1875 C 4.65625 19.445313 2.671875 20.464844 1.65625 21.21875 C 0.601563 22 0 23.257813 0 24.5625 C 0 25.800781 0.539063 26.960938 1.5 27.75 C 2.5 28.570313 4.46875 29.671875 7.15625 31.03125 C 9.84375 32.390625 13.214844 33.96875 16.78125 35.4375 C 23.917969 38.378906 31.773438 41 37 41 C 44.414063 41 49.5 38.125 49.5 38.125 C 49.960938 37.863281 50.140625 37.289063 49.90625 36.8125 C 49.90625 36.8125 47.238281 31.320313 45.96875 26.71875 C 45.882813 26.417969 45.664063 26.175781 45.375 26.0625 L 42.71875 25 L 45.375 23.9375 C 45.664063 23.824219 45.882813 23.582031 45.96875 23.28125 C 47.238281 18.679688 49.90625 13.1875 49.90625 13.1875 C 50.132813 12.734375 49.984375 12.183594 49.5625 11.90625 C 49.5625 11.90625 48.410156 11.121094 46.3125 10.40625 C 44.214844 9.691406 41.105469 9 37 9 Z M 37 11 C 40.878906 11 43.75 11.660156 45.65625 12.3125 C 47.046875 12.789063 47.339844 13.011719 47.6875 13.21875 C 47.136719 14.378906 45.414063 18.136719 44.21875 22.21875 L 39.78125 24 L 14 24 C 13.96875 24 13.9375 24 13.90625 24 C 13.355469 24.027344 12.925781 24.496094 12.953125 25.046875 C 12.980469 25.597656 13.449219 26.027344 14 26 L 39.78125 26 L 44.21875 27.78125 C 45.40625 31.835938 47.089844 35.558594 47.65625 36.75 C 46.625 37.273438 42.980469 39 37 39 C 32.480469 39 24.566406 36.460938 17.53125 33.5625 C 14.011719 32.113281 10.695313 30.582031 8.0625 29.25 C 5.429688 27.917969 3.421875 26.714844 2.78125 26.1875 C 2.285156 25.78125 2 25.210938 2 24.5625 C 2 23.878906 2.300781 23.214844 2.84375 22.8125 C 3.523438 22.308594 5.550781 21.234375 8.1875 20 C 10.824219 18.765625 14.152344 17.335938 17.65625 16 C 24.664063 13.328125 32.515625 11 37 11 Z M 39.96875 13.96875 C 39.914063 13.976563 39.863281 13.984375 39.8125 14 C 39.558594 14.050781 39.335938 14.195313 39.1875 14.40625 C 39.1875 14.40625 37.476563 16.792969 37 20.875 C 36.929688 21.425781 37.324219 21.929688 37.875 22 C 38.425781 22.070313 38.929688 21.675781 39 21.125 C 39.425781 17.484375 40.8125 15.59375 40.8125 15.59375 C 41.0625 15.285156 41.105469 14.859375 40.921875 14.507813 C 40.738281 14.152344 40.363281 13.941406 39.96875 13.96875 Z M 33.65625 15 C 33.359375 15.039063 33.09375 15.210938 32.9375 15.46875 C 32.9375 15.46875 31.464844 17.855469 31 20.84375 C 30.914063 21.394531 31.292969 21.914063 31.84375 22 C 32.394531 22.085938 32.914063 21.707031 33 21.15625 C 33.390625 18.648438 34.65625 16.53125 34.65625 16.53125 C 34.871094 16.199219 34.871094 15.773438 34.65625 15.441406 C 34.4375 15.109375 34.046875 14.9375 33.65625 15 Z M 27.5625 15.96875 C 27.507813 15.976563 27.457031 15.984375 27.40625 16 C 27.183594 16.046875 26.988281 16.167969 26.84375 16.34375 C 26.84375 16.34375 25.28125 18.1875 25 20.90625 C 24.949219 21.457031 25.355469 21.949219 25.90625 22 C 26.457031 22.050781 26.949219 21.644531 27 21.09375 C 27.214844 19.023438 28.375 17.65625 28.375 17.65625 C 28.664063 17.355469 28.734375 16.90625 28.554688 16.53125 C 28.371094 16.15625 27.976563 15.929688 27.5625 15.96875 Z M 20.84375 17.28125 C 20.578125 17.324219 20.34375 17.46875 20.1875 17.6875 C 20.1875 17.6875 19.257813 18.953125 19 20.875 C 18.929688 21.425781 19.324219 21.929688 19.875 22 C 20.425781 22.070313 20.929688 21.675781 21 21.125 C 21.191406 19.695313 21.8125 18.875 21.8125 18.875 C 22.0625 18.546875 22.089844 18.097656 21.875 17.746094 C 21.660156 17.394531 21.25 17.207031 20.84375 17.28125 Z M 25.90625 27.96875 C 25.863281 27.976563 25.820313 27.988281 25.78125 28 C 25.277344 28.109375 24.941406 28.582031 25 29.09375 C 25.28125 31.8125 26.84375 33.65625 26.84375 33.65625 C 27.207031 34.078125 27.84375 34.128906 28.265625 33.765625 C 28.6875 33.402344 28.738281 32.765625 28.375 32.34375 C 28.375 32.34375 27.214844 30.976563 27 28.90625 C 26.984375 28.636719 26.859375 28.382813 26.652344 28.203125 C 26.445313 28.027344 26.175781 27.941406 25.90625 27.96875 Z M 37.875 27.96875 C 37.84375 27.976563 37.8125 27.988281 37.78125 28 C 37.265625 28.109375 36.921875 28.601563 37 29.125 C 37.476563 33.207031 39.1875 35.59375 39.1875 35.59375 C 39.515625 36.042969 40.144531 36.140625 40.59375 35.8125 C 41.042969 35.484375 41.140625 34.855469 40.8125 34.40625 C 40.8125 34.40625 39.425781 32.515625 39 28.875 C 38.976563 28.601563 38.84375 28.351563 38.632813 28.183594 C 38.417969 28.011719 38.144531 27.933594 37.875 27.96875 Z M 19.84375 28 C 19.300781 28.082031 18.925781 28.582031 19 29.125 C 19.257813 31.046875 20.1875 32.3125 20.1875 32.3125 C 20.515625 32.761719 21.144531 32.859375 21.59375 32.53125 C 22.042969 32.203125 22.140625 31.574219 21.8125 31.125 C 21.8125 31.125 21.191406 30.304688 21 28.875 C 20.96875 28.601563 20.828125 28.355469 20.609375 28.1875 C 20.390625 28.023438 20.113281 27.957031 19.84375 28 Z M 31.84375 28 C 31.578125 28.039063 31.335938 28.183594 31.179688 28.398438 C 31.019531 28.617188 30.957031 28.890625 31 29.15625 C 31.464844 32.144531 32.9375 34.53125 32.9375 34.53125 C 33.230469 35.007813 33.855469 35.152344 34.328125 34.859375 C 34.804688 34.566406 34.949219 33.945313 34.65625 33.46875 C 34.65625 33.46875 33.390625 31.351563 33 28.84375 C 32.960938 28.578125 32.816406 28.335938 32.601563 28.179688 C 32.382813 28.019531 32.109375 27.957031 31.84375 28 Z"/></svg>