<svg xmlns="http://www.w3.org/2000/svg"  viewBox="0 0 50 50" width="1000px" height="1000px"><path d="M 26 3.9902344 A 1.0001 1.0001 0 0 0 25.705078 5.9550781 L 32.351562 8 L 15.712891 8 L 20.40625 5.9140625 A 1.0001 1.0001 0 0 0 20.050781 3.9941406 A 1.0001 1.0001 0 0 0 19.59375 4.0859375 L 10.59375 8.0859375 A 1.0001 1.0001 0 0 0 10.28125 8.3007812 C 9.0229092 8.6573677 8 9.6343993 8 11 L 8 20.832031 A 1.0001 1.0001 0 0 0 8 21.158203 L 8 42 C 8 43.64497 9.3550302 45 11 45 L 39 45 C 40.64497 45 42 43.64497 42 42 L 42 21.167969 A 1.0001 1.0001 0 0 0 42 20.841797 L 42 11 C 42 9.6366079 40.979865 8.6613558 39.724609 8.3027344 A 1.0001 1.0001 0 0 0 39.294922 8.0449219 L 26.294922 4.0449219 A 1.0001 1.0001 0 0 0 26 3.9902344 z M 11.082031 10 L 38.933594 10 A 1.0001 1.0001 0 0 0 39.007812 10.003906 C 39.568159 10.00881 40 10.438176 40 11 L 40 20 L 10 20 L 10 11 C 10 10.439778 10.430276 10.013178 10.988281 10.005859 A 1.0001 1.0001 0 0 0 11.082031 10 z M 14.984375 11.986328 A 1.0001 1.0001 0 0 0 14 13 L 14 14 L 13 14 A 1.0001 1.0001 0 1 0 13 16 L 14 16 L 14 17 A 1.0001 1.0001 0 1 0 16 17 L 16 16 L 17 16 A 1.0001 1.0001 0 1 0 17 14 L 16 14 L 16 13 A 1.0001 1.0001 0 0 0 14.984375 11.986328 z M 33 14 A 1.0001 1.0001 0 1 0 33 16 L 37 16 A 1.0001 1.0001 0 1 0 37 14 L 33 14 z M 10 22 L 40 22 L 40 42 C 40 42.56503 39.56503 43 39 43 L 11 43 C 10.43497 43 10 42.56503 10 42 L 10 22 z"/></svg>