<svg xmlns="http://www.w3.org/2000/svg"  viewBox="0 0 50 50" width="1000px" height="1000px"><path d="M 7 3 A 1.0001 1.0001 0 0 0 6 4 L 6 46 A 1.0001 1.0001 0 0 0 7 47 L 43 47 A 1.0001 1.0001 0 0 0 44 46 L 44 4 A 1.0001 1.0001 0 0 0 43 3 L 7 3 z M 8.6171875 5 L 41.382812 5 L 38.935547 9.8945312 C 38.596103 10.573419 37.905724 11 37.146484 11 L 27.8125 11 C 27.395141 9.8426699 26.293159 9 25 9 C 23.706841 9 22.604859 9.8426699 22.1875 11 L 12.853516 11 C 12.094276 11 11.403897 10.573419 11.064453 9.8945312 L 8.6171875 5 z M 8 8.234375 L 9.2773438 10.789062 C 9.9538997 12.142176 11.340755 13 12.853516 13 L 22.1875 13 C 22.491301 13.842436 23.157564 14.508699 24 14.8125 L 24 40 L 11 40 A 1.0001 1.0001 0 0 0 10.21875 40.375 L 8 43.148438 L 8 8.234375 z M 42 8.234375 L 42 43.148438 L 39.78125 40.375 A 1.0001 1.0001 0 0 0 39 40 L 26 40 L 26 14.8125 C 26.842436 14.508699 27.508699 13.842436 27.8125 13 L 37.146484 13 C 38.659245 13 40.0461 12.142176 40.722656 10.789062 L 42 8.234375 z M 25 11 C 25.564129 11 26 11.435871 26 12 C 26 12.564129 25.564129 13 25 13 C 24.435871 13 24 12.564129 24 12 C 24 11.435871 24.435871 11 25 11 z M 11.480469 42 L 38.519531 42 L 40.919922 45 L 9.0800781 45 L 11.480469 42 z"/></svg>