<svg xmlns="http://www.w3.org/2000/svg"  viewBox="0 0 50 50" width="1000px" height="1000px"><path d="M 40.728516 2.0136719 C 39.929947 2.0788479 39.198732 2.3298961 38.529297 2.546875 C 33.429288 4.1998385 26.609693 3.3199944 19.623047 10.306641 C 18.797094 11.132592 18.06991 12.007541 17.423828 12.90625 C 16.516136 11.609789 15.660936 10.381505 15.015625 9.1171875 C 14.691608 8.4821536 14.34825 7.7790296 13.824219 7.1621094 C 13.300187 6.5451891 12.486787 6 11.5 6 C 10.513213 6 9.6998129 6.5451891 9.1757812 7.1621094 C 8.6517497 7.7790296 8.3083923 8.4821536 7.984375 9.1171875 C 5.5127807 13.959629 0 18.208886 0 28.214844 C 0 32.489737 1.2206148 36.376521 3.2597656 39.248047 C 5.2989165 42.119573 8.2199746 44 11.5 44 C 12.729381 44 13.908775 43.73541 15.009766 43.253906 C 17.915103 46.180196 22.558667 48 27.785156 48 C 37.791114 48 42.040371 42.487219 46.882812 40.015625 C 47.517846 39.691608 48.22097 39.34825 48.837891 38.824219 C 49.454811 38.300187 50 37.486787 50 36.5 C 50 35.513213 49.454811 34.699813 48.837891 34.175781 C 48.22097 33.65175 47.517846 33.308392 46.882812 32.984375 C 43.556068 31.286641 40.532015 28.175631 35.695312 26.375 C 42.679768 19.38906 41.800275 12.571302 43.453125 7.4707031 C 43.670127 6.801697 43.921145 6.0699718 43.986328 5.2714844 C 44.051511 4.4729969 43.863647 3.5198974 43.171875 2.828125 C 42.480103 2.1363526 41.527084 1.9484956 40.728516 2.0136719 z M 40.890625 4.0078125 C 41.341806 3.9709885 41.533586 4.0179595 41.757812 4.2421875 C 41.98204 4.4664151 42.029004 4.6583625 41.992188 5.109375 C 41.955368 5.5603875 41.765826 6.1845217 41.548828 6.8535156 C 39.687838 12.596424 40.752651 18.489536 34.279297 24.962891 C 33.87341 25.368777 33.454754 25.742317 33.029297 26.097656 C 32.835858 26.26027 32.63631 26.402145 32.439453 26.554688 C 32.148007 26.778553 31.857905 27.00793 31.560547 27.208984 C 31.491953 27.255936 31.422384 27.296026 31.353516 27.341797 C 28.544071 29.184505 25.524295 30.02442 22.935547 29.876953 C 22.976748 29.3303 23 28.776308 23 28.214844 C 23 27.671891 22.977234 27.151945 22.945312 26.642578 C 22.936568 26.499181 22.929033 26.355744 22.917969 26.214844 C 22.903397 26.03432 22.879694 25.863919 22.861328 25.6875 C 22.804664 25.127982 22.731729 24.587579 22.640625 24.066406 C 22.628676 23.999849 22.616003 23.933134 22.603516 23.867188 C 21.893092 20.014123 20.308078 17.164589 18.667969 14.712891 C 19.347741 13.678711 20.099285 12.658529 21.037109 11.720703 C 27.510464 5.247349 33.40254 6.3122084 39.144531 4.4511719 C 39.814096 4.2341508 40.439444 4.0446363 40.890625 4.0078125 z M 11.5 8 C 11.826213 8 12.00061 8.1059516 12.298828 8.4570312 C 12.597046 8.8081111 12.910392 9.3904241 13.234375 10.025391 C 14.774778 13.043407 16.992099 15.455859 18.664062 18.585938 C 18.698146 18.649716 18.732016 18.71297 18.765625 18.777344 C 18.912409 19.058603 19.052603 19.348547 19.189453 19.642578 C 19.25713 19.788011 19.321823 19.937062 19.386719 20.085938 C 19.508403 20.364928 19.629248 20.645194 19.740234 20.9375 C 19.820631 21.149583 19.890747 21.373948 19.964844 21.59375 C 20.1002 21.994236 20.223822 22.409211 20.335938 22.837891 C 20.417205 23.150106 20.496969 23.464012 20.564453 23.792969 C 20.609945 24.013233 20.648658 24.242517 20.6875 24.470703 C 20.751753 24.851297 20.805115 25.243959 20.849609 25.648438 C 20.877527 25.899527 20.909979 26.145497 20.929688 26.40625 C 20.936532 26.497898 20.941458 26.590695 20.947266 26.683594 C 20.978529 27.177642 21 27.684235 21 28.214844 C 21 28.652388 20.980981 29.082918 20.953125 29.509766 C 20.926641 29.888215 20.887957 30.26365 20.841797 30.636719 C 20.837876 30.668411 20.836081 30.700763 20.832031 30.732422 L 20.832031 30.734375 C 20.830779 30.744073 20.829392 30.753981 20.828125 30.763672 C 20.671493 31.966782 20.404641 33.109464 20.046875 34.173828 C 20.044553 34.180735 20.043345 34.188413 20.041016 34.195312 C 20.03852 34.202754 20.033754 34.209363 20.03125 34.216797 C 18.93713 37.4428 17.005151 39.937292 14.755859 41.142578 L 14.539062 41.257812 C 13.576896 41.733273 12.55691 42 11.5 42 C 8.9810254 42 6.6517241 40.569818 4.890625 38.089844 C 3.1295259 35.60987 2 32.105951 2 28.214844 C 2 18.934801 6.9872193 15.468949 9.765625 10.025391 C 10.089608 9.3904241 10.402954 8.8081111 10.701172 8.4570312 C 10.99939 8.1059516 11.173787 8 11.5 8 z M 33.957031 27.933594 C 38.932523 29.485463 41.958717 32.716199 45.974609 34.765625 C 46.609575 35.089608 47.191889 35.402954 47.542969 35.701172 C 47.894049 35.99939 48 36.173787 48 36.5 C 48 36.826213 47.894049 37.00061 47.542969 37.298828 C 47.191889 37.597046 46.609575 37.910392 45.974609 38.234375 C 40.531051 41.012781 37.065199 46 27.785156 46 C 23.263717 46 19.370703 44.418741 16.888672 42.158203 C 17.956998 41.382613 18.922074 40.400178 19.740234 39.248047 C 21.16336 37.244006 22.174975 34.738838 22.664062 31.958984 C 26.320513 32.217516 30.415348 30.788543 33.957031 27.933594 z"/></svg>