<svg xmlns="http://www.w3.org/2000/svg"  viewBox="0 0 50 50" width="1000px" height="1000px"><path d="M 21.59375 0 C 21.246094 0 21.054688 0.09375 20.8125 0.1875 C 20.570313 0.28125 20.300781 0.398438 20 0.5625 C 19.394531 0.894531 18.679688 1.359375 17.84375 2.03125 C 17.488281 2.316406 17.101563 2.648438 16.71875 3 C 16.636719 2.988281 16.550781 2.988281 16.46875 3 C 16.4375 3.007813 16.40625 3.019531 16.375 3.03125 C 16.375 3.03125 14.027344 3.523438 11.75 4.65625 C 10.609375 5.222656 9.464844 5.953125 8.625 6.9375 C 7.792969 7.917969 7.285156 9.28125 7.625 10.71875 C 7.625 10.726563 7.625 10.742188 7.625 10.75 C 7.84375 11.726563 8.476563 13.84375 8.875 15.3125 C 5.246094 17.484375 2.488281 22.6875 1.3125 29.4375 C 1.136719 30.585938 1.308594 31.921875 1.84375 33.34375 C 1.601563 34.03125 1 35.992188 1 38.5 C 1 40.246094 1.773438 41.890625 3.0625 43.28125 C 4.351563 44.671875 6.144531 45.855469 8.3125 46.84375 C 12.648438 48.824219 18.527344 50 25 50 C 31.472656 50 37.351563 48.824219 41.6875 46.84375 C 43.855469 45.855469 45.648438 44.671875 46.9375 43.28125 C 48.226563 41.890625 49 40.246094 49 38.5 C 49 38.132813 48.957031 37.175781 48.75 35.8125 C 48.558594 34.558594 48.222656 33.046875 47.65625 31.65625 C 47.972656 30.535156 48.058594 29.347656 47.78125 28.09375 C 47.375 26.160156 45.726563 19.59375 41.1875 15.53125 C 41.789063 14.101563 42.292969 12.527344 42.6875 10.84375 L 42.65625 10.84375 C 43.183594 8.796875 42.0625 6.761719 40.25 5.34375 C 38.480469 3.957031 35.980469 3.039063 33.1875 3 C 32.175781 2.375 31.144531 2 30.1875 2 C 29.335938 2 28.730469 2.304688 28.15625 2.46875 C 27.59375 2.632813 27.097656 2.699219 26.5 2.53125 C 26.492188 2.527344 26.476563 2.535156 26.46875 2.53125 C 25.667969 2.285156 24.757813 1.722656 23.96875 1.1875 C 23.570313 0.917969 23.195313 0.652344 22.84375 0.4375 C 22.492188 0.222656 22.222656 0 21.59375 0 Z M 21.5 2.03125 C 21.484375 2.027344 21.535156 2.035156 21.53125 2.03125 C 21.59375 2.050781 21.691406 2.082031 21.8125 2.15625 C 22.074219 2.316406 22.429688 2.5625 22.84375 2.84375 C 23.671875 3.40625 24.710938 4.109375 25.90625 4.46875 C 26.992188 4.789063 27.960938 4.617188 28.6875 4.40625 C 29.414063 4.195313 29.941406 4 30.1875 4 C 30.679688 4 32.089844 4.527344 33.28125 5.5625 C 34.429688 6.5625 35.449219 7.964844 35.875 9.625 C 35.574219 10.550781 34.648438 11.535156 33.03125 12.34375 C 31.039063 13.339844 28.164063 14 25 14 C 21.835938 14 18.960938 13.339844 16.96875 12.34375 C 15.167969 11.441406 14.203125 10.332031 14.03125 9.3125 C 14.988281 7.886719 15.925781 6.671875 16.84375 5.6875 C 16.902344 5.640625 16.953125 5.589844 17 5.53125 C 17.738281 4.753906 18.460938 4.101563 19.09375 3.59375 C 19.847656 2.988281 20.488281 2.574219 20.96875 2.3125 C 21.199219 2.1875 21.371094 2.082031 21.5 2.03125 Z M 21 5 C 20.449219 5 20 5.449219 20 6 C 20 6.550781 20.449219 7 21 7 C 21.550781 7 22 6.550781 22 6 C 22 5.449219 21.550781 5 21 5 Z M 36.4375 5.59375 C 37.449219 5.9375 38.332031 6.390625 39.03125 6.9375 C 40.445313 8.042969 40.988281 9.292969 40.71875 10.34375 L 40.71875 10.375 C 40.328125 12.03125 39.851563 13.574219 39.28125 14.90625 C 39.222656 15.050781 39.128906 15.21875 39.03125 15.375 C 39.03125 15.386719 39.03125 15.394531 39.03125 15.40625 C 38.339844 16.503906 36.765625 17.84375 34.5625 18.90625 C 32.027344 20.125 28.695313 21 25 21 C 21.28125 21 17.855469 20.265625 15.3125 19.125 C 12.769531 17.984375 11.210938 16.4375 10.875 15.0625 L 10.875 15.03125 C 10.46875 13.507813 9.738281 11.066406 9.5625 10.28125 L 9.5625 10.25 C 9.367188 9.449219 9.597656 8.875 10.15625 8.21875 C 10.714844 7.5625 11.625 6.964844 12.625 6.46875 C 12.738281 6.410156 12.851563 6.367188 12.96875 6.3125 C 12.425781 7.035156 12.089844 7.832031 12.03125 8.71875 C 12.03125 8.730469 12.03125 8.738281 12.03125 8.75 C 11.976563 8.933594 11.976563 9.128906 12.03125 9.3125 C 12.183594 11.359375 13.820313 13.003906 16.0625 14.125 C 18.417969 15.304688 21.5625 16 25 16 C 28.4375 16 31.582031 15.304688 33.9375 14.125 C 35.800781 13.195313 37.222656 11.898438 37.75 10.3125 C 37.773438 10.261719 37.796875 10.210938 37.8125 10.15625 C 37.816406 10.144531 37.839844 10.136719 37.84375 10.125 C 37.914063 9.980469 37.945313 9.816406 37.9375 9.65625 C 37.972656 9.445313 38 9.222656 38 9 C 38 7.71875 37.394531 6.5625 36.4375 5.59375 Z M 19 8 C 18.449219 8 18 8.449219 18 9 C 18 9.550781 18.449219 10 19 10 C 19.550781 10 20 9.550781 20 9 C 20 8.449219 19.550781 8 19 8 Z M 23 8 C 22.449219 8 22 8.449219 22 9 C 22 9.550781 22.449219 10 23 10 C 23.550781 10 24 9.550781 24 9 C 24 8.449219 23.550781 8 23 8 Z M 9.65625 17.1875 C 10.632813 18.726563 12.363281 19.980469 14.5 20.9375 C 17.359375 22.222656 21.019531 23 25 23 C 29.003906 23 32.621094 22.074219 35.4375 20.71875 C 37.453125 19.75 39.0625 18.578125 40.125 17.28125 C 43.808594 20.828125 45.460938 26.824219 45.8125 28.5 C 46.019531 29.445313 45.96875 30.355469 45.71875 31.21875 C 45.648438 31.34375 45.605469 31.480469 45.59375 31.625 C 45.253906 32.550781 44.683594 33.421875 43.96875 34.25 C 42.492188 35.957031 40.410156 37.363281 38.75 38.21875 C 38.417969 38.371094 38.191406 38.695313 38.167969 39.0625 C 38.144531 39.425781 38.324219 39.777344 38.632813 39.972656 C 38.945313 40.167969 39.335938 40.179688 39.65625 40 C 41.496094 39.054688 43.746094 37.554688 45.46875 35.5625 C 45.800781 35.179688 46.121094 34.769531 46.40625 34.34375 C 46.550781 34.957031 46.664063 35.570313 46.75 36.125 C 46.941406 37.386719 47 38.464844 47 38.5 C 47 39.652344 46.507813 40.785156 45.46875 41.90625 C 44.429688 43.027344 42.835938 44.089844 40.84375 45 C 36.855469 46.820313 31.226563 48 25 48 C 18.773438 48 13.144531 46.820313 9.15625 45 C 7.164063 44.089844 5.570313 43.027344 4.53125 41.90625 C 3.492188 40.785156 3 39.652344 3 38.5 C 3 37.546875 3.117188 36.726563 3.25 36 C 4.472656 37.824219 6.265625 39.714844 8.71875 41.5 C 8.996094 41.789063 9.417969 41.882813 9.792969 41.742188 C 10.167969 41.601563 10.421875 41.25 10.4375 40.851563 C 10.457031 40.453125 10.234375 40.082031 9.875 39.90625 C 4.597656 36.066406 2.996094 31.75 3.28125 29.78125 C 3.28125 29.773438 3.28125 29.757813 3.28125 29.75 C 4.359375 23.59375 6.988281 19.003906 9.65625 17.1875 Z M 40.0625 20.28125 C 39.703125 20.339844 39.402344 20.59375 39.28125 20.9375 C 38.789063 22.144531 37.09375 23.769531 34.5625 25 C 32.03125 26.230469 28.695313 27.09375 25 27.09375 C 24.640625 27.089844 24.304688 27.277344 24.121094 27.589844 C 23.941406 27.902344 23.941406 28.285156 24.121094 28.597656 C 24.304688 28.910156 24.640625 29.097656 25 29.09375 C 29.003906 29.09375 32.621094 28.183594 35.4375 26.8125 C 38.253906 25.441406 40.316406 23.679688 41.125 21.6875 C 41.277344 21.351563 41.238281 20.960938 41.015625 20.667969 C 40.792969 20.371094 40.425781 20.222656 40.0625 20.28125 Z"/></svg>