<svg xmlns="http://www.w3.org/2000/svg"  viewBox="0 0 50 50" width="1000px" height="1000px"><path d="M 23.25 0 C 22 0.046875 20.804688 0.578125 19.875 1.15625 C 18.828125 1.808594 18.449219 2.25 18.09375 2.59375 C 18.089844 2.597656 18.066406 2.589844 18.0625 2.59375 L 18.03125 2.59375 C 17.328125 2.269531 16.109375 1.753906 14.71875 1.625 C 13.328125 1.496094 11.671875 1.796875 10.46875 3.125 L 10.4375 3.125 C 9.359375 4.328125 9.101563 5.851563 9.1875 7.1875 C 9.230469 7.882813 9.386719 8.53125 9.5625 9.125 C 8.730469 9.117188 8.1875 9.1875 8.1875 9.1875 C 7.894531 9.214844 7.632813 9.371094 7.464844 9.613281 C 7.296875 9.851563 7.238281 10.152344 7.3125 10.4375 L 12.3125 30.96875 L 0.28125 43 C 0.0546875 43.242188 -0.0390625 43.582031 0.03125 43.90625 C 0.03125 43.90625 0.480469 46 2.3125 47.71875 C 4.089844 49.386719 6.03125 49.96875 6.03125 49.96875 C 6.375 50.0625 6.746094 49.96875 7 49.71875 L 18.4375 38.28125 C 18.472656 38.5 18.484375 38.738281 18.46875 39.03125 C 18.421875 39.855469 18.164063 40.933594 17.9375 42.09375 C 17.710938 43.253906 17.503906 44.511719 17.6875 45.84375 C 17.871094 47.175781 18.488281 48.546875 19.71875 49.71875 C 19.960938 50.03125 20.363281 50.175781 20.75 50.082031 C 21.132813 49.992188 21.429688 49.683594 21.503906 49.292969 C 21.578125 48.90625 21.417969 48.507813 21.09375 48.28125 C 20.175781 47.40625 19.820313 46.519531 19.6875 45.5625 C 19.554688 44.605469 19.695313 43.558594 19.90625 42.46875 C 20.074219 41.601563 20.292969 40.730469 20.40625 39.84375 C 22.15625 42.035156 23.054688 44.070313 24.125 45.8125 C 24.859375 47.007813 25.707031 48.082031 26.96875 48.84375 C 28.230469 49.605469 29.832031 50 32 50 C 32.382813 50.042969 32.757813 49.863281 32.960938 49.535156 C 33.167969 49.207031 33.167969 48.792969 32.960938 48.464844 C 32.757813 48.136719 32.382813 47.957031 32 48 C 30.070313 48 28.875 47.65625 28 47.125 C 27.125 46.59375 26.507813 45.828125 25.84375 44.75 C 24.847656 43.128906 23.816406 40.855469 21.78125 38.375 L 39.5625 42.6875 C 39.824219 42.75 40.097656 42.707031 40.328125 42.566406 C 40.558594 42.425781 40.71875 42.199219 40.78125 41.9375 C 40.78125 41.9375 40.808594 41.828125 40.84375 41.625 C 42.308594 40.871094 43.074219 39.308594 43.5625 38 C 43.976563 36.890625 44.050781 36.332031 44.125 35.90625 C 44.5625 35.820313 45.191406 35.742188 46.34375 35.21875 C 47.835938 34.542969 49.613281 33.316406 50 31.1875 L 50 31.15625 C 50.332031 29.234375 49.210938 27.675781 48.0625 26.625 C 47.082031 25.726563 46.160156 25.277344 45.53125 24.96875 C 45.59375 24.316406 45.644531 23.046875 45.28125 21.53125 C 46.195313 21.039063 47.027344 20.316406 47.5 19.21875 L 47.53125 19.21875 C 47.535156 19.210938 47.527344 19.195313 47.53125 19.1875 C 48.300781 17.414063 47.585938 15.617188 46.71875 14.34375 C 45.960938 13.234375 45.171875 12.566406 44.625 12.125 C 44.789063 11.667969 45.042969 11.117188 45.1875 9.875 C 45.378906 8.238281 45.199219 6.078125 43.53125 4.75 L 43.5625 4.71875 C 43.542969 4.703125 43.519531 4.703125 43.5 4.6875 C 41.847656 3.347656 39.691406 3.6875 38.125 4.21875 C 36.972656 4.609375 36.527344 4.921875 36.09375 5.1875 C 36.085938 5.183594 36.070313 5.164063 36.0625 5.15625 C 35.429688 4.683594 34.394531 3.941406 33.09375 3.5 C 32.433594 3.277344 31.675781 3.140625 30.90625 3.1875 C 30.148438 3.230469 29.378906 3.472656 28.65625 3.96875 C 28.648438 3.976563 28.632813 3.960938 28.625 3.96875 L 28.625 4 C 28.328125 4.195313 28.074219 4.421875 27.84375 4.65625 C 27.605469 3.050781 27 1.25 25.25 0.40625 C 24.765625 0.171875 24.261719 0.0390625 23.78125 0 C 23.601563 -0.015625 23.429688 -0.0078125 23.25 0 Z M 23.15625 2.03125 C 23.589844 1.992188 24.011719 2.042969 24.375 2.21875 C 25.320313 2.675781 25.789063 4.007813 25.9375 5.4375 C 26.085938 6.867188 25.90625 8.15625 25.90625 8.15625 L 25.75 9.3125 L 26.59375 9.3125 C 26.789063 9.578125 27.105469 9.730469 27.4375 9.71875 C 27.925781 10.011719 28.492188 10.402344 29.03125 10.90625 C 29.90625 11.726563 30.484375 12.636719 30.3125 13.625 C 30.167969 14.421875 29.6875 15.019531 29 15.53125 C 28.492188 15.910156 27.894531 16.1875 27.3125 16.40625 C 26.566406 15.457031 25.671875 14.703125 24.6875 14.15625 C 24.257813 13.917969 23.816406 13.726563 23.375 13.5625 C 23.523438 13.109375 23.59375 12.632813 23.59375 12.1875 C 23.59375 9.933594 21.753906 8.09375 19.5 8.09375 C 17.832031 8.09375 16.382813 9.128906 15.75 10.59375 C 14.664063 9.972656 13.484375 9.605469 12.40625 9.40625 C 12.175781 9.363281 11.972656 9.34375 11.75 9.3125 C 11.503906 8.71875 11.269531 7.878906 11.21875 7.0625 C 11.15625 6.074219 11.316406 5.164063 11.9375 4.46875 C 12.636719 3.699219 13.519531 3.53125 14.53125 3.625 C 15.53125 3.71875 16.558594 4.132813 17.15625 4.40625 C 17.164063 4.410156 17.179688 4.402344 17.1875 4.40625 L 17.75 4.6875 L 18.40625 5.03125 L 18.9375 4.5 C 18.9375 4.5 19.777344 3.59375 20.9375 2.875 C 21.664063 2.425781 22.433594 2.097656 23.15625 2.03125 Z M 31.0625 5.1875 C 31.5 5.164063 31.957031 5.242188 32.4375 5.40625 C 33.394531 5.734375 34.335938 6.382813 34.90625 6.8125 L 34.9375 6.84375 C 35 6.886719 35.03125 6.886719 35.03125 6.875 L 35.5 7.875 L 36.46875 7.25 C 36.46875 7.25 37.488281 6.5625 38.78125 6.125 C 40.074219 5.6875 41.410156 5.574219 42.25 6.28125 L 42.28125 6.28125 L 42.28125 6.3125 C 43.160156 6.988281 43.34375 8.28125 43.1875 9.625 C 43.03125 10.96875 42.5625 12.125 42.5625 12.125 L 42 13.5 L 43.1875 13.5 C 43.539063 13.773438 44.417969 14.519531 45.0625 15.46875 C 45.742188 16.464844 46.09375 17.492188 45.6875 18.40625 C 45.226563 19.5 43.964844 20.054688 42.65625 20.3125 C 41.347656 20.570313 40.1875 20.5 40.1875 20.5 L 39.40625 20.4375 L 39.15625 21.15625 C 39.15625 21.15625 38.746094 22.226563 38.03125 23.3125 C 37.398438 24.277344 36.570313 25.117188 35.75 25.34375 C 35.550781 25.019531 35.328125 24.703125 35.09375 24.40625 C 34.113281 23.15625 32.902344 22.089844 31.59375 21.4375 C 31.445313 21.089844 31.375 20.8125 31.375 20.8125 L 31.21875 20 L 30.40625 20 C 30.40625 20 29.761719 19.96875 28.96875 19.875 C 28.816406 19.277344 28.617188 18.710938 28.375 18.1875 C 28.972656 17.9375 29.589844 17.597656 30.1875 17.15625 C 30.707031 16.769531 31.207031 16.277344 31.59375 15.6875 C 32.078125 17.414063 33.628906 18.71875 35.5 18.71875 C 37.753906 18.71875 39.59375 16.847656 39.59375 14.59375 C 39.59375 12.339844 37.753906 10.5 35.5 10.5 C 34.144531 10.5 32.933594 11.167969 32.1875 12.1875 C 31.882813 11.074219 31.160156 10.144531 30.40625 9.4375 C 29.671875 8.75 29.007813 8.371094 28.4375 8.0625 C 28.523438 7.082031 28.863281 6.226563 29.75 5.65625 L 29.75 5.625 L 29.78125 5.625 C 30.199219 5.332031 30.625 5.210938 31.0625 5.1875 Z M 19.5 10.09375 C 20.648438 10.09375 21.59375 11.039063 21.59375 12.1875 C 21.59375 12.527344 21.527344 12.824219 21.40625 13.0625 C 20.355469 12.910156 19.328125 12.925781 18.40625 13.09375 C 18.121094 12.640625 17.792969 12.234375 17.4375 11.875 C 17.601563 10.910156 18.511719 10.09375 19.5 10.09375 Z M 10.5625 11.21875 C 10.933594 11.222656 11.402344 11.253906 12.0625 11.375 C 14.011719 11.734375 16.042969 12.578125 17 14.53125 C 17.210938 14.976563 17.714844 15.199219 18.1875 15.0625 C 19.410156 14.679688 21.765625 14.871094 23.6875 15.9375 C 24.585938 16.4375 25.40625 17.078125 26.03125 17.9375 C 26.050781 17.96875 26.070313 18 26.09375 18.03125 C 26.097656 18.039063 26.089844 18.054688 26.09375 18.0625 C 26.113281 18.085938 26.132813 18.105469 26.15625 18.125 C 26.167969 18.144531 26.175781 18.167969 26.1875 18.1875 C 26.207031 18.21875 26.226563 18.25 26.25 18.28125 C 26.667969 18.941406 26.988281 19.726563 27.15625 20.625 C 27.128906 20.804688 27.148438 20.988281 27.21875 21.15625 C 27.242188 21.351563 27.273438 21.542969 27.28125 21.75 C 27.296875 22.03125 27.433594 22.296875 27.652344 22.472656 C 27.871094 22.652344 28.15625 22.730469 28.4375 22.6875 C 29.71875 22.519531 32.007813 23.757813 33.5 25.65625 C 34.992188 27.554688 35.652344 29.8125 34.625 31.59375 C 34.480469 31.828125 34.441406 32.113281 34.511719 32.378906 C 34.582031 32.644531 34.757813 32.867188 35 33 C 35.011719 33 35.019531 33 35.03125 33 C 35.175781 33.191406 35.386719 33.324219 35.625 33.375 C 35.632813 33.378906 35.648438 33.371094 35.65625 33.375 C 37.820313 34.746094 38.597656 36.574219 38.875 38.21875 C 39.082031 39.445313 38.925781 39.890625 38.84375 40.4375 L 19.21875 35.6875 L 14.3125 30.78125 L 9.59375 11.25 C 9.914063 11.234375 10.191406 11.214844 10.5625 11.21875 Z M 35.5 12.5 C 36.667969 12.5 37.59375 13.425781 37.59375 14.59375 C 37.59375 15.761719 36.667969 16.6875 35.5 16.6875 C 34.332031 16.6875 33.40625 15.761719 33.40625 14.59375 C 33.40625 13.425781 34.332031 12.5 35.5 12.5 Z M 43.40625 22.21875 C 43.707031 23.773438 43.5 25.375 43.5 25.375 L 43.34375 26.5 L 44.21875 26.5 L 44.28125 26.53125 C 44.628906 26.683594 45.785156 27.269531 46.6875 28.09375 C 47.578125 28.910156 48.152344 29.84375 48 30.8125 C 48 30.824219 48 30.832031 48 30.84375 C 47.777344 32 46.699219 32.832031 45.5 33.375 C 44.292969 33.921875 43.15625 34.09375 43.15625 34.09375 L 42.40625 34.21875 L 42.3125 34.96875 C 42.3125 34.96875 42.144531 36.089844 41.6875 37.3125 C 41.496094 37.828125 41.222656 38.292969 40.9375 38.71875 C 40.914063 38.457031 40.890625 38.183594 40.84375 37.90625 C 40.597656 36.441406 39.910156 34.777344 38.5625 33.3125 C 40.101563 32.71875 41.21875 31.234375 41.21875 29.5 C 41.21875 27.8125 40.164063 26.34375 38.6875 25.71875 C 39.074219 25.300781 39.4375 24.867188 39.71875 24.4375 C 40.375 23.441406 40.554688 22.878906 40.71875 22.46875 C 41.167969 22.488281 41.8125 22.558594 43.0625 22.3125 C 43.171875 22.289063 43.292969 22.246094 43.40625 22.21875 Z M 37.09375 27.40625 C 38.242188 27.40625 39.1875 28.351563 39.1875 29.5 C 39.1875 30.648438 38.242188 31.59375 37.09375 31.59375 C 36.988281 31.59375 36.859375 31.585938 36.71875 31.5625 C 37.183594 30.199219 37.140625 28.78125 36.71875 27.4375 C 36.839844 27.421875 36.964844 27.40625 37.09375 27.40625 Z M 13.40625 32.71875 L 17.28125 36.59375 L 6.0625 47.8125 C 5.550781 47.609375 4.703125 47.234375 3.6875 46.28125 C 2.683594 45.339844 2.324219 44.46875 2.15625 43.96875 Z"/></svg>