<svg xmlns="http://www.w3.org/2000/svg"  viewBox="0 0 50 50" width="1000px" height="1000px"><path d="M 7.0019531 2.1816406 C 6.8091047 2.1749303 6.6159125 2.187051 6.4257812 2.2167969 C 5.6652562 2.3357803 4.9495986 2.742039 4.4648438 3.40625 C 3.4953195 4.7346919 3.7904312 6.6279367 5.1191406 7.5976562 L 10.226562 11.419922 L 10.232422 11.421875 C 11.244221 12.160307 12.478513 11.962353 13.488281 11.335938 L 17.035156 14 L 8.5 14 C 7.6829372 14 7 14.682937 7 15.5 C 7 18.125186 7.7649595 20.569394 9.0664062 22.644531 A 1.0001 1.0001 0 0 0 9.0136719 22.835938 L 5.0136719 46.835938 A 1.0001 1.0001 0 0 0 6 48 L 16.126953 48 A 1.0001 1.0001 0 0 0 17.09375 47.25 C 17.425913 45.959501 18.592009 45 20 45 L 25 45 L 30 45 C 31.407991 45 32.574087 45.959501 32.90625 47.25 A 1.0001 1.0001 0 0 0 33.873047 48 L 44 48 A 1.0001 1.0001 0 0 0 44.986328 46.835938 L 40.986328 22.835938 A 1.0001 1.0001 0 0 0 40.933594 22.642578 C 42.234496 20.56774 43 18.124591 43 15.5 C 43 14.682937 42.317063 14 41.5 14 L 32.964844 14 L 36.511719 11.335938 C 37.521575 11.962822 38.757479 12.160489 39.769531 11.421875 L 39.773438 11.419922 L 44.884766 7.59375 C 46.209189 6.6224972 46.505428 4.7317244 45.535156 3.4042969 C 45.049839 2.7403346 44.334795 2.335409 43.574219 2.2167969 C 42.813643 2.0981847 42.007971 2.267191 41.34375 2.7519531 L 41.337891 2.7539062 L 36.228516 6.5800781 C 35.215291 7.3231494 35.02882 8.5671384 35.326172 9.7226562 L 29.636719 14 L 20.363281 14 L 14.673828 9.7246094 C 14.972001 8.568323 14.785214 7.3234845 13.771484 6.5800781 L 8.6621094 2.7539062 L 8.65625 2.7519531 C 8.1579366 2.3882738 7.5804984 2.2017715 7.0019531 2.1816406 z M 43.267578 4.1796875 C 43.518502 4.2188255 43.75324 4.3578997 43.919922 4.5859375 C 44.252728 5.0412494 44.157535 5.6488471 43.701172 5.9824219 L 43.697266 5.9863281 L 38.589844 9.8066406 C 38.13428 10.139112 37.524771 10.045919 37.191406 9.5898438 C 36.8586 9.1345317 36.953793 8.5249811 37.410156 8.1914062 L 37.416016 8.1875 L 37.419922 8.1855469 L 42.53125 4.359375 L 42.523438 4.3671875 C 42.751216 4.2009496 43.016654 4.1405496 43.267578 4.1796875 z M 6.7324219 4.1816406 C 6.9831468 4.1423736 7.2489804 4.2010936 7.4765625 4.3671875 L 7.46875 4.359375 L 12.583984 8.1875 L 12.589844 8.1914062 C 13.046494 8.5251911 13.141113 9.1349251 12.808594 9.5898438 C 12.475229 10.045919 11.865714 10.139116 11.410156 9.8066406 L 6.3027344 5.9863281 L 6.2988281 5.9824219 C 5.8435376 5.6501414 5.7476024 5.0414956 6.0800781 4.5859375 C 6.2463232 4.3581485 6.4816969 4.2209072 6.7324219 4.1816406 z M 9.1015625 16 L 40.898438 16 C 40.798278 18.222747 40.077649 20.278125 38.910156 22 L 11.089844 22 C 9.9223514 20.278125 9.2017224 18.222747 9.1015625 16 z M 12.818359 24 L 37.181641 24 C 35.162894 25.858429 32.480011 27 29.5 27 L 20.5 27 C 17.519989 27 14.837106 25.858429 12.818359 24 z M 10.71875 24.777344 C 13.180348 27.371314 16.649846 29 20.5 29 L 29.5 29 C 33.350154 29 36.819652 27.371314 39.28125 24.777344 L 42.820312 46 L 34.509766 46 C 33.728895 44.249609 32.029375 43 30 43 L 29.605469 43 C 30.448109 42.063229 30.960938 40.861972 30.960938 39.535156 C 30.960938 37.174021 29.540801 35.158664 28.222656 33.695312 C 26.904511 32.231963 25.583984 31.283203 25.583984 31.283203 A 1.0001 1.0001 0 0 0 25.023438 31.09375 A 1.0001 1.0001 0 0 0 24.416016 31.283203 C 24.416016 31.283203 23.095489 32.231963 21.777344 33.695312 C 20.459199 35.158664 19.039062 37.174021 19.039062 39.535156 C 19.039062 40.862473 19.553375 42.063299 20.396484 43 L 20 43 C 17.970625 43 16.271105 44.249609 15.490234 46 L 7.1796875 46 L 10.71875 24.777344 z M 25 33.441406 C 25.381859 33.738645 25.868298 34.067383 26.738281 35.033203 C 27.900636 36.323602 28.960937 38.029292 28.960938 39.535156 C 28.960938 41.322703 27.388036 42.851591 25.271484 42.976562 C 26.238505 42.826483 26.984375 41.902872 26.984375 40.773438 C 26.984375 39.543437 25 37.054688 25 37.054688 C 25 37.054688 23.015625 39.543438 23.015625 40.773438 C 23.015625 41.90213 23.760472 42.825553 24.726562 42.976562 C 22.615117 42.850392 21.039063 41.320929 21.039062 39.535156 C 21.039062 38.029292 22.099364 36.323602 23.261719 35.033203 C 24.131702 34.067383 24.618141 33.738645 25 33.441406 z"/></svg>