<svg xmlns="http://www.w3.org/2000/svg"  viewBox="0 0 50 50" width="1000px" height="1000px"><path d="M 19.8125 0 C 19.335938 0.0898438 18.992188 0.511719 19 1 L 19 2 C 18.996094 2.199219 19.050781 2.394531 19.15625 2.5625 L 21 5.3125 L 21 6 C 20.449219 6 20 6.449219 20 7 L 20 9 L 19 9 C 18.96875 9 18.9375 9 18.90625 9 C 18.390625 9.046875 17.996094 9.480469 18 10 L 18 16 L 15 16 C 14.96875 16 14.9375 16 14.90625 16 C 14.390625 16.046875 13.996094 16.480469 14 17 L 14 38 C 14 44.375 18.375 47.78125 18.375 47.78125 C 18.550781 47.921875 18.773438 48 19 48 L 31 48 C 31.226563 48 31.449219 47.921875 31.625 47.78125 C 31.625 47.78125 36 44.375 36 38 L 36 17 C 36 16.449219 35.550781 16 35 16 L 32 16 L 32 10 C 32 9.449219 31.550781 9 31 9 L 30 9 L 30 7 C 30 6.449219 29.550781 6 29 6 L 29 3 C 28.996094 2.609375 28.765625 2.253906 28.40625 2.09375 C 25.027344 0.59375 20.125 0 20.125 0 C 20.019531 -0.015625 19.917969 -0.015625 19.8125 0 Z M 21.375 2.25 C 22.792969 2.484375 24.929688 2.914063 27 3.71875 L 27 7 C 27 7.550781 27.449219 8 28 8 L 28 9 L 22 9 L 22 8 C 22.550781 8 23 7.550781 23 7 L 23 5 C 23.003906 4.800781 22.949219 4.605469 22.84375 4.4375 Z M 20 11 L 30 11 L 30 16 L 20 16 Z M 16 18 L 34 18 L 34 38 C 34 43.1875 30.902344 45.726563 30.5625 46 L 19.4375 46 C 19.097656 45.726563 16 43.1875 16 38 Z"/></svg>