<svg xmlns="http://www.w3.org/2000/svg"  viewBox="0 0 50 50" width="1000px" height="1000px"><path d="M 28.8125 0 C 28.367188 0.0820313 28.035156 0.457031 28 0.90625 L 27.8125 3.15625 L 21.71875 3.15625 L 21.5 0.9375 C 21.433594 0.421875 20.988281 0.0429688 20.46875 0.0625 L 13.125 0.375 C 12.847656 0.390625 12.589844 0.519531 12.410156 0.734375 C 12.234375 0.945313 12.152344 1.222656 12.1875 1.5 L 12.40625 3.5625 L 5.6875 4.78125 C 5.160156 4.875 4.800781 5.375 4.875 5.90625 L 6.6875 18 L 4 18 C 3.96875 18 3.9375 18 3.90625 18 C 3.605469 18.023438 3.332031 18.183594 3.164063 18.433594 C 2.996094 18.679688 2.945313 18.992188 3.03125 19.28125 L 11.4375 49.28125 C 11.5625 49.710938 11.957031 50.003906 12.40625 50 L 37.59375 50 C 38.042969 50.003906 38.4375 49.710938 38.5625 49.28125 L 46.96875 19.28125 C 47.058594 18.976563 46.996094 18.648438 46.808594 18.398438 C 46.617188 18.144531 46.316406 17.996094 46 18 L 42.90625 18 L 44.5625 9 C 44.617188 8.726563 44.550781 8.441406 44.386719 8.214844 C 44.21875 7.988281 43.964844 7.84375 43.6875 7.8125 L 36.78125 7.0625 L 37.25 1.90625 C 37.289063 1.375 36.902344 0.910156 36.375 0.84375 L 29.09375 0 C 29 -0.0117188 28.90625 -0.0117188 28.8125 0 Z M 19.59375 2.09375 L 22.15625 26.71875 C 19.578125 26.199219 17.761719 25.011719 16.4375 23.6875 L 14.5 4.5625 C 14.5 4.542969 14.5 4.519531 14.5 4.5 L 14.5 4.4375 C 14.503906 4.308594 14.480469 4.183594 14.4375 4.0625 L 14.28125 2.34375 Z M 29.875 2.125 L 35.1875 2.71875 L 33.1875 24.03125 C 31.90625 25.203125 30.226563 26.238281 27.90625 26.71875 Z M 21.9375 5.15625 L 27.65625 5.15625 L 25.90625 26.9375 C 25.605469 26.953125 25.316406 27 25 27 C 24.71875 27 24.457031 26.984375 24.1875 26.96875 Z M 12.59375 5.5625 L 14.125 20.46875 C 13.621094 19.476563 13.375 18.75 13.375 18.75 C 13.261719 18.308594 12.863281 18 12.40625 18 L 8.71875 18 L 7 6.5625 Z M 36.59375 9.03125 L 42.40625 9.6875 L 40.875 18 L 37.59375 18 C 37.136719 18 36.738281 18.308594 36.625 18.75 C 36.625 18.75 36.308594 19.851563 35.4375 21.28125 Z M 5.3125 20 L 11.71875 20 C 11.996094 20.792969 12.597656 22.324219 14.125 24.15625 C 14.257813 24.316406 14.417969 24.464844 14.5625 24.625 C 14.5625 24.636719 14.5625 24.644531 14.5625 24.65625 C 14.65625 24.90625 14.847656 25.109375 15.09375 25.21875 C 15.097656 25.222656 15.121094 25.214844 15.125 25.21875 C 17.222656 27.234375 20.417969 29 25 29 C 30.382813 29 33.855469 26.578125 35.875 24.15625 C 37.402344 22.324219 38.003906 20.792969 38.28125 20 L 44.6875 20 L 36.8125 48 L 13.1875 48 Z"/></svg>