<svg xmlns="http://www.w3.org/2000/svg"  viewBox="0 0 50 50" width="1000px" height="1000px"><path d="M 32.984375 0.98632812 A 1.0001 1.0001 0 0 0 32.839844 1 L 18 1 A 1.0001 1.0001 0 0 0 17 2 L 17 21 L 10.408203 21 C 6.2817925 21 2.9199219 24.377662 2.9199219 28.515625 C 2.9199219 28.584055 2.921595 29.491897 2.921875 30.044922 C 1.2469925 30.570035 5.9211895e-16 32.087893 0 33.931641 C 0 35.566162 1.0547747 36.841092 2.4394531 37.505859 L 4.2832031 42.277344 L 4.2558594 42.191406 C 4.560836 43.252806 5.3058365 43.921867 6.0703125 44.332031 L 5.3007812 45.880859 C 4.6029982 47.276425 5.1789142 49.001566 6.5742188 49.699219 C 6.9780862 49.90039 7.416624 50 7.8457031 50 C 8.8904681 50 9.8963462 49.417571 10.392578 48.429688 L 10.392578 48.427734 L 12.099609 45 L 25.902344 45 L 27.607422 48.427734 L 27.609375 48.429688 C 28.105191 49.41679 29.109532 50 30.154297 50 C 30.583376 50 31.021914 49.90039 31.425781 49.699219 C 32.821086 49.001566 33.397002 47.276425 32.699219 45.880859 L 31.75 43.970703 A 1.0001 1.0001 0 0 0 32 44 L 43 44 L 43 45 L 49 45 L 49 43 L 49 2 A 1.0001 1.0001 0 0 0 48 1 L 33.154297 1 A 1.0001 1.0001 0 0 0 32.984375 0.98632812 z M 19 3 L 32 3 L 32 23.337891 C 30.6351 21.901785 28.716598 21 26.589844 21 L 19 21 L 19 3 z M 34 3 L 47 3 L 47 42 L 32.824219 42 L 34.560547 37.507812 C 35.945211 36.842714 37 35.567194 37 33.931641 C 37 32.08814 35.752924 30.570102 34.078125 30.044922 C 34.078219 29.849069 34.078 29.790135 34.078125 29.537109 C 34.078375 29.029109 34.078125 28.561292 34.078125 28.515625 C 34.078125 28.090238 34.03508 27.676055 33.966797 27.269531 A 1.0001 1.0001 0 0 0 34 27 L 34 3 z M 37.984375 20.986328 A 1.0001 1.0001 0 0 0 37 22 L 37 25 A 1.0001 1.0001 0 1 0 39 25 L 39 22 A 1.0001 1.0001 0 0 0 37.984375 20.986328 z M 10.408203 23 L 17.832031 23 A 1.0001 1.0001 0 0 0 18.158203 23 L 26.589844 23 C 29.631061 23 32.078125 25.455887 32.078125 28.515625 C 32.078125 28.477955 32.078375 29.027156 32.078125 29.535156 C 32.077997 29.795471 32.076272 29.871032 32.076172 30.058594 C 30.703168 30.360037 29.515057 31.19171 29.03125 32.490234 L 29.054688 32.433594 L 27.947266 34.927734 C 27.929026 34.922134 27.921094 34.919732 27.902344 34.914062 C 27.345434 34.745232 26.567212 34.528198 25.628906 34.314453 C 23.752295 33.886964 21.238023 33.466797 18.582031 33.466797 C 15.925582 33.466797 13.372165 33.889654 11.453125 34.318359 C 10.493605 34.532712 9.6939476 34.748737 9.1210938 34.917969 C 9.0874868 34.927869 9.0730406 34.933769 9.0410156 34.943359 L 8.0078125 32.642578 C 7.552372 31.286177 6.3416747 30.389071 4.921875 30.074219 C 4.9215997 29.495116 4.9199219 28.458043 4.9199219 28.515625 C 4.9199219 25.453588 7.3666139 23 10.408203 23 z M 4.1171875 31.800781 C 5.0822464 31.800781 5.877785 32.447188 6.1367188 33.333984 L 6.15625 33.400391 L 8.0527344 37.625 L 8.9433594 37.072266 C 8.9743624 37.061146 9.0118614 37.046854 9.0703125 37.027344 C 9.2108241 36.980434 9.4214269 36.91454 9.6875 36.835938 C 10.219646 36.678731 10.978192 36.472929 11.888672 36.269531 C 13.709632 35.862737 16.13948 35.466797 18.582031 35.466797 C 21.02504 35.466797 23.410908 35.861364 25.185547 36.265625 C 26.072866 36.467755 26.807644 36.672113 27.322266 36.828125 C 27.579577 36.906135 27.782572 36.971136 27.917969 37.017578 C 27.975729 37.037388 28.013179 37.05151 28.042969 37.0625 L 28.939453 37.617188 L 30.894531 33.216797 L 30.90625 33.1875 C 31.209102 32.374654 31.96833 31.800781 32.882812 31.800781 C 34.060718 31.800781 35 32.741295 35 33.931641 C 35 34.917624 34.3348 35.724919 33.439453 35.974609 L 32.957031 36.109375 L 30.835938 41.597656 L 30.822266 41.640625 C 30.639817 42.275295 30.109598 42.592709 29.449219 42.796875 C 28.788836 43.00104 28.173828 43 28.173828 43 L 28.167969 43 L 26.664062 43 A 1.0001 1.0001 0 0 0 26.539062 42.988281 A 1.0001 1.0001 0 0 0 26.369141 43 L 11.511719 43 L 8.8320312 43 L 8.8261719 43 C 8.8261719 43 8.2111029 43.0011 7.5507812 42.796875 C 6.8905014 42.592627 6.3602851 42.27595 6.1777344 41.640625 L 6.1640625 41.597656 L 4.0429688 36.107422 L 3.5585938 35.972656 C 2.6613131 35.723487 2 34.919865 2 33.931641 C 2 32.739598 2.9375801 31.800781 4.1171875 31.800781 z M 29.900391 44.742188 L 30.910156 46.773438 L 30.910156 46.775391 C 31.124373 47.203825 30.959946 47.695809 30.53125 47.910156 C 30.405743 47.972286 30.280598 48 30.154297 48 C 29.843062 48 29.550622 47.838102 29.396484 47.53125 L 29.396484 47.535156 L 28.136719 45 L 28.152344 45 C 28.152344 45 28.963118 45.006122 29.900391 44.742188 z M 8.0078125 44.929688 C 8.4954935 44.995889 8.8476562 45 8.8476562 45 L 9.8652344 45 L 8.6054688 47.53125 C 8.4517007 47.837367 8.1569381 48 7.8457031 48 C 7.7194017 48 7.5942569 47.972333 7.46875 47.910156 C 7.0400545 47.695809 6.8756268 47.203825 7.0898438 46.775391 L 7.0898438 46.773438 L 8.0078125 44.929688 z"/></svg>