<svg fill="#000000" xmlns="http://www.w3.org/2000/svg"  viewBox="0 0 50 50" width="1000px" height="1000px"><path d="M 26.90625 -0.03125 C 26.667969 -0.00390625 26.445313 0.105469 26.28125 0.28125 L 25.78125 0.78125 L 24.4375 0.09375 C 24.050781 -0.0976563 23.585938 -0.0234375 23.28125 0.28125 L 22.78125 0.78125 L 21.4375 0.09375 C 21.261719 0.0078125 21.066406 -0.0234375 20.875 0 C 20.371094 0.0625 19.996094 0.492188 20 1 L 20 13 C 20 14.492188 19.046875 15.671875 17.28125 16.9375 C 15.515625 18.203125 13.035156 19.417969 10.5 20.84375 C 7.964844 22.269531 5.375 23.90625 3.375 26.15625 C 1.375 28.40625 0 31.308594 0 35 C 0 42.144531 5.855469 48 13 48 C 14.632813 48 16.199219 47.648438 17.59375 47.125 C 18.335938 47.800781 19.191406 48.355469 20.09375 48.8125 C 20.390625 48.960938 20.6875 49.097656 21 49.21875 C 21.3125 49.34375 21.640625 49.46875 21.96875 49.5625 C 22.03125 49.582031 22.09375 49.605469 22.15625 49.625 C 22.367188 49.683594 22.566406 49.738281 22.78125 49.78125 C 22.964844 49.820313 23.15625 49.84375 23.34375 49.875 C 23.519531 49.902344 23.695313 49.917969 23.875 49.9375 C 24.152344 49.96875 24.433594 49.960938 24.71875 49.96875 C 24.8125 49.972656 24.90625 50 25 50 C 25.03125 50 25.0625 50 25.09375 50 C 25.105469 50 25.113281 50 25.125 50 C 25.175781 50 25.230469 49.96875 25.28125 49.96875 C 25.5625 49.960938 25.851563 49.96875 26.125 49.9375 C 28.523438 49.691406 30.710938 48.671875 32.40625 47.125 C 33.871094 47.707031 35.40625 48 37 48 C 44.144531 48 50 42.144531 50 35 C 50 31.285156 48.621094 28.324219 46.625 26 C 44.628906 23.675781 42.039063 21.945313 39.5 20.46875 C 36.960938 18.992188 34.464844 17.757813 32.6875 16.53125 C 30.910156 15.304688 30 14.210938 30 13 L 30 2 C 30 1.449219 29.550781 1 29 1 L 28.4375 1 L 27.71875 0.28125 C 27.511719 0.0585938 27.210938 -0.0546875 26.90625 -0.03125 Z M 24.21875 2.21875 L 25.5625 2.90625 C 25.949219 3.097656 26.414063 3.023438 26.71875 2.71875 L 27 2.4375 L 27.28125 2.71875 C 27.472656 2.90625 27.734375 3.007813 28 3 L 28 13 C 28 15.191406 29.589844 16.824219 31.5625 18.1875 C 33.535156 19.550781 36.039063 20.753906 38.5 22.1875 C 40.960938 23.621094 43.371094 25.269531 45.125 27.3125 C 46.878906 29.355469 48 31.765625 48 35 C 48 41.054688 43.054688 46 37 46 C 35.871094 46 34.816406 45.839844 33.8125 45.53125 C 35.175781 43.699219 36 41.445313 36 39 C 36 28.792969 29.71875 22.3125 29.71875 22.3125 C 29.488281 22.0625 29.148438 21.941406 28.8125 22 C 28.449219 22.066406 28.148438 22.328125 28.039063 22.683594 C 27.925781 23.039063 28.019531 23.425781 28.28125 23.6875 C 28.28125 23.6875 34 29.609375 34 39 C 34 41.875 32.640625 44.445313 30.53125 46.09375 C 30.386719 46.203125 30.242188 46.304688 30.09375 46.40625 C 30.070313 46.421875 30.054688 46.453125 30.03125 46.46875 C 29.808594 46.617188 29.578125 46.746094 29.34375 46.875 C 29.324219 46.886719 29.300781 46.894531 29.28125 46.90625 C 28.585938 47.28125 27.84375 47.5625 27.0625 47.75 C 26.9375 47.78125 26.816406 47.820313 26.6875 47.84375 C 26.195313 47.941406 25.675781 47.992188 25.15625 48 C 25.105469 48 25.050781 48 25 48 C 24.96875 48 24.9375 48 24.90625 48 C 24.632813 47.996094 24.363281 47.996094 24.09375 47.96875 C 24.082031 47.96875 24.074219 47.96875 24.0625 47.96875 C 23.761719 47.9375 23.476563 47.871094 23.1875 47.8125 C 23.175781 47.808594 23.167969 47.816406 23.15625 47.8125 C 19.078125 46.957031 16 43.324219 16 39 C 16 33.953125 17.90625 29.40625 17.90625 29.40625 C 18.070313 29.058594 18.023438 28.648438 17.785156 28.351563 C 17.546875 28.050781 17.15625 27.914063 16.78125 28 C 16.46875 28.078125 16.214844 28.296875 16.09375 28.59375 C 16.09375 28.59375 14 33.449219 14 39 C 14 41.445313 14.824219 43.699219 16.1875 45.53125 C 15.1875 45.824219 14.078125 46 13 46 C 6.945313 46 2 41.054688 2 35 C 2 31.792969 3.125 29.464844 4.875 27.5 C 6.625 25.535156 9.035156 23.980469 11.5 22.59375 C 13.964844 21.207031 16.484375 19.988281 18.46875 18.5625 C 20.453125 17.136719 22 15.359375 22 13 L 22 2.625 L 22.5625 2.90625 C 22.949219 3.097656 23.414063 3.023438 23.71875 2.71875 Z"/></svg>