<svg xmlns="http://www.w3.org/2000/svg"  viewBox="0 0 50 50" width="1000px" height="1000px"><path d="M 18 2 A 1.0001 1.0001 0 0 0 17 3 L 17 11.341797 C 15.99253 11.717825 14.923848 12.298806 14.001953 13.335938 C 12.849226 14.632756 12 16.527778 12 19 L 12 38 C 12 39.210938 12.576246 40.264444 13.435547 41 C 12.576246 41.735556 12 42.789062 12 44 L 12 47 A 1.0001 1.0001 0 0 0 13 48 L 37 48 A 1.0001 1.0001 0 0 0 38 47 L 38 44 C 38 42.789062 37.423754 41.735556 36.564453 41 C 37.423754 40.264444 38 39.210938 38 38 L 38 19 C 38 16.527778 37.150774 14.632756 35.998047 13.335938 C 35.076152 12.298806 34.00747 11.717825 33 11.341797 L 33 3 A 1.0001 1.0001 0 0 0 32 2 L 18 2 z M 19 4 L 31 4 L 31 11 L 26 11 L 26 8 L 27 8 A 1.0001 1.0001 0 1 0 27 6 L 23 6 A 1.0001 1.0001 0 1 0 23 8 L 24 8 L 24 11 L 19 11 L 19 4 z M 18.171875 13 L 31.828125 13 C 32.630629 13.214217 33.676631 13.735576 34.501953 14.664062 C 35.349226 15.617244 36 16.972222 36 19 L 36 38 C 36 39.116666 35.116666 40 34 40 A 1.0001 1.0001 0 0 0 33.611328 40.083984 A 1.0001 1.0001 0 0 0 33.4375 40.183594 A 1.0001 1.0001 0 0 0 33.359375 40.244141 A 1.0001 1.0001 0 0 0 33.222656 40.388672 A 1.0001 1.0001 0 0 0 33.164062 40.470703 A 1.0001 1.0001 0 0 0 33.046875 40.746094 A 1.0001 1.0001 0 0 0 33.025391 40.84375 A 1.0001 1.0001 0 0 0 33.015625 40.943359 A 1.0001 1.0001 0 0 0 33.111328 41.429688 A 1.0001 1.0001 0 0 0 33.349609 41.746094 A 1.0001 1.0001 0 0 0 33.427734 41.810547 A 1.0001 1.0001 0 0 0 33.511719 41.863281 A 1.0001 1.0001 0 0 0 33.599609 41.910156 A 1.0001 1.0001 0 0 0 33.693359 41.947266 A 1.0001 1.0001 0 0 0 33.886719 41.992188 A 1.0001 1.0001 0 0 0 33.986328 42 A 1.0001 1.0001 0 0 0 34 42 C 35.116666 42 36 42.883334 36 44 L 36 46 L 14 46 L 14 44 C 14 42.883334 14.883334 42 16 42 A 1.0001 1.0001 0 0 0 16.099609 41.994141 A 1.0001 1.0001 0 0 0 16.199219 41.976562 A 1.0001 1.0001 0 0 0 16.294922 41.951172 A 1.0001 1.0001 0 0 0 16.388672 41.916016 A 1.0001 1.0001 0 0 0 16.478516 41.871094 A 1.0001 1.0001 0 0 0 16.712891 41.6875 A 1.0001 1.0001 0 0 0 16.777344 41.611328 A 1.0001 1.0001 0 0 0 16.835938 41.529297 A 1.0001 1.0001 0 0 0 16.882812 41.441406 A 1.0001 1.0001 0 0 0 16.953125 41.253906 A 1.0001 1.0001 0 0 0 16.984375 41.056641 A 1.0001 1.0001 0 0 0 16.976562 40.857422 A 1.0001 1.0001 0 0 0 16.888672 40.570312 A 1.0001 1.0001 0 0 0 16.785156 40.400391 A 1.0001 1.0001 0 0 0 16.722656 40.322266 A 1.0001 1.0001 0 0 0 16.650391 40.253906 A 1.0001 1.0001 0 0 0 16.572266 40.189453 A 1.0001 1.0001 0 0 0 16.488281 40.136719 A 1.0001 1.0001 0 0 0 16.400391 40.089844 A 1.0001 1.0001 0 0 0 16 40 C 14.883334 40 14 39.116666 14 38 L 14 19 C 14 16.972222 14.650774 15.617244 15.498047 14.664062 C 16.323369 13.735575 17.369371 13.214217 18.171875 13 z M 24.007812 19 A 1.0001 1.0001 0 0 0 23 20 C 23 21.78254 22.224609 22.692969 21.224609 23.917969 C 20.29501 25.056728 19.257215 26.536874 19.103516 28.671875 A 1.0001 1.0001 0 0 0 19.001953 29.095703 C 19.001952 29.097303 19 29.098009 19 29.099609 A 1.0001 1.0001 0 0 0 19 29.113281 A 1.0001 1.0001 0 0 0 19 29.130859 C 19 29.133659 19.001853 29.135872 19.001953 29.138672 A 1.0001 1.0001 0 0 0 19.074219 29.490234 A 1.0001 1.0001 0 0 0 19.076172 29.492188 C 19.278787 32.569416 21.846021 35 25 35 C 28.260819 35 31 32.463955 31 29.130859 C 31 22.656177 24.486328 19.126953 24.486328 19.126953 A 1.0001 1.0001 0 0 0 24.007812 19 z M 24.578125 21.734375 C 25.961559 22.687009 29 25.027735 29 29.130859 C 29 30.238442 28.580872 31.184342 27.892578 31.865234 C 27.95636 31.633367 28 31.393508 28 31.142578 C 28 27.713578 25 26 25 26 C 25 26 26 27.5 26 29 C 26 30.429 25.5 31 24.5 31 C 23 31 23 29 23 29 C 23 29 22 29.749578 22 31.142578 C 22 31.362033 22.030896 31.574044 22.080078 31.779297 C 21.411921 31.089049 21 30.163679 21 29.130859 A 1.0001 1.0001 0 0 0 21 29.117188 A 1.0001 1.0001 0 0 0 21 29.099609 C 21 27.31707 21.775391 26.406641 22.775391 25.181641 C 23.490023 24.306216 24.162775 23.136793 24.578125 21.734375 z M 20 40 A 1.0001 1.0001 0 1 0 20 42 L 23 42 A 1.0001 1.0001 0 1 0 23 40 L 20 40 z M 27 40 A 1.0001 1.0001 0 1 0 27 42 L 30 42 A 1.0001 1.0001 0 1 0 30 40 L 27 40 z"/></svg>