<svg xmlns="http://www.w3.org/2000/svg"  viewBox="0 0 50 50" width="1000px" height="1000px"><path d="M 20.84375 -0.03125 C 20.417969 0.0351563 20.082031 0.359375 20 0.78125 C 18.4375 8.183594 15.261719 13.585938 12.40625 18.625 C 9.550781 23.664063 6.96875 28.375 6.96875 34.3125 C 6.96875 42.039063 12.046875 47.128906 18.8125 49.5625 C 18.914063 49.601563 18.988281 49.683594 19.09375 49.71875 C 19.574219 49.910156 20.121094 49.710938 20.367188 49.257813 C 20.613281 48.804688 20.484375 48.238281 20.0625 47.9375 C 18.328125 46.597656 16.03125 43.441406 16.03125 40.9375 C 16.03125 38.1875 16.585938 36.464844 17.375 34.53125 C 17.992188 33.023438 18.75 31.246094 19.4375 29.0625 C 21.640625 31.8125 21.96875 35.0625 21.96875 35.0625 C 21.988281 35.53125 22.320313 35.921875 22.78125 36.019531 C 23.238281 36.117188 23.699219 35.886719 23.90625 35.46875 C 23.90625 35.46875 27.378906 28.199219 27.0625 19.65625 C 32.753906 25.667969 35.003906 31.5 34.96875 36.3125 C 34.929688 41.898438 32 46.28125 29.25 48.15625 C 28.871094 48.429688 28.722656 48.921875 28.894531 49.355469 C 29.0625 49.792969 29.503906 50.058594 29.96875 50 C 37.195313 48.949219 43.03125 42.375 43.03125 34.21875 C 43.03125 28.386719 41.34375 23.230469 37.84375 17.90625 C 34.34375 12.582031 29.046875 7.050781 21.6875 0.25 C 21.484375 0.0585938 21.214844 -0.0429688 20.9375 -0.03125 C 20.90625 -0.03125 20.875 -0.03125 20.84375 -0.03125 Z M 21.53125 2.9375 C 28.121094 9.105469 33.039063 14.285156 36.15625 19.03125 C 39.488281 24.101563 40.96875 28.769531 40.96875 34.21875 C 40.96875 39.828125 37.832031 44.4375 33.53125 46.65625 C 35.5 44.039063 37 40.527344 37.03125 36.3125 C 37.074219 30.320313 34.164063 23.230469 26.6875 16.25 C 26.367188 15.96875 25.90625 15.914063 25.527344 16.117188 C 25.152344 16.316406 24.941406 16.734375 25 17.15625 C 25.949219 23.566406 24.339844 28.527344 23.1875 31.5 C 22.578125 29.832031 21.539063 27.847656 19.65625 26.21875 C 19.386719 25.988281 19.015625 25.914063 18.679688 26.023438 C 18.34375 26.128906 18.085938 26.40625 18 26.75 C 17.253906 29.792969 16.292969 31.757813 15.46875 33.78125 C 14.644531 35.804688 13.96875 37.898438 13.96875 40.9375 C 13.96875 42.671875 14.59375 44.328125 15.46875 45.78125 C 11.515625 43.316406 9.03125 39.5625 9.03125 34.3125 C 9.03125 28.96875 11.34375 24.640625 14.1875 19.625 C 16.808594 15.003906 19.789063 9.777344 21.53125 2.9375 Z"/></svg>