<svg xmlns="http://www.w3.org/2000/svg"  viewBox="0 0 50 50" width="1000px" height="1000px"><path d="M 25 2.6660156 L 3.9296875 19.052734 C 1.7589676 20.740519 1.3650877 23.89977 3.0527344 26.070312 C 3.8089723 27.041522 4.8826624 27.529798 6 27.759766 L 6 42 C 6 44.197334 7.8026661 46 10 46 L 40 46 C 42.197334 46 44 44.197334 44 42 L 44 27.773438 C 45.119961 27.538806 46.191629 27.0398 46.945312 26.070312 C 48.634138 23.899856 48.241034 20.740519 46.070312 19.052734 L 25 2.6660156 z M 25 5.1992188 L 44.841797 20.632812 C 46.159077 21.657028 46.392362 23.524255 45.367188 24.841797 C 44.773367 25.606141 43.894885 25.999249 43 26 L 42 26 L 42 42 C 42 43.116666 41.116666 44 40 44 L 29.998047 44 L 29.998047 37 C 29.998047 34.251565 27.748435 32.001953 25 32.001953 C 22.251565 32.001953 20.001953 34.251565 20.001953 37 L 20.001953 44 L 10 44 C 8.8833339 44 8 43.116666 8 42 L 8 25.984375 L 7 25.984375 C 6.0967187 25.983617 5.2228364 25.602052 4.6308594 24.841797 C 3.6065061 23.52434 3.8409231 21.657028 5.1582031 20.632812 L 25 5.1992188 z M 25 9 A 1 1 0 0 0 24 10 A 1 1 0 0 0 25 11 A 1 1 0 0 0 26 10 A 1 1 0 0 0 25 9 z M 21 12 A 1 1 0 0 0 20 13 A 1 1 0 0 0 21 14 A 1 1 0 0 0 22 13 A 1 1 0 0 0 21 12 z M 29 12 A 1 1 0 0 0 28 13 A 1 1 0 0 0 29 14 A 1 1 0 0 0 30 13 A 1 1 0 0 0 29 12 z M 17 15 A 1 1 0 0 0 16 16 A 1 1 0 0 0 17 17 A 1 1 0 0 0 18 16 A 1 1 0 0 0 17 15 z M 33 15 A 1 1 0 0 0 32 16 A 1 1 0 0 0 33 17 A 1 1 0 0 0 34 16 A 1 1 0 0 0 33 15 z M 13 18 A 1 1 0 0 0 12 19 A 1 1 0 0 0 13 20 A 1 1 0 0 0 14 19 A 1 1 0 0 0 13 18 z M 37 18 A 1 1 0 0 0 36 19 A 1 1 0 0 0 37 20 A 1 1 0 0 0 38 19 A 1 1 0 0 0 37 18 z M 24 20.001953 C 22.35611 20.001953 21.001953 21.35611 21.001953 23 L 21.001953 25 C 21.001953 26.64389 22.35611 27.998047 24 27.998047 L 26 27.998047 C 27.64389 27.998047 28.998047 26.64389 28.998047 25 L 28.998047 23 C 28.998047 21.35611 27.64389 20.001953 26 20.001953 L 24 20.001953 z M 9 21 A 1 1 0 0 0 8 22 A 1 1 0 0 0 9 23 A 1 1 0 0 0 10 22 A 1 1 0 0 0 9 21 z M 41 21 A 1 1 0 0 0 40 22 A 1 1 0 0 0 41 23 A 1 1 0 0 0 42 22 A 1 1 0 0 0 41 21 z M 24 21.998047 L 26 21.998047 C 26.56611 21.998047 27.001953 22.43389 27.001953 23 L 27.001953 25 C 27.001953 25.56611 26.56611 26.001953 26 26.001953 L 24 26.001953 C 23.43389 26.001953 22.998047 25.56611 22.998047 25 L 22.998047 23 C 22.998047 22.43389 23.43389 21.998047 24 21.998047 z M 11 25 A 1 1 0 0 0 10 26 A 1 1 0 0 0 11 27 A 1 1 0 0 0 12 26 A 1 1 0 0 0 11 25 z M 39 25 A 1 1 0 0 0 38 26 A 1 1 0 0 0 39 27 A 1 1 0 0 0 40 26 A 1 1 0 0 0 39 25 z M 11 30 A 1 1 0 0 0 10 31 A 1 1 0 0 0 11 32 A 1 1 0 0 0 12 31 A 1 1 0 0 0 11 30 z M 39 30 A 1 1 0 0 0 38 31 A 1 1 0 0 0 39 32 A 1 1 0 0 0 40 31 A 1 1 0 0 0 39 30 z M 25 33.998047 C 26.669565 33.998047 28.001953 35.330435 28.001953 37 L 28.001953 44 L 21.998047 44 L 21.998047 37 C 21.998047 35.330435 23.330435 33.998047 25 33.998047 z M 11 35 A 1 1 0 0 0 10 36 A 1 1 0 0 0 11 37 A 1 1 0 0 0 12 36 A 1 1 0 0 0 11 35 z M 39 35 A 1 1 0 0 0 38 36 A 1 1 0 0 0 39 37 A 1 1 0 0 0 40 36 A 1 1 0 0 0 39 35 z M 11 40 A 1 1 0 0 0 10 41 A 1 1 0 0 0 11 42 A 1 1 0 0 0 12 41 A 1 1 0 0 0 11 40 z M 16 40 A 1 1 0 0 0 15 41 A 1 1 0 0 0 16 42 A 1 1 0 0 0 17 41 A 1 1 0 0 0 16 40 z M 34 40 A 1 1 0 0 0 33 41 A 1 1 0 0 0 34 42 A 1 1 0 0 0 35 41 A 1 1 0 0 0 34 40 z M 39 40 A 1 1 0 0 0 38 41 A 1 1 0 0 0 39 42 A 1 1 0 0 0 40 41 A 1 1 0 0 0 39 40 z"/></svg>