<svg fill="#000000" xmlns="http://www.w3.org/2000/svg"  viewBox="0 0 50 50" width="1000px" height="1000px"><path d="M 35.5 3 C 29.807505 3 25.205709 7.5755495 25.054688 13.232422 C 24.401024 13.423419 23.485041 13.760731 22.400391 14.574219 C 20.957099 15.656687 19.578057 17.588584 19.175781 20.447266 C 17.561497 19.420561 17 17.839438 17 17 C 17 16.53773 17.265829 15.723745 17.648438 14.992188 C 18.029221 14.264117 18.510605 13.590014 18.765625 13.291016 L 18.771484 13.283203 C 20.574162 11.213056 20.357907 8.0447023 18.291016 6.2363281 A 1.0001 1.0001 0 0 0 18.291016 6.234375 C 16.221209 4.4259587 13.047809 4.6399643 11.236328 6.7089844 A 1.0001 1.0001 0 0 0 11.234375 6.7089844 C 10.761129 7.2507189 7 11.587693 7 17 C 7 23.508493 10.600693 27.270755 11.648438 28.294922 C 11.077537 28.835087 10.939836 28.973052 10.439453 29.445312 A 1.0001 1.0001 0 0 0 10.205078 29.667969 C 8.6529298 31.132865 7.0307523 32.65546 6.34375 33.341797 A 1.0001 1.0001 0 0 0 6.34375 33.34375 C 6.3414286 33.346071 6.3402086 33.349239 6.3378906 33.351562 A 1.0001 1.0001 0 0 0 6.1425781 33.566406 C 3.2380761 36.697106 3.2990856 41.612699 6.34375 44.65625 C 9.4598394 47.772339 14.540161 47.772339 17.65625 44.65625 C 18.024346 44.288154 19.037172 43.291685 20.253906 42.091797 C 22.625328 44.304988 26.647724 46 32 46 C 35.690476 46 38.893965 44.950152 41.216797 43.242188 C 43.539628 41.534222 45 39.12037 45 36.5 C 45 32.921732 42.078268 30 38.5 30 C 36.781078 30 35.553443 30.800607 34.470703 31.621094 A 1.0001 1.0001 0 0 0 34.318359 31.738281 C 34.113349 31.895625 33.904424 32.054684 33.707031 32.205078 C 32.43105 33.177254 31.233333 34 29 34 C 27.910388 34 27.317387 33.788031 26.880859 33.552734 C 29.922341 32.848059 32.38338 30.646971 33.732422 27.839844 A 1.0001 1.0001 0 0 0 34.162109 26.820312 A 1.0001 1.0001 0 0 0 34.162109 26.818359 C 34.492499 25.916809 34.717858 24.970998 34.810547 24 L 35.5 24 C 37.700757 24 39.743704 23.315235 41.433594 22.152344 A 1.0006905 1.0006905 0 0 0 41.707031 21.947266 C 43.523648 20.60846 44.89806 18.70637 45.558594 16.494141 A 1.0001 1.0001 0 0 0 45.683594 16.017578 C 45.883781 15.209361 46 14.368995 46 13.5 C 46 7.7126277 41.287372 3 35.5 3 z M 35.5 5 C 40.206628 5 44 8.7933723 44 13.5 C 44 13.957254 43.953731 14.40247 43.884766 14.839844 C 40.439514 14.010056 38.845703 11.466797 38.845703 11.466797 A 1.0001 1.0001 0 0 0 38.015625 10.988281 A 1.0001 1.0001 0 0 0 37.154297 12.533203 C 37.154297 12.533203 39.183038 15.715473 43.353516 16.761719 C 42.786238 18.131914 41.868048 19.312589 40.714844 20.208984 C 36.507964 19.542707 34.875 16.517578 34.875 16.517578 A 1.0001 1.0001 0 0 0 33.974609 15.988281 A 1.0001 1.0001 0 0 0 33.125 17.482422 C 33.125 17.482422 34.667102 20.212423 38.146484 21.578125 C 37.313383 21.849669 36.42566 22 35.5 22 L 34 22 A 1.0001 1.0001 0 0 0 33 23 C 33 23.964745 32.818375 24.930358 32.503906 25.855469 C 30.167767 25.258593 28.814453 23.419922 28.814453 23.419922 A 1.0001 1.0001 0 0 0 27.958984 22.988281 A 1.0001 1.0001 0 0 0 27.185547 24.580078 C 27.185547 24.580078 28.766069 26.833805 31.658203 27.708984 C 30.203852 30.177569 27.723802 32 25 32 A 1.0001 1.0001 0 0 0 24.029297 33.242188 C 24.029297 33.242188 24.268501 34.076992 25.023438 34.748047 C 25.778374 35.419101 27.059524 36 29 36 C 31.33542 36 32.960011 35.159025 34.228516 34.279297 C 34.559726 35.560568 35.379437 37.45478 37.445312 38.832031 A 1.0001 1.0001 0 1 0 38.554688 37.167969 C 36.10904 35.537537 36.011672 33.251173 36.007812 32.976562 C 36.817128 32.392188 37.535526 32 38.5 32 C 40.997732 32 43 34.002268 43 36.5 C 43 38.37963 41.960372 40.215778 40.033203 41.632812 C 38.106035 43.049848 35.309524 44 32 44 C 26.537287 44 22.626995 42.022745 20.966797 40.083984 A 1.0001 1.0001 0 0 0 19.505859 40.023438 C 17.588059 41.918251 16.723196 42.761178 16.242188 43.242188 C 13.890277 45.594097 10.109723 45.594098 7.7578125 43.242188 C 5.8658412 41.350908 5.5000322 38.535154 6.6523438 36.28125 C 7.1427133 37.335884 7.9812679 38.666264 9.375 39.78125 A 1.0004882 1.0004882 0 1 0 10.625 38.21875 C 8.9416359 36.872029 8.2961381 35.178913 8.0820312 34.447266 C 8.6557967 33.883206 9.481217 33.0927 10.556641 32.076172 C 11.023847 33.154212 11.862879 34.571683 13.375 35.78125 A 1.0004882 1.0004882 0 1 0 14.625 34.21875 C 13.086163 32.987812 12.398051 31.395642 12.130859 30.587891 C 12.66853 30.079689 13.043683 29.725833 13.6875 29.115234 A 1.0001 1.0001 0 0 0 13.660156 27.636719 C 13.660152 27.636719 9 23.52381 9 17 C 9 12.556307 12.397527 8.4176561 12.740234 8.0253906 C 13.840753 6.7684107 15.718375 6.6426345 16.974609 7.7402344 C 18.231187 8.8396457 18.357931 10.718592 17.259766 11.974609 A 1.0001 1.0001 0 0 0 17.251953 11.982422 C 16.858229 12.442374 16.338138 13.18296 15.876953 14.064453 C 15.112689 13.747571 14.759766 13.349609 14.759766 13.349609 A 1.0001 1.0001 0 0 0 13.966797 12.990234 A 1.0001 1.0001 0 0 0 13.240234 14.650391 C 13.240234 14.650391 13.919675 15.407978 15.148438 15.925781 C 15.063602 16.275834 15 16.631776 15 17 C 15 17.779065 15.222026 18.713007 15.695312 19.626953 C 15.464836 19.738865 15.187142 19.837313 14.908203 19.894531 C 14.404308 19.997894 14 20 14 20 A 1.0001 1.0001 0 1 0 14 22 C 14 22 14.595692 22.0021 15.310547 21.855469 C 15.79404 21.756291 16.366396 21.587768 16.900391 21.255859 C 17.603024 21.951197 18.507781 22.557281 19.683594 22.949219 A 1.0001 1.0001 0 0 0 21 22 C 21 18.785714 22.29872 17.151448 23.599609 16.175781 C 24.900498 15.200115 26.164063 14.986328 26.164062 14.986328 A 1.0001 1.0001 0 0 0 27 14 L 27 13.5 C 27 8.7933723 30.793372 5 35.5 5 z"/></svg>