<svg xmlns="http://www.w3.org/2000/svg"  viewBox="0 0 50 50" width="1000px" height="1000px"><path d="M 28.5 0 C 26.679688 0 24.851563 0.710938 23.46875 2.09375 L 8.15625 17.40625 C 5.390625 20.171875 5.390625 24.703125 8.15625 27.46875 L 8.875 28.1875 L 5.5625 31.53125 C 5.175781 31.921875 5.175781 32.546875 5.5625 32.9375 L 6.09375 33.46875 C 0.605469 39.640625 0 48.9375 0 48.9375 C -0.0195313 49.222656 0.0859375 49.503906 0.289063 49.710938 C 0.496094 49.914063 0.777344 50.019531 1.0625 50 C 1.0625 50 10.359375 49.394531 16.53125 43.90625 L 17.0625 44.4375 C 17.453125 44.824219 18.078125 44.824219 18.46875 44.4375 L 21.8125 41.125 L 22.53125 41.84375 C 25.296875 44.609375 29.828125 44.609375 32.59375 41.84375 L 47.90625 26.53125 C 50.671875 23.765625 50.671875 19.234375 47.90625 16.46875 L 33.53125 2.09375 C 32.148438 0.710938 30.320313 0 28.5 0 Z M 28.5 2 C 29.804688 2 31.125 2.5 32.125 3.5 L 46.5 17.875 C 48.503906 19.878906 48.5 23.09375 46.5 25.09375 L 31.1875 40.4375 C 29.183594 42.441406 25.96875 42.4375 23.96875 40.4375 L 22.65625 39.125 C 22.574219 39.011719 22.464844 38.914063 22.34375 38.84375 L 11.125 27.625 C 11.050781 27.511719 10.957031 27.417969 10.84375 27.34375 L 9.5625 26.03125 C 7.558594 24.03125 7.558594 20.816406 9.5625 18.8125 L 24.90625 3.5 C 25.90625 2.5 27.195313 2 28.5 2 Z M 22.3125 15.0625 C 22.085938 15.09375 21.875 15.207031 21.71875 15.375 L 17.375 19.6875 C 16.988281 20.078125 16.988281 20.703125 17.375 21.09375 L 28.90625 32.625 C 29.296875 33.011719 29.921875 33.011719 30.3125 32.625 L 34.625 28.28125 C 35.011719 27.890625 35.011719 27.265625 34.625 26.875 L 23.125 15.375 C 22.9375 15.175781 22.679688 15.066406 22.40625 15.0625 C 22.375 15.0625 22.34375 15.0625 22.3125 15.0625 Z M 22.4375 17.5 L 32.5 27.5625 L 29.625 30.5 L 19.5 20.375 Z M 10.3125 29.625 L 20.375 39.6875 L 17.75 42.3125 L 17.5 42.09375 C 17.449219 42.011719 17.386719 41.9375 17.3125 41.875 L 17.15625 41.75 L 8.3125 32.90625 C 8.230469 32.753906 8.113281 32.625 7.96875 32.53125 L 7.6875 32.25 Z M 7.5625 34.9375 L 15.0625 42.4375 C 10.277344 46.589844 4.003906 47.554688 2.25 47.75 C 2.445313 45.996094 3.410156 39.722656 7.5625 34.9375 Z"/></svg>