<svg fill="#000000" xmlns="http://www.w3.org/2000/svg"  viewBox="0 0 50 50" width="1000px" height="1000px"><path d="M 25.021484 4 C 24.188151 4 23.453778 4.4507355 22.951172 5.0371094 C 22.448566 5.6234832 22.100571 6.3545368 21.824219 7.1835938 C 21.271514 8.8417075 21.021484 10.916667 21.021484 13 C 21.021484 15.083333 21.271514 17.158292 21.824219 18.816406 C 22.100571 19.645463 22.448566 20.376517 22.951172 20.962891 C 23.453778 21.549264 24.188151 22 25.021484 22 C 25.854818 22 26.591144 21.549264 27.09375 20.962891 C 27.596356 20.376517 27.944351 19.645463 28.220703 18.816406 C 28.773407 17.158292 29.021484 15.083333 29.021484 13 C 29.021484 10.916667 28.773407 8.8417075 28.220703 7.1835938 C 27.944351 6.3545368 27.596356 5.6234832 27.09375 5.0371094 C 26.591144 4.4507355 25.854818 4 25.021484 4 z M 25.021484 6 C 25.188151 6 25.328778 6.049264 25.576172 6.3378906 C 25.823566 6.6265168 26.100571 7.1454633 26.324219 7.8164062 C 26.771514 9.1582924 27.021484 11.083333 27.021484 13 C 27.021484 14.916667 26.771514 16.841708 26.324219 18.183594 C 26.100571 18.854537 25.823566 19.373483 25.576172 19.662109 C 25.328778 19.950736 25.188151 20 25.021484 20 C 24.854818 20 24.716144 19.950736 24.46875 19.662109 C 24.221356 19.373483 23.944351 18.854537 23.720703 18.183594 C 23.273408 16.841708 23.021484 14.916667 23.021484 13 C 23.021484 11.083333 23.273408 9.1582925 23.720703 7.8164062 C 23.944351 7.1454632 24.221356 6.6265168 24.46875 6.3378906 C 24.716144 6.0492645 24.854818 6 25.021484 6 z M 42.347656 6.9628906 C 41.627096 7.0062146 40.887321 7.2353286 40.107422 7.5898438 C 38.547624 8.2988749 36.827081 9.5380955 35.193359 11.171875 C 33.559636 12.805655 32.320305 14.526114 31.611328 16.085938 C 31.25684 16.865849 31.027675 17.607563 30.984375 18.328125 C 30.941075 19.048687 31.110535 19.817585 31.658203 20.365234 C 32.205871 20.912883 32.974751 21.080432 33.695312 21.037109 C 34.415872 20.993789 35.155648 20.766625 35.935547 20.412109 C 37.495345 19.703078 39.215886 18.461904 40.849609 16.828125 C 42.483331 15.194345 43.722664 13.473885 44.431641 11.914062 C 44.786129 11.134151 45.015294 10.39439 45.058594 9.6738281 C 45.101892 8.9532664 44.932434 8.1843677 44.384766 7.6367188 C 43.837098 7.0890699 43.068217 6.9195671 42.347656 6.9628906 z M 42.46875 8.9589844 C 42.828275 8.9373684 42.932575 9.0126542 42.970703 9.0507812 C 43.008833 9.0889082 43.084104 9.1932091 43.0625 9.5527344 C 43.0409 9.9122604 42.89662 10.458265 42.611328 11.085938 C 42.040745 12.341282 40.925967 13.92359 39.435547 15.414062 C 37.945128 16.904533 36.364699 18.019217 35.109375 18.589844 C 34.481714 18.875158 33.935697 19.017446 33.576172 19.039062 C 33.216647 19.060682 33.110395 18.989302 33.072266 18.951172 C 33.034136 18.913042 32.96082 18.804839 32.982422 18.445312 C 33.004022 18.085787 33.146349 17.541734 33.431641 16.914062 C 34.002224 15.658718 35.117003 14.076409 36.607422 12.585938 C 38.097841 11.095467 39.680223 9.9807836 40.935547 9.4101562 C 41.563208 9.1248426 42.109225 8.9806012 42.46875 8.9589844 z M 14.347656 8.9628906 C 13.627095 9.0062149 12.887321 9.2333754 12.107422 9.5878906 C 10.547624 10.296922 8.8270821 11.538095 7.1933594 13.171875 C 5.5596371 14.805654 4.3203048 16.526115 3.6113281 18.085938 C 3.2568401 18.865848 3.0276737 19.60561 2.984375 20.326172 C 2.941076 21.046734 3.1105351 21.815632 3.6582031 22.363281 C 4.2058711 22.910929 4.9747521 23.080433 5.6953125 23.037109 C 6.415873 22.993789 7.1556475 22.764672 7.9355469 22.410156 C 9.4953448 21.701125 11.215886 20.461904 12.849609 18.828125 C 14.483331 17.194345 15.722664 15.473886 16.431641 13.914062 C 16.786129 13.134151 17.015294 12.392437 17.058594 11.671875 C 17.101894 10.951313 16.932434 10.182415 16.384766 9.6347656 C 15.837098 9.0871167 15.068216 8.9195671 14.347656 8.9628906 z M 14.46875 10.958984 C 14.828275 10.937364 14.932575 11.012661 14.970703 11.050781 C 15.008833 11.088911 15.084104 11.193208 15.0625 11.552734 C 15.0409 11.91226 14.896619 12.458266 14.611328 13.085938 C 14.040744 14.341284 12.925967 15.923591 11.435547 17.414062 C 9.9451283 18.904533 8.3646988 20.019217 7.109375 20.589844 C 6.4817131 20.875158 5.9356967 21.017447 5.5761719 21.039062 C 5.216647 21.060679 5.1103942 20.987347 5.0722656 20.949219 C 5.0341371 20.911092 4.9608179 20.804839 4.9824219 20.445312 C 5.0040259 20.085787 5.1463488 19.539781 5.4316406 18.912109 C 6.0022242 17.656765 7.1170028 16.076409 8.6074219 14.585938 C 10.097841 13.095467 11.680223 11.97883 12.935547 11.408203 C 13.563209 11.122889 14.109225 10.980601 14.46875 10.958984 z M 41.021484 22 C 39.254818 22 37.88425 22.252576 36.861328 22.712891 C 35.838406 23.173206 35.021484 23.944445 35.021484 25 C 35.021484 26.055555 35.838406 26.826794 36.861328 27.287109 C 37.88425 27.747424 39.254818 28 41.021484 28 C 42.510285 28 43.862014 27.768866 44.929688 27.341797 C 45.463524 27.128262 45.931253 26.870102 46.316406 26.505859 C 46.70156 26.141617 47.021484 25.613917 47.021484 25 C 47.021484 24.386083 46.70156 23.858383 46.316406 23.494141 C 45.931253 23.129898 45.463524 22.871738 44.929688 22.658203 C 43.862015 22.231134 42.510285 22 41.021484 22 z M 14.542969 24 C 12.628977 24 10.891258 24.346302 9.5429688 24.970703 C 8.194679 25.595105 7.0644531 26.588079 7.0644531 28 C 7.0644531 29.411921 8.1946789 30.404895 9.5429688 31.029297 C 10.891258 31.653698 12.628977 32 14.542969 32 C 16.456961 32 18.194679 31.653698 19.542969 31.029297 C 20.891258 30.404895 22.021484 29.411921 22.021484 28 C 22.021484 26.588079 20.891258 25.595105 19.542969 24.970703 C 18.194679 24.346302 16.456961 24 14.542969 24 z M 41.021484 24 C 42.294109 24 43.443577 24.216884 44.185547 24.513672 C 44.556532 24.662066 44.820533 24.832955 44.941406 24.947266 C 44.975948 24.979932 44.977372 24.984768 44.990234 25 C 44.977372 25.015231 44.97595 25.020068 44.941406 25.052734 C 44.820533 25.167045 44.556532 25.337934 44.185547 25.486328 C 43.443577 25.783124 42.294109 26 41.021484 26 C 39.454818 26 38.325385 25.752576 37.681641 25.462891 C 37.037896 25.173206 37.021484 24.944445 37.021484 25 C 37.021484 25.05555 37.037894 24.826794 37.681641 24.537109 C 38.325385 24.247424 39.454818 24 41.021484 24 z M 28.859375 25.933594 C 28.113907 25.925894 27.328926 26.173007 26.761719 26.740234 C 26.194511 27.307461 25.947379 28.092424 25.955078 28.837891 C 25.962778 29.583358 26.180611 30.320003 26.511719 31.058594 C 27.173935 32.535777 28.317648 34.042304 29.648438 35.373047 C 30.979228 36.70379 32.485686 37.847601 33.962891 38.509766 C 34.701494 38.840848 35.438127 39.058734 36.183594 39.066406 C 36.929061 39.074106 37.714043 38.826993 38.28125 38.259766 C 38.848458 37.692539 39.095588 36.905623 39.087891 36.160156 C 39.080191 35.414689 38.864312 34.678045 38.533203 33.939453 C 37.870987 32.462271 36.725321 30.955743 35.394531 29.625 C 34.063741 28.294256 32.557283 27.150445 31.080078 26.488281 C 30.341475 26.157198 29.604842 25.941267 28.859375 25.933594 z M 14.542969 26 C 16.20668 26 17.706842 26.323771 18.703125 26.785156 C 19.699408 27.246541 20.021484 27.755067 20.021484 28 C 20.021484 28.244933 19.699408 28.753459 18.703125 29.214844 C 17.706842 29.676229 16.20668 30 14.542969 30 C 12.879258 30 11.379097 29.676229 10.382812 29.214844 C 9.3865299 28.753459 9.0644531 28.244933 9.0644531 28 C 9.0644531 27.755067 9.3865299 27.246541 10.382812 26.785156 C 11.379097 26.323771 12.879258 26 14.542969 26 z M 28.839844 27.931641 C 29.188591 27.935241 29.693719 28.058969 30.263672 28.314453 C 31.403578 28.825422 32.784369 29.843003 33.980469 31.039062 C 35.17657 32.235122 36.196023 33.617926 36.707031 34.757812 C 36.962535 35.327757 37.086243 35.832895 37.089844 36.181641 C 37.093444 36.530389 37.021918 36.690962 36.867188 36.845703 C 36.712452 37.000444 36.553826 37.069995 36.205078 37.066406 C 35.856331 37.062806 35.351203 36.939078 34.78125 36.683594 C 33.641344 36.172626 32.2586 35.155043 31.0625 33.958984 C 29.866399 32.762925 28.846946 31.380122 28.335938 30.240234 C 28.080434 29.67029 27.956726 29.165152 27.953125 28.816406 C 27.949525 28.467658 28.021042 28.309038 28.175781 28.154297 C 28.330516 27.999556 28.491096 27.928052 28.839844 27.931641 z M 23.574219 34.003906 C 22.942291 34.033886 22.306929 34.223199 21.644531 34.517578 C 20.319737 35.106339 18.881347 36.136183 17.519531 37.498047 C 16.157715 38.85991 15.127776 40.298232 14.539062 41.623047 C 14.244706 42.285455 14.055349 42.920805 14.025391 43.552734 C 13.995431 44.184662 14.152274 44.876901 14.648438 45.373047 C 15.1446 45.869192 15.836822 46.026074 16.46875 45.996094 C 17.100677 45.966114 17.73604 45.774848 18.398438 45.480469 C 19.723232 44.891708 21.161622 43.861863 22.523438 42.5 C 23.885252 41.138137 24.915191 39.699815 25.503906 38.375 C 25.798262 37.712592 25.98762 37.079194 26.017578 36.447266 C 26.047538 35.815338 25.890694 35.123099 25.394531 34.626953 C 24.898368 34.130808 24.206145 33.973926 23.574219 34.003906 z M 23.667969 36.001953 C 23.937628 35.989163 23.979095 36.041596 23.978516 36.041016 C 23.977938 36.040438 24.032311 36.081902 24.019531 36.351562 C 24.006751 36.621221 23.900925 37.055846 23.675781 37.5625 C 23.225492 38.575808 22.322243 39.871074 21.107422 41.085938 C 19.892602 42.300799 18.599229 43.203974 17.585938 43.654297 C 17.079292 43.87946 16.642706 43.985254 16.373047 43.998047 C 16.103388 44.010837 16.061921 43.956461 16.0625 43.957031 C 16.063078 43.95761 16.010658 43.916143 16.023438 43.646484 C 16.036217 43.376824 16.142042 42.942201 16.367188 42.435547 C 16.817476 41.422239 17.718774 40.126971 18.933594 38.912109 C 20.148415 37.697245 21.443738 36.796027 22.457031 36.345703 C 22.963676 36.120541 23.39831 36.014747 23.667969 36.001953 z"/></svg>