<svg xmlns="http://www.w3.org/2000/svg"  viewBox="0 0 50 50" width="1000px" height="1000px"><path d="M 13.214844 3.828125 C 12.90625 3.824219 12.59375 3.890625 12.296875 4.046875 L 4.0625 8.296875 C 2.886719 8.90625 2.628906 10.546875 3.5625 11.484375 L 10.539063 18.5 C 9.847656 19.21875 9.351563 20.136719 9.171875 21.167969 C 6.878906 21.566406 5.078125 23.453125 5 25.839844 L 5 25.847656 C 5 25.921875 5 25.953125 5 26 L 4.023438 26 C 2.914063 26 1.96875 26.929688 2.023438 28.066406 C 2.265625 33.074219 4.167969 37 6.085938 39.75 C 7.046875 41.121094 8.011719 42.203125 8.785156 42.988281 C 9.558594 43.777344 10.203125 44.335938 10.265625 44.402344 L 10.269531 44.402344 C 11.488281 45.609375 13.320313 45.855469 15.714844 45.945313 C 18.109375 46.035156 21.171875 45.902344 25 45.902344 C 28.820313 45.902344 31.8125 46.054688 34.175781 45.980469 C 36.539063 45.902344 38.378906 45.621094 39.691406 44.4375 C 40.003906 44.160156 42.042969 42.492188 43.949219 39.746094 C 45.859375 36.996094 47.738281 33.070313 47.972656 28.066406 C 48.03125 26.929688 47.085938 26 45.972656 26 L 44.894531 26 C 44.878906 25.890625 44.875 25.8125 44.851563 25.691406 C 44.734375 25.128906 44.457031 24.460938 43.972656 23.871094 C 43.914063 22.128906 42.722656 20.714844 41.117188 20.246094 L 44.328125 17.625 C 45.261719 16.859375 45.183594 15.335938 44.171875 14.671875 L 37.722656 10.441406 C 37.46875 10.277344 37.191406 10.1875 36.910156 10.160156 C 36.628906 10.132813 36.34375 10.175781 36.082031 10.273438 C 35.558594 10.46875 35.117188 10.894531 34.953125 11.476563 L 33.089844 18.09375 C 32.945313 18.203125 32.796875 18.3125 32.667969 18.4375 C 32.136719 18.234375 31.613281 18 31 18 C 30.828125 18 30.695313 18.050781 30.53125 18.070313 C 29.769531 16.285156 28.054688 15 26 15 C 24.867188 15 23.851563 15.402344 23.03125 16.046875 L 23.03125 7.523438 C 23.050781 6.199219 21.722656 5.199219 20.453125 5.578125 L 15.464844 7.078125 L 15.1875 5.480469 C 15.019531 4.503906 14.140625 3.839844 13.214844 3.828125 Z M 13.21875 5.820313 L 13.683594 8.53125 L 15.03125 16.316406 L 15.1875 17.214844 C 14.808594 17.097656 14.417969 17 14 17 C 13.367188 17 12.765625 17.125 12.214844 17.347656 L 4.980469 10.078125 Z M 21.03125 7.492188 L 21.03125 18.035156 C 20.609375 18.089844 20.210938 18.207031 19.808594 18.320313 C 19.121094 17.597656 18.230469 17.066406 17.179688 17.011719 L 17 15.980469 L 15.808594 9.0625 Z M 9 10 C 8.449219 10 8 10.449219 8 11 C 8 11.550781 8.449219 12 9 12 C 9.550781 12 10 11.550781 10 11 C 10 10.449219 9.550781 10 9 10 Z M 12 10 C 11.449219 10 11 10.449219 11 11 C 11 11.550781 11.449219 12 12 12 C 12.550781 12 13 11.550781 13 11 C 13 10.449219 12.550781 10 12 10 Z M 36.816406 12.238281 L 42.886719 16.21875 L 39.734375 18.785156 C 38.839844 17.703125 37.515625 17 36 17 C 35.816406 17 35.640625 17.011719 35.464844 17.035156 Z M 26 17 C 27.453125 17 28.648438 18.019531 28.933594 19.375 L 29.15625 20.421875 L 30.1875 20.128906 C 30.476563 20.046875 30.742188 20 31 20 C 31.507813 20 31.980469 20.136719 32.421875 20.378906 L 33.15625 20.777344 L 33.675781 20.128906 C 34.234375 19.441406 35.054688 19 36 19 C 37.410156 19 38.5625 19.960938 38.894531 21.261719 L 39.09375 22.046875 L 39.90625 22.015625 C 40.097656 22.003906 40.125 22 40 22 C 41.117188 22 42 22.882813 42 24 C 42 23.90625 41.996094 23.9375 41.984375 24.109375 L 41.949219 24.628906 L 42.355469 24.953125 C 42.539063 25.105469 42.746094 25.542969 42.859375 26 L 27 26 C 27 25.449219 26.550781 25 26 25 C 25.449219 25 25 25.449219 25 26 L 7 26 C 7.003906 25.949219 7.003906 25.867188 7 25.902344 C 7.054688 24.28125 8.363281 23 10 23 L 11 23 L 11 22 C 11 20.332031 12.332031 19 14 19 C 14.429688 19 14.835938 19.09375 15.214844 19.265625 L 15.65625 19.457031 L 16.082031 19.234375 C 16.378906 19.082031 16.679688 19 17 19 C 17.710938 19 18.316406 19.363281 18.675781 19.917969 L 19.121094 20.601563 L 19.875 20.308594 C 20.386719 20.109375 20.929688 20 21.5 20 C 21.667969 20 21.835938 20.011719 22.015625 20.03125 L 22.886719 20.136719 L 23.097656 19.28125 C 23.425781 17.96875 24.585938 17 26 17 Z M 15 21 C 14.449219 21 14 21.449219 14 22 C 14 22.550781 14.449219 23 15 23 C 15.550781 23 16 22.550781 16 22 C 16 21.449219 15.550781 21 15 21 Z M 18 23 C 17.449219 23 17 23.449219 17 24 C 17 24.550781 17.449219 25 18 25 C 18.550781 25 19 24.550781 19 24 C 19 23.449219 18.550781 23 18 23 Z M 33 23 C 32.449219 23 32 23.449219 32 24 C 32 24.550781 32.449219 25 33 25 C 33.550781 25 34 24.550781 34 24 C 34 23.449219 33.550781 23 33 23 Z M 4.027344 28 L 5.832031 28 C 5.941406 28.019531 6.050781 28.019531 6.15625 28 L 43.832031 28 C 43.941406 28.019531 44.050781 28.019531 44.15625 28 L 45.972656 28 C 45.882813 29.832031 45.546875 31.492188 45.070313 33 L 4.9375 33 C 4.457031 31.492188 4.117188 29.832031 4.027344 28 Z M 5.699219 35 L 44.316406 35 C 43.71875 36.367188 43.019531 37.578125 42.308594 38.605469 C 40.554688 41.125 38.851563 42.507813 38.359375 42.941406 L 38.359375 42.945313 L 38.355469 42.949219 C 37.648438 43.585938 36.328125 43.910156 34.109375 43.980469 C 31.890625 44.050781 28.875 43.902344 25 43.902344 C 21.125 43.902344 18.046875 44.027344 15.789063 43.945313 C 13.53125 43.863281 12.203125 43.503906 11.679688 42.984375 C 11.390625 42.695313 10.921875 42.3125 10.210938 41.589844 C 9.5 40.863281 8.609375 39.863281 7.726563 38.601563 C 7.007813 37.574219 6.304688 36.367188 5.699219 35 Z"/></svg>