<svg xmlns="http://www.w3.org/2000/svg"  viewBox="0 0 50 50" width="1000px" height="1000px"><path d="M 40.875 0 C 40.765625 0.015625 40.660156 0.046875 40.5625 0.09375 C 40.5625 0.09375 40.382813 0.214844 40.375 0.21875 C 40.078125 0.363281 32.636719 3.945313 24.875 13 C 20.921875 17.609375 18.082031 22.144531 15.8125 25.78125 C 13.542969 29.417969 11.757813 32.171875 10.40625 33.15625 C 8.230469 34.738281 6.699219 35.484375 5.59375 35.875 C 4.488281 36.265625 3.820313 36.316406 3.09375 36.4375 C 1.996094 36.621094 1.089844 37.105469 0.5625 37.875 C 0.0351563 38.644531 -0.046875 39.585938 0.1875 40.46875 C 0.359375 41.117188 0.769531 41.695313 1.28125 42.03125 C 1.792969 42.367188 2.386719 42.484375 2.96875 42.53125 C 4.128906 42.625 5.34375 42.367188 6.46875 41.9375 C 7.722656 41.457031 9.5 40.675781 11.28125 39.40625 C 11.445313 39.289063 11.742188 39.25 12.375 39.40625 C 12.738281 39.496094 13.183594 39.640625 13.65625 39.8125 C 12.652344 42.074219 12.136719 43.972656 12 46.5 C 11.945313 47.476563 12.203125 48.328125 12.6875 48.96875 C 13.171875 49.609375 13.902344 50.007813 14.6875 50 C 16.253906 49.984375 17.578125 48.511719 17.84375 46.21875 C 18.097656 44.019531 18.484375 42.359375 19.0625 40.71875 C 19.65625 40.546875 20.242188 40.253906 20.75 39.78125 C 21.734375 38.859375 22.066406 37.625 22 36.46875 C 21.96875 35.945313 21.878906 35.417969 21.75 34.90625 C 23.117188 32.917969 25.023438 30.554688 25.9375 29.34375 C 35.933594 16.117188 48.5 8.875 48.5 8.875 C 48.925781 8.648438 49.128906 8.148438 48.984375 7.691406 C 48.835938 7.230469 48.382813 6.941406 47.90625 7 C 47.820313 7.011719 47.738281 7.03125 47.65625 7.0625 C 47.65625 7.0625 47.507813 7.121094 47.5 7.125 C 47.5 7.125 47.46875 7.125 47.46875 7.125 C 46.972656 7.308594 32.285156 12.777344 20.5625 27.5 C 23.277344 22.425781 25.296875 18.753906 28.75 14.65625 C 35.296875 6.886719 41.625 1.78125 41.625 1.78125 C 41.984375 1.503906 42.109375 1.019531 41.933594 0.601563 C 41.757813 0.183594 41.324219 -0.0625 40.875 0 Z M 26.9375 13.78125 C 23.28125 18.207031 21.164063 22.15625 18.1875 27.71875 C 17.648438 28.722656 17.828125 29.832031 18.125 30.84375 C 18.421875 31.855469 18.894531 32.882813 19.28125 33.875 C 19.667969 34.867188 19.957031 35.800781 20 36.5625 C 20.042969 37.324219 19.910156 37.84375 19.375 38.34375 C 18.867188 38.816406 18.414063 38.933594 17.75 38.90625 C 17.085938 38.878906 16.277344 38.648438 15.4375 38.34375 C 15.40625 38.332031 15.375 38.324219 15.34375 38.3125 C 15.3125 38.300781 15.28125 38.289063 15.25 38.28125 C 14.464844 37.988281 13.65625 37.636719 12.84375 37.4375 C 11.96875 37.226563 10.945313 37.171875 10.09375 37.78125 C 8.507813 38.914063 6.914063 39.617188 5.75 40.0625 C 4.832031 40.414063 3.820313 40.621094 3.125 40.5625 C 2.777344 40.535156 2.515625 40.4375 2.375 40.34375 C 2.234375 40.25 2.179688 40.175781 2.125 39.96875 C 2.003906 39.507813 2.0625 39.226563 2.21875 39 C 2.375 38.773438 2.710938 38.527344 3.4375 38.40625 C 3.992188 38.3125 4.957031 38.25 6.28125 37.78125 C 7.605469 37.3125 9.304688 36.445313 11.59375 34.78125 C 13.597656 33.324219 15.234375 30.472656 17.5 26.84375 C 19.765625 23.214844 22.566406 18.792969 26.40625 14.3125 C 26.585938 14.101563 26.757813 13.984375 26.9375 13.78125 Z M 36.125 15.75 C 32.332031 19.058594 28.226563 23.019531 24.34375 28.15625 C 23.644531 29.082031 22.226563 30.835938 20.9375 32.59375 C 20.730469 32.085938 20.546875 31.609375 20.375 31.15625 C 25.378906 24.230469 31.109375 19.261719 36.125 15.75 Z M 17 34 C 15.894531 34 15 34.894531 15 36 C 15 37.105469 15.894531 38 17 38 C 18.105469 38 19 37.105469 19 36 C 19 34.894531 18.105469 34 17 34 Z M 15.5625 40.46875 C 16.003906 40.609375 16.433594 40.738281 16.90625 40.8125 C 16.414063 42.363281 16.070313 43.992188 15.84375 45.96875 C 15.648438 47.675781 14.96875 47.996094 14.6875 48 C 14.546875 48 14.429688 47.941406 14.28125 47.75 C 14.132813 47.558594 13.96875 47.191406 14 46.59375 C 14.128906 44.195313 14.570313 42.644531 15.5625 40.46875 Z"/></svg>