<svg xmlns="http://www.w3.org/2000/svg"  viewBox="0 0 50 50" width="1000px" height="1000px"><path d="M 23.15625 2.25 C 22.914063 2.261719 22.671875 2.289063 22.4375 2.3125 C 21.574219 2.398438 20.757813 2.5625 20 2.8125 C 19.992188 2.8125 19.976563 2.8125 19.96875 2.8125 C 19.921875 2.828125 19.859375 2.828125 19.8125 2.84375 L 19.8125 2.875 C 17.769531 3.210938 15.511719 4.417969 12.71875 6.75 C 5.757813 12.558594 2.988281 19.039063 2.25 24.90625 C 1.511719 30.773438 2.753906 36.019531 3.625 39.5 C 4.011719 41.042969 3.945313 42.117188 3.84375 43 C 3.792969 43.441406 3.714844 43.808594 3.71875 44.25 C 3.722656 44.691406 3.839844 45.277344 4.25 45.6875 C 4.632813 46.070313 5.234375 46.214844 5.65625 46.21875 C 6.078125 46.222656 6.410156 46.171875 6.8125 46.125 C 7.617188 46.03125 8.65625 45.957031 10.375 46.40625 C 17.328125 48.222656 30.039063 50.925781 42.84375 38.125 C 45.738281 35.230469 47.453125 31.972656 47.75 28.8125 L 47.78125 28.8125 C 47.785156 28.78125 47.777344 28.75 47.78125 28.71875 C 48.117188 26.816406 48.011719 24.621094 47.4375 22.28125 C 46.339844 17.808594 43.828125 13.484375 40.34375 10 C 35.394531 5.050781 29.28125 2.445313 24.3125 2.25 C 23.914063 2.234375 23.535156 2.234375 23.15625 2.25 Z M 23.15625 4.3125 C 23.496094 4.304688 23.859375 4.292969 24.21875 4.3125 C 28.539063 4.546875 34.304688 6.804688 38.90625 11.40625 C 41.9375 14.4375 44.1875 18.191406 45.28125 22 C 45.289063 22.042969 45.300781 22.085938 45.3125 22.125 C 45.316406 22.1875 45.328125 22.25 45.34375 22.3125 C 45.472656 22.832031 45.75 24.105469 45.65625 25.03125 C 45.609375 25.492188 45.46875 25.832031 45.3125 26 C 45.15625 26.167969 44.957031 26.289063 44.3125 26.25 C 44.046875 26.234375 43.785156 26.320313 43.585938 26.5 C 43.386719 26.675781 43.265625 26.921875 43.25 27.1875 C 43.179688 28.160156 42.320313 28.925781 41.40625 29.09375 C 40.949219 29.179688 40.523438 29.113281 40.1875 28.90625 C 39.851563 28.699219 39.554688 28.332031 39.375 27.59375 C 39.269531 27.148438 38.875 26.832031 38.417969 26.824219 C 37.960938 26.820313 37.558594 27.121094 37.4375 27.5625 C 37.242188 28.320313 36.84375 28.6875 36.25 28.90625 C 35.65625 29.125 34.824219 29.121094 34.0625 28.875 C 33.300781 28.628906 32.625 28.160156 32.21875 27.5625 C 31.8125 26.964844 31.621094 26.261719 31.875 25.3125 C 31.964844 24.871094 31.75 24.425781 31.347656 24.21875 C 30.949219 24.015625 30.460938 24.105469 30.15625 24.4375 C 29.6875 25.027344 29.160156 25.140625 28.40625 25 C 27.652344 24.859375 26.746094 24.316406 26 23.5625 C 25.253906 22.808594 24.6875 21.867188 24.5 20.9375 C 24.3125 20.007813 24.4375 19.132813 25.125 18.28125 C 25.40625 17.941406 25.429688 17.457031 25.1875 17.089844 C 24.941406 16.722656 24.484375 16.558594 24.0625 16.6875 C 23.011719 16.988281 22.1875 16.773438 21.4375 16.21875 C 20.6875 15.664063 20.078125 14.726563 19.75 13.75 C 19.421875 12.773438 19.40625 11.777344 19.65625 11.125 C 19.90625 10.472656 20.273438 10.109375 21.25 10.03125 C 21.648438 9.992188 21.984375 9.722656 22.109375 9.339844 C 22.230469 8.960938 22.113281 8.542969 21.8125 8.28125 C 20.964844 7.539063 20.558594 6.910156 20.40625 6.46875 C 20.253906 6.027344 20.300781 5.765625 20.4375 5.5 C 20.691406 5.011719 21.554688 4.503906 22.4375 4.34375 C 22.675781 4.320313 22.90625 4.320313 23.15625 4.3125 Z M 18.40625 5.34375 C 18.292969 5.902344 18.320313 6.523438 18.53125 7.125 C 18.699219 7.609375 19.222656 8.085938 19.59375 8.5625 C 18.769531 8.996094 18.089844 9.605469 17.78125 10.40625 C 17.304688 11.652344 17.398438 13.050781 17.84375 14.375 C 18.289063 15.699219 19.089844 16.957031 20.25 17.8125 C 20.960938 18.335938 21.84375 18.597656 22.78125 18.6875 C 22.496094 19.566406 22.359375 20.460938 22.53125 21.3125 C 22.8125 22.71875 23.578125 24.007813 24.5625 25 C 25.546875 25.992188 26.746094 26.726563 28.03125 26.96875 C 28.625 27.082031 29.25 27.007813 29.84375 26.84375 C 29.953125 27.523438 30.203125 28.15625 30.5625 28.6875 C 31.265625 29.722656 32.304688 30.414063 33.4375 30.78125 C 34.570313 31.148438 35.824219 31.191406 36.9375 30.78125 C 37.46875 30.585938 37.960938 30.269531 38.375 29.84375 C 38.613281 30.121094 38.828125 30.410156 39.125 30.59375 C 39.9375 31.09375 40.914063 31.222656 41.78125 31.0625 C 43.25 30.789063 44.558594 29.6875 45.03125 28.15625 C 45.332031 28.109375 45.609375 28.039063 45.875 27.9375 C 45.851563 28.101563 45.839844 28.28125 45.8125 28.4375 C 45.800781 28.46875 45.789063 28.5 45.78125 28.53125 C 45.5625 31.109375 44.105469 34.050781 41.4375 36.71875 C 29.191406 48.964844 17.75 46.265625 10.875 44.46875 C 8.898438 43.953125 7.476563 44.015625 6.5625 44.125 C 6.136719 44.175781 5.867188 44.214844 5.71875 44.21875 C 5.71875 44.035156 5.757813 43.683594 5.8125 43.21875 C 5.921875 42.261719 6.023438 40.835938 5.5625 39 C 4.699219 35.546875 3.5625 30.597656 4.25 25.15625 C 4.9375 19.714844 7.398438 13.792969 14 8.28125 C 15.734375 6.835938 17.183594 5.886719 18.40625 5.34375 Z M 32.875 11.84375 C 32.566406 11.855469 32.308594 11.972656 32.125 12.15625 C 31.390625 12.890625 32.074219 14.792969 33.6875 16.40625 C 35.300781 18.019531 37.234375 18.734375 37.96875 18 C 38.703125 17.265625 37.988281 15.332031 36.375 13.71875 C 35.164063 12.507813 33.796875 11.808594 32.875 11.84375 Z"/></svg>