<svg xmlns="http://www.w3.org/2000/svg"  viewBox="0 0 50 50" width="1000px" height="1000px"><path d="M 21 0 A 1.0001 1.0001 0 0 0 20 1 L 20 6.484375 L 13.417969 11.185547 A 1.0001 1.0001 0 0 0 13 12 L 13 18 L 13 39 L 13 45.800781 A 1.0001 1.0001 0 0 0 13.175781 46.367188 L 15.375 49.566406 A 1.0001 1.0001 0 0 0 16.199219 50 L 33.800781 50 A 1.0001 1.0001 0 0 0 34.625 49.566406 L 36.824219 46.367188 A 1.0001 1.0001 0 0 0 37 45.800781 L 37 39 L 37 18 L 37 12 A 1.0001 1.0001 0 0 0 36.582031 11.185547 L 30 6.484375 L 30 1 A 1.0001 1.0001 0 0 0 29 0 L 21 0 z M 22 2 L 28 2 L 28 6 L 22 6 L 22 2 z M 21.320312 8 L 28.679688 8 L 35 12.515625 L 35 17 L 15 17 L 15 12.513672 L 21.320312 8 z M 15 19 L 35 19 L 35 38 L 15 38 L 15 19 z M 31.980469 20.990234 A 1.0001 1.0001 0 0 0 31.292969 21.292969 L 28.396484 24.189453 C 24.779479 21.348422 20.117187 21.001953 20.117188 21.001953 A 1.0001 1.0001 0 0 0 19.085938 21.783203 C 19.085938 21.783203 18.720771 23.42308 18.65625 25.488281 C 18.59173 27.553483 18.772302 30.106076 20.132812 32.066406 C 20.185993 32.143056 20.268284 32.187628 20.324219 32.261719 L 17.292969 35.292969 A 1.0001 1.0001 0 1 0 18.707031 36.707031 L 21.724609 33.689453 C 23.598494 35.064972 26.090183 35.423913 28.242188 34.181641 C 28.329087 34.131471 28.37904 34.042287 28.462891 33.988281 C 29.106393 34.792101 29.666387 35.62994 30.119141 36.472656 A 1.0001 1.0001 0 1 0 31.880859 35.527344 C 31.353712 34.546157 30.703203 33.589844 29.964844 32.675781 C 30.488612 32.026141 30.89511 31.296142 31.125 30.507812 C 31.563565 29.003905 31.395414 27.289674 30.357422 25.923828 C 30.225561 25.750364 30.036511 25.679066 29.896484 25.517578 L 32.707031 22.707031 A 1.0001 1.0001 0 0 0 31.980469 20.990234 z M 20.927734 23.1875 C 21.939466 23.308319 24.492789 23.779379 26.986328 25.599609 L 21.744141 30.841797 C 20.867621 29.517427 20.599033 27.3822 20.65625 25.550781 C 20.69753 24.229627 20.828987 23.729477 20.927734 23.1875 z M 28.503906 26.910156 C 28.579616 27.000356 28.693863 27.040363 28.765625 27.134766 C 29.386632 27.95192 29.497013 28.946175 29.205078 29.947266 C 29.076819 30.387086 28.837208 30.804264 28.560547 31.195312 C 28.253716 30.885357 27.992862 30.543933 27.664062 30.251953 A 1.0002763 1.0002763 0 1 0 26.335938 31.748047 C 26.601291 31.983687 26.808953 32.260657 27.058594 32.509766 C 25.764044 33.17305 24.3503 33.014505 23.169922 32.244141 L 28.503906 26.910156 z M 15 40 L 35 40 L 35 45.490234 L 33.273438 48 L 16.726562 48 L 15 45.490234 L 15 40 z"/></svg>