<svg xmlns="http://www.w3.org/2000/svg"  viewBox="0 0 50 50" width="1000px" height="1000px"><path d="M 7.8125 4 C 6.277344 4 5 5.277344 5 6.8125 L 5 12.1875 C 5 12.898438 5.304688 13.53125 5.75 14.03125 L 2.15625 19.4375 C 2 19.671875 1.945313 19.957031 2.011719 20.230469 C 2.078125 20.503906 2.253906 20.738281 2.5 20.875 C 2.5 20.875 3.441406 21.386719 5 21.875 L 5 43 C 5 46.300781 7.699219 49 11 49 L 39 49 C 42.300781 49 45 46.300781 45 43 L 45 21.78125 C 46.441406 21.339844 47.40625 20.90625 47.40625 20.90625 C 47.6875 20.78125 47.894531 20.53125 47.96875 20.230469 C 48.039063 19.933594 47.972656 19.617188 47.78125 19.375 L 43.71875 14.5 C 44.480469 13.992188 45 13.15625 45 12.1875 L 45 6.8125 C 45 5.277344 43.722656 4 42.1875 4 Z M 7.8125 6 L 42.1875 6 C 42.632813 6 43 6.367188 43 6.8125 L 43 12.1875 C 43 12.632813 42.632813 13 42.1875 13 L 7.8125 13 C 7.367188 13 7 12.632813 7 12.1875 L 7 6.8125 C 7 6.367188 7.367188 6 7.8125 6 Z M 7.5625 14.96875 C 7.644531 14.976563 7.726563 15 7.8125 15 L 41.53125 15 L 45.25 19.46875 C 43.417969 20.148438 37.203125 22.25 32.5625 19.15625 C 32.273438 18.96875 31.90625 18.945313 31.59375 19.09375 C 26.886719 21.257813 23.222656 21.992188 18.5 19.15625 C 18.21875 18.980469 17.867188 18.957031 17.5625 19.09375 C 13.269531 21.238281 9.367188 20.976563 6.78125 20.34375 C 6.539063 20.046875 6.152344 19.914063 5.78125 20 C 5.761719 20.007813 5.738281 20.019531 5.71875 20.03125 C 5.246094 19.878906 4.824219 19.730469 4.5 19.59375 Z M 18 21.0625 C 19.78125 22.050781 21.5 22.589844 23.1875 22.78125 L 22.46875 24 L 17 24 C 16.96875 24 16.9375 24 16.90625 24 C 16.589844 24.039063 16.3125 24.222656 16.15625 24.5 L 13.15625 29.5 C 12.976563 29.808594 12.976563 30.191406 13.15625 30.5 L 16.15625 35.5 C 16.332031 35.800781 16.652344 35.992188 17 36 L 22.46875 36 L 25.15625 40.5 C 25.332031 40.800781 25.652344 40.992188 26 41 L 32 41 C 32.347656 40.992188 32.667969 40.800781 32.84375 40.5 L 35.84375 35.5 C 36.023438 35.191406 36.023438 34.808594 35.84375 34.5 L 33.15625 30 L 35.84375 25.5 C 36.0625 25.261719 36.152344 24.929688 36.082031 24.613281 C 36.015625 24.296875 35.796875 24.035156 35.5 23.90625 L 35.4375 23.8125 C 33.4375 23.8125 32.4375 22.84375 32.4375 22.84375 L 33.84375 25.03125 L 31.46875 29 L 26.53125 29 L 24.15625 25 L 25.46875 22.84375 C 27.632813 22.707031 29.761719 22.054688 31.9375 21.09375 C 35.554688 23.238281 39.851563 22.988281 43 22.3125 L 43 43 C 43 45.21875 41.21875 47 39 47 L 11 47 C 8.78125 47 7 45.21875 7 43 L 7 22.375 C 9.855469 22.933594 13.789063 23.03125 18 21.0625 Z M 17.53125 26 L 22.46875 26 L 24.84375 30 L 22.46875 34 L 17.53125 34 L 15.15625 30 Z M 26.53125 31 L 31.46875 31 L 33.84375 35 L 31.46875 39 L 26.53125 39 L 24.15625 35 Z"/></svg>