<svg xmlns="http://www.w3.org/2000/svg"  viewBox="0 0 50 50" width="1000px" height="1000px"><path d="M 41.1875 1.09375 C 39.339844 1.167969 37.855469 1.738281 36.6875 2.71875 C 36.15625 3.164063 35.699219 3.679688 35.28125 4.25 C 32.1875 3.929688 29.5 5.828125 28.28125 8.0625 C 26.207031 11.871094 22.359375 21.453125 14.75 24.9375 C 10.03125 27.097656 7.476563 29.765625 6.40625 32.5625 C 4.253906 33.390625 2.382813 34.363281 1.1875 35.90625 C -0.253906 37.765625 -0.421875 40.375 1.03125 43.6875 C 1.777344 45.390625 3.199219 46.460938 4.8125 46.9375 C 6.425781 47.414063 8.234375 47.359375 10.0625 47.0625 C 10.519531 46.988281 10.980469 46.886719 11.4375 46.78125 C 14.167969 48.96875 17.691406 49.574219 21.875 48.09375 C 26.136719 46.582031 31.171875 43.015625 37.53125 36.9375 C 45.535156 29.285156 48.820313 22.8125 49.71875 17.9375 C 50.167969 15.5 50.015625 13.46875 49.53125 11.90625 C 49.097656 10.507813 48.445313 9.488281 47.5625 8.90625 C 48.300781 7.144531 48.15625 5.5 47.46875 4.25 C 46.449219 2.394531 44.644531 1.375 43.15625 1.1875 C 42.457031 1.097656 41.804688 1.070313 41.1875 1.09375 Z M 41.28125 3.09375 C 41.769531 3.082031 42.296875 3.109375 42.90625 3.1875 C 43.535156 3.265625 45.085938 4.0625 45.71875 5.21875 C 46.324219 6.320313 46.34375 7.75 44.5 9.875 C 42.625 9.71875 40.929688 10.15625 39.59375 11.1875 C 38.070313 12.363281 36.890625 14.0625 35.75 15.96875 C 33.46875 19.777344 31.367188 24.492188 27.96875 27.875 C 23.136719 32.6875 20.0625 34.761719 18.375 36.5625 C 17.53125 37.460938 16.972656 38.476563 17.03125 39.59375 C 17.074219 40.414063 17.46875 41.1875 17.96875 42.0625 C 15.804688 43.28125 12.691406 44.613281 9.75 45.09375 C 8.109375 45.363281 6.558594 45.378906 5.375 45.03125 C 4.191406 44.683594 3.386719 44.039063 2.875 42.875 C 1.582031 39.929688 1.8125 38.375 2.78125 37.125 C 3.75 35.875 5.777344 34.882813 8.40625 33.96875 C 13.664063 32.136719 21.074219 30.566406 25.96875 25.15625 C 31.359375 19.199219 33.265625 13.082031 35.0625 8.875 C 35.960938 6.769531 36.847656 5.191406 37.96875 4.25 C 38.808594 3.546875 39.8125 3.128906 41.28125 3.09375 Z M 34.09375 6.25 C 33.796875 6.835938 33.496094 7.449219 33.21875 8.09375 C 31.351563 12.46875 29.589844 18.183594 24.5 23.8125 C 20.523438 28.207031 14.386719 29.882813 9.1875 31.59375 C 10.335938 29.929688 12.308594 28.253906 15.59375 26.75 C 24.214844 22.804688 28.195313 12.460938 30.0625 9.03125 C 30.792969 7.703125 32.332031 6.472656 34.09375 6.25 Z M 46.5625 10.65625 C 46.882813 10.933594 47.320313 11.523438 47.625 12.5 C 48 13.703125 48.179688 15.433594 47.78125 17.59375 C 46.984375 21.917969 43.949219 28.050781 36.15625 35.5 C 29.902344 41.480469 24.980469 44.84375 21.1875 46.1875 C 18.164063 47.257813 15.9375 47.121094 14 46.0625 C 16.261719 45.296875 18.332031 44.28125 19.84375 43.34375 L 20.71875 42.8125 L 20.1875 41.96875 C 19.390625 40.730469 19.054688 39.925781 19.03125 39.46875 C 19.007813 39.011719 19.164063 38.664063 19.84375 37.9375 C 21.207031 36.484375 24.449219 34.183594 29.375 29.28125 C 33.125 25.546875 35.289063 20.644531 37.46875 17 C 38.558594 15.175781 39.644531 13.683594 40.8125 12.78125 C 41.980469 11.878906 43.167969 11.492188 44.875 11.8125 L 45.4375 11.9375 L 45.8125 11.53125 C 46.089844 11.234375 46.339844 10.953125 46.5625 10.65625 Z"/></svg>