<svg xmlns="http://www.w3.org/2000/svg"  viewBox="0 0 50 50" width="1000px" height="1000px"><path d="M 25 0 C 20.054688 0 16 4.054688 16 9 C 16 9.519531 16.050781 10.007813 16.125 10.46875 C 12.578125 11.679688 10 15.058594 10 19 C 10 22.109375 11.640625 24.882813 14.125 26.5 L 24.09375 49.40625 C 24.257813 49.757813 24.613281 49.984375 25 49.984375 C 25.386719 49.984375 25.742188 49.757813 25.90625 49.40625 L 35.84375 26.5625 C 38.355469 24.972656 40 22.191406 40 19 C 40 15.0625 37.417969 11.710938 33.875 10.5 C 33.945313 10.015625 34 9.511719 34 9 C 34 4.054688 29.945313 0 25 0 Z M 25 2 C 28.855469 2 32 5.144531 32 9 C 32 9.296875 31.953125 9.660156 31.90625 10.03125 C 31.605469 10 31.308594 10 31 10 C 29.867188 10 28.761719 10.21875 27.84375 10.5625 C 27.324219 10.761719 27.066406 11.339844 27.265625 11.859375 C 27.464844 12.378906 28.042969 12.636719 28.5625 12.4375 C 29.242188 12.183594 30.132813 12 31 12 C 34.855469 12 38 15.144531 38 19 C 38 21.554688 36.699219 23.710938 34.6875 24.9375 C 34.617188 24.980469 34.554688 25.035156 34.5 25.09375 C 33.796875 25.25 30.128906 26 25 26 C 20.308594 26 16.839844 25.386719 15.71875 25.15625 C 15.707031 25.144531 15.699219 25.136719 15.6875 25.125 C 15.628906 25.085938 15.566406 25.054688 15.5 25.03125 C 13.398438 23.804688 12 21.53125 12 19 C 12 15.144531 15.144531 12 19 12 C 22.855469 12 26 15.144531 26 19 C 26 20.320313 25.644531 21.542969 25.03125 22.59375 C 24.804688 22.902344 24.773438 23.3125 24.949219 23.652344 C 25.128906 23.992188 25.484375 24.199219 25.867188 24.1875 C 26.253906 24.175781 26.59375 23.945313 26.75 23.59375 C 27.535156 22.246094 28 20.679688 28 19 C 28 14.054688 23.945313 10 19 10 C 18.691406 10 18.394531 10 18.09375 10.03125 C 18.039063 9.671875 18 9.316406 18 9 C 18 5.144531 21.144531 2 25 2 Z M 16.65625 27.3125 C 18.015625 27.554688 20.066406 27.828125 22.84375 27.9375 L 19.5 31.28125 L 17.5 29.28125 Z M 33.34375 27.3125 L 32.5 29.28125 L 30.5 31.3125 L 27.15625 27.9375 C 29.953125 27.832031 31.976563 27.558594 33.34375 27.3125 Z M 25 28.625 L 29.09375 32.71875 L 25.03125 36.84375 L 20.90625 32.6875 Z M 19.71875 34.34375 L 23.625 38.25 L 22.09375 39.8125 Z M 30.25 34.40625 L 27.9375 39.75 L 26.4375 38.25 Z M 25.03125 39.65625 L 27.09375 41.71875 L 25 46.5 L 22.9375 41.78125 Z"/></svg>