<svg xmlns="http://www.w3.org/2000/svg"  viewBox="0 0 50 50" width="1000px" height="1000px"><path d="M 27 3 A 1.0001 1.0001 0 0 0 26 4 L 26 9 L 25 9 A 1.0001 1.0001 0 0 0 24 10 L 24 31 L 14 31 A 1.0001 1.0001 0 0 0 13 32 L 13 33 L 7 33 A 1.0001 1.0001 0 0 0 6 34 L 6 43 A 1.0001 1.0001 0 0 0 7 44 L 13 44 L 13 45 A 1.0001 1.0001 0 0 0 14 46 L 30.833984 46 C 31.305115 46 31.772283 45.954153 32.236328 45.888672 A 1.0001 1.0001 0 0 0 33.496094 45.628906 C 33.945035 45.505612 34.388658 45.36265 34.818359 45.177734 C 39.78083 43.042944 43 38.155576 43 32.753906 L 43 31.167969 A 1.0001 1.0001 0 0 0 43 30.841797 L 43 26.167969 A 1.0001 1.0001 0 0 0 43 25.841797 L 43 21.167969 A 1.0001 1.0001 0 0 0 43 20.841797 L 43 14 A 1.0001 1.0001 0 0 0 42 13 L 41 13 L 41 4 A 1.0001 1.0001 0 0 0 40 3 L 27 3 z M 28 5 L 39 5 L 39 13 L 35.892578 13 L 31.855469 9.265625 A 1.0001 1.0001 0 0 0 31.175781 9 L 28 9 L 28 5 z M 26 11 L 27 11 L 30.785156 11 L 34.820312 14.734375 A 1.0001 1.0001 0 0 0 35.5 15 L 40 15 L 41 15 L 41 20 L 36 20 A 1.0001 1.0001 0 1 0 36 22 L 41 22 L 41 25 L 36 25 A 1.0001 1.0001 0 1 0 36 27 L 41 27 L 41 30 L 36 30 A 1.0001 1.0001 0 1 0 36 32 L 41 32 L 41 32.753906 C 41 37.362236 38.262826 41.520587 34.029297 43.341797 C 33.720927 43.474499 33.403003 43.580807 33.082031 43.673828 L 26 31.726562 L 26 11 z M 15 33 L 24.431641 33 L 30.947266 43.994141 C 30.909353 43.994674 30.871928 44 30.833984 44 L 15 44 L 15 43 L 15 34 L 15 33 z M 8 35 L 13 35 L 13 42 L 8 42 L 8 35 z"/></svg>