<svg xmlns="http://www.w3.org/2000/svg"  viewBox="0 0 50 50" width="1000px" height="1000px"><path d="M 41 0 C 39.894531 0 39 0.894531 39 2 C 39 3.105469 39.894531 4 41 4 C 42.105469 4 43 3.105469 43 2 C 43 0.894531 42.105469 0 41 0 Z M 14.8125 1 C 14.335938 1.089844 13.992188 1.511719 14 2 L 14 13 C 14 13.03125 14 13.0625 14 13.09375 C 9.878906 14.996094 7 19.175781 7 24 L 7 47.15625 C 7 48.707031 8.296875 50 9.84375 50 L 28.15625 50 C 29.707031 50 31 48.707031 31 47.15625 L 31 24 C 31 19.175781 28.121094 14.996094 24 13.09375 C 24 13.0625 24 13.03125 24 13 L 24 2 C 24 1.449219 23.550781 1 23 1 L 15 1 C 14.96875 1 14.9375 1 14.90625 1 C 14.875 1 14.84375 1 14.8125 1 Z M 16 3 L 22 3 L 22 6.28125 C 21.402344 6.628906 21 7.261719 21 8 C 21 8.738281 21.402344 9.371094 22 9.71875 L 22 12.40625 C 21.035156 12.15625 20.039063 12 19 12 C 17.960938 12 16.964844 12.15625 16 12.40625 Z M 35 3 C 33.894531 3 33 3.894531 33 5 C 33 6.105469 33.894531 7 35 7 C 36.105469 7 37 6.105469 37 5 C 37 3.894531 36.105469 3 35 3 Z M 29 6 C 27.894531 6 27 6.894531 27 8 C 27 9.105469 27.894531 10 29 10 C 30.105469 10 31 9.105469 31 8 C 31 6.894531 30.105469 6 29 6 Z M 41 6 C 39.894531 6 39 6.894531 39 8 C 39 9.105469 39.894531 10 41 10 C 42.105469 10 43 9.105469 43 8 C 43 6.894531 42.105469 6 41 6 Z M 35 10 C 33.894531 10 33 10.894531 33 12 C 33 13.105469 33.894531 14 35 14 C 36.105469 14 37 13.105469 37 12 C 37 10.894531 36.105469 10 35 10 Z M 41 13 C 39.894531 13 39 13.894531 39 15 C 39 16.105469 39.894531 17 41 17 C 42.105469 17 43 16.105469 43 15 C 43 13.894531 42.105469 13 41 13 Z M 19 14 C 24.539063 14 29 18.460938 29 24 L 29 47.15625 C 29 47.632813 28.632813 48 28.15625 48 L 9.84375 48 C 9.367188 48 9 47.632813 9 47.15625 L 9 24 C 9 18.460938 13.460938 14 19 14 Z M 19 25 C 14.59375 25 11 28.59375 11 33 C 11 35.097656 11.828125 37.007813 13.15625 38.4375 C 13.167969 38.449219 13.175781 38.457031 13.1875 38.46875 C 13.195313 38.488281 13.207031 38.511719 13.21875 38.53125 C 13.257813 38.578125 13.296875 38.617188 13.34375 38.65625 C 13.390625 38.714844 13.441406 38.765625 13.5 38.8125 C 13.53125 38.835938 13.5625 38.855469 13.59375 38.875 C 15.019531 40.1875 16.917969 41 19 41 C 23.40625 41 27 37.40625 27 33 C 27 28.59375 23.40625 25 19 25 Z M 19 27 C 20.296875 27 21.488281 27.433594 22.46875 28.125 L 14.125 36.46875 C 13.433594 35.488281 13 34.296875 13 33 C 13 29.675781 15.675781 27 19 27 Z M 23.875 29.53125 C 24.566406 30.511719 25 31.703125 25 33 C 25 36.324219 22.324219 39 19 39 C 17.703125 39 16.511719 38.566406 15.53125 37.875 Z"/></svg>