<svg xmlns="http://www.w3.org/2000/svg"  viewBox="0 0 50 50" width="1000px" height="1000px"><path d="M 39.984375 0 A 1.0001 1.0001 0 0 0 39.292969 0.29296875 L 35.292969 4.2929688 A 1.0001 1.0001 0 0 0 35.292969 5.7070312 L 36.527344 6.9414062 L 32.941406 10.527344 L 31.707031 9.2929688 A 1.0001 1.0001 0 0 0 30.292969 9.2929688 L 18.404297 21.181641 A 1.0001 1.0001 0 0 0 18.183594 21.402344 L 14.404297 25.181641 A 1.0001 1.0001 0 0 0 14.183594 25.402344 L 10.404297 29.181641 A 1.0001 1.0001 0 0 0 10.183594 29.402344 L 6.2929688 33.292969 A 1.0001 1.0001 0 0 0 6.2929688 34.707031 L 7.5859375 36 L 4.2929688 39.292969 A 1.0001 1.0001 0 0 0 4.2929688 40.707031 L 6.0859375 42.5 L 0.29296875 48.292969 A 1.0001 1.0001 0 1 0 1.7070312 49.707031 L 7.5 43.914062 L 9.2929688 45.707031 A 1.0001 1.0001 0 0 0 10.707031 45.707031 L 14 42.414062 L 15.292969 43.707031 A 1.0001 1.0001 0 0 0 16.707031 43.707031 L 40.707031 19.707031 A 1.0001 1.0001 0 0 0 40.707031 18.292969 L 39.341797 16.927734 L 42.927734 13.341797 L 44.292969 14.707031 A 1.0001 1.0001 0 0 0 45.707031 14.707031 L 49.707031 10.707031 A 1.0001 1.0001 0 0 0 49.707031 9.2929688 L 40.707031 0.29296875 A 1.0001 1.0001 0 0 0 39.984375 0 z M 40 2.4140625 L 47.585938 10 L 45 12.585938 L 37.414062 5 L 40 2.4140625 z M 37.941406 8.3554688 L 41.513672 11.927734 L 37.927734 15.513672 L 34.355469 11.941406 L 37.941406 8.3554688 z M 31 11.414062 L 38.585938 19 L 16 41.585938 L 14.849609 40.435547 A 1.0001 1.0001 0 0 0 14.560547 40.146484 L 9.8242188 35.410156 A 1.0001 1.0001 0 0 0 9.59375 35.179688 L 8.4140625 34 L 11 31.414062 L 14.292969 34.707031 A 1.0001 1.0001 0 1 0 15.707031 33.292969 L 12.414062 30 L 15 27.414062 L 17.292969 29.707031 A 1.0001 1.0001 0 1 0 18.707031 28.292969 L 16.414062 26 L 19 23.414062 L 22.292969 26.707031 A 1.0001 1.0001 0 1 0 23.707031 25.292969 L 20.414062 22 L 31 11.414062 z M 31 16.005859 C 30.229951 16.005859 29.460367 16.2967 28.878906 16.878906 L 26.878906 18.878906 C 25.715833 20.041979 25.715833 21.958021 26.878906 23.121094 C 27.460545 23.704224 28.234094 24 29 24 C 29.765906 24 30.539455 23.704224 31.121094 23.121094 L 33.121094 21.121094 C 34.284167 19.958021 34.284167 18.041979 33.121094 16.878906 C 32.539633 16.2967 31.770049 16.005859 31 16.005859 z M 31 17.994141 C 31.253951 17.994141 31.508492 18.094175 31.707031 18.292969 C 32.105958 18.691896 32.105958 19.308104 31.707031 19.707031 L 29.707031 21.707031 L 29.705078 21.707031 C 29.506764 21.905901 29.258094 22 29 22 C 28.741906 22 28.493283 21.9059 28.294922 21.707031 L 28.292969 21.707031 C 27.894042 21.308104 27.894042 20.691896 28.292969 20.292969 L 30.292969 18.292969 C 30.491555 18.094175 30.746049 17.994141 31 17.994141 z M 9 37.414062 L 12.585938 41 L 10 43.585938 L 6.4140625 40 L 9 37.414062 z"/></svg>