<svg xmlns="http://www.w3.org/2000/svg"  viewBox="0 0 50 50" width="1000px" height="1000px"><path d="M 8.8007812 3 C 7.2655499 3 6 4.2655498 6 5.8007812 L 6 10.199219 C 6 10.915351 6.3200493 11.545457 6.7695312 12.042969 L 3.1679688 17.445312 A 1.0001 1.0001 0 0 0 3.4003906 18.800781 C 3.4003906 18.800781 4.3700622 19.501749 6 20.113281 L 6 41 C 6 44.301625 8.6983746 47 12 47 L 38 47 C 41.301625 47 44 44.301625 44 41 L 44 20 A 1.0001 1.0001 0 0 0 43.998047 19.958984 C 45.526413 19.419783 46.488281 18.873047 46.488281 18.873047 A 1.0001 1.0001 0 0 0 46.767578 17.359375 L 42.634766 12.400391 C 43.403705 11.898858 44 11.176806 44 10.199219 L 44 5.8007812 C 44 4.2655498 42.73445 3 41.199219 3 L 8.8007812 3 z M 8.8007812 5 L 41.199219 5 C 41.645987 5 42 5.3540127 42 5.8007812 L 42 10.199219 C 42 10.645987 41.645987 11 41.199219 11 L 41.128906 11 A 1.0001 1.0001 0 0 0 40.847656 11 L 8.8007812 11 C 8.3540128 11 8 10.645987 8 10.199219 L 8 5.8007812 C 8 5.3540127 8.3540127 5 8.8007812 5 z M 8.59375 12.914062 C 8.6724739 12.92085 8.7204332 13 8.8007812 13 L 40.53125 13 L 44.375 17.611328 C 43.189782 18.157298 40.972164 19.060753 38.021484 19 C 36.249827 18.963462 34.315418 18.341789 32.554688 17.167969 A 1.0001 1.0001 0 0 0 31.582031 17.091797 C 29.114149 18.226919 27.804444 19 25 19 C 22.900457 19 20.845724 18.541244 18.513672 17.142578 A 1.0001 1.0001 0 0 0 17.552734 17.105469 C 14.997231 18.383221 12.696499 18.996415 10.84375 19 C 7.9561974 19.006238 6.2878521 18.155781 5.4355469 17.648438 L 8.59375 12.914062 z M 17.988281 19.074219 C 20.42123 20.422296 22.752743 21 25 21 C 27.990658 21 29.794681 20.112201 31.980469 19.095703 C 33.892227 20.254041 35.958002 20.958329 37.978516 21 C 39.429268 21.029871 40.789582 20.820619 42 20.533203 L 42 41 C 42 43.220375 40.220375 45 38 45 L 12 45 C 9.7796254 45 8 43.220375 8 41 L 8 20.695312 C 8.8586953 20.876551 9.8065254 21.002249 10.847656 21 C 12.997362 20.9958 15.415024 20.300105 17.988281 19.074219 z"/></svg>