<svg xmlns="http://www.w3.org/2000/svg"  viewBox="0 0 50 50" width="1000px" height="1000px"><path d="M 47.53125 1.9589844 L 45.972656 2 C 45.972656 2 41.613585 2.0709019 38.949219 5.3554688 L 38.416016 5.9082031 C 36.887962 7.490526 34.733466 10.312843 30.435547 14.917969 C 28.098346 17.423393 24.399599 19.056342 20.544922 20.464844 C 16.690244 21.873346 12.713563 23.044799 9.7929688 24.964844 L 9.7871094 24.96875 L 9.7832031 24.972656 C 4.4760697 28.55483 3.0234375 32.66888 3.0234375 36.84375 C 3.0234375 42.221552 7.7555878 47.372198 13.570312 47.994141 C 17.82936 48.449386 23.419718 47.777645 28.083984 42.378906 C 32.462931 37.310104 33.614301 32.153163 34.726562 27.289062 C 35.838825 22.424964 36.906641 17.859615 41.035156 13.332031 L 41.035156 13.330078 C 41.446289 12.878158 42.024728 12.308927 42.609375 11.75 L 42.769531 11.595703 L 42.794922 11.578125 L 45.455078 9.5859375 L 45.488281 9.5566406 C 46.166354 8.9498847 46.55222 8.384225 46.761719 7.9277344 C 46.971218 7.4712437 47 7 47 7 L 47 6.3789062 L 45.880859 5.8261719 L 47.53125 1.9589844 z M 44.34375 4.3359375 L 43.298828 6.7832031 L 44.654297 7.4511719 C 44.532097 7.6334345 44.470495 7.7787423 44.162109 8.0566406 L 42.271484 9.4707031 C 40.774488 8.2474802 40.34585 7.265473 40.398438 6.8085938 C 41.597195 5.233528 43.096761 4.6287232 44.34375 4.3359375 z M 38.753906 8.5449219 C 38.988795 9.028843 39.326474 9.5188584 39.775391 10.009766 C 40.024378 10.391256 40.278343 10.725703 40.541016 10.996094 C 40.201022 11.331818 39.836137 11.677118 39.556641 11.984375 C 35.088156 16.884791 33.889379 21.970146 32.775391 26.841797 C 31.661402 31.713447 30.627366 36.376068 26.570312 41.072266 C 22.356579 45.949527 17.682156 46.422614 13.783203 46.005859 C 11.045467 45.713031 8.5485349 44.078477 6.9257812 41.951172 C 8.1804983 42.062869 9.5266605 41.86304 10.876953 41.410156 C 13.278767 40.604596 15.758045 39.023792 17.994141 36.871094 C 20.576228 34.385835 22.249177 30.944095 22.796875 27.853516 C 23.070724 26.308226 23.068786 24.841561 22.664062 23.580078 C 22.490071 23.037762 22.217559 22.532999 21.863281 22.097656 C 25.580646 20.712599 29.29682 19.069982 31.896484 16.283203 C 35.617809 12.295885 37.376674 10.095234 38.753906 8.5449219 z M 19.724609 22.882812 C 20.218514 23.105204 20.537401 23.498318 20.759766 24.191406 C 21.020667 25.004611 21.061775 26.185446 20.828125 27.503906 C 20.360823 30.140827 18.825334 33.294947 16.607422 35.429688 C 14.553518 37.406988 12.280921 38.829232 10.240234 39.513672 C 8.356202 40.14557 6.7369011 40.132021 5.5625 39.537109 C 5.2202319 38.65141 5.0234375 37.740455 5.0234375 36.84375 C 5.0234375 33.080628 6.0143889 29.932683 10.896484 26.634766 C 13.091583 25.193077 16.334638 24.089193 19.724609 22.882812 z M 13.736328 27.994141 C 13.307883 28.021071 12.883882 28.149525 12.484375 28.322266 C 11.685362 28.667747 10.913451 29.247264 10.261719 30.007812 C 9.6100172 30.768327 9.1820247 31.576754 9.0429688 32.402344 C 8.9039127 33.227933 9.162004 34.251264 9.9902344 34.722656 C 10.818045 35.193388 11.717184 35.023055 12.515625 34.677734 C 13.314649 34.332159 14.086952 33.752363 14.738281 32.992188 C 15.389983 32.231673 15.817975 31.423246 15.957031 30.597656 C 16.096087 29.772067 15.837996 28.748736 15.009766 28.277344 C 14.596372 28.042269 14.164148 27.967247 13.736328 27.994141 z M 13.828125 30.013672 C 13.95746 30.004033 14.027429 30.019013 14.021484 30.015625 C 14.010254 30.009225 14.040075 29.934965 13.984375 30.265625 C 13.928685 30.596285 13.681049 31.151919 13.21875 31.691406 C 12.757079 32.230229 12.188382 32.640372 11.722656 32.841797 C 11.25693 33.043222 10.966206 32.97736 10.978516 32.984375 C 10.989746 32.990775 10.959925 33.065035 11.015625 32.734375 C 11.071315 32.403715 11.318951 31.848081 11.78125 31.308594 C 12.243518 30.769143 12.811857 30.359472 13.277344 30.158203 C 13.510087 30.057569 13.69879 30.023311 13.828125 30.013672 z"/></svg>