<svg xmlns="http://www.w3.org/2000/svg"  viewBox="0 0 50 50" width="1000px" height="1000px"><path d="M 48.875 0 C 48.652344 0.0234375 48.441406 0.125 48.28125 0.28125 L 45.90625 2.6875 C 45.832031 2.75 45.769531 2.824219 45.71875 2.90625 L 44.65625 3.9375 L 41.8125 1.09375 C 41.464844 0.746094 40.957031 0.589844 40.46875 0.625 C 39.980469 0.660156 39.496094 0.898438 39.1875 1.3125 L 37.375 3.8125 L 37.4375 3.84375 C 37.195313 4.136719 36.96875 4.464844 36.96875 4.875 C 36.96875 5.277344 37.253906 5.652344 37.5625 5.9375 L 37.5 6 L 37.65625 6.125 L 40.0625 8.53125 L 37.71875 10.875 C 35.121094 8.011719 34.375 5.40625 34.375 5.40625 C 34.246094 4.964844 33.832031 4.667969 33.375 4.6875 C 33.34375 4.6875 33.3125 4.6875 33.28125 4.6875 C 33.054688 4.71875 32.84375 4.832031 32.6875 5 L 30.6875 7 C 30.449219 7.25 30.351563 7.601563 30.4375 7.9375 C 30.4375 7.9375 31.285156 11.058594 34.3125 14.28125 L 31.75 16.84375 L 27.59375 12.6875 C 27.1875 12.28125 26.644531 12.097656 26.09375 12.125 C 25.542969 12.152344 25.003906 12.402344 24.625 12.875 L 24.59375 12.90625 L 22.09375 16.3125 L 22.03125 16.375 L 22 16.4375 C 21.8125 16.816406 21.726563 17.210938 21.75 17.625 C 21.773438 18.039063 21.894531 18.519531 22.28125 18.90625 L 25.96875 22.59375 L 23.59375 24.96875 C 20.734375 21.914063 20.0625 19.15625 20.0625 19.15625 C 19.9375 18.652344 19.449219 18.328125 18.9375 18.40625 C 18.734375 18.441406 18.550781 18.542969 18.40625 18.6875 L 16.28125 20.78125 C 16.03125 21.035156 15.933594 21.40625 16.03125 21.75 C 16.03125 21.75 16.894531 25.042969 20.125 28.46875 L 17.78125 30.8125 L 13 26.09375 C 12.539063 25.632813 11.929688 25.425781 11.34375 25.46875 C 10.757813 25.511719 10.195313 25.800781 9.8125 26.28125 L 9.78125 26.3125 L 7 30.09375 L 6.96875 30.15625 L 6.9375 30.1875 C 6.679688 30.613281 6.570313 31.074219 6.59375 31.5625 C 6.613281 32 6.859375 32.476563 7.25 32.84375 L 7.1875 32.90625 L 7.3125 33 L 11.4375 37.15625 L 7.90625 40.6875 L 7.96875 40.75 C 7.015625 41.742188 6.875 43.132813 7.25 44.28125 L 7.25 44.3125 C 7.625 45.433594 7.359375 46.730469 6.25 47.46875 L 6.21875 47.46875 L 6.1875 47.5 C 5.371094 48.113281 4.003906 48.113281 3.1875 47.5 L 3.15625 47.46875 C 1.761719 46.515625 1.640625 44.578125 2.8125 43.40625 C 3.109375 43.164063 3.246094 42.777344 3.160156 42.402344 C 3.074219 42.03125 2.78125 41.738281 2.410156 41.652344 C 2.035156 41.566406 1.648438 41.703125 1.40625 42 C -0.609375 44.015625 -0.371094 47.4375 2 49.09375 C 2.007813 49.097656 2.023438 49.089844 2.03125 49.09375 C 3.59375 50.25 5.773438 50.265625 7.34375 49.125 C 7.355469 49.117188 7.363281 49.101563 7.375 49.09375 C 7.382813 49.089844 7.398438 49.097656 7.40625 49.09375 L 7.40625 49.0625 C 9.238281 47.789063 9.773438 45.542969 9.15625 43.6875 C 8.949219 43.0625 9.007813 42.492188 9.40625 42.09375 C 9.480469 42.019531 9.542969 41.9375 9.59375 41.84375 C 9.605469 41.824219 9.617188 41.800781 9.625 41.78125 L 12.84375 38.5625 L 17 42.71875 C 17.753906 43.472656 18.917969 43.449219 19.71875 42.96875 L 19.75 42.9375 L 19.8125 42.90625 L 23.59375 40 L 23.625 40 L 23.625 39.96875 C 24.582031 39.203125 24.738281 37.707031 23.8125 36.78125 L 19.1875 32.21875 L 21.5625 29.84375 C 24.796875 32.65625 27.90625 33.65625 27.90625 33.65625 C 28.261719 33.765625 28.644531 33.667969 28.90625 33.40625 L 31 31.3125 C 31.246094 31.066406 31.34375 30.707031 31.261719 30.371094 C 31.175781 30.03125 30.925781 29.761719 30.59375 29.65625 C 30.59375 29.65625 27.929688 28.808594 25.0625 26.34375 L 27.40625 24.03125 L 31 27.59375 C 31.691406 28.285156 32.722656 28.464844 33.59375 27.8125 L 33.625 27.78125 L 36.90625 25.1875 L 36.9375 25.1875 C 37.882813 24.433594 37.90625 23 37.09375 22.1875 L 33.15625 18.25 L 35.71875 15.6875 C 38.738281 18.289063 41.625 19.15625 41.625 19.15625 C 41.96875 19.253906 42.339844 19.15625 42.59375 18.90625 L 44.59375 16.90625 C 44.839844 16.660156 44.9375 16.300781 44.855469 15.964844 C 44.769531 15.625 44.519531 15.355469 44.1875 15.25 C 44.1875 15.25 41.710938 14.53125 39.125 12.28125 L 41.46875 9.9375 L 43.90625 12.40625 C 44.519531 13.019531 45.515625 13.050781 46.15625 12.625 L 46.1875 12.625 L 46.21875 12.59375 L 48.625 10.6875 L 48.71875 10.59375 C 49.027344 10.285156 49.226563 9.914063 49.28125 9.46875 C 49.335938 9.023438 49.199219 8.480469 48.8125 8.09375 L 46.0625 5.34375 L 47.125 4.28125 C 47.183594 4.234375 47.234375 4.183594 47.28125 4.125 L 47.3125 4.09375 L 49.71875 1.71875 C 50.042969 1.417969 50.128906 0.941406 49.933594 0.546875 C 49.742188 0.148438 49.308594 -0.0703125 48.875 0 Z M 40.625 2.71875 L 47.1875 9.28125 L 45.1875 10.875 L 39.125 4.8125 Z M 33.0625 7.4375 C 33.613281 8.695313 34.570313 10.5 36.6875 12.6875 C 38.898438 14.972656 40.839844 15.96875 42.15625 16.53125 L 41.65625 17.03125 C 40.980469 16.792969 38.707031 15.894531 36.09375 13.28125 C 33.476563 10.664063 32.757813 8.558594 32.5625 7.9375 Z M 26.1875 14.125 L 26.21875 14.125 L 26.21875 14.15625 L 35.6875 23.59375 C 35.6875 23.601563 35.703125 23.613281 35.6875 23.625 L 32.40625 26.1875 L 23.75 17.53125 C 23.75 17.5 23.773438 17.476563 23.78125 17.4375 Z M 18.75 21.1875 C 19.292969 22.53125 20.261719 24.480469 22.59375 26.8125 C 25.085938 29.304688 27.203125 30.363281 28.5625 30.9375 L 27.96875 31.53125 C 27.277344 31.289063 24.726563 30.320313 21.90625 27.5 C 19.101563 24.695313 18.34375 22.390625 18.15625 21.75 Z M 11.46875 27.46875 C 11.507813 27.457031 11.554688 27.460938 11.59375 27.5 L 22.40625 38.21875 C 22.480469 38.292969 22.417969 38.371094 22.375 38.40625 L 18.6875 41.25 C 18.488281 41.367188 18.453125 41.328125 18.40625 41.28125 L 8.59375 31.5 L 8.59375 31.46875 C 8.589844 31.40625 8.613281 31.292969 8.65625 31.21875 L 11.375 27.53125 C 11.390625 27.511719 11.429688 27.480469 11.46875 27.46875 Z"/></svg>