<svg fill="#000000" xmlns="http://www.w3.org/2000/svg"  viewBox="0 0 50 50" width="1000px" height="1000px"><path d="M 21 2 C 19.355469 2 18 3.355469 18 5 C 18 5.265625 18.105469 5.519531 18.296875 5.710938 C 18.554688 6.636719 19.15625 7.4375 20 7.796875 L 20 15 C 20 18.417969 16.691406 23.210938 15.09375 25.410156 L 15.140625 25.347656 C 14.371094 26.246094 14 27.378906 14 28.5 L 14 42 C 14 45.324219 16.675781 48 20 48 L 31 48 C 34.324219 48 37 45.324219 37 42 L 37 28.597656 C 37 27.332031 36.492188 26.203125 35.761719 25.347656 C 35.753906 25.34375 35.75 25.339844 35.746094 25.332031 C 34.105469 23.5 31 19.449219 31 15 L 31 7.796875 C 31.84375 7.4375 32.445313 6.636719 32.703125 5.710938 C 32.894531 5.519531 33 5.265625 33 5 C 33 3.355469 31.644531 2 30 2 Z M 21 4 L 30 4 C 30.554688 4 31 4.445313 31 5 C 31 5.554688 30.554688 6 30 6 L 21 6 C 20.445313 6 20 5.554688 20 5 C 20 4.445313 20.445313 4 21 4 Z M 22 8 L 29 8 L 29 10 L 22 10 Z M 22 12 L 29 12 L 29 14 L 27.5 14 C 27.230469 14 26.972656 14.109375 26.78125 14.300781 C 26.765625 14.320313 26.75 14.339844 26.734375 14.359375 C 26.472656 14.671875 26.171875 14.875 25.839844 14.957031 C 25.730469 14.988281 25.617188 15 25.5 15 C 25.382813 15 25.269531 14.988281 25.160156 14.957031 C 24.828125 14.875 24.527344 14.671875 24.265625 14.359375 C 24.078125 14.132813 23.796875 14 23.5 14 L 22 14 Z M 21.824219 16 L 23.175781 16 C 23.800781 16.566406 24.574219 17 25.5 17 C 26.425781 17 27.199219 16.566406 27.824219 16 L 29.152344 16 C 29.558594 20.855469 32.59375 24.808594 34.238281 26.652344 C 34.707031 27.195313 35 27.867188 35 28.597656 L 35 42 C 35 44.277344 33.277344 46 31 46 L 20 46 C 17.722656 46 16 44.277344 16 42 L 16 28.5 C 16 27.820313 16.230469 27.152344 16.660156 26.652344 C 16.675781 26.628906 16.695313 26.609375 16.707031 26.589844 C 18.191406 24.550781 21.355469 20.265625 21.824219 16 Z M 23 28 C 22.449219 28 22 28.449219 22 29 L 22 29.5 C 22 30.375 21.375 31 20.5 31 L 20 31 C 19.714844 31 19.441406 31.125 19.25 31.339844 C 19.058594 31.554688 18.972656 31.839844 19.007813 32.125 L 20.007813 40.125 L 20 40 C 20 40.351563 20.160156 40.671875 20.335938 40.875 C 20.511719 41.074219 20.691406 41.191406 20.875 41.292969 C 21.246094 41.488281 21.640625 41.605469 22.101563 41.703125 C 23.023438 41.902344 24.195313 42 25.5 42 C 26.804688 42 27.976563 41.902344 28.898438 41.703125 C 29.359375 41.605469 29.753906 41.488281 30.125 41.292969 C 30.308594 41.191406 30.488281 41.074219 30.664063 40.875 C 30.839844 40.671875 31 40.351563 31 40 L 30.992188 40.125 L 31.992188 32.125 C 32.027344 31.839844 31.941406 31.554688 31.75 31.339844 C 31.558594 31.125 31.285156 31 31 31 L 30.5 31 C 29.625 31 29 30.375 29 29.5 L 29 29 C 29 28.449219 28.550781 28 28 28 Z M 23.898438 30 L 27.101563 30 C 27.324219 31.46875 28.429688 32.601563 29.882813 32.875 L 29.046875 39.570313 C 28.925781 39.621094 28.765625 39.6875 28.476563 39.75 C 27.773438 39.898438 26.695313 40 25.5 40 C 24.304688 40 23.226563 39.898438 22.523438 39.75 C 22.234375 39.6875 22.074219 39.621094 21.953125 39.570313 L 21.117188 32.875 C 22.570313 32.601563 23.675781 31.46875 23.898438 30 Z"/></svg>