<svg xmlns="http://www.w3.org/2000/svg"  viewBox="0 0 50 50" width="1000px" height="1000px"><path d="M 25.130859 5.0039062 C 24.615041 5.0100324 24.093745 5.027376 23.568359 5.0546875 C 20.766303 5.2003486 17.828693 5.6512332 14.775391 6.4316406 C 11.241263 7.3351493 8.0882874 8.9871024 5.7792969 11.201172 C 3.4699094 13.415622 2 16.234002 2 19.347656 C 2 19.374613 2.0036512 19.40082 2.0039062 19.427734 A 1.0001 1.0001 0 0 0 2.0039062 19.615234 C 2.0166219 19.767726 2.0267008 19.877388 2.0390625 20.027344 C 2.0490661 20.151885 2.0549278 20.276877 2.0703125 20.400391 C 2.6701798 27.734518 2.9177111 32.102163 5.6210938 36.412109 C 7.7956533 39.880283 10.60907 42.529998 14.414062 44.15625 C 18.219057 45.782502 22.969274 46.396122 29.064453 45.998047 C 36.639808 45.664548 41.856122 43.027624 44.970703 38.347656 C 48.088291 33.663171 49.118537 27.124736 48.941406 18.986328 A 1.0001 1.0001 0 0 0 48.929688 18.853516 C 48.942161 18.184889 48.876162 17.512342 48.707031 16.84375 C 48.199803 14.838627 46.863921 12.920416 44.681641 11.216797 C 39.515401 7.1841117 32.868138 4.9120134 25.130859 5.0039062 z M 25.146484 6.9960938 C 32.472289 6.899043 38.651318 9.0482318 43.451172 12.794922 C 45.374392 14.296303 46.389963 15.841233 46.767578 17.333984 C 47.145194 18.826736 46.910451 20.314411 46.123047 21.806641 C 45.850479 22.323191 45.484509 22.831909 45.078125 23.335938 C 45.083923 23.24719 45.097397 23.15926 45.099609 23.070312 C 45.146199 21.197577 44.447484 19.322993 43.263672 17.619141 C 40.896047 14.211436 36.55494 11.395852 31.447266 10.554688 C 28.909341 10.136791 26.213289 9.9499868 23.558594 10.0625 C 20.903899 10.175013 18.290681 10.587815 15.917969 11.367188 C 11.172545 12.925931 7.3084812 16.112225 6.5351562 21.251953 C 6.2935861 22.857661 6.7209378 24.434872 7.5996094 25.873047 C 7.2278794 25.56632 6.8737909 25.253657 6.5566406 24.929688 C 5.1270365 23.469345 4.2750581 21.877398 4.0585938 20.199219 C 4.0459712 20.045499 4.0364114 19.932191 4.0234375 19.775391 C 4.0142692 19.633019 4 19.491174 4 19.347656 C 4 16.85831 5.1537469 14.570331 7.1621094 12.644531 C 9.1704719 10.718731 12.02935 9.1977339 15.271484 8.3691406 C 18.206182 7.6190481 21.007291 7.1869795 23.666016 7.0449219 C 24.164526 7.0182861 24.658097 7.0025638 25.146484 6.9960938 z M 25.53125 12.041016 C 27.423138 12.062142 29.318866 12.232219 31.123047 12.529297 C 35.694372 13.282132 39.623422 15.88172 41.623047 18.759766 C 42.62286 20.198788 43.132864 21.684752 43.099609 23.021484 C 43.067782 24.301027 42.575705 25.473303 41.396484 26.544922 C 39.718038 27.627724 37.735179 28.575088 35.496094 29.273438 C 35.009458 29.425243 34.522071 29.565184 34.035156 29.695312 C 33.87433 27.568929 34.497384 26.402065 35.257812 25.238281 C 36.031414 24.054338 37.107716 22.825714 37.021484 20.986328 A 1.0001221 1.0001221 0 0 0 35.023438 21.080078 C 35.070208 22.077692 34.441133 22.832725 33.583984 24.144531 C 33.405691 24.417396 33.266353 24.821916 33.09375 25.142578 C 32.449125 22.996477 31.518169 20.899004 29.996094 19.373047 A 1.0001 1.0001 0 0 0 29.279297 19.068359 A 1.0001 1.0001 0 0 0 28.580078 20.785156 C 29.67496 21.882831 30.488683 23.621291 31.083984 25.447266 C 30.277688 24.73856 29.436978 24.078334 28.494141 23.650391 C 26.163466 22.592524 23.562658 22.248859 21.115234 22.017578 A 1.000496 1.000496 0 0 0 20.927734 24.009766 C 23.316311 24.235485 25.707394 24.58082 27.667969 25.470703 C 29.607451 26.351012 31.136817 27.701807 32.068359 30.158203 C 27.116199 31.196041 22.251005 31.16129 18 30.349609 C 15.036855 29.60335 12.494976 28.244338 10.804688 26.652344 C 9.0663115 25.015059 8.2626617 23.217284 8.5136719 21.548828 C 9.1623471 17.237556 12.235143 14.682584 16.542969 13.267578 C 19.23536 12.3832 22.378103 12.005804 25.53125 12.041016 z M 46.84375 24.363281 C 46.510578 29.761562 45.404065 34.088645 43.306641 37.240234 C 42.613681 38.281475 41.813576 39.207885 40.890625 40.015625 C 41.618849 38.793312 41.988281 37.518288 41.988281 36.326172 C 41.988281 33.514952 40.549181 31.536154 38.521484 30.658203 C 38.373208 30.594003 38.217535 30.544848 38.064453 30.490234 C 39.618391 29.883823 41.038252 29.158146 42.324219 28.349609 A 1.0001257 1.0001257 0 0 0 42.542969 28.208984 C 42.543682 28.208374 42.544209 28.207641 42.544922 28.207031 C 44.289145 27.080547 45.75897 25.79054 46.84375 24.363281 z M 4.5449219 25.689453 C 4.7315789 25.906634 4.9230743 26.121816 5.1269531 26.330078 C 7.0706725 28.315589 9.7767002 29.924902 12.974609 31.068359 C 14.427128 31.587728 15.986762 32.004578 17.621094 32.318359 C 17.677166 32.332158 17.730785 32.349879 17.787109 32.363281 A 1.0001 1.0001 0 0 0 18.003906 32.394531 C 22.187189 33.147849 26.866219 33.185772 31.646484 32.287109 A 1.0001 1.0001 0 0 0 31.882812 32.263672 C 34.13789 31.825751 36.294511 31.874091 37.726562 32.494141 C 39.158616 33.11419 39.988281 34.118392 39.988281 36.326172 C 39.988281 38.958521 36.972039 43.477355 28.935547 44.001953 C 23.041726 44.386878 18.616975 43.777154 15.199219 42.316406 C 11.781462 40.855659 9.3238935 38.554436 7.3144531 35.349609 C 5.5751977 32.576751 4.9729971 29.767717 4.5449219 25.689453 z"/></svg>