<svg fill="#000000" xmlns="http://www.w3.org/2000/svg"  viewBox="0 0 50 50" width="1000px" height="1000px"><path d="M 29.3125 2 C 22.804688 2.023438 15.84375 4.90625 10.375 10.375 C 0.652344 20.097656 -0.910156 34.589844 7.25 42.75 C 15.410156 50.910156 29.902344 49.347656 39.625 39.625 C 49.347656 29.902344 50.910156 15.410156 42.75 7.25 C 39.179688 3.679688 34.375 1.980469 29.3125 2 Z M 29.25 4 C 33.859375 3.972656 38.152344 5.527344 41.3125 8.6875 C 48.539063 15.914063 47.316406 29.121094 38.21875 38.21875 C 29.121094 47.316406 15.882813 48.539063 8.65625 41.3125 C 1.429688 34.085938 2.683594 20.878906 11.78125 11.78125 C 16.898438 6.664063 23.324219 4.039063 29.25 4 Z M 28.96875 5.5 C 28.359375 5.515625 27.742188 5.582031 27.125 5.65625 C 22.183594 6.261719 17.078125 8.734375 12.90625 12.90625 C 8.734375 17.078125 6.261719 22.183594 5.65625 27.125 C 5.050781 32.066406 6.332031 36.894531 9.71875 40.28125 C 13.105469 43.667969 17.933594 44.949219 22.875 44.34375 C 27.816406 43.738281 32.921875 41.265625 37.09375 37.09375 C 41.265625 32.921875 43.738281 27.816406 44.34375 22.875 C 44.949219 17.933594 43.636719 13.105469 40.25 9.71875 C 37.285156 6.753906 33.246094 5.390625 28.96875 5.5 Z M 29 7.53125 C 32.8125 7.421875 36.308594 8.621094 38.84375 11.15625 C 41.742188 14.054688 42.890625 18.175781 42.34375 22.625 C 41.796875 27.074219 39.527344 31.785156 35.65625 35.65625 C 31.785156 39.527344 27.074219 41.796875 22.625 42.34375 C 18.175781 42.890625 14.054688 41.742188 11.15625 38.84375 C 8.257813 35.945313 7.109375 31.824219 7.65625 27.375 C 8.203125 22.925781 10.441406 18.214844 14.3125 14.34375 C 18.183594 10.472656 22.894531 8.203125 27.34375 7.65625 C 27.898438 7.589844 28.457031 7.546875 29 7.53125 Z M 28 13.59375 C 27.199219 13.59375 26.40625 14.195313 26.40625 15.09375 C 26.40625 15.894531 26.789063 19.8125 27.6875 19.8125 C 28.585938 19.914063 29.5 16.210938 29.5 15.3125 C 29.5 14.511719 28.898438 13.792969 28 13.59375 Z M 23.21875 14.65625 C 23.117188 14.664063 23.007813 14.664063 22.90625 14.6875 C 22.105469 14.988281 21.605469 15.886719 21.90625 16.6875 C 22.207031 17.488281 24.105469 20.894531 24.90625 20.59375 C 25.804688 20.292969 25.207031 16.488281 24.90625 15.6875 C 24.644531 14.988281 23.929688 14.609375 23.21875 14.65625 Z M 33.25 15.25 C 32.875 15.25 32.488281 15.386719 32.1875 15.6875 C 31.585938 16.1875 29.59375 19.304688 30.09375 19.90625 C 30.59375 20.507813 33.710938 18.414063 34.3125 17.8125 C 34.914063 17.210938 34.914063 16.289063 34.3125 15.6875 C 34.011719 15.386719 33.625 15.25 33.25 15.25 Z M 18.78125 17.5625 C 18.503906 17.617188 18.226563 17.773438 18 18 C 17.398438 18.601563 17.5 19.492188 18 20.09375 C 18.5 20.695313 21.585938 22.6875 22.1875 22.1875 C 22.789063 21.6875 20.695313 18.601563 20.09375 18 C 19.71875 17.625 19.246094 17.46875 18.78125 17.5625 Z M 34.6875 20.5 C 33.789063 20.5 30.085938 21.414063 30.1875 22.3125 C 30.1875 23.210938 34.105469 23.59375 34.90625 23.59375 C 35.804688 23.59375 36.40625 22.800781 36.40625 22 C 36.40625 21.199219 35.488281 20.5 34.6875 20.5 Z M 16.09375 21.8125 C 15.488281 21.863281 14.914063 22.304688 14.6875 22.90625 C 14.488281 23.707031 14.886719 24.605469 15.6875 24.90625 C 16.488281 25.207031 20.292969 25.804688 20.59375 24.90625 C 20.894531 24.105469 17.488281 22.207031 16.6875 21.90625 C 16.488281 21.832031 16.296875 21.796875 16.09375 21.8125 Z M 30.875 24.625 C 30.121094 24.636719 29.519531 24.757813 29.40625 25.09375 C 29.105469 25.894531 32.511719 27.792969 33.3125 28.09375 C 34.113281 28.394531 35.011719 27.894531 35.3125 27.09375 C 35.511719 26.292969 35.113281 25.394531 34.3125 25.09375 C 33.8125 24.90625 32.132813 24.609375 30.875 24.625 Z M 15.09375 26.40625 C 14.195313 26.40625 13.59375 27.199219 13.59375 28 C 13.792969 28.898438 14.511719 29.5 15.3125 29.5 C 16.210938 29.5 19.914063 28.585938 19.8125 27.6875 C 19.8125 26.789063 15.894531 26.40625 15.09375 26.40625 Z M 28.125 27.71875 C 27.980469 27.710938 27.886719 27.75 27.8125 27.8125 C 27.210938 28.3125 29.304688 31.398438 29.90625 32 C 30.507813 32.601563 31.398438 32.601563 32 32 C 32.601563 31.398438 32.5 30.507813 32 29.90625 C 31.5625 29.382813 29.128906 27.773438 28.125 27.71875 Z M 25.25 29.375 C 25.191406 29.367188 25.144531 29.386719 25.09375 29.40625 C 24.195313 29.707031 24.792969 33.511719 25.09375 34.3125 C 25.394531 35.113281 26.292969 35.511719 27.09375 35.3125 C 27.894531 35.011719 28.394531 34.113281 28.09375 33.3125 C 27.8125 32.5625 26.117188 29.503906 25.25 29.375 Z M 19.59375 30 C 18.65625 30.007813 16.210938 31.664063 15.6875 32.1875 C 15.085938 32.789063 15.085938 33.710938 15.6875 34.3125 C 16.289063 34.914063 17.210938 34.8125 17.8125 34.3125 C 18.414063 33.8125 20.40625 30.695313 19.90625 30.09375 C 19.84375 30.019531 19.726563 30 19.59375 30 Z M 22.3125 30.1875 C 21.414063 30.085938 20.5 33.789063 20.5 34.6875 C 20.5 35.488281 21.199219 36.40625 22 36.40625 C 22.800781 36.40625 23.59375 35.804688 23.59375 34.90625 C 23.59375 34.105469 23.210938 30.1875 22.3125 30.1875 Z"/></svg>