<svg xmlns="http://www.w3.org/2000/svg"  viewBox="0 0 50 50" width="1000px" height="1000px"><path d="M 45.40625 0.1875 L 44.28125 1.28125 L 34.28125 11.28125 C 33.734375 11.832031 26.265625 19.296875 24.28125 21.28125 C 22.535156 23.03125 17.835938 25.726563 9.28125 34.28125 C 4.992188 38.570313 2.84375 41.222656 1.875 43.1875 C 1.390625 44.167969 1.203125 45.03125 1.3125 45.8125 C 1.421875 46.59375 1.855469 47.199219 2.28125 47.625 C 2.667969 48.007813 3.191406 48.46875 3.9375 48.71875 C 4.683594 48.96875 5.589844 48.972656 6.625 48.625 C 8.695313 47.933594 11.414063 46.023438 15.71875 41.71875 C 18.117188 39.320313 19.910156 36.753906 21.34375 34.5625 C 22.777344 32.371094 23.90625 30.53125 24.71875 29.71875 C 26.125 28.3125 28.6875 27.542969 31.65625 26.59375 C 34.625 25.644531 37.972656 24.460938 40.71875 21.71875 C 42.285156 20.152344 44.40625 17.488281 45.75 14.03125 C 47.09375 10.574219 47.621094 6.28125 45.9375 1.65625 Z M 44.46875 3.96875 C 45.324219 7.441406 44.921875 10.621094 43.875 13.3125 C 42.664063 16.425781 40.683594 18.875 39.28125 20.28125 C 36.90625 22.65625 33.941406 23.757813 31.03125 24.6875 C 28.121094 25.617188 25.246094 26.316406 23.28125 28.28125 C 22.109375 29.449219 21.0625 31.316406 19.65625 33.46875 C 18.25 35.621094 16.527344 38.035156 14.28125 40.28125 C 10.066406 44.496094 7.460938 46.230469 6 46.71875 C 5.269531 46.964844 4.867188 46.945313 4.5625 46.84375 C 4.257813 46.742188 3.996094 46.527344 3.6875 46.21875 C 3.421875 45.953125 3.316406 45.785156 3.28125 45.53125 C 3.246094 45.277344 3.3125 44.855469 3.6875 44.09375 C 4.441406 42.570313 6.488281 39.949219 10.71875 35.71875 C 19.164063 27.273438 23.496094 24.945313 25.71875 22.71875 C 27.699219 20.734375 35.15625 13.28125 35.71875 12.71875 Z"/></svg>