<svg fill="#000000" xmlns="http://www.w3.org/2000/svg"  viewBox="0 0 50 50" width="1000px" height="1000px"><path d="M 33.96875 2.90625 C 33.640625 2.957031 33.359375 3.167969 33.21875 3.46875 L 30.53125 8.6875 L 31.78125 4.46875 C 31.894531 4.125 31.808594 3.746094 31.5625 3.480469 C 31.316406 3.214844 30.945313 3.101563 30.59375 3.1875 C 30.230469 3.269531 29.941406 3.546875 29.84375 3.90625 L 27.46875 12.03125 C 27.347656 12.332031 27.378906 12.671875 27.550781 12.945313 C 27.726563 13.21875 28.019531 13.390625 28.34375 13.40625 C 28.414063 13.730469 28.636719 14 28.945313 14.125 C 29.25 14.25 29.597656 14.214844 29.875 14.03125 C 30.0625 14.332031 30.390625 14.511719 30.742188 14.503906 C 31.097656 14.496094 31.417969 14.304688 31.59375 14 L 36.21875 7.875 C 36.46875 7.546875 36.496094 7.097656 36.28125 6.746094 C 36.066406 6.394531 35.65625 6.207031 35.25 6.28125 C 34.996094 6.332031 34.773438 6.476563 34.625 6.6875 L 32.0625 10.09375 L 35 4.375 C 35.183594 4.039063 35.160156 3.632813 34.941406 3.320313 C 34.722656 3.007813 34.34375 2.847656 33.96875 2.90625 Z M 26.40625 6.46875 C 26.1875 6.507813 25.992188 6.617188 25.84375 6.78125 C 25.429688 7.195313 24.515625 7.558594 23.625 7.75 C 22.734375 7.941406 21.921875 7.960938 21.53125 8 C 17.390625 8.421875 13.652344 10.148438 10.6875 12.75 C 10.757813 11.945313 10.742188 11.105469 10.59375 10.1875 C 10.527344 9.660156 10.0625 9.273438 9.53125 9.3125 C 9.5 9.3125 9.46875 9.3125 9.4375 9.3125 C 9.171875 9.359375 8.933594 9.511719 8.777344 9.734375 C 8.625 9.957031 8.570313 10.234375 8.625 10.5 C 9.03125 13.027344 8.519531 14.511719 7.15625 16.8125 C 7.132813 16.84375 7.113281 16.875 7.09375 16.90625 C 5.136719 19.957031 4 23.582031 4 27.46875 C 4 38.25 12.75 47 23.53125 47 C 27.800781 47 31.75 45.605469 34.96875 43.28125 C 35.148438 43.265625 35.320313 43.199219 35.46875 43.09375 C 37.449219 41.714844 39.558594 40.539063 42 39.78125 C 42.550781 39.703125 42.9375 39.191406 42.859375 38.640625 C 42.78125 38.089844 42.269531 37.703125 41.71875 37.78125 C 41.664063 37.789063 41.613281 37.796875 41.5625 37.8125 C 41.507813 37.820313 41.457031 37.828125 41.40625 37.84375 C 40.804688 38.03125 40.222656 38.238281 39.65625 38.46875 C 40.929688 36.613281 41.894531 34.550781 42.46875 32.3125 C 42.59375 32.160156 42.667969 31.976563 42.6875 31.78125 C 43.179688 29.722656 43.472656 28.222656 43.875 27 C 44.277344 25.777344 44.742188 24.816406 45.71875 23.71875 C 46.003906 23.402344 46.058594 22.941406 45.851563 22.570313 C 45.648438 22.195313 45.230469 21.992188 44.8125 22.0625 C 44.589844 22.109375 44.394531 22.230469 44.25 22.40625 C 43.675781 23.050781 43.214844 23.6875 42.84375 24.34375 C 42.28125 20.859375 40.800781 17.671875 38.65625 15.0625 C 38.242188 14.558594 37.667969 14.125 37.15625 13.53125 C 36.644531 12.9375 36.355469 12.300781 36.375 11.96875 C 36.402344 11.417969 35.972656 10.949219 35.421875 10.921875 C 34.871094 10.894531 34.402344 11.324219 34.375 11.875 C 34.304688 13.132813 35.007813 14.09375 35.65625 14.84375 C 36.304688 15.59375 37.042969 16.25 37.09375 16.3125 C 37.800781 17.171875 38.433594 18.109375 38.96875 19.09375 C 38.9375 19.085938 38.933594 19.101563 38.90625 19.09375 C 38.304688 18.925781 37.644531 18.722656 37.34375 18.59375 C 37.1875 18.519531 37.015625 18.488281 36.84375 18.5 C 36.40625 18.546875 36.050781 18.878906 35.96875 19.3125 C 35.902344 19.683594 35.585938 20.375 35.1875 20.96875 C 34.789063 21.5625 34.277344 22.105469 33.96875 22.3125 C 33.511719 22.625 33.390625 23.246094 33.703125 23.703125 C 34.015625 24.160156 34.636719 24.28125 35.09375 23.96875 C 35.773438 23.515625 36.335938 22.847656 36.84375 22.09375 C 37.128906 21.671875 37.273438 21.203125 37.46875 20.75 C 37.769531 20.851563 38.019531 20.9375 38.34375 21.03125 C 38.960938 21.207031 39.445313 21.355469 40 21.375 C 40.703125 23.273438 41.09375 25.328125 41.09375 27.46875 C 41.09375 37.167969 33.230469 45 23.53125 45 C 13.832031 45 6 37.167969 6 27.46875 C 6 18.375 12.902344 10.898438 21.75 10 C 21.980469 9.976563 22.964844 9.917969 24.03125 9.6875 C 25.097656 9.457031 26.339844 9.097656 27.25 8.1875 C 27.574219 7.886719 27.660156 7.410156 27.464844 7.015625 C 27.273438 6.617188 26.839844 6.398438 26.40625 6.46875 Z M 16.375 16.65625 C 16.015625 16.722656 15.722656 16.972656 15.605469 17.320313 C 15.488281 17.664063 15.566406 18.042969 15.8125 18.3125 C 15.8125 18.3125 17.140625 19.90625 19.15625 20.25 C 19.097656 21.753906 19.507813 23.132813 19.6875 23.90625 C 19.726563 24.289063 19.984375 24.617188 20.347656 24.746094 C 20.710938 24.875 21.117188 24.78125 21.390625 24.511719 C 21.660156 24.238281 21.753906 23.832031 21.625 23.46875 C 21.320313 22.140625 20.789063 20.726563 21.09375 19.6875 C 21.191406 19.367188 21.117188 19.019531 20.90625 18.761719 C 20.691406 18.503906 20.363281 18.371094 20.03125 18.40625 C 18.777344 18.519531 17.34375 17.03125 17.34375 17.03125 C 17.132813 16.765625 16.804688 16.625 16.46875 16.65625 C 16.4375 16.65625 16.40625 16.65625 16.375 16.65625 Z M 11.90625 27.1875 C 11.578125 27.246094 11.300781 27.46875 11.167969 27.777344 C 11.035156 28.085938 11.066406 28.4375 11.25 28.71875 C 11.25 28.71875 11.683594 29.394531 12.34375 30.0625 C 12.832031 30.558594 13.527344 31.027344 14.34375 31.3125 C 14.457031 31.8125 14.65625 32.269531 14.875 32.6875 C 15.21875 33.34375 15.597656 33.996094 15.65625 34.1875 C 15.722656 34.566406 16 34.871094 16.371094 34.976563 C 16.742188 35.082031 17.136719 34.964844 17.390625 34.675781 C 17.644531 34.386719 17.710938 33.980469 17.5625 33.625 C 17.355469 32.929688 16.960938 32.332031 16.65625 31.75 C 16.425781 31.3125 16.332031 30.875 16.28125 30.78125 C 16.335938 30.492188 16.261719 30.191406 16.074219 29.960938 C 15.886719 29.734375 15.609375 29.597656 15.3125 29.59375 C 14.914063 29.574219 14.25 29.164063 13.75 28.65625 C 13.25 28.148438 12.9375 27.65625 12.9375 27.65625 C 12.722656 27.300781 12.3125 27.117188 11.90625 27.1875 Z M 30.6875 31.28125 C 30.625 31.296875 30.558594 31.316406 30.5 31.34375 C 28.964844 31.929688 25.5625 32.15625 25.5625 32.15625 C 25.011719 32.191406 24.589844 32.667969 24.625 33.21875 C 24.660156 33.769531 25.136719 34.191406 25.6875 34.15625 C 25.6875 34.15625 28.289063 34.007813 30.40625 33.40625 C 31.449219 35.121094 32.84375 36.40625 32.84375 36.40625 C 33.265625 36.769531 33.902344 36.71875 34.265625 36.296875 C 34.628906 35.875 34.578125 35.238281 34.15625 34.875 C 34.15625 34.875 32.503906 33.421875 31.75 31.84375 C 31.5625 31.441406 31.128906 31.210938 30.6875 31.28125 Z"/></svg>