<svg xmlns="http://www.w3.org/2000/svg"  viewBox="0 0 50 50" width="1000px" height="1000px"><path d="M 25 0 C 22.644531 0 21.03125 0.382813 19.96875 0.78125 C 18.90625 1.179688 18.3125 1.6875 18.3125 1.6875 C 18.113281 1.875 18.003906 2.132813 18 2.40625 L 18 5.71875 C 14.832031 6.390625 11.980469 7.511719 9.625 8.96875 C 5.632813 11.441406 3 14.972656 3 19 C 3 23.027344 5.632813 26.558594 9.625 29.03125 C 11.980469 30.488281 14.832031 31.609375 18 32.28125 L 18 36.59375 C 18.003906 36.867188 18.113281 37.125 18.3125 37.3125 C 18.3125 37.3125 18.90625 37.820313 19.96875 38.21875 C 20.554688 38.4375 21.328125 38.632813 22.28125 38.78125 C 22.109375 39.15625 22 39.5625 22 40 C 22 41.027344 22.515625 41.957031 23.3125 42.5 C 22.589844 43.683594 22.277344 45.035156 22.125 46.1875 C 21.917969 47.777344 22.03125 49.09375 22.03125 49.09375 C 22.078125 49.609375 22.511719 50.003906 23.03125 50 L 26.96875 50 C 27.488281 50.003906 27.921875 49.609375 27.96875 49.09375 C 27.96875 49.09375 28.082031 47.78125 27.875 46.1875 C 27.722656 45.03125 27.410156 43.679688 26.6875 42.5 C 27.484375 41.957031 28 41.027344 28 40 C 28 39.5625 27.890625 39.15625 27.71875 38.78125 C 28.671875 38.632813 29.445313 38.4375 30.03125 38.21875 C 31.09375 37.820313 31.6875 37.3125 31.6875 37.3125 C 31.886719 37.125 31.996094 36.867188 32 36.59375 L 32 32.28125 C 35.167969 31.609375 38.019531 30.488281 40.375 29.03125 C 44.367188 26.558594 47 23.027344 47 19 C 47 14.972656 44.367188 11.441406 40.375 8.96875 C 38.019531 7.511719 35.167969 6.390625 32 5.71875 L 32 2.40625 C 31.996094 2.132813 31.886719 1.875 31.6875 1.6875 C 31.6875 1.6875 31.09375 1.179688 30.03125 0.78125 C 28.96875 0.382813 27.355469 0 25 0 Z M 25 2 C 27.144531 2 28.53125 2.347656 29.34375 2.65625 C 29.898438 2.863281 29.894531 2.921875 30 3 L 30 5.375 C 28.386719 5.136719 26.726563 5 25 5 C 23.273438 5 21.613281 5.136719 20 5.375 L 20 3 C 20.105469 2.921875 20.101563 2.863281 20.65625 2.65625 C 21.46875 2.347656 22.855469 2 25 2 Z M 25 7 C 27.09375 7 29.039063 8.21875 30.53125 10.375 C 32.023438 12.53125 33 15.597656 33 19 C 33 22.402344 32.023438 25.46875 30.53125 27.625 C 29.039063 29.78125 27.09375 31 25 31 C 22.90625 31 20.960938 29.78125 19.46875 27.625 C 17.976563 25.46875 17 22.402344 17 19 C 17 15.597656 17.976563 12.53125 19.46875 10.375 C 20.960938 8.21875 22.90625 7 25 7 Z M 19.28125 7.5 C 18.75 8.019531 18.253906 8.613281 17.8125 9.25 C 16.046875 11.796875 15 15.222656 15 19 C 15 22.777344 16.046875 26.203125 17.8125 28.75 C 18.253906 29.386719 18.75 29.980469 19.28125 30.5 C 19.25 30.496094 19.21875 30.503906 19.1875 30.5 C 19.15625 30.488281 19.125 30.476563 19.09375 30.46875 C 15.851563 29.859375 12.976563 28.761719 10.6875 27.34375 C 7.082031 25.109375 5 22.152344 5 19 C 5 15.847656 7.082031 12.890625 10.6875 10.65625 C 13.019531 9.210938 15.964844 8.101563 19.28125 7.5 Z M 30.71875 7.5 C 34.035156 8.101563 36.980469 9.210938 39.3125 10.65625 C 42.917969 12.890625 45 15.847656 45 19 C 45 22.152344 42.917969 25.109375 39.3125 27.34375 C 36.980469 28.789063 34.035156 29.898438 30.71875 30.5 C 31.25 29.980469 31.746094 29.386719 32.1875 28.75 C 33.953125 26.203125 35 22.777344 35 19 C 35 15.222656 33.953125 11.796875 32.1875 9.25 C 31.746094 8.613281 31.25 8.019531 30.71875 7.5 Z M 20 32.625 C 21.613281 32.863281 23.273438 33 25 33 C 26.726563 33 28.386719 32.863281 30 32.625 L 30 36 C 29.894531 36.078125 29.898438 36.136719 29.34375 36.34375 C 28.53125 36.652344 27.144531 37 25 37 C 22.855469 37 21.46875 36.652344 20.65625 36.34375 C 20.101563 36.136719 20.105469 36.078125 20 36 Z M 25 39 C 25.5625 39 26 39.4375 26 40 C 26 40.542969 25.597656 40.96875 25.0625 41 C 25.042969 41 25.019531 41 25 41 C 24.4375 41 24 40.5625 24 40 C 24 39.4375 24.4375 39 25 39 Z M 25 43.8125 C 25.4375 44.617188 25.785156 45.515625 25.90625 46.4375 C 26.019531 47.296875 25.949219 47.558594 25.9375 48 L 24.0625 48 C 24.050781 47.5625 23.984375 47.320313 24.09375 46.46875 C 24.214844 45.546875 24.558594 44.621094 25 43.8125 Z"/></svg>