<svg xmlns="http://www.w3.org/2000/svg"  viewBox="0 0 50 50" width="1000px" height="1000px"><path d="M 26.449219 6.4492188 A 1.0001 1.0001 0 0 0 25.441406 7.4179688 C 25.441406 7.4179688 25.401606 8.603549 25.605469 10.058594 C 25.774442 11.264599 26.088778 12.68863 26.839844 13.890625 C 26.342224 13.955607 25.770982 14 24.988281 14 C 23.160313 14 22.369755 13.783208 21.412109 13.533203 C 20.744389 13.358886 19.635126 13.261223 18.564453 13.162109 A 1.0001 1.0001 0 0 0 17.984375 12.986328 A 1.0001 1.0001 0 0 0 17.666016 13.044922 C 17.511925 13.041236 17.493854 13 17.328125 13 C 15.325138 13 14.202245 13.283208 13.244141 13.533203 C 12.286036 13.783198 11.491645 14 9.6621094 14 C 7.8330962 14 7.0418388 13.783198 6.0839844 13.533203 C 5.1261299 13.283208 4.0025095 13 2 13 A 1.0001 1.0001 0 0 0 1 14 L 1 19 A 1.0001 1.0001 0 0 0 2 20 C 2.5110455 20 2.6246113 20.100909 3 20.130859 L 3 24.130859 C 2.6046051 24.101614 2.4903512 24 2 24 A 1.0001 1.0001 0 0 0 1 25 L 1 30 A 1.0001 1.0001 0 0 0 2 31 C 2.5110455 31 2.6246113 31.100909 3 31.130859 L 3 35.130859 C 2.6046051 35.101614 2.4903512 35 2 35 A 1.0001 1.0001 0 0 0 1 36 L 1 42 A 1.0001 1.0001 0 0 0 2 43 L 17.832031 43 A 1.0001 1.0001 0 0 0 18.158203 43 L 48 43 A 1.0001 1.0001 0 0 0 49 42 L 49 36 A 1.0001 1.0001 0 0 0 48 35 C 47.509526 35 47.395549 35.101672 47 35.130859 L 47 31.130859 C 47.375525 31.10099 47.489047 31 48 31 A 1.0001 1.0001 0 0 0 49 30 L 49 25 A 1.0001 1.0001 0 0 0 48 24 C 47.509526 24 47.395549 24.101672 47 24.130859 L 47 20.130859 C 47.375525 20.10099 47.489047 20 48 20 A 1.0001 1.0001 0 0 0 49 19 L 49 14 A 1.0001 1.0001 0 0 0 48 13 C 45.995104 13 44.871109 13.283203 43.912109 13.533203 C 42.953109 13.783203 42.159229 14 40.328125 14 C 39.864495 14 39.469297 13.985755 39.119141 13.960938 C 39.902247 12.744818 40.2223 11.287849 40.394531 10.058594 C 40.598397 8.603549 40.558594 7.4179687 40.558594 7.4179688 A 1.0001 1.0001 0 0 0 39.498047 6.4511719 A 1.0001 1.0001 0 0 0 39.451172 6.4550781 C 39.451172 6.4550781 38.274262 6.5832407 36.863281 6.9882812 C 35.605988 7.3492041 34.118223 7.9057708 33 8.9511719 C 31.881682 7.9053873 30.394267 7.3492774 29.136719 6.9882812 C 27.725738 6.5832406 26.548828 6.4550781 26.548828 6.4550781 A 1.0001 1.0001 0 0 0 26.449219 6.4492188 z M 27.515625 8.6894531 C 27.91853 8.7624951 27.998745 8.7435481 28.585938 8.9121094 C 29.822457 9.2670687 31.217575 9.8992989 31.884766 10.666016 A 1.0001 1.0001 0 0 0 31.886719 10.667969 C 31.982039 10.776909 32.068215 10.897802 32.138672 11.017578 A 1.0001 1.0001 0 0 0 32.144531 11.029297 C 32.237215 11.182099 32.305541 11.338888 32.359375 11.498047 C 32.364264 11.511687 32.368384 11.525375 32.373047 11.539062 C 32.423807 11.698328 32.459853 11.859656 32.480469 12.021484 C 32.480882 12.02404 32.480062 12.026741 32.480469 12.029297 C 32.52149 12.358027 32.510114 12.688475 32.476562 13.005859 C 30.874724 13.021086 29.84786 13.215577 29.007812 13.423828 C 28.960974 13.384334 28.914671 13.349821 28.865234 13.292969 C 28.198878 12.527212 27.76457 11.056206 27.585938 9.78125 C 27.501098 9.1757012 27.531535 9.0991024 27.515625 8.6894531 z M 38.484375 8.6894531 C 38.468465 9.0991024 38.498902 9.1757012 38.414062 9.78125 C 38.23543 11.056206 37.801122 12.527212 37.134766 13.292969 A 1.0001 1.0001 0 0 0 37.132812 13.296875 C 37.036174 13.408977 36.935672 13.478054 36.835938 13.556641 C 36.805088 13.548595 36.775297 13.541325 36.744141 13.533203 C 36.13613 13.374702 35.432865 13.210028 34.509766 13.105469 C 34.576465 12.35065 34.533965 11.486229 34.167969 10.613281 C 34.852305 9.8707329 36.206424 9.2587782 37.414062 8.9121094 C 38.001255 8.7435479 38.08147 8.7624953 38.484375 8.6894531 z M 32.65625 15 C 32.657742 15 32.658666 15 32.660156 15 C 33.004843 15.000067 33.283344 15.013123 33.5625 15.027344 C 33.796361 15.04024 34.014285 15.057504 34.212891 15.078125 C 34.337239 15.090852 34.464762 15.10359 34.578125 15.119141 C 34.764281 15.144629 34.936914 15.173642 35.101562 15.205078 C 35.204852 15.225 35.311955 15.243715 35.410156 15.265625 C 35.889485 15.371154 36.321239 15.494128 36.84375 15.621094 A 1.0001 1.0001 0 0 0 36.929688 15.638672 A 1.0001 1.0001 0 0 0 36.941406 15.640625 C 37.767391 15.831971 38.784525 16 40.328125 16 C 42.333021 16 43.457016 15.716797 44.416016 15.466797 C 45.107415 15.286557 46.029755 15.208033 47 15.130859 L 47 18.130859 C 45.778676 18.220979 44.636501 18.344363 43.912109 18.533203 C 42.953109 18.783203 42.159229 19 40.328125 19 C 38.497021 19 37.703141 18.783203 36.744141 18.533203 C 35.785141 18.283203 34.661146 18 32.65625 18 C 30.652786 18 29.528667 18.283208 28.570312 18.533203 C 27.611959 18.783198 26.81834 19 24.988281 19 C 23.159791 19 22.367761 18.783198 21.410156 18.533203 C 20.844768 18.385602 19.827603 18.324162 19 18.21875 L 19 15.21875 C 19.597937 15.30554 20.396107 15.333618 20.90625 15.466797 C 21.863854 15.716792 22.986249 16 24.988281 16 C 26.903179 16 28.008123 15.741159 28.939453 15.5 A 1.0001 1.0001 0 0 0 28.994141 15.486328 C 29.021407 15.479167 29.047234 15.4739 29.074219 15.466797 C 29.313807 15.404298 29.543485 15.344543 29.78125 15.289062 C 30.250243 15.179626 30.754632 15.088013 31.433594 15.039062 C 31.437924 15.03875 31.440968 15.039371 31.445312 15.039062 C 31.795901 15.01441 32.192163 15.000088 32.65625 15 z M 17 15.042969 L 17 18.042969 C 15.283154 18.082819 14.123383 18.303276 13.242188 18.533203 C 12.284041 18.783208 11.491123 19 9.6621094 19 C 7.8330962 19 7.0418388 18.783198 6.0839844 18.533203 C 5.3606782 18.344424 4.2193296 18.221046 3 18.130859 L 3 15.130859 C 3.96773 15.208069 4.887952 15.286666 5.578125 15.466797 C 6.5360206 15.716802 7.6591226 16 9.6621094 16 C 11.665573 16 12.789901 15.716802 13.748047 15.466797 C 14.618369 15.239707 15.502057 15.077789 17 15.042969 z M 32.65625 20 C 34.487354 20 35.281234 20.216797 36.240234 20.466797 C 37.199234 20.716797 38.323229 21 40.328125 21 C 42.333021 21 43.457016 20.716797 44.416016 20.466797 C 44.572282 20.426057 44.847311 20.428845 45 20.390625 L 45 24.390625 C 44.707857 24.455815 44.167344 24.466665 43.912109 24.533203 C 42.953109 24.783201 42.159229 25 40.328125 25 C 38.497021 25 37.703141 24.783203 36.744141 24.533203 C 35.785141 24.283203 34.661146 24 32.65625 24 C 30.652309 24 29.528708 24.283198 28.570312 24.533203 C 27.611917 24.783208 26.817817 25 24.988281 25 C 23.160313 25 22.369755 24.783208 21.412109 24.533203 C 20.846513 24.385547 19.828175 24.324159 19 24.21875 L 19 20.21875 C 19.597791 20.30553 20.396085 20.333612 20.90625 20.466797 C 21.863896 20.716802 22.985772 21 24.988281 21 C 26.992223 21 28.117776 20.716802 29.076172 20.466797 C 30.034567 20.216792 30.826714 20 32.65625 20 z M 17 20.042969 L 17 24.042969 C 15.283684 24.082829 14.125263 24.303295 13.244141 24.533203 C 12.286036 24.783198 11.491645 25 9.6621094 25 C 7.8330962 25 7.0418388 24.783198 6.0839844 24.533203 C 5.8297746 24.466856 5.2908578 24.457608 5 24.392578 L 5 20.390625 C 5.1512135 20.428555 5.4233301 20.426397 5.578125 20.466797 C 6.5360206 20.716804 7.6591226 21 9.6621094 21 C 11.665096 21 12.789942 20.716792 13.748047 20.466797 C 14.618332 20.239717 15.501625 20.077791 17 20.042969 z M 32.65625 26 C 34.487354 26 35.281234 26.216797 36.240234 26.466797 C 37.199234 26.716797 38.323229 27 40.328125 27 C 42.333021 27 43.457016 26.716797 44.416016 26.466797 C 45.107415 26.286557 46.029755 26.208033 47 26.130859 L 47 29.130859 C 45.778676 29.220979 44.636501 29.344363 43.912109 29.533203 C 42.953109 29.783203 42.159229 30 40.328125 30 C 38.497021 30 37.703141 29.783203 36.744141 29.533203 C 35.785141 29.283203 34.661146 29 32.65625 29 C 30.652786 29 29.528667 29.283208 28.570312 29.533203 C 27.611959 29.783198 26.81834 30 24.988281 30 C 23.159791 30 22.367761 29.783198 21.410156 29.533203 C 20.844768 29.385602 19.827603 29.324162 19 29.21875 L 19 26.21875 C 19.597937 26.30553 20.396107 26.333618 20.90625 26.466797 C 21.863854 26.716792 22.986249 27 24.988281 27 C 26.991745 27 28.115864 26.716792 29.074219 26.466797 C 30.032573 26.216802 30.826191 26 32.65625 26 z M 17 26.042969 L 17 29.042969 C 15.283154 29.082819 14.123383 29.303276 13.242188 29.533203 C 12.284041 29.783208 11.491123 30 9.6621094 30 C 7.8330962 30 7.0418388 29.783198 6.0839844 29.533203 C 5.3606782 29.344424 4.2193296 29.221046 3 29.130859 L 3 26.130859 C 3.96773 26.208069 4.887952 26.286666 5.578125 26.466797 C 6.5360206 26.716802 7.6591226 27 9.6621094 27 C 11.665573 27 12.789901 26.716802 13.748047 26.466797 C 14.618369 26.239707 15.502057 26.077789 17 26.042969 z M 32.65625 31 C 34.487354 31 35.281234 31.216797 36.240234 31.466797 C 37.199234 31.716797 38.323229 32 40.328125 32 C 42.333021 32 43.457016 31.716797 44.416016 31.466797 C 44.572282 31.426057 44.847311 31.428845 45 31.390625 L 45 35.390625 C 44.707857 35.455815 44.167344 35.466665 43.912109 35.533203 C 42.953109 35.783201 42.159229 36 40.328125 36 C 38.497021 36 37.703141 35.783203 36.744141 35.533203 C 35.785141 35.283203 34.661146 35 32.65625 35 C 30.652786 35 29.528667 35.283208 28.570312 35.533203 C 27.611959 35.783198 26.81834 36 24.988281 36 C 23.159791 36 22.367761 35.783198 21.410156 35.533203 C 20.844768 35.385602 19.827603 35.324162 19 35.21875 L 19 31.21875 C 19.597791 31.30553 20.396085 31.333612 20.90625 31.466797 C 21.863896 31.716802 22.985772 32 24.988281 32 C 26.992223 32 28.117776 31.716802 29.076172 31.466797 C 30.034567 31.216792 30.826714 31 32.65625 31 z M 17 31.042969 L 17 35.042969 C 15.283154 35.082819 14.123383 35.303276 13.242188 35.533203 C 12.284041 35.783208 11.491123 36 9.6621094 36 C 7.8330962 36 7.0418388 35.783198 6.0839844 35.533203 C 5.8297746 35.466856 5.2908578 35.457608 5 35.392578 L 5 31.390625 C 5.1512135 31.428555 5.4233301 31.426397 5.578125 31.466797 C 6.5360206 31.716804 7.6591226 32 9.6621094 32 C 11.665096 32 12.789942 31.716792 13.748047 31.466797 C 14.618332 31.239717 15.501625 31.077791 17 31.042969 z M 32.65625 37 C 34.487354 37 35.281234 37.216797 36.240234 37.466797 C 37.199234 37.716797 38.323229 38 40.328125 38 C 42.333021 38 43.457016 37.716797 44.416016 37.466797 C 45.107415 37.286557 46.029755 37.208033 47 37.130859 L 47 41 L 19 41 L 19 37.21875 C 19.597791 37.30553 20.396085 37.333612 20.90625 37.466797 C 21.863896 37.716802 22.985772 38 24.988281 38 C 26.992223 38 28.117776 37.716802 29.076172 37.466797 C 30.034567 37.216792 30.826714 37 32.65625 37 z M 17 37.042969 L 17 41 L 3 41 L 3 37.130859 C 3.96773 37.208069 4.887952 37.286666 5.578125 37.466797 C 6.5360206 37.716802 7.6591226 38 9.6621094 38 C 11.665096 38 12.789942 37.716792 13.748047 37.466797 C 14.618332 37.239717 15.501625 37.077791 17 37.042969 z"/></svg>