<svg xmlns="http://www.w3.org/2000/svg"  viewBox="0 0 50 50" width="1000px" height="1000px"><path d="M 22.210938 2 A 1.0001 1.0001 0 0 0 21.441406 2.3613281 C 18.684417 5.6826611 13.081566 8 7.9472656 8 A 1.0001 1.0001 0 0 0 6.9746094 8.7695312 L 6.0273438 12.769531 A 1.0001 1.0001 0 0 0 6.3867188 13.789062 C 9.6019601 16.293438 12 20.401865 12 25 C 12 29.59907 9.6000811 33.708457 6.3847656 36.212891 A 1.0001 1.0001 0 0 0 6.1992188 37.601562 L 9.1992188 41.599609 A 1.0001 1.0001 0 0 0 10 42 C 10.833333 42 13.312707 42.238599 16.083984 43.082031 C 18.855262 43.925464 21.95796 45.372023 24.292969 47.707031 A 1.0001 1.0001 0 0 0 25.707031 47.707031 C 28.04204 45.372023 31.144738 43.925464 33.916016 43.082031 C 36.687293 42.238599 39.166667 42 40 42 A 1.0001 1.0001 0 0 0 40.814453 41.580078 L 43.658203 37.578125 A 1.0001 1.0001 0 0 0 43.466797 36.216797 C 40.349927 33.733914 38 29.579651 38 25 C 38 20.349346 40.403239 16.269909 43.611328 13.791016 A 1.0001 1.0001 0 0 0 43.972656 12.769531 L 43.025391 8.7695312 A 1.0001 1.0001 0 0 0 42.052734 8 C 36.918312 8 31.315506 5.6836096 28.558594 2.3632812 A 1.0001 1.0001 0 0 0 27.791016 2.0019531 L 22.210938 2 z M 22.580078 4 L 27.417969 4.0019531 C 30.609473 7.546228 35.970357 9.7120211 41.242188 9.9179688 L 41.896484 12.681641 C 38.50016 15.538526 36 19.922647 36 25 C 36 29.896546 38.33386 34.224443 41.541016 37.107422 L 39.447266 40.050781 C 38.158157 40.103331 36.002563 40.355793 33.333984 41.167969 C 30.59446 42.001737 27.55232 43.485891 25 45.775391 C 22.44768 43.485891 19.40554 42.001737 16.666016 41.167969 C 13.988643 40.353116 11.823768 40.099957 10.537109 40.048828 L 8.3261719 37.101562 C 11.606809 34.216713 14 29.919409 14 25 C 14 19.965901 11.505264 15.564754 8.1035156 12.683594 L 8.7578125 9.9179688 C 14.029226 9.7119478 19.388513 7.5445763 22.580078 4 z"/></svg>