<svg fill="#000000" xmlns="http://www.w3.org/2000/svg"  viewBox="0 0 50 50" width="1000px" height="1000px"><path d="M 46.71875 2.03125 L 42.1875 2.3125 C 41.9375 2.332031 41.703125 2.441406 41.53125 2.625 L 37.34375 7.125 L 32.875 7.96875 C 32.589844 8.019531 32.335938 8.1875 32.1875 8.4375 L 29.03125 13.9375 C 28.949219 13.925781 28.863281 13.925781 28.78125 13.9375 L 24.96875 14.59375 C 24.664063 14.640625 24.398438 14.824219 24.25 15.09375 L 19.0625 24.84375 C 19.0625 24.855469 19.0625 24.863281 19.0625 24.875 C 19.050781 24.886719 19.042969 24.894531 19.03125 24.90625 C 19.019531 24.917969 19.011719 24.925781 19 24.9375 C 18.933594 24.972656 18.871094 25.015625 18.8125 25.0625 C 18.8125 25.0625 8.035156 35.71875 7.3125 36.4375 C 6.148438 37.59375 5.746094 39.246094 6.09375 40.78125 C 5.378906 41.105469 4.390625 41.6875 3.46875 42.71875 C 3.097656 43.132813 3.132813 43.769531 3.546875 44.140625 C 3.960938 44.511719 4.597656 44.476563 4.96875 44.0625 C 5.691406 43.253906 6.464844 42.820313 6.96875 42.59375 C 7.023438 42.667969 7.066406 42.742188 7.125 42.8125 C 6.570313 43.296875 6.195313 43.859375 5.875 44.28125 C 5.390625 44.921875 5.054688 45.351563 4.0625 45.65625 C 3.683594 45.722656 3.378906 46 3.273438 46.371094 C 3.167969 46.742188 3.285156 47.136719 3.574219 47.390625 C 3.863281 47.644531 4.269531 47.710938 4.625 47.5625 C 6.082031 47.113281 6.921875 46.195313 7.46875 45.46875 C 7.960938 44.816406 8.265625 44.386719 8.78125 44.09375 C 8.921875 44.160156 9.074219 44.199219 9.21875 44.25 C 9.179688 44.386719 9.199219 44.398438 9.125 44.59375 C 8.949219 45.0625 8.667969 45.585938 8.40625 45.8125 C 8.101563 46.035156 7.949219 46.410156 8.011719 46.785156 C 8.074219 47.15625 8.34375 47.460938 8.703125 47.574219 C 9.0625 47.683594 9.457031 47.582031 9.71875 47.3125 C 10.421875 46.703125 10.765625 45.910156 11 45.28125 C 11.113281 44.976563 11.195313 44.707031 11.25 44.5 C 12.433594 44.390625 13.597656 43.863281 14.46875 42.84375 C 16.171875 40.851563 24.1875 31.589844 24.375 31.375 L 35.34375 25.5 C 35.558594 25.386719 35.726563 25.195313 35.8125 24.96875 L 37 21.59375 C 37.070313 21.425781 37.089844 21.242188 37.0625 21.0625 L 42.71875 16.5 C 42.964844 16.304688 43.105469 16.003906 43.09375 15.6875 L 43.0625 13.40625 L 46.53125 9.78125 C 46.761719 9.539063 46.855469 9.199219 46.78125 8.875 L 46.0625 5.375 L 47.5625 3.65625 C 47.8125 3.347656 47.855469 2.921875 47.671875 2.570313 C 47.488281 2.214844 47.113281 2.003906 46.71875 2.03125 Z M 44.5 4.15625 L 35.03125 15.15625 L 38.9375 8.53125 C 38.996094 8.433594 39.039063 8.328125 39.0625 8.21875 L 42.75 4.28125 Z M 44.4375 7.28125 L 44.75 8.75 L 42.5625 11 C 42.355469 10.878906 42.113281 10.832031 41.875 10.875 C 41.742188 10.902344 41.613281 10.953125 41.5 11.03125 L 40.84375 11.46875 Z M 36.125 9.40625 L 28.53125 22.25 L 27.3125 22.59375 L 28.71875 18.53125 L 33.6875 9.84375 Z M 41.0625 13.6875 L 41.09375 15.28125 L 34.3125 20.6875 L 31.34375 21.5 L 32.75 19.125 C 32.792969 19.097656 32.835938 19.066406 32.875 19.03125 L 36.09375 16.90625 C 36.125 16.886719 36.15625 16.867188 36.1875 16.84375 Z M 27.4375 16.1875 L 26.96875 17.5625 L 26.90625 17.65625 C 26.828125 17.800781 26.785156 17.960938 26.78125 18.125 L 25 23.25 L 21.6875 24.15625 L 25.75 16.46875 Z M 34.25 22.78125 C 34.320313 22.800781 34.394531 22.808594 34.46875 22.8125 L 34.0625 23.9375 L 23.25 29.6875 C 23.140625 29.753906 23.046875 29.835938 22.96875 29.9375 C 22.96875 29.9375 14.6875 39.511719 12.9375 41.5625 C 11.761719 42.941406 9.902344 42.847656 8.84375 41.75 C 7.75 40.613281 7.746094 38.8125 8.71875 37.84375 C 9.367188 37.199219 19.6875 27.027344 20.03125 26.6875 L 25.5 25.1875 C 25.824219 25.261719 26.164063 25.167969 26.40625 24.9375 Z"/></svg>