<svg xmlns="http://www.w3.org/2000/svg"  viewBox="0 0 50 50" width="1000px" height="1000px"><path d="M 13 5 C 8.0750567 5 4 8.781396 4 13.5 C 4 18.218604 8.0750567 22 13 22 C 17.924943 22 22 18.218604 22 13.5 C 22 8.781396 17.924943 5 13 5 z M 13 7 C 16.911619 7 20 9.9343329 20 13.5 C 20 17.065667 16.911619 20 13 20 C 9.0883813 20 6 17.065667 6 13.5 C 6 9.9343329 9.0883813 7 13 7 z M 37.5 11 C 32.853451 11 29 14.554965 29 19 C 29 23.445035 32.853451 27 37.5 27 C 42.146549 27 46 23.445035 46 19 C 46 14.554965 42.146549 11 37.5 11 z M 37.5 13 C 41.137728 13 44 15.713049 44 19 C 44 22.286951 41.137728 25 37.5 25 C 33.862272 25 31 22.286951 31 19 C 31 15.713049 33.862272 13 37.5 13 z M 19 23 C 14.075285 23 10 26.781467 10 31.5 C 10 36.218533 14.075285 40 19 40 C 19.864915 40 20.702291 39.881878 21.496094 39.666016 C 22.671903 42.782705 25.834228 45 29.5 45 C 34.146549 45 38 41.445035 38 37 C 38 32.554965 34.146549 29 29.5 29 C 28.868853 29 28.254368 29.070812 27.660156 29.195312 C 26.589257 25.595623 23.091709 23 19 23 z M 19 25 C 22.274884 25 24.974857 27.07685 25.763672 29.828125 C 22.959335 31.128007 21 33.833739 21 37 C 21 37.242837 21.01656 37.481661 21.039062 37.71875 C 20.395106 37.900507 19.71094 38 19 38 C 15.088715 38 12 35.065467 12 31.5 C 12 27.934533 15.088715 25 19 25 z M 29.5 31 C 33.137728 31 36 33.713049 36 37 C 36 40.286951 33.137728 43 29.5 43 C 25.862272 43 23 40.286951 23 37 C 23 33.713049 25.862272 31 29.5 31 z"/></svg>