<svg fill="#000000" xmlns="http://www.w3.org/2000/svg"  viewBox="0 0 50 50" width="1000px" height="1000px"><path d="M 25 2 C 23.753906 2 22.941406 2.800781 22.4375 3.28125 C 21.933594 3.761719 21.71875 4 21 4 C 19.234375 4 18.09375 4.894531 17.40625 5.6875 C 16.84375 5.246094 16.160156 5 15.4375 5 C 14.414063 5 13.496094 5.316406 12.84375 5.84375 C 12.191406 6.371094 11.765625 7.074219 11.4375 7.75 C 10.78125 9.101563 10.40625 10.503906 9.875 11.21875 C 9.703125 11.449219 9.203125 11.996094 8.625 12.65625 C 8.046875 13.316406 7.390625 14.125 6.875 15.125 C 5.84375 17.128906 5.472656 19.945313 7.34375 23 C 7.972656 24.027344 7.785156 25.175781 7.96875 26.875 C 8.152344 28.574219 8.917969 30.644531 11.46875 32.65625 C 12.257813 33.28125 13.132813 34.65625 14 36.09375 C 14.867188 37.53125 15.679688 39.027344 17 39.90625 C 18.640625 40.996094 21.324219 42.328125 21.875 44.59375 C 21.902344 44.726563 21.953125 44.855469 22.03125 44.96875 C 22.019531 45.625 22 46.273438 22 47 L 22 48 L 27 48 L 27 47 C 27 43.898438 27.867188 42.738281 28.96875 41.9375 C 30.070313 41.136719 31.621094 40.824219 33 39.90625 C 34.320313 39.027344 35.132813 37.53125 36 36.09375 C 36.867188 34.65625 37.742188 33.28125 38.53125 32.65625 C 41.082031 30.644531 41.847656 28.574219 42.03125 26.875 C 42.214844 25.175781 42.027344 24.027344 42.65625 23 C 44.527344 19.945313 44.15625 17.128906 43.125 15.125 C 42.609375 14.125 41.953125 13.316406 41.375 12.65625 C 40.796875 11.996094 40.296875 11.449219 40.125 11.21875 C 39.59375 10.503906 39.21875 9.101563 38.5625 7.75 C 38.234375 7.074219 37.808594 6.371094 37.15625 5.84375 C 36.503906 5.316406 35.585938 5 34.5625 5 C 33.808594 5 33.109375 5.277344 32.53125 5.75 C 32.527344 5.746094 32.503906 5.753906 32.5 5.75 C 31.660156 4.785156 30.359375 4 28.5625 4 C 28.488281 4 28.449219 4.011719 28.3125 3.90625 C 28.175781 3.800781 27.980469 3.582031 27.71875 3.3125 C 27.199219 2.777344 26.304688 2 25 2 Z M 25 4 C 25.605469 4 25.832031 4.222656 26.28125 4.6875 C 26.507813 4.917969 26.742188 5.199219 27.09375 5.46875 C 27.445313 5.738281 27.980469 6 28.5625 6 C 30.15625 6 30.933594 6.773438 31.3125 7.5 C 31.074219 8.101563 30.921875 8.789063 30.84375 9.5625 C 30.816406 9.835938 30.742188 10.003906 30.4375 10.28125 C 30.132813 10.558594 29.632813 10.886719 29.09375 11.34375 C 28.011719 12.253906 26.886719 13.878906 27.15625 16.5625 C 27.335938 18.34375 27.1875 19.15625 26.90625 20.40625 C 26.625 21.65625 26.199219 23.277344 25.96875 26.21875 C 25.859375 27.601563 25.640625 28.5625 25.375 29.375 C 24.816406 28.246094 24.5 27.378906 24.6875 24.96875 C 24.84375 22.949219 24.195313 21.53125 23.65625 20.34375 C 23.117188 19.15625 22.679688 18.214844 22.84375 16.5625 C 23.113281 13.878906 21.988281 12.253906 20.90625 11.34375 C 20.367188 10.886719 19.867188 10.558594 19.5625 10.28125 C 19.257813 10.003906 19.183594 9.835938 19.15625 9.5625 C 19.070313 8.726563 18.863281 8.011719 18.59375 7.375 C 18.597656 7.367188 18.589844 7.351563 18.59375 7.34375 C 18.847656 6.878906 19.53125 6 21 6 C 22.359375 6 23.265625 5.238281 23.8125 4.71875 C 24.359375 4.199219 24.53125 4 25 4 Z M 15.4375 7 C 15.890625 7 16.128906 7.128906 16.4375 7.53125 C 16.746094 7.933594 17.042969 8.675781 17.15625 9.78125 C 17.242188 10.632813 17.730469 11.304688 18.21875 11.75 C 18.707031 12.195313 19.207031 12.523438 19.625 12.875 C 20.457031 13.578125 21.058594 14.191406 20.84375 16.34375 C 20.632813 18.453125 21.265625 19.949219 21.8125 21.15625 C 22.359375 22.363281 22.808594 23.277344 22.6875 24.8125 C 22.402344 28.441406 23.425781 29.746094 24.25 31.59375 C 24.273438 31.671875 24.304688 31.742188 24.34375 31.8125 C 24.179688 32.160156 24.015625 32.488281 23.84375 32.90625 C 23.140625 34.605469 22.492188 36.941406 22.1875 41.1875 C 20.792969 39.691406 18.980469 38.820313 18.125 38.25 C 17.441406 37.792969 16.578125 36.492188 15.71875 35.0625 C 14.859375 33.632813 13.964844 32.101563 12.6875 31.09375 C 10.472656 29.34375 10.121094 28.039063 9.96875 26.65625 C 9.816406 25.273438 10.066406 23.625 9.03125 21.9375 C 7.480469 19.40625 7.847656 17.597656 8.65625 16.03125 C 9.058594 15.246094 9.601563 14.566406 10.125 13.96875 C 10.648438 13.371094 11.136719 12.898438 11.5 12.40625 C 12.410156 11.175781 12.730469 9.691406 13.25 8.625 C 13.507813 8.089844 13.804688 7.664063 14.125 7.40625 C 14.445313 7.148438 14.800781 7 15.4375 7 Z M 34.5625 7 C 35.199219 7 35.554688 7.148438 35.875 7.40625 C 36.195313 7.664063 36.492188 8.089844 36.75 8.625 C 37.269531 9.691406 37.589844 11.175781 38.5 12.40625 C 38.863281 12.898438 39.351563 13.371094 39.875 13.96875 C 40.398438 14.566406 40.941406 15.246094 41.34375 16.03125 C 42.152344 17.597656 42.519531 19.40625 40.96875 21.9375 C 39.933594 23.625 40.183594 25.273438 40.03125 26.65625 C 39.878906 28.039063 39.527344 29.34375 37.3125 31.09375 C 36.035156 32.101563 35.140625 33.632813 34.28125 35.0625 C 33.421875 36.492188 32.558594 37.792969 31.875 38.25 C 31.007813 38.828125 29.335938 39.183594 27.78125 40.3125 C 26.410156 41.308594 25.433594 43.191406 25.1875 46 L 24.0625 46 C 24.148438 38.882813 24.867188 35.636719 25.6875 33.65625 C 26.558594 31.558594 27.671875 30.191406 27.96875 26.375 C 28.1875 23.558594 28.554688 22.140625 28.84375 20.84375 C 29.132813 19.546875 29.355469 18.324219 29.15625 16.34375 C 28.941406 14.191406 29.542969 13.578125 30.375 12.875 C 30.792969 12.523438 31.292969 12.195313 31.78125 11.75 C 32.269531 11.304688 32.757813 10.632813 32.84375 9.78125 C 32.957031 8.675781 33.253906 7.933594 33.5625 7.53125 C 33.871094 7.128906 34.109375 7 34.5625 7 Z M 35.84375 14.5 C 35.800781 14.507813 35.757813 14.519531 35.71875 14.53125 C 35.253906 14.636719 34.925781 15.054688 34.9375 15.53125 C 34.9375 21.386719 33.796875 24.710938 32.375 27.34375 C 30.953125 29.976563 29.167969 31.949219 27.9375 34.90625 C 27.722656 35.414063 27.960938 36.003906 28.46875 36.21875 C 28.976563 36.433594 29.566406 36.195313 29.78125 35.6875 C 30.859375 33.097656 32.574219 31.183594 34.125 28.3125 C 35.675781 25.441406 36.9375 21.652344 36.9375 15.53125 C 36.949219 15.242188 36.832031 14.964844 36.625 14.769531 C 36.414063 14.570313 36.128906 14.472656 35.84375 14.5 Z M 13.90625 14.96875 C 13.863281 14.976563 13.820313 14.988281 13.78125 15 C 13.316406 15.105469 12.988281 15.523438 13 16 C 13 22.269531 14.121094 25.386719 15.53125 27.875 C 16.941406 30.363281 18.480469 32.109375 19.65625 36.3125 C 19.804688 36.847656 20.355469 37.164063 20.890625 37.015625 C 21.425781 36.867188 21.742188 36.316406 21.59375 35.78125 C 20.332031 31.273438 18.574219 29.15625 17.28125 26.875 C 15.988281 24.59375 15 22.042969 15 16 C 15.011719 15.710938 14.894531 15.433594 14.6875 15.238281 C 14.476563 15.039063 14.191406 14.941406 13.90625 14.96875 Z"/></svg>