<svg xmlns="http://www.w3.org/2000/svg"  viewBox="0 0 50 50" width="1000px" height="1000px"><path d="M 14.089844 2 C 10.34375 2 7 5.988281 7 12 C 7 20.488281 8.417969 26.25 8.855469 27.84375 C 7.390625 28.574219 6.464844 29.15625 6.464844 29.15625 C 6.367188 29.21875 6.28125 29.296875 6.210938 29.386719 C 6.210938 29.386719 5.601563 30.183594 5.058594 31.566406 C 4.613281 32.695313 4.195313 34.285156 4.0625 36.261719 L 2.726563 36.703125 C 2.21875 36.875 1.917969 37.394531 2.023438 37.921875 L 2.59375 40.785156 C 2.722656 41.421875 3.386719 41.800781 4 41.578125 L 4.3125 41.464844 C 4.898438 45.277344 6.132813 47.496094 6.132813 47.496094 C 6.265625 47.730469 6.492188 47.902344 6.753906 47.96875 C 7.019531 48.035156 7.296875 47.992188 7.53125 47.847656 C 7.53125 47.847656 10.894531 45.769531 15.929688 44.332031 C 16.035156 44.320313 16.140625 44.292969 16.238281 44.246094 C 18.8125 43.535156 21.800781 43 25 43 C 28.199219 43 31.1875 43.535156 33.761719 44.246094 C 33.859375 44.289063 33.960938 44.320313 34.066406 44.332031 C 39.105469 45.765625 42.46875 47.847656 42.46875 47.847656 C 42.703125 47.992188 42.980469 48.035156 43.246094 47.96875 C 43.507813 47.902344 43.734375 47.730469 43.871094 47.496094 C 43.871094 47.496094 45.101563 45.277344 45.6875 41.464844 L 46 41.578125 C 46.613281 41.800781 47.277344 41.421875 47.40625 40.785156 L 47.980469 37.921875 C 48.082031 37.394531 47.78125 36.875 47.273438 36.703125 L 45.9375 36.261719 C 45.804688 34.285156 45.386719 32.695313 44.941406 31.566406 C 44.398438 30.183594 43.792969 29.386719 43.792969 29.386719 C 43.71875 29.296875 43.632813 29.21875 43.535156 29.15625 C 43.535156 29.15625 42.90625 28.777344 42 28.292969 L 42 25 C 42 24.449219 41.550781 24 41 24 L 37 24 C 36.449219 24 36 24.449219 36 25 L 36 25.765625 C 33.617188 24.902344 32 22.679688 32 20.132813 L 32 4.988281 C 32.855469 4.953125 33.695313 5.261719 34.40625 5.914063 C 35.320313 6.75 36 8.136719 36 10 C 36 10.550781 36.449219 11 37 11 L 41 11 C 41.550781 11 42 10.550781 42 10 C 42 7.824219 41.441406 5.875 40.390625 4.414063 C 39.34375 2.957031 37.746094 2 35.910156 2 C 35.160156 2 34.261719 2.210938 33.121094 2.5 C 32.40625 2.679688 31.59375 2.925781 30.804688 3.152344 C 30.78125 3.160156 30.753906 3.144531 30.730469 3.152344 C 30.664063 3.171875 30.597656 3.195313 30.53125 3.226563 C 30.152344 3.339844 29.792969 3.429688 29.417969 3.542969 C 27.089844 4.246094 25.273438 4.859375 25 4.953125 C 24.726563 4.859375 22.910156 4.246094 20.582031 3.542969 C 20.203125 3.425781 19.839844 3.335938 19.453125 3.226563 C 19.394531 3.195313 19.332031 3.171875 19.269531 3.152344 C 19.1875 3.128906 19.101563 3.121094 19.019531 3.101563 C 18.292969 2.894531 17.539063 2.667969 16.878906 2.5 C 15.738281 2.210938 14.839844 2 14.089844 2 Z M 14.089844 4 C 14.167969 4 14.421875 4.042969 14.628906 4.074219 C 14.308594 4.300781 13.996094 4.550781 13.703125 4.847656 C 12.089844 6.496094 11 9.195313 11 13 C 11 20.671875 11.984375 24.90625 12.386719 26.328125 C 11.792969 26.546875 11.226563 26.769531 10.699219 26.996094 C 10.183594 25.003906 9 19.636719 9 12 C 9 6.714844 11.832031 4 14.089844 4 Z M 35.910156 4 C 37.078125 4 38.019531 4.542969 38.765625 5.585938 C 39.363281 6.417969 39.71875 7.632813 39.863281 9 L 37.808594 9 C 37.585938 7.125 36.910156 5.492188 35.757813 4.4375 C 35.597656 4.292969 35.378906 4.261719 35.207031 4.132813 C 35.398438 4.105469 35.835938 4 35.910156 4 Z M 17.882813 4.96875 C 17.921875 4.96875 17.960938 4.976563 18 4.976563 L 18 20.132813 C 18 22.585938 16.503906 24.730469 14.265625 25.660156 C 13.878906 24.28125 13 20.355469 13 13 C 13 9.574219 13.96875 7.433594 15.132813 6.25 C 16.003906 5.359375 16.992188 4.980469 17.882813 4.96875 Z M 20 5.453125 C 20 5.457031 20.003906 5.457031 20.003906 5.457031 C 22.464844 6.203125 24.683594 6.945313 24.683594 6.945313 C 24.886719 7.015625 25.113281 7.015625 25.316406 6.945313 C 25.316406 6.945313 27.535156 6.203125 29.996094 5.457031 C 29.996094 5.457031 30 5.457031 30 5.453125 L 30 20.132813 C 30 23.664063 32.332031 26.753906 35.699219 27.792969 C 39.296875 28.898438 42.003906 30.570313 42.273438 30.738281 C 42.328125 30.808594 42.652344 31.210938 43.078125 32.296875 C 43.542969 33.472656 44.011719 35.246094 44 37.609375 C 43.972656 42.265625 42.929688 44.703125 42.472656 45.648438 C 41.691406 45.1875 39.164063 43.78125 35.484375 42.636719 C 35.816406 41.488281 36 40.265625 36 39 C 36 32.433594 31.117188 27 25 27 C 18.882813 27 14 32.433594 14 39 C 14 40.265625 14.183594 41.488281 14.515625 42.636719 C 10.835938 43.78125 8.308594 45.1875 7.523438 45.648438 C 7.070313 44.703125 6.027344 42.265625 6 37.609375 C 5.988281 35.246094 6.457031 33.472656 6.921875 32.296875 C 7.347656 31.210938 7.671875 30.808594 7.726563 30.738281 C 7.996094 30.570313 10.703125 28.898438 14.300781 27.792969 C 17.667969 26.753906 20 23.664063 20 20.132813 Z M 38 12 C 37.640625 11.996094 37.304688 12.183594 37.121094 12.496094 C 36.941406 12.808594 36.941406 13.191406 37.121094 13.503906 C 37.304688 13.816406 37.640625 14.003906 38 14 L 40 14 C 40.359375 14.003906 40.695313 13.816406 40.878906 13.503906 C 41.058594 13.191406 41.058594 12.808594 40.878906 12.496094 C 40.695313 12.183594 40.359375 11.996094 40 12 Z M 38 15 C 37.640625 14.996094 37.304688 15.183594 37.121094 15.496094 C 36.941406 15.808594 36.941406 16.191406 37.121094 16.503906 C 37.304688 16.816406 37.640625 17.003906 38 17 L 40 17 C 40.359375 17.003906 40.695313 16.816406 40.878906 16.503906 C 41.058594 16.191406 41.058594 15.808594 40.878906 15.496094 C 40.695313 15.183594 40.359375 14.996094 40 15 Z M 38 18 C 37.640625 17.996094 37.304688 18.183594 37.121094 18.496094 C 36.941406 18.808594 36.941406 19.191406 37.121094 19.503906 C 37.304688 19.816406 37.640625 20.003906 38 20 L 40 20 C 40.359375 20.003906 40.695313 19.816406 40.878906 19.503906 C 41.058594 19.191406 41.058594 18.808594 40.878906 18.496094 C 40.695313 18.183594 40.359375 17.996094 40 18 Z M 38 21 C 37.640625 20.996094 37.304688 21.183594 37.121094 21.496094 C 36.941406 21.808594 36.941406 22.191406 37.121094 22.503906 C 37.304688 22.816406 37.640625 23.003906 38 23 L 40 23 C 40.359375 23.003906 40.695313 22.816406 40.878906 22.503906 C 41.058594 22.191406 41.058594 21.808594 40.878906 21.496094 C 40.695313 21.183594 40.359375 20.996094 40 21 Z M 38 26 L 40 26 L 40 27.300781 C 39.386719 27.023438 38.71875 26.742188 38 26.472656 Z M 25 29 C 29.929688 29 34 33.417969 34 39 C 34 40.078125 33.84375 41.109375 33.5625 42.078125 C 31.082031 41.453125 28.195313 41 25 41 C 21.804688 41 18.917969 41.453125 16.4375 42.078125 C 16.15625 41.109375 16 40.078125 16 39 C 16 33.417969 20.070313 29 25 29 Z"/></svg>