<svg xmlns="http://www.w3.org/2000/svg"  viewBox="0 0 50 50" width="1000px" height="1000px"><path d="M 25 2 C 15.621094 2 8 9.625 8 19 C 8 25.640625 12.464844 33.492188 18 37.34375 L 18 43 C 18 44.644531 19.355469 46 21 46 L 23 48 L 27 48 L 29 46 C 30.644531 46 32 44.644531 32 43 L 32 37.34375 C 37.535156 33.492188 42 25.640625 42 19 C 42 9.625 34.378906 2 25 2 Z M 25 4 C 33.296875 4 40 10.703125 40 19 C 40 24.867188 35.402344 32.753906 30.375 36 L 19.625 36 C 14.597656 32.753906 10 24.867188 10 19 C 10 10.703125 16.703125 4 25 4 Z M 20 38 L 30 38 L 30 43 C 30 43.566406 29.566406 44 29 44 L 21 44 C 20.433594 44 20 43.566406 20 43 Z"/></svg>