<svg xmlns="http://www.w3.org/2000/svg"  viewBox="0 0 50 50" width="1000px" height="1000px"><path d="M 20 0 C 19.2675 0 18.815059 0.4397687 18.490234 0.83984375 C 18.16541 1.2399188 17.920499 1.7013683 17.708984 2.1875 C 17.285955 3.1597633 17 4.1458409 17 5 C 17 6.6449698 18.35503 8 20 8 C 21.64497 8 23 6.6449698 23 5 C 23 4.1458409 22.714045 3.1597633 22.291016 2.1875 C 22.079501 1.7013683 21.83459 1.2399188 21.509766 0.83984375 C 21.184941 0.4397687 20.7325 0 20 0 z M 20 2.171875 C 20.138988 2.3571549 20.308866 2.6393537 20.458984 2.984375 C 20.785955 3.7358617 21 4.7491591 21 5 C 21 5.5650302 20.56503 6 20 6 C 19.43497 6 19 5.5650302 19 5 C 19 4.7491591 19.214045 3.7358617 19.541016 2.984375 C 19.691134 2.6393537 19.861012 2.3571549 20 2.171875 z M 17 10 A 1.0001 1.0001 0 0 0 16 11 L 16 18 L 16 21.832031 A 1.0001 1.0001 0 0 0 16 22.158203 L 16 49 A 1.0001 1.0001 0 0 0 17 50 L 33 50 A 1.0001 1.0001 0 0 0 34 49 L 34 22.167969 A 1.0001 1.0001 0 0 0 34 21.841797 L 34 18 A 1.0001 1.0001 0 0 0 33 17 L 32 17 L 32 15 L 33 15 A 1.0001 1.0001 0 1 0 33 13 L 31 13 L 27 13 L 26.945312 13 L 26.697266 12.423828 L 26.699219 12.423828 C 26.0706 10.954941 24.618707 10 23.021484 10 L 17 10 z M 18 12 L 23.021484 12 C 23.824262 12 24.543947 12.473824 24.859375 13.210938 A 1.0001 1.0001 0 0 0 24.859375 13.212891 L 26.482422 17 L 18 17 L 18 12 z M 27.802734 15 L 30 15 L 30 17 L 28.660156 17 L 27.802734 15 z M 18 19 L 28 19 L 30.832031 19 A 1.0001 1.0001 0 0 0 31.158203 19 L 32 19 L 32 21 L 18 21 L 18 19 z M 18 23 L 32 23 L 32 48 L 18 48 L 18 23 z"/></svg>