<svg xmlns="http://www.w3.org/2000/svg"  viewBox="0 0 50 50" width="1000px" height="1000px"><path d="M 14 2 C 13.277344 2 12.4375 2.214844 11.84375 2.84375 C 11.25 3.472656 11 4.378906 11 5.5 C 11 6.621094 11.234375 7.820313 11.65625 8.84375 C 11.867188 9.355469 12.117188 9.820313 12.46875 10.21875 C 12.613281 10.382813 12.800781 10.523438 13 10.65625 L 13 26 L 15 26 L 15 10.65625 C 15.199219 10.523438 15.386719 10.382813 15.53125 10.21875 C 15.882813 9.820313 16.132813 9.355469 16.34375 8.84375 C 16.765625 7.820313 17 6.621094 17 5.5 C 17 4.378906 16.75 3.472656 16.15625 2.84375 C 15.5625 2.214844 14.722656 2 14 2 Z M 14 4 C 14.382813 4 14.558594 4.082031 14.6875 4.21875 C 14.816406 4.355469 15 4.6875 15 5.5 C 15 6.3125 14.804688 7.351563 14.5 8.09375 C 14.347656 8.464844 14.160156 8.761719 14.03125 8.90625 C 14.011719 8.929688 14.015625 8.921875 14 8.9375 C 13.984375 8.921875 13.988281 8.929688 13.96875 8.90625 C 13.839844 8.761719 13.652344 8.464844 13.5 8.09375 C 13.195313 7.351563 13 6.3125 13 5.5 C 13 4.6875 13.183594 4.355469 13.3125 4.21875 C 13.441406 4.082031 13.617188 4 14 4 Z M 31 13 L 31 18 L 29 18 C 28.96875 18 28.9375 18 28.90625 18 C 28.390625 18.046875 27.996094 18.480469 28 19 L 28 24.53125 C 27.867188 24.808594 27.867188 25.128906 28 25.40625 L 28 26 C 28 35.347656 30 47.15625 30 47.15625 C 30.078125 47.648438 30.503906 48.007813 31 48 L 41 48 C 41.476563 47.992188 41.878906 47.652344 41.96875 47.1875 C 41.96875 47.1875 44 36.035156 44 26 L 44 25.1875 C 44.027344 25.054688 44.027344 24.914063 44 24.78125 L 44 19 C 44 18.449219 43.550781 18 43 18 L 41 18 L 41 13 Z M 33 15 L 39 15 L 39 18 L 33 18 Z M 30 20 L 42 20 L 42 24 L 30 24 Z M 30 26 L 42 26 C 42 26.65625 41.984375 27.308594 41.96875 27.96875 L 30.03125 28.03125 C 30.011719 27.351563 30 26.664063 30 26 Z M 6.8125 27 C 6.335938 27.089844 5.992188 27.511719 6 28 L 6 31 C 6 38.257813 8.03125 47.21875 8.03125 47.21875 C 8.132813 47.671875 8.535156 47.996094 9 48 L 19 48 C 19.464844 47.996094 19.867188 47.671875 19.96875 47.21875 C 19.96875 47.21875 22 38.257813 22 31 L 22 28 C 22 27.449219 21.550781 27 21 27 L 7 27 C 6.96875 27 6.9375 27 6.90625 27 C 6.875 27 6.84375 27 6.8125 27 Z M 8 29 L 20 29 L 20 31 C 20 37.371094 18.4375 44.839844 18.1875 46 L 9.8125 46 C 9.5625 44.839844 8 37.371094 8 31 Z M 41.90625 29.96875 C 41.558594 37.769531 40.335938 44.964844 40.15625 46 L 31.875 46 C 31.695313 44.917969 30.464844 37.457031 30.09375 30.03125 Z"/></svg>