<svg fill="#000000" xmlns="http://www.w3.org/2000/svg"  viewBox="0 0 50 50" width="1000px" height="1000px"><path d="M 29.84375 0 C 22.148438 1.160156 19.125 6.53125 19.125 6.53125 C 19.046875 6.675781 19.003906 6.835938 19 7 L 19 11 C 18.476563 11 17.941406 11.183594 17.5625 11.5625 C 17.183594 11.941406 17 12.476563 17 13 L 17 32 C 15.355469 32 14 33.355469 14 35 L 14 47 C 14 48.644531 15.355469 50 17 50 L 33 50 C 34.644531 50 36 48.644531 36 47 L 36 35 C 36 33.355469 34.644531 32 33 32 L 33 13 C 33 12.476563 32.816406 11.941406 32.4375 11.5625 C 32.058594 11.183594 31.523438 11 31 11 L 31 1 C 31.003906 0.707031 30.878906 0.425781 30.652344 0.230469 C 30.429688 0.0390625 30.136719 -0.046875 29.84375 0 Z M 29 2.34375 L 29 11 L 21 11 L 21 7.3125 C 21.140625 7.0625 23.308594 3.65625 29 2.34375 Z M 19 13 L 31 13 L 31 32 L 19 32 Z M 17 34 L 33 34 C 33.554688 34 34 34.445313 34 35 L 34 47 C 34 47.554688 33.554688 48 33 48 L 17 48 C 16.445313 48 16 47.554688 16 47 L 16 35 C 16 34.445313 16.445313 34 17 34 Z"/></svg>