<svg xmlns="http://www.w3.org/2000/svg"  viewBox="0 0 50 50" width="1000px" height="1000px"><path d="M 24.992188 2 C 17.342536 2 12.729354 6.8413572 10.191406 11.523438 C 8.1919696 15.212057 7.388464 18.7893 7.1289062 20.181641 C 5.8967888 20.608729 5 21.78233 5 23.154297 L 5 24.087891 A 1.5 1.5 0 0 0 5.0488281 26.929688 C 5.1283633 28.150106 5.3099496 29.284483 5.5683594 30.337891 C 5.2519408 30.621974 5.0005091 31.043816 5 31.5 C 4.999035 32.379115 5.9243402 33.110575 6.4414062 33.005859 C 6.9957166 34.332759 7.6765041 35.474605 8.3984375 36.484375 A 1.5 1.5 0 0 0 9.5 39 A 1.5 1.5 0 0 0 10.310547 38.761719 C 10.452354 38.905101 10.596106 39.063868 10.736328 39.197266 C 11.499338 39.923145 12.287349 40.526782 13.074219 41.037109 A 1.5 1.5 0 0 0 14.5 43 A 1.5 1.5 0 0 0 15.695312 42.402344 C 17.870339 43.305561 19.825889 43.600294 20.970703 43.708984 C 21.708797 44.77526 22.767719 45.570221 24 45.867188 L 24 50 L 26 50 L 26 45.890625 C 27.273592 45.615569 28.378064 44.811034 29.142578 43.714844 C 30.135141 43.635266 32.099757 43.382705 34.359375 42.472656 A 1.5 1.5 0 0 0 35.5 43 A 1.5 1.5 0 0 0 36.960938 41.164062 C 37.920107 40.567512 38.889158 39.838439 39.826172 38.925781 C 39.846453 38.906027 39.862687 38.885039 39.882812 38.865234 A 1.5 1.5 0 0 0 40.5 39 A 1.5 1.5 0 0 0 41.748047 36.671875 C 42.598865 35.469307 43.235056 34.22985 43.703125 33.017578 C 44.245816 32.980939 44.999117 32.291096 45 31.5 C 45.000472 31.069914 44.775923 30.677446 44.488281 30.396484 C 44.548867 30.1269 44.610937 29.857229 44.658203 29.597656 C 44.840179 28.598287 44.914251 27.724442 44.955078 26.929688 A 1.5 1.5 0 0 0 44.953125 24.070312 L 44.953125 23.154297 C 44.953121 21.800305 44.080094 20.638288 42.873047 20.197266 C 42.617724 18.824581 41.815703 15.234538 39.800781 11.523438 C 37.258782 6.8415606 32.641838 2 24.992188 2 z M 24.992188 4 C 31.812535 4 35.698468 8.1584394 38.042969 12.476562 C 39.68423 15.499452 40.450632 18.450922 40.78125 20 L 9.2167969 20 C 9.5460302 18.450875 10.310722 15.49931 11.949219 12.476562 C 14.289771 8.1586428 18.171839 4 24.992188 4 z M 8.1933594 22 L 41.8125 22 A 1.0001 1.0001 0 0 0 41.880859 22.011719 C 42.481208 22.042362 42.953125 22.519269 42.953125 23.154297 L 42.953125 24.144531 C 42.953125 24.52734 43.00729 25.033167 43 25.916016 C 42.9927 26.798864 42.92585 27.952707 42.691406 29.240234 C 42.222514 31.815289 41.093893 34.899169 38.431641 37.492188 C 34.610504 41.214 29.983869 41.704515 28.621094 41.796875 A 1.0001 1.0001 0 0 0 27.802734 42.330078 C 27.251987 43.379166 26.161058 44.024825 24.998047 44 A 1.0001 1.0001 0 0 0 24.996094 44 C 23.878013 43.97668 22.848916 43.335893 22.322266 42.328125 A 1.0001 1.0001 0 0 0 21.517578 41.794922 C 19.868861 41.659579 15.60504 41.068028 12.115234 37.748047 C 9.6977892 35.448248 7 31.703682 7 25.517578 L 7 23.154297 C 7 22.532252 7.4544592 22.06575 8.0371094 22.017578 A 1.0001 1.0001 0 0 0 8.1933594 22 z M 12.5 25 A 1.5 1.5 0 0 0 12.5 28 A 1.5 1.5 0 0 0 12.5 25 z M 22.5 25 A 1.5 1.5 0 0 0 22.5 28 A 1.5 1.5 0 0 0 22.5 25 z M 17.5 28 A 1.5 1.5 0 0 0 17.5 31 A 1.5 1.5 0 0 0 17.5 28 z M 12.5 31 A 1.5 1.5 0 0 0 12.5 34 A 1.5 1.5 0 0 0 12.5 31 z M 22.5 31 A 1.5 1.5 0 0 0 22.5 34 A 1.5 1.5 0 0 0 22.5 31 z M 17.5 34 A 1.5 1.5 0 0 0 17.5 37 A 1.5 1.5 0 0 0 17.5 34 z M 22.5 37 A 1.5 1.5 0 0 0 22.5 40 A 1.5 1.5 0 0 0 22.5 37 z"/></svg>