<svg xmlns="http://www.w3.org/2000/svg"  viewBox="0 0 50 50" width="1000px" height="1000px"><path d="M 25 7 C 18.226563 7 12.105469 8.25 7.59375 10.34375 C 3.082031 12.4375 0 15.460938 0 19.09375 L 0 20.90625 C 0 22.054688 0.3125 23.140625 0.875 24.15625 C 0.765625 24.394531 0.699219 24.636719 0.625 24.90625 C 0.488281 25.394531 0.371094 25.925781 0.28125 26.46875 C 0.0976563 27.550781 0 28.476563 0 29 L 0 30.8125 C 0 34.488281 3.078125 37.515625 7.59375 39.625 C 12.109375 41.734375 18.226563 43 25 43 C 31.773438 43 37.894531 41.75 42.40625 39.65625 C 46.917969 37.5625 50 34.539063 50 30.90625 L 50 29.09375 C 50 28.628906 49.921875 27.691406 49.75 26.59375 C 49.617188 25.734375 49.496094 24.875 49.15625 24.125 C 49.707031 23.117188 50 22.042969 50 20.90625 L 50 19.09375 C 50 15.460938 46.917969 12.4375 42.40625 10.34375 C 37.894531 8.25 31.773438 7 25 7 Z M 25 9 C 31.523438 9 37.402344 10.226563 41.5625 12.15625 C 45.722656 14.085938 48 16.628906 48 19.09375 L 48 20.90625 C 48 21.757813 47.714844 22.625 47.1875 23.46875 C 47.164063 23.507813 47.144531 23.550781 47.125 23.59375 C 46.105469 25.144531 44.21875 26.613281 41.5625 27.84375 C 37.402344 29.773438 31.523438 31 25 31 C 18.476563 31 12.597656 29.773438 8.4375 27.84375 C 5.9375 26.683594 4.148438 25.296875 3.09375 23.84375 C 3.03125 23.613281 2.886719 23.414063 2.6875 23.28125 C 2.234375 22.5 2 21.695313 2 20.90625 L 2 19.09375 C 2 16.628906 4.277344 14.085938 8.4375 12.15625 C 12.597656 10.226563 18.476563 9 25 9 Z M 47.625 26.125 C 47.648438 26.21875 47.667969 26.3125 47.6875 26.40625 C 47.675781 26.417969 47.667969 26.425781 47.65625 26.4375 C 46.742188 28.808594 44.632813 31.863281 40.46875 32.40625 C 40.300781 32.425781 40.136719 32.492188 40 32.59375 C 35.929688 35.71875 30.601563 37.035156 25.34375 35.15625 C 25.144531 35.078125 24.925781 35.066406 24.71875 35.125 C 21.90625 35.941406 18.621094 35.496094 15.90625 34.28125 C 15.6875 34.191406 15.445313 34.179688 15.21875 34.25 C 13.511719 34.730469 12.03125 34.449219 10.75 33.875 C 9.46875 33.300781 8.421875 32.386719 7.75 31.625 C 7.601563 31.460938 7.40625 31.351563 7.1875 31.3125 C 4.390625 30.789063 2.804688 28.738281 2.375 26.59375 C 2.367188 26.5625 2.355469 26.53125 2.34375 26.5 C 2.347656 26.488281 2.339844 26.480469 2.34375 26.46875 C 2.367188 26.359375 2.382813 26.261719 2.40625 26.15625 C 3.71875 27.5 5.496094 28.683594 7.59375 29.65625 C 12.105469 31.75 18.226563 33 25 33 C 31.773438 33 37.894531 31.75 42.40625 29.65625 C 44.519531 28.675781 46.308594 27.480469 47.625 26.125 Z M 48 29.9375 L 48 30.90625 C 48 33.371094 45.722656 35.914063 41.5625 37.84375 C 37.402344 39.773438 31.523438 41 25 41 C 18.476563 41 12.597656 39.753906 8.4375 37.8125 C 4.277344 35.871094 2 33.335938 2 30.8125 L 2 30.34375 C 3.046875 31.652344 4.53125 32.703125 6.4375 33.15625 C 7.261719 34.050781 8.417969 35.039063 9.9375 35.71875 C 11.445313 36.394531 13.328125 36.640625 15.34375 36.1875 C 18.308594 37.464844 21.792969 37.960938 25.03125 37.09375 C 30.765625 38.996094 36.585938 37.609375 41 34.3125 C 44.296875 33.789063 46.550781 31.941406 48 29.9375 Z"/></svg>