<svg xmlns="http://www.w3.org/2000/svg"  viewBox="0 0 50 50" width="1000px" height="1000px"><path d="M 45.6875 1.0625 C 44.828125 1.042969 43.929688 1.339844 43.25 1.9375 C 43.238281 1.945313 43.230469 1.960938 43.21875 1.96875 L 24.8125 17.53125 C 24.6875 17.570313 24.570313 17.632813 24.46875 17.71875 L 12.0625 28.03125 C 11.949219 28.105469 11.855469 28.199219 11.78125 28.3125 L 2.8125 33.28125 L 2.71875 33.3125 L 2.75 33.34375 C 1.714844 33.828125 1.136719 34.800781 1 35.75 C 0.996094 35.800781 0.996094 35.855469 1 35.90625 C 1 36.871094 1.128906 42.035156 4.59375 45.5 C 6.3125 47.21875 8.421875 48.105469 10.21875 48.5625 C 11.972656 49.007813 13.34375 49.058594 14.09375 49 C 14.101563 49 14.117188 49 14.125 49 C 14.136719 49 14.175781 49 14.1875 49 L 14.1875 48.96875 C 15.289063 48.925781 16.203125 48.234375 16.65625 47.25 L 16.6875 47.28125 L 16.71875 47.1875 L 21.78125 38.0625 C 21.816406 38.023438 21.847656 37.980469 21.875 37.9375 L 32.25 25.65625 C 32.382813 25.507813 32.472656 25.324219 32.5 25.125 L 48.15625 6.84375 C 48.167969 6.832031 48.175781 6.824219 48.1875 6.8125 C 49.28125 5.441406 49.292969 3.417969 48.03125 2.125 C 48.023438 2.117188 48.007813 2.132813 48 2.125 C 47.367188 1.433594 46.550781 1.082031 45.6875 1.0625 Z M 45.34375 3.03125 C 45.789063 2.945313 46.230469 3.101563 46.5625 3.46875 C 46.574219 3.480469 46.582031 3.488281 46.59375 3.5 C 47.101563 4.007813 47.121094 4.945313 46.625 5.5625 L 31.375 23.4375 L 26.59375 18.625 L 44.53125 3.46875 C 44.542969 3.457031 44.550781 3.449219 44.5625 3.4375 C 44.800781 3.226563 45.074219 3.082031 45.34375 3.03125 Z M 25.03125 19.875 L 30.15625 25.0625 L 21.09375 35.78125 L 14.1875 28.875 Z M 12.625 30.125 L 19.875 37.375 L 14.9375 46.3125 C 14.914063 46.34375 14.894531 46.375 14.875 46.40625 C 14.730469 46.746094 14.316406 47 14.09375 47 C 14.0625 47 14.03125 47 14 47 C 13.679688 47.027344 12.5625 46.984375 11.25 46.71875 L 12.09375 45.59375 C 12.34375 45.265625 12.371094 44.816406 12.15625 44.464844 C 11.941406 44.113281 11.53125 43.925781 11.125 44 C 10.871094 44.050781 10.648438 44.195313 10.5 44.40625 L 9.21875 46.125 C 8.097656 45.679688 6.957031 45.050781 6 44.09375 C 4.933594 43.027344 4.257813 41.65625 3.8125 40.34375 L 8.53125 37.34375 C 8.960938 37.097656 9.148438 36.574219 8.96875 36.113281 C 8.789063 35.648438 8.296875 35.390625 7.8125 35.5 C 7.6875 35.53125 7.574219 35.582031 7.46875 35.65625 L 3.28125 38.3125 C 3.070313 37.203125 3.003906 36.328125 3 36.03125 C 3 36.019531 3 36.011719 3 36 C 3.066406 35.589844 3.292969 35.253906 3.59375 35.125 C 3.625 35.105469 3.65625 35.085938 3.6875 35.0625 Z"/></svg>