<svg xmlns="http://www.w3.org/2000/svg"  viewBox="0 0 50 50" width="1000px" height="1000px"><path d="M 20.121094 8.3828125 C 16.955042 8.2254657 14.039047 9.5701422 11.902344 11.808594 C 10.330069 13.455738 9.163321 15.582802 8.5058594 17.955078 C 6.9700973 18.651418 5.6799799 19.449797 4.7246094 20.384766 C 3.6772308 21.409778 3 22.648391 3 24 C 3 26.55697 4.2003831 31.596478 7.5429688 36.240234 C 10.885554 40.883991 16.489061 45 25 45 C 33.510939 45 39.114446 40.883991 42.457031 36.240234 C 45.799617 31.596478 47 26.55697 47 24 C 47 22.648391 46.322769 21.409778 45.275391 20.384766 C 44.32002 19.449797 43.029903 18.651418 41.494141 17.955078 C 40.836679 15.582802 39.66993 13.455738 38.097656 11.808594 C 35.960953 9.5701422 33.044958 8.2254657 29.878906 8.3828125 C 28.823556 8.4352615 27.739291 8.6553829 26.648438 9.0644531 A 1.0001 1.0001 0 0 0 26.402344 9.1894531 C 25.95009 9.0697885 25.482681 9 25 9 C 24.517969 9 24.0513 9.0701006 23.599609 9.1894531 A 1.0001 1.0001 0 0 0 23.351562 9.0644531 C 22.260709 8.6553829 21.176444 8.4352614 20.121094 8.3828125 z M 19.363281 10.347656 C 19.94325 10.334602 20.539554 10.389638 21.148438 10.509766 C 21.090356 10.559121 21.02553 10.597065 20.96875 10.648438 C 19.841369 11.668449 18.936794 13.068543 18.208984 14.722656 C 16.829004 17.858977 16.087767 21.942584 16.013672 26.287109 C 15.269361 26.15691 14.560421 26.0156 13.927734 25.857422 C 12.538103 25.509999 11.437858 25.092659 10.765625 24.695312 C 10.093392 24.297966 10 24.011809 10 24 A 1.0003547 1.0003547 0 0 0 9.9941406 23.888672 C 9.5260131 19.675524 10.946594 15.706804 13.347656 13.191406 C 14.998386 11.46207 17.056401 10.399581 19.363281 10.347656 z M 30.636719 10.347656 C 32.943599 10.399581 35.001614 11.46207 36.652344 13.191406 C 39.053406 15.706804 40.473987 19.675524 40.005859 23.888672 A 1.0003551 1.0003551 0 0 0 40 24 C 40 24.01181 39.90661 24.297966 39.234375 24.695312 C 38.562142 25.092659 37.461897 25.509999 36.072266 25.857422 C 35.439579 26.0156 34.730639 26.15691 33.986328 26.287109 C 33.912233 21.942584 33.170996 17.858977 31.791016 14.722656 C 31.063206 13.068543 30.158631 11.668449 29.03125 10.648438 C 28.97447 10.597065 28.909644 10.559121 28.851562 10.509766 C 29.460446 10.389638 30.05675 10.334602 30.636719 10.347656 z M 25 11 C 25.983333 11 26.846131 11.371575 27.6875 12.132812 C 28.528869 12.894051 29.311794 14.056457 29.958984 15.527344 C 31.210979 18.372785 31.943143 22.343725 31.990234 26.572266 C 29.885115 26.835552 27.529758 27 25 27 C 22.470242 27 20.114885 26.835552 18.009766 26.572266 C 18.056857 22.343725 18.789021 18.372785 20.041016 15.527344 C 20.688206 14.056457 21.471131 12.894051 22.3125 12.132812 C 23.153869 11.371575 24.016667 11 25 11 z M 8.0117188 20.451172 C 7.8789507 21.639657 7.867429 22.865455 8.0058594 24.111328 A 1.0003547 1.0003547 0 0 0 8.0175781 24.185547 C 8.1040995 25.178186 8.8567356 25.891129 9.7480469 26.417969 C 10.695032 26.977716 11.937616 27.422376 13.443359 27.798828 C 16.454846 28.551732 20.513943 29 25 29 C 29.486057 29 33.545154 28.551732 36.556641 27.798828 C 38.062384 27.422376 39.304968 26.977716 40.251953 26.417969 C 41.145588 25.889755 41.89921 25.174444 41.982422 24.177734 A 1.0003551 1.0003551 0 0 0 41.994141 24.111328 C 42.132571 22.865455 42.121049 21.639657 41.988281 20.451172 C 42.756556 20.892707 43.404371 21.351963 43.876953 21.814453 C 44.667575 22.588191 45 23.305609 45 24 C 45 24.749815 44.607735 25.535236 43.679688 26.371094 C 42.751638 27.206951 41.315204 28.028901 39.494141 28.722656 C 35.852015 30.110167 30.696051 31 25 31 C 19.303949 31 14.147985 30.110167 10.505859 28.722656 C 8.6847969 28.028901 7.248361 27.206951 6.3203125 26.371094 C 5.392264 25.535236 5 24.749815 5 24 C 5 23.305609 5.3324255 22.588191 6.1230469 21.814453 C 6.5956293 21.351963 7.2434438 20.892707 8.0117188 20.451172 z M 5.9257812 28.607422 C 6.9908673 29.361838 8.2939685 30.019991 9.7949219 30.591797 C 13.753296 32.099786 19.098051 33 25 33 C 30.901949 33 36.246704 32.099786 40.205078 30.591797 C 41.706031 30.019991 43.009133 29.361838 44.074219 28.607422 C 43.415865 30.619029 42.372538 32.934799 40.833984 35.072266 C 37.77357 39.324009 32.877061 43 25 43 C 17.122939 43 12.22643 39.324009 9.1660156 35.072266 C 7.6274628 32.934799 6.5841348 30.619029 5.9257812 28.607422 z"/></svg>