<svg xmlns="http://www.w3.org/2000/svg"  viewBox="0 0 48 48" width="1000px" height="1000px"><path d="M 27.892578 0.10742188 A 1.50015 1.50015 0 0 0 27.074219 0.3125 C 25.422269 1.2497428 24.068016 2.6425572 23.175781 4.3222656 A 1.5001759 1.5001759 0 0 0 23.003906 4.9277344 C 22.617053 4.9420378 22.226834 4.9694851 21.833984 5.0175781 C 15.673339 5.7728197 10.783663 10.822413 10.189453 16.996094 C 9.9315757 19.683626 10.4822 22.242417 11.619141 24.4375 C 12.319566 25.789214 12.904577 27.119946 13.207031 28.46875 C 13.533866 29.92628 13.733752 31.417911 13.8125 32.916016 C 13.8439 33.52869 13.857066 34.140042 13.847656 34.746094 L 13.847656 34.748047 C 13.784996 39.217606 17.455038 43.047645 22.111328 43.083984 L 22.117188 43.083984 L 22.201172 43.083984 C 26.590981 43.083984 30.50481 40.625114 33.230469 36.880859 C 35.956128 33.136605 37.582031 28.076678 37.582031 22.515625 C 37.582031 19.74975 37.147042 17.134702 36.414062 14.738281 C 36.342562 14.477413 36.256147 14.174731 36.130859 13.845703 C 34.578495 9.4568027 30.791763 6.129525 26.162109 5.1914062 C 26.771411 4.2597639 27.58464 3.4722369 28.554688 2.921875 A 1.50015 1.50015 0 0 0 27.892578 0.10742188 z M 23.150391 7.9199219 C 27.863435 7.7557511 31.843364 10.705436 33.306641 14.849609 L 33.314453 14.873047 L 33.322266 14.894531 C 33.388586 15.064886 33.455077 15.289059 33.527344 15.552734 L 33.533203 15.576172 L 33.539062 15.597656 C 34.19424 17.733572 34.582031 20.0575 34.582031 22.515625 C 34.582031 27.486572 33.103028 31.957989 30.804688 35.115234 C 28.506346 38.27248 25.477363 40.083984 22.201172 40.083984 L 22.134766 40.083984 C 19.103767 40.060334 16.809418 37.59859 16.847656 34.792969 L 16.847656 34.791016 C 16.858176 34.110372 16.843054 33.431791 16.808594 32.759766 L 16.808594 32.757812 C 16.721287 31.098016 16.499931 29.44097 16.134766 27.8125 C 15.745219 26.075304 15.036778 24.512879 14.283203 23.058594 C 13.400144 21.353677 12.973659 19.389671 13.175781 17.283203 C 13.633572 12.526884 17.461865 8.574899 22.199219 7.9941406 C 22.519416 7.9549417 22.836188 7.9308666 23.150391 7.9199219 z"/></svg>