<svg xmlns="http://www.w3.org/2000/svg"  viewBox="0 0 50 50" width="1000px" height="1000px"><path d="M 41.21875 1.21875 C 40.628906 1.199219 40.042969 1.371094 39.5625 1.78125 C 39.550781 1.792969 39.542969 1.800781 39.53125 1.8125 L 10.875 26.71875 L 10.8125 26.75 C 10.800781 26.761719 10.792969 26.769531 10.78125 26.78125 L 10.71875 26.84375 C 10.605469 26.917969 10.511719 27.011719 10.4375 27.125 L 6.59375 30.96875 C 6.003906 31.558594 5.828125 32.421875 5.90625 33.0625 C 5.984375 33.703125 6.203125 34.214844 6.34375 34.6875 C 6.597656 35.53125 6.859375 36.417969 6.8125 37.34375 C 6.765625 38.234375 6.457031 39.210938 5.34375 40.375 C 5.296875 40.414063 5.257813 40.453125 5.21875 40.5 C 5.171875 40.546875 5.128906 40.601563 5.09375 40.65625 L 0.28125 45.4375 C 0.0390625 45.6875 -0.0585938 46.050781 0.03125 46.390625 C 0.121094 46.726563 0.382813 46.996094 0.71875 47.09375 L 7 48.96875 C 7.355469 49.078125 7.738281 48.980469 8 48.71875 L 10.59375 46.09375 C 10.636719 46.066406 10.679688 46.035156 10.71875 46 C 10.742188 45.980469 10.761719 45.960938 10.78125 45.9375 C 13.082031 43.695313 15.320313 44.601563 16.5625 44.90625 C 17 45.011719 17.527344 45.195313 18.15625 45.28125 C 18.785156 45.367188 19.648438 45.226563 20.25 44.625 L 24.125 40.71875 C 24.195313 40.675781 24.257813 40.621094 24.3125 40.5625 C 24.324219 40.550781 24.332031 40.542969 24.34375 40.53125 C 24.355469 40.519531 24.363281 40.511719 24.375 40.5 C 24.398438 40.46875 24.417969 40.4375 24.4375 40.40625 L 49.40625 11.65625 C 50.226563 10.691406 50.207031 9.269531 49.3125 8.375 L 42.84375 1.90625 C 42.394531 1.457031 41.808594 1.238281 41.21875 1.21875 Z M 41.15625 3.21875 C 41.269531 3.222656 41.375 3.25 41.4375 3.3125 L 47.90625 9.78125 C 48.023438 9.898438 48.023438 10.171875 47.90625 10.34375 C 47.898438 10.351563 47.914063 10.367188 47.90625 10.375 L 23.5625 38.375 L 12.84375 27.65625 L 40.84375 3.3125 C 40.925781 3.242188 41.042969 3.214844 41.15625 3.21875 Z M 11.375 29.03125 L 22.1875 39.84375 L 18.8125 43.21875 C 18.664063 43.367188 18.691406 43.351563 18.40625 43.3125 C 18.121094 43.273438 17.660156 43.082031 17.0625 42.9375 C 16.253906 42.742188 13.027344 41.878906 10.15625 44 L 7.25 41.09375 C 8.230469 39.839844 8.753906 38.570313 8.8125 37.4375 C 8.882813 36.054688 8.488281 34.914063 8.25 34.125 C 8.082031 33.5625 7.90625 33.085938 7.875 32.8125 C 7.84375 32.539063 7.839844 32.535156 8 32.375 Z M 5.9375 42.625 L 8.59375 45.28125 L 7 46.875 L 2.90625 45.65625 Z"/></svg>