<svg xmlns="http://www.w3.org/2000/svg"  viewBox="0 0 50 50" width="1000px" height="1000px"><path d="M 13.90625 -0.03125 C 13.863281 -0.0234375 13.820313 -0.0117188 13.78125 0 C 13.316406 0.105469 12.988281 0.523438 13 1 L 13 2 L 10.5 2 C 10.46875 2 10.4375 2 10.40625 2 C 10.375 2 10.34375 2 10.3125 2 C 9.761719 2.050781 9.355469 2.542969 9.40625 3.09375 C 9.457031 3.644531 9.949219 4.050781 10.5 4 L 17.5 4 C 17.859375 4.003906 18.195313 3.816406 18.378906 3.503906 C 18.558594 3.191406 18.558594 2.808594 18.378906 2.496094 C 18.195313 2.183594 17.859375 1.996094 17.5 2 L 15 2 L 15 1 C 15.011719 0.710938 14.894531 0.433594 14.6875 0.238281 C 14.476563 0.0390625 14.191406 -0.0585938 13.90625 -0.03125 Z M 9.21875 5 C 8.667969 5.078125 8.28125 5.589844 8.359375 6.140625 C 8.4375 6.691406 8.949219 7.078125 9.5 7 L 18.5 7 C 18.859375 7.003906 19.195313 6.816406 19.378906 6.503906 C 19.558594 6.191406 19.558594 5.808594 19.378906 5.496094 C 19.195313 5.183594 18.859375 4.996094 18.5 5 L 9.5 5 C 9.46875 5 9.4375 5 9.40625 5 C 9.375 5 9.34375 5 9.3125 5 C 9.28125 5 9.25 5 9.21875 5 Z M 8.71875 8 C 8.167969 8.078125 7.78125 8.589844 7.859375 9.140625 C 7.9375 9.691406 8.449219 10.078125 9 10 L 19 10 C 19.359375 10.003906 19.695313 9.816406 19.878906 9.503906 C 20.058594 9.191406 20.058594 8.808594 19.878906 8.496094 C 19.695313 8.183594 19.359375 7.996094 19 8 L 9 8 C 8.96875 8 8.9375 8 8.90625 8 C 8.875 8 8.84375 8 8.8125 8 C 8.78125 8 8.75 8 8.71875 8 Z M 9.21875 11 C 8.667969 11.078125 8.28125 11.589844 8.359375 12.140625 C 8.4375 12.691406 8.949219 13.078125 9.5 13 L 18.5 13 C 18.859375 13.003906 19.195313 12.816406 19.378906 12.503906 C 19.558594 12.191406 19.558594 11.808594 19.378906 11.496094 C 19.195313 11.183594 18.859375 10.996094 18.5 11 L 9.5 11 C 9.46875 11 9.4375 11 9.40625 11 C 9.375 11 9.34375 11 9.3125 11 C 9.28125 11 9.25 11 9.21875 11 Z M 31 11 L 31 16 L 29 16 C 28.96875 16 28.9375 16 28.90625 16 C 28.390625 16.046875 27.996094 16.480469 28 17 L 28 22.53125 C 27.867188 22.808594 27.867188 23.128906 28 23.40625 L 28 26.53125 C 27.867188 26.808594 27.867188 27.128906 28 27.40625 L 28 47 C 28 48.644531 29.355469 50 31 50 L 41 50 C 42.644531 50 44 48.644531 44 47 L 44 27.1875 C 44.027344 27.054688 44.027344 26.914063 44 26.78125 L 44 23.1875 C 44.027344 23.054688 44.027344 22.914063 44 22.78125 L 44 17 C 44 16.449219 43.550781 16 43 16 L 41 16 L 41 11 Z M 33 13 L 39 13 L 39 16 L 33 16 Z M 10.21875 14 C 9.667969 14.078125 9.28125 14.589844 9.359375 15.140625 C 9.4375 15.691406 9.949219 16.078125 10.5 16 L 13 16 L 13 29 L 15 29 L 15 16 L 17.5 16 C 17.859375 16.003906 18.195313 15.816406 18.378906 15.503906 C 18.558594 15.191406 18.558594 14.808594 18.378906 14.496094 C 18.195313 14.183594 17.859375 13.996094 17.5 14 L 10.5 14 C 10.46875 14 10.4375 14 10.40625 14 C 10.375 14 10.34375 14 10.3125 14 C 10.28125 14 10.25 14 10.21875 14 Z M 30 18 L 42 18 L 42 22 L 30 22 Z M 30 24 L 42 24 L 42 26 L 30 26 Z M 30 28 L 42 28 L 42 47 C 42 47.566406 41.566406 48 41 48 L 31 48 C 30.433594 48 30 47.566406 30 47 Z M 6.8125 30 C 6.335938 30.089844 5.992188 30.511719 6 31 L 6 47 C 6 48.644531 7.355469 50 9 50 L 19 50 C 20.644531 50 22 48.644531 22 47 L 22 31 C 22 30.449219 21.550781 30 21 30 L 7 30 C 6.96875 30 6.9375 30 6.90625 30 C 6.875 30 6.84375 30 6.8125 30 Z M 8 32 L 20 32 L 20 47 C 20 47.566406 19.566406 48 19 48 L 9 48 C 8.433594 48 8 47.566406 8 47 Z"/></svg>