<svg xmlns="http://www.w3.org/2000/svg"  viewBox="0 0 50 50" width="1000px" height="1000px"><path d="M 14.21875 0 C 14.085938 0.015625 13.960938 0.0585938 13.84375 0.125 C 11.882813 1.222656 8.519531 4.152344 5.53125 8.96875 C 2.542969 13.785156 0 20.46875 0 28.90625 C 0 34.839844 2.671875 44.21875 9.78125 49.65625 C 9.839844 49.703125 9.878906 49.769531 9.9375 49.8125 C 10.34375 50.191406 10.980469 50.171875 11.359375 49.765625 C 11.738281 49.359375 11.71875 48.722656 11.3125 48.34375 C 11.40625 48.457031 11.144531 48.082031 10.90625 47.59375 C 10.667969 47.105469 10.351563 46.449219 10.03125 45.625 C 9.386719 43.972656 8.683594 41.710938 8.1875 39.15625 C 7.335938 34.773438 7.28125 29.550781 9.25 24.78125 C 9.804688 26.382813 10.429688 27.710938 11.15625 28.46875 C 11.703125 29.039063 12.398438 29.410156 13.15625 29.375 C 13.914063 29.339844 14.542969 28.882813 14.96875 28.3125 C 15.820313 27.171875 16.199219 25.464844 16.25 23.28125 C 16.273438 22.238281 16.175781 21.078125 16 19.84375 C 16.769531 21.210938 17.382813 22.785156 17.65625 24.46875 C 18.195313 27.765625 17.597656 31.410156 14.90625 34.75 C 14.628906 35.101563 14.617188 35.59375 14.878906 35.957031 C 15.140625 36.320313 15.609375 36.464844 16.03125 36.3125 C 17.921875 35.597656 20.113281 34.664063 21.875 32.90625 C 23.636719 31.148438 24.90625 28.546875 24.90625 24.84375 C 24.90625 20.941406 22.640625 16.226563 20.34375 11.75 C 18.046875 7.273438 15.683594 2.933594 15.3125 0.8125 C 15.21875 0.296875 14.738281 -0.0585938 14.21875 0 Z M 13.875 2.625 C 14.742188 5.429688 16.605469 8.839844 18.5625 12.65625 C 20.832031 17.085938 22.90625 21.769531 22.90625 24.84375 C 22.90625 28.117188 21.886719 30.085938 20.46875 31.5 C 19.851563 32.117188 19.101563 32.597656 18.34375 33.03125 C 19.785156 30.066406 20.082031 26.96875 19.625 24.15625 C 19.007813 20.378906 17.109375 17.101563 14.75 15.09375 C 14.414063 14.78125 13.90625 14.738281 13.523438 14.988281 C 13.136719 15.242188 12.972656 15.722656 13.125 16.15625 C 13.96875 18.859375 14.292969 21.285156 14.25 23.21875 C 14.207031 25.152344 13.734375 26.601563 13.34375 27.125 C 13.148438 27.386719 13.082031 27.375 13.0625 27.375 C 13.042969 27.375 12.894531 27.375 12.59375 27.0625 C 11.996094 26.4375 11.113281 24.714844 10.40625 21.71875 C 10.316406 21.316406 9.988281 21.007813 9.582031 20.945313 C 9.171875 20.882813 8.769531 21.078125 8.5625 21.4375 C 5.050781 27.363281 5.171875 34.140625 6.21875 39.53125 C 6.609375 41.546875 7.164063 43.101563 7.6875 44.625 C 3.75 39.65625 2 33.15625 2 28.90625 C 2 20.871094 4.398438 14.578125 7.21875 10.03125 C 9.636719 6.132813 12.222656 3.796875 13.875 2.625 Z M 46.6875 24.03125 C 46.300781 24.070313 45.925781 24.179688 45.5625 24.375 L 19.375 38.59375 C 19.28125 38.574219 19.1875 38.546875 19.09375 38.53125 C 17.8125 38.332031 16.386719 38.589844 15.0625 39.28125 C 13.738281 39.976563 12.722656 41.019531 12.15625 42.1875 C 11.589844 43.355469 11.480469 44.703125 12.09375 45.875 C 12.707031 47.046875 13.90625 47.738281 15.1875 47.9375 C 16.46875 48.136719 17.863281 47.882813 19.1875 47.1875 C 20.511719 46.492188 21.527344 45.480469 22.09375 44.3125 C 22.167969 44.160156 22.222656 44.003906 22.28125 43.84375 L 48.4375 29.625 C 49.882813 28.839844 50.410156 27.007813 49.625 25.5625 C 49.234375 24.839844 48.582031 24.34375 47.84375 24.125 C 47.472656 24.015625 47.074219 23.992188 46.6875 24.03125 Z M 46.90625 26 C 47.292969 25.960938 47.671875 26.160156 47.875 26.53125 C 48.144531 27.027344 47.964844 27.605469 47.46875 27.875 L 22.5 41.46875 C 22.433594 41.167969 22.304688 40.878906 22.15625 40.59375 C 21.988281 40.273438 21.773438 39.996094 21.53125 39.75 L 46.53125 26.125 C 46.65625 26.058594 46.777344 26.011719 46.90625 26 Z M 18.15625 40.5 C 18.378906 40.496094 18.582031 40.5 18.78125 40.53125 C 18.890625 40.546875 18.992188 40.566406 19.09375 40.59375 C 19.125 40.601563 19.15625 40.617188 19.1875 40.625 C 19.21875 40.636719 19.25 40.648438 19.28125 40.65625 C 19.300781 40.664063 19.324219 40.648438 19.34375 40.65625 C 19.355469 40.667969 19.363281 40.675781 19.375 40.6875 C 19.382813 40.691406 19.398438 40.683594 19.40625 40.6875 C 19.875 40.867188 20.210938 41.160156 20.40625 41.53125 C 20.574219 41.851563 20.621094 42.222656 20.5625 42.625 C 20.550781 42.636719 20.542969 42.644531 20.53125 42.65625 C 20.425781 42.824219 20.371094 43.019531 20.375 43.21875 C 20.375 43.25 20.375 43.28125 20.375 43.3125 C 20.355469 43.355469 20.335938 43.394531 20.3125 43.4375 C 19.957031 44.167969 19.253906 44.929688 18.28125 45.4375 C 17.3125 45.945313 16.269531 46.09375 15.46875 45.96875 C 14.667969 45.84375 14.148438 45.460938 13.875 44.9375 C 13.601563 44.417969 13.613281 43.792969 13.96875 43.0625 C 14.324219 42.332031 15.03125 41.570313 16 41.0625 C 16.730469 40.679688 17.488281 40.511719 18.15625 40.5 Z"/></svg>