<svg xmlns="http://www.w3.org/2000/svg"  viewBox="0 0 50 50" width="1000px" height="1000px"><path d="M 36 38 L 14 38 C 13.449219 38 13 37.554688 13 37 L 13 25 C 13 24.449219 13.449219 24 14 24 L 36 24 C 36.554688 24 37 24.449219 37 25 L 37 37 C 37 37.554688 36.554688 38 36 38 Z M 15 36 L 35 36 L 35 26 L 15 26 Z M 40 14.699219 L 40 13 C 41.160156 13 42 12.160156 42 11 L 42 5 C 42 3.839844 41.160156 3 40 3 L 10 3 C 8.839844 3 8 3.839844 8 5 L 8 11 C 8 12.160156 8.839844 13 10 13 L 10 14.699219 C 8.101563 16.699219 7 19.398438 7 22.300781 L 7 40 C 7 43.898438 10.101563 47 14 47 L 36 47 C 39.898438 47 43 43.898438 43 40 L 43 22.300781 C 43 19.398438 41.898438 16.699219 40 14.699219 Z M 40 5 L 40.050781 10.996094 C 40.050781 10.996094 40.035156 11 40 11 L 38 11 L 38 5 Z M 36 5 L 36.050781 10.996094 C 36.050781 10.996094 36.035156 11 36 11 L 34 11 L 34 5 Z M 32 5 L 32.050781 10.996094 C 32.050781 10.996094 32.035156 11 32 11 L 30 11 L 30 5 Z M 28.050781 10.996094 C 28.050781 10.996094 28.035156 11 28 11 L 26 11 L 26 5 L 28 5 Z M 24 5 L 24 11 L 22 11 L 22 5 Z M 20 5 L 20 11 L 18 11 L 18 5 Z M 16 5 L 16 11 L 14 11 L 14 5 Z M 10 5 L 12 5 L 12 11 L 10 11 Z M 41 40 C 41 42.800781 38.800781 45 36 45 L 14 45 C 11.199219 45 9 42.800781 9 40 L 9 22.300781 C 9 21.300781 9.199219 20.398438 9.398438 19.5 C 9.398438 19.398438 9.398438 19.398438 9.5 19.300781 C 9.601563 19 9.699219 18.800781 9.800781 18.5 C 9.800781 18.398438 9.898438 18.300781 9.898438 18.199219 C 9.898438 18.101563 10 18 10 17.898438 C 10.5 17 11.101563 16.101563 11.898438 15.398438 L 11.898438 13 L 38 13 L 38 15.5 C 38.800781 16.199219 39.398438 17.101563 39.898438 18 C 40 18.199219 40.101563 18.398438 40.199219 18.601563 C 40.199219 18.601563 40.199219 18.699219 40.300781 18.699219 C 40.800781 19.800781 41 21 41 22.300781 Z"/></svg>