<svg xmlns="http://www.w3.org/2000/svg"  viewBox="0 0 50 50" width="1000px" height="1000px"><path d="M 34.5 15 C 30.398438 15 26.6875 16.398438 24.1875 18.5 C 23.789063 19 20.199219 22 16.5 22 C 13.699219 22 12.199219 21 10.5 21 C 5.300781 21 1 24.101563 1 28 L 1 35 C 1 38.898438 5 41.101563 10.5 42 C 10.601563 42 18 43 22.5 43 C 27 43 34.398438 42 34.5 42 C 42.199219 40.699219 48 37.5 48 32 L 48 25 C 48 19.5 42 15 34.5 15 Z M 34.5 17 C 40.800781 17 46 20.601563 46 25 C 45.984375 25.953125 45.71875 26.8125 45.28125 27.5625 C 45.277344 27.570313 45.285156 27.585938 45.28125 27.59375 C 44.527344 28.875 43.242188 29.839844 41.75 30.625 C 41.71875 30.625 41.6875 30.625 41.65625 30.625 L 38.34375 29.75 C 38.324219 29.742188 38.269531 29.726563 38.25 29.71875 C 37.550781 29.460938 36.386719 29.1875 34.78125 28.8125 C 33.304688 28.46875 31.511719 28.085938 29.75 27.71875 C 29.738281 26.839844 29.375 26.082031 28.9375 25.4375 C 29.179688 25.261719 29.542969 25.035156 30.03125 24.78125 C 30.6875 24.441406 31.5 24.082031 31.96875 23.1875 C 31.972656 23.179688 31.960938 23.160156 31.96875 23.15625 C 32.359375 22.429688 32.335938 21.691406 32.28125 21.09375 C 32.226563 20.488281 32.152344 19.960938 32.1875 19.59375 C 32.1875 19.5625 32.1875 19.53125 32.1875 19.5 C 32.1875 19.3125 32.203125 19.292969 32.25 19.1875 C 32.296875 19.082031 32.425781 18.902344 32.59375 18.5625 L 33.6875 17.03125 C 33.953125 17.019531 34.230469 17 34.5 17 Z M 30.96875 17.375 L 30.875 17.5 C 30.851563 17.550781 30.828125 17.601563 30.8125 17.65625 C 30.683594 17.917969 30.535156 18.109375 30.40625 18.40625 C 30.289063 18.675781 30.234375 19.035156 30.21875 19.40625 C 30.21875 19.441406 30.1875 19.464844 30.1875 19.5 L 30.21875 19.5 C 30.171875 20.183594 30.269531 20.78125 30.3125 21.25 C 30.355469 21.742188 30.308594 22.058594 30.21875 22.21875 C 30.21875 22.230469 30.21875 22.238281 30.21875 22.25 C 30.183594 22.320313 29.757813 22.671875 29.125 23 C 28.691406 23.226563 28.183594 23.429688 27.71875 23.78125 C 27.300781 23.207031 26.949219 22.675781 26.90625 22.21875 C 26.898438 22.175781 26.886719 22.132813 26.875 22.09375 C 26.785156 21.644531 26.773438 21.882813 26.9375 21.46875 L 28.1875 18.34375 C 29.054688 17.9375 29.976563 17.601563 30.96875 17.375 Z M 25.21875 20.375 L 25.0625 20.71875 C 24.84375 21.261719 24.820313 21.851563 24.90625 22.375 C 24.90625 22.386719 24.90625 22.394531 24.90625 22.40625 C 24.910156 22.433594 24.902344 22.472656 24.90625 22.5 L 24.9375 22.5 C 25.121094 23.953125 26.066406 24.976563 26.71875 25.8125 C 26.730469 25.824219 26.738281 25.832031 26.75 25.84375 C 27.140625 26.289063 27.433594 26.808594 27.59375 27.28125 C 26.242188 27.007813 24.835938 26.722656 23.78125 26.53125 C 23.035156 26.394531 22.425781 26.292969 21.9375 26.21875 C 21.828125 26.203125 21.75 26.203125 21.65625 26.1875 C 21.539063 26.160156 21.429688 26.144531 21.3125 26.125 C 21.226563 26.117188 21.167969 26.105469 21.09375 26.09375 C 20.710938 26.042969 20.339844 26 20 26 C 18.707031 26 17.640625 25.460938 16.8125 24.40625 C 16.800781 24.394531 16.789063 24.386719 16.78125 24.375 L 16.5 24 C 20.25 24 23.730469 21.691406 25.21875 20.375 Z M 10.5 23 C 11 23 11.488281 23.113281 12.1875 23.3125 C 12.652344 23.4375 13.203125 23.5625 13.78125 23.6875 L 15.1875 25.59375 C 15.199219 25.605469 15.207031 25.613281 15.21875 25.625 C 16.222656 26.929688 17.644531 27.730469 19.21875 27.9375 L 17.5625 30.03125 C 17.554688 30.039063 17.539063 30.023438 17.53125 30.03125 L 17.53125 30.0625 C 16.898438 30.777344 16.195313 31.378906 15.5 31.6875 C 15.488281 31.6875 15.480469 31.6875 15.46875 31.6875 L 12.40625 33.1875 C 11.949219 33.128906 10.832031 33 10.8125 33 C 10.097656 32.875 9.230469 32.707031 8.375 32.46875 C 8.367188 32.464844 8.351563 32.472656 8.34375 32.46875 C 8.207031 32.429688 8.074219 32.386719 7.9375 32.34375 C 7.640625 32.253906 7.355469 32.140625 7.0625 32.03125 C 6.648438 31.878906 6.230469 31.722656 5.84375 31.53125 C 5.832031 31.523438 5.824219 31.507813 5.8125 31.5 C 5.628906 31.40625 5.457031 31.320313 5.28125 31.21875 C 5.269531 31.210938 5.261719 31.195313 5.25 31.1875 C 5.078125 31.085938 4.910156 30.988281 4.75 30.875 C 4.738281 30.867188 4.730469 30.851563 4.71875 30.84375 C 4.566406 30.738281 4.417969 30.617188 4.28125 30.5 C 4.265625 30.484375 4.234375 30.484375 4.21875 30.46875 C 4.082031 30.347656 3.960938 30.226563 3.84375 30.09375 C 3.832031 30.082031 3.824219 30.074219 3.8125 30.0625 C 3.777344 30.023438 3.75 29.976563 3.71875 29.9375 C 3.628906 29.824219 3.542969 29.714844 3.46875 29.59375 C 3.167969 29.121094 3 28.601563 3 28 C 3 25.300781 6.398438 23 10.5 23 Z M 21.5 28.25 C 21.777344 28.339844 22.023438 28.449219 22.15625 28.5625 C 22.175781 28.585938 22.195313 28.605469 22.21875 28.625 C 22.230469 28.644531 22.261719 28.675781 22.3125 28.75 C 22.402344 28.886719 22.546875 29.148438 22.84375 29.375 C 22.886719 29.429688 22.949219 29.527344 23.03125 29.65625 C 23.191406 29.914063 23.398438 30.28125 23.625 30.6875 C 24.070313 31.480469 24.59375 32.410156 25 33.125 C 25.011719 33.144531 25.019531 33.171875 25.03125 33.1875 L 25.375 33.875 C 24.953125 33.902344 24.527344 33.953125 24.125 33.96875 C 23.550781 33.992188 23 34 22.5 34 C 20.617188 34 18.257813 33.804688 16.125 33.59375 L 16.3125 33.5 C 16.328125 33.492188 16.328125 33.476563 16.34375 33.46875 C 17.417969 32.980469 18.3125 32.199219 19.0625 31.34375 C 19.074219 31.332031 19.082031 31.324219 19.09375 31.3125 L 21.46875 28.3125 C 21.480469 28.292969 21.492188 28.269531 21.5 28.25 Z M 24.84375 28.78125 C 26.070313 29.011719 27.316406 29.234375 28.75 29.53125 C 30.699219 29.9375 32.683594 30.371094 34.3125 30.75 C 35.941406 31.128906 37.292969 31.488281 37.65625 31.625 C 37.6875 31.636719 37.71875 31.648438 37.75 31.65625 L 38.65625 31.90625 C 37.089844 32.410156 35.496094 32.761719 34.1875 33 C 33.789063 33.050781 31.886719 33.292969 29.5625 33.53125 C 28.90625 33.597656 28.195313 33.660156 27.5 33.71875 L 26.8125 32.28125 C 26.804688 32.261719 26.792969 32.238281 26.78125 32.21875 C 26.394531 31.539063 25.84375 30.554688 25.375 29.71875 C 25.179688 29.367188 25.007813 29.0625 24.84375 28.78125 Z M 46 30 L 46 32 C 46 37.199219 38.585938 39.300781 34.1875 40 C 33.386719 40.101563 26.5 41 22.5 41 C 18.101563 41 10.914063 40 10.8125 40 C 7.914063 39.5 3 38.199219 3 35 L 3 32.09375 C 3.035156 32.121094 3.058594 32.160156 3.09375 32.1875 C 3.242188 32.308594 3.394531 32.414063 3.5625 32.53125 C 3.671875 32.609375 3.789063 32.675781 3.90625 32.75 C 4.011719 32.820313 4.105469 32.902344 4.21875 32.96875 C 4.261719 32.992188 4.300781 33.007813 4.34375 33.03125 C 5.753906 33.847656 7.726563 34.5625 10.5 35 C 10.519531 35 11.632813 35.132813 12.0625 35.1875 C 12.070313 35.1875 12.085938 35.1875 12.09375 35.1875 C 12.269531 35.261719 12.464844 35.285156 12.65625 35.25 C 12.667969 35.25 12.675781 35.25 12.6875 35.25 C 14.246094 35.4375 16.101563 35.65625 18.75 35.84375 C 18.769531 35.84375 18.792969 35.84375 18.8125 35.84375 C 19.453125 35.886719 20.074219 35.941406 20.6875 35.96875 C 20.707031 35.96875 20.730469 35.96875 20.75 35.96875 C 21.359375 35.996094 21.957031 36 22.5 36 C 23.015625 36 23.582031 35.992188 24.15625 35.96875 C 24.207031 35.964844 24.261719 35.972656 24.3125 35.96875 C 28.746094 35.777344 34.414063 35 34.5 35 C 34.53125 34.996094 34.5625 35.003906 34.59375 35 C 35.535156 34.839844 36.429688 34.652344 37.28125 34.4375 C 37.632813 34.351563 37.972656 34.253906 38.3125 34.15625 C 38.410156 34.128906 38.496094 34.089844 38.59375 34.0625 C 39.066406 33.921875 39.523438 33.785156 39.96875 33.625 C 40.339844 33.492188 40.683594 33.363281 41.03125 33.21875 C 41.179688 33.15625 41.324219 33.09375 41.46875 33.03125 C 41.503906 33.015625 41.527344 32.984375 41.5625 32.96875 C 42.460938 32.566406 43.292969 32.121094 44.03125 31.625 C 44.0625 31.601563 44.09375 31.585938 44.125 31.5625 C 44.464844 31.328125 44.792969 31.097656 45.09375 30.84375 C 45.328125 30.648438 45.542969 30.453125 45.75 30.25 C 45.78125 30.21875 45.8125 30.1875 45.84375 30.15625 C 45.894531 30.105469 45.949219 30.050781 46 30 Z"/></svg>