<svg xmlns="http://www.w3.org/2000/svg"  viewBox="0 0 50 50" width="1000px" height="1000px"><path d="M 25 1 C 15.765625 1 10.425781 2.5 7.3125 4.84375 C 4.296875 7.117188 3.574219 10.1875 3.53125 12.75 C 3.285156 13.277344 0 20.457031 0 29.59375 C 0 34.234375 0.1875 38.847656 0.5 42.34375 C 0.65625 44.089844 0.835938 45.546875 1.0625 46.625 C 1.175781 47.164063 1.300781 47.617188 1.46875 48 C 1.554688 48.191406 1.640625 48.367188 1.8125 48.5625 C 1.984375 48.757813 2.3125 49 2.75 49 L 47.3125 49 C 47.753906 49 48.109375 48.757813 48.28125 48.5625 C 48.453125 48.367188 48.542969 48.160156 48.625 47.96875 C 48.789063 47.582031 48.890625 47.164063 49 46.625 C 49.21875 45.542969 49.382813 44.0625 49.53125 42.3125 C 49.824219 38.8125 50 34.207031 50 29.59375 C 50 20.546875 46.742188 13.367188 46.46875 12.78125 C 46.433594 10.175781 45.71875 7.085938 42.6875 4.8125 C 39.570313 2.476563 34.234375 1 25 1 Z M 25 3 C 34.015625 3 38.914063 4.523438 41.46875 6.4375 C 43.660156 8.078125 44.300781 10.003906 44.4375 12 L 5.5625 12 C 5.699219 10.03125 6.34375 8.117188 8.53125 6.46875 C 11.085938 4.542969 15.984375 3 25 3 Z M 5.21875 14 L 44.78125 14 C 45.144531 14.796875 48 21.210938 48 29.59375 C 48 34.15625 47.847656 38.742188 47.5625 42.15625 C 47.417969 43.863281 47.222656 45.28125 47.03125 46.21875 C 46.953125 46.59375 46.90625 46.816406 46.84375 47 L 3.25 47 C 3.183594 46.816406 3.109375 46.59375 3.03125 46.21875 C 2.835938 45.285156 2.652344 43.859375 2.5 42.15625 C 2.195313 38.75 2 34.179688 2 29.59375 C 2 21.160156 4.855469 14.792969 5.21875 14 Z M 25 17.9375 C 18.863281 17.9375 13.84375 22.910156 13.84375 29 C 13.84375 35.09375 18.863281 40.03125 25 40.03125 C 31.136719 40.03125 36.15625 35.09375 36.15625 29 C 36.15625 22.90625 31.136719 17.9375 25 17.9375 Z M 25 19.9375 C 30.066406 19.9375 34.15625 24 34.15625 29 C 34.15625 34 30.066406 38.03125 25 38.03125 C 19.933594 38.03125 15.84375 34 15.84375 29 C 15.84375 24 19.933594 19.9375 25 19.9375 Z M 23 23 L 23 27 L 19 27 L 19 31 L 23 31 L 23 35 L 27 35 L 27 31 L 31 31 L 31 27 L 27 27 L 27 23 Z"/></svg>