<svg fill="#000000" xmlns="http://www.w3.org/2000/svg"  viewBox="0 0 50 50" width="1000px" height="1000px"><path d="M 39.4375 1.59375 L 1.59375 39.4375 L 2.28125 40.15625 C 12.730469 50.601563 29.707031 50.605469 40.15625 40.15625 C 50.605469 29.707031 50.605469 12.730469 40.15625 2.28125 Z M 39.375 4.5 C 48.34375 14.226563 48.191406 29.308594 38.75 38.75 C 29.308594 48.191406 14.226563 48.34375 4.5 39.375 L 5.625 38.25 C 14.679688 46.570313 28.785156 46.339844 37.5625 37.5625 C 46.339844 28.785156 46.570313 14.679688 38.25 5.625 Z M 36.84375 7.03125 C 44.394531 15.320313 44.167969 28.144531 36.15625 36.15625 C 28.144531 44.167969 15.316406 44.394531 7.03125 36.84375 L 12.09375 31.78125 C 14.234375 33.703125 17.160156 34.390625 20.15625 33.96875 C 23.308594 33.523438 26.574219 31.925781 29.25 29.25 C 31.925781 26.574219 33.523438 23.308594 33.96875 20.15625 C 34.390625 17.160156 33.703125 14.234375 31.78125 12.09375 Z M 30.375 13.5 C 31.285156 14.546875 31.847656 15.828125 32.03125 17.28125 C 31.757813 17.03125 31.445313 16.800781 31.0625 16.6875 C 30.050781 16.390625 28.800781 16.636719 28.75 16.8125 C 28.699219 16.988281 29.535156 18.191406 30.59375 18.5 C 31.15625 18.664063 31.691406 18.628906 32.09375 18.53125 C 32.089844 18.96875 32.0625 19.417969 32 19.875 C 31.925781 20.410156 31.785156 20.953125 31.625 21.5 C 31.601563 21.199219 31.039063 20.027344 30.0625 19.5625 C 29.003906 19.058594 27.621094 19.128906 27.53125 19.3125 C 27.441406 19.5 28.144531 20.976563 29.25 21.5 C 30.316406 22.003906 31.472656 21.78125 31.625 21.625 C 30.980469 23.765625 29.6875 25.9375 27.8125 27.8125 C 25.425781 30.199219 22.542969 31.625 19.875 32 C 19.417969 32.0625 18.96875 32.089844 18.53125 32.09375 C 18.628906 31.691406 18.664063 31.15625 18.5 30.59375 C 18.191406 29.535156 16.988281 28.699219 16.8125 28.75 C 16.636719 28.800781 16.390625 30.050781 16.6875 31.0625 C 16.800781 31.445313 17.03125 31.757813 17.28125 32.03125 C 15.828125 31.847656 14.546875 31.285156 13.5 30.375 L 14.125 29.75 C 14.898438 30.136719 15.753906 30.183594 15.84375 30.09375 C 15.9375 30 15.859375 29.21875 15.40625 28.46875 L 16.1875 27.6875 C 16.996094 28.152344 17.996094 28.191406 18.09375 28.09375 C 18.195313 27.992188 18.101563 27.105469 17.5625 26.3125 L 18.03125 25.84375 C 18.84375 26.324219 19.839844 26.378906 19.9375 26.28125 C 20.039063 26.179688 19.972656 25.269531 19.40625 24.46875 L 20 23.875 C 20.828125 24.671875 22.257813 24.773438 22.375 24.65625 C 22.492188 24.539063 22.363281 23.300781 21.5 22.4375 C 21.488281 22.425781 21.480469 22.417969 21.46875 22.40625 L 22.40625 21.46875 C 22.417969 21.480469 22.425781 21.488281 22.4375 21.5 C 23.300781 22.363281 24.539063 22.492188 24.65625 22.375 C 24.773438 22.257813 24.671875 20.828125 23.875 20 L 24.46875 19.40625 C 25.269531 19.972656 26.179688 20.039063 26.28125 19.9375 C 26.378906 19.839844 26.324219 18.84375 25.84375 18.03125 L 26.3125 17.5625 C 27.105469 18.101563 27.992188 18.195313 28.09375 18.09375 C 28.191406 17.996094 28.152344 16.996094 27.6875 16.1875 L 28.46875 15.40625 C 29.21875 15.859375 30 15.9375 30.09375 15.84375 C 30.183594 15.753906 30.136719 14.898438 29.75 14.125 Z M 26.3125 21.3125 C 26.261719 21.3125 26.238281 21.324219 26.21875 21.34375 C 26.074219 21.488281 26.230469 23.105469 27.09375 23.96875 C 27.957031 24.832031 29.195313 24.960938 29.3125 24.84375 C 29.429688 24.726563 29.355469 23.261719 28.53125 22.4375 C 27.808594 21.714844 26.675781 21.308594 26.3125 21.3125 Z M 24.15625 23.71875 C 24.105469 23.71875 24.082031 23.730469 24.0625 23.75 C 23.917969 23.894531 24.074219 25.511719 24.9375 26.375 C 25.800781 27.238281 27.039063 27.367188 27.15625 27.25 C 27.273438 27.132813 27.167969 25.667969 26.34375 24.84375 C 25.621094 24.121094 24.519531 23.714844 24.15625 23.71875 Z M 21.6875 26.15625 C 21.503906 26.144531 21.378906 26.183594 21.34375 26.21875 C 21.199219 26.363281 21.613281 27.707031 22.4375 28.53125 C 23.261719 29.355469 24.726563 29.429688 24.84375 29.3125 C 24.960938 29.195313 24.832031 27.957031 23.96875 27.09375 C 23.320313 26.445313 22.242188 26.1875 21.6875 26.15625 Z M 19.28125 27.21875 C 19.09375 27.304688 19.019531 28.6875 19.5 29.75 C 19.984375 30.8125 21.316406 31.445313 21.46875 31.375 C 21.621094 31.304688 21.941406 30.078125 21.4375 28.96875 C 20.933594 27.859375 19.46875 27.132813 19.28125 27.21875 Z"/></svg>