<svg xmlns="http://www.w3.org/2000/svg"  viewBox="0 0 48 48" width="1000px" height="1000px"><path fill="none" stroke="#000" stroke-linecap="round" stroke-linejoin="round" stroke-miterlimit="10" stroke-width="3" d="M18,6.48h22.54c0.55,0,1,0.45,1,1v3.04c0,0.55-0.45,1-1,1H7.46c-0.55,0-1-0.45-1-1V7.48c0-0.55,0.45-1,1-1h3.93"/><path fill="none" stroke="#000" stroke-linecap="round" stroke-linejoin="round" stroke-miterlimit="10" stroke-width="3" d="M15.49,33.04c0.95,0.78,1.97,1.4,3.07,1.88c1.46,0.63,2.44,2.02,2.44,3.6v0c0,1.66,1.34,3,3,3h0	c1.66,0,3-1.34,3-3v0c0-1.59,0.98-2.97,2.44-3.6c3.91-1.7,6.98-5.35,8.5-10.74"/><path fill="none" stroke="#000" stroke-linecap="round" stroke-linejoin="round" stroke-miterlimit="10" stroke-width="3" d="M38.86,19.05c0.09-1.02,0.14-2.09,0.14-3.2v-4.32H9v4.32c0,5.16,1.02,9.4,2.79,12.64"/></svg>