<svg xmlns="http://www.w3.org/2000/svg"  viewBox="0 0 50 50" width="1000px" height="1000px"><path d="M 5.40625 9.84375 C 4.96875 9.84375 4.722656 10.078125 4.59375 10.21875 C 4.464844 10.359375 4.402344 10.480469 4.34375 10.59375 C 4.226563 10.816406 4.117188 11.042969 4.03125 11.3125 C 3.859375 11.855469 3.683594 12.5625 3.5 13.40625 C 3.132813 15.097656 2.746094 17.3125 2.375 19.53125 C 1.632813 23.96875 1 28.40625 1 28.40625 C 0.996094 28.449219 0.996094 28.488281 1 28.53125 C 1 29.0625 1.320313 29.335938 1.46875 29.4375 C 1.617188 29.539063 1.742188 29.554688 1.84375 29.59375 C 2.046875 29.667969 2.230469 29.726563 2.46875 29.78125 C 2.949219 29.890625 3.582031 29.984375 4.34375 30.125 C 5.871094 30.40625 7.898438 30.816406 9.96875 31.40625 C 12.039063 31.996094 14.160156 32.769531 15.8125 33.8125 C 17.464844 34.855469 18.617188 36.128906 19.03125 37.65625 L 19.09375 37.625 C 19.199219 38.167969 19.53125 38.574219 19.875 38.8125 C 20.277344 39.089844 20.71875 39.265625 21.25 39.4375 C 22.3125 39.78125 23.640625 40 25 40 C 26.359375 40 27.6875 39.78125 28.75 39.4375 C 29.28125 39.265625 29.722656 39.089844 30.125 38.8125 C 30.46875 38.574219 30.800781 38.167969 30.90625 37.625 L 30.96875 37.65625 C 31.382813 36.128906 32.535156 34.855469 34.1875 33.8125 C 35.839844 32.769531 37.960938 31.996094 40.03125 31.40625 C 42.101563 30.816406 44.128906 30.40625 45.65625 30.125 C 46.417969 29.984375 47.050781 29.886719 47.53125 29.78125 C 47.769531 29.726563 47.953125 29.667969 48.15625 29.59375 C 48.257813 29.554688 48.382813 29.539063 48.53125 29.4375 C 48.679688 29.335938 49 29.066406 49 28.53125 C 49.003906 28.488281 49.003906 28.449219 49 28.40625 C 49 28.40625 48.367188 23.96875 47.625 19.53125 C 47.253906 17.3125 46.867188 15.097656 46.5 13.40625 C 46.316406 12.5625 46.140625 11.855469 45.96875 11.3125 C 45.882813 11.042969 45.773438 10.816406 45.65625 10.59375 C 45.597656 10.480469 45.535156 10.359375 45.40625 10.21875 C 45.277344 10.078125 45.03125 9.84375 44.59375 9.84375 C 44.417969 9.839844 44.246094 9.882813 44.09375 9.96875 C 44.09375 9.96875 44.058594 10.007813 43.5625 10.15625 C 43.066406 10.304688 42.195313 10.535156 40.8125 10.75 C 38.042969 11.179688 33.199219 11.625 25 11.625 C 16.800781 11.625 11.957031 11.179688 9.1875 10.75 C 7.804688 10.535156 6.933594 10.304688 6.4375 10.15625 C 5.941406 10.007813 5.90625 9.96875 5.90625 9.96875 C 5.753906 9.882813 5.582031 9.839844 5.40625 9.84375 Z M 5.875 12.09375 C 6.480469 12.277344 7.417969 12.492188 8.875 12.71875 C 11.789063 13.171875 16.730469 13.625 25 13.625 C 33.269531 13.625 38.210938 13.171875 41.125 12.71875 C 42.582031 12.492188 43.519531 12.277344 44.125 12.09375 C 44.253906 12.519531 44.371094 13.082031 44.53125 13.8125 C 44.886719 15.4375 45.289063 17.640625 45.65625 19.84375 C 46.320313 23.832031 46.773438 27.117188 46.875 27.84375 C 46.472656 27.929688 45.957031 28.03125 45.28125 28.15625 C 43.746094 28.441406 41.648438 28.847656 39.46875 29.46875 C 37.964844 29.898438 36.4375 30.441406 35 31.125 C 35.066406 26.320313 34.765625 20.445313 32.90625 16.5625 C 32.71875 16.160156 32.285156 15.929688 31.84375 16 C 31.527344 16.046875 31.25 16.242188 31.101563 16.527344 C 30.953125 16.8125 30.949219 17.152344 31.09375 17.4375 C 32.75 20.898438 33.089844 27.328125 32.96875 32.1875 C 32.96875 32.199219 32.96875 32.207031 32.96875 32.21875 C 31.128906 33.414063 29.601563 35.019531 29.03125 37.125 C 29.019531 37.136719 29.011719 37.144531 29 37.15625 C 28.855469 37.257813 28.53125 37.398438 28.125 37.53125 C 27.3125 37.792969 26.140625 38 25 38 C 23.859375 38 22.6875 37.792969 21.875 37.53125 C 21.46875 37.398438 21.144531 37.257813 21 37.15625 C 20.980469 37.140625 20.976563 37.152344 20.96875 37.15625 C 20.96875 37.144531 20.96875 37.136719 20.96875 37.125 C 20.398438 35.019531 18.871094 33.414063 17.03125 32.21875 C 17.03125 32.207031 17.03125 32.199219 17.03125 32.1875 C 16.910156 27.328125 17.25 20.898438 18.90625 17.4375 C 19.078125 17.101563 19.042969 16.695313 18.820313 16.390625 C 18.59375 16.085938 18.214844 15.9375 17.84375 16 C 17.515625 16.050781 17.234375 16.261719 17.09375 16.5625 C 15.234375 20.445313 14.933594 26.320313 15 31.125 C 13.5625 30.441406 12.035156 29.894531 10.53125 29.46875 C 8.351563 28.851563 6.253906 28.472656 4.71875 28.1875 C 4.042969 28.0625 3.527344 27.929688 3.125 27.84375 C 3.226563 27.117188 3.679688 23.832031 4.34375 19.84375 C 4.710938 17.640625 5.113281 15.4375 5.46875 13.8125 C 5.628906 13.082031 5.746094 12.519531 5.875 12.09375 Z"/></svg>