<svg xmlns="http://www.w3.org/2000/svg"  viewBox="0 0 50 50" width="1000px" height="1000px"><path d="M 15 7 C 13.941406 7 13.042969 7.953125 13.042969 9 L 13.042969 20.90625 L 10 25.707031 L 10 41 C 10 42.09375 10.90625 43 12 43 L 38 43 C 39.09375 43 40 42.09375 40 41 L 40 9 C 40 7.90625 39.09375 7 38 7 Z M 15.042969 9 L 38 9 L 38 41 L 12 41 L 12 26.292969 L 15.042969 21.488281 Z M 18 11 L 18 18 L 20 18 L 20 11 Z M 23 11 L 23 18 L 25 18 L 25 11 Z M 28 11 L 28 18 L 30 18 L 30 11 Z M 33 11 L 33 18 L 35 18 L 35 11 Z"/></svg>