<svg fill="#000000" xmlns="http://www.w3.org/2000/svg"  viewBox="0 0 50 50" width="1000px" height="1000px"><path d="M 17 1 A 1.0001 1.0001 0 0 0 16 2 L 16 5.7324219 L 12.130859 12.503906 A 1.0001 1.0001 0 0 0 12.109375 12.546875 A 1.0001 1.0001 0 0 0 12.068359 12.638672 A 1.0001 1.0001 0 0 0 12.037109 12.732422 A 1.0001 1.0001 0 0 0 12.019531 12.808594 A 1.0001 1.0001 0 0 0 12.011719 12.851562 A 1.0001 1.0001 0 0 0 12.003906 12.912109 A 1.0001 1.0001 0 0 0 12.001953 12.962891 A 1.0001 1.0001 0 0 0 12 12.992188 A 1.0001 1.0001 0 0 0 12 13 L 12 21.847656 A 1.0001 1.0001 0 0 0 12 22.179688 L 12 47 A 1.0001 1.0001 0 0 0 13 48 L 30 48 L 36 48 A 1.0001 1.0001 0 0 0 37 47 L 37 13 A 1.0001 1.0001 0 0 0 36.919922 12.605469 L 34 5.7929688 L 34 2 A 1.0001 1.0001 0 0 0 33 1 L 17 1 z M 18 3 L 32 3 L 32 5 L 18 5 L 18 3 z M 17.580078 7 L 31.482422 7 L 29.339844 12 L 14.724609 12 L 17.580078 7 z M 33 8.5410156 L 35 13.205078 L 35 26.886719 C 34.049022 26.135117 32.724598 25.652726 31 25.625 L 31 13.207031 L 33 8.5410156 z M 14 14 L 29 14 L 29 25.771484 C 28.602253 25.836091 28.187902 25.921775 27.757812 26.029297 C 25.891064 26.495984 24.927487 26.385628 24.009766 25.851562 C 23.092044 25.317497 22.133313 24.17743 20.800781 22.400391 C 19.156781 20.208391 17.241922 19.471706 15.650391 19.630859 C 15.030841 19.692814 14.480024 19.86646 14 20.089844 L 14 14 z M 16.199219 21.603516 C 17.034064 21.617773 18.012719 22.017609 19.199219 23.599609 C 20.549687 25.40057 21.592378 26.758643 23.003906 27.580078 C 24.415435 28.401513 26.108936 28.504016 28.242188 27.970703 C 28.510277 27.903681 28.753699 27.858279 29 27.810547 L 29 46 L 14 46 L 14 22.455078 C 14.442709 22.098526 15.121175 21.691984 15.849609 21.619141 C 15.963168 21.607784 16.079955 21.601479 16.199219 21.603516 z M 31.109375 27.603516 C 32.406307 27.640048 33.24646 28.023979 33.8125 28.490234 C 34.718164 29.236243 35.007101 30.382686 35 30.988281 L 35 46 L 31 46 L 31 27.605469 C 31.034642 27.605943 31.075364 27.602558 31.109375 27.603516 z"/></svg>