<svg xmlns="http://www.w3.org/2000/svg"  viewBox="0 0 50 50" width="1000px" height="1000px"><path d="M 30 0 C 28.90625 0 28 0.90625 28 2 L 28 3 L 14 3 C 12.675781 3 11.476563 3.308594 10.5 4.125 C 9.523438 4.941406 8.785156 6.140625 7.84375 7.90625 C 6.914063 9.652344 5.71875 11.996094 4.75 14.28125 C 3.78125 16.566406 3 18.6875 3 20.375 C 3 23.527344 5.484375 26 8.5 26 L 32 26 L 32 33.5625 C 30.140625 35.25 28.308594 36.457031 26.8125 37.8125 C 25.230469 39.242188 24 40.988281 24 43.375 C 24 45.734375 25.121094 47.554688 26.8125 48.59375 C 28.449219 49.597656 30.542969 49.976563 32.78125 50 C 32.792969 50 32.800781 50 32.8125 50 C 32.875 50 32.9375 50 33 50 C 33.074219 50 33.144531 50 33.21875 50 C 33.230469 50 33.238281 50 33.25 50 C 35.476563 49.972656 37.558594 49.59375 39.1875 48.59375 C 40.878906 47.554688 42 45.734375 42 43.375 C 42 40.984375 40.773438 39.246094 39.1875 37.8125 C 37.6875 36.453125 35.84375 35.234375 34 33.5625 L 34 26 L 38.96875 26 C 42.472656 26 45 22.804688 45 19 C 45 16.296875 44.125 11.238281 43.53125 8.1875 C 43.203125 6.5 42.4375 5.160156 41.375 4.28125 C 40.3125 3.402344 38.980469 3 37.59375 3 L 35 3 L 35 2 C 35 0.90625 34.09375 0 33 0 Z M 30 2 L 33 2 L 33 3 L 30 3 Z M 14 5 L 37.59375 5 C 38.605469 5 39.460938 5.265625 40.125 5.8125 C 40.789063 6.359375 41.300781 7.230469 41.5625 8.5625 C 42.144531 11.554688 43 16.761719 43 19 C 43 21.960938 41.265625 24 38.96875 24 L 33.1875 24 C 33.054688 23.972656 32.914063 23.972656 32.78125 24 L 8.5 24 C 6.542969 24 5 22.515625 5 20.375 C 5 19.414063 5.660156 17.261719 6.59375 15.0625 C 7.527344 12.863281 8.679688 10.554688 9.59375 8.84375 C 10.496094 7.152344 11.179688 6.160156 11.78125 5.65625 C 12.382813 5.152344 12.929688 5 14 5 Z M 18 7 C 15.800781 7 14 8.800781 14 11 C 14 13.199219 15.800781 15 18 15 L 35 15 C 37.199219 15 39 13.199219 39 11 C 39 8.800781 37.199219 7 35 7 Z M 18 9 L 35 9 C 36.117188 9 37 9.882813 37 11 C 37 12.117188 36.117188 13 35 13 L 18 13 C 16.882813 13 16 12.117188 16 11 C 16 9.882813 16.882813 9 18 9 Z M 32 36.09375 L 32 47.96875 C 30.328125 47.863281 28.882813 47.492188 27.875 46.875 C 26.671875 46.136719 26 45.15625 26 43.375 C 26 41.621094 26.757813 40.578125 28.15625 39.3125 C 29.152344 38.410156 30.542969 37.3125 32 36.09375 Z M 34 36.125 C 35.453125 37.332031 36.84375 38.375 37.84375 39.28125 C 39.246094 40.550781 40 41.621094 40 43.375 C 40 45.15625 39.328125 46.136719 38.125 46.875 C 37.117188 47.492188 35.671875 47.863281 34 47.96875 Z"/></svg>