<svg xmlns="http://www.w3.org/2000/svg"  viewBox="0 0 46 48" width="1000px" height="1000px"><path d="M 13.986328 -0.009765625 A 1.0001 1.0001 0 0 0 13.294922 1.7089844 C 14.32832 2.7353476 15.178342 3.9249866 15.902344 5.1875 C 15.342617 6.7315635 15.009388 8.3488635 15 9.9941406 A 1.0001 1.0001 0 0 0 15.552734 10.894531 C 15.552734 10.894531 16.502206 11.369959 17.570312 12.082031 C 18.623116 12.7839 19.744355 13.772709 20.083984 14.416016 C 20.165485 15.427884 20.306391 16.395998 20.535156 17.232422 C 20.648899 17.648293 20.82422 17.992781 21.001953 18.335938 C 20.632605 17.84349 20.086762 17.150981 19.248047 16.285156 C 17.920103 14.914291 16.139051 13.377421 14.017578 12.90625 C 14.009978 12.90455 14.005657 12.906021 13.998047 12.904297 A 1.0001 1.0001 0 0 0 13.917969 12.601562 C 13.290577 11.154555 12.977427 9.590721 13 8.0136719 A 1.0001 1.0001 0 0 0 12.599609 7.1992188 L 8.5996094 4.1992188 A 1.0001 1.0001 0 0 0 7.9472656 3.9921875 A 1.0001 1.0001 0 0 0 7.4003906 5.8007812 L 11.050781 8.5390625 C 11.091481 9.9850951 11.376386 11.403312 11.882812 12.757812 C 10.298628 12.715502 8.9517074 12.911779 8.0898438 13.371094 C 6.8545936 14.029398 6.2910156 15 6.2910156 15 A 1.0001 1.0001 0 0 0 6.7382812 16.384766 L 18.902344 22.160156 A 1.0001 1.0001 0 0 0 18.966797 22.1875 C 18.008934 22.379621 17.081796 22.715938 16.302734 23.105469 C 15.243106 23.635283 14.445313 24.167969 14.445312 24.167969 A 1.0001 1.0001 0 0 0 14.105469 25.447266 L 15.861328 28.958984 C 15.827438 28.998394 15.845669 28.990279 15.792969 29.042969 C 15.41082 29.425118 14.493106 30.135283 12.552734 31.105469 A 1.0001163 1.0001163 0 1 0 13.447266 32.894531 C 15.506894 31.864717 16.58918 31.074882 17.207031 30.457031 C 17.515957 30.148106 17.709903 29.879023 17.832031 29.634766 C 17.893091 29.512637 17.936056 29.396403 17.962891 29.289062 C 17.98973 29.181733 18 29 18 29 A 1.0001 1.0001 0 0 0 17.894531 28.552734 L 16.316406 25.396484 C 16.612124 25.217598 16.693172 25.146578 17.197266 24.894531 C 17.950216 24.518056 18.853552 24.181991 19.53125 24.058594 C 19.663568 24.293518 19.817269 24.518793 20.001953 24.726562 C 20.185082 24.932582 20.398654 25.115831 20.632812 25.279297 C 20.250728 25.550653 20 25.99364 20 26.5 C 20 27.331 20.669 28 21.5 28 L 22 28 L 22 32 A 1.0001 1.0001 0 1 0 24 32 L 24 28 L 24.5 28 C 25.331 28 26 27.331 26 26.5 C 26 25.99364 25.749272 25.550653 25.367188 25.279297 C 25.601346 25.115831 25.814918 24.932582 25.998047 24.726562 C 26.182731 24.518793 26.336432 24.293518 26.46875 24.058594 C 27.146448 24.181991 28.049784 24.518056 28.802734 24.894531 C 29.306828 25.146578 29.387876 25.217598 29.683594 25.396484 L 28.105469 28.552734 A 1.0001 1.0001 0 0 0 28 29 C 28 29 28.010269 29.181724 28.037109 29.289062 C 28.063939 29.396403 28.106909 29.512637 28.167969 29.634766 C 28.290097 29.879023 28.484043 30.148106 28.792969 30.457031 C 29.41082 31.074882 30.493106 31.864717 32.552734 32.894531 A 1.0001163 1.0001163 0 1 0 33.447266 31.105469 C 31.506894 30.135283 30.58918 29.425118 30.207031 29.042969 C 30.154331 28.990269 30.172562 28.998394 30.138672 28.958984 L 31.894531 25.447266 A 1.0001 1.0001 0 0 0 31.554688 24.167969 C 31.554688 24.167969 30.756894 23.635283 29.697266 23.105469 C 28.903047 22.708356 27.970515 22.284575 26.992188 22.097656 C 26.992905 22.065062 27 22.032573 27 22 C 27 21.987597 26.996198 21.975298 26.996094 21.962891 L 39.279297 16.626953 A 1.0001 1.0001 0 0 0 39.771484 15.257812 C 39.771484 15.257812 39.239558 14.269621 38.027344 13.570312 C 37.153008 13.065922 35.75856 12.822661 34.09375 12.837891 C 34.618874 11.460216 34.907728 10.012994 34.949219 8.5390625 L 38.599609 5.8007812 A 1.0001 1.0001 0 0 0 38.023438 3.9921875 A 1.0001 1.0001 0 0 0 37.400391 4.1992188 L 33.400391 7.1992188 A 1.0001 1.0001 0 0 0 33 8.0136719 C 33.02257 9.590721 32.709425 11.154507 32.082031 12.601562 A 1.0001 1.0001 0 0 0 31.996094 12.960938 C 29.91866 13.397751 28.125923 14.813948 26.783203 16.111328 C 26.173064 16.700867 25.675335 17.257798 25.287109 17.712891 C 25.351521 17.55836 25.417264 17.406384 25.464844 17.232422 C 25.693609 16.395998 25.834515 15.427884 25.916016 14.416016 C 26.255645 13.772709 27.376884 12.7839 28.429688 12.082031 C 29.497795 11.369959 30.447266 10.894531 30.447266 10.894531 A 1.0001 1.0001 0 0 0 31 9.9941406 C 30.990612 8.3488635 30.657383 6.7315635 30.097656 5.1875 C 30.821658 3.9249866 31.67168 2.7353476 32.705078 1.7089844 A 1.0001 1.0001 0 0 0 31.984375 -0.009765625 A 1.0001 1.0001 0 0 0 31.294922 0.29101562 C 30.037274 1.5401019 28.968075 2.9643983 28.121094 4.5214844 A 1.0001 1.0001 0 0 0 28.074219 5.3789062 C 28.609208 6.6838023 28.828204 8.084176 28.896484 9.4902344 C 28.51659 9.6919376 28.155017 9.8614986 27.320312 10.417969 C 26.878519 10.712498 26.418307 11.046759 25.972656 11.40625 C 25.915336 10.094215 25.755274 8.8294655 25.464844 7.7675781 C 25.279529 7.0900215 25.050777 6.4906258 24.693359 5.9824219 C 24.335941 5.4742179 23.739583 5 23 5 C 22.260417 5 21.664059 5.4742179 21.306641 5.9824219 C 20.949223 6.4906258 20.720471 7.0900215 20.535156 7.7675781 C 20.244726 8.8294655 20.084664 10.094215 20.027344 11.40625 C 19.581693 11.046759 19.121481 10.712498 18.679688 10.417969 C 17.844983 9.8614986 17.48341 9.6919376 17.103516 9.4902344 C 17.171796 8.084176 17.390792 6.6838024 17.925781 5.3789062 A 1.0001 1.0001 0 0 0 17.878906 4.5214844 C 17.031925 2.9643983 15.962726 1.5401019 14.705078 0.29101562 A 1.0001 1.0001 0 0 0 13.986328 -0.009765625 z M 23 7.0605469 C 23.017716 7.0826135 23.019602 7.0821004 23.056641 7.1347656 C 23.199222 7.3374992 23.387138 7.7537285 23.535156 8.2949219 C 23.831195 9.3773087 24 10.943376 24 12.5 C 24 14.056624 23.831194 15.622691 23.535156 16.705078 C 23.387138 17.246272 23.199222 17.662501 23.056641 17.865234 C 23.019601 17.9179 23.017716 17.917386 23 17.939453 C 22.982284 17.917386 22.980398 17.9179 22.943359 17.865234 C 22.800777 17.662501 22.612862 17.246272 22.464844 16.705078 C 22.168806 15.622691 22 14.056624 22 12.5 C 22 10.943376 22.168806 9.3773087 22.464844 8.2949219 C 22.612862 7.7537285 22.800778 7.3374992 22.943359 7.1347656 C 22.980399 7.0821004 22.982284 7.0826135 23 7.0605469 z M 11.308594 14.603516 C 11.941033 14.590993 12.692156 14.659334 13.583984 14.857422 C 14.983512 15.168251 16.611194 16.4376 17.8125 17.677734 C 18.747529 18.642985 19.098044 19.177347 19.353516 19.53125 L 19.011719 19.998047 L 8.9375 15.214844 C 9.002611 15.175274 8.95553 15.177079 9.03125 15.136719 C 9.430875 14.923746 9.9739367 14.723077 10.714844 14.640625 C 10.90007 14.620012 11.097781 14.60769 11.308594 14.603516 z M 34.099609 14.6875 C 34.576163 14.671368 34.994649 14.696416 35.363281 14.75 C 36.100547 14.857168 36.637154 15.076513 37.029297 15.302734 C 37.104277 15.345994 37.056864 15.342676 37.121094 15.384766 L 26.896484 19.826172 L 26.570312 19.349609 C 26.837525 19.004075 27.206271 18.48378 28.171875 17.550781 C 29.412679 16.351876 31.080844 15.138017 32.490234 14.873047 C 33.088435 14.760942 33.623056 14.703632 34.099609 14.6875 z M 23 20 C 23.749999 20 24.185226 20.245244 24.501953 20.601562 C 24.81868 20.957881 25 21.472222 25 22 C 25 22.527778 24.81868 23.042118 24.501953 23.398438 C 24.200202 23.737907 23.782297 23.970378 23.095703 23.992188 A 1.0001 1.0001 0 0 0 22.984375 23.986328 A 1.0001 1.0001 0 0 0 22.898438 23.992188 C 22.215582 23.96914 21.798887 23.736883 21.498047 23.398438 C 21.18132 23.042119 21 22.527778 21 22 C 21 21.472222 21.18132 20.957882 21.498047 20.601562 C 21.814774 20.245244 22.250001 20 23 20 z M 0.984375 34.986328 A 1.0001 1.0001 0 0 0 0.79101562 35.009766 A 1.0001 1.0001 0 0 0 0.69335938 35.035156 A 1.0001 1.0001 0 0 0 0.640625 35.052734 A 1.0001 1.0001 0 0 0 0.59960938 35.068359 A 1.0001 1.0001 0 0 0 0.59765625 35.070312 A 1.0001 1.0001 0 0 0 0.50976562 35.113281 A 1.0001 1.0001 0 0 0 0.5078125 35.115234 A 1.0001 1.0001 0 0 0 0.076171875 35.585938 A 1.0001 1.0001 0 0 0 0.025390625 35.722656 A 1.0001 1.0001 0 0 0 0 36.158203 L 0 42.853516 A 1.0001 1.0001 0 0 0 0 43.130859 L 0 44.873047 A 1.0001 1.0001 0 0 0 0 45.146484 L 0 47 A 1.0001 1.0001 0 1 0 2 47 L 2 45.414062 L 4.2929688 47.707031 A 1.0001 1.0001 0 0 0 5.5 47.880859 A 1.0001 1.0001 0 0 0 6.7070312 47.707031 L 9 45.414062 L 11.292969 47.707031 A 1.0001 1.0001 0 0 0 12.5 47.880859 A 1.0001 1.0001 0 0 0 13.707031 47.707031 L 16 45.414062 L 18.292969 47.707031 A 1.0001 1.0001 0 0 0 19.5 47.880859 A 1.0001 1.0001 0 0 0 20.707031 47.707031 L 23 45.414062 L 25.292969 47.707031 A 1.0001 1.0001 0 0 0 26.5 47.880859 A 1.0001 1.0001 0 0 0 27.707031 47.707031 L 30 45.414062 L 32.292969 47.707031 A 1.0001 1.0001 0 0 0 33.5 47.880859 A 1.0001 1.0001 0 0 0 34.707031 47.707031 L 37 45.414062 L 39.292969 47.707031 A 1.0001 1.0001 0 0 0 40.5 47.880859 A 1.0001 1.0001 0 0 0 41.707031 47.707031 L 44 45.414062 L 44 47 A 1.0001 1.0001 0 1 0 46 47 L 46 45.146484 A 1.0001 1.0001 0 0 0 46 44.869141 L 46 43.126953 A 1.0001 1.0001 0 0 0 46 42.853516 L 46 36.167969 A 1.0001 1.0001 0 0 0 45.990234 35.791016 A 1.0001 1.0001 0 0 0 45.990234 35.787109 A 1.0001 1.0001 0 0 0 45.964844 35.693359 A 1.0001 1.0001 0 0 0 45.947266 35.640625 A 1.0001 1.0001 0 0 0 45.931641 35.599609 A 1.0001 1.0001 0 0 0 45.929688 35.597656 A 1.0001 1.0001 0 0 0 45.886719 35.509766 A 1.0001 1.0001 0 0 0 45.884766 35.507812 A 1.0001 1.0001 0 0 0 45.414062 35.076172 A 1.0001 1.0001 0 0 0 45.277344 35.025391 A 1.0001 1.0001 0 0 0 44.841797 35 L 1.1679688 35 A 1.0001 1.0001 0 0 0 0.984375 34.986328 z M 3.4140625 37 L 7.5859375 37 L 5.5 39.085938 L 3.4140625 37 z M 10.414062 37 L 14.585938 37 L 12.5 39.085938 L 10.414062 37 z M 17.414062 37 L 21.585938 37 L 19.5 39.085938 L 17.414062 37 z M 24.414062 37 L 28.585938 37 L 26.5 39.085938 L 24.414062 37 z M 31.414062 37 L 35.585938 37 L 33.5 39.085938 L 31.414062 37 z M 38.414062 37 L 42.585938 37 L 40.5 39.085938 L 38.414062 37 z M 2 38.414062 L 4.0859375 40.5 L 2 42.585938 L 2 38.414062 z M 9 38.414062 L 11.085938 40.5 L 9 42.585938 L 6.9140625 40.5 L 9 38.414062 z M 16 38.414062 L 18.085938 40.5 L 16 42.585938 L 13.914062 40.5 L 16 38.414062 z M 23 38.414062 L 25.085938 40.5 L 23 42.585938 L 20.914062 40.5 L 23 38.414062 z M 30 38.414062 L 32.085938 40.5 L 30 42.585938 L 27.914062 40.5 L 30 38.414062 z M 37 38.414062 L 39.085938 40.5 L 37 42.585938 L 34.914062 40.5 L 37 38.414062 z M 44 38.414062 L 44 42.585938 L 41.914062 40.5 L 44 38.414062 z M 5.5 41.914062 L 7.5859375 44 L 5.5 46.085938 L 3.4140625 44 L 5.5 41.914062 z M 12.5 41.914062 L 14.585938 44 L 12.5 46.085938 L 10.414062 44 L 12.5 41.914062 z M 19.5 41.914062 L 21.585938 44 L 19.5 46.085938 L 17.414062 44 L 19.5 41.914062 z M 26.5 41.914062 L 28.585938 44 L 26.5 46.085938 L 24.414062 44 L 26.5 41.914062 z M 33.5 41.914062 L 35.585938 44 L 33.5 46.085938 L 31.414062 44 L 33.5 41.914062 z M 40.5 41.914062 L 42.585938 44 L 40.5 46.085938 L 38.414062 44 L 40.5 41.914062 z"/></svg>