<svg xmlns="http://www.w3.org/2000/svg"  viewBox="0 0 50 50" width="1000px" height="1000px"><path d="M 6.84375 0 C 5.296875 0 4 1.292969 4 2.84375 L 4 47.15625 C 4 48.707031 5.296875 50 6.84375 50 L 43.15625 50 C 44.707031 50 46 48.707031 46 47.15625 L 46 2.84375 C 46 1.292969 44.703125 0 43.15625 0 Z M 6.84375 2 L 43.15625 2 C 43.632813 2 44 2.367188 44 2.84375 L 44 47.15625 C 44 47.632813 43.632813 48 43.15625 48 L 6.84375 48 C 6.367188 48 6 47.632813 6 47.15625 L 6 2.84375 C 6 2.367188 6.367188 2 6.84375 2 Z M 10.84375 4 C 9.296875 4 8 5.292969 8 6.84375 L 8 26 C 8 26.550781 8.449219 27 9 27 C 9.550781 27 10 26.550781 10 26 L 10 6.84375 C 10 6.367188 10.367188 6 10.84375 6 L 24 6 L 24 8 C 24 8.550781 24.449219 9 25 9 C 25.550781 9 26 8.550781 26 8 L 26 6 L 39.15625 6 C 39.632813 6 40 6.367188 40 6.84375 L 40 26 C 40 26.550781 40.449219 27 41 27 C 41.550781 27 42 26.550781 42 26 L 42 6.84375 C 42 5.292969 40.707031 4 39.15625 4 Z M 13.875 20 C 13.507813 20.042969 13.195313 20.28125 13.0625 20.625 L 11.0625 25.625 C 10.855469 26.144531 11.105469 26.730469 11.625 26.9375 C 12.144531 27.144531 12.730469 26.894531 12.9375 26.375 L 14.9375 21.375 C 15.082031 21.042969 15.03125 20.660156 14.8125 20.375 C 14.589844 20.089844 14.230469 19.945313 13.875 20 Z M 17.875 20 C 17.507813 20.042969 17.195313 20.28125 17.0625 20.625 L 15.0625 25.625 C 14.855469 26.144531 15.105469 26.730469 15.625 26.9375 C 16.144531 27.144531 16.730469 26.894531 16.9375 26.375 L 18.9375 21.375 C 19.082031 21.042969 19.03125 20.660156 18.8125 20.375 C 18.589844 20.089844 18.230469 19.945313 17.875 20 Z M 21.875 20 C 21.507813 20.042969 21.195313 20.28125 21.0625 20.625 L 19.0625 25.625 C 18.855469 26.144531 19.105469 26.730469 19.625 26.9375 C 20.144531 27.144531 20.730469 26.894531 20.9375 26.375 L 22.9375 21.375 C 23.082031 21.042969 23.03125 20.660156 22.8125 20.375 C 22.589844 20.089844 22.230469 19.945313 21.875 20 Z M 25.875 20 C 25.507813 20.042969 25.195313 20.28125 25.0625 20.625 L 23.0625 25.625 C 22.855469 26.144531 23.105469 26.730469 23.625 26.9375 C 24.144531 27.144531 24.730469 26.894531 24.9375 26.375 L 26.9375 21.375 C 27.082031 21.042969 27.03125 20.660156 26.8125 20.375 C 26.589844 20.089844 26.230469 19.945313 25.875 20 Z M 29.875 20 C 29.507813 20.042969 29.195313 20.28125 29.0625 20.625 L 27.0625 25.625 C 26.855469 26.144531 27.105469 26.730469 27.625 26.9375 C 28.144531 27.144531 28.730469 26.894531 28.9375 26.375 L 30.9375 21.375 C 31.082031 21.042969 31.03125 20.660156 30.8125 20.375 C 30.589844 20.089844 30.230469 19.945313 29.875 20 Z M 33.875 20 C 33.507813 20.042969 33.195313 20.28125 33.0625 20.625 L 31.0625 25.625 C 30.855469 26.144531 31.105469 26.730469 31.625 26.9375 C 32.144531 27.144531 32.730469 26.894531 32.9375 26.375 L 34.9375 21.375 C 35.082031 21.042969 35.03125 20.660156 34.8125 20.375 C 34.589844 20.089844 34.230469 19.945313 33.875 20 Z M 37.875 20 C 37.507813 20.042969 37.195313 20.28125 37.0625 20.625 L 35.0625 25.625 C 34.855469 26.144531 35.105469 26.730469 35.625 26.9375 C 36.144531 27.144531 36.730469 26.894531 36.9375 26.375 L 38.9375 21.375 C 39.082031 21.042969 39.03125 20.660156 38.8125 20.375 C 38.589844 20.089844 38.230469 19.945313 37.875 20 Z M 16 30 L 16 45 L 34 45 L 34 30 Z M 18 32 L 32 32 L 32 36.0625 C 30.859375 36.296875 30 37.292969 30 38.5 C 30 39.707031 30.859375 40.703125 32 40.9375 L 32 43 L 18 43 Z M 24 33 C 22.34375 33 21 34.34375 21 36 C 21 37.65625 22.34375 39 24 39 C 25.65625 39 27 37.65625 27 36 C 27 34.34375 25.65625 33 24 33 Z M 20.5 39 C 19.671875 39 19 39.671875 19 40.5 C 19 41.328125 19.671875 42 20.5 42 C 21.328125 42 22 41.328125 22 40.5 C 22 39.671875 21.328125 39 20.5 39 Z"/></svg>