<?xml version="1.0" encoding="UTF-8" standalone="no"?>
<svg
   viewBox="0 0 48 48"
   width="1000"
   height="1000"
   version="1.1"
   id="svg1"
   xmlns="http://www.w3.org/2000/svg"
   xmlns:svg="http://www.w3.org/2000/svg">
  <defs
     id="defs1" />
  <path
     id="path1"
     d="m 21.035156,9.5390625 c -9.125168,0 -16.5390622,7.3884305 -16.5390623,16.4785155 0,2.329909 0.4785521,4.578098 1.421875,6.6875 1.0198852,2.280231 3.3016046,3.75586 5.8164063,3.755859 h 6.699219 c -0.263785,-0.631198 -0.50098,-1.26832 -0.660157,-1.921875 h -6.039062 c -1.7544916,0 -3.3501087,-1.025663 -4.0625,-2.61914 C 6.8402067,30.060349 6.4179687,28.0714 6.4179687,26.017578 c 0,-8.023137 6.5625693,-14.55664 14.6171873,-14.55664 5.036191,0 9.46049,2.574515 12.089844,6.449218 0.859679,0.05864 1.67254,0.253234 2.486328,0.44336 -2.7764,-5.22051 -8.240977,-8.8144535 -14.576172,-8.8144535 z M 32.046875,20.904297 c -6.353423,0 -11.623047,4.690992 -11.623047,10.582031 0,1.546146 0.367813,3.021206 1.021484,4.341797 0.80347,1.622197 2.500358,2.632812 4.34961,2.632812 h 12.501953 c 1.849344,0 3.543376,-1.009593 4.347656,-2.630859 a 0.54005492,0.54005492 0 0 1 0.002,-0.002 v -0.002 c 0.653164,-1.320173 1.021485,-2.794338 1.021485,-4.339844 0,-5.890288 -5.267541,-10.582031 -11.621094,-10.582031 z m 0,1.921875 c 5.416179,0 9.699219,3.919116 9.699219,8.660156 0,1.24212 -0.291366,2.420957 -0.820313,3.490234 -0.465728,0.938813 -1.48065,1.5625 -2.628906,1.5625 H 25.794922 c -1.147881,0 -2.163619,-0.6228 -2.628906,-1.560546 a 0.54005492,0.54005492 0 0 1 0,-0.002 l -0.002,-0.0039 c -0.527733,-1.068244 -0.818359,-2.245714 -0.818359,-3.486328 0,-4.742268 4.284914,-8.660156 9.701172,-8.660156 z" />
</svg>
