<svg xmlns="http://www.w3.org/2000/svg"  viewBox="0 0 48 48" width="1000px" height="1000px"><path d="M 21.035156 9 C 11.618156 9 3.9570312 16.633578 3.9570312 26.017578 C 3.9570312 28.421578 4.4517813 30.747781 5.4257812 32.925781 C 6.5327813 35.400781 9.008375 37 11.734375 37 L 19.195312 37 C 19.188312 36.985 19.177922 36.972031 19.169922 36.957031 C 18.698922 36.005031 18.36825 35.014 18.15625 34 L 11.734375 34 C 10.190375 34 8.7890625 33.097219 8.1640625 31.699219 C 7.3630625 29.908219 6.9570312 27.997578 6.9570312 26.017578 C 6.9570312 18.288578 13.272156 12 21.035156 12 C 25.978156 12 30.326844 14.554344 32.839844 18.402344 C 34.153844 18.470344 35.418281 18.699125 36.613281 19.078125 C 33.941281 13.147125 27.970156 9 21.035156 9 z M 32.046875 20.365234 C 25.426511 20.365234 19.884766 25.274135 19.884766 31.486328 C 19.884766 33.117887 20.271859 34.676235 20.960938 36.068359 C 21.858946 37.881427 23.748858 39 25.794922 39 L 38.296875 39 C 40.342939 39 42.230185 37.881952 43.128906 36.070312 L 43.130859 36.068359 C 43.819938 34.676235 44.207031 33.117887 44.207031 31.486328 C 44.207031 25.274966 38.667408 20.365234 32.046875 20.365234 z M 32.046875 23.365234 C 37.204342 23.365234 41.207031 27.071691 41.207031 31.486328 C 41.207031 32.64411 40.935792 33.736917 40.441406 34.736328 C 40.074127 35.476688 39.246811 36 38.296875 36 L 25.794922 36 C 24.845528 36 24.016701 35.476546 23.650391 34.738281 L 23.650391 34.736328 C 23.156005 33.736917 22.884766 32.64411 22.884766 31.486328 C 22.884766 27.070522 26.889239 23.365234 32.046875 23.365234 z"/></svg>