<svg fill="#000000" xmlns="http://www.w3.org/2000/svg"  viewBox="0 0 50 50" width="1000px" height="1000px"><path d="M 26.78125 3 C 26 3.007813 25.214844 3.050781 24.40625 3.125 C 17.910156 3.722656 12.582031 6.734375 8.875 10.3125 C 5.167969 13.890625 3 17.929688 3 21.125 C 3 22.871094 3.765625 24.34375 5.03125 25.25 C 6.296875 26.15625 7.949219 26.585938 9.90625 26.8125 C 12.742188 27.136719 16.257813 27.019531 20.1875 26.78125 C 19.851563 31.367188 18.757813 38.679688 15.65625 43.34375 C 15.117188 44.152344 14.792969 44.941406 15.09375 45.78125 C 15.242188 46.199219 15.601563 46.5625 15.96875 46.75 C 16.335938 46.9375 16.707031 47 17.09375 47 L 31.65625 47 C 32.230469 47 32.824219 46.871094 33.25 46.46875 C 33.675781 46.066406 33.824219 45.585938 33.9375 45.15625 C 34.007813 44.898438 34.660156 42.640625 34.90625 39.125 C 35.140625 35.773438 35.03125 31.160156 33.84375 25.59375 C 36.628906 25.1875 38.996094 24.664063 40.9375 23.9375 C 42.820313 23.230469 44.320313 22.328125 45.375 21.125 C 46.429688 19.921875 47 18.382813 47 16.6875 C 47 13.433594 44.5 9.871094 40.5 7.125 C 37.5 5.066406 33.59375 3.496094 29.09375 3.09375 C 28.34375 3.027344 27.5625 2.992188 26.78125 3 Z M 26.8125 5 C 31.867188 5 36.195313 6.601563 39.375 8.78125 C 43.007813 11.273438 45 14.550781 45 16.6875 C 45 17.972656 44.628906 18.953125 43.875 19.8125 C 43.121094 20.671875 41.9375 21.429688 40.25 22.0625 C 36.875 23.324219 31.625 24.03125 24.71875 24.46875 C 18.890625 24.839844 13.6875 25.222656 10.125 24.8125 C 8.34375 24.609375 7 24.207031 6.1875 23.625 C 5.375 23.042969 5 22.359375 5 21.125 C 5 18.921875 6.828125 15.050781 10.25 11.75 C 13.671875 8.449219 18.613281 5.644531 24.59375 5.09375 C 25.34375 5.023438 26.089844 5 26.8125 5 Z M 31.84375 25.875 C 33.011719 31.304688 33.128906 35.789063 32.90625 39 C 32.671875 42.34375 32.113281 44.226563 32 44.65625 C 31.914063 44.980469 31.832031 45.039063 31.875 45 C 31.847656 45.003906 31.792969 45 31.65625 45 L 17.09375 45 C 17.070313 45 17.082031 45 17.0625 45 C 17.078125 44.988281 17.015625 44.882813 17.3125 44.4375 C 20.878906 39.074219 21.902344 31.371094 22.21875 26.65625 C 23.085938 26.601563 23.945313 26.527344 24.84375 26.46875 C 27.398438 26.308594 29.722656 26.125 31.84375 25.875 Z"/></svg>