<svg xmlns="http://www.w3.org/2000/svg"  viewBox="0 0 50 50" width="1000px" height="1000px"><path d="M 24 2 C 23.492188 2 23.0625 2.382813 23.003906 2.890625 L 22.105469 11 L 20 11 C 19.417969 11 18.949219 11.261719 18.605469 11.605469 C 18.261719 11.949219 18 12.417969 18 13 L 18 15.144531 C 16.292969 15.601563 15 17.164063 15 19 L 15 45 C 15 46.644531 16.355469 48 18 48 L 32 48 C 33.644531 48 35 46.644531 35 45 L 35 19 C 35 17.191406 33.746094 15.597656 32 15.140625 L 32 13 C 32 12.417969 31.738281 11.949219 31.394531 11.605469 C 31.050781 11.261719 30.582031 11 30 11 L 27.894531 11 L 26.996094 2.890625 C 26.9375 2.382813 26.507813 2 26 2 Z M 24.894531 4 L 25.105469 4 L 26.003906 12.109375 C 26.0625 12.617188 26.492188 13 27 13 L 30 13 L 30 15 L 20 15 L 20 13 L 23 13 C 23.507813 13 23.9375 12.617188 23.996094 12.109375 Z M 19 17 L 31 17 C 32.152344 17 33 17.941406 33 19 L 33 45 C 33 45.554688 32.554688 46 32 46 L 18 46 C 17.445313 46 17 45.554688 17 45 L 17 19 C 17 17.984375 17.984375 17 19 17 Z"/></svg>