<svg xmlns="http://www.w3.org/2000/svg"  viewBox="0 0 50 50" width="1000px" height="1000px"><path d="M 25.097656 2 C 19.676012 2 15.744852 3.7608791 11.787109 6.5859375 C 8.8269484 8.6988977 5.1571667 11.4595 3.3769531 14.947266 C 1.6830587 18.261405 2.1113281 22.720287 2.1113281 26.099609 C 2.1113281 28.863969 2.323012 31.585816 3.3378906 34.166016 C 5.4763312 39.609414 9.0140618 42.093421 14.248047 44.601562 C 17.36287 46.093813 21.032105 48 25.095703 48 C 32.874561 48 39.241212 41.996362 43.253906 36.597656 L 43.253906 36.595703 C 46.270692 32.539823 48.080078 29.363865 48.080078 23.900391 C 48.080078 18.156996 45.578111 13.960688 42.039062 10.03125 C 39.310541 7.0039509 36.929244 4.488334 32.630859 3.1425781 L 32.630859 3.140625 C 30.258599 2.3998798 27.727186 2 25.097656 2 z M 25.097656 4 C 27.524127 4 29.853416 4.3695265 32.035156 5.0507812 C 35.868772 6.2510255 37.839257 8.3584863 40.552734 11.369141 C 43.939686 15.129703 46.080078 18.723785 46.080078 23.900391 C 46.080078 28.948248 44.606986 31.424936 41.648438 35.402344 L 41.648438 35.404297 C 37.823082 40.551251 31.8223 46 25.095703 46 C 21.673302 46 18.258505 44.306578 15.111328 42.798828 C 10.007313 40.352969 7.1487781 38.396195 5.1992188 33.433594 C 4.3260974 31.213794 4.1113281 28.759249 4.1113281 26.099609 C 4.1113281 22.593486 3.8870714 18.341161 5.1582031 15.855469 C 6.6119895 13.007234 10.03938 10.291884 12.949219 8.2148438 C 16.727477 5.5179021 20.095301 4 25.097656 4 z M 18 10 C 17.448 10 17 10.483078 17 11.080078 C 17 11.677078 18 13 18 13 C 18 13 19 11.677078 19 11.080078 C 19 10.483078 18.552 10 18 10 z M 27.080078 10 C 26.483078 10 26 10.448 26 11 C 26 11.552 26.483078 12 27.080078 12 C 27.677078 12 29 11 29 11 C 29 11 27.677078 10 27.080078 10 z M 34.919922 14 C 34.322922 14 33 15 33 15 C 33 15 34.322922 16 34.919922 16 C 35.516922 16 36 15.552 36 15 C 36 14.448 35.516922 14 34.919922 14 z M 11 17 C 10.448 17 10 17.483078 10 18.080078 C 10 18.677078 11 20 11 20 C 11 20 12 18.677078 12 18.080078 C 12 17.483078 11.552 17 11 17 z M 19 18 C 19 18 18 19.322922 18 19.919922 C 18 20.516922 18.448 21 19 21 C 19.552 21 20 20.516922 20 19.919922 C 20 19.322922 19 18 19 18 z M 28 18.224609 C 28 18.224609 27 19.448 27 20 C 27 20.552 27.448 21 28 21 C 28.552 21 29 20.552 29 20 C 29 19.448 28 18.224609 28 18.224609 z M 37 21 C 37 21 36 22.322922 36 22.919922 C 36 23.516922 36.448 24 37 24 C 37.552 24 38 23.516922 38 22.919922 C 38 22.322922 37 21 37 21 z M 10.080078 26 C 9.4830781 26 9 26.448 9 27 C 9 27.552 9.4830781 28 10.080078 28 C 10.677078 28 12 27 12 27 C 12 27 10.677078 26 10.080078 26 z M 21 27 C 21 27 20 28.322922 20 28.919922 C 20 29.516922 20.448 30 21 30 C 21.552 30 22 29.516922 22 28.919922 C 22 28.322922 21 27 21 27 z M 30.919922 27 C 30.322922 27 29 28 29 28 C 29 28 30.322922 29 30.919922 29 C 31.516922 29 32 28.552 32 28 C 32 27.448 31.516922 27 30.919922 27 z M 39.919922 29 C 39.322922 29 38 30 38 30 C 38 30 39.322922 31 39.919922 31 C 40.516922 31 41 30.552 41 30 C 41 29.448 40.516922 29 39.919922 29 z M 15.919922 33 C 15.322922 33 14 34 14 34 C 14 34 15.322922 35 15.919922 35 C 16.516922 35 17 34.552 17 34 C 17 33.448 16.516922 33 15.919922 33 z M 31.080078 35 C 30.483078 35 30 35.448 30 36 C 30 36.552 30.483078 37 31.080078 37 C 31.677078 37 33 36 33 36 C 33 36 31.677078 35 31.080078 35 z M 23 37 C 23 37 22 38.322922 22 38.919922 C 22 39.516922 22.448 40 23 40 C 23.552 40 24 39.516922 24 38.919922 C 24 38.322922 23 37 23 37 z"/></svg>