<svg xmlns="http://www.w3.org/2000/svg"  viewBox="0 0 50 50" width="1000px" height="1000px"><path d="M 19 2 C 18.355469 2.023438 17.746094 2.222656 17.3125 2.71875 C 16.738281 3.382813 16.714844 4.273438 16.9375 5.125 C 17.609375 7.71875 18.664063 11.582031 19.78125 14.8125 C 14.972656 15.527344 8.953125 16.921875 3.4375 19.59375 C 2.933594 19.839844 2.449219 20.210938 2.1875 20.78125 C 1.925781 21.351563 1.945313 22.0625 2.1875 22.6875 C 4.082031 27.601563 7.757813 33.402344 11.09375 38.15625 C 12.761719 40.53125 14.359375 42.644531 15.59375 44.21875 C 16.210938 45.007813 16.714844 45.664063 17.125 46.15625 C 17.535156 46.648438 17.796875 46.9375 18.03125 47.15625 C 18.664063 47.753906 19.457031 48.164063 20.3125 47.96875 C 21.167969 47.773438 21.707031 47.039063 22.03125 46.21875 C 23.644531 42.121094 25.234375 37.394531 26.59375 32.96875 C 26.617188 33.03125 26.636719 33.109375 26.65625 33.15625 C 26.671875 33.195313 26.675781 33.226563 26.6875 33.25 C 26.691406 33.261719 26.683594 33.269531 26.6875 33.28125 C 26.691406 33.292969 26.683594 33.25 26.75 33.375 C 27.253906 34.285156 27.957031 34.882813 28.75 35.09375 C 29.542969 35.304688 30.351563 35.109375 30.9375 34.6875 C 33.066406 33.160156 42.378906 25.601563 47.65625 15.71875 C 47.921875 15.222656 48.09375 14.648438 47.96875 14.03125 C 47.84375 13.414063 47.40625 12.863281 46.84375 12.5 C 42.421875 9.640625 36.023438 7.097656 30.53125 5.21875 C 27.785156 4.277344 25.265625 3.515625 23.34375 2.96875 C 22.382813 2.695313 21.589844 2.46875 20.96875 2.3125 C 20.347656 2.15625 19.972656 2.070313 19.65625 2.03125 C 19.441406 2.003906 19.214844 1.992188 19 2 Z M 19.09375 3.96875 C 19.175781 3.964844 19.28125 3.984375 19.40625 4 C 19.429688 4.003906 19.875 4.097656 20.46875 4.25 C 21.0625 4.402344 21.867188 4.605469 22.8125 4.875 C 24.703125 5.414063 27.195313 6.199219 29.90625 7.125 C 35.324219 8.980469 41.617188 11.515625 45.75 14.1875 C 45.972656 14.332031 45.992188 14.363281 46 14.40625 C 46.007813 14.449219 46.015625 14.574219 45.90625 14.78125 C 40.894531 24.164063 31.589844 31.765625 29.78125 33.0625 C 29.628906 33.171875 29.464844 33.207031 29.28125 33.15625 C 29.105469 33.109375 28.828125 32.945313 28.53125 32.4375 C 28.519531 32.414063 28.511719 32.429688 28.5 32.40625 C 28.496094 32.394531 28.507813 32.390625 28.5 32.375 C 28.46875 32.300781 28.425781 32.1875 28.375 32.0625 C 28.269531 31.8125 28.105469 31.484375 27.96875 31.15625 C 27.714844 30.542969 27.5 30.019531 27.46875 29.9375 C 27.609375 29.460938 27.773438 28.960938 27.90625 28.5 C 28.703125 25.734375 29.390625 23.238281 29.875 21.34375 C 30.359375 19.449219 30.640625 18.25 30.71875 17.625 C 30.847656 16.589844 30.640625 15.671875 30.125 15.03125 C 29.609375 14.390625 28.847656 14.097656 28.125 14.09375 C 27.140625 14.085938 24.835938 14.164063 21.8125 14.53125 C 20.691406 11.355469 19.570313 7.308594 18.875 4.625 C 18.742188 4.113281 18.835938 4.003906 18.8125 4.03125 C 18.792969 4.050781 18.851563 3.976563 19.09375 3.96875 Z M 23.375 8.3125 C 23.296875 8.304688 23.203125 8.320313 23.125 8.34375 C 22.8125 8.4375 22.65625 8.78125 22.75 9.09375 C 22.84375 9.40625 23.15625 9.5625 23.46875 9.46875 C 23.78125 9.375 23.96875 9.0625 23.875 8.75 C 23.804688 8.515625 23.605469 8.335938 23.375 8.3125 Z M 32.15625 11.09375 C 32.050781 11.082031 31.921875 11.09375 31.8125 11.125 C 31.375 11.257813 31.148438 11.71875 31.28125 12.15625 C 31.414063 12.59375 31.875 12.820313 32.3125 12.6875 C 32.75 12.554688 32.976563 12.09375 32.84375 11.65625 C 32.746094 11.328125 32.476563 11.128906 32.15625 11.09375 Z M 39.78125 14.53125 C 39.71875 14.523438 39.65625 14.542969 39.59375 14.5625 C 39.34375 14.636719 39.175781 14.90625 39.25 15.15625 C 39.324219 15.40625 39.59375 15.542969 39.84375 15.46875 C 40.09375 15.394531 40.230469 15.125 40.15625 14.875 C 40.097656 14.6875 39.964844 14.550781 39.78125 14.53125 Z M 28.09375 16.09375 C 28.28125 16.09375 28.441406 16.164063 28.5625 16.3125 C 28.683594 16.460938 28.828125 16.738281 28.75 17.375 C 28.722656 17.582031 28.417969 18.972656 27.9375 20.84375 C 27.457031 22.714844 26.792969 25.191406 26 27.9375 C 24.414063 33.429688 22.320313 40.078125 20.1875 45.5 C 19.996094 45.992188 19.839844 46.039063 19.875 46.03125 C 19.910156 46.023438 19.777344 46.035156 19.40625 45.6875 C 19.390625 45.671875 19.082031 45.347656 18.6875 44.875 C 18.292969 44.402344 17.761719 43.742188 17.15625 42.96875 C 15.945313 41.421875 14.394531 39.34375 12.75 37 C 9.460938 32.3125 5.832031 26.558594 4.0625 21.96875 C 3.964844 21.71875 3.980469 21.664063 4 21.625 C 4.019531 21.585938 4.101563 21.476563 4.3125 21.375 C 13.882813 16.734375 25.871094 16.078125 28.09375 16.09375 Z M 33.1875 16.46875 C 33.109375 16.460938 33.015625 16.476563 32.9375 16.5 C 32.625 16.59375 32.46875 16.90625 32.5625 17.21875 C 32.65625 17.53125 32.96875 17.71875 33.28125 17.625 C 33.59375 17.53125 33.78125 17.1875 33.6875 16.875 C 33.617188 16.640625 33.417969 16.492188 33.1875 16.46875 Z M 37.84375 18.71875 C 37.757813 18.726563 37.648438 18.753906 37.5625 18.78125 C 36.871094 18.992188 36.476563 19.714844 36.6875 20.40625 C 36.898438 21.097656 37.621094 21.492188 38.3125 21.28125 C 39.003906 21.070313 39.398438 20.351563 39.1875 19.65625 C 39.003906 19.050781 38.449219 18.664063 37.84375 18.71875 Z M 22.1875 20.78125 C 21.957031 20.796875 21.738281 20.957031 21.65625 21.1875 C 21.550781 21.496094 21.722656 21.832031 22.03125 21.9375 C 22.339844 22.042969 22.675781 21.871094 22.78125 21.5625 C 22.886719 21.253906 22.714844 20.917969 22.40625 20.8125 C 22.328125 20.785156 22.265625 20.777344 22.1875 20.78125 Z M 13.78125 21 C 13.460938 21.019531 13.144531 21.207031 13.03125 21.53125 C 12.882813 21.964844 13.128906 22.445313 13.5625 22.59375 C 13.992188 22.742188 14.445313 22.523438 14.59375 22.09375 C 14.742188 21.664063 14.523438 21.179688 14.09375 21.03125 C 13.984375 20.992188 13.886719 20.992188 13.78125 21 Z M 9.40625 24.25 C 9.175781 24.265625 8.957031 24.425781 8.875 24.65625 C 8.769531 24.964844 8.941406 25.300781 9.25 25.40625 C 9.558594 25.511719 9.890625 25.339844 10 25.03125 C 10.105469 24.722656 9.933594 24.386719 9.625 24.28125 C 9.546875 24.253906 9.484375 24.246094 9.40625 24.25 Z M 31.5 24.75 C 31.421875 24.742188 31.328125 24.757813 31.25 24.78125 C 30.9375 24.875 30.78125 25.1875 30.875 25.5 C 30.96875 25.8125 31.28125 26 31.59375 25.90625 C 31.90625 25.8125 32.09375 25.46875 32 25.15625 C 31.929688 24.921875 31.730469 24.773438 31.5 24.75 Z M 21.84375 26.09375 C 21.421875 26.121094 21.054688 26.386719 20.90625 26.8125 C 20.707031 27.378906 20.996094 27.988281 21.5625 28.1875 C 22.128906 28.386719 22.769531 28.097656 22.96875 27.53125 C 23.167969 26.964844 22.847656 26.355469 22.28125 26.15625 C 22.140625 26.105469 21.984375 26.085938 21.84375 26.09375 Z M 15.9375 27.3125 C 15.652344 27.332031 15.410156 27.496094 15.3125 27.78125 C 15.179688 28.164063 15.367188 28.585938 15.75 28.71875 C 16.132813 28.851563 16.554688 28.664063 16.6875 28.28125 C 16.820313 27.898438 16.601563 27.476563 16.21875 27.34375 C 16.125 27.3125 16.03125 27.304688 15.9375 27.3125 Z M 14.25 30.75 C 13.78125 30.78125 13.351563 31.09375 13.1875 31.5625 C 12.96875 32.1875 13.277344 32.875 13.90625 33.09375 C 14.53125 33.3125 15.21875 32.972656 15.4375 32.34375 C 15.65625 31.714844 15.34375 31.03125 14.71875 30.8125 C 14.5625 30.757813 14.40625 30.738281 14.25 30.75 Z M 20.5 32.03125 C 20.269531 32.046875 20.050781 32.207031 19.96875 32.4375 C 19.863281 32.746094 20.035156 33.082031 20.34375 33.1875 C 20.652344 33.292969 20.988281 33.121094 21.09375 32.8125 C 21.199219 32.503906 21.027344 32.167969 20.71875 32.0625 C 20.640625 32.035156 20.578125 32.027344 20.5 32.03125 Z M 19.375 38.46875 C 19.191406 38.480469 19.003906 38.625 18.9375 38.8125 C 18.851563 39.058594 19.003906 39.320313 19.25 39.40625 C 19.5 39.492188 19.757813 39.34375 19.84375 39.09375 C 19.929688 38.847656 19.808594 38.585938 19.5625 38.5 C 19.5 38.476563 19.4375 38.464844 19.375 38.46875 Z"/></svg>