<svg xmlns="http://www.w3.org/2000/svg"  viewBox="0 0 50 50" width="1000px" height="1000px"><path d="M 22 3 C 20.355469 3 19 4.355469 19 6 L 19 16.03125 C 17.921875 16.160156 16.972656 16.851563 16.5625 17.875 L 11.90625 29.5625 C 11.292969 31.089844 11.105469 32.75 11.375 34.375 L 12.75 42.5 C 12.992188 43.941406 14.226563 45 15.6875 45 L 34.3125 45 C 35.773438 45 37.007813 43.9375 37.25 42.5 L 38.625 34.375 C 38.894531 32.75 38.703125 31.089844 38.09375 29.5625 L 33.4375 17.875 C 33.027344 16.851563 32.078125 16.160156 31 16.03125 L 31 6 C 31 4.355469 29.644531 3 28 3 Z M 22 5 L 28 5 C 28.566406 5 29 5.433594 29 6 L 29 16 L 21 16 L 21 6 C 21 5.433594 21.433594 5 22 5 Z M 19.34375 18 L 24 18 L 24 31 L 26 31 L 26 18 L 30.65625 18 C 31.070313 18 31.410156 18.242188 31.5625 18.625 L 36.25 30.28125 C 36.726563 31.472656 36.867188 32.769531 36.65625 34.03125 L 35.28125 42.15625 C 35.199219 42.644531 34.808594 43 34.3125 43 L 15.6875 43 C 15.191406 43 14.800781 42.644531 14.71875 42.15625 L 13.34375 34.03125 C 13.132813 32.769531 13.273438 31.46875 13.75 30.28125 L 18.4375 18.625 C 18.589844 18.242188 18.929688 18 19.34375 18 Z M 24 32 L 23 38 L 25 38 L 25.34375 36 L 26 38 L 27 38 L 26 32 Z"/></svg>