<svg xmlns="http://www.w3.org/2000/svg"  viewBox="0 0 50 50" width="1000px" height="1000px"><path d="M 31.875 2.59375 L 31.15625 3.28125 L 30.03125 4.4375 C 29.601563 4.871094 29.449219 5.347656 29.34375 5.84375 C 29.238281 6.339844 29.210938 6.871094 29.21875 7.40625 C 29.226563 7.941406 29.289063 8.476563 29.40625 8.96875 C 29.523438 9.460938 29.671875 9.917969 30.09375 10.34375 L 31.96875 12.21875 C 31.933594 12.332031 31.824219 12.613281 31.28125 13.15625 C 29.84375 14.597656 6.53125 37.90625 6.53125 37.90625 L 6.40625 38.03125 L 6.34375 38.21875 L 3.09375 45.59375 L 2.0625 47.9375 L 4.40625 46.90625 L 11.78125 43.65625 L 11.96875 43.59375 L 36.84375 18.71875 C 37.382813 18.179688 37.640625 18.042969 37.75 18 L 39.78125 20.03125 C 40.199219 20.4375 40.675781 20.613281 41.15625 20.71875 C 41.644531 20.824219 42.164063 20.851563 42.6875 20.84375 C 43.210938 20.835938 43.734375 20.777344 44.21875 20.65625 C 44.703125 20.535156 45.148438 20.382813 45.5625 19.96875 L 46.71875 18.84375 L 47.40625 18.125 L 46.71875 17.40625 L 32.59375 3.28125 Z M 31.875 5.4375 L 44.5625 18.125 L 44.15625 18.5625 C 44.207031 18.511719 44.011719 18.644531 43.71875 18.71875 C 43.425781 18.792969 43.046875 18.835938 42.65625 18.84375 C 42.265625 18.851563 41.851563 18.8125 41.5625 18.75 C 41.273438 18.6875 41.128906 18.566406 41.1875 18.625 L 39 16.46875 C 38.964844 16.414063 38.921875 16.359375 38.875 16.3125 C 38.875 16.3125 38.808594 16.246094 38.71875 16.1875 L 33.75 11.21875 C 33.675781 11.105469 33.582031 11.011719 33.46875 10.9375 L 31.5 8.9375 C 31.558594 8.996094 31.417969 8.804688 31.34375 8.5 C 31.269531 8.195313 31.226563 7.78125 31.21875 7.375 C 31.210938 6.96875 31.25 6.550781 31.3125 6.25 C 31.375 5.949219 31.507813 5.773438 31.4375 5.84375 Z M 33.4375 13.6875 L 36.3125 16.5625 C 36.039063 16.757813 35.75 16.96875 35.4375 17.28125 C 33.945313 18.773438 11.046875 41.671875 10.8125 41.90625 L 5.9375 44.0625 L 8.09375 39.1875 C 8.328125 38.953125 31.25 16 32.6875 14.5625 C 33.007813 14.242188 33.238281 13.964844 33.4375 13.6875 Z"/></svg>