<svg xmlns="http://www.w3.org/2000/svg"  viewBox="0 0 50 50" width="1000px" height="1000px"><path d="M 16.613281 11 C 15.182064 11 14 12.182064 14 13.613281 L 14 36 C 14 37.64497 15.35503 39 17 39 L 21.351562 39 C 22.073325 39.0017 22.701008 38.686562 23.162109 38.236328 L 23.162109 38.238281 L 23.236328 38.166016 C 23.345526 38.059726 23.491418 38 23.644531 38 L 28.349609 38 C 28.504419 38 28.65132 38.06138 28.761719 38.169922 L 28.835938 38.242188 A 1.0001 1.0001 0 0 0 28.837891 38.242188 C 29.308896 38.705236 29.946737 38.996365 30.644531 38.998047 A 1.0001 1.0001 0 0 0 30.646484 38.998047 L 32.957031 38.998047 C 34.599125 38.998047 35.952991 37.647951 35.957031 36.005859 L 35.957031 36.003906 L 36 16.802734 C 36.0015 15.991918 35.674252 15.213939 35.09375 14.648438 L 33.302734 12.902344 L 33.300781 12.900391 C 32.742318 12.354904 31.992817 12.050325 31.212891 12.048828 A 1.0001 1.0001 0 0 0 31.210938 12.048828 L 19.681641 12.03125 C 19.514901 12.030867 19.356668 11.96358 19.242188 11.845703 A 1.0001 1.0001 0 0 0 19.238281 11.841797 L 19.193359 11.794922 C 18.702483 11.287843 18.025002 11 17.318359 11 L 16.613281 11 z M 16.613281 13 L 17.318359 13 C 17.483717 13 17.640727 13.06662 17.755859 13.185547 A 1.0001 1.0001 0 0 0 17.759766 13.189453 L 17.808594 13.238281 C 18.300114 13.744401 18.974474 14.029633 19.677734 14.03125 L 31.208984 14.048828 C 31.470177 14.049329 31.718957 14.150677 31.904297 14.332031 A 1.0001 1.0001 0 0 0 31.904297 14.333984 L 33.697266 16.080078 A 1.0001 1.0001 0 0 0 33.697266 16.082031 C 33.890769 16.270438 34.000501 16.527645 34 16.798828 L 33.957031 36 A 1.0001 1.0001 0 0 0 33.957031 36.001953 C 33.956031 36.564986 33.520291 36.998047 32.957031 36.998047 L 30.648438 36.998047 L 30.646484 36.998047 C 30.515369 36.997239 30.360462 36.935517 30.240234 36.818359 L 30.238281 36.816406 L 30.166016 36.744141 A 1.0001 1.0001 0 0 0 30.164062 36.742188 C 29.680606 36.26678 29.0288 36 28.349609 36 L 23.644531 36 C 22.971644 36 22.322645 36.262669 21.839844 36.732422 L 21.767578 36.804688 A 1.0001 1.0001 0 0 0 21.765625 36.804688 C 21.632777 36.934449 21.463706 37.000261 21.355469 37 A 1.0001 1.0001 0 0 0 21.353516 37 L 17 37 C 16.43497 37 16 36.56503 16 36 L 16 13.613281 C 16 13.262498 16.262498 13 16.613281 13 z M 22.984375 16.986328 A 1.0001 1.0001 0 0 0 22.839844 17 L 21 17 C 19.35503 17 18 18.35503 18 20 L 18 26.863281 A 1.0001 1.0001 0 0 0 18 27.128906 L 18 31 C 18 32.64497 19.35503 34 21 34 L 22.832031 34 A 1.0001 1.0001 0 0 0 23.158203 34 L 26.832031 34 A 1.0001 1.0001 0 0 0 27.158203 34 L 29 34 C 30.64497 34 32 32.64497 32 31 L 32 27.152344 A 1.0001 1.0001 0 0 0 32 26.820312 L 32 24.175781 A 1.0001 1.0001 0 0 0 32 23.847656 L 32 20 C 32 18.35503 30.64497 17 29 17 L 27.167969 17 A 1.0001 1.0001 0 0 0 26.841797 17 L 23.154297 17 A 1.0001 1.0001 0 0 0 22.984375 16.986328 z M 21 19 L 22 19 L 22 21.941406 C 22 23.066577 22.933423 24 24.058594 24 L 28 24 C 28.833333 24 29.421991 24.20416 29.802734 24.394531 C 29.899195 24.442762 29.93573 24.471172 30 24.509766 L 30 26.490234 C 29.93573 26.528828 29.899195 26.557238 29.802734 26.605469 C 29.421991 26.79584 28.833333 27 28 27 L 27.167969 27 A 1.0001 1.0001 0 0 0 26.841797 27 L 23.167969 27 A 1.0001 1.0001 0 0 0 22.841797 27 L 22 27 C 21.166667 27 20.578009 26.79584 20.197266 26.605469 C 20.100805 26.557238 20.06427 26.528828 20 26.490234 L 20 20 C 20 19.43497 20.43497 19 21 19 z M 24 19 L 26 19 L 26 22 L 24.058594 22 C 24.013765 22 24 21.986235 24 21.941406 L 24 19 z M 28 19 L 29 19 C 29.56503 19 30 19.43497 30 20 L 30 22.326172 C 29.454882 22.141787 28.79186 22 28 22 L 28 19 z M 20 28.673828 C 20.545118 28.858213 21.20814 29 22 29 L 22 32 L 21 32 C 20.43497 32 20 31.56503 20 31 L 20 28.673828 z M 30 28.673828 L 30 31 C 30 31.56503 29.56503 32 29 32 L 28 32 L 28 29 C 28.79186 29 29.454882 28.858213 30 28.673828 z M 24 29 L 26 29 L 26 32 L 24 32 L 24 29 z"/></svg>