<svg fill="#000000" xmlns="http://www.w3.org/2000/svg"  viewBox="0 0 50 50" width="1000px" height="1000px"><path d="M 24.90625 2 C 19.570313 2 15.359375 2.375 12.09375 2.96875 C 12.007813 2.96875 11.925781 2.980469 11.84375 3 C 11.824219 3.007813 11.800781 3.019531 11.78125 3.03125 C 11.761719 3.039063 11.738281 3.050781 11.71875 3.0625 C 7.945313 3.90625 5.527344 5.144531 4.03125 6.5625 C 2.527344 7.988281 2 9.570313 2 10.84375 L 2 25.1875 C 2 25.21875 2 25.25 2 25.28125 C 1.988281 25.363281 1.988281 25.449219 2 25.53125 C 2 25.542969 2 25.550781 2 25.5625 C 2.019531 25.648438 2.050781 25.734375 2.09375 25.8125 C 2.09375 25.824219 2.09375 25.832031 2.09375 25.84375 C 2.101563 25.863281 2.113281 25.886719 2.125 25.90625 C 2.125 25.917969 2.125 25.925781 2.125 25.9375 C 2.144531 25.960938 2.164063 25.980469 2.1875 26 C 2.1875 26.011719 2.1875 26.019531 2.1875 26.03125 C 2.207031 26.042969 2.230469 26.054688 2.25 26.0625 C 2.25 26.074219 2.25 26.082031 2.25 26.09375 C 2.269531 26.117188 2.289063 26.136719 2.3125 26.15625 C 2.484375 26.351563 8.925781 33.664063 12.125 39.34375 C 13.800781 42.316406 14.589844 43.6875 15.28125 44.5625 C 15.867188 45.300781 16.414063 45.617188 17.0625 46 C 17.117188 46.039063 17.164063 46.085938 17.21875 46.125 C 17.28125 46.164063 17.339844 46.179688 17.40625 46.21875 C 17.480469 46.28125 17.566406 46.335938 17.65625 46.375 C 17.773438 46.441406 17.882813 46.53125 18 46.59375 C 20.121094 47.71875 22.550781 48 25 48 C 27.445313 48 29.839844 47.75 31.9375 46.625 C 32.105469 46.535156 32.273438 46.414063 32.4375 46.3125 C 32.492188 46.285156 32.542969 46.253906 32.59375 46.21875 C 33.421875 45.710938 34.027344 45.4375 34.71875 44.5625 C 35.410156 43.6875 36.199219 42.316406 37.875 39.34375 C 41.03125 33.742188 47.289063 26.601563 47.625 26.21875 C 47.695313 26.164063 47.757813 26.101563 47.8125 26.03125 C 47.8125 26.019531 47.8125 26.011719 47.8125 26 C 47.875 25.925781 47.929688 25.839844 47.96875 25.75 C 48.039063 25.558594 48.050781 25.351563 48 25.15625 L 48 10.84375 C 48 9.589844 47.519531 7.996094 46.03125 6.5625 C 44.542969 5.128906 42.117188 3.871094 38.21875 3.03125 C 36.128906 2.574219 30.414063 2 24.90625 2 Z M 24.90625 4 C 29.855469 4 34.910156 4.511719 37 4.875 C 36.988281 27.445313 36.609375 34.15625 34.84375 39.75 C 34.085938 42.152344 32.964844 43.558594 31.59375 44.46875 C 31.5625 44.488281 31.566406 44.511719 31.53125 44.53125 C 31.359375 44.644531 31.179688 44.746094 31 44.84375 C 29.351563 45.726563 27.296875 46 25 46 C 22.707031 46 20.617188 45.734375 18.9375 44.84375 C 18.863281 44.804688 18.789063 44.757813 18.71875 44.71875 C 18.707031 44.707031 18.699219 44.699219 18.6875 44.6875 C 18.648438 44.652344 18.605469 44.621094 18.5625 44.59375 C 18.53125 44.570313 18.5 44.550781 18.46875 44.53125 C 18.246094 44.394531 18.152344 44.339844 18 44.25 C 16.753906 43.328125 15.742188 41.949219 15 39.75 C 13.988281 36.75 13.503906 34.957031 13.25 30.28125 C 13.003906 25.761719 13 18.082031 13 4.875 C 16.054688 4.355469 19.914063 4 24.90625 4 Z M 11 5.25 C 11 11.8125 11 17.128906 11.03125 21.125 C 9.222656 21.359375 7.488281 21.660156 6 22.15625 C 5.265625 22.402344 4.605469 22.726563 4 23.09375 L 4 10.84375 C 4 10.105469 4.257813 9.089844 5.40625 8 C 6.417969 7.039063 8.152344 6.015625 11 5.25 Z M 39 5.25 C 41.914063 6.015625 43.632813 7.042969 44.625 8 C 45.746094 9.082031 46 10.066406 46 10.84375 L 46 23.09375 C 45.398438 22.726563 44.761719 22.398438 44.03125 22.15625 C 42.507813 21.648438 40.726563 21.328125 38.84375 21.09375 C 38.933594 16.882813 38.996094 11.753906 39 5.25 Z M 11.0625 23.125 C 11.097656 26.042969 11.148438 28.507813 11.25 30.375 C 11.347656 32.21875 11.492188 33.671875 11.6875 34.9375 C 8.664063 30.492188 5.226563 26.457031 4.25 25.34375 C 4.710938 24.867188 5.511719 24.433594 6.625 24.0625 C 7.851563 23.65625 9.398438 23.351563 11.0625 23.125 Z M 38.8125 23.125 C 40.542969 23.34375 42.160156 23.617188 43.40625 24.03125 C 44.511719 24.398438 45.292969 24.851563 45.75 25.34375 C 44.726563 26.507813 40.964844 30.898438 37.875 35.5625 C 38.371094 32.578125 38.652344 28.742188 38.8125 23.125 Z"/></svg>