<svg xmlns="http://www.w3.org/2000/svg"  viewBox="0 0 50 50" width="1000px" height="1000px"><path d="M 25 2 C 24.449219 2 24 2.449219 24 3 C 24 3.550781 24.449219 4 25 4 C 25.550781 4 26 3.550781 26 3 C 26 2.449219 25.550781 2 25 2 Z M 21.5 2.0625 C 20.671875 2.0625 20 2.734375 20 3.5625 C 20 4.390625 20.671875 5.0625 21.5 5.0625 C 22.328125 5.0625 23 4.390625 23 3.5625 C 23 2.734375 22.328125 2.0625 21.5 2.0625 Z M 28.5 2.0625 C 27.671875 2.0625 27 2.734375 27 3.5625 C 27 4.390625 27.671875 5.0625 28.5 5.0625 C 29.328125 5.0625 30 4.390625 30 3.5625 C 30 2.734375 29.328125 2.0625 28.5 2.0625 Z M 17.5 4.0625 C 16.671875 4.0625 16 4.734375 16 5.5625 C 16 6.390625 16.671875 7.0625 17.5 7.0625 C 18.328125 7.0625 19 6.390625 19 5.5625 C 19 4.734375 18.328125 4.0625 17.5 4.0625 Z M 32.5 4.0625 C 31.671875 4.0625 31 4.734375 31 5.5625 C 31 6.390625 31.671875 7.0625 32.5 7.0625 C 33.328125 7.0625 34 6.390625 34 5.5625 C 34 4.734375 33.328125 4.0625 32.5 4.0625 Z M 14.5 7 C 13.671875 7 13 7.671875 13 8.5 C 13 9.328125 13.671875 10 14.5 10 C 15.328125 10 16 9.328125 16 8.5 C 16 7.671875 15.328125 7 14.5 7 Z M 35.5 7 C 34.671875 7 34 7.671875 34 8.5 C 34 9.328125 34.671875 10 35.5 10 C 36.328125 10 37 9.328125 37 8.5 C 37 7.671875 36.328125 7 35.5 7 Z M 12.5 11 C 11.671875 11 11 11.671875 11 12.5 C 11 13.328125 11.671875 14 12.5 14 C 13.328125 14 14 13.328125 14 12.5 C 14 11.671875 13.328125 11 12.5 11 Z M 37.5 11 C 36.671875 11 36 11.671875 36 12.5 C 36 13.328125 36.671875 14 37.5 14 C 38.328125 14 39 13.328125 39 12.5 C 39 11.671875 38.328125 11 37.5 11 Z M 11.5 15 C 10.132813 15 9 16.132813 9 17.5 C 9 18.867188 10.132813 20 11.5 20 C 12.867188 20 14 18.867188 14 17.5 C 14 16.132813 12.867188 15 11.5 15 Z M 38.5 15 C 37.132813 15 36 16.132813 36 17.5 C 36 18.867188 37.132813 20 38.5 20 C 39.867188 20 41 18.867188 41 17.5 C 41 16.132813 39.867188 15 38.5 15 Z M 11.5 17 C 11.789063 17 12 17.210938 12 17.5 C 12 17.789063 11.789063 18 11.5 18 C 11.210938 18 11 17.789063 11 17.5 C 11 17.210938 11.210938 17 11.5 17 Z M 38.5 17 C 38.789063 17 39 17.210938 39 17.5 C 39 17.789063 38.789063 18 38.5 18 C 38.210938 18 38 17.789063 38 17.5 C 38 17.210938 38.210938 17 38.5 17 Z M 11.5 21 C 10.132813 21 9 22.132813 9 23.5 C 9 24.867188 10.132813 26 11.5 26 C 12.867188 26 14 24.867188 14 23.5 C 14 22.132813 12.867188 21 11.5 21 Z M 38.5 21 C 37.132813 21 36 22.132813 36 23.5 C 36 24.867188 37.132813 26 38.5 26 C 39.867188 26 41 24.867188 41 23.5 C 41 22.132813 39.867188 21 38.5 21 Z M 11.5 23 C 11.789063 23 12 23.210938 12 23.5 C 12 23.789063 11.789063 24 11.5 24 C 11.210938 24 11 23.789063 11 23.5 C 11 23.210938 11.210938 23 11.5 23 Z M 38.5 23 C 38.789063 23 39 23.210938 39 23.5 C 39 23.789063 38.789063 24 38.5 24 C 38.210938 24 38 23.789063 38 23.5 C 38 23.210938 38.210938 23 38.5 23 Z M 13.5 27 C 12.132813 27 11 28.132813 11 29.5 C 11 30.867188 12.132813 32 13.5 32 C 14.867188 32 16 30.867188 16 29.5 C 16 28.132813 14.867188 27 13.5 27 Z M 36.5 27 C 35.132813 27 34 28.132813 34 29.5 C 34 30.867188 35.132813 32 36.5 32 C 37.867188 32 39 30.867188 39 29.5 C 39 28.132813 37.867188 27 36.5 27 Z M 13.5 29 C 13.789063 29 14 29.210938 14 29.5 C 14 29.789063 13.789063 30 13.5 30 C 13.210938 30 13 29.789063 13 29.5 C 13 29.210938 13.210938 29 13.5 29 Z M 36.5 29 C 36.789063 29 37 29.210938 37 29.5 C 37 29.789063 36.789063 30 36.5 30 C 36.210938 30 36 29.789063 36 29.5 C 36 29.210938 36.210938 29 36.5 29 Z M 18 30 C 16.355469 30 15 31.355469 15 33 C 15 34.644531 16.355469 36 18 36 C 19.644531 36 21 34.644531 21 33 C 21 31.355469 19.644531 30 18 30 Z M 32 30 C 30.355469 30 29 31.355469 29 33 C 29 34.644531 30.355469 36 32 36 C 33.644531 36 35 34.644531 35 33 C 35 31.355469 33.644531 30 32 30 Z M 25 31 C 22.800781 31 21 32.800781 21 35 C 21 36.851563 22.28125 38.398438 24 38.84375 L 24 39.5625 L 21.28125 42.28125 C 20.925781 42.632813 20.886719 43.195313 21.1875 43.59375 L 24.1875 47.59375 C 24.375 47.855469 24.679688 48.011719 25 48.011719 C 25.320313 48.011719 25.625 47.855469 25.8125 47.59375 L 28.8125 43.59375 C 29.113281 43.195313 29.074219 42.632813 28.71875 42.28125 L 26 39.5625 L 26 38.84375 C 27.71875 38.398438 29 36.851563 29 35 C 29 32.800781 27.199219 31 25 31 Z M 18 32 C 18.5625 32 19 32.4375 19 33 C 19 33.5625 18.5625 34 18 34 C 17.4375 34 17 33.5625 17 33 C 17 32.4375 17.4375 32 18 32 Z M 32 32 C 32.5625 32 33 32.4375 33 33 C 33 33.5625 32.5625 34 32 34 C 31.4375 34 31 33.5625 31 33 C 31 32.4375 31.4375 32 32 32 Z M 25 33 C 26.117188 33 27 33.882813 27 35 C 27 36.050781 26.210938 36.90625 25.1875 37 C 25.175781 37 25.167969 37 25.15625 37 C 25.050781 36.984375 24.949219 36.984375 24.84375 37 C 24.824219 37 24.800781 37.003906 24.78125 37 C 23.769531 36.890625 23 36.042969 23 35 C 23 33.882813 23.882813 33 25 33 Z M 25 41.4375 L 26.65625 43.09375 L 25 45.3125 L 23.34375 43.09375 Z"/></svg>