<svg xmlns="http://www.w3.org/2000/svg"  viewBox="0 0 50 50" width="1000px" height="1000px"><path d="M 26.8125 0 C 26.261719 0.0507813 25.855469 0.542969 25.90625 1.09375 C 25.957031 1.644531 26.449219 2.050781 27 2 C 31.929688 2 35.492188 3.175781 37.9375 4.4375 C 37.144531 5.523438 36.277344 6.839844 35.34375 8.21875 C 33.753906 10.570313 32.074219 13.023438 31.125 14.03125 C 27.195313 18.1875 22.039063 23.730469 17.75 28.34375 C 15.605469 30.648438 13.671875 32.722656 12.21875 34.28125 C 10.765625 35.839844 9.769531 36.917969 9.59375 37.09375 C 9.351563 37.335938 8.71875 38.019531 7.78125 39.0625 C 6.84375 40.105469 5.65625 41.445313 4.5 42.78125 C 3.34375 44.117188 2.226563 45.449219 1.40625 46.5 C 0.996094 47.023438 0.644531 47.46875 0.40625 47.84375 C 0.285156 48.03125 0.207031 48.203125 0.125 48.40625 C 0.0820313 48.507813 0.0195313 48.621094 0 48.8125 C -0.0195313 49.003906 0.00390625 49.375 0.3125 49.6875 C 0.621094 50 0.996094 50.019531 1.1875 50 C 1.378906 49.980469 1.492188 49.917969 1.59375 49.875 C 1.796875 49.792969 1.96875 49.714844 2.15625 49.59375 C 2.53125 49.355469 2.976563 49.035156 3.5 48.625 C 4.546875 47.804688 5.882813 46.65625 7.21875 45.5 C 8.554688 44.34375 9.894531 43.160156 10.9375 42.21875 C 11.980469 41.277344 12.660156 40.652344 12.90625 40.40625 C 13.269531 40.042969 17.070313 36.515625 21.6875 32.21875 C 26.304688 27.921875 31.820313 22.765625 35.96875 18.84375 C 36.964844 17.902344 39.410156 16.238281 41.75 14.65625 C 43 13.8125 44.222656 13.015625 45.25 12.28125 C 45.59375 13.144531 46 14.441406 46 16 C 46 20.183594 43.0625 23.175781 39.8125 26.375 C 36.5625 29.574219 33 32.976563 33 38 C 33 40.871094 33.964844 43.148438 35.40625 44.84375 C 36.847656 46.539063 38.730469 47.65625 40.625 48.40625 C 44.414063 49.910156 48.234375 50 49 50 C 49.359375 50.003906 49.695313 49.816406 49.878906 49.503906 C 50.058594 49.191406 50.058594 48.808594 49.878906 48.496094 C 49.695313 48.183594 49.359375 47.996094 49 48 C 48.417969 48 44.746094 47.902344 41.375 46.5625 C 39.6875 45.894531 38.066406 44.925781 36.90625 43.5625 C 35.746094 42.199219 35 40.445313 35 38 C 35 33.929688 37.9375 30.984375 41.1875 27.78125 C 44.4375 24.578125 48 21.113281 48 16 C 48 13.761719 47.351563 11.945313 46.90625 10.96875 C 47.074219 10.820313 47.269531 10.667969 47.40625 10.53125 C 48.417969 9.523438 49.394531 8.097656 49.8125 6.46875 C 50.230469 4.839844 49.984375 2.890625 48.53125 1.4375 C 47.800781 0.707031 46.96875 0.308594 46.09375 0.125 C 45.21875 -0.0585938 44.316406 0.0078125 43.5 0.21875 C 41.867188 0.644531 40.453125 1.578125 39.46875 2.5625 C 39.394531 2.636719 39.296875 2.757813 39.21875 2.84375 C 36.5 1.367188 32.503906 0 27 0 C 26.96875 0 26.9375 0 26.90625 0 C 26.875 0 26.84375 0 26.8125 0 Z M 44.84375 2 C 45.121094 1.976563 45.398438 1.980469 45.65625 2.03125 C 46.171875 2.132813 46.65625 2.40625 47.125 2.875 C 48.0625 3.8125 48.171875 4.8125 47.875 5.96875 C 47.578125 7.125 46.777344 8.316406 46 9.09375 L 46 9.125 C 45.832031 9.292969 45.550781 9.523438 45.21875 9.78125 C 45.058594 9.847656 44.917969 9.957031 44.8125 10.09375 C 43.738281 10.894531 42.203125 11.933594 40.625 13 C 38.28125 14.582031 35.910156 16.160156 34.625 17.375 C 30.488281 21.285156 24.929688 26.453125 20.3125 30.75 C 15.695313 35.046875 12.113281 38.390625 11.5 39 C 11.4375 39.0625 10.628906 39.816406 9.59375 40.75 C 8.777344 41.484375 7.722656 42.40625 6.6875 43.3125 C 7.59375 42.277344 8.515625 41.222656 9.25 40.40625 C 10.179688 39.371094 10.9375 38.5625 11 38.5 C 11.304688 38.195313 12.234375 37.183594 13.6875 35.625 C 15.140625 34.066406 17.074219 31.992188 19.21875 29.6875 C 23.507813 25.078125 28.640625 19.554688 32.5625 15.40625 L 32.59375 15.40625 C 33.8125 14.113281 35.40625 11.699219 37 9.34375 C 37.972656 7.90625 38.917969 6.511719 39.6875 5.46875 C 40.203125 5.8125 40.585938 6.113281 40.9375 6.40625 C 40.441406 7.351563 40.445313 8.378906 41.03125 8.96875 C 41.824219 9.765625 43.394531 9.480469 44.53125 8.34375 C 45.664063 7.210938 45.914063 5.636719 45.125 4.84375 C 44.476563 4.195313 43.332031 4.277344 42.3125 4.9375 C 41.929688 4.609375 41.511719 4.28125 40.96875 3.90625 C 41.71875 3.1875 42.878906 2.449219 44 2.15625 C 44.292969 2.082031 44.566406 2.023438 44.84375 2 Z"/></svg>