<svg xmlns="http://www.w3.org/2000/svg"  viewBox="0 0 50 50" width="1000px" height="1000px"><path d="M 24.8125 3 C 24.734375 3.023438 24.664063 3.054688 24.59375 3.09375 L 2.90625 12.96875 L 2.78125 13 C 2.75 13.007813 2.71875 13.019531 2.6875 13.03125 C 2.558594 13.078125 2.441406 13.152344 2.34375 13.25 C 2.296875 13.289063 2.257813 13.328125 2.21875 13.375 C 2.21875 13.386719 2.21875 13.394531 2.21875 13.40625 C 2.152344 13.492188 2.097656 13.585938 2.0625 13.6875 C 2.050781 13.699219 2.042969 13.707031 2.03125 13.71875 C 2.03125 13.738281 2.03125 13.761719 2.03125 13.78125 C 2.011719 13.851563 2.003906 13.925781 2 14 L 2 21.3125 C 1.917969 21.535156 1.917969 21.777344 2 22 L 2 28.71875 C 1.957031 28.882813 1.957031 29.054688 2 29.21875 L 2 36 C 1.996094 36.386719 2.214844 36.738281 2.5625 36.90625 L 24.5625 47.90625 C 24.839844 48.039063 25.160156 48.039063 25.4375 47.90625 L 47.4375 36.90625 C 47.785156 36.738281 48.003906 36.386719 48 36 L 48 29.125 C 48.015625 29.019531 48.015625 28.917969 48 28.8125 L 48 21.8125 C 48.015625 21.707031 48.015625 21.605469 48 21.5 L 48 14 C 47.992188 13.945313 47.984375 13.894531 47.96875 13.84375 C 47.96875 13.832031 47.96875 13.824219 47.96875 13.8125 C 47.949219 13.726563 47.917969 13.640625 47.875 13.5625 C 47.875 13.550781 47.875 13.542969 47.875 13.53125 C 47.847656 13.476563 47.816406 13.425781 47.78125 13.375 C 47.78125 13.363281 47.78125 13.355469 47.78125 13.34375 C 47.761719 13.332031 47.738281 13.320313 47.71875 13.3125 C 47.691406 13.277344 47.660156 13.246094 47.625 13.21875 C 47.605469 13.207031 47.582031 13.195313 47.5625 13.1875 C 47.511719 13.152344 47.460938 13.121094 47.40625 13.09375 L 47.1875 13 L 25.40625 3.09375 C 25.222656 3.003906 25.015625 2.96875 24.8125 3 Z M 25 5.09375 L 44.59375 14 L 25 22.90625 L 5.40625 14 Z M 21 10 C 20.449219 10 20 10.449219 20 11 C 20 11.550781 20.449219 12 21 12 C 21.550781 12 22 11.550781 22 11 C 22 10.449219 21.550781 10 21 10 Z M 16 12 C 15.449219 12 15 12.449219 15 13 C 15 13.550781 15.449219 14 16 14 C 16.550781 14 17 13.550781 17 13 C 17 12.449219 16.550781 12 16 12 Z M 35 12 C 34.449219 12 34 12.449219 34 13 C 34 13.550781 34.449219 14 35 14 C 35.550781 14 36 13.550781 36 13 C 36 12.449219 35.550781 12 35 12 Z M 21 14 C 20.449219 14 20 14.449219 20 15 C 20 15.550781 20.449219 16 21 16 C 21.550781 16 22 15.550781 22 15 C 22 14.449219 21.550781 14 21 14 Z M 4 15.53125 L 24.59375 24.90625 C 24.851563 25.019531 25.148438 25.019531 25.40625 24.90625 L 46 15.53125 L 46 21.03125 L 25 30.875 L 4 21.03125 Z M 28 17 C 27.449219 17 27 17.449219 27 18 C 27 18.550781 27.449219 19 28 19 C 28.550781 19 29 18.550781 29 18 C 29 17.449219 28.550781 17 28 17 Z M 4 23.28125 L 24.5625 32.90625 C 24.839844 33.039063 25.160156 33.039063 25.4375 32.90625 L 46 23.28125 L 46 28.375 L 25 38.875 L 4 28.375 Z M 4 30.625 L 24.5625 40.90625 C 24.839844 41.039063 25.160156 41.039063 25.4375 40.90625 L 46 30.625 L 46 35.375 L 25 45.875 L 4 35.375 Z"/></svg>