<svg xmlns="http://www.w3.org/2000/svg"  viewBox="0 0 50 50" width="1000px" height="1000px"><path d="M 47.1875 2 L 24 5.3125 L 24 7.5 L 47.59375 5 C 48.292969 4.898438 48.914063 4.289063 48.8125 3.6875 L 48.6875 3 C 48.585938 2.300781 47.988281 1.898438 47.1875 2 Z M 21.90625 2.6875 C 21.429688 2.777344 21.085938 3.199219 21.09375 3.6875 L 21.09375 5.75 L 20 5.90625 L 20 7.90625 L 21.09375 7.78125 L 21.09375 11 L 20 11 L 20 13 L 21.09375 13.0625 L 21.09375 14 C 21.089844 14.359375 21.277344 14.695313 21.589844 14.878906 C 21.902344 15.058594 22.285156 15.058594 22.597656 14.878906 C 22.910156 14.695313 23.097656 14.359375 23.09375 14 L 23.09375 3.6875 C 23.09375 3.40625 22.976563 3.136719 22.769531 2.945313 C 22.558594 2.753906 22.28125 2.660156 22 2.6875 C 21.96875 2.6875 21.9375 2.6875 21.90625 2.6875 Z M 17.90625 2.96875 C 17.863281 2.976563 17.820313 2.988281 17.78125 3 C 17.316406 3.105469 16.988281 3.523438 17 4 L 17 6.25 L 16 6.40625 L 16 8.3125 L 17 8.1875 L 17 11 L 16 11 L 16 12.90625 L 17 12.9375 L 17 14 C 16.996094 14.359375 17.183594 14.695313 17.496094 14.878906 C 17.808594 15.058594 18.191406 15.058594 18.503906 14.878906 C 18.816406 14.695313 19.003906 14.359375 19 14 L 19 4 C 19.011719 3.710938 18.894531 3.433594 18.6875 3.238281 C 18.476563 3.039063 18.191406 2.941406 17.90625 2.96875 Z M 13.90625 3.96875 C 13.863281 3.976563 13.820313 3.988281 13.78125 4 C 13.316406 4.105469 12.988281 4.523438 13 5 L 13 6.84375 L 12 7 L 12 8.8125 L 13 8.6875 L 13 11 L 12 11 L 12 12.8125 L 13 12.8125 L 13 14 C 12.996094 14.359375 13.183594 14.695313 13.496094 14.878906 C 13.808594 15.058594 14.191406 15.058594 14.503906 14.878906 C 14.816406 14.695313 15.003906 14.359375 15 14 L 15 5 C 15.011719 4.710938 14.894531 4.433594 14.6875 4.238281 C 14.476563 4.039063 14.191406 3.941406 13.90625 3.96875 Z M 9.90625 5.46875 C 9.863281 5.476563 9.820313 5.488281 9.78125 5.5 C 9.316406 5.605469 8.988281 6.023438 9 6.5 L 9 7.46875 L 3 8.3125 L 3.1875 9.6875 L 9 9.09375 L 9 11 L 3 11 L 3 12.5 L 9 12.65625 L 9 15.8125 C 9 15.84375 9 15.875 9 15.90625 L 9 26.8125 L 11 26.8125 L 11 15.96875 C 11.003906 15.917969 11.003906 15.863281 11 15.8125 L 11 6.5 C 11.011719 6.210938 10.894531 5.933594 10.6875 5.738281 C 10.476563 5.539063 10.191406 5.441406 9.90625 5.46875 Z M 24 11 L 24 13.1875 L 47.59375 14 C 48.292969 14 49 13.511719 49 12.8125 L 49 12.1875 C 49 11.488281 48.386719 11 47.6875 11 Z M 0.8125 28 C 0.335938 28.089844 -0.0078125 28.511719 0 29 L 0 32.59375 C 0 37.460938 2.640625 41.792969 6.09375 44.90625 C 9.546875 48.019531 13.828125 50 17.5 50 L 32.5 50 C 36.171875 50 40.453125 48.019531 43.90625 44.90625 C 47.359375 41.792969 50 37.460938 50 32.59375 L 50 29 C 50 28.449219 49.550781 28 49 28 L 1 28 C 0.96875 28 0.9375 28 0.90625 28 C 0.875 28 0.84375 28 0.8125 28 Z M 2 30 L 48 30 L 48 32.59375 C 48 36.726563 45.707031 40.601563 42.5625 43.4375 C 39.417969 46.273438 35.425781 48 32.5 48 L 17.5 48 C 14.574219 48 10.582031 46.273438 7.4375 43.4375 C 4.292969 40.601563 2 36.726563 2 32.59375 Z"/></svg>