<svg fill="#000000" xmlns="http://www.w3.org/2000/svg"  viewBox="0 0 50 50" width="1000px" height="1000px"><path d="M 42 3.03125 C 41.75 3.011719 41.460938 3.050781 41.15625 3.15625 C 40.285156 3.457031 39.484375 4.714844 40.4375 5.84375 C 41.132813 6.671875 43.199219 10.382813 39.625 13.125 C 39.410156 12.90625 39.207031 12.707031 39.1875 12.6875 C 39.1875 12.6875 39.125 12.625 39.125 12.625 C 39.03125 12.527344 36.054688 9.382813 31.8125 7.34375 C 29.65625 6.308594 27.148438 5.550781 24.53125 5.6875 C 21.925781 5.824219 19.21875 6.898438 16.8125 9.34375 C 16.8125 9.34375 16.8125 9.375 16.8125 9.375 C 16.792969 9.394531 16.632813 9.535156 16.53125 9.71875 C 16.421875 9.914063 16.335938 10.175781 16.28125 10.5 C 16.21875 10.871094 16.222656 11.328125 16.3125 11.875 C 7.804688 18.757813 4.835938 25.570313 4.25 31 C 3.675781 36.3125 5.371094 40.300781 5.9375 41.6875 C 5.929688 41.679688 5.929688 41.707031 5.875 41.8125 C 5.761719 42.023438 5.519531 42.335938 5.28125 42.75 C 5.042969 43.164063 4.8125 43.683594 4.75 44.3125 C 4.6875 44.941406 4.851563 45.6875 5.3125 46.3125 C 5.773438 46.933594 6.480469 47.3125 7.125 47.375 C 7.769531 47.4375 8.308594 47.261719 8.78125 47.09375 C 9.253906 46.925781 9.679688 46.726563 10 46.625 C 10.320313 46.523438 10.492188 46.550781 10.53125 46.5625 C 12.957031 47.292969 17.246094 48.234375 22.46875 47.0625 C 27.589844 45.910156 33.597656 42.699219 39.53125 35.4375 C 40.261719 35.625 40.847656 35.640625 41.3125 35.5625 C 41.636719 35.507813 41.898438 35.390625 42.09375 35.28125 C 42.277344 35.179688 42.417969 35.019531 42.4375 35 L 42.46875 35 C 44.886719 32.488281 45.933594 29.71875 46.0625 27.09375 C 46.191406 24.460938 45.4375 22.007813 44.40625 19.875 C 43.074219 17.125 41.351563 15.023438 40.25 13.8125 C 45.109375 10.675781 43.953125 5.191406 43.5 4.15625 C 43.269531 3.628906 42.753906 3.085938 42 3.03125 Z M 24.625 7.6875 C 26.785156 7.574219 28.984375 8.214844 30.9375 9.15625 C 34.84375 11.035156 37.71875 14.0625 37.71875 14.0625 L 37.75 14.0625 L 37.78125 14.09375 C 37.78125 14.09375 40.761719 16.898438 42.625 20.75 C 43.558594 22.675781 44.171875 24.816406 44.0625 27 C 43.957031 29.160156 43.175781 31.378906 41.09375 33.5625 C 41.082031 33.570313 41.074219 33.582031 41 33.59375 C 40.792969 33.628906 40.246094 33.621094 39.28125 33.25 C 37.351563 32.507813 33.726563 30.226563 27.65625 24.15625 C 21.585938 18.085938 19.304688 14.460938 18.5625 12.53125 C 18.191406 11.566406 18.214844 11.050781 18.25 10.84375 C 18.261719 10.765625 18.277344 10.757813 18.28125 10.75 C 18.28125 10.746094 18.28125 10.71875 18.28125 10.71875 C 20.363281 8.621094 22.488281 7.800781 24.625 7.6875 Z M 17 13.9375 C 18.105469 16.351563 20.625 19.9375 26.25 25.5625 C 31.609375 30.921875 35.148438 33.46875 37.5625 34.65625 C 32.007813 41.277344 26.59375 44.066406 22.03125 45.09375 C 17.277344 46.160156 13.394531 45.304688 11.125 44.625 C 11.117188 44.621094 11.101563 44.628906 11.09375 44.625 C 10.457031 44.441406 9.851563 44.566406 9.375 44.71875 C 8.890625 44.871094 8.457031 45.089844 8.09375 45.21875 C 7.730469 45.347656 7.457031 45.390625 7.3125 45.375 C 7.167969 45.359375 7.128906 45.347656 6.9375 45.09375 C 6.734375 44.816406 6.699219 44.6875 6.71875 44.5 C 6.738281 44.3125 6.855469 44.054688 7.03125 43.75 C 7.207031 43.445313 7.449219 43.140625 7.65625 42.75 C 7.863281 42.359375 8.117188 41.769531 7.84375 41.09375 C 7.285156 39.707031 5.71875 36.148438 6.25 31.21875 C 6.765625 26.433594 9.273438 20.378906 17 13.9375 Z"/></svg>