<svg xmlns="http://www.w3.org/2000/svg"  viewBox="0 0 50 50" width="1000px" height="1000px"><path d="M 22 2 A 1.0001 1.0001 0 0 0 21 3 L 21 6.6972656 L 17.244141 12.332031 A 1.0001 1.0001 0 0 0 17 13.158203 L 17 19.746094 C 16.831408 20.047236 16.257756 21.080655 15.59375 22.496094 C 15.435653 22.833103 15.276276 23.179707 15.121094 23.527344 C 14.65126 23.17305 14.094004 22.864458 13.46875 22.548828 C 12.607834 22.114236 11.636208 21.69797 10.716797 21.330078 C 8.8779749 20.594295 7.2382814 20.054686 7.2382812 20.054688 L 5.3164062 19.421875 L 5.9824219 21.332031 C 5.9824219 21.332031 6.5427841 22.94817 7.3007812 24.763672 C 7.9564925 26.334186 8.6568674 27.996767 9.5351562 29.119141 C 9.1850447 29.275331 8.8354548 29.43455 8.4960938 29.59375 C 6.8572446 30.362561 5.5058594 31.130859 5.5058594 31.130859 L 3.9726562 32 L 5.5058594 32.869141 C 5.5058594 32.869141 7.5754411 34.065288 9.7773438 34.982422 C 9.7169892 35.016138 9.5058594 35.130859 9.5058594 35.130859 L 7.9726562 36 L 9.5058594 36.869141 C 9.5058594 36.869141 11.57537 38.065166 13.777344 38.982422 C 13.71765 39.015782 13.507813 39.130859 13.507812 39.130859 L 11.972656 40 L 13.507812 40.869141 C 13.507812 40.869141 14.858789 41.637487 16.498047 42.40625 C 16.662175 42.483221 16.83294 42.559505 17 42.636719 L 17 47 A 1.0001 1.0001 0 0 0 18 48 L 35 48 L 41 48 A 1.0001 1.0001 0 0 0 42 47 L 42 13 A 1.0001 1.0001 0 0 0 41.894531 12.552734 L 39 6.7636719 L 39 3 A 1.0001 1.0001 0 0 0 38 2 L 22 2 z M 23 4 L 37 4 L 37 6 L 23 6 L 23 4 z M 22.535156 8 L 36.382812 8 L 34.382812 12 L 19.869141 12 L 22.535156 8 z M 38 9.2363281 L 40 13.236328 L 40 46 L 36 46 L 36 13.236328 L 38 9.2363281 z M 19 14 L 34 14 L 34 46 L 33.414062 46 L 26.855469 39.4375 C 27.590489 39.331823 28.284011 39.075342 28.84375 38.570312 C 29.617606 37.872094 30 36.785079 30 35.5 C 30 33.943691 29.175013 32.137305 28.40625 30.498047 C 27.637487 28.858789 26.869141 27.507812 26.869141 27.507812 L 26 25.972656 L 25.130859 27.507812 C 25.130859 27.507812 25.015782 27.71765 24.982422 27.777344 C 24.065164 25.575505 22.869141 23.505859 22.869141 23.505859 L 22 21.972656 L 21.130859 23.505859 C 21.130859 23.505859 21.016138 23.716989 20.982422 23.777344 C 20.181136 21.853575 19.243664 20.17136 19 19.742188 L 19 14 z M 18.003906 22.179688 C 18.623754 23.394529 19.340561 24.907881 19.734375 26.212891 C 19.683091 26.319811 19.64527 26.386271 19.59375 26.496094 C 18.944066 27.881003 18.356566 29.361325 18.158203 30.734375 L 16.371094 28.947266 C 16.166794 28.68745 16 28.262543 16 27.5 C 16 26.847489 16.675061 24.904354 17.40625 23.345703 C 17.705181 22.708481 17.754514 22.658104 18.003906 22.179688 z M 8.6484375 22.699219 C 9.204186 22.900424 9.2757967 22.905925 9.9746094 23.185547 C 10.860198 23.539905 11.787447 23.940764 12.566406 24.333984 C 13.345365 24.727205 13.986911 25.14902 14.201172 25.363281 C 14.267625 25.429735 14.299349 25.486886 14.355469 25.550781 C 14.150883 26.221099 14 26.882236 14 27.5 C 14 27.709405 14.060348 27.88218 14.080078 28.080078 C 13.882178 28.060347 13.709405 28 13.5 28 C 12.886449 28 12.230019 28.149388 11.564453 28.351562 C 11.499254 28.293638 11.441486 28.259845 11.373047 28.191406 C 10.931566 27.749925 9.8772372 25.744389 9.1464844 23.994141 C 8.8612971 23.31108 8.855811 23.244409 8.6484375 22.699219 z M 22.003906 26.179688 C 22.623875 27.394827 23.340162 28.909414 23.734375 30.214844 C 23.683093 30.321785 23.645266 30.388197 23.59375 30.498047 C 22.959927 31.849568 22.294522 33.313288 22.078125 34.658203 L 20.396484 32.974609 C 20.181356 32.718239 20 32.291926 20 31.5 C 20 30.847489 20.675061 28.904354 21.40625 27.345703 C 21.705181 26.708481 21.754514 26.658104 22.003906 26.179688 z M 13.5 30 C 14.300278 30 14.73488 30.182276 14.990234 30.400391 L 14.992188 30.398438 L 16.75 32.154297 C 15.372772 32.349673 13.88623 32.941614 12.496094 33.59375 C 12.386271 33.64527 12.319811 33.683091 12.212891 33.734375 C 10.907881 33.340561 9.3945288 32.623754 8.1796875 32.003906 C 8.658104 31.754514 8.708481 31.705181 9.3457031 31.40625 C 10.904354 30.675061 12.847489 30 13.5 30 z M 26 30.189453 C 26.248244 30.666218 26.297113 30.715128 26.59375 31.347656 C 27.324987 32.906898 28 34.850309 28 35.5 C 28 36.420921 27.781301 36.833703 27.503906 37.083984 C 27.226512 37.334266 26.750053 37.5 26 37.5 C 25.267607 37.5 24.799588 37.340067 24.519531 37.099609 L 24.443359 37.023438 C 24.192866 36.768105 24 36.358508 24 35.5 C 24 34.850309 24.675013 32.906898 25.40625 31.347656 C 25.702887 30.715128 25.751756 30.666218 26 30.189453 z M 17.5 34 C 18.300278 34 18.73488 34.182276 18.990234 34.400391 L 18.992188 34.398438 L 20.669922 36.076172 C 19.321812 36.290545 17.853482 36.958091 16.498047 37.59375 C 16.388197 37.645266 16.321785 37.683093 16.214844 37.734375 C 14.909008 37.340155 13.394603 36.623851 12.179688 36.003906 C 12.658103 35.754514 12.708481 35.705181 13.345703 35.40625 C 14.904354 34.675061 16.847489 34 17.5 34 z M 21.5 38 C 22.420921 38 22.833703 38.218699 23.083984 38.496094 C 23.334266 38.773488 23.5 39.249947 23.5 40 C 23.5 40.750053 23.334266 41.226512 23.083984 41.503906 C 22.833703 41.781301 22.420921 42 21.5 42 C 20.850309 42 18.906898 41.324987 17.347656 40.59375 C 16.715128 40.297113 16.666218 40.248244 16.189453 40 C 16.666218 39.751756 16.715128 39.702887 17.347656 39.40625 C 18.906898 38.675013 20.850309 38 21.5 38 z M 25.4375 40.847656 L 30.587891 46 L 19 46 L 19 43.480469 C 19.861034 43.788492 20.712924 44 21.5 44 C 22.785079 44 23.872094 43.617606 24.570312 42.84375 C 25.077089 42.282075 25.332533 41.585523 25.4375 40.847656 z"/></svg>