<svg xmlns="http://www.w3.org/2000/svg"  viewBox="0 0 50 50" width="1000px" height="1000px"><path d="M 25 1 C 20.769531 1 16.84375 1.96875 13.9375 4.1875 C 11.03125 6.40625 9.21875 9.914063 9.21875 14.5625 C 9.21875 19.980469 11.402344 23.792969 13.0625 27.40625 C 13.507813 29.339844 12.929688 30.152344 12.09375 30.75 C 11.207031 31.382813 9.757813 31.609375 8.96875 31.53125 C 6.800781 31.316406 4.96875 29.421875 4.96875 27.46875 C 4.96875 25.898438 5.5 25.4375 5.90625 25.28125 C 6.3125 25.125 6.84375 25.300781 7.125 25.65625 C 7.347656 25.9375 7.496094 26.011719 7.6875 26.125 C 7.878906 26.238281 8.035156 26.347656 8.40625 26.40625 C 8.796875 26.464844 9.300781 26.324219 9.59375 26.03125 C 9.886719 25.738281 9.976563 25.375 10 25.0625 C 10.070313 24.132813 9.628906 23.625 9.46875 23.375 C 8.976563 22.601563 8.21875 21.835938 7.1875 21.375 C 6.671875 21.144531 6.066406 21.015625 5.4375 21.03125 C 4.808594 21.046875 4.144531 21.214844 3.5 21.5625 C 1.121094 22.847656 0 25.246094 0 27.59375 C 0 29.960938 0.695313 33.082031 2.96875 35.5625 C 5.003906 37.78125 8.296875 39.347656 13.15625 39.3125 C 12.921875 39.6875 12.683594 40.03125 12.40625 40.3125 C 11.605469 41.128906 10.527344 41.980469 9.5 42.59375 C 8.472656 43.207031 7.414063 43.53125 7.125 43.53125 C 5.179688 43.53125 4.328125 42.789063 3.71875 42 C 3.414063 41.605469 3.195313 41.210938 3 40.84375 C 2.902344 40.660156 2.828125 40.476563 2.6875 40.28125 C 2.546875 40.085938 2.289063 39.71875 1.65625 39.71875 C 1.320313 39.71875 0.949219 39.816406 0.6875 40.03125 C 0.425781 40.246094 0.300781 40.527344 0.21875 40.75 C 0.0546875 41.199219 0.0625 41.570313 0.0625 41.8125 C 0.0625 43.695313 0.523438 45.441406 1.78125 46.75 C 3.039063 48.058594 4.980469 48.804688 7.625 48.96875 C 13.890625 49.355469 19.304688 45.613281 21.9375 42.09375 C 22.507813 41.328125 23.039063 40.722656 23.53125 40.3125 C 24.003906 39.917969 24.425781 39.707031 25 39.65625 C 25.585938 39.710938 26.03125 39.902344 26.5 40.28125 C 26.988281 40.675781 27.496094 41.273438 28.0625 42.03125 C 30.6875 45.546875 36.101563 49.355469 42.375 48.96875 C 45.019531 48.804688 46.960938 48.058594 48.21875 46.75 C 49.476563 45.441406 49.9375 43.695313 49.9375 41.8125 C 49.9375 41.570313 49.945313 41.199219 49.78125 40.75 C 49.699219 40.527344 49.574219 40.246094 49.3125 40.03125 C 49.050781 39.816406 48.679688 39.71875 48.34375 39.71875 C 47.710938 39.71875 47.453125 40.085938 47.3125 40.28125 C 47.171875 40.476563 47.097656 40.660156 47 40.84375 C 46.804688 41.210938 46.585938 41.605469 46.28125 42 C 45.671875 42.789063 44.820313 43.53125 42.875 43.53125 C 41.949219 43.53125 39.527344 42.675781 37.65625 40.375 C 37.339844 39.988281 37.097656 39.496094 36.875 38.96875 C 41.9375 39.121094 45.289063 37.617188 47.28125 35.40625 C 49.460938 32.984375 50 29.921875 50 27.59375 C 50 26.4375 49.777344 25.175781 49.21875 24.03125 C 48.660156 22.886719 47.722656 21.839844 46.375 21.3125 C 45.449219 20.949219 44.449219 20.9375 43.53125 21.21875 C 42.613281 21.5 41.765625 22.082031 41.21875 22.9375 C 41.113281 23.101563 41.003906 23.3125 40.90625 23.5625 C 40.808594 23.8125 40.707031 24.0625 40.78125 24.53125 C 40.839844 24.917969 41.007813 25.222656 41.28125 25.46875 C 41.554688 25.714844 41.992188 25.914063 42.46875 25.84375 C 43.089844 25.753906 43.328125 25.40625 43.40625 25.34375 C 43.601563 25.183594 44.292969 24.929688 44.5 24.96875 C 44.601563 24.988281 44.609375 24.972656 44.71875 25.15625 C 44.828125 25.339844 44.96875 25.78125 44.96875 26.5625 C 44.96875 28.949219 43.308594 31 41.125 31 C 40.238281 31 38.882813 30.765625 38 30.15625 C 37.117188 29.546875 36.546875 28.746094 36.90625 26.8125 C 37.398438 25.195313 38.121094 23.863281 38.84375 22.40625 C 39.828125 20.425781 40.78125 18.226563 40.78125 15.125 C 40.78125 10.226563 38.972656 6.582031 36.0625 4.28125 C 33.152344 1.980469 29.234375 1 25 1 Z M 25 3 C 28.921875 3 32.378906 3.917969 34.8125 5.84375 C 37.246094 7.769531 38.78125 10.695313 38.78125 15.125 C 38.78125 17.832031 38.015625 19.613281 37.0625 21.53125 C 36.367188 22.933594 35.570313 24.398438 35 26.21875 C 34.988281 26.25 34.976563 26.28125 34.96875 26.3125 C 34.964844 26.324219 34.941406 26.332031 34.9375 26.34375 C 34.9375 26.363281 34.9375 26.386719 34.9375 26.40625 C 34.753906 27.019531 34.582031 27.667969 34.46875 28.375 C 33.582031 33.949219 33.703125 38.71875 36.09375 41.65625 C 38.3125 44.382813 40.988281 45.53125 42.875 45.53125 C 45.3125 45.53125 46.832031 44.40625 47.71875 43.3125 C 47.542969 44.121094 47.292969 44.84375 46.78125 45.375 C 45.972656 46.21875 44.585938 46.824219 42.25 46.96875 C 36.875 47.300781 31.890625 43.832031 29.65625 40.84375 C 29.0625 40.046875 28.476563 39.308594 27.75 38.71875 C 27.023438 38.128906 26.113281 37.695313 25.0625 37.625 C 25.019531 37.621094 24.980469 37.621094 24.9375 37.625 C 23.875 37.695313 22.972656 38.144531 22.25 38.75 C 21.527344 39.355469 20.933594 40.117188 20.34375 40.90625 C 18.113281 43.890625 13.128906 47.300781 7.75 46.96875 C 5.414063 46.824219 4.027344 46.21875 3.21875 45.375 C 2.707031 44.84375 2.457031 44.121094 2.28125 43.3125 C 3.167969 44.40625 4.6875 45.53125 7.125 45.53125 C 8.242188 45.53125 9.320313 45.015625 10.5 44.3125 C 11.679688 43.609375 12.894531 42.6875 13.84375 41.71875 C 16.707031 38.796875 17.570313 33.257813 15.71875 28.53125 C 15.460938 27.867188 15.195313 27.230469 14.90625 26.59375 C 14.894531 26.550781 14.886719 26.511719 14.875 26.46875 C 14.839844 26.308594 14.765625 26.15625 14.65625 26.03125 C 14.644531 26.011719 14.636719 25.988281 14.625 25.96875 C 14.613281 25.957031 14.605469 25.949219 14.59375 25.9375 C 12.984375 22.472656 11.21875 19.152344 11.21875 14.5625 C 11.21875 10.414063 12.71875 7.640625 15.15625 5.78125 C 17.59375 3.921875 21.074219 3 25 3 Z M 21.3125 14.875 C 20.292969 14.875 19.46875 16.101563 19.46875 17.625 C 19.46875 19.148438 20.292969 20.40625 21.3125 20.40625 C 22.332031 20.40625 23.15625 19.148438 23.15625 17.625 C 23.15625 16.101563 22.332031 14.875 21.3125 14.875 Z M 28.6875 14.875 C 27.667969 14.875 26.84375 16.101563 26.84375 17.625 C 26.84375 19.148438 27.667969 20.40625 28.6875 20.40625 C 29.707031 20.40625 30.53125 19.148438 30.53125 17.625 C 30.53125 16.101563 29.707031 14.875 28.6875 14.875 Z M 5.5 23 C 5.808594 22.992188 6.09375 23.0625 6.375 23.1875 C 6.453125 23.222656 6.484375 23.332031 6.5625 23.375 C 6.097656 23.324219 5.621094 23.226563 5.15625 23.40625 C 3.875 23.902344 2.96875 25.382813 2.96875 27.46875 C 2.96875 30.59375 5.617188 33.183594 8.78125 33.5 C 10.027344 33.625 11.78125 33.457031 13.25 32.40625 C 13.695313 32.089844 14.09375 31.6875 14.40625 31.1875 C 14.8125 33.289063 14.628906 35.472656 14.0625 37.28125 C 9.097656 37.539063 6.1875 36.128906 4.4375 34.21875 C 2.605469 32.21875 2 29.5625 2 27.59375 C 2 25.855469 2.75 24.242188 4.46875 23.3125 C 4.863281 23.097656 5.191406 23.007813 5.5 23 Z M 45.40625 23.15625 C 45.496094 23.144531 45.574219 23.15625 45.65625 23.1875 C 46.476563 23.507813 47.015625 24.105469 47.40625 24.90625 C 47.796875 25.707031 48 26.707031 48 27.59375 C 48 29.601563 47.5 32.183594 45.78125 34.09375 C 44.140625 35.917969 41.316406 37.25 36.28125 36.9375 C 35.992188 35.332031 35.953125 33.382813 36.15625 31.1875 C 36.378906 31.421875 36.621094 31.636719 36.875 31.8125 C 38.285156 32.78125 39.941406 33 41.125 33 C 44.53125 33 46.96875 29.90625 46.96875 26.5625 C 46.96875 25.558594 46.804688 24.78125 46.4375 24.15625 C 46.128906 23.632813 45.625 23.359375 45.125 23.1875 C 45.214844 23.199219 45.316406 23.167969 45.40625 23.15625 Z"/></svg>