<svg fill="#000000" xmlns="http://www.w3.org/2000/svg"  viewBox="0 0 50 50" width="1000px" height="1000px"><path d="M 25.03125 2 C 24.539063 2.078125 24.179688 2.503906 24.1875 3 C 24.1875 12.015625 28.542969 18.5625 29.78125 20.25 C 29.558594 20.367188 29.347656 20.5 29.125 20.625 C 29.128906 20.425781 29.074219 20.230469 28.96875 20.0625 C 24.832031 13.773438 18.8125 10 7 10 C 6.96875 10 6.9375 10 6.90625 10 C 6.589844 10.027344 6.300781 10.203125 6.136719 10.472656 C 5.96875 10.746094 5.941406 11.078125 6.0625 11.375 C 8.921875 18.519531 14.640625 21.171875 19.46875 21.90625 C 22.777344 22.410156 25.625 22.050781 27.15625 21.78125 C 25.554688 22.832031 24 24.074219 22.5625 25.53125 C 22.488281 25.605469 22.425781 25.6875 22.375 25.78125 C 22.183594 25.636719 21.984375 25.503906 21.78125 25.375 C 20.558594 24.59375 19.203125 24.152344 17.8125 24.03125 C 13.644531 23.671875 9.101563 26.136719 6.34375 30.46875 C 2.667969 36.242188 3.332031 43.5 8.21875 46.625 C 13.105469 49.75 19.980469 47.304688 23.65625 41.53125 C 26.757813 36.660156 26.757813 30.734375 23.75 27.125 C 23.84375 27.074219 23.925781 27.011719 24 26.9375 C 31.496094 19.355469 43.03125 18.03125 43.03125 18.03125 C 43.582031 17.972656 43.984375 17.472656 43.921875 16.921875 C 43.863281 16.371094 43.363281 15.96875 42.8125 16.03125 C 42.8125 16.03125 38.066406 16.523438 32.53125 18.90625 C 34.054688 15.0625 33.953125 11.523438 32.75 8.6875 C 31.375 5.449219 28.628906 3.136719 25.53125 2.0625 C 25.371094 2 25.199219 1.976563 25.03125 2 Z M 26.4375 4.84375 C 28.332031 5.894531 30.019531 7.378906 30.90625 9.46875 C 31.871094 11.738281 31.949219 14.59375 30.71875 17.875 C 29.53125 16.199219 26.96875 11.90625 26.4375 4.84375 Z M 8.78125 12.15625 C 17.949219 12.492188 22.765625 15.210938 26.28125 19.90625 C 24.847656 20.136719 22.675781 20.351563 19.75 19.90625 C 15.777344 19.300781 11.488281 17.316406 8.78125 12.15625 Z M 37.4375 22 C 36.765625 21.980469 36.085938 22.039063 35.40625 22.1875 C 29.957031 23.390625 26.929688 29.722656 28.34375 36.125 C 29.757813 42.527344 35.144531 47.015625 40.59375 45.8125 C 46.042969 44.609375 49.070313 38.277344 47.65625 31.875 C 46.417969 26.273438 42.140625 22.140625 37.4375 22 Z M 36.59375 24.03125 C 40.5 23.6875 44.535156 27.101563 45.6875 32.3125 C 46.917969 37.871094 44.316406 42.933594 40.1875 43.84375 C 36.058594 44.753906 31.542969 41.246094 30.3125 35.6875 C 29.082031 30.128906 31.683594 25.066406 35.8125 24.15625 C 36.070313 24.097656 36.332031 24.054688 36.59375 24.03125 Z M 16.96875 26 C 17.179688 26 17.386719 26.015625 17.59375 26.03125 C 18.707031 26.117188 19.75 26.464844 20.6875 27.0625 C 24.433594 29.460938 25.179688 35.421875 21.96875 40.46875 C 18.757813 45.515625 13.058594 47.335938 9.3125 44.9375 C 5.566406 42.539063 4.820313 36.578125 8.03125 31.53125 C 10.289063 27.984375 13.789063 26.019531 16.96875 26 Z M 35.28125 27.34375 C 35.195313 27.363281 35.109375 27.394531 35.03125 27.4375 C 32.773438 28.445313 32.125 31.335938 33.21875 33.78125 C 33.636719 34.710938 34.261719 35.503906 35 36.0625 C 35.28125 36.324219 35.6875 36.402344 36.042969 36.265625 C 36.402344 36.125 36.652344 35.796875 36.679688 35.410156 C 36.710938 35.027344 36.519531 34.664063 36.1875 34.46875 C 35.730469 34.125 35.3125 33.597656 35.03125 32.96875 C 34.289063 31.3125 34.816406 29.707031 35.84375 29.25 C 36.3125 29.050781 36.558594 28.535156 36.414063 28.046875 C 36.269531 27.558594 35.78125 27.253906 35.28125 27.34375 Z M 14.71875 28.9375 C 13.359375 29.039063 12.019531 29.910156 11.1875 31.21875 C 10.453125 32.371094 10.195313 33.6875 10.46875 34.875 C 10.527344 35.246094 10.789063 35.554688 11.148438 35.671875 C 11.507813 35.789063 11.902344 35.691406 12.167969 35.425781 C 12.433594 35.160156 12.523438 34.765625 12.40625 34.40625 C 12.269531 33.8125 12.410156 33.011719 12.875 32.28125 C 13.679688 31.019531 14.988281 30.6875 15.71875 31.15625 C 16.019531 31.378906 16.421875 31.417969 16.757813 31.25 C 17.097656 31.082031 17.3125 30.742188 17.316406 30.367188 C 17.320313 29.992188 17.113281 29.644531 16.78125 29.46875 C 16.3125 29.171875 15.828125 28.984375 15.3125 28.9375 C 15.121094 28.917969 14.914063 28.921875 14.71875 28.9375 Z"/></svg>