<svg xmlns="http://www.w3.org/2000/svg"  viewBox="0 0 50 50" width="1000px" height="1000px"><path d="M 19.8125 2 C 19.335938 2.089844 18.992188 2.511719 19 3 L 19 6 L 17 6 C 16.96875 6 16.9375 6 16.90625 6 C 16.355469 6.027344 15.925781 6.496094 15.953125 7.046875 C 15.980469 7.597656 16.449219 8.027344 17 8 L 17 14 C 17 16.261719 14.703125 19.292969 12.1875 22.6875 C 9.671875 26.082031 7 29.929688 7 34.375 C 7 42.914063 13.15625 47.78125 13.15625 47.78125 C 13.332031 47.921875 13.554688 48 13.78125 48 L 32.21875 48 C 32.457031 48.007813 32.6875 47.929688 32.875 47.78125 C 32.875 47.78125 39 42.726563 39 34.375 C 39 31.714844 38.007813 29.253906 36.65625 26.96875 C 39.691406 26.40625 42 23.722656 42 20.53125 C 42 16.933594 39.070313 14 35.46875 14 C 33.136719 14 31.117188 15.242188 29.96875 17.09375 C 29.378906 15.960938 29 14.921875 29 14 L 29 8 C 29.359375 8.003906 29.695313 7.816406 29.878906 7.503906 C 30.058594 7.191406 30.058594 6.808594 29.878906 6.496094 C 29.695313 6.183594 29.359375 5.996094 29 6 L 27 6 L 27 3 C 27 2.449219 26.550781 2 26 2 L 20 2 C 19.96875 2 19.9375 2 19.90625 2 C 19.875 2 19.84375 2 19.8125 2 Z M 21 4 L 25 4 L 25 6 L 21 6 Z M 19 8 L 27 8 L 27 14 C 27 17.476563 29.703125 20.636719 32.1875 24 C 33.636719 25.964844 35.027344 27.96875 35.9375 30 L 10.03125 30 C 10.941406 27.917969 12.339844 25.890625 13.8125 23.90625 C 16.296875 20.554688 19 17.433594 19 14 Z M 35.46875 16 C 37.988281 16 40 18.015625 40 20.53125 C 40 23.046875 37.988281 25.0625 35.46875 25.0625 C 35.457031 25.0625 35.421875 25.0625 35.40625 25.0625 C 34.882813 24.296875 34.351563 23.539063 33.8125 22.8125 C 32.859375 21.523438 31.933594 20.300781 31.15625 19.125 C 31.746094 17.308594 33.445313 16 35.46875 16 Z M 9.34375 32 L 36.65625 32 C 36.871094 32.792969 37 33.582031 37 34.375 C 37 41.496094 32.128906 45.703125 31.78125 46 L 14.1875 46 C 13.835938 45.710938 9 41.691406 9 34.375 C 9 33.574219 9.140625 32.789063 9.34375 32 Z"/></svg>