<svg xmlns="http://www.w3.org/2000/svg"  viewBox="0 0 50 50" width="1000px" height="1000px"><path d="M 25 2 C 12.308594 2 2 12.308594 2 25 C 2 37.691406 12.308594 48 25 48 C 37.691406 48 48 37.691406 48 25 C 48 12.308594 37.691406 2 25 2 Z M 25 4 C 36.609375 4 46 13.390625 46 25 C 46 36.609375 36.609375 46 25 46 C 13.390625 46 4 36.609375 4 25 C 4 13.390625 13.390625 4 25 4 Z M 24.921875 7 C 20.339844 7 16.148438 8.695313 12.960938 11.484375 L 12.953125 11.488281 L 11.90625 12.453125 L 11.894531 12.457031 C 10.640625 13.65625 10.785156 15.6875 12.019531 16.945313 L 12.148438 17.078125 C 11.742188 17.128906 11.351563 17.210938 10.992188 17.351563 C 9.90625 17.777344 9 18.761719 9 20 C 9 20.582031 9.074219 21.042969 9.230469 21.425781 C 9.386719 21.8125 9.625 22.085938 9.75 22.226563 C 9.875 22.367188 9.886719 22.375 9.917969 22.453125 C 9.949219 22.527344 10 22.707031 10 23.125 C 10 23.171875 10.007813 23.179688 9.914063 23.296875 C 9.816406 23.410156 9.617188 23.582031 9.367188 23.785156 C 9.117188 23.988281 8.816406 24.222656 8.539063 24.566406 C 8.257813 24.914063 8 25.421875 8 26 C 8 26.429688 8.105469 26.871094 8.367188 27.222656 C 8.628906 27.578125 9.003906 27.785156 9.328125 27.886719 C 9.980469 28.089844 10.53125 28.023438 11 28.027344 C 11.464844 28.027344 11.808594 28.09375 11.882813 28.136719 C 11.957031 28.175781 12 28.097656 12 28.625 C 12 28.871094 11.960938 28.945313 11.875 29.0625 C 11.789063 29.179688 11.621094 29.332031 11.371094 29.535156 C 11.121094 29.738281 10.789063 29.992188 10.5 30.398438 C 10.210938 30.804688 10 31.371094 10 32 C 10 32.78125 10.320313 33.480469 10.75 33.925781 C 11.183594 34.371094 11.667969 34.601563 12.050781 34.796875 C 12.433594 34.988281 12.726563 35.148438 12.855469 35.265625 C 12.980469 35.382813 13 35.375 13 35.625 C 13 36.875 13.585938 37.910156 14.417969 38.417969 C 15.03125 38.789063 15.691406 38.929688 16.328125 38.976563 C 17.015625 40.738281 18.722656 42 20.714844 42 C 21.789063 42 22.710938 41.550781 23.5 40.941406 C 24.289063 41.550781 25.210938 42 26.285156 42 C 27.417969 42 28.445313 41.578125 29.261719 40.90625 C 29.664063 40.96875 30.074219 41 30.5 41 C 32.730469 41 34.007813 39.691406 34.566406 38.933594 C 35.460938 39.066406 36.382813 38.847656 37.074219 38.1875 L 37.082031 38.179688 L 38.195313 37.09375 L 38.214844 37.074219 C 41.183594 33.882813 43 29.609375 43 24.921875 C 43 15.03125 34.890625 7 24.921875 7 Z M 24.921875 9 C 33.816406 9 41 16.121094 41 24.921875 C 41 29.089844 39.390625 32.871094 36.75 35.707031 C 36.75 35.710938 36.75 35.710938 36.75 35.714844 L 35.691406 36.742188 C 35.277344 37.140625 34.605469 37.136719 34 36.519531 L 13.449219 15.546875 C 12.84375 14.929688 12.859375 14.304688 13.277344 13.90625 L 14.277344 12.988281 L 14.28125 12.984375 C 17.113281 10.503906 20.835938 9 24.921875 9 Z M 27 12 C 26.449219 12 26 12.449219 26 13 C 26 13.550781 26.449219 14 27 14 C 27.550781 14 28 13.550781 28 13 C 28 12.449219 27.550781 12 27 12 Z M 30 14 C 29.449219 14 29 14.449219 29 15 C 29 15.550781 29.449219 16 30 16 C 30.550781 16 31 15.550781 31 15 C 31 14.449219 30.550781 14 30 14 Z M 27 16 C 26.449219 16 26 16.449219 26 17 C 26 17.550781 26.449219 18 27 18 C 27.550781 18 28 17.550781 28 17 C 28 16.449219 27.550781 16 27 16 Z M 12.8125 19.019531 C 13.238281 19.015625 13.722656 19.070313 14.230469 19.214844 L 14.234375 19.203125 L 16.972656 22 C 16.714844 22.164063 16.460938 22.34375 16.234375 22.570313 C 14.628906 24.179688 14.628906 26.820313 16.234375 28.429688 C 16.445313 28.636719 16.671875 28.808594 16.910156 28.960938 C 16.34375 29.738281 16 30.6875 16 31.714844 C 16 32.789063 16.449219 33.710938 17.058594 34.5 C 16.523438 35.191406 16.132813 35.996094 16.039063 36.90625 C 15.800781 36.859375 15.59375 36.792969 15.457031 36.707031 C 15.164063 36.527344 15 36.375 15 35.625 C 15 34.875 14.644531 34.195313 14.207031 33.792969 C 13.773438 33.390625 13.316406 33.191406 12.949219 33.007813 C 12.582031 32.824219 12.316406 32.664063 12.1875 32.53125 C 12.054688 32.398438 12 32.335938 12 32 C 12 31.753906 12.039063 31.679688 12.125 31.5625 C 12.210938 31.445313 12.378906 31.292969 12.628906 31.089844 C 12.878906 30.886719 13.210938 30.632813 13.5 30.226563 C 13.789063 29.820313 14 29.253906 14 28.625 C 14 27.652344 13.542969 26.777344 12.867188 26.390625 C 12.191406 26.007813 11.535156 26.027344 11 26.027344 C 10.511719 26.023438 10.152344 26.007813 10.011719 25.980469 C 10.007813 25.945313 10.003906 25.933594 10.089844 25.828125 C 10.183594 25.714844 10.378906 25.542969 10.628906 25.339844 C 10.878906 25.136719 11.183594 24.902344 11.464844 24.558594 C 11.742188 24.210938 12 23.703125 12 23.125 C 12 22.542969 11.925781 22.082031 11.769531 21.699219 C 11.613281 21.3125 11.375 21.039063 11.25 20.898438 C 11.125 20.757813 11.113281 20.75 11.082031 20.671875 C 11.050781 20.597656 11 20.417969 11 20 C 11 19.664063 11.152344 19.4375 11.722656 19.214844 C 12.007813 19.101563 12.382813 19.027344 12.8125 19.019531 Z M 18.441406 23.5 L 22.144531 27.28125 C 21.703125 27.105469 21.226563 27 20.714844 27 C 19.945313 27 19.230469 27.207031 18.589844 27.535156 C 18.242188 27.441406 17.921875 27.285156 17.652344 27.015625 C 16.808594 26.171875 16.808594 24.828125 17.652344 23.984375 C 17.882813 23.753906 18.152344 23.597656 18.441406 23.5 Z M 33 27 C 32.449219 27 32 27.449219 32 28 C 32 28.550781 32.449219 29 33 29 C 33.550781 29 34 28.550781 34 28 C 34 27.449219 33.550781 27 33 27 Z M 20.714844 29 C 21.527344 29 22.242188 29.363281 22.746094 29.941406 C 22.9375 30.160156 23.210938 30.285156 23.5 30.285156 C 23.789063 30.285156 24.0625 30.160156 24.253906 29.941406 C 24.332031 29.851563 24.425781 29.773438 24.515625 29.695313 L 28.269531 33.53125 C 28.203125 33.601563 28.136719 33.679688 28.0625 33.746094 C 27.84375 33.9375 27.71875 34.210938 27.71875 34.5 C 27.71875 34.789063 27.839844 35.0625 28.058594 35.25 C 28.636719 35.757813 29 36.472656 29 37.285156 C 29 38.789063 27.789063 40 26.285156 40 C 25.472656 40 24.757813 39.636719 24.25 39.058594 C 24.0625 38.84375 23.789063 38.71875 23.5 38.71875 C 23.210938 38.71875 22.9375 38.84375 22.75 39.058594 C 22.242188 39.636719 21.527344 40 20.714844 40 C 19.210938 40 18 38.789063 18 37.285156 C 18 36.472656 18.363281 35.757813 18.941406 35.25 C 19.15625 35.0625 19.28125 34.789063 19.28125 34.5 C 19.28125 34.210938 19.15625 33.9375 18.941406 33.75 C 18.363281 33.242188 18 32.527344 18 31.714844 C 18 30.210938 19.210938 29 20.714844 29 Z M 36 29 C 35.449219 29 35 29.449219 35 30 C 35 30.550781 35.449219 31 36 31 C 36.550781 31 37 30.550781 37 30 C 37 29.449219 36.550781 29 36 29 Z M 33 30 C 32.449219 30 32 30.449219 32 31 C 32 31.550781 32.449219 32 33 32 C 33.550781 32 34 31.550781 34 31 C 34 30.449219 33.550781 30 33 30 Z M 30.796875 36.109375 L 32.574219 37.917969 C 32.636719 37.984375 32.710938 38.035156 32.777344 38.09375 C 32.457031 38.476563 31.820313 38.9375 30.667969 38.984375 C 30.875 38.453125 31 37.882813 31 37.285156 C 31 36.867188 30.914063 36.480469 30.796875 36.109375 Z"/></svg>