<svg fill="#000000" xmlns="http://www.w3.org/2000/svg"  viewBox="0 0 50 50" width="1000px" height="1000px"><path d="M 18 0 C 18 3.445313 15.210938 6.828125 12.1875 10.875 C 9.164063 14.921875 6 19.667969 6 26 C 6 34.980469 12.335938 42.550781 20.75 44.5 L 19.5625 45.09375 C 19.0625 45.335938 18.851563 45.9375 19.09375 46.4375 C 19.335938 46.9375 19.9375 47.148438 20.4375 46.90625 L 21.75 46.25 L 21.09375 47.5625 C 20.851563 48.0625 21.0625 48.664063 21.5625 48.90625 C 22.0625 49.148438 22.664063 48.9375 22.90625 48.4375 L 24 46.21875 L 24 49 C 23.996094 49.359375 24.183594 49.695313 24.496094 49.878906 C 24.808594 50.058594 25.191406 50.058594 25.503906 49.878906 C 25.816406 49.695313 26.003906 49.359375 26 49 L 26 46.21875 L 27.09375 48.4375 C 27.335938 48.9375 27.9375 49.148438 28.4375 48.90625 C 28.9375 48.664063 29.148438 48.0625 28.90625 47.5625 L 28.25 46.25 L 29.5625 46.90625 C 30.0625 47.148438 30.664063 46.9375 30.90625 46.4375 C 31.148438 45.9375 30.9375 45.335938 30.4375 45.09375 L 29.25 44.5 C 37.664063 42.550781 44 34.980469 44 26 C 44 19.667969 40.835938 14.921875 37.8125 10.875 C 34.789063 6.828125 32 3.445313 32 0 L 30 0 C 30 4.457031 33.210938 8.082031 36.1875 12.0625 C 39.164063 16.042969 42 20.332031 42 26 C 42 35.289063 34.457031 42.898438 25.1875 43 C 25.175781 43 25.167969 43 25.15625 43 C 25.042969 42.980469 24.925781 42.980469 24.8125 43 C 24.800781 43 24.792969 43 24.78125 43 C 24.652344 43 24.53125 42.972656 24.40625 42.96875 C 24.363281 42.96875 24.324219 42.96875 24.28125 42.96875 C 24.230469 42.953125 24.179688 42.945313 24.125 42.9375 C 24.105469 42.9375 24.082031 42.9375 24.0625 42.9375 C 24.050781 42.9375 24.042969 42.9375 24.03125 42.9375 C 15.128906 42.425781 8 35.023438 8 26 C 8 20.332031 10.835938 16.042969 13.8125 12.0625 C 16.789063 8.082031 20 4.457031 20 0 Z M 25 0.71875 L 24.1875 1.8125 C 21.726563 5.109375 18.230469 9.085938 15.3125 13.25 C 12.394531 17.414063 10 21.761719 10 26 C 10 34.246094 16.753906 41 25 41 C 33.246094 41 40 34.246094 40 26 C 40 21.742188 37.5 17.324219 34.53125 13.125 C 31.5625 8.925781 28.0625 4.941406 25.8125 1.8125 Z M 25 4.03125 C 27.308594 7.109375 30.292969 10.585938 32.90625 14.28125 C 35.789063 18.359375 38 22.558594 38 26 C 38 33.15625 32.15625 39 25 39 C 17.84375 39 12 33.15625 12 26 C 12 22.539063 14.105469 18.441406 16.9375 14.40625 C 19.511719 10.738281 22.546875 7.214844 25 4.03125 Z M 25 7.375 L 24.21875 8.375 C 22.441406 10.597656 19.910156 13.496094 17.8125 16.5625 C 15.714844 19.628906 14 22.863281 14 26 C 14 32.046875 18.953125 37 25 37 C 31.046875 37 36 32.046875 36 26 C 36 22.835938 34.175781 19.519531 32.03125 16.40625 C 29.886719 13.292969 27.347656 10.382813 25.78125 8.375 Z M 25 10.625 C 26.59375 12.609375 28.578125 14.921875 30.375 17.53125 C 32.429688 20.519531 34 23.664063 34 26 C 34 30.953125 29.953125 35 25 35 C 20.046875 35 16 30.953125 16 26 C 16 23.636719 17.464844 20.621094 19.46875 17.6875 C 21.222656 15.117188 23.277344 12.738281 25 10.625 Z M 25 14.1875 L 24.21875 15.1875 C 23.199219 16.5 21.65625 18.230469 20.375 20.09375 C 19.09375 21.957031 18 23.957031 18 26 C 18 29.84375 21.15625 33 25 33 C 28.84375 33 32 29.84375 32 26 C 32 23.9375 30.835938 21.902344 29.53125 20 C 28.226563 18.097656 26.703125 16.351563 25.78125 15.1875 Z M 25 17.40625 C 25.910156 18.519531 26.914063 19.726563 27.875 21.125 C 29.09375 22.898438 30 24.765625 30 26 C 30 28.753906 27.753906 31 25 31 C 22.246094 31 20 28.753906 20 26 C 20 24.742188 20.839844 22.984375 22.03125 21.25 C 22.976563 19.875 24.035156 18.601563 25 17.40625 Z M 25 20.9375 L 24.21875 22 C 23.898438 22.410156 23.363281 22.992188 22.90625 23.65625 C 22.449219 24.320313 22 25.054688 22 26 C 22 27.644531 23.355469 29 25 29 C 26.644531 29 28 27.644531 28 26 C 28 25.027344 27.5 24.296875 27.03125 23.625 C 26.5625 22.953125 26.070313 22.339844 25.8125 22 Z M 25 24.21875 C 25.140625 24.402344 25.277344 24.5625 25.40625 24.75 C 25.789063 25.300781 26 25.875 26 26 C 26 26.554688 25.554688 27 25 27 C 24.445313 27 24 26.554688 24 26 C 24 25.84375 24.195313 25.316406 24.5625 24.78125 C 24.695313 24.589844 24.847656 24.414063 25 24.21875 Z"/></svg>