<svg fill="#000000" xmlns="http://www.w3.org/2000/svg"  viewBox="0 0 50 50" width="1000px" height="1000px"><path d="M 41.064453 3 C 33.029618 3 28.628162 6.1886391 26.40625 9.4277344 C 25.813276 10.29217 25.377897 11.153548 25.046875 11.960938 C 24.057744 9.5053001 22.654297 8.2441406 22.654297 8.2441406 L 21.345703 9.7558594 C 21.345703 9.7558594 24 11.963959 24 17 L 26 17 C 26 16.993298 26.000009 16.987163 26 16.980469 C 27.269913 16.953641 29.615791 16.768597 32.236328 15.761719 C 32.672394 15.594171 33.116359 15.395278 33.560547 15.177734 C 34.168223 15.511801 34.752451 15.879867 35.308594 16.279297 A 1 1 0 0 0 35 17 A 1 1 0 0 0 36 18 A 1 1 0 0 0 36.847656 17.53125 C 37.36867 18.007638 37.856048 18.515665 38.308594 19.050781 A 1 1 0 0 0 38 19 A 1 1 0 0 0 37 20 A 1 1 0 0 0 38 21 A 1 1 0 0 0 39 20 A 1 1 0 0 0 38.996094 19.917969 C 39.492118 20.593505 39.930269 21.307604 40.3125 22.052734 A 1 1 0 0 0 40 22 A 1 1 0 0 0 39 23 A 1 1 0 0 0 40 24 A 1 1 0 0 0 40.917969 23.392578 C 41.143719 23.960351 41.337261 24.542448 41.494141 25.138672 A 1 1 0 0 0 41 26 A 1 1 0 0 0 41.861328 26.990234 C 41.948964 27.649113 42 28.318732 42 29 C 42 29.682671 41.939673 30.351211 41.851562 31.011719 A 1 1 0 0 0 41 32 A 1 1 0 0 0 41.482422 32.855469 C 41.326313 33.449042 41.136396 34.028205 40.912109 34.59375 A 1 1 0 0 0 40 34 A 1 1 0 0 0 39 35 A 1 1 0 0 0 40 36 A 1 1 0 0 0 40.294922 35.955078 C 39.915701 36.693343 39.488708 37.406257 38.998047 38.076172 A 1 1 0 0 0 39 38 A 1 1 0 0 0 38 37 A 1 1 0 0 0 37 38 A 1 1 0 0 0 38 39 A 1 1 0 0 0 38.302734 38.951172 C 37.85049 39.486601 37.36619 39.994247 36.845703 40.470703 A 1 1 0 0 0 36 40 A 1 1 0 0 0 35 41 A 1 1 0 0 0 35.300781 41.712891 C 34.001244 42.647019 32.556566 43.406179 30.998047 43.958984 A 1 1 0 0 0 30 43 A 1 1 0 0 0 29 44 A 1 1 0 0 0 29.138672 44.503906 C 28.234267 44.716551 27.304227 44.866999 26.347656 44.9375 A 1 1 0 0 0 27 44 A 1 1 0 0 0 26 43 A 1 1 0 0 0 25 44 A 1 1 0 0 0 25.742188 44.964844 C 25.49411 44.974902 25.250817 45 25 45 C 24.173244 45 23.368386 44.925068 22.574219 44.818359 A 1 1 0 0 0 23 44 A 1 1 0 0 0 22 43 A 1 1 0 0 0 21 44 A 1 1 0 0 0 21.1875 44.582031 C 20.436348 44.420235 19.706831 44.208829 18.998047 43.957031 A 1 1 0 0 0 18 43 A 1 1 0 0 0 17.322266 43.265625 C 11.813148 40.634941 8.0460463 35.275676 8.0097656 29.087891 L 8.0097656 29.083984 A 1.0001 1.0001 0 0 0 8.0058594 28.882812 C 8.0642835 21.317777 13.718493 14.961482 21.341797 13.388672 C 20.977797 12.477672 20.558969 11.877641 20.292969 11.556641 C 12.3712 13.464622 6.5054842 20.076084 6.0449219 28 L 6 28 L 6 29 C 6 38.96123 14.548589 47 25 47 C 35.451411 47 44 38.96123 44 29 C 44 22.748921 40.62754 17.243683 35.539062 14.023438 C 38.295157 12.133636 40.846573 9.075908 42.035156 4.2382812 A 1.0001 1.0001 0 0 0 41.064453 3 z M 39.574219 5.1445312 C 37.869557 10.219911 34.608773 12.706814 31.517578 13.894531 C 29.108977 14.819978 27.320071 14.938504 26.244141 14.955078 C 26.402481 13.967414 26.761346 12.44687 28.056641 10.558594 C 29.803248 8.0123964 33.155756 5.5206891 39.574219 5.1445312 z M 34 19 A 1 1 0 0 0 33 20 A 1 1 0 0 0 34 21 A 1 1 0 0 0 35 20 A 1 1 0 0 0 34 19 z M 36 22 A 1 1 0 0 0 35 23 A 1 1 0 0 0 36 24 A 1 1 0 0 0 37 23 A 1 1 0 0 0 36 22 z M 34 25 A 1 1 0 0 0 33 26 A 1 1 0 0 0 34 27 A 1 1 0 0 0 35 26 A 1 1 0 0 0 34 25 z M 38 25 A 1 1 0 0 0 37 26 A 1 1 0 0 0 38 27 A 1 1 0 0 0 39 26 A 1 1 0 0 0 38 25 z M 36 28 A 1 1 0 0 0 35 29 A 1 1 0 0 0 36 30 A 1 1 0 0 0 37 29 A 1 1 0 0 0 36 28 z M 40 28 A 1 1 0 0 0 39 29 A 1 1 0 0 0 40 30 A 1 1 0 0 0 41 29 A 1 1 0 0 0 40 28 z M 34 31 A 1 1 0 0 0 33 32 A 1 1 0 0 0 34 33 A 1 1 0 0 0 35 32 A 1 1 0 0 0 34 31 z M 38 31 A 1 1 0 0 0 37 32 A 1 1 0 0 0 38 33 A 1 1 0 0 0 39 32 A 1 1 0 0 0 38 31 z M 32 34 A 1 1 0 0 0 31 35 A 1 1 0 0 0 32 36 A 1 1 0 0 0 33 35 A 1 1 0 0 0 32 34 z M 36 34 A 1 1 0 0 0 35 35 A 1 1 0 0 0 36 36 A 1 1 0 0 0 37 35 A 1 1 0 0 0 36 34 z M 26 37 A 1 1 0 0 0 25 38 A 1 1 0 0 0 26 39 A 1 1 0 0 0 27 38 A 1 1 0 0 0 26 37 z M 30 37 A 1 1 0 0 0 29 38 A 1 1 0 0 0 30 39 A 1 1 0 0 0 31 38 A 1 1 0 0 0 30 37 z M 34 37 A 1 1 0 0 0 33 38 A 1 1 0 0 0 34 39 A 1 1 0 0 0 35 38 A 1 1 0 0 0 34 37 z M 20 40 A 1 1 0 0 0 19 41 A 1 1 0 0 0 20 42 A 1 1 0 0 0 21 41 A 1 1 0 0 0 20 40 z M 24 40 A 1 1 0 0 0 23 41 A 1 1 0 0 0 24 42 A 1 1 0 0 0 25 41 A 1 1 0 0 0 24 40 z M 28 40 A 1 1 0 0 0 27 41 A 1 1 0 0 0 28 42 A 1 1 0 0 0 29 41 A 1 1 0 0 0 28 40 z M 32 40 A 1 1 0 0 0 31 41 A 1 1 0 0 0 32 42 A 1 1 0 0 0 33 41 A 1 1 0 0 0 32 40 z"/></svg>