<svg xmlns="http://www.w3.org/2000/svg"  viewBox="0 0 50 50" width="1000px" height="1000px"><path d="M 32 1 C 29.820369 1 28 2.7408077 28 4.9023438 L 28 7.296875 L 27.78125 7.0742188 C 27.103835 6.3828796 26.200115 6.0409068 25.296875 6.0449219 C 24.393635 6.0489319 23.491231 6.397994 22.8125 7.0898438 A 1.0001 1.0001 0 0 0 22.8125 7.0917969 L 21.027344 8.9101562 A 1.0001 1.0001 0 0 0 21.027344 8.9121094 C 19.671378 10.297073 19.655035 12.541249 21.009766 13.923828 A 1.0001 1.0001 0 0 0 21.011719 13.923828 L 21.628906 14.554688 C 19.402192 17.156097 18.135498 20.887538 18.023438 25.039062 C 16.980955 24.193475 15.433676 23.392913 13.498047 22.794922 C 12.368016 22.445812 11.124082 22.178244 9.8222656 22.066406 C 8.5204488 21.954569 7.1619291 21.998083 5.8046875 22.269531 A 1.0001 1.0001 0 0 0 5.21875 23.875 C 8.7791204 28.325462 9.5613843 30.344661 10.980469 32 L 10 32 A 1.0001 1.0001 0 0 0 9.0097656 33.138672 L 11.259766 49.138672 A 1.0001 1.0001 0 0 0 12.25 50 L 25.75 50 A 1.0001 1.0001 0 0 0 26.740234 49.138672 L 28.990234 33.138672 A 1.0001 1.0001 0 0 0 28 32 L 20 32 L 20 29.044922 L 20 25.636719 C 20 21.708599 21.163709 18.245984 23.042969 15.966797 C 23.339473 16.234428 23.666323 16.451763 24.019531 16.597656 L 23.408203 17.769531 C 22.515814 19.47644 23.14637 21.618876 24.835938 22.539062 L 24.835938 22.537109 C 26.525084 23.457827 28.666541 22.789776 29.560547 21.082031 L 31.359375 17.945312 C 31.572542 17.980726 31.791993 18 32.015625 18 C 32.240386 18 32.457867 17.970649 32.673828 17.935547 L 34.439453 21.082031 C 35.333262 22.7894 37.474497 23.457294 39.164062 22.537109 C 40.8542 21.616614 41.485512 19.474768 40.591797 17.767578 A 1.0001 1.0001 0 0 0 40.587891 17.759766 L 39.982422 16.625 C 40.37884 16.453633 40.750654 16.210686 41.070312 15.884766 L 42.986328 13.929688 C 44.334218 12.554006 44.334803 10.322154 42.986328 8.9472656 L 41.121094 7.0429688 A 1.0001 1.0001 0 0 0 41.119141 7.0410156 C 40.445093 6.3537136 39.548309 6.0117187 38.650391 6.0117188 C 37.756507 6.0117188 36.862517 6.3520664 36.189453 7.0332031 L 36.185547 7.0371094 C 36.183847 7.0388494 36.181487 7.0392656 36.179688 7.0410156 L 36 7.2207031 L 36 4.9023438 C 36 2.7408077 34.179631 1 32 1 z M 32 3 C 33.134369 3 34 3.8578798 34 4.9023438 L 34 8.5273438 C 33.408909 8.1993175 32.733257 8 32.013672 8 C 31.28293 8 30.597338 8.2054251 30 8.5429688 L 30 4.9023438 C 30 3.8578798 30.865631 3 32 3 z M 38.648438 7.9882812 C 39.021481 7.9882812 39.395501 8.139705 39.691406 8.4414062 L 41.558594 10.347656 C 42.150119 10.950768 42.150704 11.924979 41.558594 12.529297 L 39.642578 14.484375 C 39.050768 15.087777 38.150404 15.087777 37.558594 14.484375 A 1.0001 1.0001 0 0 0 37.544922 14.46875 L 36 12.957031 L 36 11.800781 C 36 11.284681 35.888159 10.795434 35.693359 10.349609 L 37.599609 8.4511719 A 1.0001 1.0001 0 0 0 37.607422 8.4414062 C 37.903327 8.139705 38.275394 7.9882812 38.648438 7.9882812 z M 25.302734 8.0253906 C 25.681091 8.0231185 26.05793 8.1729484 26.353516 8.4746094 L 28.298828 10.457031 C 28.131427 10.874714 28.027344 11.324381 28.027344 11.800781 L 28.027344 12.785156 A 1.0001 1.0001 0 0 0 27.988281 12.824219 L 26.425781 14.417969 C 25.817243 15.038269 24.90367 15.038867 24.3125 14.435547 L 23.839844 13.951172 A 1.0001 1.0001 0 0 0 23.583984 13.691406 L 22.439453 12.523438 C 21.848185 11.920015 21.848995 10.931584 22.457031 10.310547 L 24.240234 8.4921875 C 24.544504 8.1820372 24.924378 8.0276628 25.302734 8.0253906 z M 32.013672 10 C 33.155698 10 34 10.831323 34 11.800781 L 34 14.199219 C 34 15.168677 33.156343 16 32.015625 16 C 31.752096 16 31.506356 15.951109 31.28125 15.871094 A 1.0008794 1.0008794 0 0 0 31.173828 15.832031 C 30.483251 15.542361 30.029297 14.908961 30.029297 14.199219 L 30.029297 13.199219 L 30.027344 13.199219 L 30.027344 11.800781 C 30.027391 10.831323 30.871646 10 32.013672 10 z M 28.302734 15.359375 C 28.541423 16.05262 28.970059 16.657253 29.53125 17.113281 L 27.806641 20.121094 A 1.0001 1.0001 0 0 0 27.787109 20.154297 C 27.389115 20.914552 26.521822 21.178532 25.792969 20.78125 C 25.063105 20.383746 24.781402 19.456122 25.179688 18.695312 A 1.0001 1.0001 0 0 0 25.181641 18.695312 L 26.195312 16.75 C 26.805335 16.600054 27.384273 16.296672 27.853516 15.818359 L 28.302734 15.359375 z M 35.742188 15.503906 L 36.130859 15.884766 C 36.607577 16.37082 37.198945 16.676041 37.820312 16.818359 L 38.820312 18.695312 C 39.218598 19.456122 38.936895 20.383746 38.207031 20.78125 C 37.476597 21.179065 36.611082 20.914928 36.212891 20.154297 A 1.0001 1.0001 0 0 0 36.197266 20.128906 L 34.515625 17.130859 C 35.063388 16.705442 35.491523 16.150834 35.742188 15.503906 z M 9.6542969 24.0625 C 10.794918 24.16057 11.901484 24.394063 12.908203 24.705078 C 14.921641 25.327107 16.559467 26.31692 17.121094 26.878906 C 17.695878 27.453323 17.984907 28.194274 18 28.939453 L 18 29.044922 L 18 29.060547 C 17.984694 29.805725 17.695451 30.546737 17.121094 31.121094 C 16.54681 31.695377 15.805777 31.984808 15.060547 32 L 14.939453 32 C 14.194223 31.984808 13.45319 31.695377 12.878906 31.121094 C 11.710783 29.953718 10.662087 27.866892 7.8789062 24.148438 C 8.4733584 24.120017 9.0688557 24.012167 9.6542969 24.0625 z M 11.150391 34 L 18.832031 34 A 1.0001 1.0001 0 0 0 19.158203 34 L 26.849609 34 L 24.880859 48 L 13.119141 48 L 11.150391 34 z"/></svg>