<svg xmlns="http://www.w3.org/2000/svg"  viewBox="0 0 50 50" width="1000px" height="1000px"><path d="M 40 1 C 35.039063 1 31 5.039063 31 10 C 31 10.578125 31.054688 11.144531 31.15625 11.6875 C 31.210938 12.097656 30.910156 12.433594 30.53125 12.8125 C 29.863281 13.480469 27.28125 16.0625 27.28125 16.0625 C 27.207031 16.136719 27.144531 16.21875 27.09375 16.3125 C 25.453125 14.425781 23.933594 12.585938 22.71875 11.03125 C 21.738281 9.773438 20.917969 8.710938 20.28125 7.96875 C 19.964844 7.597656 19.691406 7.296875 19.40625 7.0625 C 19.261719 6.945313 19.136719 6.84375 18.875 6.75 C 18.613281 6.65625 18.027344 6.65625 17.6875 7 L 16.78125 7.90625 C 15.917969 8.769531 15.648438 9.945313 15.78125 11.03125 C 15.914063 12.117188 16.371094 13.164063 16.9375 14.1875 C 18.070313 16.230469 19.679688 18.222656 20.46875 19.5 C 20.4375 19.453125 20.464844 19.539063 20.5 19.6875 C 19.078125 19.242188 17.566406 19 16 19 C 7.726563 19 1 25.726563 1 34 C 1 42.273438 7.726563 49 16 49 C 24.273438 49 31 42.273438 31 34 C 31 32.460938 30.75 30.964844 30.3125 29.5625 C 30.519531 29.605469 30.6875 29.644531 30.65625 29.625 C 31.917969 30.390625 33.863281 31.988281 35.875 33.09375 C 36.878906 33.644531 37.925781 34.09375 39 34.21875 C 40.074219 34.34375 41.238281 34.074219 42.09375 33.21875 L 43 32.3125 C 43.320313 31.992188 43.335938 31.429688 43.25 31.15625 C 43.164063 30.882813 43.054688 30.710938 42.9375 30.5625 C 42.703125 30.265625 42.433594 30.007813 42.0625 29.6875 C 41.320313 29.042969 40.257813 28.226563 39 27.25 C 37.429688 26.03125 35.554688 24.546875 33.65625 22.90625 C 33.761719 22.859375 33.855469 22.796875 33.9375 22.71875 C 33.9375 22.71875 36.484375 20.140625 37.15625 19.46875 C 37.390625 19.234375 37.578125 19.039063 37.75 18.9375 C 37.921875 18.835938 38.035156 18.78125 38.375 18.84375 C 38.386719 18.84375 38.394531 18.84375 38.40625 18.84375 C 38.917969 18.9375 39.441406 19 40 19 C 44.957031 19 49 14.960938 49 10 C 49 5.039063 44.960938 1 40 1 Z M 40 3 C 43.878906 3 47 6.121094 47 10 C 47 13.878906 43.878906 17 40 17 C 39.582031 17 39.164063 16.949219 38.75 16.875 C 37.964844 16.734375 37.25 16.925781 36.75 17.21875 C 36.25 17.511719 35.921875 17.890625 35.75 18.0625 C 35.082031 18.730469 32.5 21.28125 32.5 21.28125 C 32.386719 21.394531 32.300781 21.535156 32.25 21.6875 C 31.570313 21.070313 30.902344 20.433594 30.25 19.78125 C 29.585938 19.121094 28.941406 18.433594 28.3125 17.75 C 28.464844 17.699219 28.605469 17.613281 28.71875 17.5 C 28.71875 17.5 31.265625 14.921875 31.9375 14.25 C 32.339844 13.847656 33.355469 12.847656 33.15625 11.40625 C 33.144531 11.394531 33.136719 11.386719 33.125 11.375 C 33.039063 10.929688 33 10.464844 33 10 C 33 6.121094 36.121094 3 40 3 Z M 18.5 9 C 18.597656 9.105469 18.65625 9.136719 18.78125 9.28125 C 19.351563 9.945313 20.140625 10.988281 21.125 12.25 C 23.09375 14.773438 25.753906 18.136719 28.8125 21.1875 C 31.851563 24.214844 35.226563 26.882813 37.75 28.84375 C 39.011719 29.824219 40.089844 30.617188 40.75 31.1875 C 40.898438 31.316406 40.925781 31.367188 41.03125 31.46875 L 40.6875 31.8125 C 40.273438 32.226563 39.867188 32.324219 39.21875 32.25 C 38.570313 32.175781 37.726563 31.828125 36.84375 31.34375 C 35.078125 30.371094 33.191406 28.851563 31.6875 27.9375 C 31.140625 27.605469 30.566406 27.492188 29.875 27.5 C 29.449219 27.503906 28.980469 27.585938 28.53125 27.78125 C 28.5 27.789063 28.46875 27.800781 28.4375 27.8125 C 28.183594 27.933594 27.941406 28.089844 27.71875 28.3125 C 26.988281 29.046875 25.28125 30.75 25.28125 30.75 C 24.9375 31.09375 24.75 31.113281 24.4375 31.0625 C 24.125 31.011719 23.683594 30.777344 23.25 30.34375 L 19.71875 26.84375 C 19.289063 26.414063 19.050781 25.941406 19 25.625 C 18.949219 25.308594 18.96875 25.125 19.3125 24.78125 C 19.3125 24.78125 21.015625 23.078125 21.75 22.34375 C 22.375 21.71875 22.542969 20.894531 22.5625 20.21875 C 22.582031 19.542969 22.53125 18.996094 22.1875 18.4375 C 21.253906 16.925781 19.6875 15.019531 18.6875 13.21875 C 18.1875 12.316406 17.832031 11.476563 17.75 10.8125 C 17.667969 10.148438 17.769531 9.730469 18.1875 9.3125 Z M 16 21 C 17.304688 21 18.535156 21.203125 19.71875 21.5625 C 19.097656 22.183594 18.554688 22.726563 18.28125 23 C 17.542969 22.847656 16.78125 22.75 16 22.75 C 9.796875 22.75 4.75 27.796875 4.75 34 C 4.75 40.203125 9.796875 45.25 16 45.25 C 22.203125 45.25 27.25 40.203125 27.25 34 C 27.25 33.269531 27.136719 32.566406 27 31.875 C 27.21875 31.65625 27.847656 31.027344 28.5 30.375 C 28.835938 31.527344 29 32.734375 29 34 C 29 41.191406 23.191406 47 16 47 C 8.808594 47 3 41.191406 3 34 C 3 26.808594 8.808594 21 16 21 Z M 16 24.75 C 16.371094 24.75 16.734375 24.769531 17.09375 24.8125 C 16.996094 25.199219 16.96875 25.589844 17.03125 25.96875 C 17.175781 26.855469 17.671875 27.613281 18.3125 28.25 L 21.8125 31.78125 C 22.449219 32.421875 23.207031 32.917969 24.09375 33.0625 C 24.445313 33.121094 24.820313 33.085938 25.1875 33 C 25.222656 33.324219 25.25 33.664063 25.25 34 C 25.25 39.121094 21.121094 43.25 16 43.25 C 10.878906 43.25 6.75 39.121094 6.75 34 C 6.75 28.878906 10.878906 24.75 16 24.75 Z"/></svg>