<svg xmlns="http://www.w3.org/2000/svg"  viewBox="0 0 48 48" width="1000px" height="1000px"><path fill="none" stroke="#000" stroke-linecap="round" stroke-linejoin="round" stroke-miterlimit="10" stroke-width="3" d="M26.32,9.89c-1.25-1.25-3.23-1.55-5.44-1.04c-1.52,0.36-2.73,1.48-3.4,2.9c-0.55,1.17-1.35,2.32-2.38,3.35	c-1.03,1.03-2.17,1.82-3.35,2.38c-1.42,0.67-2.54,1.87-2.9,3.4"/><path fill="none" stroke="#000" stroke-linecap="round" stroke-linejoin="round" stroke-miterlimit="10" stroke-width="3" d="M39.14,27.12c-0.36,1.52-1.48,2.73-2.9,3.4c-1.17,0.55-2.32,1.35-3.35,2.38c-1.03,1.03-1.82,2.17-2.38,3.35	c-0.67,1.42-1.87,2.54-3.4,2.9c-2.22,0.52-4.19,0.22-5.44-1.04"/><path fill="none" stroke="#000" stroke-linecap="round" stroke-linejoin="round" stroke-miterlimit="10" stroke-width="3" d="M22.52,35.01c-0.83,1.42-1.16,3.12-2.41,4.38c-3.35,3.35-8.64,3.5-11.82,0.32s-3.03-8.46,0.32-11.82	c1.2-1.2,2.75-1.68,4.17-2.36c4.65-2.25,7.98-5.78,10.08-8.58"/><path fill="none" stroke="#000" stroke-linecap="round" stroke-linejoin="round" stroke-miterlimit="10" stroke-width="3" d="M25.19,13.3c0.23-0.46,0.44-0.94,0.62-1.42c0.43-1.18,1.13-2.3,2.09-3.26c3.35-3.35,8.64-3.5,11.82-0.32	s3.03,8.47-0.32,11.82c-1.1,1.1-2.4,1.85-3.78,2.26c0,0-5.11,1.2-10.69,8.92"/></svg>