<svg xmlns="http://www.w3.org/2000/svg"  viewBox="0 0 50 50" width="1000px" height="1000px"><path d="M 25 2 C 12.309295 2 2 12.309295 2 25 C 2 29.749899 3.4452506 34.165015 5.9179688 37.832031 C 4.7604773 38.646138 4 39.985592 4 41.5 C 4 43.972314 6.0276857 46 8.5 46 C 10.014408 46 11.353862 45.239522 12.167969 44.082031 C 15.834985 46.554749 20.250101 48 25 48 C 37.690705 48 48 37.690705 48 25 C 48 20.250101 46.554749 15.834985 44.082031 12.167969 C 45.239522 11.353862 46 10.014408 46 8.5 C 46 6.0276857 43.972314 4 41.5 4 C 39.985592 4 38.646138 4.7604773 37.832031 5.9179688 C 34.165015 3.4452506 29.749899 2 25 2 z M 25 4 C 36.609824 4 46 13.390176 46 25 C 46 36.609824 36.609824 46 25 46 C 13.390176 46 4 36.609824 4 25 C 4 13.390176 13.390176 4 25 4 z M 41.5 6 C 42.887686 6 44 7.1123143 44 8.5 C 44 9.3728248 43.549701 10.104478 42.880859 10.550781 C 41.86041 9.2900955 40.709905 8.1395898 39.449219 7.1191406 C 39.895522 6.4502989 40.627175 6 41.5 6 z M 19.021484 8 C 19.021484 8 16.998047 9.1531406 16.998047 11.994141 C 16.998047 14.375141 18.360797 15.534094 18.841797 15.871094 C 18.902797 15.941094 18.963531 15.990047 19.019531 15.998047 C 19.036531 16.000047 19.060078 15.984422 19.080078 15.982422 L 19.074219 16 C 19.074219 16 21.4115 15.582859 22.5625 12.880859 C 23.6965 10.220859 22.265625 8.5175781 22.265625 8.5175781 L 21.201172 11.011719 C 21.196172 9.8707187 20.910297 9.0437969 20.404297 8.9667969 C 19.953297 8.8977969 19.440484 9.4375 19.021484 10.3125 L 19.021484 8 z M 29.513672 9.9980469 C 29.290158 9.9937771 29.062288 10.010031 28.832031 10.050781 L 28.830078 10.050781 C 27.983021 10.201354 27.244613 10.602587 26.720703 11.189453 C 26.196794 11.776319 25.88617 12.596319 26.039062 13.435547 C 26.188185 14.249608 26.674398 14.936553 27.355469 15.417969 C 28.034157 15.897701 28.975487 16.154181 29.929688 15.886719 C 30.921889 15.62719 31.661086 15.293589 32.197266 14.771484 C 32.736226 14.246672 32.975049 13.529527 33 12.914062 L 33.007812 12.720703 L 32.941406 12.537109 C 32.432296 11.109348 31.078266 10.027935 29.513672 9.9980469 z M 29.427734 12.005859 C 30.010795 12.039178 30.630098 12.50923 30.917969 13.042969 C 30.892669 13.134399 30.897789 13.245387 30.800781 13.339844 C 30.634991 13.501282 30.226979 13.746118 29.416016 13.957031 L 29.404297 13.960938 L 29.394531 13.962891 C 29.071167 14.054771 28.784695 13.979491 28.509766 13.785156 C 28.234836 13.590822 28.039737 13.26111 28.005859 13.076172 C 27.976749 12.916399 28.019049 12.738618 28.212891 12.521484 C 28.406423 12.304696 28.7507 12.096257 29.179688 12.019531 L 29.181641 12.019531 C 29.262409 12.005384 29.34444 12.0011 29.427734 12.005859 z M 13.974609 14.005859 C 13.699303 13.992993 13.418625 14.017466 13.136719 14.085938 C 11.076868 14.587608 9.7529101 16.662369 10.035156 18.789062 C 10.319994 20.915498 12.330619 22.398782 14.390625 21.898438 C 15.189976 21.704286 16.117209 21.45162 16.902344 20.835938 C 17.687478 20.220254 18.207364 19.032362 17.882812 17.785156 C 17.589378 16.657527 16.996794 15.660435 16.185547 14.951172 C 15.577112 14.419225 14.800528 14.044458 13.974609 14.005859 z M 13.904297 16 C 14.204822 16.013049 14.524513 16.155731 14.869141 16.457031 C 15.328644 16.858769 15.750701 17.533693 15.947266 18.289062 C 16.112714 18.924857 16.007586 18.997354 15.667969 19.263672 C 15.328353 19.52999 14.631571 19.782229 13.919922 19.955078 C 12.958529 20.188587 12.167447 19.637556 12.017578 18.525391 L 12.017578 18.523438 C 11.870991 17.41074 12.647788 16.263489 13.609375 16.029297 C 13.705219 16.006017 13.804122 15.99565 13.904297 16 z M 24.203125 16.005859 C 23.738125 15.987859 23.170562 16.012203 22.601562 16.158203 C 22.601562 16.158203 21.786953 16.457781 21.626953 16.550781 C 21.066953 16.850781 20.642578 17.460937 20.642578 17.460938 C 20.277578 17.991937 20.063766 18.656078 20.009766 19.455078 C 19.952766 20.290078 20.158203 20.971453 20.533203 21.189453 C 20.668203 21.268453 20.819797 21.282422 20.966797 21.232422 C 21.222797 21.460422 21.467047 21.493406 21.623047 21.441406 C 21.750047 21.399406 21.832797 21.299828 21.841797 21.173828 C 21.847797 21.083828 21.818531 20.942344 21.644531 20.777344 C 21.480531 20.622344 21.178375 20.076578 21.234375 19.267578 C 21.290375 18.448578 22.147844 18.063609 22.714844 18.099609 C 23.491844 18.148609 23.934422 18.691938 24.107422 18.960938 C 24.227422 18.258938 25.398391 17.595672 26.025391 17.388672 C 26.319391 17.291672 26.557047 17.262391 26.748047 17.275391 C 26.424047 16.813391 25.801109 16.293797 24.912109 16.091797 L 24.203125 16.005859 z M 35.794922 17.003906 C 34.438313 16.954641 32.081516 17.597219 30.634766 19.011719 C 28.705766 20.897719 28.579766 22.864328 29.759766 24.111328 C 30.966766 25.322328 32.97625 25.409437 34.90625 23.523438 C 36.83625 21.637438 37.383094 17.948297 36.746094 17.279297 C 36.586594 17.112047 36.247125 17.020328 35.794922 17.003906 z M 26.830078 17.787109 C 26.667703 17.777109 26.469687 17.809766 26.242188 17.884766 C 25.568188 18.106766 24.56625 18.751906 24.53125 19.253906 C 24.53025 19.270906 24.53025 19.286734 24.53125 19.302734 C 24.63725 21.230734 25.600641 22.099047 26.181641 22.623047 C 26.475641 22.887047 27.010188 23.065562 27.242188 22.976562 C 27.311187 22.950563 27.428406 22.876734 27.441406 22.677734 C 27.443406 22.652734 27.443406 22.626563 27.441406 22.601562 C 27.553406 22.622563 27.671484 22.607578 27.771484 22.517578 C 27.884484 22.416578 27.939891 22.235484 27.962891 21.896484 C 28.097891 19.931484 27.851031 18.639313 27.207031 17.945312 C 27.119031 17.850313 26.992453 17.797109 26.830078 17.787109 z M 33.927734 19.839844 C 34.129 19.847156 34.280813 19.890344 34.351562 19.964844 C 34.635563 20.264844 34.391203 21.906094 33.533203 22.746094 C 32.673203 23.586094 31.765234 23.563813 31.240234 23.007812 C 30.714234 22.451812 30.771859 21.574375 31.630859 20.734375 C 32.275859 20.104375 33.323938 19.817906 33.927734 19.839844 z M 26.78125 20.298828 C 27.04425 20.315828 27.241609 20.534156 27.224609 20.785156 C 27.207609 21.037156 26.98175 21.227937 26.71875 21.210938 C 26.45575 21.193937 26.256437 20.975609 26.273438 20.724609 C 26.290437 20.472609 26.51825 20.281828 26.78125 20.298828 z M 39.966797 20.996094 C 39.707454 20.989973 39.442255 21.012046 39.173828 21.066406 C 37.193669 21.468728 35.730208 23.252987 36.041016 25.203125 C 36.353208 27.154326 38.372904 28.319072 40.353516 27.917969 C 41.146743 27.757853 42.045818 27.558467 42.832031 27.044922 C 43.225138 26.788149 43.607372 26.425568 43.824219 25.917969 C 44.040815 25.410957 44.046726 24.800204 43.869141 24.232422 C 43.323253 22.484467 41.782197 21.038937 39.966797 20.996094 z M 10.070312 23.001953 C 9.5198826 22.979273 8.9385824 23.208142 8.4980469 23.597656 C 6.9744564 24.946106 6.4295048 27.332691 7.6640625 29.128906 C 8.8100655 30.798833 10.968474 31.582538 12.617188 30.535156 C 14.264119 29.488906 14.382416 27.178948 13.234375 25.509766 C 12.764246 24.826226 12.221829 24.063364 11.462891 23.521484 C 11.083421 23.250545 10.620744 23.024629 10.070312 23.001953 z M 39.912109 23.007812 C 40.724522 23.065063 41.649325 23.830329 41.960938 24.828125 L 41.960938 24.830078 C 42.028717 25.046238 42.002805 25.089661 41.984375 25.132812 C 41.965945 25.175963 41.909755 25.260366 41.740234 25.371094 C 41.401198 25.592549 40.674804 25.812147 39.957031 25.957031 C 38.915643 26.167928 38.135433 25.637471 38.015625 24.888672 C 37.896433 24.14081 38.530425 23.239022 39.572266 23.027344 C 39.681589 23.005204 39.79605 22.999634 39.912109 23.007812 z M 9.9882812 25 C 10.015101 25.0011 10.12475 25.02471 10.300781 25.150391 C 10.652843 25.401761 11.15702 26.016118 11.587891 26.642578 C 12.24185 27.593396 12.062035 28.517907 11.542969 28.847656 C 11.025681 29.176275 9.9664501 28.94812 9.3144531 27.998047 L 9.3125 27.998047 L 9.3125 27.996094 C 8.7470244 27.174608 9.0324827 25.794699 9.8222656 25.095703 C 9.9602301 24.973717 9.9614618 24.998895 9.9882812 25 z M 19.142578 25.003906 C 18.696498 24.985063 18.421875 25.050781 18.421875 25.050781 L 20.228516 26.841797 C 19.237516 26.407797 18.4245 26.312688 18.1875 26.679688 C 17.9765 27.005688 18.272625 27.61625 18.890625 28.28125 L 16.884766 27.392578 C 16.884766 27.392578 17.208781 29.421625 19.675781 30.515625 C 21.739781 31.430625 23.20025 30.812453 23.65625 30.564453 C 23.73825 30.543453 23.802125 30.515609 23.828125 30.474609 C 23.836125 30.462609 23.847656 30.431641 23.847656 30.431641 C 23.847656 30.431641 24.213594 28.419094 22.308594 26.496094 C 21.102969 25.299844 19.886045 25.035312 19.142578 25.003906 z M 28.941406 29.015625 C 28.819406 29.040875 28.673734 29.095094 28.490234 29.183594 C 26.363234 30.204594 25.351047 31.248047 24.998047 32.373047 C 24.984047 32.783047 25.013781 33.041516 25.300781 33.478516 C 25.921781 34.092516 27.170844 34.816641 27.714844 34.556641 C 27.732844 34.547641 27.749625 34.538344 27.765625 34.527344 C 29.714625 33.261344 29.687437 31.677656 29.898438 30.722656 C 29.913438 30.757656 30 29.339844 30 29.339844 C 29.933 29.278844 29.820469 29.193875 29.605469 29.296875 C 29.578469 29.309875 29.551391 29.324797 29.525391 29.341797 C 29.482391 29.205797 29.398094 29.085344 29.246094 29.027344 C 29.160594 28.994844 29.063406 28.990375 28.941406 29.015625 z M 37.849609 30 C 36.969273 30.000665 36.137048 30.452079 35.662109 31.130859 C 35.186821 31.810141 35.003906 32.647771 35.003906 33.558594 C 35.003906 34.293738 34.945996 35.238197 35.126953 36.132812 C 35.217433 36.58012 35.362231 37.052409 35.761719 37.460938 C 36.161207 37.869465 36.847931 38.067059 37.439453 37.96875 C 38.472751 37.796291 39.326706 37.167915 39.953125 36.378906 C 40.579544 35.589898 41 34.608851 41 33.558594 C 41 31.607248 39.614314 29.999723 37.851562 30 L 37.849609 30 z M 27.96875 30.617188 C 28.183016 30.614516 28.393641 30.747656 28.494141 30.972656 C 28.628141 31.272656 28.515187 31.622906 28.242188 31.753906 C 27.969188 31.884906 27.639859 31.747266 27.505859 31.447266 C 27.371859 31.147266 27.484813 30.797016 27.757812 30.666016 C 27.826062 30.633266 27.897328 30.618078 27.96875 30.617188 z M 37.851562 32 C 38.461818 31.999486 39 32.442673 39 33.558594 C 39 34.041336 38.7678 34.654774 38.386719 35.134766 C 38.020259 35.596341 37.540668 35.882366 37.160156 35.962891 C 37.141766 35.924291 37.122481 35.907331 37.087891 35.736328 C 36.988351 35.244193 37.003906 34.35845 37.003906 33.558594 C 37.003906 32.934416 37.14932 32.493812 37.300781 32.277344 C 37.452242 32.060876 37.545623 32 37.851562 32 z M 24.332031 33.335938 C 24.037031 33.969938 23.87325 34.968312 24.15625 36.070312 L 24.474609 36.904297 C 24.724609 37.429297 25.079547 38.042937 25.560547 38.585938 C 25.560547 38.585938 26.34125 39.308687 26.53125 39.429688 C 27.16725 39.869687 28.048828 39.978516 28.048828 39.978516 C 28.812828 40.066516 29.631094 39.903281 30.496094 39.488281 C 31.400094 39.054281 31.990953 38.423906 32.001953 37.878906 C 32.005953 37.681906 31.933875 37.507047 31.796875 37.373047 C 31.886875 36.954047 31.778766 36.662484 31.634766 36.521484 C 31.516766 36.406484 31.365469 36.376406 31.230469 36.441406 C 31.133469 36.488406 31.002641 36.603531 30.931641 36.894531 C 30.864641 37.168531 30.382813 37.841719 29.507812 38.261719 C 28.620812 38.687719 27.809531 37.953688 27.519531 37.304688 C 27.122531 36.416688 27.433281 35.603953 27.613281 35.251953 C 26.811281 35.536953 25.443234 34.637406 24.865234 34.066406 C 24.594234 33.799406 24.429031 33.554937 24.332031 33.335938 z M 17.666016 34.001953 C 17.162312 33.980216 16.630721 34.202027 16.25 34.552734 L 16.25 34.554688 C 14.963095 35.741422 14.514102 37.777924 15.556641 39.355469 C 16.513097 40.804766 18.381228 41.526634 19.816406 40.578125 C 21.213696 39.655204 21.341646 37.67343 20.365234 36.183594 L 20.365234 36.181641 L 20.363281 36.179688 C 19.984521 35.605738 19.549875 34.96034 18.902344 34.478516 C 18.578578 34.237603 18.16972 34.02369 17.666016 34.001953 z M 17.609375 36.019531 C 17.608709 36.02122 17.615902 36.014673 17.708984 36.083984 C 17.950025 36.263341 18.352553 36.763266 18.693359 37.279297 C 19.226948 38.093461 19.047603 38.689078 18.712891 38.910156 C 18.414069 39.107647 17.710106 38.986606 17.226562 38.253906 L 17.224609 38.251953 C 16.825434 37.647931 17.043272 36.545121 17.605469 36.025391 C 17.610935 36.020355 17.605167 36.02349 17.609375 36.019531 z M 7.1191406 39.449219 C 8.1395898 40.709905 9.2900955 41.86041 10.550781 42.880859 C 10.104478 43.549701 9.3728248 44 8.5 44 C 7.1123143 44 6 42.887686 6 41.5 C 6 40.627175 6.4502989 39.895522 7.1191406 39.449219 z"/></svg>