<svg xmlns="http://www.w3.org/2000/svg"  viewBox="0 0 50 50" width="1000px" height="1000px"><path d="M 25 0 C 15.246094 0 7.277344 7.390625 7.03125 16.5625 C 7.023438 16.613281 7.035156 16.667969 7.03125 16.71875 C 7.03125 16.730469 7.03125 16.738281 7.03125 16.75 C 7.015625 16.8125 7.003906 16.875 7 16.9375 C 7 16.957031 7 16.976563 7 17 C 6.996094 17.042969 6.996094 17.082031 7 17.125 L 7 41 C 7 43.777344 9.308594 46.027344 12.5625 47.5625 C 15.816406 49.097656 20.171875 50 25 50 C 29.828125 50 34.183594 49.097656 37.4375 47.5625 C 40.691406 46.027344 43 43.777344 43 41 L 43 17.21875 C 43 17.199219 43 17.175781 43 17.15625 C 43.003906 17.105469 43.003906 17.050781 43 17 C 43 16.96875 43 16.9375 43 16.90625 C 43 16.894531 43 16.886719 43 16.875 C 42.996094 16.820313 42.972656 16.773438 42.96875 16.71875 C 42.964844 16.667969 42.976563 16.613281 42.96875 16.5625 C 42.722656 7.390625 34.753906 0 25 0 Z M 25 2 C 32.511719 2 38.746094 6.847656 40.5 13.3125 C 39.621094 12.738281 38.554688 12.238281 37.34375 11.8125 C 34.117188 10.671875 29.789063 10 25 10 C 20.210938 10 15.882813 10.671875 12.65625 11.8125 C 11.445313 12.238281 10.378906 12.738281 9.5 13.3125 C 11.253906 6.847656 17.488281 2 25 2 Z M 25 12 C 29.597656 12 33.761719 12.65625 36.6875 13.6875 C 38.152344 14.203125 39.308594 14.835938 40.03125 15.4375 C 40.722656 16.015625 40.980469 16.503906 41 16.9375 C 41 16.957031 41 16.980469 41 17 C 41 17.03125 41 17.0625 41 17.09375 C 40.96875 17.519531 40.707031 18 40.03125 18.5625 C 39.308594 19.164063 38.152344 19.796875 36.6875 20.3125 C 33.761719 21.34375 29.597656 22 25 22 C 20.402344 22 16.238281 21.34375 13.3125 20.3125 C 11.847656 19.796875 10.691406 19.164063 9.96875 18.5625 C 9.277344 17.984375 9.019531 17.496094 9 17.0625 C 9 17.042969 9 17.019531 9 17 C 9 16.96875 9 16.9375 9 16.90625 C 9.03125 16.480469 9.292969 16 9.96875 15.4375 C 10.691406 14.835938 11.847656 14.203125 13.3125 13.6875 C 16.238281 12.65625 20.402344 12 25 12 Z M 9 20.3125 C 9.238281 20.492188 9.480469 20.679688 9.75 20.84375 C 9.761719 20.855469 9.769531 20.863281 9.78125 20.875 C 10.453125 21.84375 10.691406 23.648438 11.0625 25.34375 C 11.246094 26.191406 11.445313 27.027344 11.96875 27.75 C 12.492188 28.472656 13.433594 29 14.5 29 C 16.136719 29 17.1875 28.285156 17.78125 27.71875 C 18.078125 27.4375 18.296875 27.226563 18.4375 27.125 C 18.578125 27.023438 18.621094 27 18.8125 27 C 19.078125 27 19.078125 27.035156 19.21875 27.21875 C 19.359375 27.402344 19.546875 27.800781 19.65625 28.375 C 19.875 29.523438 19.886719 31.261719 19.9375 33.03125 C 19.988281 34.800781 20.070313 36.621094 20.625 38.15625 C 20.902344 38.921875 21.296875 39.625 21.9375 40.15625 C 22.578125 40.6875 23.453125 41 24.40625 41 C 25.359375 41 26.21875 40.699219 26.8125 40.125 C 27.40625 39.550781 27.683594 38.777344 27.84375 38 C 28.164063 36.449219 28.019531 34.679688 27.90625 32.9375 C 27.792969 31.195313 27.734375 29.515625 28.03125 28.46875 C 28.179688 27.945313 28.386719 27.59375 28.65625 27.375 C 28.925781 27.15625 29.304688 27 30 27 C 30.089844 27 30.03125 27 30.03125 27 C 30.03125 27 30.089844 27.058594 30.15625 27.25 C 30.285156 27.632813 30.382813 28.382813 30.53125 29.1875 C 30.679688 29.992188 30.882813 30.902344 31.5 31.6875 C 32.117188 32.472656 33.171875 33 34.5 33 C 35.921875 33 37.03125 32.105469 37.53125 31.03125 C 38.03125 29.957031 38.160156 28.746094 38.28125 27.46875 C 38.523438 24.917969 38.757813 22.3125 40.0625 21.15625 C 40.199219 21.050781 40.308594 20.910156 40.375 20.75 C 40.597656 20.609375 40.800781 20.464844 41 20.3125 L 41 41 C 41 42.625 39.492188 44.382813 36.59375 45.75 C 33.695313 47.117188 29.574219 48 25 48 C 20.425781 48 16.304688 47.117188 13.40625 45.75 C 10.507813 44.382813 9 42.625 9 41 Z M 12.46875 22.125 C 12.53125 22.148438 12.59375 22.164063 12.65625 22.1875 C 15.882813 23.328125 20.210938 24 25 24 C 29.65625 24 33.867188 23.363281 37.0625 22.28125 C 36.496094 23.914063 36.425781 25.734375 36.28125 27.28125 C 36.164063 28.519531 36.003906 29.574219 35.71875 30.1875 C 35.433594 30.800781 35.277344 31 34.5 31 C 33.628906 31 33.328125 30.777344 33.0625 30.4375 C 32.796875 30.097656 32.597656 29.507813 32.46875 28.8125 C 32.339844 28.117188 32.28125 27.367188 32.03125 26.625 C 31.90625 26.253906 31.726563 25.859375 31.375 25.53125 C 31.023438 25.203125 30.507813 25 30 25 C 28.96875 25 28.074219 25.265625 27.40625 25.8125 C 26.738281 26.359375 26.347656 27.117188 26.125 27.90625 C 25.679688 29.484375 25.792969 31.304688 25.90625 33.0625 C 26.019531 34.820313 26.128906 36.550781 25.90625 37.625 C 25.796875 38.160156 25.605469 38.496094 25.40625 38.6875 C 25.207031 38.878906 24.976563 39 24.40625 39 C 23.835938 39 23.5 38.859375 23.21875 38.625 C 22.9375 38.390625 22.695313 38.015625 22.5 37.46875 C 22.105469 36.378906 21.988281 34.699219 21.9375 32.96875 C 21.886719 31.238281 21.90625 29.476563 21.625 28 C 21.484375 27.261719 21.257813 26.582031 20.8125 26 C 20.367188 25.417969 19.621094 25 18.8125 25 C 18.203125 25 17.628906 25.226563 17.25 25.5 C 16.871094 25.773438 16.632813 26.0625 16.40625 26.28125 C 15.949219 26.714844 15.660156 27 14.5 27 C 13.964844 27 13.820313 26.875 13.59375 26.5625 C 13.367188 26.25 13.164063 25.660156 13 24.90625 C 12.820313 24.085938 12.71875 23.113281 12.46875 22.125 Z"/></svg>