<svg xmlns="http://www.w3.org/2000/svg"  viewBox="0 0 50 50" width="1000px" height="1000px"><path d="M 31.15625 -0.0625 L 30.4375 0.65625 L 24.5 6.625 C 24.488281 6.636719 24.480469 6.644531 24.46875 6.65625 L 18.28125 12.8125 C 18.257813 12.832031 18.238281 12.851563 18.21875 12.875 L 18.15625 12.90625 C 18.15625 12.917969 18.15625 12.925781 18.15625 12.9375 L 12.125 18.96875 C 11.835938 19.253906 11.75 19.6875 11.90625 20.0625 C 11.90625 20.0625 12.835938 22.210938 13.53125 24.5625 C 13.878906 25.738281 14.167969 26.964844 14.25 27.9375 C 14.332031 28.910156 14.125 29.53125 14.03125 29.625 C 12.34375 31.3125 10.6875 32.097656 9.0625 32.78125 C 7.4375 33.464844 5.796875 34.046875 4.46875 35.375 C 2.527344 37.316406 1.097656 39.773438 0.4375 42.15625 C -0.222656 44.539063 -0.136719 46.988281 1.4375 48.5625 C 3.015625 50.140625 5.460938 50.222656 7.84375 49.5625 C 10.226563 48.902344 12.683594 47.46875 14.625 45.53125 C 15.953125 44.203125 16.820313 42.296875 17.6875 40.46875 C 18.554688 38.640625 19.449219 36.894531 20.375 35.96875 C 20.609375 35.734375 21.246094 35.527344 22.21875 35.59375 C 23.191406 35.660156 24.382813 35.945313 25.53125 36.3125 C 27.828125 37.046875 29.875 38.0625 29.875 38.0625 C 30.261719 38.253906 30.726563 38.179688 31.03125 37.875 L 37.0625 31.84375 C 37.085938 31.824219 37.105469 31.804688 37.125 31.78125 L 44.875 24.03125 L 45.03125 23.90625 C 45.105469 23.832031 45.167969 23.75 45.21875 23.65625 L 49.34375 19.5625 L 50.0625 18.84375 L 49.34375 18.15625 L 31.84375 0.65625 Z M 31.125 2.75 L 47.25 18.875 L 43.78125 22.34375 C 43.726563 22.378906 43.671875 22.421875 43.625 22.46875 C 43.632813 22.460938 43.347656 22.722656 43 22.9375 C 42.652344 23.152344 42.199219 23.359375 41.75 23.53125 C 41.300781 23.703125 40.863281 23.816406 40.53125 23.8125 C 40.238281 23.808594 40.082031 23.742188 39.9375 23.625 C 39.933594 23.59375 39.914063 23.515625 39.9375 23.34375 C 39.984375 23 40.132813 22.457031 40.28125 21.875 C 40.429688 21.292969 40.566406 20.664063 40.5625 19.96875 C 40.558594 19.273438 40.347656 18.472656 39.75 17.875 C 39.15625 17.28125 38.371094 17.058594 37.6875 17.0625 C 37.003906 17.066406 36.375 17.234375 35.8125 17.375 C 35.25 17.515625 34.746094 17.640625 34.40625 17.65625 C 34.066406 17.671875 34.003906 17.628906 33.90625 17.53125 C 33.402344 17.027344 33.238281 16.464844 33.75 15.25 C 34.050781 14.535156 34.5625 13.417969 34.875 12.3125 C 35.03125 11.757813 35.148438 11.214844 35.15625 10.65625 C 35.164063 10.097656 35.0625 9.46875 34.5625 8.96875 C 34.128906 8.535156 33.519531 8.355469 33 8.34375 C 32.480469 8.332031 31.992188 8.433594 31.5 8.59375 C 30.519531 8.917969 29.542969 9.476563 28.71875 10 C 28.300781 10.265625 27.515625 10.667969 26.8125 10.84375 C 26.109375 11.019531 25.660156 10.941406 25.4375 10.71875 C 24.851563 10.132813 24.917969 9.765625 25.09375 9.25 C 25.269531 8.734375 25.71875 8.21875 25.875 8.0625 C 25.921875 8.015625 25.964844 7.960938 26 7.90625 C 26.023438 7.875 26.042969 7.84375 26.0625 7.8125 Z M 32.96875 10.34375 C 33.117188 10.347656 33.117188 10.367188 33.125 10.375 C 33.132813 10.410156 33.160156 10.488281 33.15625 10.625 C 33.152344 10.898438 33.066406 11.324219 32.9375 11.78125 C 32.679688 12.695313 32.214844 13.734375 31.90625 14.46875 C 31.195313 16.152344 31.421875 17.855469 32.5 18.9375 C 33.078125 19.515625 33.878906 19.6875 34.53125 19.65625 C 35.183594 19.625 35.765625 19.449219 36.3125 19.3125 C 36.859375 19.175781 37.339844 19.066406 37.6875 19.0625 C 38.035156 19.058594 38.179688 19.117188 38.34375 19.28125 C 38.503906 19.441406 38.558594 19.601563 38.5625 19.96875 C 38.566406 20.335938 38.480469 20.835938 38.34375 21.375 C 38.207031 21.914063 38.015625 22.476563 37.9375 23.0625 C 37.859375 23.648438 37.851563 24.414063 38.4375 25 C 38.964844 25.527344 39.664063 25.738281 40.3125 25.78125 L 36.375 29.71875 L 20.28125 13.625 L 23.15625 10.71875 C 23.308594 11.21875 23.59375 11.71875 24.03125 12.15625 C 24.964844 13.089844 26.289063 13.035156 27.3125 12.78125 C 28.335938 12.527344 29.238281 12.054688 29.8125 11.6875 C 30.554688 11.214844 31.421875 10.730469 32.125 10.5 C 32.476563 10.382813 32.792969 10.339844 32.96875 10.34375 Z M 18.875 15.0625 L 34.9375 31.125 L 30.09375 36 C 29.582031 35.753906 28.261719 35.078125 26.15625 34.40625 C 24.917969 34.011719 23.585938 33.675781 22.34375 33.59375 C 21.101563 33.511719 19.832031 33.667969 18.9375 34.5625 C 17.609375 35.890625 16.773438 37.765625 15.90625 39.59375 C 15.039063 41.421875 14.148438 43.195313 13.21875 44.125 C 11.535156 45.808594 9.308594 47.074219 7.3125 47.625 C 5.316406 48.175781 3.714844 47.964844 2.875 47.125 C 2.039063 46.285156 1.824219 44.679688 2.375 42.6875 C 2.925781 40.695313 4.191406 38.464844 5.875 36.78125 C 6.800781 35.851563 8.15625 35.335938 9.84375 34.625 C 11.53125 33.914063 13.5 33 15.4375 31.0625 C 16.304688 30.195313 16.351563 28.988281 16.25 27.78125 C 16.148438 26.574219 15.839844 25.25 15.46875 24 C 14.828125 21.839844 14.179688 20.433594 13.96875 19.9375 Z M 7 41 C 5.894531 41 5 41.894531 5 43 C 5 44.105469 5.894531 45 7 45 C 8.105469 45 9 44.105469 9 43 C 9 41.894531 8.105469 41 7 41 Z"/></svg>