<svg xmlns="http://www.w3.org/2000/svg"  viewBox="0 0 50 50" width="1000px" height="1000px"><path d="M 37.708984 2.9921875 C 35.756553 2.9921875 33.958741 3.911776 32.160156 5.0175781 C 30.361572 6.1233802 28.537525 7.455532 26.617188 8.5039062 C 24.264966 9.7882778 17.310995 13.386091 13.150391 15.5625 C 8.76913 17.854333 3 23.053028 3 31.708984 C 3 33.283448 3.4849796 35.376566 4.0761719 37.279297 C 4.371768 38.230662 4.6955265 39.120326 5.0175781 39.849609 C 5.3396298 40.578893 5.5420083 41.106071 6.0976562 41.580078 L 6.25 41.708984 L 6.2207031 41.730469 C 6.2207031 41.730469 10.523031 47.308397 18.443359 46.990234 C 25.44016 46.985934 28.862978 43.630376 31.091797 41.392578 C 33.451074 39.023796 35.606201 35.60488 37.232422 31.138672 L 37.232422 31.136719 C 38.100024 28.738764 40.909023 23.441631 42.609375 21.09375 C 43.600146 19.724599 44.613739 18.775824 45.46875 17.703125 C 46.323761 16.630473 47 15.344557 47 13.652344 C 47 11.807519 46.567687 9.7492188 45.708984 8.3417969 L 45.691406 8.3535156 C 45.639651 8.1922145 45.583591 8.0332021 45.511719 7.8808594 C 45.176837 7.1709356 44.678602 6.6436938 44.042969 5.9902344 C 42.664091 4.5733604 40.989364 2.9921875 37.708984 2.9921875 z M 37.708984 4.9921875 C 40.420605 4.9921875 41.230252 5.9676396 42.609375 7.3847656 C 43.221742 8.0143062 43.5366 8.3855458 43.701172 8.734375 C 43.865744 9.0832042 43.949219 9.511172 43.949219 10.408203 C 43.949219 11.748865 43.304826 12.797888 42.466797 13.708984 L 42.464844 13.708984 C 42.249891 13.943157 40.308676 15.86221 38.222656 18.306641 C 36.136637 20.751072 33.805655 23.810265 32.484375 26.800781 C 32.306462 27.203987 31.811661 28.449572 30.800781 30.185547 C 29.789902 31.921521 28.300358 34.06018 26.279297 35.964844 C 22.280744 39.733111 16.302516 42.609089 7.3164062 39.912109 C 7.2956332 39.854539 7.0858917 39.582451 6.8476562 39.042969 C 6.5691925 38.412283 6.263482 37.577557 5.9863281 36.685547 C 5.4320204 34.901528 5 32.829521 5 31.708984 C 5 23.938941 10.145432 19.392104 14.076172 17.335938 C 18.227567 15.164345 25.148392 11.585394 27.576172 10.259766 C 29.650835 9.1271396 31.509866 7.764151 33.207031 6.7207031 C 34.904197 5.6772552 36.415415 4.9921875 37.708984 4.9921875 z M 45 13.664062 C 44.997366 14.865927 44.623692 15.556926 43.90625 16.457031 C 43.186261 17.360332 42.099464 18.387073 40.990234 19.919922 C 39.082587 22.554041 36.355961 27.680986 35.351562 30.457031 C 33.807868 34.695907 31.782248 37.863555 29.673828 39.980469 C 27.436069 42.227243 24.827811 44.992188 18.431641 44.992188 L 18.410156 44.992188 L 18.390625 44.994141 C 14.684059 45.150521 11.963655 43.885821 10.197266 42.660156 C 18.040961 43.935082 23.823063 41.026824 27.650391 37.419922 C 29.857329 35.340086 31.448801 33.046932 32.529297 31.191406 C 33.609792 29.335881 34.216367 27.829716 34.314453 27.607422 C 35.484173 24.959938 37.71966 21.975835 39.744141 19.603516 C 41.768621 17.231197 43.483405 15.559327 43.939453 15.0625 L 43.9375 15.0625 C 44.311532 14.655856 44.681073 14.189558 45 13.664062 z M 26 20 C 26 20 20.448 20.552 16 24 C 13.984 25.61 11 28.682672 11 32.263672 C 11 32.569672 11.007656 32.852656 11.097656 33.222656 L 11.324219 33.943359 L 12.232422 33.992188 C 14.464422 33.982188 16.322906 33.323469 18.253906 31.855469 C 19.525906 30.887469 22.725594 28.023469 24.933594 22.355469 L 26 20 z M 22 22 C 22.552 22 23 22.448 23 23 C 23 23.552 22.552 24 22 24 C 21.448 24 21 23.552 21 23 C 21 22.448 21.448 22 22 22 z M 19 23 C 19.552 23 20 23.448 20 24 C 20 24.552 19.552 25 19 25 C 18.448 25 18 24.552 18 24 C 18 23.448 18.448 23 19 23 z M 17 25 C 17.552 25 18 25.448 18 26 C 18 26.552 17.552 27 17 27 C 16.448 27 16 26.552 16 26 C 16 25.448 16.448 25 17 25 z M 21 25 C 21.552 25 22 25.448 22 26 C 22 26.552 21.552 27 21 27 C 20.448 27 20 26.552 20 26 C 20 25.448 20.448 25 21 25 z M 15 27 C 15.552 27 16 27.448 16 28 C 16 28.552 15.552 29 15 29 C 14.448 29 14 28.552 14 28 C 14 27.448 14.448 27 15 27 z M 19 27 C 19.552 27 20 27.448 20 28 C 20 28.552 19.552 29 19 29 C 18.448 29 18 28.552 18 28 C 18 27.448 18.448 27 19 27 z M 17 29 C 17.552 29 18 29.448 18 30 C 18 30.552 17.552 31 17 31 C 16.448 31 16 30.552 16 30 C 16 29.448 16.448 29 17 29 z M 14 30 C 14.552 30 15 30.448 15 31 C 15 31.552 14.552 32 14 32 C 13.448 32 13 31.552 13 31 C 13 30.448 13.448 30 14 30 z"/></svg>