<svg xmlns="http://www.w3.org/2000/svg"  viewBox="0 0 50 50" width="1000px" height="1000px"><path d="M 25 0.125 C 22.660156 0.125 20.519531 0.65625 18.90625 1.5625 C 17.292969 2.46875 16.125 3.839844 16.125 5.5 C 16.125 6.582031 16.652344 7.570313 17.4375 8.34375 C 18.035156 8.933594 18.910156 9.328125 19.78125 9.71875 L 16.5 22 L 2.34375 22 C 1.582031 22 0.859375 22.289063 0.40625 22.875 C -0.0351563 23.441406 -0.125 24.230469 0.09375 24.9375 L 0.125 25 L 5.625 45.25 C 5.238281 45.523438 5 45.996094 5 46.5 L 5 48.5 C 5 49.316406 5.683594 50 6.5 50 L 43.5 50 C 44.316406 50 45 49.316406 45 48.5 L 45 46.5 C 45 45.996094 44.761719 45.523438 44.375 45.25 L 49.875 25 L 49.90625 25 L 49.90625 24.9375 C 50.125 24.230469 50.035156 23.441406 49.59375 22.875 C 49.140625 22.289063 48.386719 22 47.625 22 L 33.5 22 L 30.21875 9.71875 C 31.089844 9.328125 31.964844 8.933594 32.5625 8.34375 C 33.347656 7.570313 33.875 6.582031 33.875 5.5 C 33.875 3.839844 32.707031 2.46875 31.09375 1.5625 C 29.480469 0.65625 27.339844 0.125 25 0.125 Z M 25 1.875 C 27.078125 1.875 28.9375 2.371094 30.21875 3.09375 C 31.5 3.816406 32.125 4.675781 32.125 5.5 C 32.125 6.035156 31.886719 6.558594 31.34375 7.09375 C 30.800781 7.628906 29.976563 8.136719 28.9375 8.5 C 28.511719 8.648438 28.269531 9.09375 28.375 9.53125 C 28.382813 9.550781 28.394531 9.574219 28.40625 9.59375 L 28.4375 9.71875 L 31.71875 22 L 18.28125 22 L 21.5625 9.71875 C 21.574219 9.679688 21.585938 9.636719 21.59375 9.59375 L 21.625 9.5625 C 21.625 9.550781 21.625 9.542969 21.625 9.53125 C 21.730469 9.09375 21.488281 8.648438 21.0625 8.5 C 20.023438 8.136719 19.199219 7.628906 18.65625 7.09375 C 18.113281 6.558594 17.875 6.035156 17.875 5.5 C 17.875 4.675781 18.5 3.816406 19.78125 3.09375 C 21.0625 2.371094 22.921875 1.875 25 1.875 Z M 2.34375 24 L 15.96875 24 L 10.375 45 L 7.59375 45 L 2 24.4375 C 2 24.417969 2 24.394531 2 24.375 C 1.929688 24.167969 1.976563 24.152344 2 24.125 C 2.023438 24.097656 2.070313 24 2.34375 24 Z M 17.75 24 L 32.25 24 L 37.84375 45 L 12.15625 45 Z M 34.03125 24 L 47.625 24 C 47.898438 24 47.976563 24.097656 48 24.125 C 48.023438 24.152344 48.070313 24.167969 48 24.375 C 48 24.394531 48 24.417969 48 24.4375 L 42.40625 45 L 39.625 45 Z M 7 47 L 43 47 L 43 48 L 7 48 Z"/></svg>