<svg xmlns="http://www.w3.org/2000/svg"  viewBox="0 0 50 50" width="1000px" height="1000px"><path d="M 10.8125 0 C 10.335938 0.0898438 9.992188 0.511719 10 1 L 10 35 L 12 35 L 12 2 L 44 2 L 44 41 C 44 44.8125 40.921875 47.933594 37.125 48 C 37.082031 48 37.042969 48 37 48 C 36.308594 48 35.59375 47.582031 35 46.6875 C 34.40625 45.792969 34 44.46875 34 43 C 34 41.53125 34.40625 40.207031 35 39.3125 C 35.59375 38.417969 36.308594 38 37 38 C 37.304688 38 37.589844 37.863281 37.78125 37.625 C 37.804688 37.59375 37.824219 37.5625 37.84375 37.53125 C 37.855469 37.5 37.867188 37.46875 37.875 37.4375 C 37.898438 37.40625 37.917969 37.375 37.9375 37.34375 C 37.980469 37.222656 38.003906 37.097656 38 36.96875 C 37.988281 36.824219 37.945313 36.6875 37.875 36.5625 C 37.835938 36.472656 37.78125 36.386719 37.71875 36.3125 C 37.65625 36.238281 37.582031 36.175781 37.5 36.125 C 37.46875 36.113281 37.4375 36.101563 37.40625 36.09375 C 37.316406 36.046875 37.222656 36.015625 37.125 36 C 37.082031 35.996094 37.042969 35.996094 37 36 L 9 36 C 7.492188 36 6.199219 36.9375 5.34375 38.21875 C 4.488281 39.5 4 41.167969 4 43 C 4 44.832031 4.488281 46.5 5.34375 47.78125 C 6.199219 49.0625 7.492188 50 9 50 L 37 50 C 37.03125 50 37.0625 50 37.09375 50 C 41.996094 49.949219 46 45.914063 46 41 L 46 1 C 46 0.449219 45.550781 0 45 0 L 11 0 C 10.96875 0 10.9375 0 10.90625 0 C 10.875 0 10.84375 0 10.8125 0 Z M 9 38 L 33.5625 38 C 33.5 38.085938 33.402344 38.128906 33.34375 38.21875 C 32.488281 39.5 32 41.167969 32 43 C 32 44.832031 32.488281 46.5 33.34375 47.78125 C 33.402344 47.871094 33.5 47.914063 33.5625 48 L 9 48 C 8.308594 48 7.59375 47.582031 7 46.6875 C 6.40625 45.792969 6 44.46875 6 43 C 6 41.53125 6.40625 40.207031 7 39.3125 C 7.59375 38.417969 8.308594 38 9 38 Z"/></svg>