<svg fill="#000000" xmlns="http://www.w3.org/2000/svg"  viewBox="0 0 50 50" width="1000px" height="1000px"><path d="M 29.40625 0.9375 C 28.949219 0.9375 28.480469 1.113281 28.09375 1.5 C 26.496094 3.148438 25.585938 4.785156 25.09375 6 C 24.984375 6.269531 24.886719 6.519531 24.8125 6.75 C 23.742188 6.3125 22.453125 6 20.90625 6 C 17.632813 6 15.476563 7.648438 14.28125 9.25 C 13.476563 10.328125 13.132813 11.214844 12.9375 11.8125 C 10.941406 11.949219 9.070313 12.527344 7.65625 13.8125 C 6.058594 15.265625 5.09375 17.496094 5.09375 20.3125 C 5.09375 27.195313 9.074219 34.082031 10.3125 38.625 C 10.882813 41.015625 11.769531 43.28125 13.15625 45.03125 C 14.542969 46.78125 16.539063 48 19 48 C 20.503906 48 21.75 47.425781 22.75 46.9375 C 23.75 46.449219 24.523438 46.09375 25 46.09375 C 25.476563 46.09375 26.304688 46.453125 27.3125 46.9375 C 28.320313 47.421875 29.535156 48 31 48 C 33.429688 48 35.351563 46.890625 36.71875 45.1875 C 38.085938 43.484375 38.984375 41.242188 39.75 38.6875 C 40.28125 36.945313 41.609375 33.230469 42.78125 29.3125 C 43.953125 25.394531 45 21.3125 45 18.40625 C 45 15.25 44.265625 12.613281 42.6875 10.75 C 41.109375 8.886719 38.730469 7.90625 35.8125 7.90625 C 33.847656 7.90625 32.347656 8.398438 31.25 8.875 C 30.152344 9.351563 29.375 9.6875 29.1875 9.6875 C 29.265625 9.6875 29.101563 9.613281 28.8125 9.40625 C 29.398438 7.261719 31.59375 5.707031 32.5625 5.03125 L 32.65625 4.96875 L 32.71875 4.90625 C 33.066406 4.558594 33.253906 4.09375 33.21875 3.59375 C 33.1875 3.109375 32.851563 2.601563 32.375 2.34375 L 32.375 2.3125 L 32.34375 2.3125 L 30.59375 1.3125 L 30.5625 1.375 C 30.195313 1.128906 29.820313 0.9375 29.40625 0.9375 Z M 29.5 2.9375 C 29.496094 2.960938 29.488281 2.992188 29.5 3 L 29.625 3.0625 L 30.90625 3.78125 C 29.890625 4.480469 28.035156 5.855469 27.15625 8.09375 C 27.144531 8.085938 27.136719 8.070313 27.125 8.0625 C 26.976563 7.949219 26.792969 7.832031 26.625 7.71875 C 26.6875 7.464844 26.773438 7.15625 26.9375 6.75 C 27.34375 5.75 28.117188 4.375 29.5 2.9375 Z M 20.90625 8 C 23.324219 8 24.769531 8.808594 25.90625 9.65625 C 26.472656 10.082031 26.964844 10.523438 27.4375 10.90625 C 27.910156 11.289063 28.398438 11.6875 29.1875 11.6875 C 30.300781 11.6875 31.054688 11.140625 32.03125 10.71875 C 33.007813 10.296875 34.179688 9.90625 35.8125 9.90625 C 38.296875 9.90625 39.984375 10.644531 41.15625 12.03125 C 42.328125 13.417969 43 15.5625 43 18.40625 C 43 20.796875 41.996094 24.894531 40.84375 28.75 C 39.691406 32.605469 38.410156 36.238281 37.84375 38.09375 L 37.84375 38.125 C 37.109375 40.570313 36.238281 42.589844 35.15625 43.9375 C 34.074219 45.285156 32.871094 46 31 46 C 30.0625 46 29.121094 45.621094 28.15625 45.15625 C 27.191406 44.691406 26.222656 44.09375 25 44.09375 C 23.777344 44.09375 22.824219 44.691406 21.875 45.15625 C 20.925781 45.621094 19.996094 46 19 46 C 17.160156 46 15.832031 45.214844 14.71875 43.8125 C 13.605469 42.410156 12.808594 40.367188 12.28125 38.15625 L 12.25 38.125 C 10.878906 33.066406 7.09375 26.414063 7.09375 20.3125 C 7.09375 17.929688 7.847656 16.328125 9 15.28125 C 9.878906 14.484375 11.03125 13.976563 12.375 13.78125 C 10.015625 27.132813 17.21875 40.28125 17.21875 40.28125 L 18.96875 39.3125 C 18.96875 39.3125 11.980469 26.257813 14.40625 13.6875 L 14.5 13.6875 L 14.6875 12.9375 C 14.6875 12.9375 14.945313 11.683594 15.875 10.4375 C 16.804688 9.191406 18.277344 8 20.90625 8 Z"/></svg>