<?xml version="1.0" encoding="iso-8859-1"?><!-- Generator: Adobe Illustrator 19.1.0, SVG Export Plug-In . SVG Version: 6.00 Build 0)  --><svg xmlns="http://www.w3.org/2000/svg" xmlns:xlink="http://www.w3.org/1999/xlink" viewBox="0 0 50 50" width="1000px" height="1000px"><rect x="25" y="32" style="fill:none;stroke:#000000;stroke-width:2;stroke-linecap:round;stroke-miterlimit:10;" width="24" height="17"/><polyline style="fill:none;stroke:#000000;stroke-width:2;stroke-linejoin:round;stroke-miterlimit:10;" points="25.05,34 37,43 48.95,34 "/><path style="fill:none;stroke:#000000;stroke-width:2;stroke-linecap:round;stroke-linejoin:round;stroke-miterlimit:10;" d="M30,14H20c-1.105,0-2-0.895-2-2l0,0c0-1.105,0.895-2,2-2h10c1.105,0,2,0.895,2,2l0,0C32,13.105,31.105,14,30,14z"/><path d="M22,44H6V5.954h38V29h2V4.954C46,4.402,45.552,4,45,4H5C4.448,4,4,4.402,4,4.954V45c0,0.552,0.448,1,1,1h17V44z"/></svg>