<svg xmlns="http://www.w3.org/2000/svg"  viewBox="0 0 512 512" width="1000px" height="1000px"><path d="M 47.453125 43.619141 C 38.60416 43.55919 31.400359 46.095516 27.220703 52.083984 A 16.8 16.8 0 0 0 25.46875 55.304688 C 17.43275 73.660687 10 97.063609 10 143.59961 C 10 201.33261 30.726422 255.634 68.357422 296.5 C 106.11742 337.5 156.35708 360.08594 209.83008 360.08594 A 124.658 124.658 0 0 0 227.69922 358.40039 C 229.54422 358.13739 231.38098 357.87362 233.20898 357.64062 C 241.87698 357.27162 249.53431 349.72672 254.82031 336.26172 C 259.54731 324.22572 262.14844 308.34855 262.14844 291.56055 C 262.14844 274.77255 259.54931 258.89533 254.82031 246.86133 C 249.45831 233.20433 241.65989 225.62794 232.83789 225.46094 L 232.83789 225.45117 C 196.23089 223.65817 170.94469 212.98737 157.67969 193.73438 C 138.98769 166.60337 150.39667 130.65392 150.51367 130.29492 C 156.65467 112.33792 133.551 84.770391 106.5 66.400391 C 87.2325 53.311484 64.346603 43.733592 47.453125 43.619141 z M 47.275391 55.599609 A 50 50 0 0 1 57.970703 56.921875 C 70.663703 59.751875 85.503859 66.642266 99.755859 76.322266 C 130.51386 97.214266 143.2662 120.71098 138.5332 127.70898 C 137.5672 129.13698 135.70791 130.12353 133.00391 130.64453 C 118.51491 133.42753 93.235719 122.03367 75.886719 110.26367 C 51.207719 93.520672 38.225594 75.564547 36.308594 65.185547 C 35.808594 62.480547 36.061547 60.383172 37.060547 58.951172 C 38.599547 56.742172 42.252391 55.599609 47.275391 55.599609 z M 29.300781 79.919922 C 33.750781 87.983922 40.856656 96.619688 49.847656 104.92969 A 252.642 252.642 0 0 0 47.6875 140.69922 C 47.6875 188.79922 64.583672 234.4335 95.263672 269.1875 C 124.91767 302.7795 164.46316 322.90069 207.03516 326.17969 A 88.607 88.607 0 0 0 210.26953 336.25977 A 52.785 52.785 0 0 0 216.33789 347.75 C 214.15889 347.956 212.00008 348.08789 209.83008 348.08789 C 106.26008 348.08789 22 256.35361 22 143.59961 C 22 120.68661 23.417781 100.34592 29.300781 79.919922 z M 60.824219 114.17188 C 63.497552 116.22787 66.271771 118.23279 69.148438 120.18945 A 163.849 163.849 0 0 0 94.517578 134.36523 C 86.849578 161.52823 93.532219 196.39145 112.57422 226.93945 C 133.86322 261.09145 166.5738 283.39622 202.9668 288.82422 C 202.9518 289.73322 202.93945 290.64359 202.93945 291.55859 A 151.585 151.585 0 0 0 204.56055 313.91797 C 166.41055 310.09297 131.03372 291.57805 104.26172 261.24805 C 75.517719 228.68905 59.6875 185.87722 59.6875 140.69922 C 59.6875 130.65022 60.055219 121.99187 60.824219 114.17188 z M 105.77734 138.75195 C 114.11534 141.52495 121.88858 143.02344 128.51758 143.02344 A 35.9 35.9 0 0 0 135.26953 142.42773 C 135.44253 142.39473 135.60353 142.34655 135.76953 142.31055 C 133.82253 157.30055 134.00033 180.43427 147.73633 200.44727 C 161.05033 219.83827 183.94534 231.74761 215.90234 235.97461 A 53.934 53.934 0 0 0 210.26953 246.85547 A 112.494 112.494 0 0 0 203.63281 276.79297 C 171.17381 271.59297 141.94981 251.3808 122.75781 220.5918 C 105.99981 193.6998 99.632344 162.34295 105.77734 138.75195 z M 448.8125 155.92188 C 437.09218 156.05687 423.65363 158.28425 410.13281 162.39062 C 383.92281 170.35063 362.47705 183.95111 355.49805 197.03711 C 352.27605 203.08211 352.59805 207.97384 353.49805 211.08984 C 362.67605 247.51684 359.69958 275.57256 344.64258 294.47656 C 322.96558 321.69656 282.68492 321.14548 282.29492 321.14648 L 282.29492 321.17578 A 21.926 21.926 0 0 0 272.93359 323.52344 C 258.27959 330.66944 242.86888 354.40986 233.67188 384.00586 C 222.80687 418.96686 222.46633 459.7395 243.23633 466.4375 A 17.2 17.2 0 0 0 246.89844 467.18164 L 246.89844 467.19336 A 174.215 174.215 0 0 0 267.42383 468.45312 C 284.85683 468.45312 306.97153 465.63233 339.14453 455.86133 A 239.286 239.286 0 0 0 421.6582 412.0293 A 223.607 223.607 0 0 0 477.79492 344.02148 C 503.16692 296.44248 508.80492 242.92159 493.66992 193.30859 A 128.127 128.127 0 0 0 486.60938 176.17773 C 485.79037 174.43573 484.97636 172.70084 484.19336 170.96484 C 481.24636 162.57884 471.50981 157.32806 456.63281 156.16406 C 454.13137 155.96963 451.51719 155.89072 448.8125 155.92188 z M 450.71875 167.90039 C 463.51622 168.01071 471.71317 171.05473 472.94336 175.0918 C 473.35636 176.4428 473.00539 178.17805 471.90039 180.24805 C 465.61639 192.03205 442.85614 203.44359 424.36914 209.05859 C 391.43614 219.05859 367.23487 215.02266 365.04688 207.84766 C 364.63288 206.49466 364.98289 204.75945 366.08789 202.68945 C 372.37189 190.90445 395.13114 179.48991 413.61914 173.87891 C 428.02777 169.50391 440.76517 167.81458 450.71875 167.90039 z M 479.73633 190.11914 C 480.65533 192.33114 481.49164 194.5475 482.18164 196.8125 C 496.38564 243.3575 491.06322 293.63286 467.19922 338.38086 C 440.48922 388.46786 392.54239 427.10386 335.65039 444.38086 C 312.71339 451.34686 291.93011 456.09686 269.66211 456.38086 C 276.44711 449.53086 283.00667 439.75939 288.63867 428.15039 A 262.376 262.376 0 0 0 324.89648 419.48828 C 372.59648 404.99928 412.76233 374.57441 437.98633 333.81641 C 462.40033 294.36641 470.43578 249.19914 460.80078 206.11914 C 469.00078 201.11914 475.54933 195.63214 479.73633 190.11914 z M 449.79688 212.05859 C 457.60588 251.05059 449.9012 291.75909 427.7832 327.49609 C 404.0962 365.77109 366.3172 394.36195 321.4082 408.00195 C 311.2662 411.08295 302.43022 413.35794 294.32422 414.96094 C 295.60422 411.60294 296.79887 408.14894 297.9082 404.59961 A 166.812 166.812 0 0 0 304.3418 375.08984 C 333.7328 374.56084 366.46547 357.35142 391.10547 329.10742 C 418.40547 297.81342 430.57027 258.84014 424.94727 221.36914 C 425.91627 221.09414 426.88547 220.83211 427.85547 220.53711 A 155.757 155.757 0 0 0 449.79688 212.05859 z M 413.24219 224.25195 C 417.94219 257.89595 406.7585 292.91952 382.0625 321.22852 C 360.2625 346.21852 330.7407 362.14117 305.2207 363.07617 A 97.181 97.181 0 0 0 304.98242 353.1582 C 304.28742 344.3082 302.26733 337.05841 299.11133 331.69141 C 314.87933 329.07441 338.12689 321.86306 353.96289 302.03906 C 369.09989 283.08906 373.97311 257.00905 368.53711 224.37305 A 55.315 55.315 0 0 0 381.35547 226.77344 C 383.51147 226.94077 385.74597 227.02344 388.05664 227.02344 A 127.126 127.126 0 0 0 413.24219 224.25195 z M 232.54492 237.43945 C 239.72292 237.43945 250.14453 258.52159 250.14453 291.55859 C 250.14453 324.59559 239.71892 345.67578 232.54492 345.67578 C 225.37092 345.67578 214.94531 324.59359 214.94531 291.55859 C 214.94531 258.52359 225.36692 237.43945 232.54492 237.43945 z M 282.48242 333.15039 A 5.319 5.319 0 0 1 284.38281 333.48242 C 288.84781 335.17342 292.15939 343.06984 293.02539 354.08984 C 294.07339 367.41384 291.74003 384.08434 286.45703 401.02734 C 277.26303 430.50034 263.30092 448.80037 253.54492 453.85938 L 253.54492 453.85547 C 250.94492 455.20647 248.70902 455.59558 246.91602 455.01758 C 238.28102 452.23258 233.42395 425.22441 245.12695 387.56641 C 253.13595 361.79841 266.7255 339.89855 278.1875 334.31055 A 9.988 9.988 0 0 1 282.48242 333.15039 z"/></svg>