<svg xmlns="http://www.w3.org/2000/svg"  viewBox="0 0 50 50" width="1000px" height="1000px"><path d="M 44.3125 0.15625 C 42.160156 0.144531 40.0625 1.292969 39.03125 3.21875 C 39.023438 3.230469 39.007813 3.238281 39 3.25 L 33.875 12.375 C 33.652344 12.375 33.449219 12.347656 33.1875 12.40625 C 32.308594 12.597656 31.222656 13.246094 30.59375 14.5625 C 30.363281 15.046875 30.558594 15.625 31.03125 15.875 L 32.125 16.46875 L 24.8125 27.15625 C 24.757813 27.183594 24.707031 27.214844 24.65625 27.25 L 1.875 42.15625 L 1.84375 42.15625 L 1.84375 42.1875 C 0.734375 42.882813 0.0546875 43.964844 -0.03125 45.125 C -0.117188 46.296875 0.359375 47.484375 1.28125 48.40625 L 1.40625 48.5 C 1.40625 48.511719 1.40625 48.519531 1.40625 48.53125 C 3.382813 50.386719 6.503906 50.640625 8.65625 49.25 L 33.15625 33.4375 C 33.269531 33.363281 33.363281 33.269531 33.4375 33.15625 L 41.21875 21.34375 L 42.03125 21.78125 C 42.515625 22.035156 43.113281 21.855469 43.375 21.375 C 43.375 21.375 43.78125 20.644531 44 19.71875 C 44.171875 19.003906 44.140625 18.085938 43.78125 17.21875 L 49.15625 7.71875 L 49.15625 7.6875 C 50.722656 5 49.460938 1.648438 46.5625 0.5625 C 46.441406 0.519531 46.316406 0.496094 46.1875 0.5 C 46.15625 0.488281 46.125 0.507813 46.09375 0.5 C 45.507813 0.3125 44.910156 0.160156 44.3125 0.15625 Z M 44.3125 2.1875 C 44.796875 2.183594 45.296875 2.261719 45.75 2.4375 C 45.808594 2.464844 45.875 2.484375 45.9375 2.5 C 47.746094 3.238281 48.425781 5.011719 47.4375 6.6875 C 47.4375 6.699219 47.4375 6.707031 47.4375 6.71875 L 41.84375 16.59375 C 41.625 16.960938 41.664063 17.425781 41.9375 17.75 C 42.15625 18.011719 42.1875 18.601563 42.03125 19.25 C 42 19.386719 41.976563 19.375 41.9375 19.5 L 32.96875 14.65625 C 33.1875 14.484375 33.429688 14.417969 33.625 14.375 C 33.734375 14.351563 33.773438 14.34375 33.84375 14.34375 C 33.855469 14.34375 33.863281 14.34375 33.875 14.34375 C 34.261719 14.585938 34.761719 14.535156 35.09375 14.21875 C 35.144531 14.167969 35.113281 14.023438 35.15625 13.9375 L 35.28125 14 L 40.78125 4.1875 C 40.78125 4.175781 40.78125 4.167969 40.78125 4.15625 C 41.410156 2.957031 42.863281 2.199219 44.3125 2.1875 Z M 33.90625 17.40625 L 39.46875 20.40625 L 31.9375 31.84375 L 7.5625 47.5625 C 6.324219 48.363281 4.042969 48.214844 2.8125 47.09375 L 2.71875 47 C 2.140625 46.421875 1.929688 45.808594 1.96875 45.28125 C 2.007813 44.753906 2.242188 44.25 2.90625 43.84375 C 2.917969 43.84375 2.925781 43.84375 2.9375 43.84375 L 25.21875 29.28125 L 29.1875 31.5625 C 29.496094 31.789063 29.90625 31.820313 30.246094 31.644531 C 30.585938 31.464844 30.792969 31.109375 30.78125 30.726563 C 30.769531 30.339844 30.539063 30 30.1875 29.84375 L 26.78125 27.84375 Z"/></svg>