<svg xmlns="http://www.w3.org/2000/svg"  viewBox="0 0 50 50" width="1000px" height="1000px"><path d="M 42.5 0 C 41.566406 0 40.710938 0.511719 40.25 1.28125 C 40.238281 1.292969 40.230469 1.300781 40.21875 1.3125 C 38.199219 0.25 35.898438 0.40625 35 0.40625 C 33.820313 0.40625 32.707031 1.164063 32.46875 2.375 C 32.46875 2.378906 32.4375 2.371094 32.4375 2.375 L 32.4375 2.4375 C 32.433594 2.453125 32.410156 2.453125 32.40625 2.46875 L 30.1875 12.25 L 23.1875 11.3125 C 23.167969 11.308594 23.144531 11.316406 23.125 11.3125 C 22.207031 11.15625 21.277344 11.140625 20.40625 11.25 C 17.742188 11.578125 15.457031 13.101563 14.40625 15.59375 C 14.402344 15.609375 14.378906 15.609375 14.375 15.625 L 2.9375 41.90625 C 2.925781 41.925781 2.914063 41.949219 2.90625 41.96875 L 2.875 42 L 2.78125 42.21875 L 0.09375 47.65625 C -0.0117188 47.894531 -0.0234375 48.160156 0.0625 48.40625 C 0.0625 48.40625 0.183594 48.820313 0.46875 49.25 C 0.503906 49.304688 0.546875 49.359375 0.59375 49.40625 C 0.871094 49.683594 1.125 49.769531 1.3125 49.84375 C 1.5 49.917969 1.65625 49.96875 1.65625 49.96875 C 1.875 50.023438 2.105469 50 2.3125 49.90625 L 8 47.3125 C 8.101563 47.285156 8.195313 47.242188 8.28125 47.1875 L 35.5625 36.125 C 37.34375 35.433594 38.570313 34.160156 39.25 32.65625 C 39.929688 31.152344 40.105469 29.460938 40 27.75 L 40 27.6875 L 39.21875 20.53125 C 40.191406 20.070313 46.535156 17.042969 48.4375 16.09375 C 49.316406 15.65625 49.90625 14.746094 49.90625 13.8125 C 49.910156 13.769531 49.910156 13.730469 49.90625 13.6875 C 49.808594 12.714844 49.527344 10.824219 48.46875 9.28125 L 48.96875 8.9375 C 48.992188 8.917969 49.011719 8.898438 49.03125 8.875 C 49.8125 8.25 50.171875 7.167969 49.84375 6.1875 C 49.492188 5.132813 48.683594 3.695313 47.03125 2.125 C 47.023438 2.117188 47.007813 2.132813 47 2.125 C 46.984375 2.109375 46.984375 2.078125 46.96875 2.0625 C 45.449219 0.476563 43.597656 0.109375 42.625 0 C 42.582031 -0.00390625 42.542969 -0.00390625 42.5 0 Z M 42.46875 2.03125 C 43.285156 2.128906 44.527344 2.351563 45.5625 3.46875 C 45.582031 3.492188 45.601563 3.511719 45.625 3.53125 C 47.121094 4.933594 47.695313 6.082031 47.9375 6.8125 C 48.011719 7.03125 48 7.136719 47.78125 7.3125 L 39.65625 12.78125 C 39.308594 12.953125 39.09375 13.308594 39.101563 13.695313 C 39.105469 14.082031 39.335938 14.429688 39.691406 14.589844 C 40.042969 14.75 40.457031 14.6875 40.75 14.4375 L 46.78125 10.40625 C 47.449219 11.445313 47.820313 13.058594 47.90625 13.84375 C 47.902344 14.085938 47.871094 14.160156 47.5625 14.3125 C 45.785156 15.199219 39.710938 18.097656 38.53125 18.65625 C 37.871094 17.558594 36.855469 16.484375 35.71875 15.4375 C 34.53125 14.347656 33.300781 13.367188 32.09375 12.78125 L 34.375 2.8125 C 34.375 2.792969 34.375 2.769531 34.375 2.75 C 34.390625 2.628906 34.617188 2.40625 35 2.40625 C 36 2.40625 37.855469 2.390625 39.25 3.09375 L 36.21875 8.71875 C 35.949219 9.203125 36.125 9.8125 36.609375 10.078125 C 37.09375 10.347656 37.703125 10.171875 37.96875 9.6875 L 41.96875 2.3125 C 42.097656 2.097656 42.238281 2.042969 42.46875 2.03125 Z M 21.71875 13.15625 C 22.078125 13.171875 22.433594 13.214844 22.8125 13.28125 L 22.875 13.28125 L 30.375 14.28125 C 30.625 14.335938 31.039063 14.550781 31.5 14.8125 C 30.402344 14.796875 29.199219 14.8125 28.59375 15 C 27.292969 15.5 26.085938 16.605469 26.6875 17.40625 C 27.289063 18.207031 29.304688 18.1875 30.40625 17.6875 C 31.238281 17.390625 32.292969 16.519531 33.03125 15.8125 C 33.484375 16.148438 33.949219 16.515625 34.375 16.90625 C 34.628906 17.140625 34.859375 17.378906 35.09375 17.625 C 34.230469 18.394531 32.84375 19.703125 32.5 20.59375 C 32 21.894531 32.007813 23.8125 32.90625 24.3125 C 33.804688 24.8125 35 23.414063 35.5 22.3125 C 35.863281 21.402344 35.90625 19.710938 35.875 18.46875 C 36.589844 19.324219 37.101563 20.136719 37.21875 20.53125 C 37.21875 20.539063 37.25 20.558594 37.25 20.5625 L 38 27.875 L 38 27.90625 C 38.089844 29.378906 37.929688 30.757813 37.4375 31.84375 C 36.941406 32.941406 36.164063 33.769531 34.84375 34.28125 L 34.8125 34.28125 L 8.09375 45.09375 C 7.84375 44.671875 7.730469 44.359375 6.8125 43.4375 C 6.800781 43.425781 6.824219 43.417969 6.8125 43.40625 C 6.183594 42.726563 5.585938 42.277344 5.09375 41.96875 L 16.21875 16.40625 L 16.21875 16.375 C 16.976563 14.542969 18.609375 13.410156 20.65625 13.1875 C 20.996094 13.148438 21.359375 13.140625 21.71875 13.15625 Z M 4.21875 43.78125 C 4.539063 44.003906 4.929688 44.300781 5.375 44.78125 L 5.40625 44.8125 C 5.835938 45.242188 6.121094 45.582031 6.34375 45.875 L 2.3125 47.71875 Z"/></svg>