<svg fill="#000000" xmlns="http://www.w3.org/2000/svg"  viewBox="0 0 50 50" width="1000px" height="1000px"><path d="M 25.65625 1 C 25.351563 0.992188 25.066406 1.003906 24.78125 1.03125 C 23.636719 1.140625 22.636719 1.546875 21.78125 2.15625 C 20.074219 3.375 18.964844 5.265625 17.90625 7.28125 C 15.792969 11.308594 13.945313 15.753906 9.59375 17.1875 C 5.71875 18.460938 3.417969 20.792969 2.21875 23.21875 C 1.019531 25.644531 0.871094 28.113281 1.03125 29.8125 C 1.1875 31.507813 2.128906 35.042969 5.34375 37.4375 C 7.019531 38.683594 9.476563 39.144531 12.25 39.03125 C 14.425781 42.117188 17.304688 44.851563 20.71875 46.28125 C 28.667969 49.613281 35.488281 49.636719 40.46875 47.78125 C 45.449219 45.925781 48.617188 42.128906 48.96875 37.96875 C 49.1875 35.402344 48.582031 33.472656 47.34375 32.125 C 46.105469 30.777344 44.394531 30.050781 42.5625 29.53125 C 39.226563 28.582031 35.355469 28.183594 32.40625 26.59375 C 35.359375 21.378906 36.347656 16.445313 35.9375 12.3125 C 35.414063 7.023438 32.558594 2.996094 28.625 1.59375 C 27.570313 1.21875 26.566406 1.023438 25.65625 1 Z M 25.625 3 C 26.28125 3.023438 27.039063 3.179688 27.9375 3.5 C 30.996094 4.589844 33.441406 7.824219 33.90625 12.5 C 34.28125 16.296875 33.335938 21.023438 30.28125 26.15625 C 30.171875 26.261719 30.085938 26.390625 30.03125 26.53125 C 30.019531 26.550781 30.011719 26.574219 30 26.59375 C 30 26.605469 30 26.613281 30 26.625 C 29.359375 27.664063 28.628906 28.714844 27.8125 29.78125 C 25.296875 33.058594 20.882813 35.324219 16.59375 36.34375 C 12.304688 37.363281 8.160156 37.003906 6.5625 35.8125 C 6.308594 35.625 6.097656 35.398438 5.875 35.1875 C 15.4375 30.992188 25.636719 24.019531 28.375 9.15625 C 28.441406 8.835938 28.347656 8.5 28.125 8.257813 C 27.902344 8.015625 27.578125 7.898438 27.25 7.9375 C 26.804688 7.996094 26.449219 8.339844 26.375 8.78125 C 23.730469 23.136719 13.984375 29.507813 4.53125 33.5625 C 3.535156 31.996094 3.132813 30.386719 3.0625 29.625 C 2.933594 28.234375 3.082031 26.113281 4.0625 24.125 C 5.042969 22.136719 6.808594 20.246094 10.21875 19.125 C 15.570313 17.363281 17.671875 12.148438 19.71875 8.25 C 20.742188 6.300781 21.769531 4.667969 22.96875 3.8125 C 23.566406 3.382813 24.207031 3.101563 25 3.03125 C 25.199219 3.011719 25.40625 2.992188 25.625 3 Z M 31.34375 28.34375 C 34.808594 30.277344 38.917969 30.625 42 31.5 C 43.679688 31.976563 45.015625 32.597656 45.84375 33.5 C 46.671875 34.402344 47.121094 35.632813 46.9375 37.8125 C 46.664063 41.050781 44.183594 44.234375 39.78125 45.875 C 35.386719 47.515625 29.085938 47.566406 21.53125 44.40625 C 21.523438 44.402344 21.507813 44.410156 21.5 44.40625 C 18.898438 43.308594 16.503906 41.230469 14.59375 38.78125 C 15.410156 38.664063 16.226563 38.542969 17.0625 38.34375 C 19.226563 37.828125 21.40625 37.027344 23.4375 35.9375 C 28.371094 38.652344 34.335938 40.238281 41.59375 39.6875 C 41.980469 39.695313 42.335938 39.488281 42.515625 39.148438 C 42.699219 38.808594 42.671875 38.394531 42.453125 38.078125 C 42.230469 37.765625 41.851563 37.601563 41.46875 37.65625 C 35.105469 38.140625 29.902344 36.886719 25.5 34.6875 C 27.003906 33.65625 28.347656 32.449219 29.4375 31.03125 C 30.128906 30.132813 30.769531 29.234375 31.34375 28.34375 Z"/></svg>