<svg fill="#000000" xmlns="http://www.w3.org/2000/svg"  viewBox="0 0 50 50" width="1000px" height="1000px"><path d="M 35.6875 0 C 35.644531 0.0078125 35.601563 0.0195313 35.5625 0.03125 C 29.386719 1.246094 26.363281 5.09375 25.0625 8.53125 C 25.007813 8.675781 24.988281 8.824219 24.9375 8.96875 C 23.125 4.597656 19.5 2.21875 19.5 2.21875 C 19.324219 2.101563 19.117188 2.046875 18.90625 2.0625 C 18.503906 2.09375 18.167969 2.378906 18.074219 2.773438 C 17.980469 3.167969 18.152344 3.574219 18.5 3.78125 C 18.5 3.78125 23.835938 7.382813 24.03125 13.6875 C 24.027344 13.816406 24.03125 13.949219 24.03125 14.0625 C 21.242188 14.324219 19.464844 15.671875 18.40625 17.46875 C 17.226563 19.472656 16.707031 21.871094 15.625 24.28125 C 14.605469 26.550781 13.058594 27.851563 11.625 29.75 C 10.191406 31.648438 9 34.160156 9 38.375 C 9 42.722656 11.136719 45.808594 14.1875 47.59375 C 17.238281 49.378906 21.136719 50 25 50 C 28.863281 50 32.761719 49.378906 35.8125 47.59375 C 38.863281 45.808594 41 42.722656 41 38.375 C 41 34.160156 39.808594 31.648438 38.375 29.75 C 36.941406 27.851563 35.394531 26.550781 34.375 24.28125 C 33.292969 21.871094 32.773438 19.472656 31.59375 17.46875 C 31.074219 16.582031 30.367188 15.8125 29.46875 15.21875 C 33.023438 14.125 35.074219 12.007813 36.0625 9.625 C 37.40625 6.390625 36.972656 2.867188 36.71875 0.875 C 36.664063 0.355469 36.210938 -0.03125 35.6875 0 Z M 34.84375 2.3125 C 35.039063 4.242188 35.15625 6.6875 34.25 8.875 C 33.242188 11.304688 31.03125 13.339844 26.03125 13.875 C 26.035156 12.886719 26.117188 11.308594 26.90625 9.21875 C 27.949219 6.460938 30.152344 3.601563 34.84375 2.3125 Z M 25 16 C 27.871094 16 28.941406 16.878906 29.875 18.46875 C 30.808594 20.058594 31.386719 22.472656 32.5625 25.09375 C 33.765625 27.773438 35.511719 29.285156 36.78125 30.96875 C 38.050781 32.652344 39 34.515625 39 38.375 C 39 42.101563 37.386719 44.335938 34.8125 45.84375 C 32.238281 47.351563 28.636719 48 25 48 C 21.363281 48 17.761719 47.351563 15.1875 45.84375 C 12.613281 44.335938 11 42.101563 11 38.375 C 11 34.515625 11.949219 32.652344 13.21875 30.96875 C 14.488281 29.285156 16.234375 27.773438 17.4375 25.09375 C 18.613281 22.472656 19.191406 20.058594 20.125 18.46875 C 21.058594 16.878906 22.128906 16 25 16 Z"/></svg>