<svg fill="#000000" xmlns="http://www.w3.org/2000/svg"  viewBox="0 0 50 50" width="1000px" height="1000px"><path d="M 44.9375 2 C 42.09375 2 39.667969 2.976563 37.65625 4.53125 C 35.644531 6.085938 33.996094 8.191406 32.46875 10.5 C 29.414063 15.113281 26.824219 20.582031 23.28125 24.375 C 18.148438 29.871094 13.59375 33.003906 9.90625 35.8125 C 6.21875 38.621094 3.3125 41.210938 2.03125 45.5 C 1.914063 45.9375 2.105469 46.398438 2.5 46.625 C 5.816406 48.519531 11.53125 48.507813 17.84375 46.53125 C 24.15625 44.554688 31.046875 40.503906 36.40625 33.90625 C 43.132813 25.625 45.890625 16.648438 44.4375 9.53125 C 43.945313 7.109375 44.386719 6.238281 44.84375 5.5625 C 45.074219 5.222656 45.34375 4.929688 45.625 4.5 C 45.90625 4.070313 46.125 3.316406 45.875 2.65625 C 45.730469 2.261719 45.355469 2 44.9375 2 Z M 40.625 5.125 C 37.972656 7.667969 35.996094 10.683594 34.21875 13.84375 C 31.683594 18.34375 29.476563 23.089844 26.1875 27.1875 C 21.214844 33.382813 16.847656 36.09375 12.90625 38.15625 C 10.667969 39.328125 8.527344 40.285156 6.53125 41.53125 C 7.722656 40.101563 9.226563 38.796875 11.09375 37.375 C 14.710938 34.617188 19.46875 31.402344 24.75 25.75 C 28.605469 21.625 31.21875 16.0625 34.15625 11.625 C 35.625 9.40625 37.167969 7.46875 38.90625 6.125 C 39.445313 5.707031 40.03125 5.398438 40.625 5.125 Z M 42.4375 6.09375 C 42.1875 7.058594 42.136719 8.308594 42.46875 9.9375 C 43.753906 16.230469 41.289063 24.71875 34.84375 32.65625 C 29.765625 38.910156 23.21875 42.757813 17.25 44.625 C 15.699219 45.109375 14.199219 45.414063 12.78125 45.625 C 12.933594 45.519531 13.082031 45.414063 13.21875 45.28125 C 14.472656 44.050781 14.472656 42.011719 13.21875 40.78125 C 13.101563 40.664063 12.976563 40.554688 12.84375 40.4375 C 13.179688 40.265625 13.496094 40.121094 13.84375 39.9375 C 14.308594 39.695313 14.796875 39.425781 15.28125 39.15625 C 15.039063 39.640625 14.929688 40.144531 15 40.625 C 15.128906 41.507813 15.6875 42.070313 16.15625 42.53125 C 17.410156 43.761719 19.433594 43.761719 20.6875 42.53125 C 21.941406 41.300781 21.941406 39.230469 20.6875 38 C 20.234375 37.554688 19.695313 37.054688 18.875 36.90625 C 19.816406 36.246094 20.792969 35.5 21.78125 34.65625 C 21.242188 36.007813 21.523438 37.605469 22.625 38.6875 C 23.203125 39.253906 23.894531 39.882813 24.90625 40.03125 C 25.917969 40.179688 26.964844 39.703125 28 38.6875 C 29.039063 37.667969 29.53125 36.605469 29.375 35.59375 C 29.21875 34.582031 28.574219 33.9375 28 33.375 C 27.261719 32.652344 26.285156 32.28125 25.3125 32.28125 C 24.914063 32.28125 24.507813 32.34375 24.125 32.46875 C 25.097656 31.496094 26.113281 30.398438 27.125 29.1875 C 27.140625 31.433594 28.921875 33.34375 31.375 33.34375 C 33.839844 33.34375 35.65625 31.414063 35.65625 29.15625 C 35.65625 28.191406 35.570313 27.125 34.875 26.25 C 34.179688 25.375 32.964844 24.9375 31.375 24.9375 C 30.949219 24.9375 30.554688 25 30.1875 25.0625 C 30.824219 24.082031 31.425781 23.09375 32 22.09375 C 32.246094 22.785156 32.667969 23.394531 33.1875 23.90625 C 34.820313 25.507813 37.460938 25.507813 39.09375 23.90625 C 40.722656 22.304688 40.722656 19.632813 39.09375 18.03125 C 38.355469 17.304688 37.421875 16.757813 36.34375 16.6875 C 35.835938 16.65625 35.316406 16.738281 34.8125 16.9375 C 35.195313 16.226563 35.578125 15.503906 35.96875 14.8125 C 36.039063 14.683594 36.117188 14.5625 36.1875 14.4375 C 36.351563 14.644531 36.515625 14.832031 36.6875 15 C 37.941406 16.230469 39.996094 16.230469 41.25 15 C 42.503906 13.769531 42.503906 11.730469 41.25 10.5 C 40.804688 10.0625 40.242188 9.5625 39.4375 9.40625 C 40.347656 8.210938 41.320313 7.105469 42.4375 6.09375 Z M 38.90625 11.34375 C 38.953125 11.339844 39.003906 11.339844 39.03125 11.34375 C 39.148438 11.359375 39.445313 11.515625 39.84375 11.90625 C 40.324219 12.378906 40.324219 13.121094 39.84375 13.59375 C 39.363281 14.066406 38.574219 14.066406 38.09375 13.59375 C 37.695313 13.203125 37.546875 12.90625 37.53125 12.8125 C 37.515625 12.71875 37.492188 12.496094 38.09375 11.90625 C 38.542969 11.464844 38.765625 11.359375 38.90625 11.34375 Z M 36.21875 18.6875 C 36.675781 18.71875 37.179688 18.972656 37.6875 19.46875 C 38.546875 20.3125 38.546875 21.625 37.6875 22.46875 C 36.828125 23.3125 35.453125 23.3125 34.59375 22.46875 C 34.085938 21.972656 33.808594 21.464844 33.78125 21.03125 C 33.753906 20.597656 33.917969 20.132813 34.59375 19.46875 C 35.269531 18.804688 35.761719 18.65625 36.21875 18.6875 Z M 31.375 26.9375 C 32.625 26.9375 33.082031 27.210938 33.3125 27.5 C 33.542969 27.789063 33.65625 28.351563 33.65625 29.15625 C 33.65625 30.445313 32.871094 31.34375 31.375 31.34375 C 29.878906 31.34375 29.125 30.445313 29.125 29.15625 C 29.125 28.351563 29.238281 27.789063 29.46875 27.5 C 29.699219 27.210938 30.125 26.9375 31.375 26.9375 Z M 25.3125 34.28125 C 25.777344 34.28125 26.246094 34.441406 26.59375 34.78125 C 27.105469 35.285156 27.371094 35.691406 27.40625 35.90625 C 27.441406 36.121094 27.398438 36.457031 26.59375 37.25 C 25.789063 38.042969 25.421875 38.097656 25.1875 38.0625 C 24.953125 38.027344 24.546875 37.757813 24.03125 37.25 C 23.324219 36.554688 23.324219 35.476563 24.03125 34.78125 C 24.382813 34.433594 24.847656 34.28125 25.3125 34.28125 Z M 18.375 38.875 C 18.421875 38.871094 18.472656 38.871094 18.5 38.875 C 18.617188 38.890625 18.914063 39.046875 19.3125 39.4375 C 19.792969 39.910156 19.792969 40.621094 19.3125 41.09375 C 18.832031 41.566406 18.042969 41.566406 17.5625 41.09375 C 17.164063 40.703125 16.984375 40.4375 16.96875 40.34375 C 16.953125 40.25 16.960938 40.027344 17.5625 39.4375 C 18.011719 38.996094 18.234375 38.890625 18.375 38.875 Z M 10.90625 41.625 C 10.953125 41.621094 11.003906 41.621094 11.03125 41.625 C 11.148438 41.640625 11.414063 41.796875 11.8125 42.1875 C 11.824219 42.1875 11.832031 42.1875 11.84375 42.1875 C 12.328125 42.660156 12.296875 43.367188 11.8125 43.84375 C 11.332031 44.316406 10.574219 44.316406 10.09375 43.84375 C 9.695313 43.453125 9.515625 43.1875 9.5 43.09375 C 9.484375 43 9.492188 42.777344 10.09375 42.1875 C 10.542969 41.746094 10.765625 41.640625 10.90625 41.625 Z M 7.53125 43.3125 C 7.535156 43.332031 7.527344 43.355469 7.53125 43.375 C 7.660156 44.257813 8.21875 44.820313 8.6875 45.28125 C 8.984375 45.570313 9.324219 45.785156 9.6875 45.9375 C 7.734375 45.984375 6.078125 45.753906 4.8125 45.34375 C 5.664063 44.550781 6.574219 43.914063 7.53125 43.3125 Z"/></svg>