<svg xmlns="http://www.w3.org/2000/svg"  viewBox="0 0 50 50" width="1000px" height="1000px"><path d="M 19 0 C 17.125695 0 15.478008 1.0377553 14.625 2.5761719 A 1.0001 1.0001 0 0 0 14.625 2.578125 C 14.444648 2.9038297 14.206623 3.4491357 13.791016 4.5019531 C 13.375408 5.5547705 12.849314 6.9994001 12.322266 8.7285156 C 11.288204 12.121015 10.267356 16.617076 10.064453 21.382812 C 8.8130579 22.926702 8 24.857675 8 27 C 8 29.103394 8.7890629 30.99872 10 32.529297 L 10 37.5 C 10 44.339007 15.108508 50 22 50 C 23.166667 50 24.078009 49.70416 24.697266 49.394531 C 24.883184 49.301572 24.85968 49.280666 25 49.1875 C 25.14032 49.28067 25.116816 49.301572 25.302734 49.394531 C 25.921991 49.70416 26.833333 50 28 50 C 34.891492 50 40 44.339007 40 37.5 L 40 32.529297 C 41.211039 30.998495 42 29.102584 42 27 C 42 24.857675 41.186942 22.926702 39.935547 21.382812 C 39.733136 16.617506 38.711805 12.121169 37.677734 8.7285156 C 37.150681 6.9993212 36.624739 5.5548991 36.208984 4.5019531 C 35.79323 3.4490071 35.557527 2.9047198 35.375 2.5761719 C 34.521992 1.0377553 32.874305 -2.9605947e-16 31 0 C 28.665072 0 26.704639 1.6294253 26.162109 3.8027344 C 26.019852 3.6268767 25.86929 3.4552277 25.707031 3.2929688 A 1.0001 1.0001 0 0 0 24.984375 3 A 1.0001 1.0001 0 0 0 24.292969 3.2929688 C 24.13071 3.4552277 23.980148 3.6268767 23.837891 3.8027344 C 23.295361 1.6294253 21.334928 0 19 0 z M 19 2 C 20.668484 2 22 3.3315161 22 5 C 22 5.7557432 21.793623 7.437529 21.566406 9.8476562 C 21.566201 9.8494517 21.560547 9.8886719 21.560547 9.8886719 A 1.0003546 1.0003546 0 0 0 21.556641 9.9433594 C 21.5477 10.038845 21.542202 10.08959 21.533203 10.1875 C 21.291249 12.820044 21.039272 16.373705 21 20.992188 A 1.0001 1.0001 0 0 0 21 21 C 21 30.933333 20 33.888889 20 40 C 20 42.749516 22.250484 45 25 45 C 27.749516 45 30 42.749516 30 40 C 30 33.888889 29 30.933333 29 21 A 1.0001 1.0001 0 0 0 29 20.992188 C 28.960728 16.373693 28.708751 12.820044 28.466797 10.1875 C 28.458226 10.094246 28.451878 10.046134 28.443359 9.9550781 A 1.0003546 1.0003546 0 0 0 28.439453 9.8886719 C 28.439453 9.8886719 28.433799 9.8494517 28.433594 9.8476562 C 28.206377 7.437529 28 5.7557432 28 5 C 28 3.3315161 29.331516 2 31 2 C 32.137695 2 33.114008 2.6252916 33.625 3.546875 C 33.59497 3.492827 33.951864 4.2289929 34.349609 5.2363281 C 34.747355 6.2436634 35.256178 7.6410694 35.765625 9.3125 C 36.784519 12.655361 37.802679 17.097163 37.966797 21.71875 A 1.0001 1.0001 0 0 0 38.220703 22.349609 C 39.326229 23.590255 40 25.209243 40 27 C 40 28.775123 39.338486 30.381349 38.25 31.617188 A 1.0001 1.0001 0 0 0 38 32.279297 L 38 37.5 C 38 43.362993 33.810508 48 28 48 C 27.166667 48 26.578009 47.79584 26.197266 47.605469 C 25.816523 47.415097 25.707031 47.292969 25.707031 47.292969 A 1.0001 1.0001 0 0 0 24.292969 47.292969 C 24.292969 47.292969 24.183477 47.415097 23.802734 47.605469 C 23.421991 47.79584 22.833333 48 22 48 C 16.189492 48 12 43.362993 12 37.5 L 12 32.279297 A 1.0001 1.0001 0 0 0 11.75 31.617188 C 10.661359 30.381172 10 28.776247 10 27 C 10 25.209243 10.673771 23.590255 11.779297 22.349609 A 1.0001 1.0001 0 0 0 12.033203 21.71875 C 12.19781 17.096619 13.217425 12.653316 14.236328 9.3105469 C 14.74578 7.6391624 15.254701 6.2436357 15.652344 5.2363281 C 16.049986 4.2290205 16.403352 3.4956734 16.375 3.546875 C 16.885992 2.6252916 17.862305 2 19 2 z M 25 5.75 C 25.425111 6.4680368 25.790428 7.2616327 26.011719 8.0273438 C 26.33561 9.1480767 26.435528 9.9969819 26.443359 10.064453 C 26.454548 10.182458 26.463385 10.247016 26.474609 10.369141 C 26.713155 12.964597 26.961272 16.453295 27 21.007812 C 27.000704 31.065989 28 34.113186 28 40 C 28 41.668484 26.668484 43 25 43 C 23.331516 43 22 41.668484 22 40 C 22 34.113186 22.999296 31.06599 23 21.007812 L 23 21 C 23.03901 16.45038 23.28702 12.962695 23.525391 10.369141 C 23.536615 10.247016 23.545452 10.182458 23.556641 10.064453 C 23.564472 9.9969819 23.66439 9.1480767 23.988281 8.0273438 C 24.209572 7.2616328 24.574889 6.4680368 25 5.75 z M 17.980469 8.9863281 A 1.0001 1.0001 0 0 0 17.044922 9.8398438 C 16.522774 13.040399 16 17.203463 16 22 L 16 27.919922 C 15.944347 28.148051 15 32.06389 15 38 A 1.0001 1.0001 0 1 0 17 38 C 17 32.111111 17.970703 28.242188 17.970703 28.242188 L 18 28.123047 L 18 22 C 18 17.348537 18.505726 13.297601 19.017578 10.160156 A 1.0001 1.0001 0 0 0 18.080078 8.9863281 A 1.0001 1.0001 0 0 0 17.980469 8.9863281 z M 31.990234 8.9863281 A 1.0001 1.0001 0 0 0 30.982422 10.160156 C 31.494274 13.297601 32 17.348537 32 22 L 32 28.123047 L 32.029297 28.242188 C 32.029294 28.242188 33 32.111111 33 38 A 1.0001 1.0001 0 1 0 35 38 C 35 32.06389 34.055653 28.148051 34 27.919922 L 34 22 C 34 17.203463 33.477226 13.040399 32.955078 9.8398438 A 1.0001 1.0001 0 0 0 31.990234 8.9863281 z"/></svg>