<svg xmlns="http://www.w3.org/2000/svg"  viewBox="0 0 50 50" width="1000px" height="1000px"><path d="M 25.597656 4 C 23.635843 4 21.727793 4.3850213 19.935547 5.0488281 A 1.0001 1.0001 0 0 0 19.861328 5.0292969 C 18.634752 4.7588962 17.413381 4.6805524 16.216797 4.7675781 C 12.627043 5.0286553 9.2669329 6.7764039 6.7011719 9.2929688 C 3.2801571 12.648388 1.1786496 17.419615 1.8066406 22.132812 C 2.4692612 27.102256 4.3647953 30.952582 7 33.828125 C 11.548924 43.138402 19.379008 46 24.59375 46 C 26.509001 46 29.272004 45.95436 32.097656 44.919922 C 34.852265 43.911488 37.654059 41.9077 39.681641 38.242188 C 40.40908 37.924921 41.095607 37.60443 41.699219 37.283203 C 43.680111 36.228659 45.279737 34.528644 46.03125 32.59375 C 46.427792 31.572787 46.528154 30.453498 46.306641 29.380859 C 48.016086 27.308244 48.275256 24.292107 47.398438 21.298828 C 46.498369 18.226185 44.422012 15.114871 41.316406 12.857422 C 40.100471 10.568146 38.161816 8.6485228 35.912109 7.1953125 C 32.771531 5.1666381 29.02195 4 25.597656 4 z M 25.597656 6 C 28.558363 6 32.00775 7.0544244 34.826172 8.875 C 36.9166 10.225324 38.642753 11.97988 39.658203 13.988281 A 1.0001 1.0001 0 0 0 39.681641 14.03125 C 39.685652 14.039279 39.691324 14.04665 39.695312 14.054688 C 40.032189 14.733562 40.286796 15.441073 40.447266 16.171875 C 40.749406 17.546446 40.561301 19.820298 39.699219 21.707031 C 38.845362 23.57576 37.448531 25.042048 35.273438 25.398438 C 33.06638 25.78128 31.020222 26.157384 29.640625 25.828125 C 28.712355 25.606486 27.539184 25.091104 26.34375 24.322266 C 30.696791 22.182344 31.966797 17.255859 31.966797 17.255859 A 1.0001 1.0001 0 0 0 31.046875 15.986328 A 1.0001 1.0001 0 0 0 30.033203 16.744141 C 30.033203 16.744141 28.710247 21.539214 24.509766 22.910156 C 23.019207 21.574869 21.67097 19.835051 20.947266 17.681641 A 1.0001 1.0001 0 1 0 19.052734 18.318359 C 20.908224 23.83944 25.812237 26.970337 29.175781 27.773438 C 31.679738 28.37104 34.458446 27.529069 37.0625 27.125 C 39.666554 26.720931 41.885336 26.6858 43.470703 28.183594 C 44.610888 29.260768 44.705253 30.480785 44.166016 31.869141 C 43.626778 33.257497 42.332873 34.680122 40.759766 35.517578 C 37.050786 37.491402 30.752544 39.683008 21.96875 38.707031 C 17.613275 38.22309 13.433007 36.79351 10.177734 34.121094 C 6.9224625 31.448677 4.5457797 27.542326 3.7890625 21.867188 C 3.2630535 17.919384 5.0685773 13.695533 8.1015625 10.720703 C 10.414888 8.4517337 13.388829 6.9437044 16.501953 6.7578125 C 11.976823 9.6874453 8.8476562 14.624969 8.8476562 19.970703 C 8.8476563 23.798241 10.534467 27.651563 13.875 30.337891 C 17.215533 33.024218 22.17487 34.511989 28.609375 33.792969 A 1.0001 1.0001 0 1 0 28.388672 31.806641 C 22.366177 32.479621 18.000123 31.088219 15.128906 28.779297 C 12.257689 26.470375 10.847656 23.214165 10.847656 19.970703 C 10.847656 12.743126 17.887901 6 25.597656 6 z M 42.541016 16.662109 C 43.963438 18.276231 44.96293 20.101224 45.478516 21.861328 C 46.092786 23.958318 45.837113 25.736893 45.158203 27.138672 C 45.043568 27.006275 44.977828 26.855292 44.845703 26.730469 C 43.444445 25.406614 41.74237 24.95446 39.996094 24.900391 C 40.627529 24.187317 41.135892 23.378686 41.519531 22.539062 C 42.415238 20.578743 42.726499 18.447766 42.541016 16.662109 z M 11.853516 37.667969 C 14.872412 39.359361 18.287375 40.308841 21.748047 40.693359 C 27.745544 41.359748 32.671978 40.609196 36.498047 39.421875 C 34.966086 41.299705 33.201087 42.385374 31.410156 43.041016 C 28.964559 43.936324 26.470499 44 24.59375 44 C 21.062939 44 15.938685 42.500571 11.853516 37.667969 z"/></svg>