<svg xmlns="http://www.w3.org/2000/svg"  viewBox="0 0 50 50" width="1000px" height="1000px"><path d="M 42.90625 2.90625 C 41.851563 2.90625 40.796875 3.296875 40 4.09375 L 39.15625 4.90625 C 38.953125 4.800781 38.722656 4.769531 38.5 4.8125 C 38.308594 4.855469 38.136719 4.953125 38 5.09375 L 6.59375 36.5 C 6.496094 36.597656 6.421875 36.714844 6.375 36.84375 L 3.0625 45.65625 C 2.929688 46.019531 3.019531 46.429688 3.296875 46.703125 C 3.570313 46.980469 3.980469 47.070313 4.34375 46.9375 L 13.15625 43.625 C 13.285156 43.578125 13.402344 43.503906 13.5 43.40625 L 44.90625 12 C 45.242188 11.652344 45.285156 11.113281 45 10.71875 L 45.8125 9.90625 C 47.40625 8.3125 47.40625 5.6875 45.8125 4.09375 C 45.015625 3.296875 43.960938 2.90625 42.90625 2.90625 Z M 42.90625 4.90625 C 43.453125 4.90625 44.003906 5.097656 44.40625 5.5 C 45.214844 6.308594 45.214844 7.691406 44.40625 8.5 L 43.625 9.3125 L 40.625 6.3125 L 41.40625 5.5 C 41.808594 5.097656 42.359375 4.90625 42.90625 4.90625 Z M 38.6875 7.1875 L 42.8125 11.3125 L 40.0625 14.03125 L 35.96875 9.9375 Z M 34.53125 11.34375 L 38.65625 15.46875 L 12.75 41.34375 L 12 40.5625 L 12 39 C 12 38.449219 11.550781 38 11 38 L 9.4375 38 L 8.65625 37.25 Z M 7.65625 39.09375 L 8.28125 39.71875 C 8.472656 39.90625 8.734375 40.007813 9 40 L 10 40 L 10 41 C 9.992188 41.265625 10.09375 41.527344 10.28125 41.71875 L 10.90625 42.34375 L 7.09375 43.78125 L 6.21875 42.90625 Z"/></svg>