<svg fill="#000000" xmlns="http://www.w3.org/2000/svg"  viewBox="0 0 512 512" width="1000px" height="1000px"><path d="M493.5,91.084,175.391,74.809c-5.18-1.629-13.083-1.394-25.139,3.339-13.054,5.126-28.216,14.439-42.694,26.222q-2.378,1.935-4.7,3.935l-61.3-67.477a8.81,8.81,0,0,0-14.036,1.078c-28.371,44.506-14.917,94.4-10.495,110.8.249.924.465,1.728.639,2.4a14.948,14.948,0,0,0,3.068,5.919L138.054,298.992,49.533,367.83a8.791,8.791,0,0,0,.044,14.086q3.041,2.253,6.186,4.274l-15.3,1.908a8.8,8.8,0,0,0-7.178,12.117c20.277,48.7,68.976,66.339,84.979,72.138.9.326,1.687.611,2.344.857a15.021,15.021,0,0,0,5.259.948l329.071-30.3c.37.011.745.028,1.1.028,6.712,0,11.674-1.935,14.645-5.781,1.636-2.118,3.4-5.823,2.546-11.447-2.161-14.141-20.567-35.162-46.891-53.551-15.306-10.691-31.113-18.869-44.509-23.025-12.364-3.836-20.261-3.494-25.308-1.493l-81.5,10.187c.194-3.736.3-7.568.3-11.474a203.955,203.955,0,0,0-1.656-26.332l158.6-115.7-.009-.013a22.479,22.479,0,0,0,1.962-1.619,17.348,17.348,0,0,0,5.723-13.447c-.15-5.135-2.875-9.933-7.755-14.19,35.932-18.315,59.251-42.953,69.359-73.358A8.8,8.8,0,0,0,493.5,91.084ZM115.133,113.677C146.678,88,169.885,83.233,172.846,86.852a4.148,4.148,0,0,1,.364,2.7c-.935,9.258-14.382,28.8-38.273,48.247-1.013.824-2.038,1.633-3.065,2.437l-20.938-23.049C112.316,116.005,113.716,114.829,115.133,113.677ZM35.457,51.957l204.015,224.57a19.664,19.664,0,0,0-2.7,2.272,35.564,35.564,0,0,0-6.429,9.545L27.976,68.336A96.179,96.179,0,0,1,35.457,51.957ZM242.933,403.806c-5.01-8.466-10.836-27.57-10.907-56.521-.074-30.608,6.6-53.358,13.242-60.012a4.232,4.232,0,0,1,2.406-1.477c4.679,0,15.647,20.926,15.647,61.5,0,23.1-4.678,52.095-13.349,60.342a3.776,3.776,0,0,1-2,1.17c-1.309-.065-3.111-1.75-5.033-4.993l0,0Zm17.24-123.195a21.526,21.526,0,0,0-4.8-4.426l-9.958-10.961,78.123-61.536a167.768,167.768,0,0,0,27.468,6.86Zm-22.847-24.292-10.3-11.332,72.787-56.609q3.224,5.3,11.292,9.823Zm-18.388-20.24-51.886-57.114,122.61,2.109ZM24.234,81.992,225.64,300.955a149.718,149.718,0,0,0-4.849,27.816L22.034,108.222A119.478,119.478,0,0,1,24.234,81.992Zm5.649,71.266a2.841,2.841,0,0,1-.594-1.139c-.183-.713-.412-1.563-.675-2.54a199.565,199.565,0,0,1-4.741-21.392l196.16,217.667c0,.487-.008.971-.007,1.461a192.92,192.92,0,0,0,2.81,32.857Zm154.886,200.67,5.628,6.619-14.113,10.612-16.526,2.061Zm-48.448,22.215-37.686,4.7,65.289-51.429,13.062,15.362Zm9.514-68,10.309,12.124-80.22,63.191a97.365,97.365,0,0,1-15.731-8.716ZM53.2,412.043a95.9,95.9,0,0,1-7.12-12.554l160.416-20,13.012,15.3Zm8.655,11.166,167.08-17.338,4.863,5.72.017-.014c3.324,4.895,7.23,8.109,11.711,8.984L77.368,437.542A114.1,114.1,0,0,1,61.858,423.209Zm64.263,38.938a2.93,2.93,0,0,1-1.3-.17c-.691-.26-1.521-.561-2.475-.907A183.88,183.88,0,0,1,93.2,448l300.521-30.347c.308.216.611.432.921.647a192.265,192.265,0,0,0,28.471,16.438ZM359.938,360.412c.611-.87,2.3-1.383,4.936-1.383,8.953,0,28.835,5.919,54.6,23.914,18.964,13.247,40.095,33.705,41.9,45.526a3.492,3.492,0,0,1-.18,2.3c-.573.74-5.4,2.69-18.55-1.3-12.417-3.773-27.036-11.239-41.162-21.024-25.2-17.454-40.053-35.971-41.7-45.244A4.239,4.239,0,0,1,359.938,360.412Zm.034,26.982a149.939,149.939,0,0,0,19.8,19.61l-126.765,12.8a16.788,16.788,0,0,0,5.233-3.469c3.575-3.4,6.713-8.848,9.292-15.838Zm-85.951-16.4,73.627-9.2a19.7,19.7,0,0,0,.313,3.509,35.991,35.991,0,0,0,4.321,11.065l-81.067,11.492A156.363,156.363,0,0,0,274.021,370.994Zm-2.647-63.209c-.785-3.555-1.678-6.924-2.68-10.05-.786-2.452-1.608-4.654-2.455-6.648l101.524-78.309c.438.043.872.09,1.311.131,7.022.653,14.7,1.118,22.324,1.118,2.964,0,5.916-.076,8.822-.233Zm154.637-112.9c-.264.247-.556.487-.861.722l-.659.481c-8.081,5.494-28.027,7.32-54.305,4.871-17.742-1.651-33.944-5.092-45.622-9.688-12.421-4.888-14.977-9.233-14.893-10.37.3-4.03,16.684-11.6,47.512-11.6,4.724,0,9.788.178,15.184.574h0c38.936,2.855,55.415,14.868,55.584,20.664A5.382,5.382,0,0,1,426.011,194.886ZM420.177,168.5c-11.624-5.4-27.783-9.192-46.932-10.6h0c-18.638-1.366-36.414-.317-50.054,2.952-9.463,2.269-15.547,5.278-19.391,8.457l-147.823-2.542-16.018-17.631c.854-.675,1.71-1.345,2.554-2.032.379-.308.751-.619,1.127-.929l292.84,13.813Q428.824,164.479,420.177,168.5Zm33.017-19.734-296.784-14a151.694,151.694,0,0,0,18.517-21.317l297.412,17.054A121.791,121.791,0,0,1,453.194,148.769Zm27.507-29.8L181.78,101.827a35.278,35.278,0,0,0,3.37-11.063,19.593,19.593,0,0,0,.051-3.438l303.531,15.529A94.723,94.723,0,0,1,480.7,118.968Z"/></svg>