<svg fill="#000000" xmlns="http://www.w3.org/2000/svg"  viewBox="0 0 50 50" width="1000px" height="1000px"><path d="M 42 2 C 34.179818 2 28.472721 6.3597557 27.671875 7 L 26 7 C 26 5.3550302 24.64497 4 23 4 C 21.35503 4 20 5.3550302 20 7 L 20 10 A 1.0001 1.0001 0 0 0 21 11 L 22 11 L 22 13 L 19 13 A 1.0001 1.0001 0 0 0 18 14 L 18 23.023438 A 1.0001 1.0001 0 0 0 17.810547 23.083984 C 13.273787 25.062538 10.090395 29.556129 10.007812 34.792969 A 1.0001 1.0001 0 0 0 10.005859 35.193359 C 10.073247 39.687989 12.468247 43.584644 16 45.865234 L 16 47 A 1.0001 1.0001 0 0 0 17 48 L 29 48 A 1.0001 1.0001 0 0 0 30 47 L 30 45.865234 C 33.528934 43.585615 35.923411 39.6936 35.994141 35.203125 A 1.0001 1.0001 0 0 0 35.992188 34.798828 C 35.911925 29.559471 32.728891 25.063235 28.189453 23.083984 A 1.0001 1.0001 0 0 0 28 23.023438 L 28 14 A 1.0001 1.0001 0 0 0 27 13 L 24 13 L 24 11 L 25 11 A 1.0001 1.0001 0 0 0 26 10 L 26 9 L 27.671875 9 C 28.472721 9.6402443 34.179818 14 42 14 C 45.301625 14 48 11.301625 48 8 C 48 4.6983746 45.301625 2 42 2 z M 42 4 C 44.220375 4 46 5.7796254 46 8 C 46 10.220375 44.220375 12 42 12 C 35.638546 12 31.352057 9.0813024 29.876953 8 C 31.352057 6.9186976 35.638546 4 42 4 z M 23 6 C 23.56503 6 24 6.4349698 24 7 L 24 9 L 22 9 L 22 7 C 22 6.4349698 22.43497 6 23 6 z M 20 15 L 26 15 L 26 23 L 22.154297 23 A 1.0001 1.0001 0 0 0 21.984375 22.986328 A 1.0001 1.0001 0 0 0 21.839844 23 L 20 23 L 20 15 z M 18.474609 25 L 19 25 L 20.931641 25 C 20.720931 26.625045 20.006584 27.687391 19.167969 28.945312 C 18.294057 30.25618 17.293523 31.788255 17.054688 34 L 12.050781 34 C 12.41537 29.972012 14.953789 26.597109 18.474609 25 z M 22.945312 25 L 27 25 L 27.523438 25 C 31.04519 26.597127 33.584502 29.971994 33.949219 34 L 19.068359 34 C 19.279069 32.374955 19.993416 31.312609 20.832031 30.054688 C 21.705943 28.74382 22.706477 27.211745 22.945312 25 z M 12.050781 36 L 17.048828 36 C 17.528221 40.924096 21.400391 43.800781 21.400391 43.800781 A 1.0003905 1.0003905 0 1 0 22.599609 42.199219 C 22.599609 42.199219 19.542172 39.868484 19.068359 36 L 33.949219 36 C 33.61966 39.649359 31.511652 42.769534 28.498047 44.515625 A 1.0001 1.0001 0 0 0 28 45.380859 L 28 46 L 18 46 L 18 45.380859 A 1.0001 1.0001 0 0 0 17.501953 44.515625 C 14.488633 42.770539 12.380381 39.649504 12.050781 36 z"/></svg>