<svg xmlns="http://www.w3.org/2000/svg"  viewBox="0 0 50 50" width="1000px" height="1000px"><path d="M 21 4 C 20.477778 4 19.94539 4.1913289 19.568359 4.5683594 C 19.191329 4.9453899 19 5.4777778 19 6 L 19 10 C 19 10.522222 19.191329 11.05461 19.568359 11.431641 C 19.94539 11.808671 20.477778 12 21 12 L 22 12 L 22 13 L 7 13 C 5.3545455 13 4 14.354545 4 16 L 4 42 C 4 43.645455 5.3545455 45 7 45 L 43 45 C 44.645455 45 46 43.645455 46 42 L 46 16 C 46 14.354545 44.645455 13 43 13 L 28 13 L 28 12 L 29 12 C 29.522222 12 30.05461 11.808671 30.431641 11.431641 C 30.808671 11.05461 31 10.522222 31 10 L 31 6 C 31 5.4777778 30.808671 4.9453899 30.431641 4.5683594 C 30.05461 4.1913289 29.522222 4 29 4 L 21 4 z M 21 6 L 29 6 L 29 10 L 21 10 L 21 6 z M 25 7 A 1 1 0 0 0 25 9 A 1 1 0 0 0 25 7 z M 24 12 L 26 12 L 26 13 L 24 13 L 24 12 z M 7 15 L 43 15 C 43.554545 15 44 15.445455 44 16 L 44 28 L 36 28 L 36 30 L 44 30 L 44 42 C 44 42.554545 43.554545 43 43 43 L 7 43 C 6.4454545 43 6 42.554545 6 42 L 6 30 L 14 30 L 14 28 L 6 28 L 6 16 C 6 15.445455 6.4454545 15 7 15 z M 15 22 L 15 23 L 15 36 L 35 36 L 35 22 L 15 22 z M 17 24 L 33 24 L 33 34 L 17 34 L 17 24 z"/></svg>