<svg xmlns="http://www.w3.org/2000/svg"  viewBox="0 0 50 50" width="1000px" height="1000px"><path d="M 37.980469 2.992188 C 37.941406 2.992188 37.90625 2.996094 37.871094 3 L 23 3 C 22.734375 3 22.480469 3.105469 22.292969 3.292969 L 16 9.585938 L 13.707031 7.292969 C 13.316406 6.902344 12.683594 6.902344 12.292969 7.292969 L 8.292969 11.292969 C 7.902344 11.683594 7.902344 12.316406 8.292969 12.707031 L 10.585938 15 L 8.292969 17.292969 C 8.105469 17.480469 8 17.734375 8 18 L 8 43 C 8 45.199219 9.800781 47 12 47 L 38 47 C 40.199219 47 42 45.199219 42 43 L 42 7 C 42 4.902344 40.351563 3.183594 38.292969 3.03125 C 38.191406 3 38.085938 2.988281 37.980469 2.992188 Z M 23.414063 5 L 35.585938 5 L 30.585938 10 L 18.414063 10 Z M 38.375 5.039063 C 39.308594 5.210938 40 6.011719 40 7 L 40 43 C 40 44.117188 39.117188 45 38 45 L 12 45 C 10.882813 45 10 44.117188 10 43 L 10 18.414063 L 16.414063 12 L 31 12 C 31.265625 12 31.519531 11.894531 31.707031 11.707031 Z M 13 9.414063 L 14.585938 11 L 12 13.585938 L 10.414063 12 Z M 25.042969 19 C 24.742188 18.988281 24.453125 19.109375 24.253906 19.332031 C 24.253906 19.332031 22.71875 21.046875 21.183594 23.238281 C 19.644531 25.429688 18 28.011719 18 30.402344 C 18 34.082031 21.195313 37 25 37 C 28.804688 37 32 34.082031 32 30.402344 C 32 28.011719 30.355469 25.429688 28.816406 23.238281 C 27.28125 21.046875 25.746094 19.332031 25.746094 19.332031 C 25.5625 19.132813 25.3125 19.011719 25.042969 19 Z M 25 21.613281 C 25.484375 22.175781 26.09375 22.835938 27.183594 24.386719 C 28.644531 26.46875 30 29.089844 30 30.402344 C 30 32.917969 27.796875 35 25 35 C 22.203125 35 20 32.917969 20 30.402344 C 20 29.089844 21.355469 26.46875 22.816406 24.386719 C 23.90625 22.835938 24.515625 22.175781 25 21.613281 Z"/></svg>