<svg xmlns="http://www.w3.org/2000/svg"  viewBox="0 0 50 50" width="1000px" height="1000px"><path d="M 14 0 C 13.448 0 13 0.447 13 1 L 13 8 C 13 8.553 13.448 9 14 9 L 15 9 L 15 9.9375 C 15 11.7535 14.492297 13.526453 13.529297 15.064453 L 11.6875 18.011719 C 10.812235 19.412143 10.270007 20.980299 10.080078 22.607422 C 10.028367 22.72817 10 22.860191 10 23 L 10 23.898438 L 10 43 L 10 45.474609 C 10 47.970609 12.030391 50 14.525391 50 L 35.474609 50 C 37.969609 50 40 47.969656 40 45.472656 L 40 43 L 40 23.898438 L 40 23 C 40 22.860191 39.971633 22.72817 39.919922 22.607422 C 39.729993 20.980299 39.187765 19.412143 38.3125 18.011719 L 36.470703 15.064453 C 35.507703 13.526453 35 11.7525 35 9.9375 L 35 9 L 36 9 C 36.552 9 37 8.553 37 8 L 37 1 C 37 0.447 36.552 0 36 0 L 14 0 z M 15 2 L 35 2 L 35 7 L 34 7 L 32 7 L 32 4 C 32 3.447 31.552 3 31 3 C 30.448 3 30 3.447 30 4 L 30 7 L 26 7 L 26 4 C 26 3.447 25.552 3 25 3 C 24.448 3 24 3.447 24 4 L 24 7 L 20 7 L 20 4 C 20 3.447 19.552 3 19 3 C 18.448 3 18 3.447 18 4 L 18 7 L 16 7 L 15 7 L 15 2 z M 17 9 L 33 9 L 33 9.9375 C 33 12.1285 33.614391 14.269953 34.775391 16.126953 L 36.615234 19.072266 C 37.17963 19.975299 37.557171 20.968962 37.777344 22 L 12.222656 22 C 12.442918 20.969167 12.819746 19.975922 13.384766 19.072266 L 15.226562 16.126953 C 16.386563 14.268953 17 12.1275 17 9.9375 L 17 9 z M 12 24 L 38 24 L 38 42 L 12 42 L 12 24 z M 23 26 C 22.448 26 22 26.447 22 27 L 22 30 L 19 30 C 18.448 30 18 30.447 18 31 L 18 35 C 18 35.553 18.448 36 19 36 L 22 36 L 22 39 C 22 39.553 22.448 40 23 40 L 27 40 C 27.552 40 28 39.553 28 39 L 28 36 L 31 36 C 31.552 36 32 35.553 32 35 L 32 31 C 32 30.447 31.552 30 31 30 L 28 30 L 28 27 C 28 26.447 27.552 26 27 26 L 23 26 z M 24 28 L 26 28 L 26 31 C 26 31.553 26.448 32 27 32 L 30 32 L 30 34 L 27 34 C 26.448 34 26 34.447 26 35 L 26 38 L 24 38 L 24 35 C 24 34.447 23.552 34 23 34 L 20 34 L 20 32 L 23 32 C 23.552 32 24 31.553 24 31 L 24 28 z M 12 44 L 38 44 L 38 45.474609 C 38 46.866609 36.866656 48 35.472656 48 L 14.525391 48 C 13.132391 48 12 46.865656 12 45.472656 L 12 44 z"/></svg>