<svg xmlns="http://www.w3.org/2000/svg"  viewBox="0 0 50 50" width="1000px" height="1000px"><path d="M 25 10 C 19.390625 10 13.757813 12.03125 9.46875 14.5625 C 7.324219 15.828125 5.496094 17.214844 4.1875 18.59375 C 3.347656 19.476563 2.679688 20.355469 2.3125 21.25 C 1.964844 21.421875 1.582031 21.648438 1.15625 22.0625 C 0.578125 22.625 0 23.503906 0 24.625 C 0 26.246094 0.734375 27.421875 1.40625 28.5 C 2.339844 30.003906 5.109375 34.292969 6.4375 36.375 C 7.058594 37.347656 7.972656 38.074219 9.0625 38.4375 C 11.691406 39.3125 17.660156 41 25 41 C 32.347656 41 38.3125 39.3125 40.9375 38.4375 C 42.023438 38.074219 42.941406 37.375 43.5625 36.40625 C 44.890625 34.328125 47.609375 30.070313 48.5 28.4375 C 49.03125 27.460938 50 26.34375 50 24.625 C 50 23.503906 49.421875 22.625 48.84375 22.0625 C 48.417969 21.648438 48.035156 21.421875 47.6875 21.25 C 47.320313 20.355469 46.652344 19.476563 45.8125 18.59375 C 44.503906 17.214844 42.675781 15.828125 40.53125 14.5625 C 36.242188 12.03125 30.609375 10 25 10 Z M 25 12 C 30.125 12 35.503906 13.90625 39.53125 16.28125 C 41.542969 17.46875 43.207031 18.773438 44.34375 19.96875 C 45.480469 21.164063 46 22.277344 46 22.78125 C 46 23.796875 45.703125 24.589844 45.03125 25.1875 C 44.359375 25.785156 43.214844 26.234375 41.375 26.21875 C 40.410156 26.210938 39.246094 26.015625 37.875 25.5625 L 37.25 25.375 L 36.84375 25.84375 C 35.640625 27.175781 33.226563 28.03125 30.625 28 C 28.84375 27.980469 27.070313 27.636719 25.53125 26.6875 L 25 26.375 L 24.46875 26.6875 C 22.929688 27.636719 21.15625 27.980469 19.375 28 C 16.773438 28.03125 14.359375 27.175781 13.15625 25.84375 L 12.75 25.375 L 12.125 25.5625 C 10.753906 26.015625 9.589844 26.210938 8.625 26.21875 C 6.785156 26.234375 5.640625 25.785156 4.96875 25.1875 C 4.296875 24.589844 4 23.796875 4 22.78125 C 4 22.277344 4.519531 21.164063 5.65625 19.96875 C 6.792969 18.773438 8.457031 17.46875 10.46875 16.28125 C 14.496094 13.90625 19.875 12 25 12 Z M 31.40625 15.5625 C 31.34375 15.566406 31.28125 15.578125 31.21875 15.59375 C 30.828125 15.660156 30.511719 15.953125 30.417969 16.339844 C 30.320313 16.726563 30.464844 17.132813 30.78125 17.375 L 32.625 18.875 C 32.886719 19.167969 33.300781 19.277344 33.675781 19.15625 C 34.050781 19.039063 34.320313 18.707031 34.363281 18.316406 C 34.40625 17.925781 34.214844 17.542969 33.875 17.34375 L 32.0625 15.8125 C 31.882813 15.652344 31.648438 15.5625 31.40625 15.5625 Z M 18.375 15.59375 C 18.214844 15.628906 18.0625 15.703125 17.9375 15.8125 L 16.125 17.34375 C 15.785156 17.542969 15.59375 17.925781 15.636719 18.316406 C 15.679688 18.707031 15.949219 19.039063 16.324219 19.15625 C 16.699219 19.277344 17.113281 19.167969 17.375 18.875 L 19.21875 17.375 C 19.578125 17.097656 19.703125 16.613281 19.527344 16.195313 C 19.351563 15.777344 18.917969 15.53125 18.46875 15.59375 C 18.4375 15.59375 18.40625 15.59375 18.375 15.59375 Z M 24.90625 17.34375 C 24.378906 17.394531 23.980469 17.84375 24 18.375 L 24 20.875 C 23.996094 21.234375 24.183594 21.570313 24.496094 21.753906 C 24.808594 21.933594 25.191406 21.933594 25.503906 21.753906 C 25.816406 21.570313 26.003906 21.234375 26 20.875 L 26 18.375 C 26.007813 18.105469 25.90625 17.84375 25.71875 17.648438 C 25.53125 17.453125 25.269531 17.34375 25 17.34375 C 24.96875 17.34375 24.9375 17.34375 24.90625 17.34375 Z M 2.125 24.0625 C 2.347656 25.054688 2.855469 25.972656 3.65625 26.6875 C 4.792969 27.703125 6.449219 28.238281 8.625 28.21875 C 9.660156 28.210938 10.882813 27.929688 12.15625 27.5625 C 13.941406 29.21875 16.605469 30.03125 19.40625 30 C 21.25 29.980469 23.191406 29.5625 25 28.59375 C 26.808594 29.5625 28.75 29.980469 30.59375 30 C 33.394531 30.03125 36.058594 29.21875 37.84375 27.5625 C 39.117188 27.929688 40.339844 28.210938 41.375 28.21875 C 43.550781 28.238281 45.207031 27.703125 46.34375 26.6875 C 47.144531 25.972656 47.652344 25.054688 47.875 24.0625 C 47.949219 24.230469 48 24.417969 48 24.625 C 48 25.554688 47.40625 26.261719 46.75 27.46875 C 45.988281 28.867188 43.230469 33.242188 41.90625 35.3125 C 41.535156 35.894531 40.972656 36.339844 40.3125 36.5625 C 37.824219 37.390625 32.039063 39 25 39 C 17.964844 39 12.175781 37.390625 9.6875 36.5625 C 9.027344 36.339844 8.496094 35.898438 8.125 35.3125 C 6.796875 33.230469 4.039063 28.90625 3.125 27.4375 C 2.449219 26.355469 2 25.652344 2 24.625 C 2 24.417969 2.050781 24.230469 2.125 24.0625 Z"/></svg>