<svg xmlns="http://www.w3.org/2000/svg"  viewBox="0 0 50 50" width="1000px" height="1000px"><path d="M 5.96875 6 C 5.433594 6 4.695313 6.160156 4.0625 6.78125 C 3.519531 7.316406 3.191406 8.207031 3.09375 9.3125 C 2.640625 9.050781 2.179688 8.804688 1.71875 8.34375 C 1.332031 7.945313 0.695313 7.941406 0.296875 8.328125 C -0.101563 8.714844 -0.105469 9.351563 0.28125 9.75 C 1.207031 10.675781 2.207031 11.238281 3.21875 11.59375 C 3.4375 13.042969 3.816406 14.28125 4.28125 15.09375 C 4.546875 15.554688 4.828125 15.90625 5.0625 16.1875 C 3.75 18.308594 2.96875 20.863281 2.96875 23.84375 C 2.96875 29.039063 3.417969 38.230469 6.84375 44.9375 C 7.253906 45.738281 8.019531 46 8.53125 46 L 9.8125 46 C 10.164063 46 10.515625 45.824219 10.71875 45.625 C 10.921875 45.425781 11.03125 45.207031 11.09375 45.03125 C 11.199219 44.738281 11.203125 44.507813 11.1875 44.25 L 11.21875 44.25 C 11.289063 41.539063 12.640625 38.941406 13.5 37.28125 C 14.007813 37.445313 14.523438 37.589844 15.03125 37.71875 C 15.046875 37.773438 15.070313 37.824219 15.09375 37.875 C 16.453125 41.957031 17.1875 43.589844 18.4375 45.0625 C 18.457031 45.09375 18.476563 45.097656 18.5 45.125 C 18.765625 45.457031 19.070313 45.65625 19.34375 45.78125 C 19.640625 45.917969 19.824219 46 20.21875 46 L 21.3125 46 C 21.660156 46 22.089844 45.789063 22.28125 45.53125 C 22.472656 45.273438 22.507813 45.023438 22.53125 44.84375 C 22.566406 44.546875 22.53125 44.34375 22.46875 44.125 C 22.199219 42.789063 22.027344 40.070313 22.0625 38.6875 C 24.390625 38.769531 26.140625 38.621094 26.6875 38.5625 C 27.542969 41.222656 28.65625 43.625 29.375 44.84375 C 29.628906 45.277344 29.941406 45.625 30.34375 45.8125 C 30.746094 46 31.136719 45.96875 31.25 45.96875 L 32.34375 45.96875 C 32.753906 45.96875 33.214844 45.707031 33.4375 45.40625 C 33.660156 45.105469 33.726563 44.839844 33.75 44.625 C 33.796875 44.226563 33.730469 43.988281 33.71875 43.9375 C 33.71875 43.9375 33.71875 43.875 33.71875 43.875 C 33.710938 43.777344 33.46875 40.308594 33.75 37.875 C 34.074219 37.882813 34.394531 37.847656 34.71875 37.84375 C 34.957031 40.984375 36.394531 43.917969 36.90625 44.90625 C 37.113281 45.308594 37.425781 45.65625 37.8125 45.84375 C 38.199219 46.03125 38.527344 46 38.625 46 L 39.59375 46 C 39.988281 46 40.4375 45.773438 40.65625 45.5 C 40.875 45.226563 40.933594 44.980469 40.96875 44.78125 C 41.039063 44.402344 40.972656 44.117188 40.96875 44.09375 L 41 44.09375 C 41 44.09375 40.519531 39.511719 40.65625 37.125 C 41.21875 36.996094 41.765625 36.875 42.28125 36.71875 C 43.660156 36.304688 44.867188 35.824219 45.8125 35.3125 C 46.757813 34.800781 47.492188 34.367188 47.875 33.5 C 48.113281 32.957031 48.25 32.296875 48.40625 31.59375 C 48.5625 30.890625 48.714844 30.144531 48.75 30.03125 C 48.734375 30.082031 48.789063 29.933594 48.84375 29.75 C 48.898438 29.566406 48.960938 29.332031 48.9375 29 C 48.914063 28.667969 48.734375 28.1875 48.34375 27.90625 C 47.953125 27.625 47.527344 27.5625 47.09375 27.59375 C 46.050781 27.671875 45.628906 27.480469 45.375 27.25 C 45.121094 27.019531 44.941406 26.601563 44.78125 25.96875 C 44.621094 25.335938 44.5 24.558594 44.1875 23.75 C 44.105469 23.539063 43.964844 23.335938 43.84375 23.125 C 44.683594 22.878906 45.65625 22.488281 46.53125 21.71875 C 48.585938 19.914063 49.046875 17.671875 48.9375 16 C 48.828125 14.328125 48.1875 13.125 48.1875 13.125 C 48.011719 12.761719 47.636719 12.535156 47.234375 12.558594 C 46.832031 12.578125 46.480469 12.839844 46.34375 13.21875 C 46.34375 13.21875 46.21875 13.644531 45.59375 14.28125 C 44.96875 14.917969 43.90625 15.703125 42.03125 16.09375 C 41.574219 16.1875 41.292969 16.433594 40.90625 16.59375 C 39.589844 14.320313 37.085938 12.347656 34.03125 10.8125 C 30.679688 9.128906 26.710938 8 23.0625 8 C 18.367188 8 13.425781 9.085938 9.5625 11.625 C 8.335938 12.429688 7.226563 13.414063 6.28125 14.53125 C 6.191406 14.398438 6.101563 14.269531 6 14.09375 C 5.714844 13.59375 5.445313 12.855469 5.25 11.96875 C 7.472656 11.871094 9 10.585938 9 9 C 9 8.035156 8.613281 7.199219 8 6.6875 C 7.386719 6.175781 6.664063 6 5.96875 6 Z M 5.96875 8 C 6.328125 8 6.574219 8.097656 6.71875 8.21875 C 6.863281 8.339844 7 8.484375 7 9 C 7 9.035156 6.585938 9.984375 5.03125 10 C 5.03125 9.925781 5 9.886719 5 9.8125 C 5 8.792969 5.273438 8.410156 5.46875 8.21875 C 5.664063 8.027344 5.90625 8 5.96875 8 Z M 23.0625 10 C 26.292969 10 30.023438 11.035156 33.125 12.59375 C 35.917969 13.996094 38.003906 15.851563 39.03125 17.53125 C 38.425781 18.035156 37.910156 18.601563 37.5625 19.15625 C 36.863281 20.273438 36.675781 21.203125 36.59375 21.5625 C 36.554688 21.621094 36.523438 21.683594 36.5 21.75 C 36.488281 21.78125 36.476563 21.8125 36.46875 21.84375 C 36.46875 21.84375 36.46875 21.875 36.46875 21.875 C 36.390625 22.175781 36.457031 22.492188 36.648438 22.738281 C 36.835938 22.980469 37.128906 23.125 37.4375 23.125 C 37.894531 23.125 38.292969 22.816406 38.40625 22.375 C 38.503906 21.984375 38.667969 21.148438 39.25 20.21875 C 39.832031 19.289063 40.757813 18.382813 42.4375 18.03125 C 44.570313 17.585938 45.953125 16.667969 46.84375 15.8125 C 46.875 15.992188 46.925781 15.957031 46.9375 16.15625 C 47.019531 17.390625 46.796875 18.835938 45.21875 20.21875 C 43.863281 21.410156 41.84375 21.5 41.84375 21.5 C 41.371094 21.492188 40.960938 21.816406 40.855469 22.277344 C 40.75 22.734375 40.980469 23.207031 41.40625 23.40625 C 41.890625 23.640625 42.109375 23.941406 42.3125 24.46875 C 42.515625 24.996094 42.648438 25.710938 42.84375 26.46875 C 43.039063 27.226563 43.296875 28.09375 44.03125 28.75 C 44.675781 29.328125 45.660156 29.570313 46.8125 29.5625 C 46.703125 29.957031 46.582031 30.515625 46.4375 31.15625 C 46.285156 31.835938 46.09375 32.621094 46.0625 32.6875 C 46.078125 32.648438 45.65625 33.140625 44.875 33.5625 C 44.09375 33.984375 42.992188 34.429688 41.71875 34.8125 C 39.171875 35.578125 35.917969 36.105469 32.875 35.90625 C 32.363281 35.867188 31.90625 36.214844 31.8125 36.71875 C 31.246094 39.617188 31.714844 43.667969 31.75 43.96875 L 31.25 43.96875 C 31.226563 43.96875 31.234375 43.96875 31.21875 43.96875 C 31.199219 43.941406 31.171875 43.921875 31.125 43.84375 C 30.445313 42.691406 29.152344 40.027344 28.34375 37.25 C 28.207031 36.773438 27.742188 36.464844 27.25 36.53125 C 27.25 36.53125 19.34375 37.386719 13.28125 35.15625 C 12.808594 34.992188 12.285156 35.207031 12.0625 35.65625 C 11.394531 36.988281 9.414063 40.3125 9.25 44 L 8.625 44 C 5.523438 37.90625 4.96875 28.902344 4.96875 23.84375 C 4.96875 20.878906 5.769531 18.480469 7.15625 16.5625 C 8.085938 15.277344 9.28125 14.214844 10.65625 13.3125 C 14.078125 11.066406 18.683594 10 23.0625 10 Z M 41 26.9375 C 40.421875 26.9375 39.9375 27.414063 39.9375 28 C 39.9375 28.585938 40.421875 29.0625 41 29.0625 C 41.578125 29.0625 42.03125 28.585938 42.03125 28 C 42.03125 27.414063 41.578125 26.9375 41 26.9375 Z M 38.625 37.53125 C 38.546875 40.164063 38.964844 43.664063 39 44 L 38.6875 44 C 38.222656 43.101563 36.925781 40.339844 36.71875 37.75 C 37.363281 37.691406 38.003906 37.628906 38.625 37.53125 Z M 17.3125 38.1875 C 18.265625 38.351563 19.183594 38.484375 20.0625 38.5625 C 20.011719 40.09375 20.214844 42.351563 20.5 44 L 20.3125 44 C 20.289063 43.996094 20.230469 43.988281 20.1875 43.96875 C 20.105469 43.929688 20.042969 43.847656 20.0625 43.875 C 20.042969 43.851563 20.023438 43.832031 20 43.8125 C 19.027344 42.6875 18.425781 41.4375 17.3125 38.1875 Z"/></svg>