<svg fill="#000000" xmlns="http://www.w3.org/2000/svg"  viewBox="0 0 50 50" width="1000px" height="1000px"><path d="M 13 3 C 6.9348577 3.0021963 2.0010969 7.9572142 2 14.042969 L 2 14.044922 C 2.00193 14.937307 2.00187 35.257887 2 35.953125 L 2 35.955078 C 2.0011 38.996883 3.2320438 41.764265 5.2207031 43.761719 C 7.2092342 45.75895 9.9675781 46.998902 13 47 C 16.75368 47 20.075166 45.110677 22.060547 42.230469 C 24.799518 45.157585 28.6835 47 33 47 C 41.272427 47 48 40.272427 48 32 C 48 23.727573 41.272427 17 33 17 C 29.621076 17 26.51027 18.135713 24 20.027344 C 23.999241 17.905265 23.998496 14.731807 24 14.044922 L 24 14.042969 C 23.998903 7.957135 19.06424 3.0021964 13 3 z M 13 5 C 17.979097 5.0018 21.998027 9.0318169 22 14.041016 C 21.998042 14.954406 21.998123 20.872228 22 21.835938 C 21.370292 22.516972 20.803992 23.257403 20.306641 24.044922 A 1.0001 1.0001 0 0 0 20 24 L 4 24 C 3.9999062 19.252578 4.0009399 14.475262 4 14.041016 C 4.0019727 9.0316968 8.0198055 5.0018034 13 5 z M 33 19 C 40.191546 19 46 24.808454 46 32 C 46 39.191546 40.191546 45 33 45 C 25.808454 45 20 39.191546 20 32 C 20 24.808454 25.808454 19 33 19 z M 40.050781 23.919922 A 1.0001 1.0001 0 0 0 39.363281 24.222656 L 25.222656 38.363281 A 1.0001 1.0001 0 1 0 26.636719 39.777344 L 40.777344 25.636719 A 1.0001 1.0001 0 0 0 40.050781 23.919922 z M 4 26 L 19.277344 26 C 18.465223 27.83857 18 29.862789 18 32 C 18 33.420421 18.211573 34.790659 18.582031 36.09375 A 1 1 0 0 0 18 37 A 1 1 0 0 0 19 38 A 1 1 0 0 0 19.244141 37.96875 C 19.647975 38.896 20.146092 39.770899 20.720703 40.589844 C 20.383771 41.155703 19.976764 41.672753 19.529297 42.150391 A 1 1 0 0 0 19 42 A 1 1 0 0 0 18 43 A 1 1 0 0 0 18.082031 43.396484 C 16.638422 44.397697 14.897124 45 13 45 C 11.106299 44.999314 9.3573656 44.410484 7.9101562 43.410156 A 1 1 0 0 0 8 43 A 1 1 0 0 0 7 42 A 1 1 0 0 0 6.4628906 42.158203 C 4.9406479 40.539294 4.0013849 38.36644 4 35.957031 L 4 35.955078 C 4.0000929 35.920382 3.9999155 35.105074 4 35 A 1 1 0 0 0 5 34 A 1 1 0 0 0 4 33 C 4.0002816 32.02935 3.9998617 30.679941 4 29 A 1 1 0 0 0 5 28 A 1 1 0 0 0 4 27 C 4.0000169 26.535338 3.9999919 26.476005 4 26 z M 10 27 A 1 1 0 0 0 9 28 A 1 1 0 0 0 10 29 A 1 1 0 0 0 11 28 A 1 1 0 0 0 10 27 z M 16 27 A 1 1 0 0 0 15 28 A 1 1 0 0 0 16 29 A 1 1 0 0 0 17 28 A 1 1 0 0 0 16 27 z M 7 30 A 1 1 0 0 0 6 31 A 1 1 0 0 0 7 32 A 1 1 0 0 0 8 31 A 1 1 0 0 0 7 30 z M 13 30 A 1 1 0 0 0 12 31 A 1 1 0 0 0 13 32 A 1 1 0 0 0 14 31 A 1 1 0 0 0 13 30 z M 10 33 A 1 1 0 0 0 9 34 A 1 1 0 0 0 10 35 A 1 1 0 0 0 11 34 A 1 1 0 0 0 10 33 z M 16 33 A 1 1 0 0 0 15 34 A 1 1 0 0 0 16 35 A 1 1 0 0 0 17 34 A 1 1 0 0 0 16 33 z M 7 36 A 1 1 0 0 0 6 37 A 1 1 0 0 0 7 38 A 1 1 0 0 0 8 37 A 1 1 0 0 0 7 36 z M 13 36 A 1 1 0 0 0 12 37 A 1 1 0 0 0 13 38 A 1 1 0 0 0 14 37 A 1 1 0 0 0 13 36 z M 10 39 A 1 1 0 0 0 9 40 A 1 1 0 0 0 10 41 A 1 1 0 0 0 11 40 A 1 1 0 0 0 10 39 z M 16 39 A 1 1 0 0 0 15 40 A 1 1 0 0 0 16 41 A 1 1 0 0 0 17 40 A 1 1 0 0 0 16 39 z M 13 42 A 1 1 0 0 0 12 43 A 1 1 0 0 0 13 44 A 1 1 0 0 0 14 43 A 1 1 0 0 0 13 42 z"/></svg>