<svg fill="#000000" xmlns="http://www.w3.org/2000/svg"  viewBox="0 0 50 50" width="1000px" height="1000px"><path d="M 30.28125 0 C 30.058594 0.0234375 29.847656 0.125 29.6875 0.28125 C 28.164063 1.804688 27.753906 4.429688 27.46875 6.75 C 27.300781 8.128906 27.246094 9.222656 27.21875 10.03125 C 26.472656 9.941406 25.714844 9.910156 24.9375 9.9375 C 24.539063 9.953125 24.152344 9.984375 23.75 10.03125 C 22.640625 10.15625 21.503906 10.414063 20.34375 10.78125 C 20.3125 10.789063 20.28125 10.800781 20.25 10.8125 C 20.207031 10.820313 20.164063 10.832031 20.125 10.84375 C 20.039063 10.863281 19.953125 10.894531 19.875 10.9375 C 16.242188 12.179688 12.394531 14.605469 8.46875 18.375 C 8.316406 18.519531 8.152344 18.632813 8 18.78125 C 5.152344 21.65625 3.164063 24.414063 1.875 27.03125 C 1.710938 27.199219 1.613281 27.421875 1.59375 27.65625 C 0.675781 29.691406 0.152344 31.632813 0.0625 33.5 C -0.0390625 35.601563 0.375 37.554688 1.15625 39.375 C 1.175781 39.625 1.285156 39.859375 1.46875 40.03125 C 2.332031 41.800781 3.53125 43.4375 5 44.90625 C 5.652344 45.558594 6.355469 46.132813 7.0625 46.6875 C 7.160156 46.820313 7.289063 46.929688 7.4375 47 C 7.730469 47.21875 8.011719 47.425781 8.3125 47.625 C 8.332031 47.648438 8.351563 47.667969 8.375 47.6875 C 8.382813 47.691406 8.398438 47.683594 8.40625 47.6875 C 8.425781 47.710938 8.445313 47.730469 8.46875 47.75 C 8.578125 47.847656 8.703125 47.925781 8.84375 47.96875 C 8.859375 47.976563 8.890625 47.960938 8.90625 47.96875 C 11.113281 49.304688 13.542969 50.109375 16.25 50 C 20.65625 49.824219 25.539063 47.367188 31.09375 41.8125 C 38.082031 34.824219 40.75 28.253906 40.0625 22.65625 C 40.871094 22.625 41.953125 22.566406 43.25 22.40625 C 45.570313 22.121094 48.195313 21.742188 49.71875 20.21875 C 49.914063 20.03125 50.023438 19.769531 50.023438 19.5 C 50.023438 19.230469 49.914063 18.96875 49.71875 18.78125 C 48.984375 18.046875 47.867188 17.394531 46.5625 16.6875 C 45.890625 16.324219 45.171875 15.949219 44.4375 15.59375 C 45.390625 15.503906 46.375 15.382813 47.25 15.1875 C 48.210938 14.976563 49.058594 14.753906 49.71875 14.09375 C 50.105469 13.703125 50.105469 13.078125 49.71875 12.6875 C 49.132813 12.101563 48.339844 11.691406 47.40625 11.25 C 46.472656 10.808594 45.410156 10.367188 44.40625 10 C 44.316406 9.964844 44.273438 9.9375 44.1875 9.90625 C 44.523438 9.359375 44.953125 8.636719 45.40625 7.84375 C 45.832031 7.097656 46.238281 6.339844 46.53125 5.6875 C 46.679688 5.359375 46.796875 5.054688 46.875 4.75 C 46.914063 4.597656 46.941406 4.457031 46.9375 4.25 C 46.933594 4.042969 46.894531 3.707031 46.59375 3.40625 C 46.292969 3.105469 45.957031 3.066406 45.75 3.0625 C 45.542969 3.058594 45.402344 3.085938 45.25 3.125 C 44.945313 3.203125 44.640625 3.320313 44.3125 3.46875 C 43.660156 3.761719 42.902344 4.167969 42.15625 4.59375 C 41.363281 5.046875 40.640625 5.476563 40.09375 5.8125 C 40.0625 5.726563 40.035156 5.683594 40 5.59375 C 39.632813 4.589844 39.191406 3.527344 38.75 2.59375 C 38.308594 1.660156 37.898438 0.867188 37.3125 0.28125 C 37.097656 0.0703125 36.800781 -0.0351563 36.5 0 C 36.277344 0.0234375 36.066406 0.125 35.90625 0.28125 C 35.300781 0.886719 34.988281 1.691406 34.71875 2.5625 C 34.46875 3.367188 34.269531 4.246094 34.125 5.09375 C 33.167969 3.144531 32.144531 1.332031 31.09375 0.28125 C 30.878906 0.0703125 30.582031 -0.0351563 30.28125 0 Z M 30.5 2.96875 C 31.414063 4.339844 32.550781 6.359375 33.5 8.46875 C 33.574219 8.632813 33.613281 8.742188 33.6875 8.90625 C 33.6875 8.917969 33.6875 8.925781 33.6875 8.9375 C 33.707031 9.105469 33.773438 9.269531 33.875 9.40625 C 33.894531 9.4375 33.914063 9.46875 33.9375 9.5 C 34.910156 11.742188 35.65625 13.65625 35.65625 13.65625 C 35.765625 13.917969 35.980469 14.125 36.25 14.21875 C 36.25 14.21875 37.75 14.824219 39.5625 15.59375 C 39.574219 15.597656 39.582031 15.621094 39.59375 15.625 C 39.613281 15.636719 39.636719 15.648438 39.65625 15.65625 C 39.769531 15.734375 39.898438 15.785156 40.03125 15.8125 C 40.039063 15.816406 40.054688 15.808594 40.0625 15.8125 C 40.578125 16.035156 40.976563 16.1875 41.53125 16.4375 C 42.921875 17.0625 44.390625 17.765625 45.625 18.4375 C 46.277344 18.792969 46.554688 19.054688 47.03125 19.375 C 45.945313 19.828125 44.523438 20.25 43 20.4375 C 41.070313 20.671875 39.558594 20.6875 39.1875 20.6875 L 38.75 20.25 C 38.6875 20.167969 38.613281 20.09375 38.53125 20.03125 C 38.484375 19.984375 38.429688 19.941406 38.375 19.90625 L 29.1875 10.78125 C 29.195313 10.378906 29.238281 8.902344 29.46875 7 C 29.652344 5.480469 30.050781 4.054688 30.5 2.96875 Z M 36.6875 3.03125 C 36.789063 3.21875 36.839844 3.257813 36.9375 3.46875 C 37.339844 4.316406 37.769531 5.3125 38.125 6.28125 C 38.835938 8.222656 39.34375 9.96875 39.34375 9.96875 C 39.4375 10.300781 39.699219 10.5625 40.03125 10.65625 C 40.03125 10.65625 41.777344 11.164063 43.71875 11.875 C 44.6875 12.230469 45.683594 12.660156 46.53125 13.0625 C 46.664063 13.125 46.6875 13.15625 46.8125 13.21875 C 45.992188 13.398438 44.988281 13.539063 44 13.625 C 42.238281 13.777344 40.773438 13.808594 40.4375 13.8125 C 38.871094 13.144531 37.617188 12.625 37.375 12.53125 C 37.261719 12.242188 36.617188 10.621094 35.71875 8.5625 C 35.746094 8.183594 35.828125 7.0625 36.0625 5.625 C 36.203125 4.773438 36.398438 3.886719 36.625 3.15625 C 36.644531 3.09375 36.667969 3.09375 36.6875 3.03125 Z M 44.21875 5.78125 C 44.03125 6.140625 43.875 6.464844 43.65625 6.84375 C 43.027344 7.941406 42.492188 8.8125 42.21875 9.25 C 41.679688 9.078125 41.28125 8.960938 41.09375 8.90625 C 41.039063 8.71875 40.921875 8.320313 40.75 7.78125 C 41.1875 7.507813 42.058594 6.972656 43.15625 6.34375 C 43.535156 6.125 43.859375 5.96875 44.21875 5.78125 Z M 24.9375 11.96875 C 25.617188 11.949219 26.265625 11.984375 26.90625 12.0625 C 27.125 13.277344 27.054688 14.171875 27.03125 14.875 L 21.84375 13.84375 L 21.5625 12.5 C 22.375 12.28125 23.164063 12.117188 23.9375 12.03125 C 24.277344 11.992188 24.609375 11.980469 24.9375 11.96875 Z M 29.09375 13.5 L 32.6875 17.03125 L 29.8125 16.5625 C 29.734375 16.46875 29.679688 16.367188 29.59375 16.28125 C 29.449219 16.136719 29.285156 16.023438 29.125 15.90625 C 29.148438 15.519531 29.167969 14.597656 29.09375 13.5 Z M 17.3125 14.21875 C 17.394531 14.25 17.476563 14.269531 17.5625 14.28125 C 18.675781 14.453125 19.695313 14.84375 20.15625 15.21875 C 20.230469 15.355469 20.339844 15.472656 20.46875 15.5625 C 20.859375 16.214844 21.230469 17.601563 21.34375 18.875 C 21.417969 19.722656 21.382813 19.953125 21.375 20.46875 L 16.15625 19.4375 L 15.34375 15.34375 C 16.007813 14.917969 16.667969 14.558594 17.3125 14.21875 Z M 13.5625 16.625 L 13.96875 18.78125 C 13.503906 18.628906 13.023438 18.5 12.53125 18.40625 C 12.183594 18.339844 11.84375 18.292969 11.5 18.25 C 12.1875 17.652344 12.886719 17.128906 13.5625 16.625 Z M 23.03125 16.625 C 23.546875 16.617188 23.777344 16.582031 24.625 16.65625 C 26.074219 16.785156 27.664063 17.242188 28.15625 17.6875 C 28.207031 17.925781 28.339844 18.136719 28.53125 18.28125 C 28.859375 19.003906 29.152344 20.183594 29.25 21.28125 C 29.324219 22.140625 29.289063 22.359375 29.28125 22.875 L 24.0625 21.84375 L 23.25 17.75 C 23.203125 17.367188 23.113281 17.003906 23.03125 16.625 Z M 30.875 18.78125 L 35.125 19.5 C 35.136719 19.5 35.144531 19.5 35.15625 19.5 L 36.9375 21.25 C 37.117188 22.378906 37.074219 23.546875 37 24.40625 L 31.3125 23.28125 C 31.308594 22.714844 31.292969 21.945313 31.21875 21.09375 C 31.152344 20.351563 31.0625 19.546875 30.875 18.78125 Z M 9.53125 20.09375 C 10.292969 20.113281 11.253906 20.203125 12.15625 20.375 C 13.167969 20.566406 14.066406 20.921875 14.40625 21.21875 C 14.40625 21.21875 14.40625 21.25 14.40625 21.25 C 14.859375 21.71875 15.308594 23.3125 15.4375 24.78125 C 15.511719 25.640625 15.476563 25.859375 15.46875 26.375 L 10.25 25.34375 L 9.28125 20.375 C 9.328125 20.324219 9.359375 20.269531 9.40625 20.21875 C 9.449219 20.175781 9.488281 20.136719 9.53125 20.09375 Z M 7.59375 22.1875 L 8.0625 24.5625 C 7.40625 24.332031 6.699219 24.210938 6 24.125 C 6.480469 23.484375 7.011719 22.855469 7.59375 22.1875 Z M 17.21875 22.3125 C 17.734375 22.304688 17.953125 22.269531 18.8125 22.34375 C 20.292969 22.472656 21.953125 22.953125 22.40625 23.40625 C 22.859375 23.859375 23.308594 25.488281 23.4375 26.96875 C 23.511719 27.816406 23.476563 28.046875 23.46875 28.5625 L 18.25 27.53125 Z M 24.96875 24.09375 L 29.65625 25 C 30.089844 25.542969 30.53125 27.066406 30.65625 28.46875 C 30.730469 29.316406 30.695313 29.546875 30.6875 30.0625 L 25.53125 29.0625 C 25.539063 28.5 25.519531 27.746094 25.4375 26.8125 C 25.359375 25.9375 25.234375 24.984375 24.96875 24.09375 Z M 32.15625 25.5 L 37.71875 26.59375 C 37.792969 26.601563 37.863281 26.601563 37.9375 26.59375 C 37.296875 30.648438 34.804688 35.289063 29.6875 40.40625 C 24.339844 45.753906 19.90625 47.851563 16.1875 48 C 15.960938 48.007813 15.753906 48.003906 15.53125 48 C 15.546875 47.472656 15.539063 46.632813 15.4375 45.5 C 15.363281 44.65625 15.246094 43.738281 15 42.875 L 19.875 43.96875 C 20.160156 44.035156 20.457031 43.96875 20.691406 43.796875 C 20.925781 43.621094 21.074219 43.355469 21.09375 43.0625 C 21.09375 43.0625 21.175781 41.644531 21.03125 40 C 20.945313 39.042969 20.824219 37.988281 20.5 37.03125 L 25.8125 38.09375 C 26.097656 38.148438 26.394531 38.078125 26.621094 37.898438 C 26.847656 37.714844 26.988281 37.445313 27 37.15625 C 27 37.15625 27.082031 35.738281 26.9375 34.09375 C 26.859375 33.191406 26.753906 32.195313 26.46875 31.28125 L 31.5 32.28125 C 31.785156 32.335938 32.082031 32.265625 32.308594 32.085938 C 32.535156 31.902344 32.675781 31.632813 32.6875 31.34375 C 32.6875 31.34375 32.769531 29.957031 32.625 28.3125 C 32.546875 27.410156 32.441406 26.414063 32.15625 25.5 Z M 4.71875 26.03125 C 6.265625 26.152344 8.039063 26.632813 8.5 27.09375 C 8.953125 27.546875 9.402344 29.207031 9.53125 30.6875 C 9.597656 31.464844 9.574219 31.734375 9.5625 32.15625 C 8.886719 32.011719 8.179688 31.933594 7.53125 31.875 L 7.5 31.875 L 4.34375 31.25 L 3.6875 27.90625 C 3.988281 27.292969 4.320313 26.667969 4.71875 26.03125 Z M 11.4375 28.21875 C 11.953125 28.210938 12.183594 28.175781 13.03125 28.25 C 14.511719 28.378906 16.140625 28.859375 16.59375 29.3125 C 17.046875 29.765625 17.527344 31.394531 17.65625 32.875 C 17.730469 33.722656 17.695313 33.953125 17.6875 34.46875 L 12.46875 33.4375 Z M 19.09375 29.75 L 23.875 30.6875 C 23.886719 30.699219 23.894531 30.707031 23.90625 30.71875 C 24.359375 31.171875 24.808594 32.800781 24.9375 34.28125 C 25.011719 35.140625 24.976563 35.359375 24.96875 35.875 L 19.71875 34.84375 C 19.722656 34.285156 19.699219 33.507813 19.625 32.6875 C 19.539063 31.730469 19.417969 30.699219 19.09375 29.75 Z M 2.125 32.875 C 2.816406 33.015625 3.378906 33.253906 3.625 33.4375 L 4.125 36.09375 L 4.625 38.6875 L 2.90625 38.40625 C 2.296875 36.902344 1.980469 35.304688 2.0625 33.59375 C 2.074219 33.359375 2.097656 33.117188 2.125 32.875 Z M 5.71875 33.8125 C 6.175781 33.808594 6.457031 33.796875 7.09375 33.84375 L 9.625 34.3125 C 10.078125 34.457031 10.472656 34.617188 10.71875 34.78125 C 10.800781 34.933594 10.917969 35.0625 11.0625 35.15625 C 11.449219 35.800781 11.824219 37.1875 11.9375 38.46875 C 12.011719 39.316406 11.976563 39.546875 11.96875 40.0625 L 6.75 39.03125 Z M 13.53125 35.6875 L 18 36.59375 C 18.453125 37.046875 18.902344 38.707031 19.03125 40.1875 C 19.105469 41.027344 19.066406 41.234375 19.0625 41.75 L 14.03125 40.59375 C 14.039063 40.035156 14.023438 39.277344 13.9375 38.3125 C 13.863281 37.472656 13.777344 36.546875 13.53125 35.6875 Z M 4.0625 40.59375 L 5.125 40.78125 L 5.78125 42.84375 C 5.121094 42.125 4.5625 41.363281 4.0625 40.59375 Z M 7.34375 41.1875 L 12.3125 42.1875 C 12.390625 42.242188 12.472656 42.28125 12.5625 42.3125 C 12.953125 42.953125 13.324219 44.390625 13.4375 45.6875 C 13.507813 46.476563 13.472656 46.640625 13.46875 47.15625 L 9.5 46.0625 C 9.246094 45.898438 9 45.714844 8.75 45.53125 Z"/></svg>