<svg xmlns="http://www.w3.org/2000/svg"  viewBox="0 0 50 50" width="1000px" height="1000px"><path d="M 43.019531 2.0058594 C 41.99934 2.0058594 40.980146 2.3922758 40.207031 3.1640625 L 24.054688 19.283203 L 21.939453 17.275391 A 1.0001 1.0001 0 0 0 21.25 17 L 17 17 A 1.0001 1.0001 0 1 0 17 19 L 20.851562 19 L 24.804688 22.755859 L 22.164062 25.396484 C 20.161814 23.898942 17.686318 23 15 23 C 8.3844239 23 3 28.384429 3 35 C 3 41.615571 8.3844239 47 15 47 C 21.615576 47 27 41.615571 27 35 C 27 31.790512 25.724406 28.878377 23.664062 26.722656 L 26.255859 24.132812 L 30.060547 27.746094 A 1.0001 1.0001 0 0 0 30.75 28.021484 L 35 28.021484 A 1.0001 1.0001 0 1 0 35 26.021484 L 31.148438 26.021484 L 29.824219 24.763672 L 45.833984 8.7890625 C 47.380669 7.245035 47.380669 4.70809 45.833984 3.1640625 C 45.060869 2.3922758 44.039723 2.0058594 43.019531 2.0058594 z M 43.019531 3.9941406 C 43.524284 3.9941406 44.029037 4.1898648 44.419922 4.5800781 C 45.201237 5.3600507 45.201237 6.5930743 44.419922 7.3730469 L 28.375 23.386719 L 25.505859 20.662109 L 41.619141 4.5800781 C 42.010025 4.1898648 42.514778 3.9941406 43.019531 3.9941406 z M 15 25 C 20.534697 25 25 29.465307 25 35 C 25 40.534693 20.534697 45 15 45 C 9.4653034 45 5 40.534693 5 35 C 5 29.465307 9.4653034 25 15 25 z M 15 33 A 2 2 0 0 0 15 37 A 2 2 0 0 0 15 33 z"/></svg>