<svg fill="#000000" xmlns="http://www.w3.org/2000/svg"  viewBox="0 0 50 50" width="1000px" height="1000px"><path d="M 22 0 C 20.354545 0 19 1.3545455 19 3 L 19 6 C 19 6.5222222 19.191329 7.0546101 19.568359 7.4316406 C 19.856969 7.7202502 20.267502 7.7988578 20.664062 7.8671875 C 20.503588 8.0308607 20.307463 8.1648007 20.021484 8.2167969 L 20.003906 8.21875 L 19.986328 8.2226562 C 15.476692 9.2125766 12.066708 13.177791 12.017578 18 L 12 18 L 12 18.099609 L 12.041016 18.099609 C 12.087676 19.307416 12.927242 20.154319 14 20.583984 L 14 23.416016 C 12.893219 23.859306 12 24.743008 12 26 L 12 36 C 12 37.256622 12.893306 38.14058 14 38.583984 L 14 41.416016 C 12.893306 41.85942 12 42.743378 12 44 L 12 45 C 12 47.745455 14.254545 50 17 50 L 33 50 C 35.745455 50 38 47.745455 38 45 L 38 44 C 38 42.743378 37.106694 41.85942 36 41.416016 L 36 38.583984 C 37.106694 38.14058 38 37.256622 38 36 L 38 26 C 38 24.743008 37.106777 23.859307 36 23.416016 L 36 20.583984 C 37.072758 20.154319 37.912319 19.307416 37.958984 18.099609 L 38 18.099609 L 38 18 L 37.982422 18 C 37.933292 13.177791 34.523312 9.2125774 30.013672 8.2226562 L 29.996094 8.21875 L 29.978516 8.2167969 C 29.692543 8.1648014 29.496411 8.0308607 29.335938 7.8671875 C 29.732498 7.7988578 30.143031 7.7202502 30.431641 7.4316406 C 30.808671 7.0546101 31 6.5222222 31 6 L 31 3 C 31 1.3545455 29.645455 0 28 0 L 22 0 z M 22 2 L 28 2 C 28.554545 2 29 2.4454545 29 3 L 29 6 L 21 6 L 21 3 C 21 2.4454545 21.445455 2 22 2 z M 22.644531 8 L 27.355469 8 C 27.723929 9.0578352 28.450651 9.9707859 29.621094 10.183594 L 29.585938 10.175781 C 33.220508 10.973614 35.953804 14.133122 35.988281 18.029297 C 35.970439 18.567854 35.543115 19 35 19 L 34 19 L 18 19 L 18 21 L 34 21 L 34 23 L 18 23 L 18 25 L 34 25 L 35 25 C 35.554545 25 36 25.445455 36 26 L 36 36 C 36 36.56503 35.56503 37 35 37 L 34 37 L 18 37 L 18 39 L 34 39 L 34 41 L 18 41 L 18 43 L 34 43 L 35 43 C 35.56503 43 36 43.43497 36 44 L 36 45 C 36 46.654545 34.654545 48 33 48 L 17 48 C 15.345455 48 14 46.654545 14 45 L 14 44 C 14 43.43497 14.43497 43 15 43 L 16 43 L 16 37 L 15 37 C 14.43497 37 14 36.56503 14 36 L 14 26 C 14 25.445455 14.445455 25 15 25 L 16 25 L 16 19 L 15 19 C 14.456885 19 14.029565 18.567867 14.011719 18.029297 C 14.046199 14.133122 16.779492 10.973614 20.414062 10.175781 L 20.378906 10.183594 C 21.549353 9.9707988 22.276071 9.0578352 22.644531 8 z"/></svg>