<svg fill="#000000" xmlns="http://www.w3.org/2000/svg"  viewBox="0 0 50 50" width="1000px" height="1000px"><path d="M 22 0 C 20.355469 0 19 1.355469 19 3 L 19 7.71875 C 14.929688 9.226563 12 12.957031 12 17.3125 C 12 18.84375 12.792969 20.175781 14 21.03125 C 12.800781 21.949219 12 23.386719 12 25 C 12 26.628906 12.8125 28.085938 14.03125 29 C 12.8125 29.914063 12 31.371094 12 33 C 12 34.628906 12.8125 36.085938 14.03125 37 C 12.8125 37.914063 12 39.371094 12 41 L 12 45 C 12 47.746094 14.253906 50 17 50 L 33 50 C 35.746094 50 38 47.746094 38 45 L 38 41 C 38 39.371094 37.1875 37.914063 35.96875 37 C 37.1875 36.085938 38 34.628906 38 33 C 38 31.371094 37.1875 29.914063 35.96875 29 C 37.1875 28.085938 38 26.628906 38 25 C 38 23.386719 37.199219 21.949219 36 21.03125 C 37.1875 20.1875 38 18.871094 38 17.3125 C 38 12.957031 35.070313 9.226563 31 7.71875 L 31 3 C 31 1.355469 29.644531 0 28 0 Z M 22 2 L 28 2 C 28.554688 2 29 2.445313 29 3 L 29 7 L 21 7 L 21 3 C 21 2.445313 21.445313 2 22 2 Z M 23 9 L 27 9 C 31.992188 9 36 12.800781 36 17.3125 C 36 18.839844 34.714844 20 33 20 C 32.96875 20 32.9375 20 32.90625 20 C 32.566406 20.019531 32.261719 20.207031 32.09375 20.5 C 32.09375 20.511719 32.09375 20.519531 32.09375 20.53125 C 31.964844 20.757813 31.933594 21.027344 32 21.28125 C 32.011719 21.292969 32.019531 21.300781 32.03125 21.3125 C 32.03125 21.332031 32.03125 21.355469 32.03125 21.375 C 32.042969 21.386719 32.050781 21.394531 32.0625 21.40625 C 32.09375 21.484375 32.136719 21.558594 32.1875 21.625 C 32.199219 21.636719 32.207031 21.644531 32.21875 21.65625 C 32.289063 21.742188 32.375 21.816406 32.46875 21.875 C 32.488281 21.886719 32.511719 21.898438 32.53125 21.90625 C 32.542969 21.917969 32.550781 21.925781 32.5625 21.9375 C 32.582031 21.9375 32.605469 21.9375 32.625 21.9375 C 32.636719 21.949219 32.644531 21.957031 32.65625 21.96875 C 32.675781 21.96875 32.699219 21.96875 32.71875 21.96875 C 32.730469 21.96875 32.738281 21.96875 32.75 21.96875 C 32.8125 21.984375 32.875 21.996094 32.9375 22 C 32.949219 22 32.957031 22 32.96875 22 C 32.980469 22 32.988281 22 33 22 C 34.65625 22 36 23.34375 36 25 C 36 26.65625 34.65625 28 33 28 C 32.96875 28 32.9375 28 32.90625 28 C 32.566406 28.019531 32.261719 28.207031 32.09375 28.5 C 32.09375 28.511719 32.09375 28.519531 32.09375 28.53125 C 31.964844 28.757813 31.933594 29.027344 32 29.28125 C 32.011719 29.292969 32.019531 29.300781 32.03125 29.3125 C 32.03125 29.332031 32.03125 29.355469 32.03125 29.375 C 32.042969 29.386719 32.050781 29.394531 32.0625 29.40625 C 32.09375 29.484375 32.136719 29.558594 32.1875 29.625 C 32.199219 29.636719 32.207031 29.644531 32.21875 29.65625 C 32.289063 29.742188 32.375 29.816406 32.46875 29.875 C 32.488281 29.886719 32.511719 29.898438 32.53125 29.90625 C 32.542969 29.917969 32.550781 29.925781 32.5625 29.9375 C 32.582031 29.9375 32.605469 29.9375 32.625 29.9375 C 32.636719 29.949219 32.644531 29.957031 32.65625 29.96875 C 32.675781 29.96875 32.699219 29.96875 32.71875 29.96875 C 32.730469 29.96875 32.738281 29.96875 32.75 29.96875 C 32.8125 29.984375 32.875 29.996094 32.9375 30 C 32.949219 30 32.957031 30 32.96875 30 C 32.980469 30 32.988281 30 33 30 C 34.65625 30 36 31.34375 36 33 C 36 34.65625 34.65625 36 33 36 C 32.835938 36.003906 32.675781 36.046875 32.53125 36.125 C 32.441406 36.164063 32.355469 36.21875 32.28125 36.28125 C 32.257813 36.3125 32.238281 36.34375 32.21875 36.375 C 32.195313 36.394531 32.175781 36.414063 32.15625 36.4375 C 32.066406 36.578125 32.011719 36.738281 32 36.90625 C 32 36.9375 32 36.96875 32 37 C 31.996094 37.175781 32.039063 37.347656 32.125 37.5 C 32.132813 37.519531 32.144531 37.542969 32.15625 37.5625 C 32.175781 37.59375 32.195313 37.625 32.21875 37.65625 C 32.292969 37.730469 32.375 37.792969 32.46875 37.84375 C 32.488281 37.867188 32.507813 37.886719 32.53125 37.90625 C 32.628906 37.953125 32.734375 37.984375 32.84375 38 C 32.894531 38.003906 32.949219 38.003906 33 38 C 34.65625 38 36 39.34375 36 41 L 36 45 C 36 46.65625 34.65625 48 33 48 L 17 48 C 15.34375 48 14 46.65625 14 45 L 14 41 C 14 39.34375 15.34375 38 17 38 C 17.09375 38.003906 17.191406 37.992188 17.28125 37.96875 C 17.3125 37.960938 17.34375 37.949219 17.375 37.9375 C 17.757813 37.785156 18.003906 37.410156 18 37 C 18.003906 36.957031 18.003906 36.917969 18 36.875 C 17.964844 36.542969 17.765625 36.25 17.46875 36.09375 C 17.4375 36.082031 17.40625 36.070313 17.375 36.0625 C 17.34375 36.050781 17.3125 36.039063 17.28125 36.03125 C 17.242188 36.019531 17.199219 36.007813 17.15625 36 C 17.105469 35.996094 17.050781 35.996094 17 36 C 15.34375 36 14 34.65625 14 33 C 14 31.34375 15.34375 30 17 30 C 17.09375 30.003906 17.191406 29.992188 17.28125 29.96875 C 17.3125 29.960938 17.34375 29.949219 17.375 29.9375 C 17.757813 29.785156 18.003906 29.410156 18 29 C 18.003906 28.957031 18.003906 28.917969 18 28.875 C 17.9375 28.371094 17.507813 27.996094 17 28 C 15.34375 28 14 26.65625 14 25 C 14 23.34375 15.34375 22 17 22 C 17.09375 22.003906 17.191406 21.992188 17.28125 21.96875 C 17.3125 21.960938 17.34375 21.949219 17.375 21.9375 C 17.535156 21.871094 17.675781 21.761719 17.78125 21.625 C 17.804688 21.605469 17.824219 21.585938 17.84375 21.5625 C 17.921875 21.449219 17.972656 21.320313 18 21.1875 C 18 21.15625 18 21.125 18 21.09375 C 18.027344 20.8125 17.933594 20.535156 17.742188 20.324219 C 17.550781 20.117188 17.28125 20 17 20 C 15.316406 20 14 18.710938 14 17.3125 C 14 12.800781 18.007813 9 23 9 Z"/></svg>