<svg xmlns="http://www.w3.org/2000/svg"  viewBox="0 0 50 50" width="1000px" height="1000px"><path d="M 25 15 C 18.293764 15 12.224398 15.78481 7.75 17.089844 C 5.5128009 17.742361 3.6729884 18.517049 2.3183594 19.451172 C 0.96373031 20.385295 -2.9605947e-16 21.570268 0 23 C 0 24.429732 0.96373031 25.614705 2.3183594 26.548828 C 3.0029645 27.020917 3.8132603 27.4522 4.734375 27.847656 C 5.9734655 30.054032 8.5740463 31.73308 11.972656 32.955078 C 15.560946 34.245277 20.079369 35 25 35 C 30.056972 35 34.689537 34.202432 38.324219 32.845703 C 41.580809 31.630105 44.090661 29.986442 45.28125 27.841797 C 46.196267 27.448066 47.000681 27.018403 47.681641 26.548828 C 49.03627 25.614705 50 24.429732 50 23 C 50 21.570268 49.03627 20.385295 47.681641 19.451172 C 46.327012 18.517049 44.487199 17.742361 42.25 17.089844 C 37.775602 15.78481 31.706236 15 25 15 z M 25 17 C 31.548607 17 37.47952 17.781298 41.691406 19.009766 C 43.797349 19.624 45.472575 20.356842 46.546875 21.097656 C 47.621175 21.83847 48 22.496735 48 23 C 48 23.503265 47.621175 24.16153 46.546875 24.902344 C 45.472575 25.643158 43.797349 26.376 41.691406 26.990234 C 37.47952 28.218702 31.548607 29 25 29 C 18.451393 29 12.52048 28.218702 8.3085938 26.990234 C 6.2026507 26.376 4.5274248 25.643158 3.453125 24.902344 C 2.3788252 24.16153 2 23.503265 2 23 C 2 22.496735 2.3788252 21.83847 3.453125 21.097656 C 4.5274248 20.356842 6.2026507 19.624 8.3085938 19.009766 C 12.52048 17.781298 18.451393 17 25 17 z M 25 19 C 19.710625 19 14.923925 19.335511 11.408203 19.890625 C 9.6503425 20.168182 8.2158561 20.493871 7.1425781 20.894531 C 6.6059392 21.094862 6.1587387 21.307719 5.7753906 21.603516 C 5.3920426 21.899312 5 22.365046 5 23 C 5 23.634954 5.3920426 24.100688 5.7753906 24.396484 C 6.1587387 24.692281 6.6059392 24.905138 7.1425781 25.105469 C 8.2158561 25.506129 9.6503425 25.831818 11.408203 26.109375 C 14.923925 26.664489 19.710625 27 25 27 C 30.289375 27 35.076075 26.664489 38.591797 26.109375 C 40.349658 25.831818 41.784144 25.506129 42.857422 25.105469 C 43.394061 24.905138 43.841261 24.692281 44.224609 24.396484 C 44.607957 24.100688 45 23.634954 45 23 C 45 22.365046 44.607957 21.899312 44.224609 21.603516 C 43.841261 21.307719 43.394061 21.094862 42.857422 20.894531 C 41.784144 20.493871 40.349658 20.168182 38.591797 19.890625 C 35.076075 19.335511 30.289375 19 25 19 z M 25 21 C 30.204042 21 34.918377 21.336514 38.279297 21.867188 C 39.959757 22.132524 41.306626 22.452362 42.15625 22.769531 C 42.390249 22.856881 42.474004 22.921664 42.623047 23 C 42.474004 23.07834 42.390249 23.143115 42.15625 23.230469 C 41.306626 23.547638 39.959757 23.867477 38.279297 24.132812 C 34.918377 24.663486 30.204042 25 25 25 C 19.795958 25 15.081623 24.663486 11.720703 24.132812 C 10.040243 23.867476 8.6933741 23.547638 7.84375 23.230469 C 7.6097507 23.143115 7.5259959 23.078336 7.3769531 23 C 7.5259959 22.921664 7.6097507 22.856885 7.84375 22.769531 C 8.6933741 22.452362 10.040243 22.132524 11.720703 21.867188 C 15.081623 21.336514 19.795958 21 25 21 z M 8.8496094 29.203125 C 13.197966 30.328816 18.820601 31 25 31 C 31.178525 31 36.800331 30.328527 41.148438 29.203125 C 40.187858 29.848055 39.012665 30.454678 37.625 30.972656 C 34.274181 32.223427 29.845028 33 25 33 C 20.285631 33 15.965148 32.264816 12.648438 31.072266 C 11.145986 30.532047 9.8748034 29.889418 8.8496094 29.203125 z"/></svg>