<svg fill="#000000" xmlns="http://www.w3.org/2000/svg"  viewBox="0 0 50 50" width="1000px" height="1000px"><path d="M 21.53125 2 C 20.980469 2.050781 20.574219 2.542969 20.625 3.09375 C 20.675781 3.644531 21.167969 4.050781 21.71875 4 C 22.261719 4 23.015625 4.152344 23.6875 4.9375 C 24.234375 5.578125 24.730469 6.722656 24.90625 8.6875 C 24.027344 8.277344 23.058594 8 22 8 C 17.839844 8 14.261719 9.882813 11.8125 13.125 C 9.363281 16.367188 8 20.929688 8 26.34375 C 8 31.851563 10.148438 37.199219 13.3125 41.21875 C 16.476563 45.238281 20.695313 48 25 48 C 29.320313 48 33.527344 45.140625 36.6875 41.03125 C 39.847656 36.921875 42 31.476563 42 25.96875 C 42 21.308594 41.023438 16.898438 38.96875 13.5625 C 36.914063 10.226563 33.648438 8 29.4375 8 C 28.414063 8 27.582031 8.234375 26.9375 8.5 C 26.726563 6.234375 26.070313 4.6875 25.1875 3.65625 C 24.101563 2.386719 22.71875 2 21.71875 2 C 21.6875 2 21.65625 2 21.625 2 C 21.59375 2 21.5625 2 21.53125 2 Z M 22 10 C 23.234375 10 24.296875 10.378906 25.21875 11.03125 C 25.25 11.054688 25.28125 11.074219 25.3125 11.09375 C 25.332031 11.109375 25.355469 11.109375 25.375 11.125 C 25.40625 11.148438 25.4375 11.167969 25.46875 11.1875 C 26.445313 11.953125 27.25 13.074219 27.9375 14.46875 C 29.308594 17.257813 30 21.09375 30 24.84375 C 30 33.972656 27.125 39.125 27.125 39.125 C 26.855469 39.609375 27.03125 40.21875 27.515625 40.484375 C 28 40.753906 28.609375 40.578125 28.875 40.09375 C 28.875 40.09375 32 34.398438 32 24.84375 C 32 20.855469 31.320313 16.757813 29.75 13.5625 C 29.167969 12.378906 28.394531 11.378906 27.53125 10.5 C 28.085938 10.261719 28.746094 10 29.4375 10 C 32.964844 10 35.496094 11.730469 37.28125 14.625 C 39.066406 17.519531 40 21.589844 40 25.96875 C 40 30.953125 38 36.035156 35.09375 39.8125 C 32.1875 43.589844 28.414063 46 25 46 C 21.570313 46 17.777344 43.683594 14.875 40 C 11.972656 36.316406 10 31.328125 10 26.34375 C 10 21.265625 11.289063 17.148438 13.40625 14.34375 C 15.523438 11.539063 18.429688 10 22 10 Z"/></svg>