<svg fill="#000000" xmlns="http://www.w3.org/2000/svg"  viewBox="0 0 50 50" width="1000px" height="1000px"><path d="M 26.28125 0 C 26.074219 0.046875 25.890625 0.15625 25.75 0.3125 C 24.988281 1.152344 24.476563 2.15625 24.0625 3.1875 C 23.34375 2.632813 22.535156 2.132813 21.59375 1.84375 C 21.230469 1.734375 20.835938 1.84375 20.578125 2.121094 C 20.320313 2.402344 20.242188 2.800781 20.375 3.15625 C 20.574219 3.652344 20.539063 3.980469 20.65625 4.40625 C 19.789063 4.03125 18.800781 3.742188 17.65625 3.6875 C 17.207031 3.652344 16.792969 3.921875 16.640625 4.34375 C 16.484375 4.765625 16.632813 5.238281 17 5.5 C 18.402344 6.550781 18.496094 7.804688 18.40625 8.875 C 8.429688 11.398438 1 19.335938 1 29 C 1 40.625 11.828125 50 25 50 C 38.171875 50 49 40.625 49 29 C 49 19.484375 41.800781 11.566406 32.03125 9 C 31.890625 8.597656 31.726563 8.085938 31.75 7.5 C 31.777344 6.753906 31.96875 6.101563 32.84375 5.53125 C 33.21875 5.292969 33.390625 4.835938 33.269531 4.410156 C 33.144531 3.984375 32.757813 3.691406 32.3125 3.6875 C 31.160156 3.6875 30.1875 3.980469 29.3125 4.34375 C 28.902344 2.960938 28.285156 1.554688 27.25 0.34375 C 27.035156 0.0898438 26.707031 -0.0390625 26.375 0 C 26.34375 0 26.3125 0 26.28125 0 Z M 26.46875 2.78125 C 27.070313 3.777344 27.523438 4.828125 27.71875 5.875 C 27.777344 6.203125 28 6.480469 28.308594 6.613281 C 28.617188 6.746094 28.96875 6.714844 29.25 6.53125 C 29.476563 6.378906 29.78125 6.273438 30.0625 6.15625 C 29.921875 6.585938 29.765625 7.035156 29.75 7.4375 C 29.703125 8.640625 30.03125 9.65625 30.28125 10.21875 C 30.410156 10.503906 30.664063 10.710938 30.96875 10.78125 C 40.289063 12.992188 47 20.316406 47 29 C 47 39.375 37.226563 48 25 48 C 12.773438 48 3 39.375 3 29 C 3 20.125 10.007813 12.679688 19.625 10.5625 C 20.015625 10.46875 20.3125 10.148438 20.375 9.75 C 20.511719 8.863281 20.492188 7.542969 19.96875 6.25 C 20.582031 6.53125 21.097656 6.910156 21.5 7.3125 C 21.800781 7.601563 22.25 7.671875 22.625 7.492188 C 23 7.308594 23.226563 6.914063 23.1875 6.5 C 23.148438 6.054688 22.90625 5.4375 22.8125 4.9375 C 23.105469 5.171875 23.511719 5.296875 23.75 5.5625 C 24 5.839844 24.378906 5.957031 24.742188 5.863281 C 25.101563 5.773438 25.382813 5.488281 25.46875 5.125 C 25.640625 4.324219 26.015625 3.519531 26.46875 2.78125 Z M 20 13 C 11.71875 13 5 20.195313 5 29 C 5 37.804688 11.71875 45 20 45 C 21.816406 45 23.433594 44.589844 25 44.03125 C 26.566406 44.589844 28.183594 45 30 45 C 38.28125 45 45 37.804688 45 29 C 45 20.195313 38.28125 13 30 13 C 28.183594 13 26.566406 13.410156 25 13.96875 C 23.433594 13.410156 21.816406 13 20 13 Z M 20 15 C 21.652344 15 23.125 15.363281 24.65625 15.9375 L 25 16.0625 L 25.34375 15.9375 C 26.875 15.363281 28.347656 15 30 15 C 37.121094 15 43 21.207031 43 29 C 43 36.792969 37.121094 43 30 43 C 28.347656 43 26.875 42.636719 25.34375 42.0625 L 25 41.9375 L 24.65625 42.0625 C 23.125 42.636719 21.652344 43 20 43 C 12.878906 43 7 36.792969 7 29 C 7 21.207031 12.878906 15 20 15 Z M 18 16 C 16.894531 16 16 16.894531 16 18 C 16 19.105469 16.894531 20 18 20 C 19.105469 20 20 19.105469 20 18 C 20 16.894531 19.105469 16 18 16 Z M 32 16 C 30.894531 16 30 16.894531 30 18 C 30 19.105469 30.894531 20 32 20 C 33.105469 20 34 19.105469 34 18 C 34 16.894531 33.105469 16 32 16 Z M 25 19 C 23.894531 19 23 19.894531 23 21 C 23 22.105469 23.894531 23 25 23 C 26.105469 23 27 22.105469 27 21 C 27 19.894531 26.105469 19 25 19 Z M 13 21 C 11.894531 21 11 21.894531 11 23 C 11 24.105469 11.894531 25 13 25 C 14.105469 25 15 24.105469 15 23 C 15 21.894531 14.105469 21 13 21 Z M 37 21 C 35.894531 21 35 21.894531 35 23 C 35 24.105469 35.894531 25 37 25 C 38.105469 25 39 24.105469 39 23 C 39 21.894531 38.105469 21 37 21 Z M 19.3125 21.3125 C 18.207031 21.3125 17.3125 22.207031 17.3125 23.3125 C 17.3125 24.417969 18.207031 25.3125 19.3125 25.3125 C 20.417969 25.3125 21.3125 24.417969 21.3125 23.3125 C 21.3125 22.207031 20.417969 21.3125 19.3125 21.3125 Z M 30.6875 21.3125 C 29.582031 21.3125 28.6875 22.207031 28.6875 23.3125 C 28.6875 24.417969 29.582031 25.3125 30.6875 25.3125 C 31.792969 25.3125 32.6875 24.417969 32.6875 23.3125 C 32.6875 22.207031 31.792969 21.3125 30.6875 21.3125 Z M 10 27 C 8.894531 27 8 27.894531 8 29 C 8 30.105469 8.894531 31 10 31 C 11.105469 31 12 30.105469 12 29 C 12 27.894531 11.105469 27 10 27 Z M 17 27 C 15.894531 27 15 27.894531 15 29 C 15 30.105469 15.894531 31 17 31 C 18.105469 31 19 30.105469 19 29 C 19 27.894531 18.105469 27 17 27 Z M 25 27 C 23.894531 27 23 27.894531 23 29 C 23 30.105469 23.894531 31 25 31 C 26.105469 31 27 30.105469 27 29 C 27 27.894531 26.105469 27 25 27 Z M 33 27 C 31.894531 27 31 27.894531 31 29 C 31 30.105469 31.894531 31 33 31 C 34.105469 31 35 30.105469 35 29 C 35 27.894531 34.105469 27 33 27 Z M 40 27 C 38.894531 27 38 27.894531 38 29 C 38 30.105469 38.894531 31 40 31 C 41.105469 31 42 30.105469 42 29 C 42 27.894531 41.105469 27 40 27 Z M 19.3125 32.6875 C 18.207031 32.6875 17.3125 33.582031 17.3125 34.6875 C 17.3125 35.792969 18.207031 36.6875 19.3125 36.6875 C 20.417969 36.6875 21.3125 35.792969 21.3125 34.6875 C 21.3125 33.582031 20.417969 32.6875 19.3125 32.6875 Z M 30.6875 32.6875 C 29.582031 32.6875 28.6875 33.582031 28.6875 34.6875 C 28.6875 35.792969 29.582031 36.6875 30.6875 36.6875 C 31.792969 36.6875 32.6875 35.792969 32.6875 34.6875 C 32.6875 33.582031 31.792969 32.6875 30.6875 32.6875 Z M 13 33 C 11.894531 33 11 33.894531 11 35 C 11 36.105469 11.894531 37 13 37 C 14.105469 37 15 36.105469 15 35 C 15 33.894531 14.105469 33 13 33 Z M 37 33 C 35.894531 33 35 33.894531 35 35 C 35 36.105469 35.894531 37 37 37 C 38.105469 37 39 36.105469 39 35 C 39 33.894531 38.105469 33 37 33 Z M 25 35 C 23.894531 35 23 35.894531 23 37 C 23 38.105469 23.894531 39 25 39 C 26.105469 39 27 38.105469 27 37 C 27 35.894531 26.105469 35 25 35 Z M 18 38 C 16.894531 38 16 38.894531 16 40 C 16 41.105469 16.894531 42 18 42 C 19.105469 42 20 41.105469 20 40 C 20 38.894531 19.105469 38 18 38 Z M 32 38 C 30.894531 38 30 38.894531 30 40 C 30 41.105469 30.894531 42 32 42 C 33.105469 42 34 41.105469 34 40 C 34 38.894531 33.105469 38 32 38 Z"/></svg>