<svg fill="#000000" xmlns="http://www.w3.org/2000/svg"  viewBox="0 0 50 50" width="1000px" height="1000px"><path d="M 33.21875 2.03125 C 30.832031 2.007813 28.578125 2.753906 26.53125 4 C 22.4375 6.492188 18.949219 10.796875 15.40625 14.71875 C 12.171875 18.296875 7.609375 21.398438 4.6875 25.28125 C 3.226563 27.222656 2.1875 29.394531 2.03125 31.90625 C 1.875 34.417969 2.621094 37.191406 4.53125 40.3125 C 7.921875 45.84375 14.226563 48.269531 20.875 47.96875 C 27.523438 47.667969 34.589844 44.722656 39.78125 39.375 C 44.457031 34.554688 47.449219 27.882813 47.9375 21.40625 C 48.425781 14.929688 46.324219 8.53125 40.78125 4.6875 C 38.132813 2.847656 35.605469 2.054688 33.21875 2.03125 Z M 33.1875 3.96875 C 35.148438 3.984375 37.257813 4.679688 39.65625 6.34375 C 44.546875 9.734375 46.386719 15.285156 45.9375 21.25 C 45.488281 27.214844 42.671875 33.507813 38.34375 37.96875 C 33.527344 42.929688 26.925781 45.691406 20.8125 45.96875 C 14.699219 46.246094 9.164063 44.089844 6.21875 39.28125 C 4.460938 36.410156 3.90625 34.0625 4.03125 32.03125 C 4.15625 30 4.972656 28.207031 6.28125 26.46875 C 8.898438 22.988281 13.414063 19.894531 16.875 16.0625 C 20.457031 12.097656 23.949219 7.9375 27.59375 5.71875 C 29.417969 4.609375 31.226563 3.953125 33.1875 3.96875 Z M 35.5625 12.90625 C 35.011719 12.90625 34.5625 13.355469 34.5625 13.90625 C 34.5625 14.457031 35.011719 14.90625 35.5625 14.90625 C 36.113281 14.90625 36.5625 14.457031 36.5625 13.90625 C 36.5625 13.355469 36.113281 12.90625 35.5625 12.90625 Z M 28.5625 15.90625 C 28.011719 15.90625 27.5625 16.355469 27.5625 16.90625 C 27.5625 17.457031 28.011719 17.90625 28.5625 17.90625 C 29.113281 17.90625 29.5625 17.457031 29.5625 16.90625 C 29.5625 16.355469 29.113281 15.90625 28.5625 15.90625 Z M 38.5625 25.90625 C 38.011719 25.90625 37.5625 26.355469 37.5625 26.90625 C 37.5625 27.457031 38.011719 27.90625 38.5625 27.90625 C 39.113281 27.90625 39.5625 27.457031 39.5625 26.90625 C 39.5625 26.355469 39.113281 25.90625 38.5625 25.90625 Z M 21.5625 30.90625 C 21.011719 30.90625 20.5625 31.355469 20.5625 31.90625 C 20.5625 32.457031 21.011719 32.90625 21.5625 32.90625 C 22.113281 32.90625 22.5625 32.457031 22.5625 31.90625 C 22.5625 31.355469 22.113281 30.90625 21.5625 30.90625 Z M 15.5625 33.90625 C 15.011719 33.90625 14.5625 34.355469 14.5625 34.90625 C 14.5625 35.457031 15.011719 35.90625 15.5625 35.90625 C 16.113281 35.90625 16.5625 35.457031 16.5625 34.90625 C 16.5625 34.355469 16.113281 33.90625 15.5625 33.90625 Z M 22.5625 37.90625 C 22.011719 37.90625 21.5625 38.355469 21.5625 38.90625 C 21.5625 39.457031 22.011719 39.90625 22.5625 39.90625 C 23.113281 39.90625 23.5625 39.457031 23.5625 38.90625 C 23.5625 38.355469 23.113281 37.90625 22.5625 37.90625 Z"/></svg>