<svg xmlns="http://www.w3.org/2000/svg"  viewBox="0 0 50 50" width="1000px" height="1000px"><path d="M 4.625 3.625 L 5.9726562 9.015625 C 5.8280324 9.465686 4 15.252739 4 25 C 4 34.669455 5.8038711 39.558694 5.9765625 40.015625 L 4.7089844 46.353516 L 9.9609375 45.041016 L 13 46.054688 L 16 45.054688 L 19 46.054688 L 22 45.054688 L 25 46.054688 L 28 45.054688 L 31 46.054688 L 34 45.054688 L 37 46.054688 L 40.039062 45.041016 L 45.291016 46.353516 L 44.980469 44.804688 L 44.021484 40.005859 C 44.134622 39.604474 46 32.926069 46 25 C 46 17.051006 44.127906 9.4408531 44.025391 9.0273438 L 45.375 3.625 L 40.039062 4.9589844 L 37 3.9453125 L 34 4.9453125 L 31 3.9453125 L 28 4.9453125 L 25 3.9453125 L 22 4.9453125 L 19 3.9453125 L 16 4.9453125 L 13 3.9453125 L 9.9609375 4.9589844 L 4.625 3.625 z M 13 6.0546875 L 16 7.0546875 L 19 6.0546875 L 22 7.0546875 L 25 6.0546875 L 28 7.0546875 L 31 6.0546875 L 34 7.0546875 L 37 6.0546875 L 39.960938 7.0410156 L 42.625 6.375 L 41.96875 9 L 42.029297 9.2421875 C 42.029297 9.2421875 44 17.166667 44 25 C 44 32.833333 42.039063 39.724609 42.039062 39.724609 L 41.972656 39.958984 L 42.708984 43.646484 L 39.960938 42.958984 L 37 43.945312 L 34 42.945312 L 31 43.945312 L 28 42.945312 L 25 43.945312 L 22 42.945312 L 19 43.945312 L 16 42.945312 L 13 43.945312 L 10.039062 42.958984 L 7.2910156 43.646484 L 7.8203125 41 L 39 41 A 1.0001 1.0001 0 1 0 39 39 L 7.7167969 39 C 7.257525 37.616052 6 33.139677 6 25 C 6 18.18998 6.918805 13.370516 7.4941406 11 L 39 11 A 1.0001 1.0001 0 1 0 39 9 L 8.03125 9 L 7.375 6.375 L 10.039062 7.0410156 L 13 6.0546875 z M 17 18 C 17 18 15.701327 17.9967 14.445312 18.833984 C 13.189299 19.671275 12 21.415516 12 24.332031 C 12 26.975009 13.278218 28.976343 14.892578 30.210938 C 16.506938 31.445532 18.416531 32 20 32 C 21.381822 32 22.57939 31.720104 23.667969 31.296875 C 24.536173 31.613239 25.871683 32 28 32 C 34.444444 32 38 27.5 38 23 C 38 20.77775 37.188378 19.391197 36.265625 18.699219 C 35.342872 18.007241 34.332031 18 34.332031 18 C 32.165365 18 30.647703 18.564453 29.314453 19.064453 C 27.981203 19.564453 26.833333 20 25 20 C 23.166667 20 22.029468 19.566497 20.894531 19.080078 C 19.759595 18.593659 18.583469 18 17 18 z M 17 20 C 18.083531 20 18.907155 20.406341 20.105469 20.919922 C 21.303782 21.433503 22.833333 22 25 22 C 27.166667 22 28.684328 21.435547 30.017578 20.935547 C 30.226369 20.857247 30.431685 20.804216 30.634766 20.730469 C 29.87263 21.867383 29.157005 23.157418 28.324219 24.460938 C 26.464232 27.372285 24.237913 30 20 30 C 18.916469 30 17.326312 29.555203 16.107422 28.623047 C 14.888532 27.690891 14 26.356053 14 24.332031 C 14 21.915547 14.810702 20.994006 15.554688 20.498047 C 16.298673 20.002087 17 20 17 20 z M 34.332031 20 C 34.332031 20 34.655659 19.9928 35.066406 20.300781 C 35.477154 20.608803 36 21.22225 36 23 C 36 26.5 33.555556 30 28 30 C 27.150706 30 26.916964 29.830383 26.371094 29.738281 C 27.882628 28.532245 29.067999 27.013164 30.009766 25.539062 C 30.996397 23.994736 31.794481 22.491215 32.533203 21.455078 C 33.271925 20.418942 33.832031 20 34.332031 20 z M 17 23 A 1 1 0 0 0 16 24 A 1 1 0 0 0 17 25 A 1 1 0 0 0 18 24 A 1 1 0 0 0 17 23 z M 21 23 A 1 1 0 0 0 20 24 A 1 1 0 0 0 21 25 A 1 1 0 0 0 22 24 A 1 1 0 0 0 21 23 z M 19 26 A 1 1 0 0 0 18 27 A 1 1 0 0 0 19 28 A 1 1 0 0 0 20 27 A 1 1 0 0 0 19 26 z"/></svg>