<svg xmlns="http://www.w3.org/2000/svg"  viewBox="0 0 50 50" width="1000px" height="1000px"><path d="M 14 2 C 8.414063 2 3.6875 3.65625 3.6875 3.65625 C 3.222656 3.804688 2.929688 4.265625 3 4.75 C 3 4.75 3.585938 8.484375 5.46875 12.25 C 6.410156 14.132813 7.6875 16.027344 9.4375 17.5 C 11.1875 18.972656 13.441406 20 16.15625 20 C 18.402344 20 19.90625 19.59375 19.90625 19.59375 C 20.441406 19.445313 20.757813 18.894531 20.609375 18.359375 C 20.460938 17.824219 19.910156 17.507813 19.375 17.65625 C 19.375 17.65625 18.164063 18 16.15625 18 C 13.925781 18 12.175781 17.226563 10.71875 16 C 9.261719 14.773438 8.109375 13.0625 7.25 11.34375 C 5.878906 8.605469 5.386719 6.320313 5.1875 5.3125 C 6.257813 4.976563 9.589844 4 14 4 C 18.371094 4 20.867188 5.859375 22.125 8.28125 C 23.183594 10.320313 23.273438 12.828125 22.5625 14.96875 C 21.359375 13.59375 19.992188 12.371094 18.625 11.3125 C 15.023438 8.523438 11.4375 6.84375 11.4375 6.84375 C 11.253906 6.753906 11.046875 6.71875 10.84375 6.75 C 10.398438 6.804688 10.042969 7.152344 9.980469 7.597656 C 9.914063 8.039063 10.152344 8.472656 10.5625 8.65625 C 10.5625 8.65625 13.976563 10.242188 17.375 12.875 C 20.773438 15.507813 24 19.128906 24 22.875 L 24 25 C 23.996094 25.042969 23.996094 25.082031 24 25.125 C 24 25.1875 24 25.25 24 25.3125 L 24 26 L 11 26 C 10.96875 26 10.9375 26 10.90625 26 C 10.390625 26.046875 9.996094 26.480469 10 27 L 10 33 C 10 33.550781 10.449219 34 11 34 L 12.1875 34 L 15.03125 47.21875 C 15.132813 47.671875 15.535156 47.996094 16 48 L 34 48 C 34.464844 47.996094 34.867188 47.671875 34.96875 47.21875 L 37.8125 34 L 39 34 C 39.550781 34 40 33.550781 40 33 L 40 27 C 40 26.449219 39.550781 26 39 26 L 26 26 L 26 25.3125 C 26 25.257813 26 25.207031 26 25.15625 C 26.003906 25.105469 26.003906 25.050781 26 25 C 26.082031 23.433594 26.800781 22.050781 27.90625 20.78125 C 29.085938 19.425781 30.71875 18.257813 32.375 17.3125 C 35.6875 15.421875 39.03125 14.46875 39.03125 14.46875 C 39.574219 14.363281 39.933594 13.839844 39.828125 13.296875 C 39.722656 12.753906 39.199219 12.394531 38.65625 12.5 C 38.59375 12.503906 38.53125 12.515625 38.46875 12.53125 C 38.46875 12.53125 34.9375 13.527344 31.375 15.5625 C 30.675781 15.960938 29.988281 16.421875 29.3125 16.90625 C 29.417969 16.121094 29.613281 15.160156 30.03125 14.1875 C 30.957031 12.042969 32.675781 10 37 10 C 41.324219 10 43.902344 10.898438 44.8125 11.25 C 44.601563 12.132813 44.136719 13.800781 42.96875 15.8125 C 41.417969 18.492188 38.96875 21 34.84375 21 C 32.429688 21 30.84375 20.25 30.84375 20.25 C 30.519531 20.085938 30.128906 20.113281 29.828125 20.320313 C 29.527344 20.523438 29.363281 20.878906 29.398438 21.242188 C 29.433594 21.605469 29.664063 21.917969 30 22.0625 C 30 22.0625 32.007813 23 34.84375 23 C 39.808594 23 42.9375 19.835938 44.6875 16.8125 C 46.4375 13.789063 46.96875 10.78125 46.96875 10.78125 C 47.054688 10.332031 46.824219 9.878906 46.40625 9.6875 C 46.40625 9.6875 42.585938 8 37 8 C 31.992188 8 29.328125 10.761719 28.1875 13.40625 C 27.046875 16.050781 27.1875 18.625 27.1875 18.625 C 27.1875 18.636719 27.1875 18.644531 27.1875 18.65625 C 26.921875 18.917969 26.652344 19.1875 26.40625 19.46875 C 26.140625 19.773438 25.890625 20.105469 25.65625 20.4375 C 25.316406 19.15625 24.746094 17.9375 24 16.8125 C 25.390625 13.914063 25.449219 10.320313 23.90625 7.34375 C 22.324219 4.292969 18.964844 2 14 2 Z M 12 28 L 38 28 L 38 32 L 12 32 Z M 14.21875 34 L 35.78125 34 L 33.1875 46 L 16.8125 46 Z"/></svg>