<svg xmlns="http://www.w3.org/2000/svg"  viewBox="0 0 50 50" width="1000px" height="1000px"><path d="M 34.808594 3 C 31.164063 3 28.328125 4.339844 26.207031 6.191406 C 24.085938 8.042969 22.644531 10.386719 21.574219 12.460938 L 13.519531 28.078125 C 13.519531 28.078125 13.519531 28.082031 13.519531 28.082031 C 12.949219 29.097656 12.851563 30.292969 13.21875 31.363281 L 10.664063 33.921875 C 8.453125 32.496094 5.386719 32.890625 3.808594 35.265625 C 2.808594 36.769531 2.734375 38.714844 3.5625 40.300781 C 4.144531 41.417969 5.058594 42.175781 6.054688 42.589844 C 6.222656 44.046875 7.042969 45.46875 8.484375 46.328125 C 10.082031 47.277344 12.101563 47.242188 13.660156 46.238281 C 15.871094 44.820313 16.421875 42.128906 15.449219 39.96875 L 18.484375 36.929688 C 19.570313 37.109375 20.730469 36.863281 21.660156 36.132813 L 21.554688 36.203125 C 21.554688 36.203125 23 35.339844 24.75 34.378906 C 26.5 33.417969 28.601563 32.347656 29.640625 32.003906 L 29.652344 32 L 34.320313 30.308594 C 36.671875 29.453125 39.003906 28.234375 41.027344 26.617188 C 45.855469 22.753906 47 18.011719 47 15.109375 C 47 8.429688 41.527344 3 34.808594 3 Z M 34.808594 5 C 40.453125 5 45 9.519531 45 15.109375 C 45 17.5 44.109375 21.59375 39.777344 25.054688 C 37.960938 26.507813 35.8125 27.640625 33.640625 28.425781 L 29.011719 30.105469 C 27.609375 30.570313 25.566406 31.644531 23.785156 32.625 C 22.003906 33.609375 20.53125 34.484375 20.53125 34.484375 L 20.472656 34.519531 L 20.421875 34.558594 C 19.492188 35.289063 18.164063 35.101563 17.476563 34.144531 L 15.378906 31.234375 C 14.917969 30.589844 14.871094 29.753906 15.261719 29.066406 L 15.269531 29.046875 L 23.351563 13.378906 C 24.367188 11.414063 25.695313 9.292969 27.519531 7.695313 C 29.347656 6.101563 31.644531 5 34.808594 5 Z M 14.28125 33.128906 L 15.855469 35.3125 C 16.054688 35.59375 16.292969 35.828125 16.546875 36.039063 L 12.980469 39.609375 L 13.457031 40.292969 C 14.394531 41.640625 14.148438 43.546875 12.578125 44.554688 C 11.675781 45.132813 10.429688 45.15625 9.507813 44.609375 C 8.582031 44.058594 8.125 43.230469 8.027344 42.335938 C 7.949219 41.625 7.488281 41.019531 6.832031 40.75 C 6.222656 40.5 5.703125 40.082031 5.335938 39.375 C 4.847656 38.441406 4.898438 37.238281 5.476563 36.375 C 6.59375 34.6875 8.792969 34.554688 10.121094 35.878906 L 10.828125 36.585938 Z"/></svg>