<svg xmlns="http://www.w3.org/2000/svg"  viewBox="0 0 50 50" width="1000px" height="1000px"><path d="M 25 1.96875 C 21.25 1.96875 17.828125 2.84375 15.28125 4.3125 C 12.796875 5.746094 11.085938 7.847656 11 10.3125 C 10.988281 10.332031 10.976563 10.355469 10.96875 10.375 C 10.96875 10.417969 10.96875 10.457031 10.96875 10.5 C 10.96875 10.519531 10.96875 10.542969 10.96875 10.5625 L 10.96875 13.0625 C 7.003906 14.121094 4 17.152344 4 20.90625 L 4 39.71875 C 4 44.410156 8.640625 48 14.09375 48 L 35.90625 48 C 41.359375 48 46 44.410156 46 39.71875 L 46 20.90625 C 46 17.148438 42.996094 14.117188 39.03125 13.0625 L 39.03125 10.5625 C 39.03125 10.542969 39.03125 10.519531 39.03125 10.5 C 39.03125 10.414063 39.019531 10.332031 39 10.25 C 38.886719 7.808594 37.179688 5.734375 34.71875 4.3125 C 32.171875 2.84375 28.75 1.96875 25 1.96875 Z M 25 4.03125 C 28.433594 4.03125 31.53125 4.847656 33.6875 6.09375 C 35.800781 7.3125 36.925781 8.84375 36.96875 10.40625 C 36.964844 10.449219 36.964844 10.488281 36.96875 10.53125 C 36.953125 12.117188 35.832031 13.667969 33.6875 14.90625 C 31.53125 16.152344 28.433594 16.96875 25 16.96875 C 21.566406 16.96875 18.46875 16.152344 16.3125 14.90625 C 14.15625 13.660156 13.03125 12.09375 13.03125 10.5 C 13.03125 10.488281 13.03125 10.480469 13.03125 10.46875 C 13.046875 8.886719 14.167969 7.332031 16.3125 6.09375 C 18.46875 4.847656 21.566406 4.03125 25 4.03125 Z M 21 6 C 19.894531 6 19 6.449219 19 7 C 19 7.550781 19.894531 8 21 8 C 22.105469 8 23 7.550781 23 7 C 23 6.449219 22.105469 6 21 6 Z M 29 6 C 27.894531 6 27 6.449219 27 7 C 27 7.550781 27.894531 8 29 8 C 30.105469 8 31 7.550781 31 7 C 31 6.449219 30.105469 6 29 6 Z M 17 9 C 15.894531 9 15 9.449219 15 10 C 15 10.550781 15.894531 11 17 11 C 18.105469 11 19 10.550781 19 10 C 19 9.449219 18.105469 9 17 9 Z M 25 9 C 23.894531 9 23 9.449219 23 10 C 23 10.550781 23.894531 11 25 11 C 26.105469 11 27 10.550781 27 10 C 27 9.449219 26.105469 9 25 9 Z M 33 9 C 31.894531 9 31 9.449219 31 10 C 31 10.550781 31.894531 11 33 11 C 34.105469 11 35 10.550781 35 10 C 35 9.449219 34.105469 9 33 9 Z M 21 12 C 19.894531 12 19 12.449219 19 13 C 19 13.550781 19.894531 14 21 14 C 22.105469 14 23 13.550781 23 13 C 23 12.449219 22.105469 12 21 12 Z M 29 12 C 27.894531 12 27 12.449219 27 13 C 27 13.550781 27.894531 14 29 14 C 30.105469 14 31 13.550781 31 13 C 31 12.449219 30.105469 12 29 12 Z M 13.03125 14.96875 C 13.675781 15.609375 14.421875 16.191406 15.28125 16.6875 C 17.828125 18.15625 21.25 19.03125 25 19.03125 C 28.75 19.03125 32.171875 18.15625 34.71875 16.6875 C 35.578125 16.191406 36.324219 15.609375 36.96875 14.96875 L 36.96875 16.5 C 36.96875 18.09375 35.84375 19.660156 33.6875 20.90625 C 31.53125 22.152344 28.433594 22.96875 25 22.96875 C 21.566406 22.96875 18.46875 22.152344 16.3125 20.90625 C 14.15625 19.660156 13.03125 18.09375 13.03125 16.5 Z M 10.96875 15.125 L 10.96875 16.5 C 10.96875 19.050781 12.734375 21.21875 15.28125 22.6875 C 17.828125 24.15625 21.25 25.03125 25 25.03125 C 28.75 25.03125 32.171875 24.15625 34.71875 22.6875 C 37.265625 21.21875 39.03125 19.050781 39.03125 16.5 L 39.03125 15.125 C 42.019531 16.09375 44 18.367188 44 20.90625 L 44 39.71875 C 44 43.066406 40.5 46 35.90625 46 L 14.09375 46 C 9.5 46 6 43.066406 6 39.71875 L 6 20.90625 C 6 18.375 7.992188 16.09375 10.96875 15.125 Z"/></svg>