<svg xmlns="http://www.w3.org/2000/svg"  viewBox="0 0 50 50" width="1000px" height="1000px"><path d="M 5 5 C 3.3550302 5 2 6.3550302 2 8 L 2 22 C 2 23.64497 3.3550302 25 5 25 L 41 25 C 42.64497 25 44 23.64497 44 22 L 44 16 C 45.104545 16 46 16.895455 46 18 L 46 28 C 46 29.104545 45.104545 30 44 30 L 6 30 C 3.8026661 30 2 31.802666 2 34 L 2 38 C 2 40.195455 3.8045455 42 6 42 L 33 42 L 33 42.332031 C 33 42.803365 33.257412 43.339443 33.542969 43.625 L 36.126953 46.207031 L 36.126953 46.208984 C 36.636579 46.717038 37.316014 47 38 47 L 42 47 C 43.093063 47 44 46.093063 44 45 L 48 45 L 48 43 L 44 43 L 44 39 L 48 39 L 48 37 L 44 37 C 44 35.906937 43.093063 35 42 35 L 38 35 C 37.316014 35 36.636579 35.282915 36.126953 35.791016 L 36.126953 35.792969 L 33.542969 38.375 C 33.256267 38.661001 33 39.195542 33 39.666016 L 33 40 L 6 40 C 4.8954545 40 4 39.104545 4 38 L 4 34 C 4 32.883334 4.8833339 32 6 32 L 44 32 C 46.195455 32 48 30.195455 48 28 L 48 18 C 48 15.804545 46.195455 14 44 14 L 44 8 C 44 6.3550302 42.64497 5 41 5 L 5 5 z M 5 7 L 41 7 C 41.56503 7 42 7.4349698 42 8 L 42 14 L 42 16 L 42 22 C 42 22.56503 41.56503 23 41 23 L 5 23 C 4.4349698 23 4 22.56503 4 22 L 4 8 C 4 7.4349698 4.4349698 7 5 7 z M 12 9 C 10.083334 9 8.5185588 9.7547551 7.5019531 10.898438 C 6.4853474 12.042118 6 13.527778 6 15 C 6 16.472222 6.4853474 17.957881 7.5019531 19.101562 C 8.5185588 20.245244 10.083334 21 12 21 C 15.301865 21 18 18.301863 18 15 C 18 11.698137 15.301865 9 12 9 z M 26 9 C 24.083334 9 22.518559 9.7547551 21.501953 10.898438 C 20.485347 12.042118 20 13.527778 20 15 C 20 16.472222 20.485347 17.957881 21.501953 19.101562 C 22.518559 20.245244 24.083334 21 26 21 C 29.301865 21 32 18.301863 32 15 C 32 11.698137 29.301865 9 26 9 z M 34 9 L 34 10 L 34 21 L 40 21 L 40 9 L 34 9 z M 12 11 C 14.220986 11 16 12.779015 16 15 C 16 17.220985 14.220986 19 12 19 C 10.583334 19 9.6481071 18.504756 8.9980469 17.773438 C 8.3479866 17.042119 8 16.027778 8 15 C 8 13.972222 8.3479866 12.957881 8.9980469 12.226562 C 9.6481071 11.495245 10.583334 11 12 11 z M 26 11 C 28.220986 11 30 12.779015 30 15 C 30 17.220985 28.220986 19 26 19 C 24.583334 19 23.648107 18.504756 22.998047 17.773438 C 22.347987 17.042119 22 16.027778 22 15 C 22 13.972222 22.347987 12.957881 22.998047 12.226562 C 23.648107 11.495245 24.583334 11 26 11 z M 36 11 L 38 11 L 38 14 L 36 14 L 36 11 z M 12 12 A 1 1 0 0 0 12 14 A 1 1 0 0 0 12 12 z M 26 12 A 1 1 0 0 0 26 14 A 1 1 0 0 0 26 12 z M 12 16 A 1 1 0 0 0 12 18 A 1 1 0 0 0 12 16 z M 26 16 A 1 1 0 0 0 26 18 A 1 1 0 0 0 26 16 z M 36 16 L 38 16 L 38 19 L 36 19 L 36 16 z M 38 37 L 42 37 L 42 45 L 38 45 C 37.850753 45 37.698521 44.94897 37.541016 44.792969 L 37.539062 44.791016 L 35 42.251953 L 35 39.746094 L 37.539062 37.208984 L 37.541016 37.207031 C 37.698475 37.051078 37.850753 37 38 37 z"/></svg>