<svg fill="#000000" xmlns="http://www.w3.org/2000/svg"  viewBox="0 0 50 50" width="1000px" height="1000px"><path d="M 38.875 1 C 22.242188 1 16.46875 4.773438 13.96875 7.3125 C 13.703125 7.582031 13.511719 7.914063 13.375 8.25 C 11.628906 9.035156 9.402344 10.796875 7.5 13.53125 C 5.609375 16.246094 4.105469 19.917969 4.03125 24.40625 C 3.949219 24.59375 3.929688 24.800781 3.96875 25 C 3.96875 25 4.007813 25.09375 4.0625 25.25 C 4.125 30.425781 5.148438 36.445313 8.5625 41.3125 C 12.085938 46.335938 18.160156 50 27.75 50 C 31.445313 50 34.523438 49.285156 36.5625 48.0625 C 37.582031 47.449219 38.375 46.6875 38.75 45.71875 C 39.039063 44.972656 38.925781 44.152344 38.59375 43.375 C 39.804688 41.882813 40.308594 40.335938 39.6875 39.125 C 39.335938 38.4375 38.488281 37.988281 37.6875 38.09375 C 36.886719 38.199219 36.195313 38.667969 35.53125 39.4375 C 34.835938 40.242188 31.339844 44 26 44 C 23.5 44 21.558594 42.527344 20.15625 40.46875 C 18.753906 38.410156 18 35.785156 18 34 C 18 29.171875 21.332031 26.265625 22.8125 25.1875 C 23.257813 26.335938 23.972656 27.613281 25.0625 28.84375 C 27.039063 31.074219 30.28125 33 35 33 C 35.359375 33.003906 35.695313 32.816406 35.878906 32.503906 C 36.058594 32.191406 36.058594 31.808594 35.878906 31.496094 C 35.695313 31.183594 35.359375 30.996094 35 31 C 30.808594 31 28.210938 29.390625 26.5625 27.53125 C 25.109375 25.894531 24.453125 24.015625 24.28125 23.03125 C 25.425781 22.875 26.507813 22.707031 27.53125 22.46875 C 28.679688 23.824219 32.449219 27.648438 38.125 27 C 38.675781 26.929688 39.070313 26.425781 39 25.875 C 38.929688 25.324219 38.425781 24.929688 37.875 25 C 33.933594 25.449219 31.101563 23.257813 29.71875 21.875 C 37.75 19.414063 41.777344 14.59375 44.21875 11.625 C 45.058594 10.601563 45.636719 9.332031 45.96875 8.15625 C 46.136719 7.570313 46.25 6.988281 46.28125 6.46875 C 46.3125 5.949219 46.304688 5.476563 46.0625 4.96875 C 45.753906 4.324219 45.074219 3.988281 44.53125 3.90625 C 44.148438 3.847656 43.835938 3.917969 43.5 3.96875 C 43.527344 3.796875 43.601563 3.660156 43.59375 3.46875 C 43.574219 2.953125 43.363281 2.339844 42.90625 1.90625 C 42 1.050781 40.761719 1 38.875 1 Z M 38.875 3 C 40.625 3 41.476563 3.324219 41.53125 3.375 C 41.601563 3.441406 41.589844 3.425781 41.59375 3.53125 C 41.597656 3.636719 41.582031 3.855469 41.5 4.0625 C 41.332031 4.476563 41.03125 4.84375 41.03125 4.84375 C 40.730469 5.207031 40.726563 5.734375 41.019531 6.105469 C 41.3125 6.472656 41.828125 6.585938 42.25 6.375 C 42.25 6.375 42.84375 6.074219 43.46875 5.9375 C 43.78125 5.867188 44.078125 5.855469 44.21875 5.875 C 44.253906 5.878906 44.238281 5.875 44.25 5.875 C 44.253906 5.902344 44.296875 6.0625 44.28125 6.34375 C 44.261719 6.679688 44.164063 7.121094 44.03125 7.59375 C 43.761719 8.539063 43.285156 9.617188 42.6875 10.34375 C 39.695313 13.984375 35.0625 19.773438 23.46875 21.15625 C 23.164063 21.191406 22.097656 20.753906 20.96875 19.75 C 19.839844 18.746094 18.617188 17.304688 17.59375 15.75 C 16.570313 14.195313 15.726563 12.527344 15.34375 11.1875 C 15.152344 10.515625 15.097656 9.925781 15.125 9.5 C 15.152344 9.074219 15.234375 8.828125 15.375 8.6875 C 17.507813 6.519531 22.535156 3 38.875 3 Z M 36.5 6 C 35.671875 6 35 6.671875 35 7.5 C 35 8.328125 35.671875 9 36.5 9 C 37.328125 9 38 8.328125 38 7.5 C 38 6.671875 37.328125 6 36.5 6 Z M 13.1875 10.625 C 13.195313 10.621094 13.210938 10.628906 13.21875 10.625 C 13.273438 10.984375 13.328125 11.34375 13.4375 11.71875 C 13.90625 13.359375 14.800781 15.164063 15.90625 16.84375 C 17.011719 18.523438 18.316406 20.085938 19.625 21.25 C 20.488281 22.019531 21.347656 22.636719 22.25 22.9375 C 22.257813 23.007813 22.242188 23.082031 22.25 23.15625 C 22.171875 23.1875 22.097656 23.230469 22.03125 23.28125 C 20.605469 24.253906 16 27.777344 16 34 C 16 36.308594 16.851563 39.175781 18.5 41.59375 C 20.148438 44.011719 22.707031 46 26 46 C 32.261719 46 36.199219 41.714844 37.03125 40.75 C 37.472656 40.238281 37.832031 40.113281 37.9375 40.09375 C 37.992188 40.273438 38 41.308594 36.78125 42.5625 C 36.433594 42.902344 36.382813 43.441406 36.65625 43.84375 C 37.015625 44.351563 37.019531 44.625 36.875 45 C 36.730469 45.375 36.304688 45.878906 35.53125 46.34375 C 33.980469 47.273438 31.179688 48 27.75 48 C 23.285156 48 19.738281 47.195313 16.90625 45.84375 C 17.378906 45.542969 17.894531 45.195313 18.46875 44.65625 C 18.785156 44.378906 18.890625 43.933594 18.738281 43.539063 C 18.585938 43.148438 18.203125 42.894531 17.78125 42.90625 C 17.523438 42.910156 17.277344 43.007813 17.09375 43.1875 C 16.367188 43.871094 15.738281 44.28125 15.3125 44.5 C 14.984375 44.667969 14.929688 44.671875 14.875 44.6875 C 12.945313 43.425781 11.402344 41.886719 10.1875 40.15625 C 9.949219 39.816406 9.746094 39.449219 9.53125 39.09375 C 10.945313 39.257813 12.914063 39.152344 14.6875 37.71875 C 15.070313 37.4375 15.203125 36.929688 15.003906 36.5 C 14.808594 36.066406 14.335938 35.832031 13.875 35.9375 C 13.714844 35.972656 13.5625 36.046875 13.4375 36.15625 C 11.238281 37.929688 8.375 36.8125 8.375 36.8125 C 8.355469 36.800781 8.332031 36.789063 8.3125 36.78125 C 7.050781 33.921875 6.40625 30.808594 6.15625 27.8125 C 7.5625 28.722656 9.8125 29.4375 13.375 29.4375 C 13.734375 29.441406 14.070313 29.253906 14.253906 28.941406 C 14.433594 28.628906 14.433594 28.246094 14.253906 27.933594 C 14.070313 27.621094 13.734375 27.433594 13.375 27.4375 C 9.632813 27.4375 7.78125 26.570313 6.875 25.84375 C 6.421875 25.480469 6.183594 25.164063 6.0625 24.9375 C 6.042969 24.902344 6.042969 24.902344 6.03125 24.875 C 6.03125 24.832031 6.03125 24.792969 6.03125 24.75 C 6.03125 20.539063 7.386719 17.152344 9.125 14.65625 C 10.429688 12.785156 11.96875 11.417969 13.1875 10.625 Z"/></svg>