<svg fill="#000000" xmlns="http://www.w3.org/2000/svg"  viewBox="0 0 50 50" width="1000px" height="1000px"><path d="M 27.5 0 C 25.359375 0.0664063 23.863281 1.09375 23.09375 2.46875 C 22.324219 3.84375 22.144531 5.457031 22.0625 6.9375 C 21.980469 8.417969 21.992188 9.816406 21.8125 10.59375 C 21.722656 10.984375 21.597656 11.15625 21.5625 11.1875 C 21.542969 11.203125 21.546875 11.238281 21.5 11.25 C 21.398438 11.238281 21.289063 11.230469 21.1875 11.21875 C 21.019531 11.148438 20.835938 11.128906 20.65625 11.15625 C 20.265625 11.117188 19.878906 11.085938 19.5 11.0625 C 14.101563 10.742188 9.730469 11.9375 6.5 14.25 C 2.191406 17.332031 0 22.332031 0 27.8125 C 0 35.621094 2.339844 41.269531 6.71875 44.875 C 11.066406 48.457031 17.269531 49.980469 24.84375 50 C 24.898438 50 24.945313 50 25 50 C 25.03125 50 25.0625 50 25.09375 50 C 32.695313 49.988281 38.921875 48.464844 43.28125 44.875 C 47.660156 41.269531 50 35.621094 50 27.8125 C 50 22.332031 47.808594 17.332031 43.5 14.25 C 39.910156 11.679688 34.910156 10.5 28.65625 11.25 C 28.605469 11.246094 28.550781 11.246094 28.5 11.25 C 27.488281 11.25 27.261719 11.007813 27.09375 10.65625 C 26.925781 10.304688 26.917969 9.585938 27.15625 8.75 C 27.394531 7.914063 27.855469 7 28.375 6.28125 C 28.894531 5.5625 29.503906 5.0625 29.75 4.96875 C 30.410156 4.71875 31.003906 4.273438 31.3125 3.625 C 31.621094 2.976563 31.558594 2.171875 31.1875 1.5 C 30.824219 0.84375 30.183594 0.378906 29.53125 0.1875 C 28.878906 -0.00390625 28.222656 -0.0234375 27.5 0 Z M 27.5625 2 C 28.214844 1.980469 28.699219 2.015625 28.96875 2.09375 C 29.238281 2.171875 29.308594 2.203125 29.4375 2.4375 C 29.558594 2.660156 29.535156 2.710938 29.5 2.78125 C 29.464844 2.851563 29.355469 2.984375 29.0625 3.09375 C 28.125 3.445313 27.40625 4.1875 26.75 5.09375 C 26.09375 6 25.535156 7.082031 25.21875 8.1875 C 24.902344 9.292969 24.777344 10.484375 25.28125 11.53125 C 25.324219 11.621094 25.386719 11.699219 25.4375 11.78125 C 25.320313 11.804688 25.210938 11.847656 25.09375 11.875 C 25.082031 11.878906 25.074219 11.871094 25.0625 11.875 C 25.042969 11.875 25.019531 11.875 25 11.875 C 24.980469 11.875 24.957031 11.875 24.9375 11.875 C 24.925781 11.875 24.917969 11.875 24.90625 11.875 C 24.886719 11.875 24.863281 11.875 24.84375 11.875 C 24.421875 11.78125 24.007813 11.671875 23.59375 11.59375 C 23.65625 11.410156 23.707031 11.214844 23.75 11.03125 C 24.027344 9.828125 23.984375 8.421875 24.0625 7.03125 C 24.140625 5.640625 24.355469 4.308594 24.84375 3.4375 C 25.332031 2.566406 25.949219 2.050781 27.5625 2 Z M 15.75 13.0625 C 15.1875 13.308594 14.632813 13.59375 14.09375 13.9375 C 10.515625 16.226563 7.875 20.828125 7.875 29.1875 C 7.875 37.054688 10.269531 42.316406 13.65625 45.5625 C 14.175781 46.0625 14.722656 46.5 15.28125 46.90625 C 12.398438 46.140625 9.953125 44.953125 8 43.34375 C 4.136719 40.160156 2 35.230469 2 27.8125 C 2 22.855469 3.914063 18.554688 7.65625 15.875 C 9.75 14.378906 12.433594 13.355469 15.75 13.0625 Z M 34.21875 13.0625 C 37.550781 13.351563 40.246094 14.375 42.34375 15.875 C 46.085938 18.554688 48 22.855469 48 27.8125 C 48 35.230469 45.863281 40.160156 42 43.34375 C 40.046875 44.953125 37.601563 46.140625 34.71875 46.90625 C 35.277344 46.5 35.824219 46.0625 36.34375 45.5625 C 39.730469 42.316406 42.125 37.054688 42.125 29.1875 C 42.125 20.828125 39.484375 16.226563 35.90625 13.9375 C 35.359375 13.589844 34.789063 13.3125 34.21875 13.0625 Z M 21.28125 13.84375 C 21.332031 13.839844 21.386719 13.847656 21.4375 13.84375 C 21.214844 14.074219 20.976563 14.304688 20.78125 14.5625 C 19.761719 15.890625 19.023438 17.550781 18.46875 19.375 C 17.359375 23.023438 17 27.347656 17 31 C 17 34.96875 17.554688 39.535156 18.75 43.21875 C 19.269531 44.816406 19.90625 46.222656 20.71875 47.375 C 18.726563 46.789063 16.734375 45.757813 15.03125 44.125 C 12.078125 41.292969 9.875 36.652344 9.875 29.1875 C 9.875 21.238281 12.207031 17.476563 15.15625 15.59375 C 17 14.414063 19.167969 13.96875 21.28125 13.84375 Z M 28.5625 13.84375 C 30.722656 13.957031 32.957031 14.386719 34.84375 15.59375 C 37.792969 17.476563 40.125 21.238281 40.125 29.1875 C 40.125 36.652344 37.921875 41.292969 34.96875 44.125 C 33.265625 45.757813 31.273438 46.789063 29.28125 47.375 C 30.09375 46.222656 30.730469 44.816406 31.25 43.21875 C 32.445313 39.535156 33 34.96875 33 31 C 33 27.347656 32.640625 23.023438 31.53125 19.375 C 30.976563 17.550781 30.238281 15.890625 29.21875 14.5625 C 29.023438 14.304688 28.785156 14.074219 28.5625 13.84375 Z M 25 13.90625 C 26.015625 14.167969 26.863281 14.789063 27.625 15.78125 C 28.433594 16.835938 29.085938 18.296875 29.59375 19.96875 C 30.609375 23.308594 31 27.484375 31 31 C 31 34.78125 30.445313 39.207031 29.34375 42.59375 C 28.792969 44.285156 28.105469 45.722656 27.34375 46.65625 C 26.628906 47.53125 25.9375 47.957031 25.15625 48 C 25.105469 48.003906 25.050781 48 25 48 C 24.96875 48 24.9375 48 24.90625 48 C 24.097656 47.972656 23.386719 47.554688 22.65625 46.65625 C 21.894531 45.722656 21.207031 44.285156 20.65625 42.59375 C 19.554688 39.207031 19 34.78125 19 31 C 19 27.484375 19.390625 23.308594 20.40625 19.96875 C 20.914063 18.296875 21.566406 16.835938 22.375 15.78125 C 23.136719 14.789063 23.984375 14.167969 25 13.90625 Z"/></svg>