<svg xmlns="http://www.w3.org/2000/svg"  viewBox="0 0 50 50" width="1000px" height="1000px"><path d="M 22.40625 2.75 C 22.09375 2.742188 21.789063 2.796875 21.5 2.90625 C 20.917969 3.125 20.425781 3.558594 20.15625 4.15625 L 17.6875 9.75 C 17.652344 9.800781 17.621094 9.851563 17.59375 9.90625 L 2.21875 43.78125 C 1.777344 44.753906 2.046875 45.835938 2.6875 46.5 C 3.328125 47.164063 4.421875 47.472656 5.40625 47.0625 L 40.625 32.40625 C 40.753906 32.359375 40.871094 32.285156 40.96875 32.1875 L 46.5 30 C 47.78125 29.46875 48.363281 27.929688 47.71875 26.6875 C 40.023438 11.839844 27.453125 4.917969 23.34375 2.96875 C 23.042969 2.828125 22.71875 2.757813 22.40625 2.75 Z M 22.1875 4.75 C 22.28125 4.71875 22.394531 4.730469 22.5 4.78125 C 26.378906 6.621094 38.566406 13.316406 45.96875 27.59375 C 46.070313 27.785156 45.949219 28.023438 45.75 28.125 L 43.71875 28.9375 C 43.828125 28.339844 43.902344 27.679688 43.84375 27 C 43.738281 25.792969 43.0625 24.417969 41.59375 23.875 C 39.945313 23.261719 39.378906 22.800781 39.15625 22.40625 C 38.933594 22.011719 38.90625 21.375 38.90625 20.1875 C 38.90625 19.261719 38.535156 18.433594 38 17.9375 C 37.464844 17.441406 36.855469 17.21875 36.34375 17.03125 C 35.832031 16.84375 35.390625 16.679688 35.15625 16.53125 C 34.921875 16.382813 34.882813 16.359375 34.84375 16.09375 C 34.640625 14.695313 34.21875 13.484375 33.1875 12.71875 C 32.15625 11.953125 30.796875 11.738281 28.90625 11.75 C 28.054688 11.757813 27.867188 11.617188 27.625 11.3125 C 27.382813 11.007813 27.136719 10.367188 26.8125 9.4375 C 26.546875 8.671875 26.246094 8.050781 25.8125 7.5625 C 25.378906 7.074219 24.785156 6.742188 24.1875 6.625 C 23.589844 6.507813 23.015625 6.535156 22.375 6.625 C 22.015625 6.675781 21.566406 6.761719 21.15625 6.84375 L 21.96875 4.96875 C 22.019531 4.855469 22.09375 4.78125 22.1875 4.75 Z M 23.34375 8.5625 C 23.539063 8.554688 23.695313 8.570313 23.8125 8.59375 C 24.050781 8.640625 24.140625 8.679688 24.3125 8.875 C 24.484375 9.070313 24.71875 9.46875 24.9375 10.09375 C 25.25 10.992188 25.46875 11.816406 26.0625 12.5625 C 26.65625 13.308594 27.671875 13.757813 28.90625 13.75 C 30.625 13.738281 31.550781 13.980469 32 14.3125 C 32.449219 14.644531 32.703125 15.1875 32.875 16.375 C 32.996094 17.210938 33.539063 17.898438 34.09375 18.25 C 34.648438 18.601563 35.195313 18.738281 35.65625 18.90625 C 36.117188 19.074219 36.484375 19.246094 36.65625 19.40625 C 36.828125 19.566406 36.90625 19.703125 36.90625 20.1875 C 36.90625 21.335938 36.828125 22.347656 37.40625 23.375 C 37.984375 24.402344 39.085938 25.074219 40.90625 25.75 C 41.652344 26.027344 41.777344 26.4375 41.84375 27.1875 C 41.910156 27.9375 41.734375 28.90625 41.53125 29.65625 C 41.503906 29.714844 41.484375 29.78125 41.46875 29.84375 L 40.6875 30.15625 C 34.082031 17.21875 23.117188 11.367188 19.84375 9.84375 L 20.21875 9 C 20.34375 9.023438 20.46875 9.023438 20.59375 9 C 21.820313 8.765625 22.753906 8.589844 23.34375 8.5625 Z M 18.96875 11.65625 C 21.148438 12.613281 32.101563 17.9375 38.8125 31 L 4.625 45.21875 C 4.394531 45.316406 4.253906 45.257813 4.125 45.125 C 3.996094 44.992188 3.929688 44.851563 4.03125 44.625 Z M 19.0625 17.375 C 18.675781 17.433594 18.355469 17.710938 18.25 18.089844 C 18.140625 18.464844 18.265625 18.871094 18.5625 19.125 L 32.34375 31.15625 C 32.605469 31.425781 33 31.527344 33.359375 31.417969 C 33.71875 31.304688 33.988281 31 34.050781 30.628906 C 34.113281 30.253906 33.960938 29.878906 33.65625 29.65625 L 19.90625 17.625 C 19.679688 17.414063 19.367188 17.324219 19.0625 17.375 Z M 14.9375 24.40625 C 14.554688 24.472656 14.246094 24.757813 14.148438 25.132813 C 14.046875 25.507813 14.171875 25.90625 14.46875 26.15625 L 24.625 34.96875 C 25.046875 35.332031 25.683594 35.28125 26.046875 34.859375 C 26.410156 34.4375 26.359375 33.800781 25.9375 33.4375 L 15.78125 24.65625 C 15.554688 24.445313 15.242188 24.355469 14.9375 24.40625 Z M 12.21875 31.4375 C 11.835938 31.503906 11.527344 31.789063 11.429688 32.164063 C 11.328125 32.539063 11.453125 32.9375 11.75 33.1875 L 17.40625 38.1875 C 17.667969 38.457031 18.0625 38.558594 18.421875 38.449219 C 18.78125 38.335938 19.050781 38.03125 19.113281 37.660156 C 19.175781 37.285156 19.023438 36.910156 18.71875 36.6875 L 13.0625 31.6875 C 12.835938 31.476563 12.523438 31.386719 12.21875 31.4375 Z"/></svg>