<svg xmlns="http://www.w3.org/2000/svg"  viewBox="0 0 50 50" width="1000px" height="1000px"><path d="M 49 0 C 30.585938 0 22.167969 5.863281 18.5625 11.90625 C 15.285156 17.402344 16 22.699219 16.15625 23.65625 C 15.644531 24.433594 15.148438 25.210938 14.6875 26 L 8 26 C 7.96875 26 7.9375 26 7.90625 26 C 7.355469 26.027344 6.925781 26.496094 6.953125 27.046875 C 6.980469 27.597656 7.449219 28.027344 8 28 L 24 28 C 24.359375 28.003906 24.695313 27.816406 24.878906 27.503906 C 25.058594 27.191406 25.058594 26.808594 24.878906 26.496094 C 24.695313 26.183594 24.359375 25.996094 24 26 L 17.03125 26 C 17.285156 25.585938 17.542969 25.160156 17.8125 24.75 C 19.171875 24.609375 25.144531 23.871094 31.84375 21.03125 C 39.417969 17.820313 47.695313 11.890625 49.96875 1.21875 C 50.035156 0.921875 49.964844 0.613281 49.777344 0.378906 C 49.585938 0.140625 49.300781 0.00390625 49 0 Z M 47.65625 2.0625 C 46.355469 6.804688 43.746094 10.464844 40.5625 13.3125 C 36.230469 14.410156 31.78125 13.0625 31.78125 13.0625 C 31.652344 13.015625 31.511719 12.992188 31.375 13 C 30.882813 13.027344 30.480469 13.410156 30.433594 13.902344 C 30.386719 14.394531 30.707031 14.847656 31.1875 14.96875 C 31.1875 14.96875 33.9375 15.859375 37.4375 15.75 C 35.382813 17.140625 33.210938 18.277344 31.0625 19.1875 C 25.84375 21.402344 21.523438 22.21875 19.34375 22.53125 C 24.925781 14.898438 33.035156 8.199219 43.78125 4.96875 C 44.324219 4.855469 44.675781 4.324219 44.5625 3.78125 C 44.449219 3.238281 43.917969 2.886719 43.375 3 C 43.3125 3.003906 43.25 3.015625 43.1875 3.03125 C 32.160156 6.34375 23.796875 13.191406 18 20.96875 C 17.980469 19.113281 18.332031 16.207031 20.28125 12.9375 C 23.398438 7.710938 30.683594 2.347656 47.65625 2.0625 Z M 6 29 C 2.699219 29 0 31.699219 0 35 L 0 44 C 0 47.300781 2.699219 50 6 50 L 26 50 C 29.300781 50 32 47.300781 32 44 L 32 35 C 32 31.699219 29.300781 29 26 29 Z M 6 31 L 26 31 C 28.21875 31 30 32.78125 30 35 L 30 44 C 30 46.21875 28.21875 48 26 48 L 6 48 C 3.78125 48 2 46.21875 2 44 L 2 35 C 2 32.78125 3.78125 31 6 31 Z"/></svg>