<svg xmlns="http://www.w3.org/2000/svg"  viewBox="0 0 50 50" width="1000px" height="1000px"><path d="M 37.625 1 C 34.714844 1 31.808594 2.097656 29.59375 4.3125 L 26.34375 7.59375 C 23.769531 10.167969 22.679688 13.675781 23.09375 17.03125 C 23.09375 17.03125 23.308594 18.96875 23.1875 21.25 C 23.066406 23.53125 22.507813 26.085938 21.375 27.21875 L 12.59375 36 L 11.09375 36 C 10.296875 36 9.53125 36.3125 8.96875 36.875 L 2.59375 43.28125 C 1.820313 44.054688 1.820313 45.320313 2.59375 46.09375 L 3.90625 47.40625 C 4.679688 48.179688 5.945313 48.179688 6.71875 47.40625 L 13.125 41.03125 C 13.6875 40.46875 14 39.703125 14 38.90625 L 14 37.40625 L 22.78125 28.625 C 23.914063 27.492188 26.46875 26.933594 28.75 26.8125 C 31.03125 26.691406 32.96875 26.90625 32.96875 26.90625 C 36.324219 27.320313 39.832031 26.230469 42.40625 23.65625 L 45.6875 20.40625 C 50.117188 15.976563 50.117188 8.742188 45.6875 4.3125 C 43.472656 2.097656 40.535156 1 37.625 1 Z M 37.71875 3 C 37.894531 3 38.074219 3.019531 38.25 3.03125 L 38 3.28125 Z M 36.375 3.09375 L 37.28125 4 L 36 5.3125 L 34.3125 3.625 C 34.984375 3.367188 35.667969 3.1875 36.375 3.09375 Z M 39.5 3.21875 C 40.164063 3.355469 40.839844 3.527344 41.46875 3.8125 L 40 5.28125 L 38.71875 4 Z M 33.34375 4.03125 L 35.3125 6 L 34 7.3125 L 31.78125 5.09375 C 32.285156 4.683594 32.789063 4.320313 33.34375 4.03125 Z M 42.40625 4.3125 C 42.921875 4.621094 43.410156 4.988281 43.875 5.40625 L 42 7.28125 L 40.71875 6 Z M 38 4.71875 L 39.28125 6 L 38 7.3125 L 36.6875 6 Z M 31.03125 5.75 L 31.0625 5.75 L 33.3125 8 L 32 9.3125 L 29.71875 7.03125 L 30.875 5.875 Z M 44.59375 6.125 C 45.007813 6.585938 45.378906 7.082031 45.6875 7.59375 L 44 9.28125 L 42.71875 8 Z M 36 6.6875 L 37.3125 8 L 36 9.3125 L 34.6875 8 Z M 40 6.71875 L 41.28125 8 L 40 9.28125 L 38.6875 8 Z M 29.03125 7.71875 L 31.3125 10 L 30 11.28125 L 27.75 9.03125 C 27.753906 9.027344 27.746094 9.003906 27.75 9 Z M 46.15625 8.5625 C 46.4375 9.1875 46.644531 9.839844 46.78125 10.5 L 46 11.28125 L 44.71875 10 Z M 34 8.6875 L 35.3125 10 L 34 11.3125 L 32.6875 10 Z M 38 8.6875 L 39.28125 10 L 38 11.28125 L 36.6875 10 Z M 42 8.71875 L 43.28125 10 L 42 11.28125 L 40.71875 10 Z M 27.0625 9.78125 L 29.28125 12 L 28 13.28125 L 26.0625 11.34375 C 26.34375 10.800781 26.667969 10.273438 27.0625 9.78125 Z M 32 10.6875 L 33.3125 12 L 32 13.3125 L 30.6875 12 Z M 36 10.6875 L 37.28125 12 L 36 13.28125 L 34.6875 12 Z M 40 10.71875 L 41.28125 12 L 40 13.28125 L 38.71875 12 Z M 44 10.71875 L 45.28125 12 L 44 13.28125 L 42.71875 12 Z M 46.96875 11.75 C 46.980469 11.925781 47 12.105469 47 12.28125 L 46.71875 12 Z M 25.625 12.34375 L 27.28125 14 L 26 15.28125 L 25.09375 14.375 C 25.1875 13.683594 25.378906 13.003906 25.625 12.34375 Z M 30 12.6875 L 31.3125 14 L 30 15.3125 L 28.6875 14 Z M 34 12.6875 L 35.28125 14 L 34 15.28125 L 32.6875 14 Z M 38 12.71875 L 39.28125 14 L 38 15.3125 L 36.71875 14 Z M 42 12.71875 L 43.28125 14 L 42 15.28125 L 40.71875 14 Z M 46 12.71875 L 46.90625 13.625 C 46.8125 14.316406 46.625 14.996094 46.375 15.65625 L 44.71875 14 Z M 28 14.6875 L 29.3125 16 L 28 17.3125 L 26.6875 16 Z M 32 14.6875 L 33.28125 16 L 32 17.28125 L 30.6875 16 Z M 36 14.71875 L 37.3125 16 L 36 17.3125 L 34.71875 16 Z M 40 14.71875 L 41.28125 16 L 40 17.28125 L 38.71875 16 Z M 44 14.71875 L 45.9375 16.65625 C 45.65625 17.199219 45.332031 17.726563 44.9375 18.21875 L 42.71875 16 Z M 25 15.71875 L 25.28125 16 L 25.03125 16.25 C 25.019531 16.074219 25.003906 15.894531 25 15.71875 Z M 26 16.6875 L 27.3125 18 L 25.84375 19.46875 C 25.550781 18.824219 25.355469 18.152344 25.21875 17.46875 Z M 30 16.6875 L 31.28125 18 L 30 19.28125 L 28.6875 18 Z M 38 16.6875 L 39.28125 18 L 38 19.28125 L 36.6875 18 Z M 34 16.71875 L 35.3125 18 L 34 19.3125 L 32.71875 18 Z M 42 16.71875 L 44.25 18.96875 L 42.96875 20.25 L 40.71875 18 Z M 28 18.6875 L 29.28125 20 L 27.40625 21.875 C 26.984375 21.40625 26.621094 20.898438 26.3125 20.375 Z M 36 18.6875 L 37.3125 20 L 36 21.3125 L 34.6875 20 Z M 32 18.71875 L 33.3125 20 L 32 21.3125 L 30.71875 20 Z M 40 18.71875 L 42.25 20.96875 L 41 22.25 C 40.988281 22.261719 40.980469 22.269531 40.96875 22.28125 L 38.71875 20 Z M 34 20.6875 L 35.3125 22 L 34 23.3125 L 32.6875 22 Z M 30 20.71875 L 31.3125 22 L 29.59375 23.6875 C 29.078125 23.378906 28.585938 23.007813 28.125 22.59375 Z M 38 20.71875 L 40.25 22.9375 C 39.75 23.34375 39.210938 23.683594 38.65625 23.96875 L 36.71875 22 Z M 25.09375 22.1875 C 25.457031 22.703125 25.882813 23.195313 26.34375 23.65625 C 26.804688 24.117188 27.296875 24.542969 27.8125 24.90625 C 26.738281 24.996094 25.628906 25.117188 24.5625 25.4375 C 24.882813 24.371094 25.003906 23.261719 25.09375 22.1875 Z M 32 22.6875 L 33.3125 24 L 32.53125 24.78125 C 31.847656 24.644531 31.175781 24.449219 30.53125 24.15625 Z M 36 22.71875 L 37.6875 24.375 C 37.019531 24.628906 36.324219 24.8125 35.625 24.90625 L 34.71875 24 Z M 34 24.71875 L 34.28125 25 C 34.105469 24.996094 33.925781 24.980469 33.75 24.96875 Z M 11.09375 38 L 12 38 L 12 38.90625 C 12 39.171875 11.875 39.4375 11.6875 39.625 L 5.3125 46 L 4 44.6875 L 10.375 38.3125 C 10.5625 38.125 10.828125 38 11.09375 38 Z"/></svg>