<svg fill="#000000" xmlns="http://www.w3.org/2000/svg"  viewBox="0 0 50 50" width="1000px" height="1000px"><path d="M 35.40625 1 C 33.941406 1 32.621094 1.433594 31.625 2.25 C 30.628906 3.066406 30 4.316406 30 5.6875 C 30 7.414063 31.0625 8.492188 32.03125 8.84375 C 32.175781 8.894531 32.171875 8.84375 32.3125 8.875 C 32.21875 9.164063 32.085938 9.394531 32.0625 9.75 C 32.019531 10.421875 32.199219 11.246094 32.78125 11.90625 C 33.152344 12.328125 33.894531 12.539063 34.53125 12.8125 C 34.136719 14.0625 33.300781 15.652344 32.03125 17.4375 C 32.046875 16.019531 31.820313 14.570313 31.375 13.21875 C 30.835938 11.578125 29.992188 10.050781 28.84375 8.90625 C 27.695313 7.761719 26.179688 7 24.5 7 C 22.15625 7 20.503906 7.597656 19.4375 8.59375 C 18.371094 9.589844 18 10.894531 18 12.03125 C 18 14.082031 19.734375 16.082031 22.1875 16.25 C 22.292969 17.53125 22.777344 18.65625 23.75 19.1875 C 24.664063 19.6875 25.742188 19.609375 26.78125 19.25 C 26.773438 19.8125 26.65625 20.6875 26.375 21.625 C 25.816406 23.5 24.695313 25.683594 23.3125 26.90625 C 23.230469 26.96875 23.15625 27.042969 23.09375 27.125 C 21.453125 28.496094 19.835938 29.816406 18.875 30.5625 C 18.539063 30.757813 18.34375 31.132813 18.382813 31.519531 C 18.417969 31.910156 18.675781 32.242188 19.042969 32.371094 C 19.410156 32.5 19.820313 32.40625 20.09375 32.125 C 21.265625 31.214844 23.015625 29.8125 24.96875 28.1875 C 25.203125 28.171875 25.425781 28.070313 25.59375 27.90625 C 28.746094 25.53125 32.691406 24.230469 33.5 23.96875 C 34.277344 24.988281 35.371094 25.589844 36.40625 25.5625 C 37.0625 25.542969 37.660156 25.402344 38.1875 25.1875 C 38.289063 25.570313 38.25 25.804688 38.5 26.21875 C 39.082031 27.1875 40.292969 28 42.0625 28 C 44 28 45.421875 26.925781 46.125 25.59375 C 46.828125 24.261719 47 22.710938 47 21.34375 C 47 17.457031 43.59375 15 40.40625 15 C 40.035156 15 39.671875 15.03125 39.3125 15.09375 C 39.382813 15.023438 39.460938 14.976563 39.53125 14.90625 C 42.046875 12.390625 43.359375 9.085938 42.84375 6.1875 C 42.585938 4.738281 41.828125 3.371094 40.5625 2.4375 C 39.296875 1.503906 37.554688 1 35.40625 1 Z M 35.40625 3 C 37.242188 3 38.527344 3.4375 39.375 4.0625 C 40.222656 4.6875 40.695313 5.515625 40.875 6.53125 C 41.238281 8.566406 40.253906 11.339844 38.125 13.46875 C 37.089844 14.503906 36.285156 15.160156 35.28125 16.125 C 35.972656 14.871094 36.515625 13.671875 36.75 12.59375 C 36.867188 12.058594 36.53125 11.53125 36 11.40625 C 35 11.167969 34.5 10.839844 34.28125 10.59375 C 34.0625 10.347656 34.046875 10.144531 34.0625 9.875 C 34.097656 9.332031 34.53125 8.6875 34.53125 8.6875 C 34.796875 8.367188 34.835938 7.910156 34.628906 7.546875 C 34.417969 7.1875 34.007813 6.992188 33.59375 7.0625 C 33.59375 7.0625 33.121094 7.113281 32.71875 6.96875 C 32.316406 6.824219 32 6.757813 32 5.6875 C 32 4.898438 32.324219 4.289063 32.90625 3.8125 C 33.488281 3.335938 34.339844 3 35.40625 3 Z M 24.5 9 C 25.578125 9 26.539063 9.480469 27.40625 10.34375 C 28.273438 11.207031 29.011719 12.453125 29.46875 13.84375 C 30.28125 16.304688 30.214844 19.144531 29.15625 20.96875 C 28.902344 21.253906 28.648438 21.519531 28.375 21.8125 C 28.625 20.890625 28.769531 20.019531 28.78125 19.28125 C 28.789063 18.859375 28.78125 18.480469 28.65625 18.09375 C 28.53125 17.707031 28.242188 17.214844 27.6875 17.03125 C 27.378906 16.933594 27.039063 16.992188 26.78125 17.1875 C 26.019531 17.726563 25.230469 17.71875 24.71875 17.4375 C 24.207031 17.15625 23.824219 16.664063 24.03125 15.5 C 24.09375 15.179688 24 14.851563 23.777344 14.613281 C 23.554688 14.378906 23.226563 14.265625 22.90625 14.3125 C 21.039063 14.59375 20 13.109375 20 12.03125 C 20 11.308594 20.210938 10.625 20.8125 10.0625 C 21.414063 9.5 22.492188 9 24.5 9 Z M 40.40625 17 C 42.566406 17 45 18.632813 45 21.34375 C 45 22.535156 44.824219 23.839844 44.375 24.6875 C 43.925781 25.535156 43.367188 26 42.0625 26 C 40.808594 26 40.492188 25.644531 40.21875 25.1875 C 39.945313 24.730469 39.847656 24.066406 39.75 23.46875 C 39.683594 23.085938 39.398438 22.777344 39.023438 22.679688 C 38.648438 22.578125 38.25 22.703125 38 23 C 38.015625 22.980469 37.757813 23.210938 37.4375 23.34375 C 37.117188 23.476563 36.722656 23.550781 36.34375 23.5625 C 35.589844 23.582031 35.070313 23.484375 34.71875 22.46875 C 34.554688 21.941406 33.996094 21.648438 33.46875 21.8125 C 33.46875 21.8125 32.597656 22.09375 31.46875 22.53125 C 32.390625 21.699219 33.339844 20.847656 34.3125 19.9375 C 34.441406 19.890625 34.558594 19.816406 34.65625 19.71875 C 34.65625 19.71875 35.441406 19.039063 36.59375 18.34375 C 37.746094 17.648438 39.226563 17 40.40625 17 Z M 12.5625 24.03125 C 12.253906 24.027344 11.949219 24.035156 11.65625 24.0625 C 9.304688 24.269531 7.390625 25.335938 6.15625 26.65625 C 4.363281 28.578125 3.632813 30.71875 3.5 32.75 C 3.367188 34.78125 3.789063 36.71875 4.15625 38.53125 C 4.523438 40.34375 4.839844 42.015625 4.6875 43.4375 C 4.535156 44.859375 4.003906 46.058594 2.4375 47.25 C 2.105469 47.445313 1.914063 47.808594 1.945313 48.191406 C 1.972656 48.578125 2.222656 48.90625 2.582031 49.046875 C 2.9375 49.183594 3.34375 49.105469 3.625 48.84375 C 4.355469 48.289063 4.921875 47.671875 5.375 47.03125 C 5.492188 46.980469 5.597656 46.90625 5.6875 46.8125 C 6.503906 46.109375 7.5 45.9375 8.84375 46.03125 C 10.1875 46.125 11.800781 46.507813 13.53125 46.875 C 15.261719 47.242188 17.101563 47.578125 19 47.40625 C 20.898438 47.234375 22.847656 46.53125 24.5625 44.9375 C 27.417969 42.28125 28.234375 36.472656 24.28125 31.28125 C 24.0625 30.972656 23.6875 30.816406 23.3125 30.875 C 22.960938 30.9375 22.671875 31.183594 22.546875 31.515625 C 22.425781 31.851563 22.492188 32.226563 22.71875 32.5 C 23.1875 33.113281 23.5625 33.730469 23.875 34.34375 C 23.710938 34.449219 23.578125 34.601563 23.5 34.78125 C 23.511719 34.753906 23.445313 34.824219 23.15625 34.875 C 22.769531 34.941406 22.132813 34.929688 21.4375 34.8125 C 20.046875 34.578125 18.371094 33.921875 17.3125 33 C 16.339844 32.152344 15.613281 31.007813 15.375 29.9375 C 15.136719 28.867188 15.324219 27.917969 16.15625 27.0625 C 16.191406 27.023438 16.222656 26.980469 16.25 26.9375 C 16.976563 27.296875 17.738281 27.742188 18.53125 28.34375 C 18.8125 28.605469 19.21875 28.683594 19.574219 28.546875 C 19.933594 28.40625 20.183594 28.078125 20.210938 27.691406 C 20.242188 27.308594 20.050781 26.945313 19.71875 26.75 C 17.15625 24.816406 14.710938 24.054688 12.5625 24.03125 Z M 12.53125 25.9375 C 13.082031 25.945313 13.664063 26.03125 14.28125 26.1875 C 13.351563 27.449219 13.128906 28.988281 13.4375 30.375 C 13.792969 31.960938 14.738281 33.402344 16 34.5 C 17.449219 35.761719 19.402344 36.488281 21.125 36.78125 C 21.984375 36.925781 22.777344 36.972656 23.5 36.84375 C 23.894531 36.773438 24.304688 36.644531 24.65625 36.40625 C 25.460938 39.496094 24.558594 42.222656 23.21875 43.46875 C 23.207031 43.46875 23.199219 43.46875 23.1875 43.46875 C 21.796875 44.761719 20.394531 45.265625 18.84375 45.40625 C 17.292969 45.546875 15.609375 45.289063 13.9375 44.9375 C 12.265625 44.585938 10.589844 44.148438 8.96875 44.03125 C 8.167969 43.972656 7.367188 44.007813 6.59375 44.1875 C 6.625 44.007813 6.636719 43.835938 6.65625 43.65625 C 6.855469 41.800781 6.460938 39.9375 6.09375 38.125 C 5.726563 36.3125 5.390625 34.546875 5.5 32.875 C 5.609375 31.203125 6.132813 29.628906 7.625 28.03125 C 8.660156 26.921875 10.339844 25.90625 12.53125 25.9375 Z"/></svg>