<svg xmlns="http://www.w3.org/2000/svg"  viewBox="0 0 50 50" width="1000px" height="1000px"><path d="M 18.980469 4.9902344 A 1.0001 1.0001 0 0 0 18.292969 5.2929688 C 17.015018 6.5709189 16.680045 8.4421132 17.269531 10.041016 C 16.488119 10.092126 15.728812 10.22256 14.996094 10.427734 C 13.94479 9.7623738 13.52705 8.4322864 14.068359 7.2714844 A 1.0001 1.0001 0 0 0 13.189453 5.8359375 A 1.0001 1.0001 0 0 0 12.255859 6.4257812 C 11.492218 8.0633596 11.819274 9.9352084 12.919922 11.236328 C 12.260416 11.571763 11.633624 11.965729 11.046875 12.419922 A 1.0001 1.0001 0 0 0 10.914062 12.400391 C 9.5266568 12.279371 8.5215082 11.079387 8.6425781 9.6914062 A 1.0001 1.0001 0 0 0 7.6191406 8.5898438 A 1.0001 1.0001 0 0 0 6.6503906 9.5175781 C 6.4789057 11.483531 7.6253875 13.260958 9.34375 14.015625 C 9.0056503 14.398284 8.6936283 14.805787 8.4003906 15.230469 C 7.0946932 15.516126 5.8055788 14.749517 5.4550781 13.443359 A 1.0001 1.0001 0 0 0 4.5078125 12.689453 A 1.0001 1.0001 0 0 0 3.5234375 13.960938 C 4.0040117 15.751819 5.5188069 17.006298 7.2539062 17.251953 C 6.9665191 17.880319 6.71509 18.531437 6.5234375 19.210938 C 5.425316 19.775177 4.0745191 19.46889 3.34375 18.425781 A 1.0001 1.0001 0 0 0 2.4902344 17.988281 A 1.0001 1.0001 0 0 0 1.7050781 19.574219 C 2.7205437 21.023707 4.4530263 21.675236 6.0996094 21.417969 C 6.040892 21.937863 6 22.464033 6 23 C 6 23.284462 6.0222967 23.563554 6.0390625 23.84375 C 5.2105203 24.835413 3.7778237 25.050766 2.6972656 24.294922 A 1.0001 1.0001 0 1 0 1.5527344 25.933594 C 3.0213071 26.960852 4.9003805 26.96956 6.3671875 26.132812 C 6.5321641 26.85038 6.7452236 27.546686 7.015625 28.212891 C 6.5850375 29.44257 5.3042699 30.14414 4.0214844 29.800781 A 1.0001 1.0001 0 1 0 3.5039062 31.732422 C 5.2241024 32.19286 6.9818154 31.568258 8.0761719 30.296875 C 8.4086945 30.826593 8.7841994 31.320655 9.1835938 31.791016 C 9.1947452 33.089661 8.2330305 34.181825 6.9140625 34.296875 A 1.0007671 1.0007671 0 0 0 7.0859375 36.291016 C 8.8384085 36.138152 10.259919 34.975741 10.867188 33.435547 C 11.535677 33.973644 12.255393 34.438341 13.021484 34.818359 C 13.53708 36.057313 13.006388 37.465928 11.777344 38.039062 A 1.0001 1.0001 0 1 0 12.623047 39.851562 C 14.294196 39.072265 15.260699 37.375995 15.212891 35.634766 C 15.945544 35.823984 16.705017 35.934736 17.484375 35.970703 C 18.235617 36.954744 18.169993 38.339773 17.267578 39.242188 A 1.0001 1.0001 0 1 0 18.681641 40.65625 C 19.971397 39.366494 20.30375 37.471756 19.691406 35.863281 C 20.333921 35.762514 20.961909 35.610613 21.568359 35.40625 C 22.058817 36.340742 22.656556 37.201134 23.337891 37.974609 C 21.827742 38.810886 20.85864 40.480626 21.017578 42.302734 A 1.0001 1.0001 0 1 0 23.009766 42.128906 C 22.899396 40.863602 23.72985 39.764177 24.927734 39.486328 C 25.520617 39.958016 26.15471 40.371845 26.824219 40.720703 C 25.661987 42.024122 25.310703 43.949999 26.091797 45.625 A 1.0009312 1.0009312 0 0 0 27.90625 44.779297 C 27.348427 43.583083 27.808479 42.208984 28.931641 41.566406 C 29.636632 41.768408 30.367989 41.903724 31.119141 41.962891 C 30.505878 43.571742 30.838679 45.467586 32.128906 46.757812 A 1.0001 1.0001 0 1 0 33.542969 45.34375 C 32.584228 44.385009 32.566819 42.880546 33.474609 41.892578 C 34.342292 41.777233 35.177797 41.558419 35.976562 41.253906 C 36.030756 42.897822 36.964587 44.462402 38.548828 45.201172 A 1.0001 1.0001 0 1 0 39.394531 43.388672 C 38.15591 42.811072 37.623953 41.384532 38.160156 40.138672 C 38.684445 39.797196 39.190377 39.427036 39.658203 39.005859 C 40.248569 40.582069 41.690992 41.776401 43.470703 41.931641 A 1.0001 1.0001 0 1 0 43.644531 39.939453 C 42.257125 39.818433 41.250024 38.618449 41.371094 37.230469 A 1.0001 1.0001 0 0 0 41.375 37.097656 C 41.730185 36.615557 42.049981 36.104127 42.339844 35.570312 C 43.854949 36.703719 45.985603 36.819988 47.613281 35.679688 A 1.0001 1.0001 0 1 0 46.466797 34.041016 C 45.41461 34.778144 44.026515 34.592636 43.189453 33.664062 C 43.706044 32.213759 44 30.646704 44 29.007812 L 44 29 A 1.0001 1.0001 0 0 0 43 28 L 41.957031 28 C 41.521569 22.451249 37.273076 18 32 18 C 31.035154 18 30.108014 18.158153 29.228516 18.435547 C 28.747706 17.050912 28.048017 15.78012 27.183594 14.662109 C 27.150134 13.343283 28.11954 12.227653 29.453125 12.111328 A 1.0004581 1.0004581 0 1 0 29.392578 10.111328 A 1.0003634 1.0003634 0 0 0 29.349609 10.113281 A 1.0001 1.0001 0 0 0 29.279297 10.119141 C 27.55699 10.269373 26.157396 11.395985 25.533203 12.896484 C 25.156638 12.565602 24.760161 12.260886 24.347656 11.980469 C 23.763327 10.719487 24.298139 9.2518426 25.558594 8.6640625 A 1.0001 1.0001 0 0 0 25.167969 6.7519531 A 1.0001 1.0001 0 0 0 24.712891 6.8515625 C 23.125473 7.5918137 22.18936 9.1596759 22.138672 10.806641 C 21.333513 10.484588 20.488789 10.253106 19.611328 10.125 C 18.7334 9.1366973 18.758687 7.6553764 19.707031 6.7070312 A 1.0001 1.0001 0 0 0 18.980469 4.9902344 z M 18 12 C 22.298943 12 25.986498 14.987785 27.392578 19.236328 C 24.420008 20.931675 22.340664 24.206797 22.042969 28 L 21 28 A 1.0001 1.0001 0 0 0 20 29 L 20 29.007812 C 20 30.610792 20.282121 32.144611 20.777344 33.568359 C 19.917698 33.841702 19.01178 33.990632 18.072266 33.998047 A 1.0001 1.0001 0 0 0 17.964844 33.990234 A 1.0001 1.0001 0 0 0 17.896484 33.994141 C 12.458491 33.932652 8 29.092491 8 23 C 8 22.051526 8.1193291 21.138353 8.3222656 20.263672 A 1.0001 1.0001 0 0 0 8.4101562 19.886719 C 9.3579045 16.333945 11.88197 13.554851 15.072266 12.482422 A 1.0001 1.0001 0 0 0 15.21875 12.439453 C 16.104082 12.157936 17.035351 12 18 12 z M 19 15 A 1 1 0 0 0 18 16 A 1 1 0 0 0 19 17 A 1 1 0 0 0 20 16 A 1 1 0 0 0 19 15 z M 15 16 A 1 1 0 0 0 14 17 A 1 1 0 0 0 15 18 A 1 1 0 0 0 16 17 A 1 1 0 0 0 15 16 z M 22 18 A 1 1 0 0 0 21 19 A 1 1 0 0 0 22 20 A 1 1 0 0 0 23 19 A 1 1 0 0 0 22 18 z M 12 20 A 1 1 0 0 0 11 21 A 1 1 0 0 0 12 22 A 1 1 0 0 0 13 21 A 1 1 0 0 0 12 20 z M 17 20 A 1 1 0 0 0 16 21 A 1 1 0 0 0 17 22 A 1 1 0 0 0 18 21 A 1 1 0 0 0 17 20 z M 32 20 C 36.081895 20 39.389703 23.479887 39.830078 28 L 24.169922 28 C 24.610297 23.479887 27.918105 20 32 20 z M 12 24 A 1 1 0 0 0 11 25 A 1 1 0 0 0 12 26 A 1 1 0 0 0 13 25 A 1 1 0 0 0 12 24 z M 18 24 A 1 1 0 0 0 17 25 A 1 1 0 0 0 18 26 A 1 1 0 0 0 19 25 A 1 1 0 0 0 18 24 z M 15 28 A 1 1 0 0 0 14 29 A 1 1 0 0 0 15 30 A 1 1 0 0 0 16 29 A 1 1 0 0 0 15 28 z M 22.181641 30 L 41.818359 30 C 41.339045 35.626532 37.169603 40 32 40 C 26.830397 40 22.660955 35.626532 22.181641 30 z M 27 32 A 1 1 0 0 0 26 33 A 1 1 0 0 0 27 34 A 1 1 0 0 0 28 33 A 1 1 0 0 0 27 32 z M 32 32 A 1 1 0 0 0 31 33 A 1 1 0 0 0 32 34 A 1 1 0 0 0 33 33 A 1 1 0 0 0 32 32 z M 37 32 A 1 1 0 0 0 36 33 A 1 1 0 0 0 37 34 A 1 1 0 0 0 38 33 A 1 1 0 0 0 37 32 z M 30 36 A 1 1 0 0 0 29 37 A 1 1 0 0 0 30 38 A 1 1 0 0 0 31 37 A 1 1 0 0 0 30 36 z M 34 36 A 1 1 0 0 0 33 37 A 1 1 0 0 0 34 38 A 1 1 0 0 0 35 37 A 1 1 0 0 0 34 36 z"/></svg>