<svg fill="#000000" xmlns="http://www.w3.org/2000/svg"  viewBox="0 0 50 50" width="1000px" height="1000px"><path d="M 30.15625 2.0625 C 27.253906 3.269531 25.371094 4.996094 24.3125 7.03125 C 23.40625 8.773438 23.101563 10.714844 23.03125 12.71875 C 20.855469 11.035156 18.085938 8.558594 15.8125 5.40625 C 15.59375 5.097656 15.21875 4.941406 14.84375 5 C 14.484375 5.058594 14.183594 5.3125 14.0625 5.65625 C 13.097656 8.203125 12.894531 10.382813 13.03125 12.125 C 11.765625 12.074219 9.488281 11.886719 7.375 11.0625 C 7.214844 11 7.042969 10.976563 6.875 11 C 6.589844 11.035156 6.332031 11.195313 6.167969 11.433594 C 6.007813 11.671875 5.957031 11.96875 6.03125 12.25 C 6.527344 14.089844 7.535156 15.460938 8.46875 16.40625 C 6.449219 17.222656 5 19.195313 5 21.5 C 5 23.140625 5.730469 24.613281 6.875 25.625 C 6.34375 26.46875 6 27.4375 6 28.5 C 6 30.441406 7.03125 32.144531 8.5625 33.125 C 8.210938 33.847656 8 34.640625 8 35.5 C 8 38.023438 9.734375 40.140625 12.0625 40.78125 C 12.03125 41.015625 12 41.257813 12 41.5 C 12 44.527344 14.472656 47 17.5 47 C 18.636719 47 19.710938 46.660156 20.59375 46.0625 C 21.691406 47.253906 23.261719 48 25 48 C 26.546875 48 27.964844 47.40625 29.03125 46.4375 C 29.777344 46.808594 30.617188 47 31.5 47 C 34.527344 47 37 44.527344 37 41.5 C 37 41.257813 36.96875 41.015625 36.9375 40.78125 C 39.265625 40.140625 41 38.023438 41 35.5 C 41 34.652344 40.808594 33.847656 40.46875 33.125 C 41.984375 32.144531 43 30.433594 43 28.5 C 43 27.644531 42.789063 26.847656 42.4375 26.125 C 43.96875 25.144531 45 23.441406 45 21.5 C 45 18.964844 43.253906 16.816406 40.90625 16.1875 C 40.957031 16.128906 41.011719 16.09375 41.0625 16.03125 C 41.875 15.03125 42.792969 13.695313 43 12.125 C 43.039063 11.820313 42.9375 11.515625 42.726563 11.296875 C 42.511719 11.078125 42.210938 10.96875 41.90625 11 C 41.808594 11.007813 41.714844 11.027344 41.625 11.0625 C 40.019531 11.722656 37.71875 12.261719 36.25 12.59375 C 36.277344 12.464844 36.320313 12.347656 36.34375 12.21875 C 36.609375 10.644531 36.566406 8.945313 35.6875 7.5 C 35.496094 7.167969 35.132813 6.972656 34.75 7 C 34.464844 7.027344 34.199219 7.171875 34.03125 7.40625 C 31.441406 10.941406 27.417969 12.21875 25.03125 12.6875 C 25.109375 10.910156 25.390625 9.316406 26.09375 7.96875 C 26.929688 6.359375 28.332031 5.011719 30.90625 3.9375 Z M 15.53125 8.15625 C 17.839844 10.945313 20.382813 13.148438 22.34375 14.65625 C 22.390625 14.703125 22.445313 14.746094 22.5 14.78125 C 22.714844 14.945313 22.894531 15.070313 23.09375 15.21875 C 22.179688 15.441406 21.324219 15.839844 20.59375 16.34375 C 20.585938 16.339844 20.570313 16.347656 20.5625 16.34375 C 19.441406 15.511719 18.03125 15 16.5 15 C 16.277344 15 16.0625 15.042969 15.84375 15.0625 C 15.65625 14.703125 15.414063 14.171875 15.21875 13.25 C 14.960938 12.039063 15.039063 10.234375 15.53125 8.15625 Z M 34.40625 9.96875 C 34.476563 10.5625 34.488281 11.230469 34.375 11.90625 C 34.289063 12.410156 34.152344 12.917969 34 13.40625 C 33.898438 13.566406 33.84375 13.75 33.84375 13.9375 C 33.703125 14.324219 33.53125 14.664063 33.375 15 C 31.878906 15.027344 30.5 15.523438 29.40625 16.34375 C 28.585938 15.777344 27.609375 15.363281 26.5625 15.15625 C 26.496094 15.117188 26.203125 14.949219 25.65625 14.59375 C 28.03125 14.085938 31.597656 12.878906 34.40625 9.96875 Z M 8.71875 13.40625 C 10.890625 13.914063 12.558594 14.042969 13.375 14.09375 C 13.527344 14.671875 13.703125 15.128906 13.875 15.53125 C 13.351563 15.746094 12.847656 16.015625 12.40625 16.34375 C 12.003906 16.195313 11.566406 16.117188 11.125 16.0625 C 10.625 15.695313 9.535156 14.792969 8.71875 13.40625 Z M 40.09375 13.625 C 39.855469 14.023438 39.777344 14.4375 39.5 14.78125 C 38.828125 15.609375 38.234375 16.144531 38.1875 16.1875 C 37.996094 16.238281 37.808594 16.277344 37.625 16.34375 C 36.988281 15.863281 36.238281 15.507813 35.4375 15.28125 C 35.503906 15.113281 35.5625 14.953125 35.625 14.78125 C 36.183594 14.65625 38.027344 14.234375 40.09375 13.625 Z M 16.5 17 C 17.480469 17 18.363281 17.289063 19.09375 17.75 C 18.402344 18.671875 18 19.792969 18 21 C 18 22.214844 18.425781 23.324219 19.125 24.25 C 18.390625 24.710938 17.480469 25 16.5 25 C 16.160156 25 15.816406 24.96875 15.5 24.90625 C 15.46875 24.894531 15.4375 24.882813 15.40625 24.875 C 13.410156 24.441406 12 22.847656 12 21 C 12 19.144531 13.425781 17.550781 15.4375 17.125 C 15.480469 17.117188 15.523438 17.105469 15.5625 17.09375 C 15.859375 17.039063 16.183594 17 16.5 17 Z M 25 17 C 25.292969 17 25.566406 17.023438 25.84375 17.0625 C 25.90625 17.070313 25.96875 17.082031 26.03125 17.09375 C 26.996094 17.253906 27.839844 17.632813 28.5 18.15625 C 28.511719 18.164063 28.519531 18.179688 28.53125 18.1875 C 28.542969 18.199219 28.550781 18.207031 28.5625 18.21875 C 28.652344 18.375 28.78125 18.503906 28.9375 18.59375 C 28.941406 18.597656 28.964844 18.589844 28.96875 18.59375 C 29.617188 19.277344 30 20.113281 30 21 C 30 23.113281 27.863281 25 25 25 C 24.738281 25 24.496094 24.96875 24.25 24.9375 C 24.210938 24.933594 24.164063 24.941406 24.125 24.9375 C 21.714844 24.597656 20 22.890625 20 21 C 20 20.113281 20.382813 19.277344 21.03125 18.59375 C 21.046875 18.578125 21.078125 18.578125 21.09375 18.5625 C 21.246094 18.480469 21.375 18.363281 21.46875 18.21875 C 21.480469 18.210938 21.488281 18.195313 21.5 18.1875 C 22.386719 17.476563 23.597656 17 25 17 Z M 33.5 17 C 34.730469 17 35.824219 17.4375 36.625 18.125 C 36.644531 18.148438 36.664063 18.167969 36.6875 18.1875 C 36.695313 18.191406 36.710938 18.183594 36.71875 18.1875 C 36.757813 18.234375 36.796875 18.273438 36.84375 18.3125 C 37.570313 19.027344 38 19.976563 38 21 C 38 23.167969 36.046875 25 33.5 25 C 32.523438 25 31.632813 24.710938 30.90625 24.25 C 31.597656 23.328125 32 22.207031 32 21 C 32 19.792969 31.597656 18.671875 30.90625 17.75 C 31.636719 17.289063 32.519531 17 33.5 17 Z M 10.5 18 C 10.585938 18.066406 10.679688 18.121094 10.78125 18.15625 C 10.285156 19 10 19.960938 10 21 C 10 22.476563 10.554688 23.839844 11.5 24.875 C 11.183594 24.964844 10.84375 25 10.5 25 C 9.953125 25 9.429688 24.875 8.96875 24.65625 C 8.957031 24.644531 8.949219 24.636719 8.9375 24.625 C 8.890625 24.601563 8.859375 24.554688 8.8125 24.53125 C 8.726563 24.476563 8.632813 24.433594 8.53125 24.40625 C 7.601563 23.78125 7 22.714844 7 21.5 C 7 19.554688 8.554688 18 10.5 18 Z M 39.5 18 C 41.445313 18 43 19.554688 43 21.5 C 43 22.957031 42.132813 24.191406 40.875 24.71875 C 40.777344 24.734375 40.683594 24.765625 40.59375 24.8125 C 40.25 24.921875 39.882813 25 39.5 25 C 39.148438 25 38.816406 24.941406 38.5 24.84375 C 39.433594 23.808594 40 22.46875 40 21 C 40 19.914063 39.699219 18.902344 39.15625 18.03125 C 39.269531 18.019531 39.382813 18 39.5 18 Z M 29.4375 25.625 C 30.261719 26.238281 31.242188 26.6875 32.3125 26.875 C 32.75 27.496094 33 28.222656 33 29 C 33 29.460938 32.914063 29.898438 32.75 30.3125 C 32.722656 30.371094 32.703125 30.4375 32.6875 30.5 C 32.371094 31.199219 31.808594 31.808594 31.125 32.25 C 30.960938 32.292969 30.808594 32.378906 30.6875 32.5 C 30.042969 32.820313 29.304688 33 28.5 33 C 27.433594 33 26.476563 32.6875 25.71875 32.15625 C 25.671875 32.109375 25.617188 32.066406 25.5625 32.03125 C 25.285156 31.816406 25.023438 31.582031 24.8125 31.3125 C 24.792969 31.28125 24.773438 31.25 24.75 31.21875 C 24.273438 30.578125 24 29.8125 24 29 C 24 28.265625 24.230469 27.566406 24.625 26.96875 C 24.753906 26.976563 24.871094 27 25 27 C 26.664063 27 28.214844 26.484375 29.4375 25.625 Z M 20.59375 25.65625 C 21.183594 26.0625 21.847656 26.398438 22.5625 26.625 C 22.21875 27.355469 22 28.15625 22 29 C 22 30.007813 22.246094 30.953125 22.71875 31.78125 C 21.914063 32.519531 20.777344 33 19.5 33 C 17.871094 33 16.507813 32.234375 15.71875 31.125 C 15.667969 31.03125 15.605469 30.949219 15.53125 30.875 C 15.195313 30.308594 15 29.675781 15 29 C 15 28.253906 15.222656 27.542969 15.625 26.9375 C 15.914063 26.972656 16.199219 27 16.5 27 C 18.042969 27 19.46875 26.5 20.59375 25.65625 Z M 13.3125 26.21875 C 13.421875 26.277344 13.542969 26.324219 13.65625 26.375 C 13.242188 27.167969 13 28.058594 13 29 C 13 29.839844 13.199219 30.625 13.53125 31.34375 C 12.957031 31.757813 12.261719 32 11.5 32 C 11.023438 32 10.566406 31.886719 10.15625 31.71875 C 10.144531 31.71875 10.136719 31.71875 10.125 31.71875 C 8.867188 31.191406 8 29.957031 8 28.5 C 8 27.808594 8.1875 27.164063 8.53125 26.625 C 9.144531 26.863281 9.804688 27 10.5 27 C 11.523438 27 12.488281 26.707031 13.3125 26.21875 Z M 36.6875 26.21875 C 37.511719 26.710938 38.472656 27 39.5 27 C 39.878906 27 40.238281 26.949219 40.59375 26.875 C 40.851563 27.359375 41 27.914063 41 28.5 C 41 29.898438 40.207031 31.09375 39.03125 31.65625 C 39.023438 31.660156 39.007813 31.652344 39 31.65625 C 38.9375 31.660156 38.875 31.671875 38.8125 31.6875 C 38.679688 31.714844 38.550781 31.765625 38.4375 31.84375 C 38.414063 31.863281 38.394531 31.882813 38.375 31.90625 C 38.097656 31.976563 37.796875 32 37.5 32 C 36.375 32 35.390625 31.472656 34.75 30.65625 C 34.910156 30.132813 35 29.574219 35 29 C 35 28.257813 34.855469 27.558594 34.59375 26.90625 C 35.339844 26.785156 36.046875 26.554688 36.6875 26.21875 Z M 33.78125 32.5 C 34.765625 33.417969 36.058594 34 37.5 34 C 37.878906 34 38.238281 33.949219 38.59375 33.875 C 38.84375 34.359375 39 34.910156 39 35.5 C 39 37.445313 37.445313 39 35.5 39 C 34.804688 39 34.164063 38.785156 33.625 38.4375 C 33.871094 37.835938 34 37.1875 34 36.5 C 34 35.335938 33.601563 34.257813 32.9375 33.375 C 33.246094 33.109375 33.53125 32.820313 33.78125 32.5 Z M 14.65625 33 C 14.972656 33.324219 15.335938 33.621094 15.71875 33.875 C 15.261719 34.65625 15 35.550781 15 36.5 C 15 37.1875 15.128906 37.835938 15.375 38.4375 C 14.835938 38.785156 14.195313 39 13.5 39 C 13.457031 39 13.417969 39 13.375 39 C 11.488281 38.933594 10 37.402344 10 35.5 C 10 34.910156 10.148438 34.359375 10.40625 33.875 C 10.761719 33.949219 11.121094 34 11.5 34 C 12.667969 34 13.757813 33.628906 14.65625 33 Z M 25.09375 34.09375 C 26.09375 34.667969 27.253906 35 28.5 35 C 29.46875 35 30.386719 34.796875 31.21875 34.4375 C 31.710938 35.027344 32 35.730469 32 36.5 C 32 37.003906 31.882813 37.496094 31.65625 37.9375 C 31.644531 37.964844 31.609375 37.976563 31.59375 38 C 31.570313 38.03125 31.550781 38.0625 31.53125 38.09375 C 31.496094 38.144531 31.464844 38.195313 31.4375 38.25 C 31.398438 38.308594 31.367188 38.371094 31.34375 38.4375 C 30.933594 38.980469 30.351563 39.414063 29.65625 39.6875 C 29.558594 39.703125 29.464844 39.734375 29.375 39.78125 C 28.949219 39.914063 28.484375 40 28 40 C 26.941406 40 26.015625 39.65625 25.3125 39.09375 C 25.25 39.011719 25.175781 38.9375 25.09375 38.875 C 25.074219 38.855469 25.050781 38.832031 25.03125 38.8125 C 25.019531 38.8125 25.011719 38.8125 25 38.8125 C 24.378906 38.1875 24 37.371094 24 36.5 C 24 35.574219 24.402344 34.730469 25.09375 34.09375 Z M 22.5 34.3125 C 22.179688 34.984375 22 35.71875 22 36.5 C 22 37.625 22.347656 38.667969 22.96875 39.53125 C 22.390625 39.816406 21.726563 40 21 40 C 18.726563 40 17 38.382813 17 36.5 C 17 35.851563 17.203125 35.25 17.5625 34.71875 C 18.175781 34.894531 18.832031 35 19.5 35 C 20.574219 35 21.597656 34.746094 22.5 34.3125 Z M 32.53125 40.09375 C 33.242188 40.558594 34.054688 40.875 34.9375 40.96875 C 34.964844 41.140625 35 41.316406 35 41.5 C 35 43.445313 33.445313 45 31.5 45 C 31.085938 45 30.679688 44.914063 30.3125 44.78125 C 30.753906 43.945313 31 43.007813 31 42 C 31 41.75 30.96875 41.519531 30.9375 41.28125 C 31.539063 40.96875 32.078125 40.574219 32.53125 40.09375 Z M 16.46875 40.125 C 17.152344 40.84375 18.039063 41.367188 19.03125 41.6875 C 19.027344 41.789063 19 41.898438 19 42 C 19 42.835938 19.15625 43.652344 19.46875 44.375 C 18.90625 44.769531 18.246094 45 17.5 45 C 15.554688 45 14 43.445313 14 41.5 C 14 41.316406 14.007813 41.144531 14.03125 40.96875 C 14.921875 40.882813 15.753906 40.585938 16.46875 40.125 Z M 24.5 40.9375 C 25.496094 41.597656 26.699219 42 28 42 C 28.34375 42 28.671875 41.957031 29 41.90625 C 29 41.9375 29 41.96875 29 42 C 29 42.964844 28.65625 43.84375 28.09375 44.53125 C 28.070313 44.5625 28.050781 44.59375 28.03125 44.625 C 27.300781 45.472656 26.214844 46 25 46 C 22.78125 46 21 44.21875 21 42 C 22.304688 42 23.503906 41.59375 24.5 40.9375 Z"/></svg>