<svg xmlns="http://www.w3.org/2000/svg"  viewBox="0 0 50 50" width="1000px" height="1000px"><path d="M 33 2 C 29.828125 2 26.894531 3 24.46875 4.6875 C 24.457031 4.6875 24.449219 4.6875 24.4375 4.6875 C 24.257813 4.734375 24.097656 4.832031 23.96875 4.96875 C 23.878906 5.058594 23.789063 5.148438 23.71875 5.25 C 22.773438 6 21.929688 6.863281 21.1875 7.8125 C 21.121094 7.847656 21.058594 7.890625 21 7.9375 C 20.761719 8.175781 20.578125 8.453125 20.46875 8.75 C 18.902344 11.117188 18 13.953125 18 17 C 18 19.03125 18.421875 20.980469 19.15625 22.75 C 19.128906 22.835938 17.71875 27.3125 15.25 29.78125 C 13.941406 31.089844 11.597656 32.394531 9.375 33.53125 C 7.152344 34.667969 5.105469 35.550781 3.9375 36.71875 C 1.367188 39.289063 1.363281 43.488281 3.9375 46.0625 C 6.507813 48.632813 10.710938 48.632813 13.28125 46.0625 C 14.453125 44.890625 15.335938 42.820313 16.46875 40.59375 C 17.601563 38.367188 18.871094 36.035156 20.1875 34.71875 C 22.640625 32.265625 27.164063 30.871094 27.25 30.84375 C 29.019531 31.578125 30.96875 32 33 32 C 36.046875 32 38.882813 31.097656 41.25 29.53125 C 41.546875 29.421875 41.824219 29.238281 42.0625 29 C 42.136719 28.925781 42.199219 28.84375 42.25 28.75 C 43.175781 28.019531 44.019531 27.203125 44.75 26.28125 C 44.851563 26.210938 44.941406 26.121094 45.03125 26.03125 C 45.148438 25.910156 45.234375 25.757813 45.28125 25.59375 C 45.28125 25.582031 45.28125 25.574219 45.28125 25.5625 C 46.984375 23.128906 48 20.1875 48 17 C 48 14.304688 47.28125 11.753906 46.03125 9.5625 C 46.625 8.863281 47 7.980469 47 7 C 47 4.800781 45.199219 3 43 3 C 42.019531 3 41.136719 3.375 40.4375 3.96875 C 38.246094 2.71875 35.703125 2 33 2 Z M 33 4 C 35.273438 4 37.394531 4.597656 39.25 5.625 C 39.09375 6.050781 39 6.519531 39 7 C 39 9.199219 40.800781 11 43 11 C 43.480469 11 43.949219 10.90625 44.375 10.75 C 45.394531 12.605469 46 14.730469 46 17 C 46 19.851563 45.078125 22.484375 43.53125 24.625 C 43.4375 24.6875 43.207031 24.769531 42.625 24.65625 C 41.957031 24.527344 41.019531 24.164063 39.9375 23.5625 C 37.769531 22.359375 35.058594 20.246094 32.40625 17.59375 C 29.753906 14.941406 27.640625 12.230469 26.4375 10.0625 C 25.835938 8.980469 25.472656 8.042969 25.34375 7.375 C 25.230469 6.792969 25.3125 6.5625 25.375 6.46875 C 27.515625 4.921875 30.148438 4 33 4 Z M 43 5 C 44.117188 5 45 5.882813 45 7 C 45 8.117188 44.117188 9 43 9 C 41.882813 9 41 8.117188 41 7 C 41 5.882813 41.882813 5 43 5 Z M 23.46875 8.15625 C 23.695313 9.039063 24.109375 9.992188 24.6875 11.03125 C 26.019531 13.433594 28.203125 16.265625 30.96875 19.03125 C 33.734375 21.796875 36.566406 23.980469 38.96875 25.3125 C 40.007813 25.890625 40.960938 26.304688 41.84375 26.53125 C 41.402344 26.941406 40.933594 27.3125 40.4375 27.65625 C 40.292969 27.691406 40.078125 27.707031 39.65625 27.625 C 38.988281 27.496094 38.050781 27.132813 36.96875 26.53125 C 34.800781 25.328125 32.058594 23.214844 29.40625 20.5625 C 26.753906 17.910156 24.671875 15.199219 23.46875 13.03125 C 22.867188 11.949219 22.503906 11.011719 22.375 10.34375 C 22.292969 9.921875 22.308594 9.707031 22.34375 9.5625 C 22.6875 9.066406 23.058594 8.597656 23.46875 8.15625 Z M 20.90625 12.3125 C 21.125 12.847656 21.394531 13.414063 21.71875 14 C 23.050781 16.402344 25.234375 19.234375 28 22 C 30.765625 24.765625 33.597656 26.949219 36 28.28125 C 36.585938 28.605469 37.152344 28.875 37.6875 29.09375 C 36.230469 29.65625 34.65625 30 33 30 C 25.808594 30 20 24.191406 20 17 C 20 15.34375 20.34375 13.769531 20.90625 12.3125 Z M 20.4375 25.15625 C 21.589844 26.925781 23.101563 28.445313 24.875 29.59375 C 23.171875 30.261719 20.644531 31.449219 18.78125 33.3125 C 17.117188 34.976563 15.835938 37.429688 14.6875 39.6875 C 13.539063 41.945313 12.449219 44.082031 11.875 44.65625 C 10.066406 46.464844 7.152344 46.464844 5.34375 44.65625 C 3.535156 42.847656 3.535156 39.933594 5.34375 38.125 C 5.921875 37.546875 8.054688 36.464844 10.3125 35.3125 C 12.570313 34.160156 14.996094 32.847656 16.65625 31.1875 C 18.507813 29.335938 19.75 26.847656 20.4375 25.15625 Z"/></svg>