<svg fill="#000000" xmlns="http://www.w3.org/2000/svg"  viewBox="0 0 50 50" width="1000px" height="1000px"><path d="M 19.46875 2 C 18.625 2 17.792969 2.332031 17.15625 2.96875 L 7.96875 12.15625 C 6.695313 13.429688 6.695313 15.539063 7.96875 16.8125 L 13.625 22.46875 C 11.800781 24.472656 11.007813 27.050781 11.125 29.59375 L 9.15625 31.5625 C 8.269531 32.449219 7.90625 33.648438 8.03125 34.8125 L 2.28125 40.5625 C 1.894531 40.960938 1.898438 41.597656 2.296875 41.984375 C 2.695313 42.371094 3.332031 42.367188 3.71875 41.96875 L 8.84375 36.84375 C 8.945313 36.972656 9.039063 37.101563 9.15625 37.21875 L 12.8125 40.875 C 12.917969 40.980469 13.042969 41.066406 13.15625 41.15625 L 8.03125 46.28125 C 7.632813 46.667969 7.628906 47.304688 8.015625 47.703125 C 8.402344 48.101563 9.039063 48.105469 9.4375 47.71875 L 15.1875 41.96875 C 16.304688 42.078125 17.472656 41.726563 18.34375 40.90625 L 18.4375 40.84375 L 20.40625 38.875 C 22.949219 38.992188 25.527344 38.199219 27.53125 36.375 L 33.1875 42.03125 C 34.460938 43.304688 36.570313 43.304688 37.84375 42.03125 L 47.03125 32.84375 C 48.304688 31.570313 48.304688 29.460938 47.03125 28.1875 L 21.8125 2.96875 C 21.175781 2.332031 20.3125 2 19.46875 2 Z M 19.46875 4 C 19.792969 4 20.121094 4.121094 20.375 4.375 L 21.4375 5.4375 L 10.4375 16.4375 L 9.375 15.375 C 8.867188 14.867188 8.867188 14.070313 9.375 13.5625 L 18.5625 4.375 C 18.816406 4.121094 19.144531 4 19.46875 4 Z M 22.875 6.875 L 43.125 27.125 L 41.5625 28.6875 L 21.3125 8.4375 Z M 19.875 9.875 L 40.125 30.125 L 38.5625 31.6875 L 18.3125 11.4375 Z M 16.875 12.875 L 37.125 33.125 L 35.5625 34.6875 L 15.3125 14.4375 Z M 13.875 15.875 L 34.125 36.125 L 32.125 38.125 L 11.875 17.875 Z M 15.09375 23.9375 L 26.0625 34.90625 C 24.339844 36.445313 22.15625 37.175781 20 36.9375 L 19.53125 36.90625 L 17.03125 39.40625 C 16.574219 39.863281 15.964844 40.039063 15.375 39.96875 C 15.367188 39.96875 15.351563 39.96875 15.34375 39.96875 C 15.226563 39.914063 15.097656 39.882813 14.96875 39.875 C 14.941406 39.867188 14.902344 39.886719 14.875 39.875 C 14.621094 39.777344 14.394531 39.613281 14.1875 39.40625 L 10.59375 35.8125 C 10.402344 35.621094 10.253906 35.417969 10.15625 35.1875 C 10.15625 35.175781 10.15625 35.167969 10.15625 35.15625 C 10.164063 34.972656 10.121094 34.785156 10.03125 34.625 C 10.019531 34.613281 10.011719 34.605469 10 34.59375 C 9.941406 34.015625 10.144531 33.417969 10.59375 32.96875 L 13.09375 30.46875 L 13.0625 30 C 12.824219 27.84375 13.554688 25.660156 15.09375 23.9375 Z M 44.5625 28.5625 L 45.625 29.625 C 46.132813 30.132813 46.132813 30.929688 45.625 31.4375 L 36.65625 40.375 L 36.4375 40.625 C 35.929688 41.132813 35.132813 41.132813 34.625 40.625 L 33.5625 39.5625 Z"/></svg>