<svg xmlns="http://www.w3.org/2000/svg"  viewBox="0 0 50 50" width="1000px" height="1000px"><path d="M 48.875 0 C 48.652344 0.0234375 48.441406 0.125 48.28125 0.28125 L 40.71875 7.84375 C 39.382813 6.507813 38.296875 5.421875 37.8125 4.9375 C 36.972656 4.097656 35.816406 3.71875 34.6875 3.71875 C 33.558594 3.71875 32.402344 4.097656 31.5625 4.9375 L 25.5 10.96875 C 25.121094 11.347656 24.964844 11.722656 24.78125 12.15625 C 24.597656 12.589844 24.433594 13.082031 24.25 13.5625 C 23.882813 14.519531 23.4375 15.46875 23.09375 15.8125 C 21.921875 16.984375 18.234375 20.671875 15.8125 23.09375 C 14.71875 24.1875 13.894531 24.5 13.1875 24.6875 C 12.835938 24.78125 12.511719 24.824219 12.15625 24.90625 C 11.800781 24.988281 11.347656 25.121094 10.96875 25.5 L 4.9375 31.5625 C 4.097656 32.402344 3.71875 33.558594 3.71875 34.6875 C 3.71875 35.816406 4.097656 36.972656 4.9375 37.8125 L 7.84375 40.71875 L 0.28125 48.28125 C -0.117188 48.679688 -0.117188 49.320313 0.28125 49.71875 C 0.679688 50.117188 1.320313 50.117188 1.71875 49.71875 L 9.28125 42.15625 L 12.1875 45.0625 C 13.027344 45.902344 14.183594 46.28125 15.3125 46.28125 C 16.441406 46.28125 17.597656 45.902344 18.4375 45.0625 L 24.5 39.03125 C 24.882813 38.652344 25.011719 38.199219 25.09375 37.84375 C 25.175781 37.488281 25.21875 37.164063 25.3125 36.8125 C 25.5 36.105469 25.8125 35.28125 26.90625 34.1875 C 29.328125 31.765625 31.84375 29.25 34.1875 26.90625 C 35.238281 25.855469 36.058594 25.542969 36.78125 25.34375 C 37.144531 25.246094 37.484375 25.183594 37.84375 25.09375 C 38.203125 25.003906 38.652344 24.878906 39.03125 24.5 L 45.0625 18.4375 C 45.902344 17.597656 46.28125 16.441406 46.28125 15.3125 C 46.28125 14.183594 45.902344 13.027344 45.0625 12.1875 C 45.0625 12.1875 43.398438 10.523438 42.15625 9.28125 L 49.71875 1.71875 C 50.042969 1.417969 50.128906 0.941406 49.933594 0.546875 C 49.742188 0.148438 49.308594 -0.0703125 48.875 0 Z M 34.6875 5.71875 C 35.371094 5.71875 36.035156 5.972656 36.40625 6.34375 C 37.617188 7.554688 43.65625 13.59375 43.65625 13.59375 C 44.027344 13.964844 44.28125 14.625 44.28125 15.3125 C 44.28125 16 44.027344 16.660156 43.65625 17.03125 L 42.125 18.5625 L 31.4375 7.875 L 32.96875 6.34375 C 33.339844 5.972656 34.003906 5.71875 34.6875 5.71875 Z M 30.03125 9.28125 L 40.71875 19.96875 L 37.59375 23.09375 C 37.640625 23.046875 37.617188 23.09375 37.375 23.15625 C 37.132813 23.21875 36.722656 23.277344 36.25 23.40625 C 35.507813 23.609375 34.5625 23.996094 33.5625 24.78125 C 33.515625 24.722656 33.464844 24.671875 33.40625 24.625 L 25.1875 16.375 C 25.597656 15.707031 25.863281 14.964844 26.125 14.28125 C 26.316406 13.78125 26.472656 13.292969 26.625 12.9375 C 26.777344 12.582031 26.953125 12.359375 26.90625 12.40625 Z M 23.875 17.875 L 32 26.03125 C 32.027344 26.074219 32.058594 26.117188 32.09375 26.15625 C 30.757813 27.492188 29.378906 28.871094 28 30.25 C 27.960938 30.214844 27.917969 30.183594 27.875 30.15625 L 19.75 22 C 21.359375 20.390625 22.980469 18.769531 23.875 17.875 Z M 18.3125 23.4375 L 26.46875 31.5625 C 26.496094 31.605469 26.527344 31.648438 26.5625 31.6875 C 26.207031 32.042969 25.855469 32.394531 25.5 32.75 C 24.171875 34.078125 23.625 35.339844 23.375 36.28125 C 23.25 36.753906 23.179688 37.140625 23.125 37.375 C 23.097656 37.492188 23.070313 37.5625 23.0625 37.59375 L 21.8125 38.84375 L 11.15625 28.1875 L 12.40625 26.9375 C 12.4375 26.929688 12.507813 26.902344 12.625 26.875 C 12.863281 26.820313 13.246094 26.75 13.71875 26.625 C 14.660156 26.375 15.921875 25.828125 17.25 24.5 C 17.605469 24.144531 17.917969 23.832031 18.3125 23.4375 Z M 9.71875 29.59375 L 20.40625 40.28125 L 17.03125 43.65625 C 16.660156 44.027344 15.996094 44.28125 15.3125 44.28125 C 14.628906 44.28125 13.964844 44.027344 13.59375 43.65625 L 6.34375 36.40625 C 5.972656 36.035156 5.71875 35.371094 5.71875 34.6875 C 5.71875 34.003906 5.972656 33.339844 6.34375 32.96875 Z"/></svg>