<svg xmlns="http://www.w3.org/2000/svg"  viewBox="0 0 50 50" width="1000px" height="1000px"><path d="M 22 1 C 20.906937 1 20 1.9069372 20 3 L 20 12 C 20 14.363474 19.064453 15.121875 17.814453 16.296875 C 16.564453 17.471875 15 19.064255 15 22.050781 L 15 45.859375 C 15 47.609996 16.493871 49 18.25 49 L 31.75 49 C 33.506129 49 35 47.609996 35 45.859375 L 35 22.050781 C 35 19.064255 33.435547 17.471875 32.185547 16.296875 C 30.935547 15.121875 30 14.363474 30 12 L 30 3 C 30 1.9069372 29.093063 1 28 1 L 22 1 z M 22 3 L 28 3 L 28 7 L 22 7 L 22 3 z M 22 9 L 28 9 L 28 12 C 28 13.227365 28.301053 14.17582 28.699219 15 L 21.300781 15 C 21.698947 14.17582 22 13.227365 22 12 L 22 9 z M 20 16.798828 L 20 17 L 30 17 L 30 16.798828 C 30.282054 17.103527 30.542863 17.498612 30.814453 17.753906 C 32.064453 18.928906 33 19.687308 33 22.050781 L 33 33 L 33 45.859375 C 33 46.468754 32.473871 47 31.75 47 L 18.25 47 C 17.526129 47 17 46.468754 17 45.859375 L 17 33 L 17 22.050781 C 17 19.687308 17.935547 18.928906 19.185547 17.753906 C 19.457137 17.498612 19.717946 17.103527 20 16.798828 z M 17 33 C 17 37.891162 20.516359 42 25 42 C 29.483641 42 33 37.891162 33 33 C 33 28.108838 29.483641 24 25 24 C 20.516359 24 17 28.108838 17 33 z M 25 26 C 28.24835 26 31 29.054606 31 33 C 31 36.945394 28.24835 40 25 40 C 21.75165 40 19 36.945394 19 33 C 19 29.054606 21.75165 26 25 26 z"/></svg>