<svg xmlns="http://www.w3.org/2000/svg"  viewBox="0 0 50 50" width="1000px" height="1000px"><path d="M 32.771484 4.1757812 C 32.042733 4.205207 31.337537 4.33389 30.667969 4.5703125 C 28.882454 5.2007724 27.427758 6.6508047 26.6875 8.7753906 C 25.947233 10.900002 26.184383 12.939509 27.191406 14.542969 C 28.198429 16.146429 29.891582 17.30473 31.9375 18.017578 C 33.691738 18.628674 36.499406 19.059565 39.197266 18.873047 C 40.546196 18.779787 41.863117 18.532477 43.003906 18.001953 C 44.144695 17.471429 45.139864 16.604376 45.574219 15.357422 C 46.008547 14.110543 45.767038 12.812222 45.203125 11.6875 C 44.639212 10.562778 43.762324 9.55025 42.763672 8.6386719 C 40.766369 6.8155156 38.299514 5.4080943 36.544922 4.796875 C 35.521718 4.440189 34.49829 4.2263044 33.507812 4.1796875 C 33.260193 4.1680332 33.014402 4.1659727 32.771484 4.1757812 z M 33.423828 6.1816406 C 34.191601 6.2182736 35.020923 6.3837329 35.886719 6.6855469 C 37.261127 7.1643275 39.660069 8.512391 41.416016 10.115234 C 42.293989 10.916656 43.014772 11.783706 43.416016 12.583984 C 43.606837 12.964576 43.494836 13.256705 43.544922 13.589844 L 29.089844 8.5507812 C 29.662262 7.5288359 30.380451 6.7917679 31.333984 6.4550781 C 31.950727 6.2373081 32.656055 6.1450075 33.423828 6.1816406 z M 12.267578 7.1328125 C 11.643931 7.1782805 11.030353 7.3477482 10.460938 7.6816406 C 9.3221409 8.3494042 8.6627624 9.4929999 8.3632812 10.714844 C 8.0638002 11.936687 8.0764723 13.277734 8.2460938 14.619141 C 8.5853367 17.301954 9.5524718 19.971208 10.492188 21.574219 C 11.587962 23.442939 13.050308 24.879316 14.818359 25.556641 C 16.586411 26.233965 18.635009 26.07347 20.576172 24.935547 C 22.517309 23.797639 23.657035 22.090464 23.929688 20.216797 C 24.202334 18.34313 23.664121 16.363381 22.568359 14.494141 C 21.62855 12.890969 19.771377 10.742997 17.595703 9.1367188 C 16.507866 8.3335793 15.34342 7.6693237 14.130859 7.3339844 C 13.524579 7.1663147 12.891225 7.0873448 12.267578 7.1328125 z M 13.314453 9.2226562 C 13.402251 9.2226055 13.494963 9.2333182 13.597656 9.2617188 C 14.460408 9.5003169 15.45179 10.039983 16.408203 10.746094 C 18.32103 12.158315 20.10756 14.250031 20.84375 15.505859 C 21.770988 17.087619 22.13952 18.633401 21.951172 19.927734 C 21.805484 20.928905 21.222957 21.777222 20.330078 22.537109 L 12.585938 9.3320312 C 12.838469 9.3203582 13.051059 9.2228084 13.314453 9.2226562 z M 10.861328 10.34375 L 18.603516 23.548828 C 17.504012 23.95699 16.48016 24.051475 15.535156 23.689453 C 14.313708 23.221528 13.144023 22.14378 12.216797 20.5625 C 11.480512 19.306511 10.528726 16.725874 10.230469 14.367188 C 10.08134 13.187843 10.093561 12.06075 10.306641 11.191406 C 10.407953 10.778066 10.683686 10.629752 10.861328 10.34375 z M 28.429688 10.439453 L 42.886719 15.478516 C 42.640366 15.708757 42.546736 16.007721 42.160156 16.1875 C 41.348601 16.564914 40.244539 16.796915 39.058594 16.878906 C 36.686704 17.042888 33.970465 16.60781 32.595703 16.128906 C 30.864621 15.525754 29.582446 14.588259 28.886719 13.480469 C 28.348161 12.622935 28.241731 11.597938 28.429688 10.439453 z M 32.496094 22.943359 C 31.870848 22.934059 31.243993 23.049506 30.648438 23.251953 C 29.457327 23.656847 28.332396 24.387272 27.292969 25.251953 C 25.214115 26.981316 23.484197 29.234066 22.638672 30.888672 C 22.291994 31.567794 22.022785 32.254515 21.826172 32.941406 C 20.492863 31.650004 18.236405 30.112078 15.800781 29.136719 C 14.545496 28.634033 13.250168 28.284049 11.992188 28.265625 C 10.734206 28.247205 9.4627406 28.595523 8.5292969 29.529297 C 7.5958948 30.463029 7.2470561 31.734215 7.265625 32.992188 C 7.284194 34.25016 7.634039 35.545579 8.1367188 36.800781 C 9.1420779 39.311186 10.750707 41.651097 12.064453 42.964844 C 13.596346 44.496737 15.375965 45.515548 17.257812 45.724609 C 19.139661 45.933671 21.081057 45.262693 22.671875 43.671875 C 23.559171 42.784893 24.15023 41.787768 24.472656 40.753906 C 24.713863 40.911049 24.964166 41.060104 25.232422 41.197266 C 27.236012 42.220998 29.289552 42.26269 31.015625 41.484375 C 32.741698 40.70606 34.119627 39.187245 35.105469 37.257812 C 35.950472 35.603693 36.761855 32.883523 36.945312 30.185547 C 37.037042 28.836559 36.969332 27.497457 36.599609 26.294922 C 36.229884 25.092386 35.507747 23.987449 34.332031 23.386719 C 33.744198 23.086366 33.12134 22.952681 32.496094 22.943359 z M 32.417969 24.935547 L 25.291016 38.884766 C 25.07904 38.728076 24.903847 38.559427 24.734375 38.388672 C 24.730478 38.345059 24.731405 38.301367 24.726562 38.257812 C 24.598488 37.105773 24.163468 35.993178 23.496094 34.951172 C 23.555745 33.977112 23.85638 32.903317 24.419922 31.798828 L 24.419922 31.796875 C 25.082767 30.500344 26.745125 28.310982 28.572266 26.791016 C 29.486089 26.030822 30.443564 25.434559 31.291016 25.146484 C 31.703499 25.006269 32.074597 24.936757 32.417969 24.935547 z M 34.199219 25.845703 C 34.399723 26.124767 34.561468 26.46654 34.689453 26.882812 C 34.952509 27.738402 35.029865 28.862816 34.949219 30.048828 C 34.787926 32.420852 33.986215 35.051777 33.324219 36.347656 C 32.49006 37.980224 31.385786 39.124424 30.193359 39.662109 C 29.24619 40.089204 28.228808 40.176586 27.070312 39.798828 L 34.199219 25.845703 z M 11.962891 30.265625 C 12.857879 30.278735 13.953051 30.550249 15.056641 30.992188 C 17.263821 31.876064 19.519681 33.448929 20.548828 34.478516 L 20.550781 34.478516 C 21.84693 35.774664 22.593745 37.178408 22.738281 38.478516 C 22.850137 39.484667 22.499149 40.451135 21.826172 41.412109 L 11.001953 30.587891 C 11.323677 30.487971 11.537064 30.259389 11.962891 30.265625 z M 9.5878906 32.001953 L 20.412109 42.826172 C 19.451331 43.498564 18.484445 43.850034 17.478516 43.738281 C 16.178364 43.593843 14.774623 42.846888 13.478516 41.550781 C 12.449262 40.521528 10.878031 38.263736 9.9941406 36.056641 C 9.5521953 34.953093 9.2788374 33.857981 9.265625 32.962891 C 9.259335 32.537016 9.4880128 32.323771 9.5878906 32.001953 z"/></svg>