<svg xmlns="http://www.w3.org/2000/svg"  viewBox="0 0 46 46" width="1000px" height="1000px"><path d="M 41.140625 -0.001953125 A 4.793 4.793 0 0 0 37.033203 2.4394531 L 32.564453 9.1503906 L 30.707031 7.2929688 A 1 1 0 0 0 29.292969 7.2929688 L 7.2929688 29.292969 A 1 1 0 0 0 7.2929688 30.707031 L 9.1816406 32.595703 L 2.0585938 37.769531 A 4.458 4.458 0 0 0 1.3085938 44.681641 L 1.3203125 44.693359 A 4.468 4.468 0 0 0 8.2441406 43.933594 L 13.40625 36.820312 L 15.292969 38.707031 A 1 1 0 0 0 16 39 A 1 1 0 0 0 16.707031 38.707031 L 38.707031 16.707031 A 1 1 0 0 0 38.707031 15.292969 L 36.847656 13.433594 L 43.5 8.9902344 A 4.784 4.784 0 0 0 44.599609 1.4003906 A 4.793 4.793 0 0 0 41.140625 -0.001953125 z M 41.322266 1.9941406 A 2.791 2.791 0 0 1 42.550781 7.234375 L 42.470703 7.2773438 L 42.396484 7.3261719 L 35.410156 11.996094 L 34.007812 10.59375 L 38.699219 3.5507812 L 38.740234 3.4882812 L 38.777344 3.4238281 A 2.791 2.791 0 0 1 41.322266 1.9941406 z M 30 9.4140625 L 36.585938 16 L 16 36.585938 L 9.4140625 30 L 30 9.4140625 z M 10.615234 34.029297 L 11.974609 35.388672 L 6.6269531 42.759766 L 6.5898438 42.808594 L 6.5585938 42.859375 A 2.471 2.471 0 1 1 3.1367188 39.458984 L 3.1855469 39.427734 L 3.234375 39.392578 L 10.615234 34.029297 z"/></svg>