<svg xmlns="http://www.w3.org/2000/svg"  viewBox="0 0 50 50" width="1000px" height="1000px"><path d="M 16.8125 0 C 16.726563 0.0195313 16.640625 0.0507813 16.5625 0.09375 L 0.5625 8.0625 C 0.144531 8.269531 -0.0742188 8.734375 0.03125 9.1875 L 2.78125 20.09375 C 2.902344 20.585938 3.375 20.90625 3.875 20.84375 L 9.875 20.09375 C 9.597656 21.894531 8.273438 30.933594 10 41.15625 C 10.0625 41.554688 10.359375 41.875 10.75 41.96875 C 14.871094 43.035156 16.589844 44.835938 17.375 46.3125 C 18.160156 47.789063 18 48.875 18 48.875 C 17.964844 49.160156 18.054688 49.449219 18.246094 49.664063 C 18.4375 49.878906 18.710938 50.003906 19 50 L 31 50 C 31.289063 50.003906 31.5625 49.878906 31.753906 49.664063 C 31.945313 49.449219 32.035156 49.160156 32 48.875 C 32 48.875 31.839844 47.789063 32.625 46.3125 C 33.410156 44.835938 35.128906 43.035156 39.25 41.96875 C 39.640625 41.875 39.9375 41.554688 40 41.15625 C 41.558594 32.257813 40.378906 20.820313 40.125 18.46875 L 45.875 20.78125 C 46.144531 20.890625 46.445313 20.875 46.703125 20.742188 C 46.960938 20.613281 47.148438 20.375 47.21875 20.09375 L 49.96875 9.1875 C 50.074219 8.734375 49.855469 8.269531 49.4375 8.0625 L 33.4375 0.09375 C 33.183594 -0.0273438 32.886719 -0.0390625 32.625 0.0703125 C 32.363281 0.175781 32.160156 0.390625 32.0625 0.65625 C 31.515625 2.105469 30.203125 2.898438 28.71875 3.375 C 27.234375 3.851563 25.664063 3.9375 25 3.9375 C 24.335938 3.9375 22.765625 3.851563 21.28125 3.375 C 19.796875 2.898438 18.484375 2.105469 17.9375 0.65625 C 17.78125 0.226563 17.359375 -0.0429688 16.90625 0 C 16.875 0 16.84375 0 16.8125 0 Z M 16.75 2.25 C 17.730469 3.773438 19.167969 4.800781 20.65625 5.28125 C 22.460938 5.863281 24.203125 5.9375 25 5.9375 C 25.796875 5.9375 27.539063 5.863281 29.34375 5.28125 C 30.832031 4.800781 32.269531 3.773438 33.25 2.25 L 47.84375 9.46875 L 45.5625 18.5 L 39.375 16.03125 C 39.050781 15.898438 38.675781 15.945313 38.394531 16.15625 C 38.113281 16.367188 37.960938 16.710938 38 17.0625 C 38 17.0625 39.550781 30.992188 38.0625 40.28125 C 34.027344 41.492188 31.863281 43.515625 30.875 45.375 C 30.335938 46.386719 30.109375 47.304688 30.03125 48 L 19.96875 48 C 19.890625 47.304688 19.664063 46.386719 19.125 45.375 C 18.136719 43.515625 15.972656 41.492188 11.9375 40.28125 C 10.253906 29.609375 12 19.125 12 19.125 C 12.054688 18.8125 11.953125 18.488281 11.730469 18.261719 C 11.507813 18.035156 11.191406 17.925781 10.875 17.96875 L 4.5 18.75 L 2.15625 9.46875 Z M 25 12 C 23.597656 12 22.722656 13.050781 22.21875 13.875 C 21.9375 14.335938 21.933594 14.472656 21.8125 14.78125 C 21.347656 14.792969 20.746094 14.832031 20.0625 15.09375 C 19.28125 15.394531 18.429688 16.0625 18.125 17.15625 C 17.738281 18.542969 18.375 19.765625 19 20.5 C 19.351563 20.914063 19.488281 20.960938 19.75 21.15625 C 19.664063 21.46875 19.601563 21.601563 19.5625 22.15625 C 19.496094 23.109375 19.628906 24.4375 20.6875 25.34375 C 21.222656 25.800781 21.882813 26 22.46875 26 C 23.699219 26 24.53125 25.492188 25.0625 25.09375 C 25.621094 25.441406 26.464844 25.875 27.65625 25.875 C 28.167969 25.875 28.71875 25.769531 29.21875 25.4375 C 29.804688 25.046875 30.15625 24.433594 30.3125 23.875 C 30.46875 23.316406 30.46875 22.769531 30.4375 22.28125 C 30.398438 21.648438 30.332031 21.445313 30.25 21.125 C 30.496094 20.917969 30.640625 20.851563 31 20.40625 C 31.597656 19.664063 32.261719 18.492188 31.90625 17.15625 C 31.578125 15.929688 30.488281 15.332031 29.625 15.0625 C 29.011719 14.871094 28.644531 14.894531 28.25 14.875 C 28.136719 14.566406 28.09375 14.382813 27.78125 13.875 C 27.277344 13.050781 26.402344 12 25 12 Z M 25 14 C 25.332031 14 25.746094 14.339844 26.09375 14.90625 C 26.441406 15.472656 26.625 16.0625 26.625 16.0625 L 26.84375 16.8125 L 27.59375 16.78125 L 27.6875 16.78125 C 27.890625 16.78125 28.496094 16.804688 29.03125 16.96875 C 29.566406 17.132813 29.878906 17.351563 29.96875 17.6875 C 30.082031 18.109375 29.84375 18.652344 29.4375 19.15625 C 29.03125 19.660156 28.5625 19.96875 28.5625 19.96875 L 27.96875 20.40625 L 28.21875 21.09375 C 28.21875 21.09375 28.394531 21.71875 28.4375 22.40625 C 28.460938 22.75 28.441406 23.101563 28.375 23.34375 C 28.308594 23.585938 28.234375 23.675781 28.125 23.75 C 28.003906 23.828125 27.867188 23.875 27.65625 23.875 C 26.910156 23.875 25.59375 23.09375 25.59375 23.09375 L 24.96875 22.625 L 24.34375 23.125 C 24.34375 23.125 23.121094 24 22.46875 24 C 22.261719 24 22.15625 23.976563 22 23.84375 C 21.632813 23.527344 21.515625 22.953125 21.5625 22.3125 C 21.609375 21.671875 21.8125 21.125 21.8125 21.125 L 22.0625 20.375 L 21.375 19.9375 C 21.375 19.9375 20.929688 19.652344 20.53125 19.1875 C 20.132813 18.722656 19.878906 18.234375 20.03125 17.6875 C 20.144531 17.285156 20.371094 17.125 20.78125 16.96875 C 21.191406 16.8125 21.742188 16.75 22.0625 16.75 C 22.25 16.75 22.34375 16.78125 22.34375 16.78125 L 23.15625 16.875 L 23.40625 16.0625 C 23.40625 16.0625 23.589844 15.472656 23.9375 14.90625 C 24.285156 14.339844 24.671875 14 25 14 Z M 25 17.09375 C 24.285156 17.09375 24.875 19.03125 24.875 19.03125 C 24.875 19.03125 23.316406 17.867188 23.0625 18.5625 C 22.808594 19.261719 24.8125 19.25 24.8125 19.25 C 24.8125 19.25 23.296875 20.421875 23.8125 20.875 C 24.328125 21.328125 25 19.40625 25 19.40625 C 25 19.40625 25.621094 21.34375 26.1875 20.875 C 26.753906 20.40625 25.1875 19.25 25.1875 19.25 C 25.1875 19.25 27.203125 19.257813 26.9375 18.5625 C 26.671875 17.867188 25.125 19.03125 25.125 19.03125 C 25.125 19.03125 25.714844 17.09375 25 17.09375 Z"/></svg>