<svg xmlns="http://www.w3.org/2000/svg"  viewBox="0 0 50 50" width="1000px" height="1000px"><path d="M 38.09375 0 C 37.636719 0 37.183594 0.0195313 36.71875 0.0625 C 33.015625 0.421875 29.203125 2.203125 26.15625 5.25 C 24.242188 7.164063 22.257813 10.171875 20.59375 12.78125 C 20.410156 12.351563 19.957031 12.105469 19.5 12.1875 C 19.289063 12.21875 19.089844 12.316406 18.9375 12.46875 C 18.21875 13.1875 17.917969 14.214844 17.9375 15.25 C 17.949219 15.765625 18.019531 16.292969 18.15625 16.84375 C 18.164063 17.019531 18.21875 17.195313 18.3125 17.34375 C 18.433594 17.738281 18.574219 18.148438 18.75 18.5625 C 19.550781 20.453125 20.914063 22.492188 22.6875 24.5 C 22.738281 24.582031 22.800781 24.65625 22.875 24.71875 C 23.25 25.132813 23.621094 25.558594 24.03125 25.96875 C 24.601563 26.539063 25.199219 27.0625 25.78125 27.5625 C 25.902344 27.785156 26.105469 27.953125 26.34375 28.03125 C 28.082031 29.453125 29.808594 30.5625 31.4375 31.25 C 32.613281 31.746094 33.714844 32.042969 34.75 32.0625 C 35.785156 32.082031 36.8125 31.78125 37.53125 31.0625 C 37.753906 30.835938 37.855469 30.515625 37.804688 30.203125 C 37.757813 29.890625 37.5625 29.617188 37.28125 29.46875 C 37.414063 29.441406 37.542969 29.390625 37.65625 29.3125 C 38.496094 28.738281 39.460938 28.628906 40.5625 28.9375 C 41.664063 29.246094 42.882813 30.03125 44 31.15625 C 46.230469 33.410156 48 37.058594 48 41 C 47.996094 41.359375 48.183594 41.695313 48.496094 41.878906 C 48.808594 42.058594 49.191406 42.058594 49.503906 41.878906 C 49.816406 41.695313 50.003906 41.359375 50 41 C 50 36.46875 48.019531 32.386719 45.40625 29.75 C 44.097656 28.429688 42.632813 27.464844 41.09375 27.03125 C 41.011719 27.007813 40.925781 26.988281 40.84375 26.96875 C 42.289063 25.964844 43.683594 24.910156 44.75 23.84375 C 50.84375 17.75 51.835938 8.585938 46.625 3.375 C 44.347656 1.097656 41.300781 0 38.09375 0 Z M 38.03125 2 C 40.785156 1.984375 43.347656 2.910156 45.21875 4.78125 C 49.496094 9.058594 48.808594 16.972656 43.34375 22.4375 C 40.867188 24.914063 35.914063 27.730469 32.96875 29.6875 C 32.730469 29.605469 32.472656 29.511719 32.21875 29.40625 C 31.832031 29.242188 31.414063 29.066406 31 28.84375 C 32.832031 27.546875 34.957031 26.066406 37 24.625 C 39.390625 22.9375 41.4375 21.46875 42.40625 20.5 C 46.582031 16.324219 47.292969 9.980469 43.65625 6.34375 C 41.835938 4.523438 39.34375 3.785156 36.78125 4.03125 C 34.21875 4.277344 31.589844 5.507813 29.5 7.59375 C 28.59375 8.5 27.070313 10.398438 25.375 12.6875 C 23.910156 14.660156 22.367188 16.859375 21.09375 18.875 C 20.898438 18.503906 20.742188 18.128906 20.59375 17.78125 C 20.472656 17.492188 20.367188 17.207031 20.28125 16.9375 C 22.148438 14.085938 25.179688 9.039063 27.5625 6.65625 C 30.636719 3.582031 34.492188 2.019531 38.03125 2 Z M 37.65625 6 C 39.421875 5.988281 41.066406 6.566406 42.25 7.75 C 44.957031 10.457031 44.546875 15.546875 41 19.09375 C 40.359375 19.734375 38.21875 21.324219 35.84375 23 C 33.59375 24.589844 31.136719 26.296875 29.1875 27.6875 C 28.894531 27.488281 28.609375 27.253906 28.3125 27.03125 C 30.757813 25.046875 36.472656 20.191406 38.3125 18.40625 C 39.761719 17.003906 40.671875 15.582031 41 14.15625 C 41.328125 12.730469 40.972656 11.253906 39.96875 10.25 C 39.957031 10.25 39.949219 10.25 39.9375 10.25 C 38.90625 9.21875 37.441406 8.84375 35.9375 9.125 C 34.433594 9.40625 32.890625 10.351563 31.75 11.9375 C 31.203125 12.699219 29.148438 15.269531 27.15625 17.71875 C 26.160156 18.945313 25.164063 20.132813 24.375 21.125 C 24.007813 21.585938 23.699219 21.96875 23.4375 22.3125 C 23.019531 21.789063 22.632813 21.261719 22.28125 20.75 C 23.589844 18.621094 25.371094 16.074219 27 13.875 C 28.667969 11.625 30.222656 9.683594 30.90625 9 C 32.902344 7.003906 35.382813 6.011719 37.65625 6 Z M 36.90625 11.03125 C 37.566406 11.054688 38.148438 11.304688 38.53125 11.6875 C 39.070313 12.226563 39.234375 12.792969 39.03125 13.6875 C 38.828125 14.582031 38.164063 15.75 36.90625 16.96875 C 35.15625 18.667969 28.4375 24.316406 26.6875 25.71875 C 26.273438 25.351563 25.847656 24.972656 25.4375 24.5625 C 25.214844 24.339844 24.992188 24.101563 24.78125 23.875 C 25.046875 23.515625 25.351563 23.109375 25.9375 22.375 C 26.71875 21.394531 27.691406 20.191406 28.6875 18.96875 C 30.679688 16.519531 32.683594 14.058594 33.375 13.09375 C 34.464844 11.574219 35.804688 10.996094 36.90625 11.03125 Z M 16.71875 14.96875 C 16.492188 15 16.28125 15.113281 16.125 15.28125 C 15.40625 16 15.136719 16.996094 15.15625 18.03125 C 15.175781 19.066406 15.472656 20.199219 15.96875 21.375 C 16.960938 23.722656 18.769531 26.332031 21.21875 28.78125 C 23.667969 31.230469 26.277344 33.039063 28.625 34.03125 C 29.800781 34.527344 30.933594 34.824219 31.96875 34.84375 C 33.003906 34.863281 34 34.59375 34.71875 33.875 C 35.015625 33.632813 35.152344 33.246094 35.066406 32.871094 C 34.980469 32.5 34.6875 32.207031 34.316406 32.121094 C 33.941406 32.035156 33.554688 32.171875 33.3125 32.46875 C 33.066406 32.714844 32.671875 32.859375 32 32.84375 C 31.328125 32.828125 30.417969 32.613281 29.40625 32.1875 C 27.382813 31.332031 24.921875 29.671875 22.625 27.375 C 20.328125 25.078125 18.667969 22.617188 17.8125 20.59375 C 17.386719 19.582031 17.171875 18.671875 17.15625 18 C 17.140625 17.328125 17.285156 16.933594 17.53125 16.6875 C 17.828125 16.402344 17.917969 15.960938 17.757813 15.582031 C 17.601563 15.203125 17.222656 14.960938 16.8125 14.96875 C 16.78125 14.96875 16.75 14.96875 16.71875 14.96875 Z M 13.8125 17.875 C 13.585938 17.90625 13.375 18.019531 13.21875 18.1875 C 12.5 18.90625 12.230469 19.902344 12.25 20.9375 C 12.25 20.957031 12.25 20.980469 12.25 21 C 10.242188 22.246094 7.21875 24.1875 5.25 26.15625 C -0.84375 32.25 -1.835938 41.414063 3.375 46.625 C 8.585938 51.835938 17.75 50.84375 23.84375 44.75 C 25.765625 42.828125 27.535156 39.703125 28.75 37.71875 C 28.855469 37.726563 28.957031 37.746094 29.0625 37.75 C 30.097656 37.769531 31.09375 37.5 31.8125 36.78125 C 32.210938 36.394531 32.214844 35.757813 31.828125 35.359375 C 31.441406 34.960938 30.804688 34.957031 30.40625 35.34375 C 30.160156 35.589844 29.765625 35.765625 29.09375 35.75 C 28.421875 35.734375 27.542969 35.519531 26.53125 35.09375 C 24.507813 34.238281 22.046875 32.546875 19.75 30.25 C 17.453125 27.953125 15.761719 25.492188 14.90625 23.46875 C 14.480469 22.457031 14.265625 21.578125 14.25 20.90625 C 14.234375 20.234375 14.410156 19.839844 14.65625 19.59375 C 14.980469 19.292969 15.066406 18.816406 14.871094 18.421875 C 14.679688 18.023438 14.246094 17.804688 13.8125 17.875 Z M 12.625 23.09375 C 12.742188 23.46875 12.898438 23.859375 13.0625 24.25 C 13.175781 24.515625 13.304688 24.792969 13.4375 25.0625 C 12.472656 25.753906 11.363281 26.519531 10.34375 27.28125 C 9.15625 28.167969 8.15625 28.9375 7.59375 29.5 C 3.417969 33.675781 2.707031 40.019531 6.34375 43.65625 C 9.980469 47.292969 16.324219 46.582031 20.5 42.40625 C 21.066406 41.839844 21.8125 40.839844 22.6875 39.65625 C 23.449219 38.628906 24.238281 37.527344 24.9375 36.5625 C 25.207031 36.695313 25.484375 36.824219 25.75 36.9375 C 26.042969 37.0625 26.339844 37.183594 26.625 37.28125 C 25.386719 39.3125 23.859375 41.921875 22.4375 43.34375 C 16.972656 48.808594 9.058594 49.496094 4.78125 45.21875 C 0.503906 40.941406 1.191406 33.027344 6.65625 27.5625 C 8.183594 26.03125 10.695313 24.320313 12.625 23.09375 Z M 14.40625 26.78125 C 14.730469 27.300781 15.078125 27.820313 15.46875 28.34375 C 14.242188 29.386719 12.375 30.925781 11.6875 31.59375 C 10.238281 32.996094 9.328125 34.417969 9 35.84375 C 8.671875 37.269531 9.027344 38.746094 10.03125 39.75 C 10.042969 39.75 10.050781 39.75 10.0625 39.75 C 12.125 41.8125 15.972656 41.234375 18.25 38.0625 C 18.378906 37.882813 19.054688 37.0625 19.78125 36.21875 C 20.34375 35.5625 20.875 34.90625 21.375 34.3125 C 21.984375 34.777344 22.585938 35.183594 23.1875 35.5625 C 22.515625 36.496094 21.796875 37.515625 21.09375 38.46875 C 20.230469 39.636719 19.402344 40.691406 19.09375 41 C 15.542969 44.546875 10.457031 44.957031 7.75 42.25 C 5.042969 39.542969 5.453125 34.453125 9 30.90625 C 9.320313 30.585938 10.394531 29.75 11.5625 28.875 C 12.503906 28.171875 13.492188 27.449219 14.40625 26.78125 Z M 16.75 29.90625 C 17.25 30.488281 17.773438 31.085938 18.34375 31.65625 C 18.832031 32.144531 19.34375 32.59375 19.84375 33.03125 C 19.351563 33.609375 18.816406 34.246094 18.25 34.90625 C 17.519531 35.757813 16.925781 36.488281 16.625 36.90625 C 14.878906 39.339844 12.492188 39.335938 11.46875 38.3125 C 10.929688 37.773438 10.765625 37.175781 10.96875 36.28125 C 11.171875 35.386719 11.835938 34.25 13.09375 33.03125 C 13.554688 32.585938 15.480469 30.988281 16.75 29.90625 Z"/></svg>