<svg xmlns="http://www.w3.org/2000/svg"  viewBox="0 0 50 50" width="1000px" height="1000px"><path d="M 31.125 2.03125 C 29.210938 2.148438 27.480469 2.832031 26.15625 4.15625 C 25.183594 5.128906 24.589844 6.335938 24.28125 7.65625 C 23.941406 7.84375 23.597656 8.027344 23.3125 8.3125 C 22.105469 9.519531 21.777344 11.296875 22.125 13.03125 C 22.140625 13.105469 22.171875 13.175781 22.1875 13.25 L 21.34375 14.75 C 19.234375 18.453125 19.648438 23.046875 22.3125 26.28125 L 15.78125 32.78125 C 15.90625 32.210938 16 31.617188 16 31 C 16 25.902344 11.125 22.21875 11.125 22.21875 C 10.914063 22.046875 10.644531 21.96875 10.375 22 C 10.191406 22.023438 10.019531 22.101563 9.875 22.21875 C 9.875 22.21875 5 25.902344 5 31 C 5 35.136719 8.101563 38.21875 9.3125 39.28125 L 6.5 42.0625 L 4 41 L 5.0625 43.5 L 2.28125 46.28125 C 1.882813 46.679688 1.882813 47.320313 2.28125 47.71875 C 2.679688 48.117188 3.320313 48.117188 3.71875 47.71875 L 13.5 37.9375 L 16 39 L 14.9375 36.5 L 23.71875 27.6875 C 26.953125 30.351563 31.550781 30.765625 35.25 28.65625 L 38.4375 26.84375 C 38.503906 26.820313 38.566406 26.789063 38.625 26.75 C 39.1875 26.578125 39.710938 26.324219 40.1875 25.96875 C 42.34375 25.976563 44.371094 25.316406 45.84375 23.84375 C 48 21.6875 48.414063 18.421875 47.53125 15.125 C 48.671875 12.429688 47.511719 8.886719 44.8125 6.1875 C 42.425781 3.800781 39.4375 2.644531 36.875 3.15625 C 34.9375 2.335938 32.953125 1.917969 31.125 2.03125 Z M 31.3125 4.03125 C 32.828125 3.949219 34.5625 4.269531 36.34375 5.0625 C 36.550781 5.15625 36.78125 5.179688 37 5.125 C 38.628906 4.6875 41.300781 5.488281 43.40625 7.59375 C 45.800781 9.988281 46.457031 13.066406 45.625 14.625 C 45.507813 14.855469 45.484375 15.125 45.5625 15.375 C 46.421875 18.300781 46.015625 20.859375 44.4375 22.4375 C 43.359375 23.515625 41.859375 24.046875 40.03125 24 C 39.753906 23.984375 39.480469 24.085938 39.28125 24.28125 C 38.964844 24.597656 38.550781 24.828125 38.0625 24.9375 C 37.957031 24.929688 37.851563 24.941406 37.75 24.96875 C 37.335938 25.019531 36.886719 25.007813 36.375 24.90625 C 35.097656 24.652344 33.625 23.875 32.375 22.625 C 31.351563 21.601563 30.640625 20.4375 30.28125 19.34375 C 30.179688 19.050781 29.949219 18.820313 29.65625 18.71875 C 28.5625 18.359375 27.398438 17.648438 26.375 16.625 C 25.125 15.375 24.347656 13.902344 24.09375 12.625 C 23.839844 11.347656 24.085938 10.351563 24.71875 9.71875 C 24.9375 9.5 25.1875 9.34375 25.5 9.21875 C 25.824219 9.09375 26.0625 8.808594 26.125 8.46875 C 26.332031 7.304688 26.804688 6.320313 27.5625 5.5625 C 28.503906 4.621094 29.796875 4.113281 31.3125 4.03125 Z M 37.75 7 C 36.136719 7 35.253906 7.769531 34.71875 8.375 C 34.648438 8.351563 34.671875 8.335938 34.59375 8.3125 C 34.019531 8.144531 33.179688 8 32 8 C 31.410156 8 30.480469 8.136719 29.59375 8.8125 C 28.707031 9.488281 28 10.738281 28 12.5 C 28 14.246094 29.019531 15.480469 29.9375 16.125 C 30.855469 16.769531 31.78125 16.96875 31.78125 16.96875 C 32.144531 17.097656 32.550781 17.003906 32.824219 16.734375 C 33.09375 16.460938 33.1875 16.054688 33.058594 15.691406 C 32.929688 15.328125 32.601563 15.070313 32.21875 15.03125 C 32.21875 15.03125 31.644531 14.878906 31.0625 14.46875 C 30.480469 14.058594 30 13.527344 30 12.5 C 30 11.222656 30.394531 10.722656 30.8125 10.40625 C 31.230469 10.089844 31.800781 10 32 10 C 33.007813 10 33.652344 10.140625 34.03125 10.25 C 34.410156 10.359375 34.4375 10.375 34.4375 10.375 C 34.667969 10.535156 34.953125 10.59375 35.226563 10.535156 C 35.496094 10.472656 35.734375 10.304688 35.875 10.0625 C 35.875 10.0625 36.460938 9 37.75 9 C 39.625 9 40.0625 10.375 40.0625 10.375 C 40.183594 10.671875 40.4375 10.890625 40.75 10.96875 C 40.75 10.96875 41.019531 11.027344 41.34375 11.3125 C 41.667969 11.597656 42 12.019531 42 13 C 41.996094 13.359375 42.183594 13.695313 42.496094 13.878906 C 42.808594 14.058594 43.191406 14.058594 43.503906 13.878906 C 43.816406 13.695313 44.003906 13.359375 44 13 C 44 11.484375 43.332031 10.40625 42.65625 9.8125 C 42.191406 9.402344 41.949219 9.378906 41.6875 9.28125 C 41.40625 8.765625 40.332031 7 37.75 7 Z M 36.875 12 C 36.441406 12.054688 36.097656 12.382813 36.015625 12.8125 C 35.9375 13.242188 36.148438 13.671875 36.53125 13.875 C 36.53125 13.875 39 15.21875 39 17.5 C 39 18.539063 38.386719 19.054688 37.5625 19.46875 C 36.738281 19.882813 35.875 20 35.875 20 C 35.324219 20.070313 34.929688 20.574219 35 21.125 C 35.070313 21.675781 35.574219 22.070313 36.125 22 C 36.125 22 37.261719 21.84375 38.4375 21.25 C 39.613281 20.65625 41 19.433594 41 17.5 C 41 13.867188 37.46875 12.125 37.46875 12.125 C 37.289063 12.023438 37.082031 11.980469 36.875 12 Z M 23.125 15.625 C 23.605469 16.46875 24.214844 17.277344 24.96875 18.03125 C 26.074219 19.136719 27.320313 19.914063 28.59375 20.40625 C 29.085938 21.675781 29.863281 22.925781 30.96875 24.03125 C 32.171875 25.234375 33.523438 26.113281 34.90625 26.59375 L 34.28125 26.9375 C 31.066406 28.769531 27.023438 28.210938 24.40625 25.59375 C 21.789063 22.976563 21.230469 18.933594 23.0625 15.71875 Z M 10.5 24.46875 C 11.40625 25.308594 14 27.835938 14 31 C 14 34.164063 11.40625 36.691406 10.5 37.53125 C 9.59375 36.691406 7 34.164063 7 31 C 7 27.835938 9.59375 25.308594 10.5 24.46875 Z"/></svg>