<svg xmlns="http://www.w3.org/2000/svg"  viewBox="0 0 50 50" width="1000px" height="1000px"><path d="M 25 1 C 23.752557 1 22.697806 1.5428284 22.019531 2.3125 C 21.428982 2.982625 21.143147 3.8063629 21.066406 4.6347656 C 20.416899 4.2501391 19.712821 4 19 4 C 18.061575 4 17.100094 4.3203044 16.326172 4.9804688 C 15.55225 5.640633 15 6.685157 15 7.9238281 L 15 23.029297 L 13.291016 20.78125 L 13.333984 20.84375 C 12.045273 18.855452 9.4361012 18.136314 7.4824219 19.34375 A 1.0001 1.0001 0 0 0 7.4726562 19.349609 C 5.5361449 20.575938 5.0697638 23.227606 6.34375 25.212891 A 1.0001 1.0001 0 0 0 6.3515625 25.226562 C 6.3515625 25.226562 10.86233 32.01262 13.445312 35.511719 C 14.035656 36.311608 15.24227 37.594887 15.957031 38.357422 L 15.005859 46.888672 A 1.0001 1.0001 0 0 0 16 48 C 17.670223 48 18.728096 47.320344 19.447266 46.820312 C 20.166435 46.320282 20.54771 46 21.753906 46 C 22.960103 46 23.339344 46.320313 24.058594 46.820312 C 24.777844 47.320312 25.836056 48 27.505859 48 C 29.175243 48 30.232502 47.320344 30.951172 46.820312 C 31.669842 46.320282 32.050824 46 33.255859 46 C 34.459733 46 34.836688 46.320312 35.554688 46.820312 C 36.272688 47.320312 37.329921 48 38.998047 48 A 1.0001 1.0001 0 0 0 39.992188 46.890625 L 39.021484 38.134766 C 40.762802 34.993314 41 31.438214 41 30 L 41 13 C 41 12.249071 40.970667 11.11695 40.445312 10.037109 C 39.919958 8.9572692 38.705394 8 37 8 C 36.212645 8 35.558626 8.2405376 35 8.5664062 L 35 8 L 35 7 L 34.953125 7 C 34.853993 5.9507711 34.581691 5.0649488 34.044922 4.3613281 C 33.34496 3.4437864 32.206875 3 31 3 C 30.099328 3 29.378064 3.2866321 28.759766 3.6738281 C 28.590339 3.1865827 28.340248 2.7207586 27.980469 2.3125 C 27.302194 1.5428284 26.247443 1 25 1 z M 25 3 C 25.700557 3 26.145744 3.2549373 26.480469 3.6347656 C 26.815194 4.014594 27 4.5491189 27 5 L 27 7 L 27 20 L 29 20 L 29 7 C 29 6.4706595 29.14667 5.945905 29.423828 5.6035156 C 29.700986 5.2611263 30.094831 5 31 5 C 31.791125 5 32.15454 5.1802604 32.455078 5.5742188 C 32.755616 5.9681771 33 6.7442781 33 8 L 33 13 L 33 21 L 35 21 L 35 13.013672 A 1.0001 1.0001 0 0 0 35 13 C 35 12.348929 35.07637 11.481769 35.353516 10.912109 C 35.630661 10.34245 35.915394 10 37 10 C 38.084606 10 38.369339 10.34245 38.646484 10.912109 C 38.92363 11.481769 39 12.348929 39 13 L 39 30 C 39 31.259721 38.735615 34.801842 37.140625 37.466797 A 1.0001 1.0001 0 0 0 37.003906 38.089844 L 37.861328 45.810547 C 37.453276 45.668426 37.110882 45.466361 36.699219 45.179688 C 35.981219 44.679688 34.923986 44 33.255859 44 C 31.586895 44 30.529127 44.679718 29.810547 45.179688 C 29.091967 45.679656 28.711475 46 27.505859 46 C 26.299663 46 25.920422 45.679687 25.201172 45.179688 C 24.481922 44.679688 23.42371 44 21.753906 44 C 20.084103 44 19.025721 44.679718 18.306641 45.179688 C 17.893996 45.466594 17.548352 45.668328 17.138672 45.810547 L 17.994141 38.140625 A 1.0001 1.0001 0 0 0 17.728516 37.34375 C 17.12659 36.70445 15.500301 34.928006 15.054688 34.324219 C 12.549069 30.929924 8.0395871 24.151216 8.0273438 24.132812 C 7.2969243 22.994582 7.5845827 21.654433 8.5390625 21.044922 C 9.4913768 20.460619 10.916265 20.789949 11.65625 21.931641 A 1.0001 1.0001 0 0 0 11.699219 21.992188 L 15.203125 26.605469 A 1.0001 1.0001 0 0 0 17 26 L 17 7.9238281 C 17 7.2394992 17.247219 6.8225388 17.623047 6.5019531 C 17.998875 6.1813674 18.537425 6 19 6 C 19.462575 6 19.994685 6.1782221 20.369141 6.5039062 C 20.743596 6.8295904 21 7.2665 21 8 L 21 20 L 23 20 L 23 8.0136719 A 1.0001 1.0001 0 0 0 23 8 L 23 5 C 23 4.5491189 23.184806 4.014594 23.519531 3.6347656 C 23.854256 3.2549373 24.299443 3 25 3 z"/></svg>