<svg xmlns="http://www.w3.org/2000/svg"  viewBox="0 0 50 50" width="1000px" height="1000px"><path d="M 35.414063 3 C 35.363281 3 35.3125 3.007813 35.261719 3.015625 C 28.398438 3.054688 19.460938 5.90625 12.6875 12.675781 C 7.386719 17.980469 4.480469 24.625 3.441406 30.542969 C 2.402344 36.457031 3.082031 41.675781 5.703125 44.296875 C 7.570313 46.171875 10.785156 47 14.605469 47 C 21.488281 47 30.503906 44.128906 37.324219 37.3125 C 42.625 32.007813 45.527344 25.351563 46.5625 19.4375 C 47.59375 13.519531 46.917969 8.300781 44.3125 5.691406 C 42.484375 3.867188 39.351563 3.0625 35.636719 3.027344 C 35.5625 3.011719 35.488281 3 35.414063 3 Z M 35.414063 5 C 38.300781 5 40.660156 5.605469 42.089844 6.496094 L 36.292969 12.292969 C 36.03125 12.542969 35.925781 12.917969 36.019531 13.265625 C 36.109375 13.617188 36.382813 13.890625 36.734375 13.980469 C 37.082031 14.074219 37.457031 13.96875 37.707031 13.707031 L 43.507813 7.90625 C 44.808594 10.035156 45.4375 14.261719 44.59375 19.09375 C 43.625 24.632813 40.878906 30.929688 35.90625 35.894531 C 29.519531 42.285156 20.921875 45 14.605469 45 C 11.714844 45 9.351563 44.390625 7.921875 43.496094 L 13.707031 37.707031 C 14.003906 37.417969 14.089844 36.980469 13.929688 36.601563 C 13.769531 36.21875 13.394531 35.976563 12.980469 35.988281 C 12.71875 35.996094 12.472656 36.105469 12.292969 36.292969 L 6.5 42.082031 C 5.1875 39.945313 4.5625 35.71875 5.410156 30.886719 C 6.382813 25.351563 9.136719 19.0625 14.105469 14.09375 C 20.492188 7.703125 29.09375 5 35.414063 5 Z M 25.988281 14.988281 C 25.582031 14.992188 25.21875 15.238281 25.0625 15.613281 C 24.910156 15.992188 25 16.421875 25.292969 16.707031 L 28.066406 19.484375 C 28.023438 19.652344 28 19.824219 28 20 C 28 20.175781 28.023438 20.347656 28.070313 20.515625 L 25.515625 23.066406 C 25.347656 23.023438 25.175781 23 25 23 C 24.824219 23 24.652344 23.023438 24.484375 23.070313 L 21.707031 20.292969 C 21.519531 20.097656 21.261719 19.992188 20.988281 19.988281 C 20.582031 19.992188 20.21875 20.238281 20.0625 20.613281 C 19.910156 20.992188 20 21.421875 20.292969 21.707031 L 23.066406 24.484375 C 23.023438 24.652344 23 24.824219 23 25 C 23 25.175781 23.023438 25.347656 23.070313 25.515625 L 20.515625 28.066406 C 20.347656 28.023438 20.175781 28 20 28 C 19.824219 28 19.652344 28.023438 19.484375 28.070313 L 16.707031 25.292969 C 16.519531 25.097656 16.261719 24.992188 15.988281 24.988281 C 15.582031 24.992188 15.21875 25.238281 15.0625 25.613281 C 14.910156 25.992188 15 26.421875 15.292969 26.707031 L 18.066406 29.484375 C 18.023438 29.652344 18 29.824219 18 30 C 18 30.175781 18.023438 30.347656 18.070313 30.515625 L 16.292969 32.292969 C 16.03125 32.542969 15.925781 32.917969 16.019531 33.265625 C 16.109375 33.617188 16.382813 33.890625 16.734375 33.980469 C 17.082031 34.074219 17.457031 33.96875 17.707031 33.707031 L 19.484375 31.933594 C 19.652344 31.976563 19.824219 32 20 32 C 20.175781 32 20.347656 31.976563 20.515625 31.929688 L 23.292969 34.707031 C 23.542969 34.96875 23.917969 35.074219 24.265625 34.980469 C 24.617188 34.890625 24.890625 34.617188 24.980469 34.265625 C 25.074219 33.917969 24.96875 33.542969 24.707031 33.292969 L 21.933594 30.515625 C 21.976563 30.347656 22 30.175781 22 30 C 22 29.824219 21.976563 29.652344 21.929688 29.484375 L 24.484375 26.933594 C 24.652344 26.976563 24.824219 27 25 27 C 25.175781 27 25.347656 26.976563 25.515625 26.929688 L 28.292969 29.707031 C 28.542969 29.96875 28.917969 30.074219 29.265625 29.980469 C 29.617188 29.890625 29.890625 29.617188 29.980469 29.265625 C 30.074219 28.917969 29.96875 28.542969 29.707031 28.292969 L 26.933594 25.515625 C 26.976563 25.347656 27 25.175781 27 25 C 27 24.824219 26.976563 24.652344 26.929688 24.484375 L 29.484375 21.933594 C 29.652344 21.976563 29.824219 22 30 22 C 30.175781 22 30.347656 21.976563 30.515625 21.929688 L 33.292969 24.707031 C 33.542969 24.96875 33.917969 25.074219 34.265625 24.980469 C 34.617188 24.890625 34.890625 24.617188 34.980469 24.265625 C 35.074219 23.917969 34.96875 23.542969 34.707031 23.292969 L 31.933594 20.515625 C 31.976563 20.347656 32 20.175781 32 20 C 32 19.824219 31.976563 19.652344 31.929688 19.484375 L 33.707031 17.707031 C 34.003906 17.417969 34.089844 16.980469 33.929688 16.601563 C 33.769531 16.21875 33.394531 15.976563 32.980469 15.988281 C 32.71875 15.996094 32.472656 16.105469 32.292969 16.292969 L 30.515625 18.066406 C 30.347656 18.023438 30.175781 18 30 18 C 29.824219 18 29.652344 18.023438 29.484375 18.070313 L 26.707031 15.292969 C 26.519531 15.097656 26.261719 14.992188 25.988281 14.988281 Z"/></svg>