<svg xmlns="http://www.w3.org/2000/svg"  viewBox="0 0 50 50" width="1000px" height="1000px"><path d="M 22.078125 0.98828125 A 1.0001 1.0001 0 0 0 21.097656 1.9003906 C 21.097656 1.9003906 20.816956 5.4981476 20.529297 11.009766 C 19.783536 7.215207 18.972656 5.5253906 18.972656 5.5253906 A 1.0001 1.0001 0 0 0 17.085938 5.8398438 C 17.085938 5.8398438 16.811824 8.253125 16.53125 12.603516 C 16.35488 11.665488 16.215384 10.373882 16.03125 9.5996094 C 15.028919 5.3848698 13.955078 3.4550781 13.955078 3.4550781 A 1.0001 1.0001 0 0 0 12.085938 3.9433594 C 12.085938 3.9433594 12.057628 10.491277 12.048828 12.527344 C 11.559101 10.697417 11.035363 9.0596632 10.484375 7.7851562 C 9.5847301 5.7041595 8.6691169 4.3089457 7.9589844 3.421875 C 7.2488518 2.5348043 6.6738281 2.1054687 6.6738281 2.1054688 A 1.0001 1.0001 0 0 0 5.1523438 3.2636719 C 5.1523438 3.2636719 6.1320098 6.3900233 6.9433594 12.482422 C 6.7585061 12.129795 6.5860127 11.681542 6.3964844 11.380859 C 5.4542269 9.8859874 4.4698164 9.0155474 3.6855469 8.5253906 C 2.9012774 8.0352339 2.2089844 7.9101563 2.2089844 7.9101562 A 1.0001 1.0001 0 0 0 1.203125 9.4101562 C 1.203125 9.4101562 1.8521994 10.4614 2.5683594 13.626953 C 3.2529203 16.652834 3.9355562 21.546445 3.9648438 28.902344 A 1.0001 1.0001 0 0 0 3.1035156 29.890625 L 3.1035156 33.890625 A 1.0001 1.0001 0 0 0 3.9511719 34.878906 L 3.9375 37.908203 L 2.9355469 37.904297 A 1.0001 1.0001 0 0 0 1.9316406 38.900391 L 1.9238281 40.900391 C 1.9126271 43.64969 4.1531676 45.90943 6.9023438 45.921875 L 42.902344 46.078125 C 45.651887 46.090575 47.912625 43.849334 47.923828 41.099609 L 47.931641 39.099609 A 1.0001 1.0001 0 0 0 46.935547 38.095703 L 45.9375 38.091797 L 45.951172 34.890625 L 46.103516 34.890625 A 1.0001 1.0001 0 0 0 47.103516 33.890625 L 47.103516 29.890625 A 1.0001 1.0001 0 0 0 46.103516 28.890625 L 45.988281 28.890625 C 46.089104 20.655255 46.815858 15.309671 47.527344 12.058594 C 47.900582 10.353111 48.268137 9.215134 48.533203 8.5175781 C 48.798269 7.8200223 48.925781 7.6191406 48.925781 7.6191406 A 1.0001 1.0001 0 0 0 47.578125 6.2304688 C 47.578125 6.2304688 46.98976 6.5775093 46.261719 7.3164062 C 45.533677 8.0553033 44.592823 9.227564 43.666016 10.996094 C 43.364513 11.57142 43.076475 12.31876 42.785156 13.025391 C 43.377567 6.7863742 44.064453 3.2988281 44.064453 3.2988281 A 1.0001 1.0001 0 0 0 42.292969 2.4746094 C 42.292969 2.4746094 40.672779 4.6379596 39.117188 9.1113281 C 38.589606 10.628477 38.133402 12.826461 37.666016 14.90625 C 37.397842 8.0398059 37.072266 3.8886719 37.072266 3.8886719 A 1.0001 1.0001 0 0 0 35.167969 3.6503906 C 35.167969 3.6503906 34.356417 5.5442718 33.576172 9.7324219 C 33.457183 10.371123 33.364508 11.463755 33.248047 12.214844 C 32.70532 6.1998938 32.066406 2.8144531 32.066406 2.8144531 A 1.0001 1.0001 0 0 0 30.107422 2.84375 C 30.107422 2.84375 29.537996 6.0736101 28.984375 11.357422 C 28.514229 8.2052914 28.001953 6.6425781 28.001953 6.6425781 A 1.0001 1.0001 0 0 0 26.111328 6.7304688 C 26.111328 6.7304688 25.546295 8.8502663 24.994141 13.060547 C 24.140659 5.9348454 23.052734 1.703125 23.052734 1.703125 A 1.0001 1.0001 0 0 0 22.078125 0.98828125 z M 8.2558594 7.8984375 C 8.3991206 8.1931121 8.5034213 8.2426835 8.6484375 8.578125 C 10.257781 12.300748 11.89028 18.643235 11.957031 28.890625 L 9.9667969 28.890625 C 9.9553559 18.260354 9.0850275 12.008061 8.2558594 7.8984375 z M 22.591797 9.5136719 C 23.276447 14.007604 23.944363 20.535816 23.966797 28.890625 L 21.986328 28.890625 C 22.043577 20.897625 22.318219 14.314403 22.591797 9.5136719 z M 41.089844 9.5742188 C 40.580216 13.908992 40.073592 20.337887 39.992188 28.890625 L 38 28.890625 C 38.157327 20.125731 39.586863 13.848144 41.005859 9.7675781 C 41.036789 9.6786301 41.059004 9.6610481 41.089844 9.5742188 z M 14.060547 9.9746094 C 14.070247 10.015042 14.076207 10.021563 14.085938 10.0625 C 15.009795 13.947264 15.927456 20.057785 15.962891 28.890625 L 13.976562 28.890625 C 14.024116 18.035837 14.046675 13.189419 14.060547 9.9746094 z M 35.574219 9.9746094 C 35.789742 13.783184 35.990725 19.783055 35.970703 28.890625 L 33.988281 28.890625 C 34.085716 20.084115 34.81934 13.983854 35.542969 10.099609 C 35.559639 10.010129 35.557609 10.061709 35.574219 9.9746094 z M 31.099609 10.275391 C 31.541875 14.524701 31.957622 20.724795 31.962891 28.890625 L 29.994141 28.890625 C 30.074357 21.085686 30.585062 14.788413 31.099609 10.275391 z M 18.589844 11.552734 C 19.271632 15.080616 19.944162 20.649409 19.966797 28.890625 L 17.986328 28.890625 C 18.044115 20.877787 18.318535 15.318612 18.589844 11.552734 z M 45.554688 11.755859 C 44.813674 15.179347 44.088388 20.612498 43.988281 28.890625 L 42.003906 28.890625 C 42.184357 20.247615 43.83605 14.979709 45.4375 11.923828 C 45.48135 11.840158 45.51097 11.836318 45.554688 11.755859 z M 4.1132812 11.8125 C 4.3293878 12.077837 4.4784014 12.087648 4.7050781 12.447266 C 6.2377021 14.878742 7.8710332 19.715541 7.953125 28.890625 L 5.9648438 28.890625 C 5.9348857 21.415778 5.2418605 16.378369 4.5195312 13.185547 C 4.3774025 12.557313 4.2552513 12.310271 4.1132812 11.8125 z M 27.097656 12.300781 C 27.538156 15.608104 27.955975 20.877682 27.962891 28.890625 L 25.994141 28.890625 C 26.074969 21.048879 26.585337 15.778287 27.097656 12.300781 z M 5.234375 30.890625 L 8.7539062 30.890625 A 1.0001 1.0001 0 0 0 9.1972656 30.890625 L 12.685547 30.890625 A 1.0001 1.0001 0 0 0 13.259766 30.890625 L 16.634766 30.890625 A 1.0001 1.0001 0 0 0 17.314453 30.890625 L 20.587891 30.890625 A 1.0001 1.0001 0 0 0 21.359375 30.890625 L 24.544922 30.890625 A 1.0001 1.0001 0 0 0 25.402344 30.890625 L 28.509766 30.890625 A 1.0001 1.0001 0 0 0 29.435547 30.890625 L 32.478516 30.890625 A 1.0001 1.0001 0 0 0 33.46875 30.890625 L 36.449219 30.890625 A 1.0001 1.0001 0 0 0 37.496094 30.890625 L 40.419922 30.890625 A 1.0001 1.0001 0 0 0 41.521484 30.890625 L 44.359375 30.890625 A 1.0001 1.0001 0 0 0 45.103516 31.091797 L 45.103516 32.890625 L 5.1035156 32.890625 L 5.1035156 30.916016 A 1.0001 1.0001 0 0 0 5.234375 30.890625 z M 5.9511719 34.890625 L 7.9511719 34.890625 L 7.9375 37.925781 L 5.9375 37.917969 L 5.9511719 34.890625 z M 9.9511719 34.890625 L 11.951172 34.890625 L 11.9375 37.943359 L 9.9375 37.935547 L 9.9511719 34.890625 z M 13.951172 34.890625 L 15.951172 34.890625 L 15.9375 37.960938 L 13.9375 37.953125 L 13.951172 34.890625 z M 17.951172 34.890625 L 19.951172 34.890625 L 19.9375 37.978516 L 17.9375 37.96875 L 17.951172 34.890625 z M 21.951172 34.890625 L 23.951172 34.890625 L 23.9375 37.996094 L 21.9375 37.986328 L 21.951172 34.890625 z M 25.951172 34.890625 L 27.951172 34.890625 L 27.9375 38.013672 L 25.9375 38.003906 L 25.951172 34.890625 z M 29.951172 34.890625 L 31.951172 34.890625 L 31.9375 38.03125 L 29.9375 38.021484 L 29.951172 34.890625 z M 33.951172 34.890625 L 35.951172 34.890625 L 35.9375 38.048828 L 33.9375 38.039062 L 33.951172 34.890625 z M 37.951172 34.890625 L 39.951172 34.890625 L 39.9375 38.064453 L 37.9375 38.056641 L 37.951172 34.890625 z M 41.951172 34.890625 L 43.951172 34.890625 L 43.9375 38.082031 L 41.9375 38.074219 L 41.951172 34.890625 z M 3.9277344 39.908203 L 45.927734 40.091797 L 45.923828 41.091797 C 45.917028 42.760072 44.578613 44.085678 42.910156 44.078125 L 6.9101562 43.921875 C 5.2413323 43.91432 3.9170294 42.576904 3.9238281 40.908203 L 3.9277344 39.908203 z"/></svg>