<svg xmlns="http://www.w3.org/2000/svg"  viewBox="0 0 50 50" width="1000px" height="1000px"><path d="M 33.433594 4.234375 C 33.263136 4.2429973 33.098888 4.2796419 32.9375 4.3300781 C 32.93691 4.3302625 32.936137 4.3298932 32.935547 4.3300781 A 1.0001 1.0001 0 0 0 32.595703 4.4648438 C 30.705597 5.6094426 27.887493 6.2454356 25.070312 6.2578125 C 22.253133 6.2701894 19.438254 5.6591805 17.560547 4.5566406 A 1.0001 1.0001 0 0 0 17.318359 4.4511719 C 16.864015 4.2344492 16.346106 4.1642777 15.841797 4.3320312 A 1.0001 1.0001 0 0 0 15.839844 4.3320312 L 11.367188 5.8242188 C 10.554995 6.0955872 10 6.8652861 10 7.7207031 L 10 22 C 10 24.773666 7.7736661 27 5 27 A 1.0001 1.0001 0 0 0 4 28 L 4 30 L 4 35 L 4 40 L 4 45 A 1.0001 1.0001 0 0 0 5 46 L 21 46 C 22.956939 46 24.725566 45.184008 25.998047 43.882812 C 27.270713 45.186128 29.042656 46 31 46 L 45 46 A 1.0001 1.0001 0 0 0 46 45 L 46 40 L 46 35 L 46 30 L 46 28 A 1.0001 1.0001 0 0 0 45 27 C 42.226334 27 40 24.773666 40 22 L 40 7.7207031 C 40 6.8652848 39.44367 6.0951338 38.630859 5.8242188 L 38.628906 5.8222656 L 34.158203 4.3320312 C 33.919747 4.252711 33.673729 4.2222283 33.433594 4.234375 z M 16.470703 6.2304688 A 1.0001 1.0001 0 0 0 16.474609 6.2324219 L 24.095703 22.425781 A 1.0001 1.0001 0 0 0 24.111328 22.457031 C 24.045551 22.896825 24 23.339653 24 23.787109 L 24 29 L 6 29 L 6 28.796875 C 9.363146 28.290525 12 25.50012 12 22 L 12 7.7207031 L 16.470703 6.2304688 z M 33.527344 6.2304688 L 37.998047 7.7207031 A 1.0001 1.0001 0 0 0 38 7.7207031 L 38 22 C 38 25.50012 40.636854 28.290525 44 28.796875 L 44 29 L 26 29 L 26 23.787109 C 26 22.756251 26.227655 21.740437 26.666016 20.808594 L 33.523438 6.234375 C 33.524944 6.2334858 33.525838 6.2313585 33.527344 6.2304688 z M 19.175781 7.2753906 C 21.020664 7.8698493 23.00339 8.2669362 25.080078 8.2578125 C 27.02996 8.249246 28.980931 7.9879892 30.744141 7.4433594 L 25 19.650391 L 19.175781 7.2753906 z M 6 31 L 24 31 L 24 34 L 6 34 L 6 31 z M 26 31 L 44 31 L 44 34 L 26 34 L 26 31 z M 6 36 L 24 36 L 24 39 L 6 39 L 6 36 z M 26 36 L 44 36 L 44 39 L 26 39 L 26 36 z M 6 41 L 24.296875 41 C 24.426895 41.433894 24.596975 41.8497 24.804688 42.244141 C 23.88862 43.319286 22.530172 44 21 44 L 6 44 L 6 41 z M 26.417969 41 L 44 41 L 44 44 L 31 44 C 29.281038 44 27.775817 43.142565 26.876953 41.832031 A 1.0002487 1.0002487 0 0 0 26.820312 41.744141 A 1.0002487 1.0002487 0 0 0 26.818359 41.740234 C 26.665449 41.506466 26.530534 41.25913 26.417969 41 z"/></svg>