<svg xmlns="http://www.w3.org/2000/svg"  viewBox="0 0 50 50" width="1000px" height="1000px"><path d="M 38.8125 1 C 36.207031 1 33.609375 1.984375 31.625 3.96875 C 31.199219 4.398438 28.496094 7.097656 27.09375 8.5 C 26.859375 8.734375 26.675781 8.933594 26.5 9.1875 C 26.324219 9.441406 26.144531 9.8125 26.15625 10.21875 C 26.167969 10.625 26.351563 10.96875 26.53125 11.21875 C 26.710938 11.46875 26.886719 11.667969 27.125 11.90625 C 29.886719 14.667969 31.265625 15.925781 32.75 16.28125 C 33.171875 16.382813 33.519531 16.207031 33.90625 16.125 C 33.828125 16.511719 33.648438 16.859375 33.75 17.28125 C 34.054688 18.535156 35.066406 19.765625 37.03125 21.78125 L 16 41.3125 C 16.003906 41.210938 16 41.105469 16 41 C 16 37.144531 12.855469 34 9 34 C 7.648438 34 6.386719 34.390625 5.3125 35.0625 L 12.75 3.46875 C 12.828125 3.140625 12.738281 2.789063 12.503906 2.542969 C 12.269531 2.296875 11.925781 2.1875 11.59375 2.25 C 11.1875 2.320313 10.867188 2.628906 10.78125 3.03125 L 2.4375 38.59375 C 2.410156 38.652344 2.390625 38.71875 2.375 38.78125 C 2.136719 39.484375 2 40.21875 2 41 C 2 44.855469 5.144531 48 9 48 C 10.824219 48 12.46875 47.277344 13.71875 46.125 C 13.746094 46.101563 13.785156 46.085938 13.8125 46.0625 C 13.855469 46.035156 13.898438 46.003906 13.9375 45.96875 L 38.46875 23.1875 C 38.582031 23.285156 38.679688 23.40625 38.8125 23.5 C 39.058594 23.671875 39.414063 23.84375 39.8125 23.84375 C 40.210938 23.84375 40.5625 23.671875 40.8125 23.5 C 41.0625 23.328125 41.265625 23.140625 41.5 22.90625 L 46.03125 18.375 C 49.996094 14.40625 49.996094 7.933594 46.03125 3.96875 C 44.046875 1.984375 41.417969 1 38.8125 1 Z M 38.8125 3 C 40.902344 3 42.992188 3.804688 44.59375 5.40625 C 47.796875 8.609375 47.796875 13.765625 44.59375 16.96875 L 40.09375 21.5 C 39.960938 21.632813 39.890625 21.683594 39.8125 21.75 C 39.738281 21.6875 39.6875 21.625 39.5625 21.5 C 36.816406 18.753906 35.820313 17.351563 35.6875 16.8125 C 35.621094 16.542969 35.652344 16.445313 35.8125 16.125 C 35.972656 15.804688 36.324219 15.320313 36.71875 14.65625 C 36.953125 14.257813 36.878906 13.75 36.546875 13.429688 C 36.210938 13.109375 35.703125 13.0625 35.3125 13.3125 C 34.65625 13.710938 34.195313 14.058594 33.875 14.21875 C 33.554688 14.378906 33.484375 14.375 33.21875 14.3125 C 32.6875 14.183594 31.277344 13.214844 28.5625 10.5 C 28.414063 10.351563 28.351563 10.273438 28.28125 10.1875 C 28.347656 10.113281 28.378906 10.058594 28.5 9.9375 C 29.902344 8.535156 32.597656 5.839844 33.03125 5.40625 C 34.632813 3.804688 36.722656 3 38.8125 3 Z M 40 6 C 37.800781 6 36 7.800781 36 10 C 36 12.199219 37.800781 14 40 14 C 42.199219 14 44 12.199219 44 10 C 44 7.800781 42.199219 6 40 6 Z M 40 8 C 41.117188 8 42 8.882813 42 10 C 42 11.117188 41.117188 12 40 12 C 38.882813 12 38 11.117188 38 10 C 38 8.882813 38.882813 8 40 8 Z M 9 36 C 11.773438 36 14 38.226563 14 41 C 14 42.371094 13.449219 43.597656 12.5625 44.5 C 12.550781 44.511719 12.542969 44.519531 12.53125 44.53125 C 12.519531 44.542969 12.511719 44.550781 12.5 44.5625 C 11.597656 45.449219 10.371094 46 9 46 C 6.226563 46 4 43.773438 4 41 C 4 40.433594 4.109375 39.910156 4.28125 39.40625 C 4.328125 39.308594 4.359375 39.203125 4.375 39.09375 C 5.121094 37.277344 6.90625 36 9 36 Z"/></svg>