<svg fill="#000000" xmlns="http://www.w3.org/2000/svg"  viewBox="0 0 50 50" width="1000px" height="1000px"><path d="M 30.541016 2.0078125 C 27.357723 1.906763 24.322186 2.9003926 22.111328 5.1113281 L 8.4765625 18.746094 C 5.9991274 21.223529 4.2673842 24.992303 4.0273438 29.09375 C 3.8144146 32.731957 4.8200612 36.64841 7.5820312 40.019531 C 6.0318278 40.080009 4.181118 40.337978 2.4589844 41.445312 A 1.0001 1.0001 0 0 0 2.7578125 43.255859 C 4.5425283 43.702255 5.8720439 44.697013 6.7675781 47.322266 A 1.0001 1.0001 0 0 0 8.5644531 47.525391 C 9.6464106 45.772378 9.9090729 44.025143 9.9746094 42.412109 C 13.347161 45.178023 17.265759 46.185719 20.90625 45.972656 C 25.007697 45.732616 28.776471 44.000872 31.253906 41.523438 L 44.888672 27.888672 C 47.415367 25.361888 48.353324 21.758791 47.882812 18.087891 C 47.412301 14.416991 45.558285 10.636302 42.460938 7.5390625 C 39.363591 4.4418234 35.583025 2.5875715 31.912109 2.1171875 C 31.453245 2.0583895 30.995772 2.0222481 30.541016 2.0078125 z M 30.476562 4.0058594 C 30.864844 4.0190598 31.258413 4.0505845 31.65625 4.1015625 C 34.838946 4.5093871 38.24486 6.1512074 41.046875 8.953125 C 43.848891 11.755043 45.490502 15.161068 45.898438 18.34375 C 46.306373 21.526432 45.506817 24.442329 43.474609 26.474609 C 41.4424 28.506888 38.526447 29.306262 35.34375 28.898438 C 32.161055 28.490613 28.75514 26.848792 25.953125 24.046875 C 23.151109 21.244957 21.509497 17.838932 21.101562 14.65625 C 20.693628 11.473568 21.493183 8.5576701 23.525391 6.5253906 C 25.303574 4.7471461 27.758595 3.9134561 30.476562 4.0058594 z M 29 8 A 1 1 0 0 0 29 10 A 1 1 0 0 0 29 8 z M 36 10 A 1 1 0 0 0 36 12 A 1 1 0 0 0 36 10 z M 19.193359 10.857422 C 18.962876 12.164039 18.940386 13.532718 19.117188 14.912109 C 19.587699 18.583009 21.441715 22.363699 24.539062 25.460938 C 27.636409 28.558177 31.416975 30.412429 35.087891 30.882812 C 36.466629 31.059481 37.836533 31.03686 39.142578 30.806641 L 29.839844 40.109375 C 27.758279 42.19094 24.393617 43.765603 20.789062 43.976562 C 17.18451 44.187523 13.359115 43.089583 10.134766 39.865234 C 6.9104161 36.640885 5.8124781 32.815491 6.0234375 29.210938 C 6.2343969 25.606383 7.8090601 22.241721 9.890625 20.160156 L 19.193359 10.857422 z M 26.5 13 A 1.5 1.5 0 0 0 26.5 16 A 1.5 1.5 0 0 0 26.5 13 z M 33 16 A 1 1 0 0 0 33 18 A 1 1 0 0 0 33 16 z M 40.5 18 A 1.5 1.5 0 0 0 40.5 21 A 1.5 1.5 0 0 0 40.5 18 z M 35 23 A 1 1 0 0 0 35 25 A 1 1 0 0 0 35 23 z M 7.9414062 42.058594 C 7.9198388 42.884143 7.792004 43.702171 7.59375 44.486328 C 6.9845679 43.55041 6.1803949 43.00714 5.3652344 42.472656 C 6.2367036 42.237758 7.0829234 42.081929 7.9414062 42.058594 z"/></svg>