<svg fill="#000000" xmlns="http://www.w3.org/2000/svg"  viewBox="0 0 50 50" width="1000px" height="1000px"><path d="M 21.726562 2.0078125 C 20.968189 2.0625541 20.270549 2.5535881 19.992188 3.296875 C 19.656492 4.1907235 19.401659 4.8741094 19.298828 5.1660156 A 1.0001 1.0001 0 0 0 19.298828 5.1699219 C 19.274456 5.2396724 19.261657 5.3076998 19.240234 5.3769531 L 2.0761719 46.615234 A 1.0001 1.0001 0 0 0 3.3808594 47.923828 L 11.621094 44.527344 A 1.0001 1.0001 0 0 0 11.962891 44.386719 L 44.341797 31.041016 C 44.394166 31.028901 44.449702 31.023705 44.5 31.007812 C 44.776463 30.920262 45.005684 30.809311 45.402344 30.628906 C 45.799004 30.448502 46.296982 30.215586 46.851562 29.955078 A 1.0001 1.0001 0 0 0 46.853516 29.955078 C 47.788339 29.514235 48.244267 28.388927 47.855469 27.419922 C 46.437847 23.894017 43.669564 17.099347 38.361328 11.806641 C 33.092181 6.5519321 26.444575 3.4415691 22.494141 2.1054688 A 1.0001 1.0001 0 0 0 22.492188 2.1054688 C 22.239322 2.0200212 21.979354 1.9895653 21.726562 2.0078125 z M 21.861328 4.0039062 C 25.55791 5.2551106 32.003142 8.2901334 36.949219 13.222656 C 41.888756 18.147742 44.580309 24.637229 45.992188 28.148438 C 45.444215 28.405824 44.95227 28.636653 44.574219 28.808594 C 44.221126 28.969183 43.958187 29.072744 43.945312 29.080078 A 1.0001591 1.0001591 0 0 0 43.902344 29.085938 C 43.899409 29.082219 43.87667 29.076751 43.814453 28.908203 A 1.0001 1.0001 0 0 0 43.814453 28.90625 C 42.880046 26.387013 40.262584 20.270541 35.066406 15.089844 C 30.040503 10.078389 24.134596 7.4729588 21.464844 6.4648438 A 1.0001 1.0001 0 0 0 21.462891 6.4628906 C 21.256352 6.3853488 21.131918 6.3189693 21.0625 6.2832031 C 21.072662 6.2148635 21.095279 6.0914205 21.185547 5.8320312 C 21.268527 5.5964621 21.528089 4.8912588 21.861328 4.0039062 z M 20.259766 8.1289062 C 20.431189 8.2027621 20.60612 8.2790313 20.757812 8.3359375 C 23.268061 9.2838225 28.9402 11.805315 33.654297 16.505859 C 38.528119 21.365162 41.061907 27.240848 41.9375 29.601562 C 41.965991 29.678644 42.003052 29.752884 42.037109 29.828125 L 38.974609 31.089844 C 38.989911 30.894886 39 30.698499 39 30.5 C 39 26.36961 35.63039 23 31.5 23 C 27.36961 23 24 26.36961 24 30.5 C 24 32.769369 25.01615 34.806347 26.617188 36.183594 L 23.695312 37.388672 C 22.780844 34.276137 19.898433 32 16.5 32 C 12.36961 32 9 35.36961 9 39.5 C 9 40.79068 9.3308688 42.008734 9.9082031 43.072266 L 4.8515625 45.15625 L 13.871094 23.480469 C 15.245972 25.022029 17.241811 26 19.462891 26 C 23.593759 26 27.011367 22.634177 26.962891 18.488281 C 26.908785 13.927737 23.087133 11.011287 19.0625 11.003906 L 20.259766 8.1289062 z M 18.998047 13 C 22.120084 12.97564 24.921355 15.010595 24.962891 18.511719 C 24.998414 21.549818 22.514022 24 19.462891 24 C 17.506967 24 15.803586 22.988412 14.826172 21.460938 A 1.0001 1.0001 0 0 0 14.753906 21.357422 L 18.207031 13.060547 C 18.459632 13.024926 18.720586 13.002464 18.998047 13 z M 21 15 A 1 1 0 0 0 21 17 A 1 1 0 0 0 21 15 z M 22 19 A 1 1 0 0 0 22 21 A 1 1 0 0 0 22 19 z M 18 20 A 1 1 0 0 0 18 22 A 1 1 0 0 0 18 20 z M 31.5 25 C 34.54961 25 37 27.45039 37 30.5 C 37 31.024168 36.909478 31.520584 36.773438 31.998047 L 28.806641 35.28125 C 27.13694 34.339072 26 32.563319 26 30.5 C 26 27.45039 28.45039 25 31.5 25 z M 30 27 A 1 1 0 0 0 30 29 A 1 1 0 0 0 30 27 z M 34 29 A 1 1 0 0 0 34 31 A 1 1 0 0 0 34 29 z M 29 31 A 1 1 0 0 0 29 33 A 1 1 0 0 0 29 31 z M 16.5 34 C 19.085165 34 21.219491 35.774351 21.816406 38.164062 L 11.777344 42.300781 C 11.288529 41.480117 11 40.529608 11 39.5 C 11 36.45039 13.45039 34 16.5 34 z M 18 36 A 1 1 0 0 0 18 38 A 1 1 0 0 0 18 36 z M 14 38 A 1 1 0 0 0 14 40 A 1 1 0 0 0 14 38 z"/></svg>