<svg xmlns="http://www.w3.org/2000/svg"  viewBox="0 0 50 50" width="1000px" height="1000px"><path d="M 25 0 C 22.9375 0 21.089844 0.328125 19.65625 0.9375 C 18.9375 1.242188 18.324219 1.632813 17.84375 2.125 C 17.363281 2.617188 17 3.269531 17 4 L 17 6.8125 C 16.992188 6.875 16.992188 6.9375 17 7 L 17 11 C 17 11.03125 17 11.0625 17 11.09375 L 17 14 C 17 17.515625 14.957031 20.171875 12.6875 23.4375 C 10.417969 26.703125 8 30.558594 8 36.1875 C 8 42.269531 13.101563 47.140625 17.59375 49.75 C 17.742188 49.84375 17.917969 49.898438 18.09375 49.90625 L 31.8125 49.90625 C 31.976563 49.902344 32.136719 49.859375 32.28125 49.78125 C 36.882813 47.167969 41.90625 42.257813 41.90625 36.1875 C 41.90625 30.507813 39.488281 26.644531 37.21875 23.375 C 34.949219 20.105469 32.90625 17.460938 32.90625 14 L 32.90625 11.46875 C 32.976563 11.324219 33.007813 11.160156 33 11 L 33 4 C 33 3.269531 32.636719 2.617188 32.15625 2.125 C 31.675781 1.632813 31.0625 1.242188 30.34375 0.9375 C 28.910156 0.328125 27.0625 0 25 0 Z M 25 2 C 25.34375 2 25.675781 2.011719 26 2.03125 L 26 3 C 25.996094 3.359375 26.183594 3.695313 26.496094 3.878906 C 26.808594 4.058594 27.191406 4.058594 27.503906 3.878906 C 27.816406 3.695313 28.003906 3.359375 28 3 L 28 2.3125 C 28.589844 2.441406 29.125 2.59375 29.5625 2.78125 C 30.105469 3.011719 30.527344 3.273438 30.75 3.5 C 30.972656 3.726563 31 3.878906 31 4 L 31 6.53125 C 30.929688 6.675781 30.898438 6.839844 30.90625 7 L 30.90625 10 L 19 10 L 19 7 C 19.007813 6.9375 19.007813 6.875 19 6.8125 L 19 4 C 19 3.878906 19.027344 3.726563 19.25 3.5 C 19.472656 3.273438 19.894531 3.011719 20.4375 2.78125 C 20.875 2.59375 21.410156 2.441406 22 2.3125 L 22 3 C 21.996094 3.359375 22.183594 3.695313 22.496094 3.878906 C 22.808594 4.058594 23.191406 4.058594 23.503906 3.878906 C 23.816406 3.695313 24.003906 3.359375 24 3 L 24 2.03125 C 24.324219 2.011719 24.65625 2 25 2 Z M 19 12 L 30.90625 12 L 30.90625 14 C 30.90625 18.238281 33.363281 21.292969 35.59375 24.5 C 37.824219 27.707031 39.90625 31.066406 39.90625 36.1875 C 39.90625 41.042969 35.640625 45.496094 31.5 47.90625 L 18.40625 47.90625 C 14.347656 45.492188 10 41.03125 10 36.1875 C 10 31.117188 12.082031 27.800781 14.3125 24.59375 C 16.542969 21.386719 19 18.285156 19 14 Z M 24.6875 25.90625 C 23.988281 25.90625 23.289063 25.988281 22.6875 26.1875 C 22.085938 26.386719 21.5 26.601563 21 27 C 20.5 27.398438 20.113281 27.804688 19.8125 28.40625 C 19.511719 29.007813 19.3125 29.605469 19.3125 30.40625 C 19.3125 31.105469 19.386719 31.59375 19.6875 32.09375 C 19.988281 32.492188 20.3125 32.886719 20.8125 33.1875 C 21.210938 33.488281 21.710938 33.707031 22.3125 33.90625 C 22.8125 34.105469 23.398438 34.304688 24 34.40625 C 24.5 34.507813 25.085938 34.710938 25.6875 34.8125 C 26.1875 34.914063 26.6875 35.113281 27.1875 35.3125 C 27.6875 35.511719 28.011719 35.792969 28.3125 36.09375 C 28.613281 36.492188 28.6875 36.90625 28.6875 37.40625 C 28.6875 37.90625 28.605469 38.386719 28.40625 38.6875 C 28.207031 38.988281 27.898438 39.300781 27.5 39.5 C 27.199219 39.699219 26.8125 39.804688 26.3125 39.90625 C 25.914063 40.007813 25.398438 40 25 40 C 24.5 40 23.90625 39.914063 23.40625 39.8125 C 22.90625 39.710938 22.398438 39.488281 22 39.1875 C 21.601563 38.886719 21.199219 38.59375 21 38.09375 C 20.699219 37.695313 20.59375 37.101563 20.59375 36.5 L 18.6875 36.5 C 18.6875 37.5 18.886719 38.207031 19.1875 38.90625 C 19.488281 39.507813 19.898438 40.101563 20.5 40.5 C 21.101563 41 21.800781 41.300781 22.5 41.5 C 23.300781 41.699219 24.105469 41.8125 24.90625 41.8125 C 25.605469 41.8125 26.300781 41.792969 27 41.59375 C 27.699219 41.394531 28.304688 41.210938 28.90625 40.8125 C 29.507813 40.414063 29.914063 40.007813 30.3125 39.40625 C 30.613281 38.90625 30.8125 38.207031 30.8125 37.40625 C 30.8125 36.707031 30.707031 36.09375 30.40625 35.59375 C 30.105469 35.09375 29.8125 34.707031 29.3125 34.40625 C 28.914063 34.007813 28.414063 33.792969 27.8125 33.59375 C 27.3125 33.394531 26.695313 33.195313 26.09375 33.09375 C 25.59375 32.894531 25.007813 32.789063 24.40625 32.6875 C 23.90625 32.488281 23.40625 32.386719 22.90625 32.1875 C 22.40625 31.988281 22.113281 31.800781 21.8125 31.5 C 21.511719 31.199219 21.40625 30.90625 21.40625 30.40625 C 21.40625 29.90625 21.488281 29.488281 21.6875 29.1875 C 21.886719 28.886719 22.199219 28.605469 22.5 28.40625 C 22.800781 28.207031 23.195313 28.101563 23.59375 28 C 23.992188 27.898438 24.414063 27.90625 24.8125 27.90625 C 25.8125 27.90625 26.613281 28.09375 27.3125 28.59375 C 28.011719 29.09375 28.414063 29.789063 28.3125 30.6875 L 30.1875 30.6875 C 30.085938 29.886719 29.988281 29.195313 29.6875 28.59375 C 29.386719 27.992188 29 27.492188 28.5 27.09375 C 28 26.695313 27.511719 26.386719 26.8125 26.1875 C 26.210938 25.988281 25.488281 25.90625 24.6875 25.90625 Z"/></svg>