<svg xmlns="http://www.w3.org/2000/svg"  viewBox="0 0 50 50" width="1000px" height="1000px"><path d="M 25.027344 4.0273438 C 23.693964 4.0242638 22.359095 4.6384383 21.537109 5.8710938 C 19.402783 9.0710765 17.26269 12.454189 15.140625 16.023438 C 10.987727 23.010549 7.4701928 29.764418 4.484375 36.134766 L 4.484375 36.136719 C 3.4866714 38.266706 4.386713 40.836393 6.5097656 41.835938 C 10.740729 43.829628 17.521968 46.194518 26.023438 46 C 33.542176 45.828003 39.562202 43.717982 43.519531 41.855469 C 45.651846 40.852409 46.573684 38.270436 45.558594 36.128906 L 45.556641 36.128906 C 42.527436 29.741024 38.992191 22.992795 34.859375 16.023438 C 32.75183 12.47003 30.628392 9.0908191 28.509766 5.8847656 C 27.693026 4.6489869 26.360723 4.0304204 25.027344 4.0273438 z M 25.023438 5.9726562 C 25.709557 5.9743262 26.393583 6.3130601 26.839844 6.9882812 C 28.941218 10.168228 31.05017 13.520329 33.140625 17.044922 C 37.239809 23.957565 40.745252 30.650164 43.75 36.986328 C 44.301456 38.152363 43.81302 39.508232 42.667969 40.046875 C 40.151077 41.231446 36.743051 42.508769 32.638672 43.285156 C 33.105792 39.170789 33.249692 33.882594 32.244141 27.835938 C 32.08031 26.85079 31.889965 25.901847 31.685547 24.974609 A 2 2 0 0 0 32 25 A 2 2 0 0 0 32 21 A 2 2 0 0 0 30.775391 21.421875 C 29.616308 17.42662 28.181305 14.094982 26.892578 11.548828 A 1.0001 1.0001 0 0 0 26.009766 10.988281 A 1.0001 1.0001 0 0 0 25.107422 12.451172 C 26.967996 16.127132 29.157137 21.463252 30.271484 28.164062 C 31.286732 34.26902 31.08884 39.58126 30.587891 43.621094 C 29.123483 43.821795 27.591734 43.963052 25.976562 44 C 17.870032 44.185482 11.398365 41.929653 7.3613281 40.027344 C 6.2303811 39.494888 5.7506255 38.146388 6.2949219 36.984375 C 9.2551041 30.668722 12.742273 23.971809 16.859375 17.044922 C 18.96331 13.506169 21.085498 10.152486 23.201172 6.9804688 C 23.650186 6.3071241 24.337317 5.9709829 25.023438 5.9726562 z M 35 27 A 1 1 0 0 0 35 29 A 1 1 0 0 0 35 27 z M 17 30 A 1 1 0 0 0 17 32 A 1 1 0 0 0 17 30 z M 15 34 A 2 2 0 0 0 15 38 A 2 2 0 0 0 15 34 z M 22 40 A 1 1 0 0 0 22 42 A 1 1 0 0 0 22 40 z"/></svg>