<svg xmlns="http://www.w3.org/2000/svg"  viewBox="0 0 50 50" width="1000px" height="1000px"><path d="M 33.3125 0 C 33.117188 0.0234375 32.9375 0.0820313 32.75 0.15625 L 7.34375 10.46875 C 6.703125 10.726563 6.246094 11.285156 6.125 11.96875 L 2.03125 35.25 C 1.917969 35.894531 2.128906 36.539063 2.59375 37 L 15.09375 49.40625 C 15.910156 50.21875 17.269531 50.179688 18.03125 49.3125 L 47.5 15.75 C 48.195313 14.960938 48.148438 13.738281 47.40625 13 L 34.9375 0.59375 C 34.652344 0.308594 34.289063 0.109375 33.90625 0.03125 C 33.714844 -0.0078125 33.507813 -0.0234375 33.3125 0 Z M 34.28125 2.75 L 37.46875 5.90625 C 36.789063 7.382813 36.828125 8.691406 36.34375 9.3125 C 35.949219 9.820313 35.03125 10.15625 34 10.84375 C 31.96875 12.195313 31.046875 14.25 29.6875 15.3125 C 28.175781 16.496094 25.625 16.839844 23.625 18.65625 C 21.953125 20.175781 21.308594 22.082031 20.6875 23.78125 C 20.066406 25.480469 19.492188 26.945313 18.21875 28.03125 C 17.378906 28.746094 15.753906 29.328125 14.4375 30.34375 C 12.765625 31.636719 12.007813 33.539063 11.46875 35.15625 C 11.199219 35.964844 10.976563 36.722656 10.78125 37.28125 C 10.585938 37.839844 10.367188 38.195313 10.375 38.1875 C 9.9375 38.570313 8.964844 38.8125 8.09375 39.65625 L 4.75 36.34375 Z M 31.5625 2.78125 L 4.3125 33.84375 L 8.09375 12.3125 Z M 39.0625 7.5 L 41.59375 10.03125 C 38.628906 11.804688 36.957031 13.84375 35.78125 15.71875 C 34.4375 17.863281 33.679688 19.660156 32.03125 21.0625 C 31.34375 21.644531 29.609375 22.90625 27.9375 24.1875 C 26.265625 25.46875 24.703125 26.652344 23.78125 27.8125 C 22.734375 29.132813 22.144531 30.847656 21.625 32.40625 C 21.363281 33.1875 21.136719 33.925781 20.9375 34.5 C 20.738281 35.074219 20.5 35.546875 20.53125 35.5 C 18.738281 38.070313 17.46875 38.414063 15.84375 39.25 C 14.492188 39.945313 13.039063 41.125 12.03125 43.5625 L 9.53125 41.0625 C 9.964844 40.722656 10.808594 40.457031 11.6875 39.6875 C 12.257813 39.191406 12.457031 38.59375 12.6875 37.9375 C 12.917969 37.28125 13.09375 36.53125 13.34375 35.78125 C 13.84375 34.285156 14.550781 32.785156 15.6875 31.90625 C 16.589844 31.207031 18.207031 30.664063 19.5 29.5625 C 21.222656 28.09375 21.9375 26.175781 22.5625 24.46875 C 23.1875 22.761719 23.726563 21.253906 24.96875 20.125 C 26.355469 18.867188 28.8125 18.511719 30.90625 16.875 C 32.789063 15.402344 33.726563 13.429688 35.125 12.5 C 35.835938 12.027344 37.050781 11.671875 37.9375 10.53125 C 38.75 9.484375 38.882813 8.355469 39.0625 7.5 Z M 22 8 C 21.449219 8 21 8.449219 21 9 C 21 9.550781 21.449219 10 22 10 C 22.550781 10 23 9.550781 23 9 C 23 8.449219 22.550781 8 22 8 Z M 16 11 C 15.449219 11 15 11.449219 15 12 C 15 12.550781 15.449219 13 16 13 C 16.550781 13 17 12.550781 17 12 C 17 11.449219 16.550781 11 16 11 Z M 43.8125 12.21875 L 46 14.40625 L 16.53125 48 C 16.515625 48.015625 16.515625 48.015625 16.5 48 L 14.375 45.875 C 15.179688 42.914063 15.855469 42.636719 17.21875 41.9375 C 18.597656 41.230469 20.847656 40.273438 23 37.1875 C 23.394531 36.621094 23.558594 36.140625 23.78125 35.5 C 24.003906 34.859375 24.222656 34.117188 24.46875 33.375 C 24.964844 31.890625 25.613281 30.332031 26.125 29.6875 C 26.507813 29.207031 28.148438 27.8125 29.78125 26.5625 C 31.414063 25.3125 33.054688 24.121094 33.96875 23.34375 C 36.195313 21.453125 37.144531 19.226563 38.34375 17.3125 C 39.480469 15.496094 40.820313 13.824219 43.8125 12.21875 Z M 11 14 C 10.449219 14 10 14.449219 10 15 C 10 15.550781 10.449219 16 11 16 C 11.550781 16 12 15.550781 12 15 C 12 14.449219 11.550781 14 11 14 Z M 15 16 C 14.449219 16 14 16.449219 14 17 C 14 17.550781 14.449219 18 15 18 C 15.550781 18 16 17.550781 16 17 C 16 16.449219 15.550781 16 15 16 Z M 9 22 C 8.449219 22 8 22.449219 8 23 C 8 23.550781 8.449219 24 9 24 C 9.550781 24 10 23.550781 10 23 C 10 22.449219 9.550781 22 9 22 Z"/></svg>