<svg xmlns="http://www.w3.org/2000/svg"  viewBox="0 0 50 50" width="1000px" height="1000px"><path d="M 23 9 C 21.865876 9 20.921952 9.5616867 20.195312 10.324219 C 19.805215 10.191257 19.441262 10 19 10 C 17.994246 10 17.133597 10.444429 16.435547 11.054688 C 16.288937 11.035342 16.165897 11 16 11 C 14.930086 11 14.009167 11.484501 13.296875 12.164062 C 12.175771 12.242973 11.205747 12.645824 10.550781 13.257812 C 9.9513419 13.817919 9.570495 14.473651 9.390625 15.142578 C 4.5226142 14.605167 1.1777344 14.015625 1.1777344 14.015625 L 0 13.802734 L 0 17.710938 L 0.671875 17.943359 C 0.671875 17.943359 6.1558095 20.014964 7.0214844 24.068359 C 7.6128329 26.838194 8.9729915 30.240903 11.259766 33.03125 C 13.294045 35.513502 16.129195 37.507018 19.714844 37.917969 C 19.365914 38.252444 18.982327 38.609079 18.550781 38.986328 C 17.054528 40.294324 15.108189 41.6716 13.744141 42.033203 A 1.0001 1.0001 0 0 0 13 43 L 13 44 A 1.0001 1.0001 0 0 0 14 45 L 34 45 A 1.0001 1.0001 0 0 0 35 44 L 35 43 A 1.0001 1.0001 0 0 0 34.255859 42.033203 C 32.888873 41.670821 30.9075 40.288271 29.378906 38.978516 C 28.948247 38.60951 28.562036 38.258321 28.210938 37.929688 C 31.921224 37.536943 35.032123 35.401361 37.216797 32.476562 C 39.639694 29.232837 40.998575 25.014662 40.998047 20.867188 L 40.998047 20.8125 L 40.992188 20.759766 C 40.742247 18.46214 41.367904 17.131247 42.005859 16.308594 C 42.632838 15.500096 43.210371 15.248847 43.230469 15.240234 C 43.613366 15.084055 44.03813 15 44.5 15 C 46.451847 15 48 16.548153 48 18.5 C 48 19.542858 47.681456 20.432738 47.169922 21.037109 C 46.658388 21.641481 45.975924 22 45 22 A 1.0001 1.0001 0 1 0 45 24 C 46.514076 24 47.8313 23.353206 48.697266 22.330078 C 49.563231 21.30695 50 19.947142 50 18.5 C 50 15.471847 47.528153 13 44.5 13 C 43.785706 13 43.093612 13.133214 42.458984 13.394531 A 1.0001591 1.0001591 0 0 0 42.445312 13.400391 C 42.444499 13.400744 42.440353 13.401944 42.439453 13.402344 C 41.656771 13.741912 39.798073 14.410344 36.648438 14.984375 C 36.467906 14.325329 36.162428 13.706231 35.640625 13.214844 C 34.934791 12.550153 33.909159 12.231256 32.681641 12.146484 C 31.971272 11.477966 31.059832 11 30 11 C 29.834103 11 29.711063 11.035337 29.564453 11.054688 C 28.866403 10.444426 28.005754 10 27 10 C 26.558738 10 26.194785 10.191257 25.804688 10.324219 C 25.078049 9.5616867 24.134124 9 23 9 z M 23 11 C 23.72109 11 24.328274 11.370445 24.683594 11.933594 L 25.193359 12.740234 L 26.023438 12.269531 C 26.335559 12.092189 26.645185 12 27 12 C 27.621756 12 28.157436 12.281892 28.53125 12.730469 L 28.923828 13.201172 L 29.521484 13.064453 C 29.700614 13.023742 29.871111 13 30 13 C 30.621756 13 31.157436 13.281892 31.53125 13.730469 L 31.822266 14.080078 L 32.277344 14.089844 C 33.382137 14.114004 33.947073 14.368213 34.269531 14.671875 C 34.440058 14.832462 34.569352 15.038197 34.666016 15.300781 C 31.854491 15.700938 28.271314 16 23.75 16 C 19.381247 16 15.094017 15.716119 11.445312 15.363281 C 11.552874 15.147589 11.705032 14.915889 11.916016 14.71875 C 12.315636 14.345351 12.859589 14.068937 13.673828 14.089844 L 14.158203 14.101562 L 14.46875 13.730469 C 14.842564 13.28189 15.378244 13 16 13 C 16.128889 13 16.299386 13.023743 16.478516 13.064453 L 17.076172 13.201172 L 17.46875 12.730469 C 17.842564 12.281895 18.378244 12 19 12 C 19.354815 12 19.66444 12.09219 19.976562 12.269531 L 20.806641 12.740234 L 21.316406 11.933594 C 21.671726 11.370445 22.27891 11 23 11 z M 2 16.152344 C 3.6399773 16.435353 12.95161 18 23.75 18 C 32.246356 18 36.827929 17.044682 39.882812 16.173828 C 39.267864 17.34099 38.791871 18.812824 38.998047 20.882812 C 38.995035 24.582556 37.748352 28.423522 35.615234 31.279297 C 33.479172 34.13907 30.527353 36 26.978516 36 L 21.082031 36 C 17.516122 36 14.829367 34.231825 12.806641 31.763672 C 10.783914 29.295519 9.5071671 26.126556 8.9785156 23.650391 C 7.9207053 18.697349 3.0528996 16.786769 2 16.400391 L 2 16.152344 z M 22.306641 38.150391 L 25.576172 38.150391 C 25.708385 38.286193 25.861503 38.442535 26.072266 38.650391 C 26.569829 39.141092 27.267297 39.803299 28.078125 40.498047 C 29.145581 41.412683 30.402873 42.283315 31.703125 43 L 16.28125 43 C 17.573649 42.281544 18.818227 41.409168 19.867188 40.492188 C 20.662935 39.79656 21.345921 39.133857 21.832031 38.642578 C 22.034236 38.438224 22.178461 38.285406 22.306641 38.150391 z"/></svg>