<svg fill="#000000" xmlns="http://www.w3.org/2000/svg"  viewBox="0 0 50 50" width="1000px" height="1000px"><path d="M 11.824219 3.949219 C 11.574219 4 11.347656 4.148438 11.199219 4.398438 L 10 6.199219 L 8.800781 4.398438 C 8.5 4 7.898438 3.898438 7.398438 4.199219 C 7 4.5 6.898438 5.101563 7.199219 5.601563 L 8.875 8.117188 C 6.273438 8.65625 4.175781 11.03125 4 14.097656 L 4 14.800781 C 4.300781 34.300781 15.699219 45.699219 35.199219 46 L 36 46 C 38.980469 45.824219 41.34375 43.726563 41.882813 41.125 L 44.402344 42.800781 C 44.601563 42.902344 44.800781 43 45 43 C 45.300781 43 45.601563 42.800781 45.902344 42.597656 C 46.199219 42.097656 46.097656 41.5 45.597656 41.199219 L 43.800781 40 L 45.5 38.902344 C 46 38.601563 46.101563 38 45.800781 37.5 C 45.5 37 44.902344 36.898438 44.402344 37.199219 L 41.882813 38.875 C 41.34375 36.273438 38.96875 34.175781 35.902344 34 L 35.699219 34 C 22.199219 33.898438 16.101563 27.902344 16 14.402344 L 16 14 C 15.824219 11.03125 13.742188 8.671875 11.152344 8.125 L 12.902344 5.5 C 13.199219 5 13.097656 4.398438 12.597656 4.101563 C 12.347656 3.949219 12.074219 3.898438 11.824219 3.949219 Z M 10 10 C 12.101563 10 13.800781 11.800781 14 14.097656 L 14 14.402344 C 14.101563 28.800781 21.199219 35.898438 35.699219 36 L 35.800781 36 C 38.101563 36.199219 40 38 40 40 C 40 42.101563 38.199219 43.800781 35.902344 44 L 35.199219 44 C 16.898438 43.699219 6.300781 33.101563 6 14.800781 L 6 14.199219 C 6.199219 11.800781 7.898438 10 10 10 Z"/></svg>