<svg xmlns="http://www.w3.org/2000/svg"  viewBox="0 0 50 50" width="1000px" height="1000px"><path d="M 12.003906 6 C 10.097656 6 8.359375 7.078125 7.515625 8.789063 C 7.320313 9.1875 4 16.011719 4 25 C 4 33.988281 7.320313 40.816406 7.515625 41.210938 C 8.359375 42.921875 10.09375 44 12.003906 44 C 12.769531 44 13.523438 43.824219 14.210938 43.484375 C 16.675781 42.269531 17.699219 39.257813 16.484375 36.792969 C 16.523438 36.863281 16.453125 36.722656 16.386719 36.566406 C 16.316406 36.414063 16.21875 36.1875 16.105469 35.890625 C 15.871094 35.296875 15.554688 34.4375 15.246094 33.371094 C 14.621094 31.238281 14 28.28125 14 25 C 14 18.527344 16.386719 13.421875 16.480469 13.21875 L 16.484375 13.207031 C 17.695313 10.738281 16.671875 7.726563 14.210938 6.515625 L 14.207031 6.515625 C 13.519531 6.175781 12.769531 6 12.003906 6 Z M 27 6 C 25.09375 6 23.355469 7.078125 22.515625 8.789063 C 22.339844 9.144531 19 16.011719 19 25 C 19 33.988281 22.339844 40.855469 22.515625 41.207031 L 22.515625 41.210938 C 23.355469 42.921875 25.09375 44 27.003906 44 C 27.769531 44 28.519531 43.824219 29.207031 43.484375 C 31.675781 42.269531 32.699219 39.257813 31.484375 36.792969 C 31.519531 36.863281 31.453125 36.722656 31.386719 36.566406 C 31.316406 36.414063 31.21875 36.1875 31.101563 35.890625 C 30.867188 35.296875 30.554688 34.4375 30.246094 33.371094 C 29.621094 31.238281 29 28.28125 29 25 C 29 18.507813 31.429688 13.328125 31.484375 13.210938 L 31.480469 13.21875 C 32.695313 10.746094 31.671875 7.730469 29.207031 6.515625 C 28.519531 6.175781 27.765625 6 27 6 Z M 42.003906 6 C 40.097656 6 38.359375 7.078125 37.515625 8.789063 C 37.320313 9.1875 34 16.011719 34 25 C 34 33.988281 37.320313 40.816406 37.515625 41.210938 C 38.359375 42.921875 40.09375 44 42.003906 44 C 42.769531 44 43.523438 43.824219 44.210938 43.484375 C 46.675781 42.269531 47.699219 39.257813 46.484375 36.792969 C 46.523438 36.863281 46.453125 36.722656 46.386719 36.566406 C 46.316406 36.414063 46.21875 36.1875 46.105469 35.890625 C 45.871094 35.296875 45.554688 34.4375 45.246094 33.371094 C 44.621094 31.238281 44 28.28125 44 25 C 44 18.527344 46.386719 13.421875 46.480469 13.21875 L 46.484375 13.207031 C 47.695313 10.738281 46.671875 7.726563 44.210938 6.515625 L 44.207031 6.515625 C 43.519531 6.175781 42.769531 6 42.003906 6 Z M 12.003906 8 C 12.46875 8 12.902344 8.101563 13.328125 8.308594 C 14.816406 9.042969 15.425781 10.832031 14.6875 12.339844 L 14.679688 12.347656 C 14.550781 12.621094 12 18.015625 12 25 C 12 28.53125 12.660156 31.667969 13.324219 33.933594 C 13.65625 35.066406 13.988281 35.984375 14.242188 36.625 C 14.367188 36.945313 14.476563 37.199219 14.554688 37.375 C 14.632813 37.546875 14.648438 37.585938 14.6875 37.671875 L 14.691406 37.671875 C 15.425781 39.167969 14.816406 40.957031 13.328125 41.691406 C 12.902344 41.898438 12.46875 42 12.003906 42 C 10.839844 42 9.824219 41.371094 9.308594 40.328125 L 9.308594 40.324219 C 9.222656 40.152344 6 33.492188 6 25 C 6 16.507813 9.222656 9.847656 9.308594 9.675781 L 9.308594 9.671875 C 9.820313 8.628906 10.839844 8 12.003906 8 Z M 27 8 C 27.464844 8 27.898438 8.101563 28.324219 8.308594 C 29.816406 9.042969 30.425781 10.832031 29.6875 12.339844 L 29.683594 12.34375 L 29.679688 12.34375 C 29.523438 12.671875 27 18.015625 27 25 C 27 28.53125 27.660156 31.667969 28.324219 33.933594 C 28.65625 35.066406 28.988281 35.984375 29.242188 36.625 C 29.367188 36.945313 29.476563 37.199219 29.550781 37.375 C 29.628906 37.546875 29.648438 37.585938 29.6875 37.671875 C 30.425781 39.167969 29.816406 40.957031 28.328125 41.691406 L 28.324219 41.691406 C 27.902344 41.898438 27.46875 42 27.003906 42 C 25.839844 42 24.824219 41.371094 24.308594 40.328125 C 24.203125 40.113281 21 33.488281 21 25 C 21 16.511719 24.203125 9.886719 24.308594 9.671875 C 24.824219 8.628906 25.835938 8 27 8 Z M 42.003906 8 C 42.46875 8 42.902344 8.101563 43.328125 8.308594 C 44.816406 9.042969 45.425781 10.832031 44.6875 12.339844 L 44.679688 12.347656 C 44.550781 12.621094 42 18.015625 42 25 C 42 28.53125 42.660156 31.667969 43.324219 33.933594 C 43.65625 35.066406 43.988281 35.984375 44.242188 36.625 C 44.367188 36.945313 44.476563 37.199219 44.554688 37.375 C 44.632813 37.546875 44.648438 37.585938 44.6875 37.671875 L 44.691406 37.671875 C 45.425781 39.167969 44.816406 40.957031 43.328125 41.691406 C 42.902344 41.898438 42.46875 42 42.003906 42 C 40.839844 42 39.824219 41.371094 39.308594 40.328125 L 39.308594 40.324219 C 39.222656 40.152344 36 33.492188 36 25 C 36 16.507813 39.222656 9.847656 39.308594 9.675781 L 39.308594 9.671875 C 39.820313 8.628906 40.839844 8 42.003906 8 Z M 12.070313 12.460938 C 11.914063 12.460938 11.757813 12.5 11.617188 12.574219 L 9.109375 13.828125 C 8.617188 14.074219 8.417969 14.675781 8.664063 15.167969 C 8.910156 15.660156 9.511719 15.863281 10.003906 15.613281 L 12.511719 14.363281 C 12.933594 14.160156 13.160156 13.691406 13.054688 13.234375 C 12.949219 12.777344 12.539063 12.457031 12.070313 12.460938 Z M 27.066406 12.460938 C 26.910156 12.460938 26.757813 12.5 26.617188 12.574219 L 24.109375 13.828125 C 23.617188 14.074219 23.417969 14.675781 23.664063 15.167969 C 23.910156 15.664063 24.511719 15.863281 25.003906 15.613281 L 27.511719 14.363281 C 27.933594 14.160156 28.160156 13.691406 28.054688 13.234375 C 27.949219 12.777344 27.539063 12.457031 27.066406 12.460938 Z M 42.070313 12.460938 C 41.914063 12.460938 41.757813 12.5 41.617188 12.574219 L 39.109375 13.828125 C 38.617188 14.074219 38.417969 14.675781 38.664063 15.167969 C 38.910156 15.664063 39.511719 15.863281 40.003906 15.613281 L 42.511719 14.363281 C 42.933594 14.160156 43.160156 13.691406 43.054688 13.234375 C 42.949219 12.777344 42.539063 12.457031 42.070313 12.460938 Z M 10.347656 19.324219 C 10.191406 19.324219 10.035156 19.363281 9.898438 19.433594 L 7.75 20.503906 C 7.257813 20.753906 7.058594 21.355469 7.304688 21.847656 C 7.550781 22.34375 8.152344 22.542969 8.648438 22.296875 L 10.792969 21.222656 C 11.210938 21.019531 11.4375 20.550781 11.328125 20.09375 C 11.222656 19.640625 10.816406 19.320313 10.347656 19.324219 Z M 25.347656 19.324219 C 25.191406 19.324219 25.035156 19.363281 24.894531 19.433594 L 22.75 20.503906 C 22.257813 20.753906 22.054688 21.355469 22.300781 21.847656 C 22.550781 22.339844 23.152344 22.542969 23.644531 22.296875 L 25.792969 21.222656 C 26.210938 21.019531 26.4375 20.550781 26.328125 20.09375 C 26.222656 19.640625 25.816406 19.320313 25.347656 19.324219 Z M 40.347656 19.324219 C 40.191406 19.324219 40.035156 19.363281 39.894531 19.433594 L 37.75 20.503906 C 37.257813 20.753906 37.058594 21.355469 37.304688 21.847656 C 37.550781 22.339844 38.152344 22.542969 38.644531 22.296875 L 40.792969 21.222656 C 41.210938 21.019531 41.4375 20.550781 41.328125 20.09375 C 41.222656 19.640625 40.816406 19.320313 40.347656 19.324219 Z M 10.042969 25.476563 C 9.882813 25.476563 9.726563 25.515625 9.585938 25.589844 L 7.644531 26.5625 C 7.308594 26.710938 7.085938 27.03125 7.058594 27.398438 C 7.03125 27.765625 7.207031 28.117188 7.515625 28.316406 C 7.824219 28.511719 8.21875 28.527344 8.539063 28.347656 L 10.484375 27.375 C 10.902344 27.171875 11.125 26.707031 11.019531 26.25 C 10.914063 25.796875 10.507813 25.472656 10.042969 25.476563 Z M 25.039063 25.476563 C 24.882813 25.476563 24.726563 25.515625 24.589844 25.589844 L 22.644531 26.5625 C 22.308594 26.710938 22.085938 27.03125 22.058594 27.398438 C 22.03125 27.765625 22.207031 28.117188 22.515625 28.316406 C 22.824219 28.511719 23.21875 28.527344 23.539063 28.347656 L 25.484375 27.375 C 25.902344 27.171875 26.128906 26.703125 26.019531 26.25 C 25.914063 25.792969 25.507813 25.472656 25.039063 25.476563 Z M 40.042969 25.476563 C 39.882813 25.476563 39.726563 25.515625 39.589844 25.589844 L 37.644531 26.5625 C 37.308594 26.710938 37.085938 27.03125 37.058594 27.398438 C 37.03125 27.765625 37.207031 28.117188 37.515625 28.316406 C 37.824219 28.511719 38.21875 28.527344 38.539063 28.347656 L 40.484375 27.375 C 40.902344 27.171875 41.125 26.707031 41.019531 26.25 C 40.914063 25.796875 40.507813 25.472656 40.042969 25.476563 Z M 10.796875 31.097656 C 10.640625 31.097656 10.484375 31.136719 10.34375 31.207031 L 8.511719 32.125 C 8.179688 32.28125 7.960938 32.601563 7.933594 32.964844 C 7.910156 33.328125 8.082031 33.675781 8.386719 33.875 C 8.695313 34.070313 9.082031 34.089844 9.40625 33.917969 L 11.238281 33 C 11.660156 32.792969 11.882813 32.328125 11.777344 31.871094 C 11.671875 31.417969 11.265625 31.09375 10.796875 31.097656 Z M 25.796875 31.097656 C 25.636719 31.097656 25.484375 31.136719 25.34375 31.207031 L 23.511719 32.125 C 23.015625 32.375 22.816406 32.976563 23.0625 33.46875 C 23.308594 33.960938 23.910156 34.164063 24.40625 33.917969 L 26.238281 33 C 26.660156 32.792969 26.882813 32.324219 26.777344 31.871094 C 26.671875 31.414063 26.261719 31.09375 25.796875 31.097656 Z M 40.796875 31.097656 C 40.640625 31.097656 40.484375 31.136719 40.34375 31.207031 L 38.511719 32.125 C 38.179688 32.28125 37.960938 32.601563 37.933594 32.964844 C 37.910156 33.328125 38.082031 33.675781 38.386719 33.875 C 38.695313 34.070313 39.082031 34.089844 39.40625 33.917969 L 41.238281 33 C 41.660156 32.792969 41.882813 32.328125 41.777344 31.871094 C 41.671875 31.417969 41.265625 31.09375 40.796875 31.097656 Z M 12.371094 36.3125 C 12.214844 36.3125 12.058594 36.347656 11.917969 36.421875 L 10.125 37.316406 C 9.632813 37.566406 9.433594 38.167969 9.679688 38.660156 C 9.925781 39.152344 10.527344 39.355469 11.019531 39.109375 L 12.8125 38.210938 C 13.234375 38.007813 13.457031 37.539063 13.351563 37.085938 C 13.246094 36.628906 12.839844 36.308594 12.371094 36.3125 Z M 27.371094 36.3125 C 27.210938 36.3125 27.058594 36.351563 26.917969 36.421875 L 25.125 37.316406 C 24.632813 37.566406 24.433594 38.167969 24.679688 38.660156 C 24.925781 39.152344 25.527344 39.355469 26.019531 39.109375 L 27.8125 38.210938 C 28.234375 38.007813 28.457031 37.539063 28.351563 37.082031 C 28.246094 36.628906 27.835938 36.308594 27.371094 36.3125 Z M 42.371094 36.3125 C 42.214844 36.3125 42.058594 36.347656 41.917969 36.421875 L 40.125 37.316406 C 39.632813 37.566406 39.433594 38.167969 39.679688 38.660156 C 39.925781 39.152344 40.527344 39.355469 41.019531 39.109375 L 42.8125 38.210938 C 43.234375 38.007813 43.457031 37.539063 43.351563 37.085938 C 43.246094 36.628906 42.839844 36.308594 42.371094 36.3125 Z"/></svg>