<svg xmlns="http://www.w3.org/2000/svg"  viewBox="0 0 50 50" width="1000px" height="1000px"><path d="M 25 2 C 23.539063 2 22.398438 2.765625 21.65625 3.609375 C 21.058594 4.300781 20.777344 4.980469 20.527344 5.578125 C 18.984375 5.933594 17.539063 6.503906 16.15625 7.195313 L 14.277344 4.632813 L 13.5 5.078125 C 12.226563 5.816406 11.621094 7.0625 11.40625 8.171875 C 11.234375 9.074219 11.335938 9.804688 11.417969 10.441406 C 10.285156 11.5 9.316406 12.714844 8.453125 14.007813 L 5.53125 12.722656 L 5.078125 13.5 C 4.347656 14.769531 4.441406 16.144531 4.8125 17.214844 C 5.109375 18.078125 5.5625 18.664063 5.953125 19.175781 C 5.503906 20.632813 5.269531 22.175781 5.171875 23.753906 L 2 24.105469 L 2 25 C 2 26.460938 2.765625 27.601563 3.609375 28.34375 C 4.300781 28.941406 4.980469 29.222656 5.578125 29.472656 C 5.933594 31.015625 6.503906 32.460938 7.195313 33.84375 L 4.632813 35.722656 L 5.078125 36.5 C 5.816406 37.773438 7.0625 38.378906 8.171875 38.59375 C 9.074219 38.765625 9.804688 38.664063 10.441406 38.582031 C 11.5 39.714844 12.714844 40.683594 14.007813 41.546875 L 12.722656 44.46875 L 13.5 44.921875 C 14.769531 45.652344 16.144531 45.558594 17.214844 45.1875 C 18.078125 44.890625 18.664063 44.4375 19.175781 44.046875 C 20.632813 44.496094 22.175781 44.730469 23.753906 44.828125 L 24.105469 48 L 25 48 C 26.460938 48 27.601563 47.234375 28.34375 46.390625 C 28.941406 45.699219 29.222656 45.019531 29.472656 44.421875 C 31.015625 44.066406 32.460938 43.496094 33.84375 42.808594 L 35.722656 45.367188 L 36.5 44.921875 C 37.773438 44.183594 38.378906 42.9375 38.59375 41.828125 C 38.765625 40.925781 38.664063 40.195313 38.582031 39.558594 C 39.714844 38.5 40.683594 37.285156 41.546875 35.992188 L 44.46875 37.277344 L 44.921875 36.5 C 45.652344 35.230469 45.558594 33.855469 45.1875 32.785156 C 44.890625 31.921875 44.4375 31.335938 44.046875 30.824219 C 44.496094 29.363281 44.730469 27.824219 44.828125 26.246094 L 48 25.894531 L 48 25 C 48 23.539063 47.234375 22.398438 46.390625 21.65625 C 45.699219 21.058594 45.019531 20.777344 44.421875 20.527344 C 44.066406 18.984375 43.496094 17.539063 42.808594 16.15625 L 45.367188 14.277344 L 44.921875 13.5 C 44.183594 12.226563 42.9375 11.621094 41.828125 11.40625 C 40.925781 11.234375 40.195313 11.335938 39.558594 11.417969 C 38.5 10.285156 37.285156 9.316406 35.992188 8.453125 L 37.277344 5.53125 L 36.5 5.078125 C 35.230469 4.347656 33.855469 4.441406 32.785156 4.8125 C 31.921875 5.109375 31.335938 5.5625 30.824219 5.953125 C 29.367188 5.503906 27.824219 5.269531 26.246094 5.171875 L 25.894531 2 Z M 24.128906 4.210938 L 24.4375 7 L 25.316406 7.015625 C 27.195313 7.050781 28.996094 7.367188 30.691406 7.933594 L 31.21875 8.109375 L 31.644531 7.757813 C 32.046875 7.421875 32.730469 6.945313 33.4375 6.703125 C 33.851563 6.558594 34.246094 6.523438 34.640625 6.5625 L 33.511719 9.132813 L 34.265625 9.585938 C 35.832031 10.535156 37.242188 11.707031 38.453125 13.066406 L 38.820313 13.484375 L 39.367188 13.390625 C 39.878906 13.304688 40.710938 13.230469 41.449219 13.371094 C 41.878906 13.453125 42.242188 13.621094 42.566406 13.855469 L 40.3125 15.511719 L 40.742188 16.28125 C 41.621094 17.859375 42.269531 19.578125 42.640625 21.402344 L 42.75 21.941406 L 43.265625 22.136719 C 43.761719 22.320313 44.507813 22.675781 45.074219 23.167969 C 45.398438 23.449219 45.625 23.769531 45.785156 24.128906 L 43 24.4375 L 42.984375 25.316406 C 42.949219 27.195313 42.628906 29 42.066406 30.691406 L 41.890625 31.21875 L 42.246094 31.644531 C 42.578125 32.046875 43.054688 32.730469 43.296875 33.4375 C 43.441406 33.851563 43.476563 34.246094 43.4375 34.640625 L 40.863281 33.511719 L 40.410156 34.265625 C 39.464844 35.832031 38.292969 37.242188 36.933594 38.453125 L 36.515625 38.820313 L 36.609375 39.367188 C 36.695313 39.878906 36.769531 40.710938 36.628906 41.449219 C 36.546875 41.878906 36.378906 42.242188 36.144531 42.566406 L 34.488281 40.3125 L 33.71875 40.742188 C 32.140625 41.621094 30.421875 42.269531 28.597656 42.640625 L 28.058594 42.75 L 27.863281 43.265625 C 27.679688 43.761719 27.324219 44.507813 26.832031 45.074219 C 26.550781 45.398438 26.230469 45.625 25.871094 45.785156 L 25.5625 43 L 24.683594 42.984375 C 22.804688 42.949219 21.003906 42.632813 19.308594 42.066406 L 18.78125 41.890625 L 18.355469 42.246094 C 17.953125 42.578125 17.269531 43.054688 16.5625 43.296875 C 16.148438 43.441406 15.753906 43.476563 15.359375 43.4375 L 16.488281 40.863281 L 15.734375 40.410156 C 14.167969 39.464844 12.757813 38.292969 11.546875 36.933594 L 11.179688 36.515625 L 10.632813 36.609375 C 10.121094 36.695313 9.289063 36.769531 8.550781 36.628906 C 8.121094 36.546875 7.757813 36.378906 7.433594 36.144531 L 9.6875 34.488281 L 9.257813 33.71875 C 8.378906 32.140625 7.730469 30.421875 7.359375 28.597656 L 7.25 28.058594 L 6.734375 27.863281 C 6.238281 27.679688 5.492188 27.324219 4.929688 26.832031 C 4.601563 26.550781 4.375 26.230469 4.210938 25.871094 L 7 25.5625 L 7.015625 24.683594 C 7.050781 22.804688 7.367188 21.003906 7.933594 19.308594 L 8.109375 18.78125 L 7.757813 18.355469 C 7.421875 17.953125 6.945313 17.269531 6.703125 16.5625 C 6.558594 16.148438 6.523438 15.753906 6.5625 15.359375 L 9.132813 16.488281 L 9.585938 15.734375 C 10.535156 14.167969 11.707031 12.757813 13.066406 11.546875 L 13.484375 11.179688 L 13.390625 10.632813 C 13.304688 10.121094 13.230469 9.289063 13.371094 8.550781 C 13.453125 8.121094 13.621094 7.757813 13.855469 7.433594 L 15.511719 9.6875 L 16.28125 9.257813 C 17.859375 8.378906 19.578125 7.730469 21.402344 7.359375 L 21.941406 7.25 L 22.136719 6.734375 C 22.320313 6.238281 22.675781 5.492188 23.167969 4.929688 C 23.449219 4.601563 23.769531 4.375 24.128906 4.210938 Z M 25 20 C 22.25 20 20 22.25 20 25 C 20 27.75 22.25 30 25 30 C 27.75 30 30 27.75 30 25 C 30 22.25 27.75 20 25 20 Z M 25 22 C 26.667969 22 28 23.332031 28 25 C 28 26.667969 26.667969 28 25 28 C 23.332031 28 22 26.667969 22 25 C 22 23.332031 23.332031 22 25 22 Z M 15 24 C 14.449219 24 14 24.449219 14 25 C 14 25.550781 14.449219 26 15 26 C 15.550781 26 16 25.550781 16 25 C 16 24.449219 15.550781 24 15 24 Z M 35 24 C 34.449219 24 34 24.449219 34 25 C 34 25.550781 34.449219 26 35 26 C 35.550781 26 36 25.550781 36 25 C 36 24.449219 35.550781 24 35 24 Z"/></svg>