<svg xmlns="http://www.w3.org/2000/svg"  viewBox="0 0 50 50" width="1000px" height="1000px"><path d="M 25 5 C 18.238281 5 12.117188 6.363281 7.59375 8.625 C 3.15625 10.84375 0.113281 14.023438 0 17.78125 C -0.00390625 17.832031 -0.00390625 17.886719 0 17.9375 C 0 17.957031 0 17.980469 0 18 L 0 32 C 0 35.855469 3.070313 39.113281 7.59375 41.375 C 12.117188 43.636719 18.238281 45 25 45 C 31.761719 45 37.882813 43.636719 42.40625 41.375 C 46.929688 39.113281 50 35.855469 50 32 L 50 18 C 50 14.144531 46.929688 10.886719 42.40625 8.625 C 37.882813 6.363281 31.761719 5 25 5 Z M 25 7 C 31.492188 7 37.371094 8.324219 41.53125 10.40625 C 45.617188 12.449219 47.917969 15.121094 48 17.84375 C 48 17.875 48 17.90625 48 17.9375 C 48 17.957031 48 17.980469 48 18 C 48 20.773438 45.691406 23.511719 41.53125 25.59375 C 37.371094 27.675781 31.492188 29 25 29 C 18.507813 29 12.628906 27.675781 8.46875 25.59375 C 4.308594 23.511719 2 20.773438 2 18 C 2.007813 17.9375 2.007813 17.875 2 17.8125 C 2.097656 15.101563 4.398438 12.441406 8.46875 10.40625 C 12.628906 8.324219 18.507813 7 25 7 Z M 25 11 C 20.480469 11 16.394531 11.667969 13.34375 12.8125 C 11.816406 13.382813 10.539063 14.070313 9.59375 14.90625 C 8.648438 15.742188 8 16.8125 8 18 C 8 19.1875 8.648438 20.257813 9.59375 21.09375 C 10.539063 21.929688 11.816406 22.617188 13.34375 23.1875 C 16.394531 24.332031 20.480469 25 25 25 C 29.519531 25 33.605469 24.332031 36.65625 23.1875 C 38.183594 22.617188 39.460938 21.929688 40.40625 21.09375 C 41.351563 20.257813 42 19.1875 42 18 C 42 16.8125 41.351563 15.742188 40.40625 14.90625 C 39.460938 14.070313 38.183594 13.382813 36.65625 12.8125 C 33.605469 11.667969 29.519531 11 25 11 Z M 25 13 C 29.316406 13 33.230469 13.660156 35.96875 14.6875 C 37.339844 15.199219 38.417969 15.808594 39.09375 16.40625 C 39.769531 17.003906 40 17.53125 40 18 C 40 18.46875 39.769531 18.996094 39.09375 19.59375 C 38.417969 20.191406 37.339844 20.800781 35.96875 21.3125 C 33.230469 22.339844 29.316406 23 25 23 C 20.683594 23 16.769531 22.339844 14.03125 21.3125 C 12.660156 20.800781 11.582031 20.191406 10.90625 19.59375 C 10.230469 18.996094 10 18.46875 10 18 C 10 17.53125 10.230469 17.003906 10.90625 16.40625 C 11.582031 15.808594 12.660156 15.199219 14.03125 14.6875 C 16.769531 13.660156 20.683594 13 25 13 Z M 2 23.15625 C 3.335938 24.785156 5.273438 26.214844 7.59375 27.375 C 11.203125 29.179688 15.839844 30.386719 21 30.8125 L 21 34.65625 L 29 32 L 29 30.8125 C 34.160156 30.386719 38.796875 29.179688 42.40625 27.375 C 44.726563 26.214844 46.664063 24.785156 48 23.15625 L 48 32 C 48 34.773438 45.691406 37.511719 41.53125 39.59375 C 38.242188 41.238281 33.886719 42.390625 29 42.8125 L 29 39.34375 L 21 42 L 21 42.8125 C 16.113281 42.390625 11.757813 41.238281 8.46875 39.59375 C 4.308594 37.511719 2 34.773438 2 32 Z M 29 34.46875 L 21 37.125 L 21 39.53125 L 29 36.875 Z"/></svg>