<svg xmlns="http://www.w3.org/2000/svg"  viewBox="0 0 50 50" width="1000px" height="1000px"><path d="M 33.0625 2.625 L 32.375 3.34375 L 29.84375 5.84375 C 28.429688 7.257813 28.289063 9.757813 29.90625 11.375 C 30.007813 11.476563 30.460938 11.929688 30.625 12.09375 C 30.585938 12.269531 30.390625 12.765625 29.5625 13.59375 L 18.53125 24.65625 C 18.378906 24.738281 18.25 24.855469 18.15625 25 L 15.53125 27.65625 C 15.378906 27.738281 15.25 27.855469 15.15625 28 L 12.53125 30.65625 C 12.378906 30.738281 12.25 30.855469 12.15625 31 L 9.53125 33.65625 C 9.378906 33.738281 9.25 33.855469 9.15625 34 L 5.96875 37.1875 L 5.875 37.40625 L 3.0625 45.6875 L 2.375 47.59375 L 4.3125 46.9375 L 12.59375 44.125 L 12.8125 44.03125 L 12.96875 43.875 L 13.03125 43.78125 L 13.0625 43.78125 C 13.300781 43.679688 13.492188 43.488281 13.59375 43.25 L 16.0625 40.78125 C 16.308594 40.671875 16.5 40.46875 16.59375 40.21875 L 19.03125 37.78125 C 19.289063 37.679688 19.492188 37.476563 19.59375 37.21875 L 22.03125 34.78125 C 22.042969 34.769531 22.050781 34.761719 22.0625 34.75 L 22.1875 34.6875 C 22.363281 34.585938 22.507813 34.433594 22.59375 34.25 L 36.40625 20.4375 C 37.238281 19.605469 37.710938 19.417969 37.875 19.375 C 38.082031 19.582031 38.597656 20.097656 38.71875 20.21875 L 38.78125 20.25 C 39.605469 21.046875 40.664063 21.382813 41.625 21.3125 C 42.605469 21.242188 43.5 20.8125 44.15625 20.15625 C 45.140625 19.171875 46.65625 17.625 46.65625 17.625 L 47.375 16.9375 L 40.625 10.1875 L 39.90625 10.875 L 38.46875 12.3125 L 37.5625 11.4375 L 39.71875 9.28125 Z M 33.0625 5.46875 L 36.875 9.28125 L 35.4375 10.75 L 34.71875 11.4375 L 35.4375 12.15625 L 37.78125 14.4375 L 38.46875 15.15625 L 39.1875 14.4375 L 40.59375 13 L 44.53125 16.9375 C 44.027344 17.441406 43.425781 18.042969 42.71875 18.75 C 42.390625 19.078125 41.917969 19.28125 41.46875 19.3125 C 41.019531 19.34375 40.605469 19.230469 40.15625 18.78125 C 38.882813 17.507813 32.671875 11.328125 31.375 10.03125 L 31.3125 9.96875 C 30.457031 9.113281 30.609375 7.921875 31.25 7.28125 Z M 31.96875 13.4375 L 36.40625 17.875 C 35.980469 18.136719 35.492188 18.507813 34.96875 19.03125 C 34.480469 19.519531 28.277344 25.746094 22.09375 31.9375 L 20.15625 25.8125 C 25.417969 20.550781 30.628906 15.339844 30.96875 15 C 31.601563 14.367188 31.710938 13.9375 31.96875 13.4375 Z M 18.5625 27.40625 L 20.5 33.53125 C 19.859375 34.171875 19.683594 34.347656 19.09375 34.9375 L 17.15625 28.8125 C 17.816406 28.152344 17.878906 28.089844 18.5625 27.40625 Z M 15.5625 30.40625 L 17.5 36.53125 C 16.988281 37.042969 16.515625 37.515625 16.09375 37.9375 L 14.15625 31.8125 C 14.707031 31.261719 14.949219 31.019531 15.5625 30.40625 Z M 12.5625 33.40625 L 14.5 39.53125 C 14.203125 39.828125 13.257813 40.773438 13.09375 40.9375 L 11.15625 34.8125 C 11.511719 34.457031 12.105469 33.863281 12.5625 33.40625 Z M 9.5625 36.40625 L 11.46875 42.375 L 5.59375 44.40625 L 7.71875 38.25 C 7.746094 38.222656 9.28125 36.6875 9.5625 36.40625 Z"/></svg>