<svg xmlns="http://www.w3.org/2000/svg"  viewBox="0 0 50 50" width="1000px" height="1000px"><path d="M 44.65625 1 C 44.222656 0.972656 43.757813 1.027344 43.25 1.125 C 42.230469 1.316406 41.015625 1.710938 39.65625 2.3125 C 36.941406 3.515625 33.699219 5.527344 30.9375 8.28125 C 29.210938 10.003906 28.363281 11.917969 27.8125 13.46875 C 27.277344 14.976563 26.878906 16.140625 26.6875 16.375 C 26.660156 16.375 26.484375 16.457031 26.21875 16.5 C 25.867188 16.558594 25.40625 16.601563 24.90625 16.625 C 24.40625 16.648438 23.886719 16.660156 23.40625 16.71875 C 22.925781 16.777344 22.464844 16.753906 21.9375 17.28125 C 20.960938 18.253906 20.886719 19.53125 21.21875 20.3125 C 21.53125 21.046875 22 21.421875 22.0625 21.46875 C 22.0625 21.46875 22.078125 21.484375 22.09375 21.5 L 20.34375 23.25 C 20.148438 23.4375 20.039063 23.699219 20.039063 23.96875 C 20.039063 24.238281 20.148438 24.5 20.34375 24.6875 L 20.84375 25.1875 L 7.90625 38.15625 L 4.90625 39.4375 L 4.625 39.5625 L 4.46875 39.84375 L 1.4375 44.625 L 1.5 44.65625 C 0.992188 45.320313 1 46.261719 1.59375 46.875 C 1.601563 46.882813 1.585938 46.898438 1.59375 46.90625 L 3.125 48.40625 C 3.742188 49.023438 4.671875 49.019531 5.34375 48.5 L 5.375 48.5625 L 10.1875 45.53125 L 10.4375 45.34375 L 10.5625 45.0625 L 11.875 42.09375 L 24.8125 29.15625 L 25.3125 29.65625 C 25.5 29.851563 25.761719 29.960938 26.03125 29.960938 C 26.300781 29.960938 26.5625 29.851563 26.75 29.65625 L 28.53125 27.875 C 28.636719 28.039063 28.839844 28.425781 29.5 28.75 C 29.898438 28.945313 30.429688 29.054688 31 28.9375 C 31.570313 28.820313 32.132813 28.488281 32.65625 27.96875 C 33.179688 27.445313 33.167969 26.976563 33.21875 26.5 C 33.269531 26.023438 33.296875 25.519531 33.3125 25.03125 C 33.328125 24.542969 33.347656 24.0625 33.40625 23.71875 C 33.464844 23.375 33.582031 23.199219 33.53125 23.25 C 33.964844 22.820313 35.328125 22.28125 36.90625 21.6875 C 38.484375 21.09375 40.308594 20.375 41.6875 19 C 44.386719 16.308594 46.394531 13.089844 47.625 10.375 C 48.238281 9.019531 48.667969 7.773438 48.875 6.75 C 48.980469 6.238281 49.023438 5.78125 49 5.34375 C 48.976563 4.90625 48.914063 4.445313 48.5 4.03125 L 45.96875 1.53125 C 45.558594 1.125 45.089844 1.027344 44.65625 1 Z M 44.15625 3 C 44.308594 2.984375 44.441406 2.996094 44.53125 3 C 44.621094 3.003906 44.652344 3.03125 44.65625 3.03125 L 46.96875 5.3125 C 46.96875 5.3125 46.96875 5.34375 46.96875 5.34375 C 46.976563 5.359375 46.996094 5.394531 47 5.46875 C 47.007813 5.648438 46.988281 5.972656 46.90625 6.375 C 46.742188 7.179688 46.347656 8.277344 45.78125 9.53125 C 44.644531 12.035156 42.765625 15.085938 40.28125 17.5625 C 39.285156 18.554688 37.75 19.238281 36.21875 19.8125 C 34.6875 20.386719 33.175781 20.796875 32.125 21.84375 C 31.644531 22.324219 31.527344 22.847656 31.4375 23.375 C 31.347656 23.902344 31.332031 24.460938 31.3125 24.96875 C 31.292969 25.476563 31.285156 25.945313 31.25 26.28125 C 31.230469 26.449219 31.179688 26.570313 31.15625 26.625 C 30.886719 26.871094 30.6875 26.980469 30.59375 27 C 30.488281 27.023438 30.453125 27.007813 30.375 26.96875 C 30.214844 26.890625 30.0625 26.65625 30.0625 26.65625 L 30 26.5625 L 29.90625 26.46875 L 29.25 25.84375 C 29.230469 25.820313 29.210938 25.800781 29.1875 25.78125 L 24.34375 20.9375 L 24.28125 20.84375 C 24.21875 20.769531 24.144531 20.707031 24.0625 20.65625 L 23.46875 20.0625 L 23.4375 20 L 23.375 19.96875 C 23.375 19.96875 23.164063 19.769531 23.0625 19.53125 C 22.96875 19.308594 22.875 19.210938 23.28125 18.78125 C 23.335938 18.757813 23.453125 18.707031 23.625 18.6875 C 23.96875 18.648438 24.457031 18.648438 24.96875 18.625 C 25.480469 18.601563 26.046875 18.554688 26.5625 18.46875 C 27.078125 18.382813 27.605469 18.296875 28.09375 17.8125 C 29.066406 16.84375 29.210938 15.554688 29.71875 14.125 C 30.226563 12.695313 30.9375 11.121094 32.375 9.6875 C 34.925781 7.144531 37.96875 5.265625 40.46875 4.15625 C 41.71875 3.601563 42.828125 3.246094 43.625 3.09375 C 43.824219 3.054688 44.003906 3.015625 44.15625 3 Z M 23.5 22.9375 L 27.0625 26.5 L 26.03125 27.53125 L 22.46875 23.96875 Z M 22.25 26.625 L 23.375 27.75 L 10.3125 40.8125 L 10.1875 40.96875 L 10.09375 41.125 L 8.84375 44 L 4.375 46.84375 L 3.15625 45.625 L 6 41.15625 L 8.84375 39.9375 L 9.03125 39.84375 Z"/></svg>