<svg xmlns="http://www.w3.org/2000/svg"  viewBox="0 0 50 50" width="1000px" height="1000px"><path d="M 24.5625 0 C 24.03125 0.0273438 23.539063 0.105469 23.0625 0.21875 C 21.835938 0.507813 20.878906 1.105469 20.03125 1.8125 C 19.957031 1.804688 19.886719 1.804688 19.8125 1.8125 C 16.632813 1.8125 14.355469 2.527344 12.78125 3.75 C 11.378906 4.839844 10.667969 6.328125 10.3125 7.8125 C 8.011719 8.617188 6.390625 9.820313 5.46875 11.28125 C 4.90625 12.179688 4.636719 13.128906 4.5 14.09375 C 2.324219 16.160156 1.1875 18.242188 0.8125 20.21875 C 0.542969 21.648438 0.746094 22.964844 1.125 24.1875 C 0.0078125 27.054688 -0.234375 29.414063 0.1875 31.34375 C 0.472656 32.652344 1.136719 33.652344 1.875 34.53125 C 1.878906 34.539063 1.871094 34.554688 1.875 34.5625 C 1.855469 34.644531 1.84375 34.726563 1.84375 34.8125 C 2.066406 38.039063 2.988281 40.324219 4.34375 41.84375 C 5.160156 42.761719 6.136719 43.300781 7.15625 43.6875 C 7.195313 43.8125 7.257813 43.929688 7.34375 44.03125 C 9.519531 46.566406 11.65625 47.972656 13.6875 48.5625 C 14.910156 48.917969 16.039063 48.917969 17.125 48.75 C 17.195313 48.789063 17.265625 48.820313 17.34375 48.84375 C 20.621094 49.980469 23.183594 50.222656 25.21875 49.8125 C 25.800781 49.695313 26.226563 49.40625 26.71875 49.1875 C 26.726563 49.183594 26.742188 49.191406 26.75 49.1875 C 26.863281 49.21875 26.976563 49.226563 27.09375 49.21875 C 31.933594 48.921875 34.800781 47.074219 36.375 44.8125 C 36.378906 44.808594 36.402344 44.816406 36.40625 44.8125 C 39.441406 44.007813 41.449219 42.789063 42.65625 41.25 C 43.585938 40.066406 43.910156 38.734375 44 37.4375 C 46.976563 34.878906 47.917969 32.097656 47.71875 29.65625 C 49.335938 27.054688 50.039063 24.824219 50 22.9375 C 49.980469 21.9375 49.742188 21.035156 49.375 20.25 C 49.425781 20.140625 49.457031 20.027344 49.46875 19.90625 C 49.652344 16.6875 49.171875 14.363281 48.1875 12.6875 C 47.675781 11.816406 46.996094 11.160156 46.28125 10.65625 C 46.277344 10.652344 46.285156 10.628906 46.28125 10.625 C 46.289063 10.441406 46.246094 10.253906 46.15625 10.09375 C 44.652344 7.25 43.023438 5.507813 41.3125 4.59375 C 40.835938 4.339844 40.355469 4.3125 39.875 4.1875 C 39.871094 4.1875 39.878906 4.15625 39.875 4.15625 C 39.808594 3.96875 39.691406 3.804688 39.53125 3.6875 C 37.1875 1.863281 35.089844 0.976563 33.1875 0.78125 C 32.089844 0.667969 31.105469 0.851563 30.1875 1.15625 C 30.179688 1.160156 30.164063 1.152344 30.15625 1.15625 C 30.136719 1.144531 30.113281 1.132813 30.09375 1.125 C 28.699219 0.558594 27.417969 0.203125 26.25 0.0625 C 25.667969 -0.0078125 25.09375 -0.0273438 24.5625 0 Z M 24.6875 2 C 25.105469 1.984375 25.550781 2.003906 26.03125 2.0625 C 26.519531 2.121094 27.15625 2.378906 27.71875 2.53125 C 26.183594 3.777344 25.230469 5.273438 24.5 6.6875 C 24.34375 6.777344 24.214844 6.90625 24.125 7.0625 C 23.542969 7.980469 22.59375 8.527344 21.34375 8.84375 C 20.453125 9.070313 19.378906 9.050781 18.34375 9.0625 C 18.609375 7.71875 19.09375 5.835938 20.3125 4.28125 C 21.105469 3.269531 22.117188 2.488281 23.53125 2.15625 C 23.886719 2.074219 24.269531 2.015625 24.6875 2 Z M 31.96875 2.75 C 32.292969 2.722656 32.644531 2.714844 33 2.75 C 33.964844 2.847656 35.121094 3.363281 36.40625 4.09375 C 36.386719 4.097656 36.363281 4.089844 36.34375 4.09375 C 33.804688 4.820313 32.050781 6.5625 31.09375 7.5 C 29.765625 8.324219 27.800781 8.253906 26.03125 8.03125 C 26.796875 6.503906 27.867188 4.746094 29.4375 3.6875 C 30.1875 3.179688 31 2.835938 31.96875 2.75 Z M 18.28125 4 C 16.882813 6.246094 16.304688 8.628906 16.15625 9.75 C 15.613281 11.761719 14.433594 13.082031 12.65625 14.125 C 12.246094 12.710938 11.773438 10.703125 12.125 8.6875 C 12.351563 7.378906 12.867188 6.222656 14 5.34375 C 14.886719 4.652344 16.367188 4.203125 18.28125 4 Z M 38.59375 5.8125 C 39.167969 5.855469 39.753906 6.011719 40.375 6.34375 C 41.304688 6.839844 42.339844 7.976563 43.375 9.5 C 40.726563 9.027344 38.183594 9.71875 37.28125 9.90625 C 37.273438 9.90625 37.257813 9.90625 37.25 9.90625 C 35.992188 10.148438 34.296875 9.574219 32.8125 8.65625 C 33.859375 7.691406 35.226563 6.480469 36.90625 6 C 37.464844 5.839844 38.019531 5.769531 38.59375 5.8125 Z M 30.8125 9.75 C 32.527344 11.101563 34.648438 12.023438 36.71875 11.9375 C 37.496094 13.820313 38.738281 15.511719 40.40625 16.46875 C 40.113281 18.699219 40.386719 21.035156 41.59375 22.78125 C 40.351563 24.601563 39.402344 26.839844 39.65625 29.25 C 37.867188 30.632813 36.316406 32.554688 35.9375 34.71875 C 33.78125 35.3125 31.59375 36.46875 30.1875 39.09375 C 27.527344 39.070313 25.273438 39.957031 23.8125 41.4375 C 21.527344 40.351563 19.152344 40.027344 16.84375 40.71875 C 15.351563 38.539063 13.371094 37.027344 10.90625 36.5 C 10.78125 34.042969 9.996094 31.894531 8.375 30.21875 C 9.554688 27.855469 9.953125 25.371094 9.21875 22.9375 C 11.484375 21.183594 12.902344 18.964844 13.125 16.15625 C 13.125 16.144531 13.125 16.136719 13.125 16.125 C 15.328125 14.960938 16.960938 13.335938 17.78125 11.09375 C 19.117188 11.121094 20.523438 11.117188 21.84375 10.78125 C 22.640625 10.578125 23.402344 10.257813 24.09375 9.8125 C 24.152344 9.839844 24.21875 9.859375 24.28125 9.875 C 26.054688 10.230469 28.554688 10.539063 30.8125 9.75 Z M 10.03125 10.125 C 10.015625 12.789063 10.804688 15.21875 11.09375 16.0625 C 11.101563 16.082031 11.113281 16.105469 11.125 16.125 C 10.929688 18.210938 9.9375 19.710938 8.3125 21.0625 C 7.585938 19.941406 6.597656 18.042969 6.40625 15.96875 C 6.289063 14.667969 6.46875 13.433594 7.15625 12.34375 C 7.683594 11.503906 8.679688 10.757813 10.03125 10.125 Z M 41.90625 11.3125 C 42.496094 11.328125 43.097656 11.40625 43.65625 11.5625 C 44.773438 11.878906 45.71875 12.46875 46.4375 13.6875 C 46.964844 14.582031 47.269531 16.03125 47.375 17.8125 C 45.492188 16.242188 43.386719 15.609375 42.3125 15.28125 C 42.300781 15.269531 42.292969 15.261719 42.28125 15.25 C 42.265625 15.246094 42.234375 15.222656 42.21875 15.21875 C 42.152344 15.167969 42.078125 15.125 42 15.09375 C 40.792969 14.648438 39.613281 13.238281 38.8125 11.65625 C 39.28125 11.5625 39.625 11.472656 40.1875 11.40625 C 40.746094 11.339844 41.316406 11.296875 41.90625 11.3125 Z M 4.65625 17.03125 C 5.105469 19.617188 6.222656 21.757813 7.15625 22.90625 C 7.167969 22.921875 7.175781 22.953125 7.1875 22.96875 C 7.941406 24.933594 7.675781 26.839844 6.8125 28.8125 C 5.71875 27.917969 4.277344 26.570313 3.375 24.6875 C 2.777344 23.441406 2.464844 22.09375 2.75 20.59375 C 2.957031 19.511719 3.652344 18.300781 4.65625 17.03125 Z M 42.34375 17.40625 C 43.6875 17.859375 45.363281 18.46875 46.59375 19.71875 C 47.414063 20.550781 47.972656 21.550781 48 22.96875 C 48.019531 23.96875 47.585938 25.324219 46.875 26.84375 C 45.808594 24.476563 44.125 22.621094 43.5 21.96875 C 43.460938 21.933594 43.417969 21.902344 43.375 21.875 C 42.585938 20.867188 42.273438 19.125 42.34375 17.40625 Z M 42.96875 24.40625 C 43.851563 25.390625 44.910156 26.683594 45.46875 28.375 C 46.113281 30.328125 45.980469 32.492188 43.71875 34.90625 C 43.484375 33.839844 43.261719 32.730469 42.875 31.875 C 42.382813 30.78125 41.910156 30.027344 41.65625 29.5625 C 41.652344 29.558594 41.660156 29.535156 41.65625 29.53125 C 41.65625 29.511719 41.65625 29.488281 41.65625 29.46875 C 41.335938 27.765625 42.019531 25.980469 42.96875 24.40625 Z M 2.46875 26.8125 C 3.898438 28.96875 5.648438 30.546875 6.5 31.15625 C 8.003906 32.472656 8.6875 34.078125 8.875 36.09375 C 7.539063 35.851563 5.75 35.402344 4.25 34.21875 C 3.253906 33.429688 2.476563 32.410156 2.15625 30.9375 C 1.925781 29.882813 2.0625 28.445313 2.46875 26.8125 Z M 40.34375 31.34375 C 40.582031 31.785156 40.765625 32.101563 41.03125 32.6875 C 41.535156 33.804688 42.003906 35.128906 42.09375 36.40625 C 42.101563 36.503906 42.058594 36.59375 42.0625 36.6875 C 42.0625 36.699219 42.0625 36.707031 42.0625 36.71875 C 42.039063 36.808594 42.027344 36.90625 42.03125 37 C 42.023438 37.074219 42.023438 37.144531 42.03125 37.21875 C 41.980469 38.195313 41.742188 39.136719 41.0625 40 C 40.417969 40.820313 39.1875 41.566406 37.5625 42.21875 C 38.414063 39.257813 37.929688 36.324219 37.8125 35.375 C 37.929688 34.117188 39.027344 32.570313 40.34375 31.34375 Z M 4.1875 36.53125 C 6.488281 37.871094 9 38.246094 9.96875 38.34375 C 10 38.34375 10.03125 38.34375 10.0625 38.34375 C 10.09375 38.347656 10.125 38.339844 10.15625 38.34375 C 12.097656 38.65625 13.5625 39.753906 14.8125 41.375 C 13.464844 41.882813 11.472656 42.488281 9.40625 42.25 C 8.050781 42.09375 6.800781 41.609375 5.8125 40.5 C 5.078125 39.675781 4.539063 38.296875 4.1875 36.53125 Z M 35.9375 36.8125 C 36.101563 38.222656 36.25 40.097656 35.59375 42.03125 C 34.902344 44.0625 33.355469 45.902344 29.8125 46.75 C 31.492188 44.277344 31.632813 41.273438 31.75 40.34375 C 31.757813 40.328125 31.773438 40.328125 31.78125 40.3125 C 32.800781 38.183594 34.273438 37.347656 35.9375 36.8125 Z M 29.625 41.21875 C 29.441406 42.617188 29.136719 44.394531 28.0625 45.84375 C 27.355469 46.796875 26.378906 47.53125 24.8125 47.84375 C 23.714844 48.0625 22.171875 47.921875 20.375 47.53125 C 22.796875 46.089844 24.382813 43.96875 24.9375 43.125 C 24.949219 43.113281 24.957031 43.105469 24.96875 43.09375 C 25.859375 42.03125 27.550781 41.34375 29.625 41.21875 Z M 19.21875 42.25 C 19.503906 42.238281 19.804688 42.257813 20.09375 42.28125 C 20.859375 42.347656 21.652344 42.738281 22.4375 43.0625 C 21.570313 44.15625 20.273438 45.582031 18.40625 46.375 C 17.167969 46.898438 15.785156 47.109375 14.21875 46.65625 C 13.097656 46.332031 11.847656 45.457031 10.5 44.25 C 13.101563 44.230469 15.25 43.4375 16.40625 42.90625 C 16.464844 42.878906 16.605469 42.867188 16.65625 42.84375 C 17.519531 42.480469 18.359375 42.28125 19.21875 42.25 Z"/></svg>