<svg xmlns="http://www.w3.org/2000/svg"  viewBox="0 0 50 50" width="1000px" height="1000px"><path d="M 15.4375 0.09375 C 13.976563 0.0429688 12.515625 0.730469 11.65625 2.03125 L 0.625 18.6875 C -0.679688 20.65625 -0.109375 23.335938 1.84375 24.65625 L 1.84375 24.6875 C 1.851563 24.691406 1.867188 24.683594 1.875 24.6875 L 20.9375 37.4375 C 21.242188 37.628906 21.621094 37.640625 21.9375 37.472656 C 22.253906 37.304688 22.457031 36.984375 22.46875 36.625 C 22.480469 35.730469 23.035156 34.945313 23.78125 34.46875 C 24.527344 33.992188 25.351563 33.929688 25.78125 34.1875 C 26.0625 34.355469 26.414063 34.375 26.710938 34.238281 C 27.011719 34.101563 27.226563 33.824219 27.28125 33.5 C 27.4375 32.550781 27.96875 31.914063 28.625 31.625 C 29.28125 31.335938 30.109375 31.347656 31.03125 31.9375 C 31.277344 32.089844 31.574219 32.128906 31.847656 32.042969 C 32.125 31.960938 32.351563 31.761719 32.46875 31.5 C 32.992188 30.296875 33.648438 29.839844 34.34375 29.59375 C 35.039063 29.347656 35.828125 29.371094 36.4375 29.46875 C 36.828125 29.535156 37.21875 29.363281 37.4375 29.03125 L 41.96875 22.1875 C 43.28125 20.207031 42.730469 17.5 40.75 16.1875 L 17.65625 0.8125 C 17.65625 0.800781 17.65625 0.792969 17.65625 0.78125 C 17.160156 0.453125 16.617188 0.257813 16.0625 0.15625 C 15.855469 0.117188 15.644531 0.101563 15.4375 0.09375 Z M 15.25 2.09375 C 15.699219 2.089844 16.160156 2.203125 16.5625 2.46875 L 39.625 17.84375 C 39.636719 17.84375 39.644531 17.84375 39.65625 17.84375 C 40.730469 18.554688 41.023438 20.023438 40.3125 21.09375 L 36.03125 27.53125 C 35.324219 27.472656 34.570313 27.378906 33.6875 27.6875 C 32.746094 28.015625 31.890625 28.828125 31.1875 29.9375 C 30.023438 29.476563 28.835938 29.359375 27.8125 29.8125 C 26.8125 30.253906 26.144531 31.171875 25.71875 32.25 C 24.6875 32.066406 23.617188 32.210938 22.71875 32.78125 C 21.910156 33.292969 21.332031 34.117188 20.9375 35.0625 L 2.96875 23.03125 C 1.894531 22.320313 1.601563 20.855469 2.3125 19.78125 L 13.34375 3.125 C 13.699219 2.589844 14.226563 2.246094 14.8125 2.125 C 14.957031 2.09375 15.101563 2.09375 15.25 2.09375 Z M 19.875 11.40625 C 19.664063 11.410156 19.441406 11.429688 19.21875 11.46875 C 17.425781 11.785156 16.449219 13.121094 16.125 14.21875 C 15.957031 14.792969 16.035156 14.925781 16.03125 15.3125 C 15.628906 15.335938 15.460938 15.289063 14.84375 15.5 C 14.292969 15.6875 13.683594 16 13.1875 16.53125 C 12.691406 17.0625 12.363281 17.820313 12.3125 18.71875 C 12.210938 20.457031 13.140625 21.722656 14.03125 22.375 C 14.492188 22.714844 14.625 22.679688 14.96875 22.8125 C 14.867188 23.171875 14.773438 23.265625 14.78125 23.84375 C 14.792969 24.96875 15.339844 26.472656 16.9375 27.375 C 18.570313 28.296875 20.210938 27.796875 21.125 27.0625 C 21.609375 26.671875 21.617188 26.519531 21.84375 26.1875 C 22.167969 26.402344 22.21875 26.539063 22.78125 26.71875 C 23.878906 27.070313 25.542969 27.015625 26.78125 25.65625 C 28 24.320313 28.019531 22.707031 27.65625 21.65625 C 27.480469 21.140625 27.367188 21.113281 27.15625 20.8125 C 27.46875 20.578125 27.621094 20.578125 27.96875 20.09375 C 28.648438 19.148438 29.03125 17.511719 28.125 15.8125 C 27.21875 14.109375 25.65625 13.585938 24.5 13.65625 C 23.933594 13.691406 23.859375 13.800781 23.5 13.9375 C 23.363281 13.582031 23.375 13.460938 23.03125 13 C 22.433594 12.199219 21.339844 11.386719 19.875 11.40625 Z M 20.25 13.40625 C 20.832031 13.464844 21.140625 13.789063 21.4375 14.1875 C 21.835938 14.71875 22 15.34375 22 15.34375 C 22.074219 15.648438 22.289063 15.898438 22.578125 16.023438 C 22.867188 16.144531 23.195313 16.125 23.46875 15.96875 C 23.46875 15.96875 24.007813 15.695313 24.625 15.65625 C 25.242188 15.617188 25.785156 15.679688 26.375 16.78125 C 26.960938 17.882813 26.714844 18.417969 26.34375 18.9375 C 25.972656 19.457031 25.4375 19.75 25.4375 19.75 C 25.164063 19.898438 24.976563 20.164063 24.929688 20.46875 C 24.878906 20.777344 24.976563 21.085938 25.1875 21.3125 C 25.1875 21.3125 25.582031 21.730469 25.78125 22.3125 C 25.980469 22.894531 26.066406 23.488281 25.3125 24.3125 C 24.582031 25.113281 24.011719 25.015625 23.375 24.8125 C 22.738281 24.609375 22.25 24.1875 22.25 24.1875 C 22.015625 23.980469 21.699219 23.894531 21.390625 23.957031 C 21.085938 24.015625 20.824219 24.21875 20.6875 24.5 C 20.6875 24.5 20.363281 25.082031 19.84375 25.5 C 19.324219 25.917969 18.878906 26.207031 17.90625 25.65625 C 16.898438 25.085938 16.789063 24.445313 16.78125 23.8125 C 16.773438 23.179688 17 22.6875 17 22.6875 C 17.132813 22.414063 17.128906 22.09375 16.996094 21.820313 C 16.863281 21.542969 16.609375 21.347656 16.3125 21.28125 C 16.3125 21.28125 15.757813 21.144531 15.21875 20.75 C 14.679688 20.355469 14.222656 19.867188 14.28125 18.84375 C 14.308594 18.359375 14.457031 18.089844 14.65625 17.875 C 14.855469 17.660156 15.164063 17.519531 15.5 17.40625 C 16.171875 17.175781 16.875 17.1875 16.875 17.1875 C 17.167969 17.199219 17.453125 17.082031 17.652344 16.863281 C 17.851563 16.648438 17.941406 16.355469 17.90625 16.0625 C 17.90625 16.0625 17.84375 15.449219 18.03125 14.8125 C 18.21875 14.175781 18.503906 13.625 19.5625 13.4375 C 19.828125 13.390625 20.054688 13.386719 20.25 13.40625 Z M 20.71875 17.53125 C 19.46875 17.53125 18.4375 18.53125 18.4375 19.78125 C 18.4375 21.03125 19.46875 22.0625 20.71875 22.0625 C 21.96875 22.0625 22.96875 21.03125 22.96875 19.78125 C 22.96875 18.53125 21.96875 17.53125 20.71875 17.53125 Z M 33.875 33.875 C 33.613281 33.871094 33.394531 33.945313 33.25 34.09375 C 32.667969 34.691406 33.410156 36.359375 34.90625 37.8125 C 36.402344 39.265625 38.105469 39.972656 38.6875 39.375 C 39.269531 38.777344 38.527344 37.109375 37.03125 35.65625 C 35.910156 34.566406 34.664063 33.886719 33.875 33.875 Z M 43.8125 36.40625 C 43.015625 36.296875 42.148438 37.816406 41.875 39.8125 C 41.601563 41.808594 42.015625 43.515625 42.8125 43.625 C 43.609375 43.734375 44.476563 42.214844 44.75 40.21875 C 45.023438 38.222656 44.609375 36.515625 43.8125 36.40625 Z M 34.3125 41.25 C 33.621094 41.257813 33.097656 41.457031 32.9375 41.84375 C 32.617188 42.613281 33.804688 43.851563 35.59375 44.59375 C 37.382813 45.335938 39.085938 45.300781 39.40625 44.53125 C 39.726563 43.761719 38.539063 42.554688 36.75 41.8125 C 35.855469 41.441406 35.003906 41.242188 34.3125 41.25 Z M 45.0625 45.96875 C 42.976563 45.957031 41.285156 46.632813 41.28125 47.46875 C 41.277344 48.304688 42.976563 48.988281 45.0625 49 C 47.148438 49.011719 48.839844 48.335938 48.84375 47.5 C 48.847656 46.664063 47.148438 45.980469 45.0625 45.96875 Z"/></svg>