<svg xmlns="http://www.w3.org/2000/svg"  viewBox="0 0 50 50" width="1000px" height="1000px"><path d="M 46.90625 -0.0625 C 46.570313 -0.0351563 46.242188 0.0664063 45.9375 0.21875 C 43.835938 1.355469 40.320313 1.238281 36.46875 1.3125 C 32.617188 1.386719 28.351563 1.757813 24.875 4.53125 C 23.890625 5.320313 21.996094 6.804688 18.65625 10.90625 C 15.417969 14.882813 10.734375 21.390625 3.96875 32.28125 C 3.832031 32.097656 3.648438 31.886719 3.53125 31.71875 C 2.371094 30.074219 2.125 29.4375 2.125 29.4375 C 1.953125 28.984375 1.476563 28.71875 1 28.8125 C 0.703125 28.875 0.449219 29.070313 0.3125 29.34375 C 0.3125 29.34375 0.191406 29.585938 0.125 29.875 C 0.0585938 30.164063 0 30.570313 0 31.09375 C 0 31.390625 0.0390625 31.582031 0.09375 31.875 C 0.148438 32.167969 0.222656 32.503906 0.3125 32.90625 C 0.492188 33.707031 0.730469 34.703125 0.96875 35.65625 C 1.441406 37.550781 1.929688 39.285156 1.9375 39.3125 C 1.9375 39.3125 1.9375 39.34375 1.9375 39.34375 C 2.351563 41.300781 1.722656 43.464844 0.28125 44.90625 C -0.105469 45.304688 -0.101563 45.941406 0.296875 46.328125 C 0.695313 46.714844 1.332031 46.710938 1.71875 46.3125 C 3.667969 44.363281 4.449219 41.511719 3.875 38.875 C 3.875 38.863281 3.875 38.855469 3.875 38.84375 C 3.875 38.84375 3.378906 37.046875 2.90625 35.15625 C 2.785156 34.671875 2.707031 34.246094 2.59375 33.78125 C 3.886719 35.507813 5.769531 37.769531 8.90625 40.90625 C 12.132813 44.132813 14.519531 46.109375 16.34375 47.4375 C 15.859375 47.320313 15.410156 47.21875 14.90625 47.09375 C 13.027344 46.621094 11.25 46.125 11.25 46.125 C 11.238281 46.125 11.230469 46.125 11.21875 46.125 C 8.507813 45.558594 5.71875 46.34375 3.78125 48.28125 C 3.382813 48.679688 3.382813 49.320313 3.78125 49.71875 C 4.179688 50.117188 4.820313 50.117188 5.21875 49.71875 C 6.683594 48.253906 8.695313 47.660156 10.78125 48.09375 L 10.78125 48.0625 C 10.808594 48.070313 12.523438 48.558594 14.40625 49.03125 C 15.355469 49.269531 16.347656 49.507813 17.15625 49.6875 C 17.558594 49.777344 17.917969 49.851563 18.21875 49.90625 C 18.519531 49.960938 18.710938 50 19 50 C 20.046875 50 20.78125 49.71875 20.78125 49.71875 C 21.148438 49.554688 21.386719 49.1875 21.378906 48.785156 C 21.371094 48.382813 21.125 48.023438 20.75 47.875 C 20.75 47.875 20.023438 47.585938 18.28125 46.375 C 18.132813 46.273438 17.945313 46.117188 17.78125 46 C 28.636719 39.210938 35.125 34.53125 39.09375 31.3125 C 43.191406 27.984375 44.675781 26.117188 45.46875 25.125 C 45.480469 25.125 45.488281 25.125 45.5 25.125 C 48.21875 21.648438 48.566406 17.414063 48.65625 13.5625 C 48.746094 9.710938 48.644531 6.171875 49.78125 4.0625 C 50.179688 3.265625 50.175781 2.230469 49.4375 1.625 C 49.21875 1.445313 48.910156 1.449219 48.625 1.40625 C 48.582031 1.09375 48.601563 0.757813 48.40625 0.53125 C 48.089844 0.164063 47.679688 -0.0195313 47.25 -0.0625 C 47.140625 -0.0742188 47.019531 -0.0703125 46.90625 -0.0625 Z M 46.28125 2.1875 C 46.074219 2.429688 45.640625 2.90625 44.71875 3.875 C 44.699219 3.894531 44.707031 3.886719 44.6875 3.90625 C 44.367188 4.304688 44.398438 4.878906 44.757813 5.242188 C 45.121094 5.601563 45.695313 5.632813 46.09375 5.3125 C 46.113281 5.292969 46.105469 5.300781 46.125 5.28125 C 47.09375 4.359375 47.570313 3.925781 47.8125 3.71875 C 46.5625 6.523438 46.738281 9.988281 46.65625 13.5 C 46.570313 17.25 46.1875 20.953125 43.90625 23.875 C 43.101563 24.882813 41.84375 26.503906 37.84375 29.75 C 33.890625 32.960938 27.296875 37.6875 16.0625 44.6875 C 14.515625 43.449219 12.625 41.8125 10.3125 39.5 C 8.066406 37.253906 6.480469 35.441406 5.28125 33.96875 C 12.242188 22.714844 16.960938 16.113281 20.1875 12.15625 C 23.445313 8.15625 25.109375 6.90625 26.125 6.09375 C 29.046875 3.765625 32.753906 3.386719 36.5 3.3125 C 40.007813 3.242188 43.472656 3.433594 46.28125 2.1875 Z M 40.4375 5.5625 C 39.789063 5.582031 39.03125 6.269531 38.59375 7.40625 C 38.09375 9.007813 38.585938 10 38.6875 10.5 C 39.289063 10.101563 40.40625 9.511719 40.90625 8.3125 C 41.40625 7.113281 41.289063 5.894531 40.6875 5.59375 C 40.601563 5.570313 40.53125 5.558594 40.4375 5.5625 Z M 31.6875 6.09375 C 30.886719 6.09375 30.207031 7.699219 30.40625 9 C 31.707031 9.398438 32.09375 10.3125 32.09375 10.3125 C 32.09375 10.3125 32.105469 8.300781 32.90625 7.5 C 32.90625 7.199219 32.488281 6.09375 31.6875 6.09375 Z M 35.65625 6.59375 C 34.859375 6.753906 34.074219 8.019531 33.8125 9.59375 C 33.414063 11.894531 34.511719 13.113281 34.8125 13.8125 C 35.414063 13.113281 36.792969 11.988281 37.09375 10.1875 C 37.394531 8.386719 36.898438 6.792969 36 6.59375 C 35.886719 6.570313 35.769531 6.570313 35.65625 6.59375 Z M 43.21875 8.78125 C 42.804688 8.800781 42.355469 8.90625 41.90625 9.09375 C 40.707031 9.59375 40.085938 10.710938 39.6875 11.3125 C 40.1875 11.414063 41.210938 12.007813 42.8125 11.40625 C 44.113281 11.007813 44.894531 10.007813 44.59375 9.40625 C 44.46875 8.96875 43.910156 8.75 43.21875 8.78125 Z M 27.1875 10.5 C 26.386719 10.5 25.707031 12.105469 25.90625 13.40625 C 27.207031 13.804688 27.59375 14.6875 27.59375 14.6875 C 27.59375 14.6875 27.605469 12.707031 28.40625 11.90625 C 28.40625 11.605469 27.988281 10.5 27.1875 10.5 Z M 31 11.3125 C 30.101563 11.210938 29.09375 12.699219 29.09375 14.5 C 28.894531 16.800781 30.105469 17.894531 30.40625 18.59375 C 30.90625 17.792969 32.207031 16.613281 32.40625 14.8125 C 32.605469 13.011719 31.898438 11.414063 31 11.3125 Z M 40.65625 12.8125 C 40.441406 12.824219 40.226563 12.867188 40 12.90625 C 38.199219 13.207031 37.105469 14.585938 36.40625 15.1875 C 37.105469 15.488281 38.195313 16.585938 40.59375 16.1875 C 42.394531 15.988281 43.792969 14.898438 43.59375 14 C 43.417969 13.210938 42.171875 12.71875 40.65625 12.8125 Z M 22.59375 15.40625 C 21.792969 15.40625 21.210938 16.914063 21.3125 18.3125 C 22.613281 18.710938 23 19.59375 23 19.59375 C 23 19.59375 23.011719 17.613281 23.8125 16.8125 C 23.8125 16.511719 23.394531 15.40625 22.59375 15.40625 Z M 26.5 15.8125 C 25.601563 15.710938 24.59375 17.199219 24.59375 19 C 24.394531 21.300781 25.605469 22.394531 25.90625 23.09375 C 26.40625 22.292969 27.707031 21.113281 27.90625 19.3125 C 28.105469 17.511719 27.398438 15.914063 26.5 15.8125 Z M 42.59375 17.09375 C 41.792969 17.894531 39.8125 17.90625 39.8125 17.90625 C 39.8125 17.90625 40.792969 18.386719 41.09375 19.6875 C 42.492188 19.789063 44 19.210938 44 18.3125 C 44.101563 17.511719 42.992188 17.09375 42.59375 17.09375 Z M 36.0625 17.5625 C 35.847656 17.5625 35.632813 17.570313 35.40625 17.59375 C 33.507813 17.792969 32.394531 18.992188 31.59375 19.59375 C 32.292969 19.894531 33.289063 21.101563 35.6875 21 C 37.585938 20.898438 39.007813 19.898438 38.90625 19 C 38.820313 18.210938 37.574219 17.574219 36.0625 17.5625 Z M 18 19.8125 C 17.199219 19.914063 16.488281 21.386719 16.6875 22.6875 C 17.988281 23.085938 18.40625 24 18.40625 24 C 18.40625 24 18.386719 21.988281 19.1875 21.1875 C 19.1875 20.886719 18.800781 19.8125 18 19.8125 Z M 21.59375 20.8125 C 20.695313 20.710938 19.6875 22.101563 19.6875 24 C 19.488281 26.300781 20.699219 27.394531 21 28.09375 C 21.5 27.292969 22.800781 26.113281 23 24.3125 C 23.199219 22.511719 22.492188 20.914063 21.59375 20.8125 Z M 38.09375 21.5 C 37.292969 22.300781 35.3125 22.3125 35.3125 22.3125 C 35.3125 22.3125 36.292969 22.792969 36.59375 24.09375 C 37.992188 24.292969 39.601563 23.585938 39.5 22.6875 C 39.601563 21.886719 38.492188 21.5 38.09375 21.5 Z M 31.46875 21.96875 C 31.253906 21.96875 31.039063 21.976563 30.8125 22 C 28.914063 22.199219 27.800781 23.398438 27 24 C 27.699219 24.398438 28.792969 25.605469 31.09375 25.40625 C 32.992188 25.304688 34.414063 24.304688 34.3125 23.40625 C 34.226563 22.617188 32.980469 21.980469 31.46875 21.96875 Z M 13.09375 24.59375 C 12.292969 24.59375 11.613281 26.101563 11.8125 27.5 C 13.113281 27.898438 13.5 28.8125 13.5 28.8125 C 13.5 28.8125 13.511719 26.800781 14.3125 26 C 14.3125 25.699219 13.894531 24.59375 13.09375 24.59375 Z M 17 25.1875 C 16 25.1875 15.09375 26.605469 15.09375 28.40625 C 14.894531 30.707031 16.105469 31.800781 16.40625 32.5 C 16.90625 31.699219 18.207031 30.488281 18.40625 28.6875 C 18.605469 26.886719 17.898438 25.289063 17 25.1875 Z M 33.1875 26.09375 C 32.386719 26.894531 30.40625 26.90625 30.40625 26.90625 C 30.40625 26.90625 31.386719 27.386719 31.6875 28.6875 C 33.085938 28.789063 34.695313 28.210938 34.59375 27.3125 C 34.695313 26.511719 33.585938 26.09375 33.1875 26.09375 Z M 26.46875 26.875 C 26.253906 26.875 26.039063 26.882813 25.8125 26.90625 C 23.914063 27.105469 22.800781 28.304688 22 28.90625 C 22.699219 29.207031 23.792969 30.414063 26.09375 30.3125 C 27.992188 30.210938 29.414063 29.210938 29.3125 28.3125 C 29.226563 27.523438 27.980469 26.886719 26.46875 26.875 Z M 12 29.90625 C 11.101563 29.804688 10.101563 31.199219 10 33 C 9.898438 35.398438 11.007813 36.386719 11.40625 37.1875 C 11.90625 36.386719 13.207031 35.207031 13.40625 33.40625 C 13.605469 31.605469 12.898438 30.007813 12 29.90625 Z M 28.6875 30.6875 C 27.886719 31.488281 25.90625 31.5 25.90625 31.5 C 25.90625 31.5 26.886719 32.011719 27.1875 33.3125 C 28.585938 33.414063 30.195313 32.804688 30.09375 31.90625 C 30.195313 31.105469 29.085938 30.6875 28.6875 30.6875 Z M 21.96875 31.46875 C 21.753906 31.46875 21.539063 31.476563 21.3125 31.5 C 19.414063 31.699219 18.300781 32.898438 17.5 33.5 C 18.199219 33.898438 19.292969 35.007813 21.59375 34.90625 C 23.492188 34.804688 24.914063 33.804688 24.8125 32.90625 C 24.726563 32.117188 23.480469 31.480469 21.96875 31.46875 Z M 23.90625 35.5 C 23.105469 36.300781 21.09375 36.3125 21.09375 36.3125 C 21.09375 36.3125 22.105469 36.792969 22.40625 38.09375 C 23.804688 38.195313 25.3125 37.585938 25.3125 36.6875 C 25.414063 35.886719 24.304688 35.5 23.90625 35.5 Z M 17.25 36.375 C 17.035156 36.375 16.820313 36.382813 16.59375 36.40625 C 14.695313 36.605469 13.613281 37.804688 12.8125 38.40625 C 13.511719 38.804688 14.605469 39.914063 16.90625 39.8125 C 18.804688 39.710938 20.195313 38.710938 20.09375 37.8125 C 20.007813 37.023438 18.761719 36.386719 17.25 36.375 Z"/></svg>