<svg xmlns="http://www.w3.org/2000/svg"  viewBox="0 0 50 50" width="1000px" height="1000px"><path d="M 25 0 C 11.203125 0 0 11.203125 0 25 C 0 38.796875 11.203125 50 25 50 C 38.796875 50 50 38.796875 50 25 C 50 11.203125 38.796875 0 25 0 Z M 25 2 C 37.714844 2 48 12.285156 48 25 C 48 37.714844 37.714844 48 25 48 C 12.285156 48 2 37.714844 2 25 C 2 12.285156 12.285156 2 25 2 Z M 25 6 C 14.519531 6 6 14.519531 6 25 C 6 35.480469 14.519531 44 25 44 C 35.480469 44 44 35.480469 44 25 C 44 14.519531 35.480469 6 25 6 Z M 25 8 C 34.402344 8 42 15.597656 42 25 C 42 34.402344 34.402344 42 25 42 C 15.597656 42 8 34.402344 8 25 C 8 15.597656 15.597656 8 25 8 Z M 19 16 C 17.34375 16 16 17.34375 16 19 C 16 20.65625 17.34375 22 19 22 C 20.300781 22 21.398438 21.160156 21.8125 20 L 28.1875 20 C 28.601563 21.160156 29.699219 22 31 22 C 32.65625 22 34 20.65625 34 19 C 34 17.34375 32.65625 16 31 16 C 29.699219 16 28.601563 16.839844 28.1875 18 L 21.8125 18 C 21.398438 16.839844 20.300781 16 19 16 Z M 19 28 C 17.34375 28 16 29.34375 16 31 C 16 32.65625 17.34375 34 19 34 C 20.300781 34 21.398438 33.160156 21.8125 32 L 28.1875 32 C 28.601563 33.160156 29.699219 34 31 34 C 32.65625 34 34 32.65625 34 31 C 34 29.34375 32.65625 28 31 28 C 29.699219 28 28.601563 28.839844 28.1875 30 L 21.8125 30 C 21.398438 28.839844 20.300781 28 19 28 Z"/></svg>