<svg fill="#000000" xmlns="http://www.w3.org/2000/svg"  viewBox="0 0 50 50" width="1000px" height="1000px"><path d="M 20 1 A 1.0001 1.0001 0 0 0 19 2 L 19 12.078125 L 18.894531 12.142578 C 16.565843 13.539335 15 16.091232 15 19 L 15 21 L 15 42 L 15 47 C 15 48.093063 15.906937 49 17 49 L 33 49 C 34.093063 49 35 48.093063 35 47 L 35 42 L 35 21 L 35 19 C 35 16.091232 33.434157 13.539335 31.105469 12.142578 L 31 12.078125 L 31 2 A 1.0001 1.0001 0 0 0 30 1 L 20 1 z M 21 3 L 29 3 L 29 6 L 27.591797 6 A 3 2 0 0 0 25 5 A 3 2 0 0 0 22.404297 6 L 21 6 L 21 3 z M 21 8 L 22.408203 8 A 3 2 0 0 0 25 9 A 3 2 0 0 0 27.595703 8 L 29 8 L 29 12 L 21 12 L 21 8 z M 19.78125 14 L 20 14 L 30 14 L 30.21875 14 C 31.872236 15.068448 33 16.879675 33 19 L 33 20 L 17 20 L 17 19 C 17 16.879675 18.127764 15.068448 19.78125 14 z M 17 22 L 33 22 L 33 41 L 17 41 L 17 22 z M 17 43 L 33 43 L 33 47 L 17 47 L 17 43 z"/></svg>