<svg fill="#000000" xmlns="http://www.w3.org/2000/svg"  viewBox="0 0 50 50" width="1000px" height="1000px"><path d="M 28 2 C 20.5625 2 16 7.105469 16 13 C 15.476563 13 14.941406 13.183594 14.5625 13.5625 C 14.183594 13.941406 14 14.476563 14 15 L 14 45 C 14 46.765625 15.644531 48 17.40625 48 L 32.59375 48 C 34.355469 48 36 46.765625 36 45 L 36 15 C 36 13.84375 35.035156 13 34 13 C 34 10.636719 32.324219 9.082031 30.84375 8.21875 C 29.867188 7.648438 29.449219 7.597656 28.90625 7.4375 C 28.945313 7.394531 28.949219 7.289063 29 7.25 C 29.191406 7.101563 29.539063 7 29.90625 7 L 31.8125 7 C 32.078125 7 32.335938 6.941406 32.625 6.75 C 32.835938 6.609375 32.933594 6.273438 33.03125 5.96875 L 33.15625 6 L 33.75 4 L 33.75 3.96875 L 33.78125 3.9375 C 33.882813 3.527344 33.851563 3.035156 33.5625 2.625 C 33.273438 2.214844 32.761719 2 32.3125 2 Z M 28 4 L 31.65625 4 L 31.375 5 L 29.90625 5 C 29.175781 5 28.414063 5.1875 27.78125 5.6875 C 27.148438 6.1875 26.6875 7.039063 26.6875 8 L 26.6875 8.8125 L 27.46875 8.96875 C 27.46875 8.96875 28.671875 9.253906 29.84375 9.9375 C 31.015625 10.621094 32 11.566406 32 13 L 18 13 C 18 8.09375 21.4375 4 28 4 Z M 16 15 L 34 15 L 34 45 C 34 45.433594 33.433594 46 32.59375 46 L 17.40625 46 C 16.566406 46 16 45.433594 16 45 Z"/></svg>