<svg xmlns="http://www.w3.org/2000/svg"  viewBox="0 0 50 50" width="1000px" height="1000px"><path d="M 24.8125 7 C 24.75 7.015625 24.683594 7.035156 24.625 7.0625 L 0.625 17.0625 C 0.234375 17.207031 -0.0273438 17.582031 -0.0273438 18 C -0.0273438 18.417969 0.234375 18.792969 0.625 18.9375 L 24.625 28.9375 C 24.867188 29.035156 25.132813 29.035156 25.375 28.9375 L 49.375 18.9375 C 49.765625 18.792969 50.027344 18.417969 50.027344 18 C 50.027344 17.582031 49.765625 17.207031 49.375 17.0625 L 25.375 7.0625 C 25.226563 7.003906 25.066406 6.984375 24.90625 7 C 24.875 7 24.84375 7 24.8125 7 Z M 25 9.09375 L 46.375 18 L 25 26.90625 L 3.625 18 Z M 0.8125 22 C 0.351563 22.0625 -0.00390625 22.433594 -0.046875 22.894531 C -0.09375 23.355469 0.1875 23.789063 0.625 23.9375 L 24.625 33.9375 C 24.867188 34.035156 25.132813 34.035156 25.375 33.9375 L 49.375 23.9375 C 49.894531 23.730469 50.144531 23.144531 49.9375 22.625 C 49.730469 22.105469 49.144531 21.855469 48.625 22.0625 L 25 31.90625 L 1.375 22.0625 C 1.199219 21.988281 1.003906 21.964844 0.8125 22 Z M 0.8125 27 C 0.351563 27.0625 -0.00390625 27.433594 -0.046875 27.894531 C -0.09375 28.355469 0.1875 28.789063 0.625 28.9375 L 24.625 38.9375 C 24.867188 39.035156 25.132813 39.035156 25.375 38.9375 L 49.375 28.9375 C 49.894531 28.730469 50.144531 28.144531 49.9375 27.625 C 49.730469 27.105469 49.144531 26.855469 48.625 27.0625 L 25 36.90625 L 1.375 27.0625 C 1.199219 26.988281 1.003906 26.964844 0.8125 27 Z M 0.8125 32 C 0.351563 32.0625 -0.00390625 32.433594 -0.046875 32.894531 C -0.09375 33.355469 0.1875 33.789063 0.625 33.9375 L 24.625 43.9375 C 24.867188 44.035156 25.132813 44.035156 25.375 43.9375 L 49.375 33.9375 C 49.894531 33.730469 50.144531 33.144531 49.9375 32.625 C 49.730469 32.105469 49.144531 31.855469 48.625 32.0625 L 25 41.90625 L 1.375 32.0625 C 1.199219 31.988281 1.003906 31.964844 0.8125 32 Z"/></svg>