<svg xmlns="http://www.w3.org/2000/svg"  viewBox="0 0 50 50" width="1000px" height="1000px"><path d="M 28.34375 1.8125 C 28.023438 1.816406 27.703125 1.867188 27.40625 1.9375 C 26.8125 2.082031 26.273438 2.371094 25.8125 2.71875 C 25.460938 2.984375 25.199219 3.316406 24.9375 3.65625 C 23.851563 2.4375 22.117188 1.667969 20.125 2.0625 C 20.101563 2.066406 20.085938 2.058594 20.0625 2.0625 C 17.347656 2.441406 14.894531 3.179688 12.6875 4.125 C 10.332031 5.132813 9.207031 6.75 9 8.25 C 7.671875 8.105469 6.128906 8.539063 4.90625 9.9375 C 4.90625 9.949219 4.90625 9.957031 4.90625 9.96875 C 3.5625 11.613281 2.425781 13.480469 1.65625 15.5625 C 1.113281 17.027344 0.976563 18.4375 1.21875 19.65625 C 1.316406 20.140625 1.53125 20.585938 1.75 21 C 1.476563 21.148438 1.171875 21.253906 0.96875 21.5 C 0.296875 22.308594 0.0507813 23.402344 0 24.8125 C 0 24.832031 0 24.855469 0 24.875 C 0 28.109375 0.636719 30.453125 1.78125 32.21875 C 2.925781 33.984375 4.535156 35.082031 6.25 35.90625 C 9.269531 37.359375 12.621094 38.167969 15.40625 40.15625 C 15.140625 40.410156 14.878906 40.667969 14.65625 40.96875 C 14.09375 41.726563 13.617188 42.65625 13.28125 43.53125 C 13.121094 43.941406 13.003906 44.347656 13 44.8125 C 12.996094 45.277344 13.175781 45.855469 13.5625 46.21875 C 14.335938 46.945313 15.359375 47 16.875 47 C 18.855469 47 19.996094 47.007813 20.8125 46.90625 C 21.097656 46.871094 21.359375 46.746094 21.625 46.625 C 22.582031 47.472656 23.664063 48.15625 25.15625 48.15625 C 26.226563 48.15625 27.15625 47.820313 27.90625 47.28125 C 28.308594 46.992188 28.582031 46.578125 28.90625 46.21875 C 29.085938 46.335938 29.226563 46.515625 29.4375 46.59375 C 30.273438 46.898438 31.371094 47 33.125 47 C 34.640625 47 35.664063 46.945313 36.4375 46.21875 C 36.824219 45.855469 37.003906 45.277344 37 44.8125 C 36.996094 44.347656 36.878906 43.941406 36.71875 43.53125 C 36.355469 42.582031 35.746094 41.644531 35.0625 40.875 C 34.847656 40.632813 34.605469 40.449219 34.375 40.25 C 37.554688 38.003906 41.050781 37.246094 44.09375 35.75 C 45.75 34.9375 47.277344 33.832031 48.34375 32.09375 C 49.410156 30.355469 50 28.050781 50 24.875 C 50 24.277344 49.859375 23.296875 49.40625 22.28125 C 49.179688 21.773438 48.875 21.230469 48.34375 20.84375 C 48.59375 20.445313 48.796875 20.03125 48.90625 19.53125 C 49.148438 18.433594 48.953125 17.207031 48.375 15.5625 C 47.558594 13.25 46.398438 11.519531 45 9.75 C 45 9.738281 45 9.730469 45 9.71875 C 43.980469 8.4375 42.238281 7.972656 40.65625 8.34375 C 40.523438 6.65625 39.410156 4.980469 37.53125 4.15625 C 35.261719 3.160156 31.992188 2.589844 29.3125 1.9375 C 28.984375 1.859375 28.664063 1.808594 28.34375 1.8125 Z M 28.3125 3.8125 C 28.472656 3.808594 28.640625 3.832031 28.8125 3.875 C 31.582031 4.546875 34.898438 5.1875 36.75 6 C 38.65625 6.835938 39.171875 8.433594 38.5 9.59375 C 38.460938 9.652344 38.429688 9.714844 38.40625 9.78125 C 38.394531 9.820313 38.382813 9.863281 38.375 9.90625 L 30.09375 29.34375 C 29.894531 29.675781 29.90625 30.089844 30.117188 30.410156 C 30.332031 30.730469 30.710938 30.902344 31.09375 30.847656 C 31.472656 30.792969 31.792969 30.523438 31.90625 30.15625 L 40.15625 10.78125 C 41.121094 9.898438 42.746094 10.097656 43.4375 10.96875 C 44.785156 12.667969 45.78125 14.175781 46.5 16.21875 C 47.019531 17.691406 47.09375 18.535156 46.96875 19.09375 C 46.84375 19.652344 46.507813 20.09375 45.84375 20.78125 C 45.820313 20.800781 45.800781 20.820313 45.78125 20.84375 L 34.15625 32.40625 C 33.757813 32.804688 33.757813 33.445313 34.15625 33.84375 C 34.554688 34.242188 35.195313 34.242188 35.59375 33.84375 L 47 22.46875 C 47.039063 22.476563 47.101563 22.429688 47.15625 22.46875 C 47.261719 22.546875 47.453125 22.777344 47.59375 23.09375 C 47.875 23.722656 48 24.726563 48 24.875 C 48 27.808594 47.480469 29.691406 46.65625 31.03125 C 45.832031 32.371094 44.683594 33.21875 43.21875 33.9375 C 40.289063 35.378906 36.105469 36.171875 32.28125 39.28125 C 32.199219 39.347656 32.171875 39.433594 32.09375 39.5 C 32.074219 39.515625 32.050781 39.515625 32.03125 39.53125 C 31.949219 39.59375 31.875 39.667969 31.8125 39.75 C 31.765625 39.796875 31.722656 39.851563 31.6875 39.90625 C 30.164063 41.335938 29.117188 42.859375 28.25 44.03125 C 28.234375 44.050781 28.203125 44.074219 28.1875 44.09375 C 28.164063 44.125 28.144531 44.15625 28.125 44.1875 C 27.652344 44.8125 27.191406 45.339844 26.75 45.65625 C 26.28125 45.992188 25.832031 46.15625 25.15625 46.15625 C 23.746094 46.15625 23.054688 45.546875 22.03125 44.3125 C 21.007813 43.078125 19.847656 41.289063 17.875 39.5 C 14.417969 36.367188 10.1875 35.601563 7.125 34.125 C 5.59375 33.386719 4.359375 32.496094 3.46875 31.125 C 2.582031 29.757813 2.003906 27.855469 2 24.90625 C 2 24.894531 2 24.886719 2 24.875 C 2.046875 23.71875 2.292969 23.027344 2.5 22.78125 C 2.660156 22.589844 2.914063 22.609375 3.21875 22.625 L 15 33.3125 C 15.253906 33.59375 15.648438 33.710938 16.015625 33.605469 C 16.378906 33.503906 16.65625 33.203125 16.726563 32.828125 C 16.796875 32.453125 16.648438 32.070313 16.34375 31.84375 L 4.40625 20.96875 C 4.367188 20.921875 4.328125 20.882813 4.28125 20.84375 C 4.269531 20.832031 4.261719 20.824219 4.25 20.8125 C 4.230469 20.800781 4.207031 20.789063 4.1875 20.78125 C 4.15625 20.757813 4.125 20.738281 4.09375 20.71875 C 4.082031 20.707031 4.074219 20.699219 4.0625 20.6875 C 3.71875 20.515625 3.34375 20.070313 3.1875 19.28125 C 3.03125 18.492188 3.101563 17.410156 3.53125 16.25 C 4.214844 14.402344 5.214844 12.746094 6.4375 11.25 C 7.585938 9.933594 8.703125 10.070313 9.34375 10.40625 L 18.34375 29.90625 C 18.457031 30.273438 18.777344 30.542969 19.15625 30.597656 C 19.539063 30.652344 19.917969 30.480469 20.132813 30.160156 C 20.34375 29.839844 20.355469 29.425781 20.15625 29.09375 L 11.03125 9.25 L 11 9.15625 C 10.777344 8.542969 10.871094 7.082031 13.46875 5.96875 C 15.539063 5.082031 17.851563 4.382813 20.40625 4.03125 C 20.425781 4.03125 20.449219 4.03125 20.46875 4.03125 C 22.347656 3.636719 23.722656 4.835938 24 5.875 L 24 28.625 C 23.996094 28.984375 24.183594 29.320313 24.496094 29.503906 C 24.808594 29.683594 25.191406 29.683594 25.503906 29.503906 C 25.816406 29.320313 26.003906 28.984375 26 28.625 L 26 5.8125 C 26.128906 5.277344 26.492188 4.695313 27 4.3125 C 27.398438 4.011719 27.832031 3.820313 28.3125 3.8125 Z M 16.96875 41.5 C 18.171875 42.695313 19.089844 43.855469 19.9375 44.9375 C 19.3125 44.976563 18.523438 45 16.875 45 C 15.582031 45 15.058594 44.746094 15.03125 44.75 C 15.042969 44.65625 15.058594 44.503906 15.15625 44.25 C 15.429688 43.53125 15.835938 42.714844 16.25 42.15625 C 16.558594 41.734375 16.898438 41.5625 16.96875 41.5 Z M 32.84375 41.53125 C 33.046875 41.675781 33.304688 41.898438 33.5625 42.1875 C 34.085938 42.777344 34.597656 43.605469 34.84375 44.25 C 34.941406 44.503906 34.957031 44.65625 34.96875 44.75 C 34.941406 44.746094 34.417969 45 33.125 45 C 31.53125 45 30.636719 44.828125 30.21875 44.6875 C 30.980469 43.625 31.816406 42.539063 32.84375 41.53125 Z"/></svg>