<svg xmlns="http://www.w3.org/2000/svg"  viewBox="0 0 50 50" width="1000px" height="1000px"><path d="M 25 5 C 18.046875 5 12.171875 6.183594 7.945313 8.171875 C 3.71875 10.15625 1 13.066406 1 16.5 C 1 16.667969 1.011719 16.835938 1.023438 17 L 1 17 L 1 31.5 C 1 35.265625 4.199219 38.363281 8.578125 40.53125 C 12.960938 42.695313 18.699219 44 24.464844 44 C 30.230469 44 36.222656 42.695313 40.863281 40.539063 C 43.183594 39.460938 45.171875 38.171875 46.621094 36.671875 C 48.070313 35.171875 49 33.410156 49 31.5 L 49 16 L 48.972656 16 C 48.722656 12.78125 46.074219 10.0625 42.054688 8.171875 C 37.828125 6.183594 31.953125 5 25 5 Z M 25 7 C 31.726563 7 37.351563 8.167969 41.203125 9.980469 C 45.058594 11.792969 47 14.136719 47 16.5 C 47 18.863281 45.058594 21.207031 41.203125 23.019531 C 37.351563 24.832031 31.726563 26 25 26 C 18.273438 26 12.648438 24.832031 8.796875 23.019531 C 4.941406 21.207031 3 18.863281 3 16.5 C 3 14.136719 4.941406 11.792969 8.796875 9.980469 C 12.648438 8.167969 18.273438 7 25 7 Z M 25 9 C 20.445313 9 16.601563 9.617188 13.800781 10.675781 C 12.402344 11.203125 11.253906 11.839844 10.40625 12.625 C 9.5625 13.410156 9 14.40625 9 15.5 C 9 16.59375 9.5625 17.589844 10.40625 18.375 C 11.253906 19.160156 12.402344 19.796875 13.800781 20.324219 C 16.601563 21.382813 20.445313 22 25 22 C 29.554688 22 33.398438 21.382813 36.199219 20.324219 C 37.597656 19.796875 38.746094 19.160156 39.59375 18.375 C 40.4375 17.589844 41 16.59375 41 15.5 C 41 14.40625 40.4375 13.410156 39.59375 12.625 C 38.746094 11.839844 37.597656 11.203125 36.199219 10.675781 C 33.398438 9.617188 29.554688 9 25 9 Z M 25 11 C 29.367188 11 33.023438 11.613281 35.492188 12.546875 C 36.726563 13.011719 37.660156 13.5625 38.230469 14.09375 C 38.800781 14.621094 39 15.074219 39 15.5 C 39 15.925781 38.800781 16.378906 38.230469 16.90625 C 37.660156 17.4375 36.726563 17.988281 35.492188 18.453125 C 33.023438 19.386719 29.367188 20 25 20 C 20.632813 20 16.976563 19.386719 14.507813 18.453125 C 13.273438 17.988281 12.339844 17.4375 11.769531 16.90625 C 11.199219 16.378906 11 15.925781 11 15.5 C 11 15.074219 11.199219 14.621094 11.769531 14.09375 C 12.339844 13.5625 13.273438 13.011719 14.507813 12.546875 C 16.976563 11.613281 20.632813 11 25 11 Z M 3 21.324219 C 4.203125 22.675781 5.890625 23.863281 7.945313 24.828125 C 12.171875 26.816406 18.046875 28 25 28 C 31.953125 28 37.828125 26.816406 42.054688 24.828125 C 44.109375 23.863281 45.796875 22.675781 47 21.324219 L 47 23 C 47 23.828125 46.46875 24.757813 45.269531 25.726563 C 44.074219 26.695313 42.273438 27.636719 40.101563 28.421875 C 35.761719 30 29.957031 31 24.464844 31 C 18.972656 31 13.445313 30.003906 9.382813 28.433594 C 7.351563 27.644531 5.6875 26.714844 4.589844 25.75 C 3.492188 24.789063 3 23.867188 3 23 Z M 47 26.875 L 47 31.5 C 47 32.765625 46.390625 34.03125 45.183594 35.28125 C 43.972656 36.53125 42.179688 37.722656 40.019531 38.722656 C 35.703125 40.730469 29.925781 42 24.464844 42 C 19.003906 42 13.511719 40.734375 9.46875 38.734375 C 5.421875 36.738281 3 34.085938 3 31.5 L 3 27 C 3.089844 27.085938 3.179688 27.171875 3.273438 27.253906 C 4.632813 28.449219 6.480469 29.453125 8.664063 30.296875 C 13.023438 31.984375 18.730469 33 24.464844 33 C 30.199219 33 36.164063 31.984375 40.78125 30.304688 C 43.09375 29.464844 45.070313 28.464844 46.53125 27.28125 C 46.695313 27.148438 46.847656 27.011719 47 26.875 Z M 19.023438 35.996094 C 18.523438 35.976563 18.085938 36.332031 18 36.824219 C 17.914063 37.316406 18.207031 37.796875 18.683594 37.949219 C 18.683594 37.949219 20.722656 38.632813 23.210938 38.894531 C 23.550781 39.570313 24.242188 40 25 40 C 25.757813 40 26.449219 39.570313 26.785156 38.894531 C 29.273438 38.632813 31.316406 37.949219 31.316406 37.949219 C 31.839844 37.773438 32.125 37.207031 31.949219 36.683594 C 31.773438 36.160156 31.207031 35.875 30.683594 36.050781 C 30.683594 36.050781 28.824219 36.648438 26.664063 36.890625 C 26.292969 36.335938 25.667969 36 25 36 C 24.332031 36 23.707031 36.335938 23.335938 36.890625 C 21.175781 36.648438 19.316406 36.050781 19.316406 36.050781 C 19.222656 36.019531 19.125 36 19.023438 35.996094 Z"/></svg>