<svg xmlns="http://www.w3.org/2000/svg"  viewBox="0 0 50 50" width="1000px" height="1000px"><path d="M 40 2 C 37.949219 2 35.902344 2.785156 34.34375 4.34375 C 33.511719 5.175781 32.921875 6.152344 32.53125 7.1875 L 26.5 9.8125 C 26.46875 9.820313 26.4375 9.832031 26.40625 9.84375 L 26.21875 9.9375 L 2.59375 20.09375 C 2.234375 20.253906 2.003906 20.609375 2 21 C 2 25.089844 4.433594 27.761719 4.96875 28.3125 C 4.984375 28.367188 5.007813 28.417969 5.03125 28.46875 C 5.183594 32.3125 7.046875 34.8125 8.90625 36.1875 C 10.445313 37.324219 11.734375 37.667969 12.3125 37.8125 C 12.804688 38.878906 15.683594 44.523438 21.4375 44.90625 C 21.523438 44.960938 21.617188 45.003906 21.71875 45.03125 C 22.296875 45.589844 24.949219 48 29 48 C 29.390625 47.996094 29.746094 47.765625 29.90625 47.40625 L 37 30.96875 C 37.1875 30.777344 37.289063 30.515625 37.28125 30.25 L 39.96875 24.0625 C 40.195313 23.867188 40.320313 23.578125 40.3125 23.28125 C 40.3125 23.269531 40.3125 23.261719 40.3125 23.25 L 42.8125 17.46875 C 43.847656 17.078125 44.824219 16.488281 45.65625 15.65625 C 48.773438 12.539063 48.773438 7.457031 45.65625 4.34375 C 44.097656 2.785156 42.050781 2 40 2 Z M 40 4 C 41.535156 4 43.074219 4.574219 44.25 5.75 C 46.601563 8.101563 46.601563 11.898438 44.25 14.25 C 43.664063 14.835938 42.941406 15.175781 42.21875 15.46875 L 38.5 11.78125 C 38.425781 11.667969 38.332031 11.574219 38.21875 11.5 L 34.53125 7.78125 C 34.824219 7.058594 35.164063 6.335938 35.75 5.75 C 36.925781 4.574219 38.464844 4 40 4 Z M 33.0625 9.125 L 33.6875 9.75 L 29.65625 12.25 L 28.5 11.09375 Z M 35.15625 11.21875 L 36.25 12.3125 L 33 15.5625 L 31.125 13.71875 Z M 26.53125 11.9375 L 27.90625 13.3125 L 23.5 16.0625 L 21.53125 14.09375 Z M 37.6875 13.75 L 38.78125 14.84375 L 36.28125 18.875 L 34.4375 17 Z M 29.375 14.78125 L 31.5625 17 L 28 20.5625 L 24.9375 17.5 Z M 19.53125 14.96875 L 21.71875 17.15625 L 6.21875 26.6875 C 5.527344 25.789063 4.296875 23.917969 4.09375 21.59375 Z M 40.25 16.3125 L 40.875 16.9375 L 38.90625 21.5 L 37.75 20.34375 Z M 33 18.4375 L 35.21875 20.625 L 32.5 25.0625 L 29.4375 22 Z M 23.15625 18.59375 L 26.5625 22 L 12.6875 35.875 C 12.117188 35.695313 11.128906 35.328125 10.09375 34.5625 C 8.617188 33.46875 7.179688 31.703125 7.03125 28.53125 Z M 36.6875 22.09375 L 38.0625 23.46875 L 35.90625 28.5 L 33.9375 26.53125 Z M 28 23.4375 L 31.40625 26.8125 L 21.46875 42.96875 C 17.414063 42.613281 14.9375 38.574219 14.21875 37.21875 Z M 32.875 28.28125 L 35.0625 30.46875 L 28.40625 45.90625 C 26.089844 45.703125 24.214844 44.472656 23.3125 43.78125 Z"/></svg>