<svg xmlns="http://www.w3.org/2000/svg"  viewBox="0 0 50 50" width="1000px" height="1000px"><path d="M 9.0019531 7.9980469 C 4.0448903 7.9980469 0.001953125 12.040833 0.001953125 16.998047 L 0.001953125 32.998047 C 0.001953125 37.955261 4.0448903 41.998047 9.0019531 41.998047 C 10.179733 41.998047 11.38348 41.835496 12.503906 41.289062 L 19.238281 37.998047 L 30.761719 37.998047 L 37.496094 41.289062 C 38.61652 41.835496 39.820267 41.998047 40.998047 41.998047 C 45.95511 41.998047 50 37.955261 50 32.998047 L 50 16.998047 C 50 12.040833 45.95511 7.9980469 40.998047 7.9980469 C 39.820267 7.9980469 38.61652 8.160599 37.496094 8.7070312 L 30.761719 11.998047 L 19.238281 11.998047 L 12.503906 8.7070312 C 11.38348 8.160599 10.179733 7.9980469 9.0019531 7.9980469 z M 9.0019531 9.9980469 C 9.5187191 9.9980469 10.004836 10.038838 10.458984 10.126953 L 7.5878906 12.998047 L 18.003906 23.414062 L 18.003906 28.583984 L 5.7109375 16.291016 L 4.2949219 17.705078 L 18.003906 31.414062 L 18.003906 36.375 L 17.861328 36.443359 L 5.0019531 23.583984 L 2.0019531 26.583984 L 2.0019531 16.998047 C 2.0019531 13.123261 5.1270159 9.9980469 9.0019531 9.9980469 z M 40.998047 9.9980469 C 41.188094 9.9980469 41.374378 10.010636 41.560547 10.025391 L 36.503906 15.082031 L 34.041016 12.621094 L 38.373047 10.503906 C 39.122621 10.138339 40.005827 9.9980469 40.998047 9.9980469 z M 43.822266 10.591797 C 44.970823 11.097033 45.952897 11.902575 46.677734 12.908203 L 40.503906 19.082031 L 37.917969 16.498047 L 43.822266 10.591797 z M 12.490234 10.925781 L 15.962891 12.623047 L 13.003906 15.582031 L 10.417969 12.998047 L 12.490234 10.925781 z M 32.140625 13.550781 L 48 29.410156 L 48 32.998047 C 48 33.489529 47.947327 33.969125 47.851562 34.431641 L 32.003906 18.583984 L 32.003906 13.617188 L 32.140625 13.550781 z M 17.861328 13.552734 L 18.003906 13.621094 L 18.003906 20.583984 L 14.417969 16.996094 L 17.861328 13.552734 z M 20.003906 13.998047 L 30.003906 13.998047 L 30.003906 35.998047 L 20.003906 35.998047 L 20.003906 13.998047 z M 47.636719 14.779297 C 47.869096 15.476965 48 16.22091 48 16.998047 L 48 19.585938 L 44.503906 23.082031 L 41.917969 20.498047 L 47.636719 14.779297 z M 32.003906 21.414062 L 47.070312 36.480469 C 46.453301 37.555671 45.561362 38.448961 44.486328 39.066406 L 32.003906 26.583984 L 32.003906 21.414062 z M 48 22.416016 L 48 26.580078 L 45.917969 24.498047 L 48 22.416016 z M 5.0019531 26.412109 L 15.962891 37.373047 L 11.626953 39.492188 C 10.877379 39.857754 9.9941728 39.998047 9.0019531 39.998047 C 8.5091265 39.998047 8.0281342 39.945826 7.5644531 39.849609 L 10.708984 36.705078 L 9.2949219 35.291016 L 5.5175781 39.068359 C 4.4421235 38.451139 3.5488433 37.557876 2.9316406 36.482422 L 6.7089844 32.705078 L 5.2949219 31.291016 L 2.1503906 34.435547 C 2.0541778 33.971876 2.0019531 33.490854 2.0019531 32.998047 L 2.0019531 29.412109 L 5.0019531 26.412109 z M 32.003906 29.414062 L 35.587891 32.998047 L 32.140625 36.445312 L 32.003906 36.378906 L 32.003906 29.414062 z M 37.003906 34.414062 L 42.439453 39.849609 C 41.974585 39.946321 41.492172 39.998047 40.998047 39.998047 C 40.006539 39.998047 39.124229 39.857169 38.375 39.492188 L 38.373047 39.492188 L 34.041016 37.375 L 37.003906 34.414062 z"/></svg>