<svg xmlns="http://www.w3.org/2000/svg"  viewBox="0 0 50 50" width="1000px" height="1000px"><path d="M 25 0 C 19.328125 0 16.03125 1.277344 14.15625 3.15625 C 12.28125 5.035156 12 7.394531 12 9 L 12 22.71875 C 12 22.730469 12 22.738281 12 22.75 C 11.914063 22.996094 11.925781 23.261719 12.03125 23.5 C 12.136719 28.617188 13.574219 34.890625 15.03125 40 C 16.542969 45.308594 18.0625 49.34375 18.0625 49.34375 C 18.207031 49.738281 18.582031 50 19 50 L 31 50 C 31.417969 50 31.792969 49.738281 31.9375 49.34375 C 31.9375 49.34375 33.457031 45.308594 34.96875 40 C 36.480469 34.691406 38 28.121094 38 22.90625 L 38 17.5625 C 38.019531 17.335938 38.03125 17.117188 38.03125 16.90625 C 38.027344 16.84375 38.015625 16.78125 38 16.71875 C 38 16.6875 38 16.65625 38 16.625 L 38 9 C 38 7.394531 37.71875 5.035156 35.84375 3.15625 C 33.96875 1.277344 30.671875 0 25 0 Z M 25 2 C 30.371094 2 33.074219 3.222656 34.4375 4.59375 C 35.800781 5.964844 36 7.605469 36 9 L 36 15.8125 C 35.28125 15.691406 34.554688 15.570313 33.8125 15.53125 C 33.472656 15.511719 33.125 15.503906 32.78125 15.5 C 32.46875 14.675781 31.882813 13.730469 30.84375 12.875 C 30.21875 12.363281 29.441406 11.898438 28.5 11.5625 C 29.425781 10.652344 30 9.390625 30 8 C 30 5.25 27.75 3 25 3 C 22.25 3 20 5.25 20 8 C 20 9.4375 20.613281 10.742188 21.59375 11.65625 C 20.335938 12.167969 19.234375 12.953125 18.375 14 C 17.136719 15.503906 16.390625 17.484375 16.125 19.78125 C 15.351563 20.1875 14.632813 20.582031 14 21 L 14 9 C 14 7.605469 14.199219 5.964844 15.5625 4.59375 C 16.925781 3.222656 19.628906 2 25 2 Z M 25 5 C 26.667969 5 28 6.332031 28 8 C 28 9.667969 26.667969 11 25 11 C 23.332031 11 22 9.667969 22 8 C 22 6.332031 23.332031 5 25 5 Z M 25 13 C 27.230469 13 28.640625 13.648438 29.5625 14.40625 C 30.023438 14.785156 30.355469 15.210938 30.59375 15.59375 C 28.054688 15.78125 25.480469 16.289063 23.0625 17 C 21.371094 17.5 19.777344 18.085938 18.3125 18.71875 C 18.628906 17.332031 19.175781 16.167969 19.90625 15.28125 C 21.109375 13.820313 22.789063 13 25 13 Z M 32.0625 17.53125 C 33.417969 17.5 34.714844 17.589844 35.9375 17.8125 C 35.746094 18.9375 35.238281 20.40625 34.4375 21.875 C 33.402344 23.773438 31.886719 25.679688 30.09375 26.9375 C 29.902344 27.070313 29.800781 27.082031 29.59375 27.0625 C 29.386719 27.042969 29.066406 26.9375 28.65625 26.71875 C 27.839844 26.28125 26.734375 25.445313 25.34375 24.5625 C 23.496094 23.390625 21.085938 22.167969 18 21.78125 C 18 21.75 18 21.71875 18 21.6875 C 18 21.472656 18.023438 21.269531 18.03125 21.0625 C 19.679688 20.277344 21.597656 19.535156 23.625 18.9375 C 26.363281 18.132813 29.304688 17.597656 32.0625 17.53125 Z M 36 23.15625 C 35.953125 27.945313 34.496094 34.296875 33.03125 39.4375 C 31.648438 44.292969 30.472656 47.484375 30.28125 48 L 19.71875 48 C 19.527344 47.484375 18.351563 44.292969 16.96875 39.4375 C 15.566406 34.515625 14.1875 28.492188 14.03125 23.78125 C 18.710938 23.1875 21.832031 24.695313 24.28125 26.25 C 25.578125 27.074219 26.648438 27.894531 27.71875 28.46875 C 28.253906 28.753906 28.796875 29.003906 29.40625 29.0625 C 30.015625 29.121094 30.703125 28.945313 31.25 28.5625 C 33.269531 27.144531 34.851563 25.171875 36 23.15625 Z"/></svg>