<svg xmlns="http://www.w3.org/2000/svg"  viewBox="0 0 50 50" width="1000px" height="1000px"><path d="M 28.875 4 C 28.652344 4.023438 28.441406 4.125 28.28125 4.28125 C 27.824219 4.738281 27.390625 5.472656 26.90625 6.53125 C 26.421875 7.589844 25.972656 8.914063 25.96875 10.34375 C 25.964844 11.773438 26.445313 13.34375 27.71875 14.5625 C 28.992188 15.78125 30.976563 16.628906 33.875 17 C 36.398438 17.320313 38.109375 17.746094 39.15625 18.375 C 40.203125 19.003906 40.710938 19.769531 41.03125 21.21875 C 41.070313 21.601563 41.328125 21.929688 41.691406 22.058594 C 42.054688 22.1875 42.460938 22.09375 42.734375 21.824219 C 43.003906 21.550781 43.097656 21.144531 42.96875 20.78125 C 42.570313 18.96875 41.671875 17.546875 40.1875 16.65625 C 38.703125 15.765625 36.75 15.335938 34.125 15 C 31.496094 14.664063 29.953125 13.914063 29.09375 13.09375 C 28.234375 12.273438 27.964844 11.363281 27.96875 10.34375 C 27.972656 9.324219 28.316406 8.222656 28.71875 7.34375 C 29.121094 6.464844 29.675781 5.761719 29.71875 5.71875 C 30.042969 5.417969 30.128906 4.941406 29.933594 4.546875 C 29.742188 4.148438 29.308594 3.929688 28.875 4 Z M 34.8125 5 C 34.261719 5.050781 33.855469 5.542969 33.90625 6.09375 C 33.957031 6.644531 34.449219 7.050781 35 7 C 36.050781 7 37.5 7.125 38.65625 7.78125 C 39.8125 8.4375 40.785156 9.546875 41 12.09375 C 41.046875 12.609375 41.480469 13.003906 42 13 C 42.925781 13 44.828125 13.246094 45.90625 14.1875 C 46.445313 14.660156 46.816406 15.25 46.9375 16.25 C 47.058594 17.25 46.859375 18.6875 46.0625 20.625 C 45.855469 21.144531 46.105469 21.730469 46.625 21.9375 C 47.144531 22.144531 47.730469 21.894531 47.9375 21.375 C 48.820313 19.226563 49.109375 17.484375 48.9375 16.03125 C 48.765625 14.578125 48.085938 13.445313 47.21875 12.6875 C 45.753906 11.410156 44.007813 11.160156 42.75 11.09375 C 42.304688 8.601563 41.144531 6.875 39.65625 6.03125 C 37.988281 5.085938 36.171875 5 35 5 C 34.96875 5 34.9375 5 34.90625 5 C 34.875 5 34.84375 5 34.8125 5 Z M 38.90625 23.96875 C 38.863281 23.976563 38.820313 23.988281 38.78125 24 L 1 24 C 0.96875 24 0.9375 24 0.90625 24 C 0.390625 24.046875 -0.00390625 24.480469 0 25 L 0 33 C 0 33.550781 0.449219 34 1 34 L 49 34 C 49.550781 34 50 33.550781 50 33 L 50 25 C 50 24.449219 49.550781 24 49 24 L 44.1875 24 C 44.054688 23.972656 43.914063 23.972656 43.78125 24 L 39.1875 24 C 39.097656 23.976563 39 23.964844 38.90625 23.96875 Z M 2 26 L 38 26 L 38 32 L 2 32 Z M 40 26 L 43 26 L 43 32 L 40 32 Z M 45 26 L 48 26 L 48 32 L 45 32 Z"/></svg>