<svg xmlns="http://www.w3.org/2000/svg"  viewBox="0 0 50 50" width="1000px" height="1000px"><path d="M 39.90625 2 C 37.3125 2 36.183594 6.351563 37.875 13.4375 C 36.558594 13.863281 35.460938 14.660156 34.6875 15.6875 C 33.523438 17.226563 33 19.203125 33 21.1875 C 33 24.003906 32.707031 26.914063 32 29.5 C 32 21.246094 25.109375 15 17 15 C 8.890625 15 1.785156 21.246094 2 29.53125 C 2.175781 34.171875 4.308594 38.390625 7.6875 41.125 C 5.957031 41.214844 4.324219 41.308594 3.0625 41.46875 C 2.359375 41.558594 1.765625 41.660156 1.25 41.84375 C 0.992188 41.9375 0.746094 42.039063 0.5 42.25 C 0.253906 42.460938 0 42.871094 0 43.3125 C 0 43.941406 0.355469 44.410156 0.75 44.75 C 1.144531 45.089844 1.636719 45.351563 2.21875 45.59375 C 3.378906 46.078125 4.949219 46.492188 6.9375 46.84375 C 10.910156 47.546875 16.492188 48 23.1875 48 C 33.074219 48 38.480469 44.347656 41.1875 39.71875 C 43.777344 35.292969 43.957031 30.222656 43.96875 26.65625 C 46.226563 25.390625 48 23.058594 48 20.3125 C 48 17.191406 45.855469 14.753906 43.09375 13.6875 C 45.839844 4.421875 47.65625 9.804688 49.6875 7.09375 C 50.386719 6.195313 49.914063 4.914063 48.8125 4.3125 C 46.414063 3.066406 43.535156 6.230469 41.71875 13.28125 C 41.152344 13.164063 40.585938 13.09375 40 13.09375 C 39.714844 13.09375 39.429688 13.125 39.15625 13.15625 C 37.285156 3.570313 41.417969 7.398438 42 4.09375 C 42.199219 2.894531 41.207031 2 39.90625 2 Z M 40 15.09375 C 43.117188 15.09375 46 17.34375 46 20.3125 C 46 22.332031 44.453125 24.339844 42.59375 25.1875 C 42.234375 25.347656 42.003906 25.703125 42 26.09375 C 42 29.621094 41.835938 34.671875 39.46875 38.71875 C 37.101563 42.765625 32.597656 46 23.1875 46 C 16.582031 46 11.082031 45.546875 7.28125 44.875 C 5.382813 44.539063 3.890625 44.136719 2.96875 43.75 C 2.804688 43.683594 2.78125 43.628906 2.65625 43.5625 C 2.886719 43.515625 3.011719 43.476563 3.3125 43.4375 C 4.582031 43.277344 6.410156 43.195313 8.375 43.09375 C 10.339844 42.992188 12.460938 42.878906 14.375 42.65625 C 16.277344 42.433594 17.945313 42.128906 19.21875 41.5 C 19.226563 41.496094 19.242188 41.503906 19.25 41.5 C 19.761719 41.257813 20.332031 40.871094 20.9375 40.375 C 20.949219 40.375 20.957031 40.375 20.96875 40.375 C 23.855469 40.527344 26.25 39.863281 28.1875 38.65625 C 28.214844 38.640625 28.253906 38.640625 28.28125 38.625 C 28.410156 38.578125 28.527344 38.5 28.625 38.40625 C 28.636719 38.398438 28.644531 38.382813 28.65625 38.375 C 28.664063 38.363281 28.679688 38.355469 28.6875 38.34375 C 30.125 37.335938 31.28125 36.003906 32.15625 34.46875 C 34.3125 30.695313 35 25.792969 35 21.1875 C 35 19.574219 35.476563 18.015625 36.3125 16.90625 C 37.148438 15.796875 38.292969 15.09375 40 15.09375 Z M 17 17 C 24.089844 17 30 22.355469 30 29.5 C 30 32.136719 28.824219 35.074219 27.28125 36.875 C 26.074219 37.660156 24.652344 38.164063 22.90625 38.3125 C 24.066406 36.746094 25 34.644531 25 32.09375 C 25 28.746094 23.714844 26.398438 22 24.96875 C 20.285156 23.539063 18.21875 23 16.59375 23 C 13.0625 23 11 25.5 11 28 C 11 29.214844 11.386719 30.464844 12.1875 31.46875 C 12.988281 32.472656 14.269531 33.1875 15.8125 33.1875 C 16.171875 33.191406 16.507813 33.003906 16.691406 32.691406 C 16.871094 32.378906 16.871094 31.996094 16.691406 31.683594 C 16.507813 31.371094 16.171875 31.183594 15.8125 31.1875 C 14.855469 31.1875 14.226563 30.816406 13.75 30.21875 C 13.273438 29.621094 13 28.785156 13 28 C 13 26.5 13.925781 25 16.59375 25 C 17.765625 25 19.433594 25.429688 20.71875 26.5 C 22.003906 27.570313 23 29.242188 23 32.09375 C 23 34.195313 22.234375 35.917969 21.25 37.21875 C 20.265625 38.519531 19.027344 39.378906 18.375 39.6875 C 18.363281 39.699219 18.355469 39.707031 18.34375 39.71875 C 17.519531 40.132813 15.945313 40.472656 14.125 40.6875 C 13.148438 40.800781 12.09375 40.871094 11.03125 40.9375 C 11.019531 40.9375 11.011719 40.9375 11 40.9375 C 10.988281 40.925781 10.980469 40.917969 10.96875 40.90625 C 6.90625 38.78125 4.1875 34.425781 4 29.46875 C 3.816406 22.351563 9.910156 17 17 17 Z"/></svg>