<svg xmlns="http://www.w3.org/2000/svg"  viewBox="0 0 50 50" width="1000px" height="1000px"><path d="M 41.5 0 C 41.113281 0.0742188 40.808594 0.367188 40.71875 0.75 L 38.9375 7.96875 C 38.871094 8.222656 38.902344 8.492188 39.03125 8.71875 L 39.9375 10.1875 C 39.773438 10.894531 34.277344 34.359375 33.53125 37.15625 C 32.90625 39.808594 32.058594 41.585938 31.03125 42.65625 C 30.003906 43.726563 28.792969 44.1875 27.09375 44.1875 C 23.742188 44.1875 21.03125 41.699219 20.71875 38.4375 C 23.542969 37.21875 24.90625 34.4375 24.90625 34.4375 C 25.148438 33.9375 24.9375 33.335938 24.4375 33.09375 C 23.9375 32.851563 23.335938 33.0625 23.09375 33.5625 C 23.09375 33.5625 21.332031 37 18 37 C 14.667969 37 12.90625 33.5625 12.90625 33.5625 C 12.714844 33.144531 12.261719 32.914063 11.8125 33 C 11.5 33.054688 11.234375 33.253906 11.089844 33.539063 C 10.949219 33.820313 10.949219 34.15625 11.09375 34.4375 C 11.09375 34.4375 12.375 37.042969 15.03125 38.3125 C 15.253906 44.769531 20.585938 50 27.09375 50 C 31.609375 50 34.585938 47.765625 36.34375 45.25 C 38.101563 42.734375 38.757813 39.941406 39.0625 38.625 C 40.066406 34.503906 46.464844 7.738281 47.96875 1.21875 C 48.035156 0.921875 47.964844 0.613281 47.777344 0.378906 C 47.585938 0.140625 47.300781 0.00390625 47 0 L 41.6875 0 C 41.65625 0 41.625 0 41.59375 0 C 41.5625 0 41.53125 0 41.5 0 Z M 42.46875 2 L 45.75 2 C 45.703125 2.195313 45.550781 2.785156 45.5 3 L 44 3 C 43.96875 3 43.9375 3 43.90625 3 C 43.355469 3.027344 42.925781 3.496094 42.953125 4.046875 C 42.980469 4.597656 43.449219 5.027344 44 5 L 45.03125 5 C 44.972656 5.257813 44.847656 5.726563 44.78125 6 L 43.40625 6 C 43.375 6 43.34375 6 43.3125 6 C 42.761719 6.027344 42.332031 6.496094 42.359375 7.046875 C 42.386719 7.597656 42.855469 8.027344 43.40625 8 L 44.3125 8 C 41.929688 18.074219 37.9375 34.820313 37.125 38.15625 C 37.125 38.167969 37.125 38.175781 37.125 38.1875 C 36.828125 39.46875 36.210938 41.957031 34.71875 44.09375 C 33.226563 46.230469 30.976563 48 27.09375 48 C 21.886719 48 17.582031 44.011719 17.0625 38.9375 C 17.363281 38.980469 17.675781 39 18 39 C 18.257813 39 18.503906 38.964844 18.75 38.9375 C 19.308594 43.03125 22.84375 46.1875 27.09375 46.1875 C 29.195313 46.1875 31.070313 45.519531 32.46875 44.0625 C 33.859375 42.613281 34.796875 40.488281 35.46875 37.65625 C 35.472656 37.644531 35.464844 37.636719 35.46875 37.625 C 36.320313 34.421875 41.96875 10.21875 41.96875 10.21875 C 42.027344 9.960938 41.984375 9.691406 41.84375 9.46875 L 40.96875 8.0625 Z M 18 9 C 12.921875 9 9.070313 9.617188 6.75 10.25 L 6.75 10.21875 C 4.898438 10.710938 3.355469 12.207031 3.09375 14.15625 L 3.125 14.15625 L 2.125 20.625 C 2.121094 20.636719 2.125 20.644531 2.125 20.65625 C 1.636719 23.46875 3.960938 26 6.90625 26 L 12.40625 26 C 12.484375 26 12.753906 26.097656 13.125 26.40625 C 13.496094 26.714844 13.941406 27.183594 14.40625 27.6875 C 14.871094 28.191406 15.339844 28.710938 15.90625 29.15625 C 16.472656 29.601563 17.167969 30 18 30 C 18.832031 30 19.5 29.601563 20.0625 29.15625 C 20.625 28.710938 21.105469 28.1875 21.5625 27.6875 C 22.019531 27.1875 22.472656 26.710938 22.84375 26.40625 C 23.214844 26.101563 23.46875 26 23.59375 26 L 29.09375 26 C 32.050781 26 34.375 23.445313 34 20.5625 L 33 14.0625 C 32.738281 12.113281 31.195313 10.617188 29.34375 10.125 C 29.332031 10.125 29.324219 10.125 29.3125 10.125 C 26.953125 9.613281 23.078125 9 18 9 Z M 18 11 C 22.902344 11 26.601563 11.578125 28.84375 12.0625 C 28.851563 12.0625 28.867188 12.0625 28.875 12.0625 C 30.007813 12.375 30.859375 13.300781 31 14.34375 L 32 20.84375 C 32.222656 22.5625 30.9375 24 29.09375 24 L 23 24 C 22.917969 24 22.722656 23.929688 22.40625 23.5625 C 22.089844 23.195313 21.71875 22.625 21.34375 22 C 20.96875 21.375 20.589844 20.695313 20.09375 20.125 C 19.597656 19.554688 18.917969 19 18 19 C 17.082031 19 16.402344 19.554688 15.90625 20.125 C 15.410156 20.695313 15.03125 21.375 14.65625 22 C 14.28125 22.625 13.910156 23.195313 13.59375 23.5625 C 13.277344 23.929688 13.082031 24 13 24 L 6.90625 24 C 5.0625 24 3.808594 22.542969 4.09375 20.96875 C 4.09375 20.957031 4.09375 20.949219 4.09375 20.9375 L 5.09375 14.4375 C 5.234375 13.386719 6.101563 12.460938 7.25 12.15625 C 9.332031 11.589844 13.078125 11 18 11 Z M 18 21 C 18.082031 21 18.277344 21.070313 18.59375 21.4375 C 18.910156 21.804688 19.28125 22.375 19.65625 23 C 20.03125 23.625 20.410156 24.304688 20.90625 24.875 C 21 24.984375 21.109375 25.082031 21.21875 25.1875 C 20.824219 25.554688 20.445313 25.929688 20.09375 26.3125 C 19.640625 26.8125 19.222656 27.289063 18.84375 27.59375 C 18.464844 27.898438 18.167969 28 18 28 C 17.832031 28 17.542969 27.898438 17.15625 27.59375 C 16.769531 27.289063 16.304688 26.808594 15.84375 26.3125 C 15.496094 25.9375 15.15625 25.546875 14.78125 25.1875 C 14.890625 25.082031 15 24.984375 15.09375 24.875 C 15.589844 24.304688 15.96875 23.625 16.34375 23 C 16.71875 22.375 17.089844 21.804688 17.40625 21.4375 C 17.722656 21.070313 17.917969 21 18 21 Z"/></svg>