<svg xmlns="http://www.w3.org/2000/svg"  viewBox="0 0 50 50" width="1000px" height="1000px"><path d="M 46 0 C 43.800781 0 42 1.800781 42 4 C 42 6.199219 43.800781 8 46 8 C 48.199219 8 50 6.199219 50 4 C 50 1.800781 48.199219 0 46 0 Z M 46 2 C 47.117188 2 48 2.882813 48 4 C 48 5.117188 47.117188 6 46 6 C 44.882813 6 44 5.117188 44 4 C 44 2.882813 44.882813 2 46 2 Z M 38 5 C 36.355469 5 35 6.355469 35 8 C 35 9.644531 36.355469 11 38 11 C 39.644531 11 41 9.644531 41 8 C 41 6.355469 39.644531 5 38 5 Z M 38 7 C 38.5625 7 39 7.4375 39 8 C 39 8.5625 38.5625 9 38 9 C 37.4375 9 37 8.5625 37 8 C 37 7.4375 37.4375 7 38 7 Z M 25 11.09375 C 19.722656 11.09375 14.851563 11.828125 10.78125 12.84375 C 10.773438 12.847656 10.757813 12.839844 10.75 12.84375 C 4.433594 14.363281 0 19.964844 0 26.40625 L 0 31.59375 C 0 38.035156 4.433594 43.636719 10.75 45.15625 C 10.757813 45.15625 10.777344 45.148438 10.78125 45.15625 C 14.839844 46.167969 19.808594 47 25 47 C 30.191406 47 35.160156 46.167969 39.21875 45.15625 C 39.222656 45.148438 39.242188 45.15625 39.25 45.15625 C 45.566406 43.636719 50 38.035156 50 31.59375 L 50 26.40625 C 50 19.941406 45.492188 14.320313 39.25 12.8125 C 39.238281 12.8125 39.230469 12.8125 39.21875 12.8125 C 35.265625 11.902344 30.300781 11.09375 25 11.09375 Z M 25 13.09375 C 30.085938 13.09375 34.90625 13.894531 38.75 14.78125 C 38.757813 14.785156 38.773438 14.777344 38.78125 14.78125 C 44.125 16.085938 48 20.882813 48 26.40625 L 48 31.59375 C 48 37.136719 44.242188 41.921875 38.78125 43.21875 C 38.769531 43.21875 38.761719 43.21875 38.75 43.21875 C 34.816406 44.203125 29.996094 45 25 45 C 20.003906 45 15.183594 44.203125 11.25 43.21875 C 11.238281 43.21875 11.230469 43.21875 11.21875 43.21875 C 5.757813 41.921875 2 37.136719 2 31.59375 L 2 26.40625 C 2 20.863281 5.757813 16.078125 11.21875 14.78125 C 11.230469 14.78125 11.238281 14.78125 11.25 14.78125 C 15.175781 13.800781 19.890625 13.09375 25 13.09375 Z M 25 18.5 C 20.6875 18.5 16.753906 19.59375 13.84375 21.4375 C 10.933594 23.28125 9 25.949219 9 29 C 9 32.050781 10.933594 34.71875 13.84375 36.5625 C 16.753906 38.40625 20.6875 39.5 25 39.5 C 29.3125 39.5 33.246094 38.40625 36.15625 36.5625 C 39.066406 34.71875 41 32.050781 41 29 C 41 25.949219 39.066406 23.28125 36.15625 21.4375 C 33.246094 19.59375 29.3125 18.5 25 18.5 Z M 25 20.5 C 28.972656 20.5 32.542969 21.527344 35.0625 23.125 C 37.582031 24.722656 39 26.804688 39 29 C 39 31.195313 37.582031 33.277344 35.0625 34.875 C 32.542969 36.472656 28.972656 37.5 25 37.5 C 21.027344 37.5 17.457031 36.472656 14.9375 34.875 C 12.417969 33.277344 11 31.195313 11 29 C 11 26.804688 12.417969 24.722656 14.9375 23.125 C 17.457031 21.527344 21.027344 20.5 25 20.5 Z"/></svg>