<svg xmlns="http://www.w3.org/2000/svg"  viewBox="0 0 50 50" width="1000px" height="1000px"><path d="M 23 2 C 21.453125 2 20.179688 3.207031 20.03125 4.71875 C 19.917969 4.671875 19.851563 4.640625 19.71875 4.59375 C 18.867188 4.292969 17.617188 4 16 4 C 13.226563 4 10.625 5.0625 10.625 5.0625 C 10.105469 5.269531 9.855469 5.855469 10.0625 6.375 C 10.269531 6.894531 10.855469 7.144531 11.375 6.9375 C 11.375 6.9375 13.753906 6 16 6 C 17.382813 6 18.40625 6.238281 19.0625 6.46875 C 19.71875 6.699219 19.9375 6.875 19.9375 6.875 C 19.957031 6.886719 19.980469 6.898438 20 6.90625 L 20 9 C 20 9.550781 20.449219 10 21 10 L 22 10 L 22 11 L 21 11 C 19.355469 11 18 12.355469 18 14 L 18 16 C 14.144531 16 11 19.144531 11 23 L 11 46 C 11 47.09375 11.90625 48 13 48 L 37 48 C 38.09375 48 39 47.09375 39 46 L 39 23 C 39 19.144531 35.855469 16 32 16 L 32 14 C 32 12.355469 30.644531 11 29 11 L 28 11 L 28 10 L 29 10 C 29.550781 10 30 9.550781 30 9 L 30 5 C 30 3.355469 28.644531 2 27 2 Z M 23 4 L 27 4 C 27.566406 4 28 4.433594 28 5 L 28 8 L 27.1875 8 C 27.054688 7.972656 26.914063 7.972656 26.78125 8 L 23.1875 8 C 23.054688 7.972656 22.914063 7.972656 22.78125 8 L 22 8 L 22 5 C 22 4.433594 22.433594 4 23 4 Z M 24 10 L 26 10 L 26 11 L 24 11 Z M 21 13 L 29 13 C 29.566406 13 30 13.433594 30 14 L 30 16 L 20 16 L 20 14 C 20 13.433594 20.433594 13 21 13 Z M 18 18 L 32 18 C 34.773438 18 37 20.226563 37 23 L 37 46 L 13 46 L 13 23 C 13 20.226563 15.226563 18 18 18 Z"/></svg>