<svg fill="#000000" xmlns="http://www.w3.org/2000/svg"  viewBox="0 0 50 50" width="1000px" height="1000px"><path d="M 9 2 C 6.25 2 4 4.25 4 7 C 4 9.75 6.25 12 9 12 C 11.75 12 14 9.75 14 7 C 14 4.25 11.75 2 9 2 Z M 9 4 C 10.667969 4 12 5.332031 12 7 C 12 8.667969 10.667969 10 9 10 C 7.332031 10 6 8.667969 6 7 C 6 5.332031 7.332031 4 9 4 Z M 38 6 C 34.457031 6 31.464844 8.289063 30.40625 11.46875 C 28.675781 11.15625 26.871094 11 25 11 C 18.691406 11 12.984375 12.960938 8.8125 16.1875 C 4.640625 19.414063 2 23.953125 2 29 C 2 34.046875 4.640625 38.585938 8.8125 41.8125 C 12.984375 45.039063 18.691406 47 25 47 C 31.308594 47 37.015625 45.039063 41.1875 41.8125 C 45.359375 38.585938 48 34.046875 48 29 C 48 25.332031 46.636719 21.863281 44.21875 19.0625 C 45.339844 17.683594 46 15.921875 46 14 C 46 9.570313 42.429688 6 38 6 Z M 38 8 C 41.371094 8 44 10.628906 44 14 C 44 17.371094 41.371094 20 38 20 C 37.921875 20 37.523438 19.90625 37 19.90625 C 36.449219 19.90625 36 20.355469 36 20.90625 L 36 21 C 36 23.277344 34.277344 25 32 25 C 29.722656 25 28 23.277344 28 21 C 28 19.007813 29.542969 17.332031 31.4375 17.09375 C 31.726563 17.050781 31.980469 16.886719 32.136719 16.640625 C 32.292969 16.394531 32.335938 16.089844 32.25 15.8125 C 32.074219 15.195313 32 14.605469 32 14 C 32 10.628906 34.628906 8 38 8 Z M 25 13 C 26.757813 13 28.429688 13.179688 30.03125 13.46875 C 30.019531 13.648438 30 13.820313 30 14 C 30 14.472656 30.140625 14.9375 30.21875 15.40625 C 27.8125 16.160156 26 18.351563 26 21 C 26 24.324219 28.675781 27 32 27 C 34.980469 27 37.335938 24.808594 37.8125 21.96875 C 37.902344 21.972656 37.902344 22 38 22 C 39.789063 22 41.417969 21.394531 42.75 20.40625 C 44.847656 22.859375 46 25.847656 46 29 C 46 33.351563 43.75 37.296875 39.96875 40.21875 C 36.1875 43.140625 30.890625 45 25 45 C 19.109375 45 13.8125 43.140625 10.03125 40.21875 C 6.25 37.296875 4 33.351563 4 29 C 4 24.648438 6.25 20.703125 10.03125 17.78125 C 13.8125 14.859375 19.109375 13 25 13 Z M 20.96875 18.375 C 20.914063 18.382813 20.863281 18.390625 20.8125 18.40625 C 14.683594 19.675781 10 23.878906 10 29 C 9.996094 29.359375 10.183594 29.695313 10.496094 29.878906 C 10.808594 30.058594 11.191406 30.058594 11.503906 29.878906 C 11.816406 29.695313 12.003906 29.359375 12 29 C 12 25.121094 15.714844 21.507813 21.1875 20.375 C 21.738281 20.316406 22.136719 19.816406 22.078125 19.265625 C 22.019531 18.714844 21.519531 18.316406 20.96875 18.375 Z"/></svg>