<svg xmlns="http://www.w3.org/2000/svg"  viewBox="0 0 50 50" width="1000px" height="1000px"><path d="M 25 2 A 1.0001 1.0001 0 0 0 24.845703 2.015625 C 12.228918 2.1010104 2 12.362336 2 25 C 2 37.690521 12.310489 48 25 48 C 37.689511 48 48 37.690521 48 25 C 48 12.363661 37.773165 2.1031375 25.158203 2.015625 A 1.0001 1.0001 0 0 0 25 2 z M 25 4 C 26.343385 4 27.654848 4.13069 28.927734 4.3710938 L 25 6.8222656 L 21.072266 4.3710938 C 22.345152 4.13069 23.656615 4 25 4 z M 18.400391 5.0625 L 24.025391 8.5703125 L 24.025391 14.472656 L 15.355469 20.771484 L 9.6679688 18.9375 L 8.0878906 12.580078 C 10.640724 9.1080254 14.22091 6.4429428 18.400391 5.0625 z M 31.599609 5.0625 C 35.779974 6.4432348 39.36113 9.1088987 41.914062 12.582031 L 40.322266 18.990234 L 34.646484 20.771484 L 26.025391 14.509766 L 26.025391 8.5390625 L 31.599609 5.0625 z M 6.5976562 14.878906 L 7.7109375 19.359375 L 4.1738281 22.330078 C 4.5125171 19.655982 5.3526991 17.140282 6.5976562 14.878906 z M 43.404297 14.880859 C 44.658821 17.160307 45.500976 19.698608 45.833984 22.396484 L 42.279297 19.408203 L 43.404297 14.880859 z M 25 16.236328 L 33.287109 22.257812 L 30.123047 32 L 19.876953 32 L 16.712891 22.257812 L 25 16.236328 z M 9.0527344 20.841797 L 14.746094 22.673828 L 18.042969 32.828125 L 14.519531 37.681641 L 7.9375 37.21875 C 5.4843331 33.797342 4.0201531 29.618586 4.0019531 25.085938 L 9.0527344 20.841797 z M 40.935547 20.892578 L 45.996094 25.144531 C 45.965552 29.666654 44.497373 33.834489 42.042969 37.246094 L 35.447266 37.712891 L 31.958984 32.820312 L 35.253906 22.677734 L 40.935547 20.892578 z M 19.664062 34 L 30.345703 34 L 33.826172 38.882812 L 31.337891 45.025391 C 29.338047 45.656638 27.210066 46 25 46 C 22.779067 46 20.641206 45.65285 18.632812 45.015625 L 16.138672 38.855469 L 19.664062 34 z M 9.6855469 39.345703 L 14.3125 39.671875 L 16.056641 43.982422 C 13.64434 42.84507 11.48727 41.268506 9.6855469 39.345703 z M 40.289062 39.375 C 38.484795 41.293441 36.325323 42.865197 33.912109 43.998047 L 35.652344 39.703125 L 40.289062 39.375 z"/></svg>