<svg xmlns="http://www.w3.org/2000/svg"  viewBox="0 0 50 50" width="1000px" height="1000px"><path d="M 21.056641 1.9003906 L 20.208984 4.1132812 C 19.760737 4.1922553 19.329046 4.2974917 18.927734 4.4492188 L 16.716797 3.1992188 L 17.269531 5.3574219 C 16.767973 5.7171104 16.31022 6.1198096 15.90625 6.5625 L 13.837891 6.4433594 L 14.873047 7.8984375 C 14.706418 8.1505937 14.552644 8.4014945 14.410156 8.6542969 L 12.09375 9.0996094 L 13.550781 10.433594 C 13.412853 10.772254 13.292734 11.090735 13.197266 11.378906 C 9.1885341 6.2337538 6.8496094 2.4726564 6.8496094 2.4726562 A 1.0001 1.0001 0 0 0 6.0214844 1.9882812 A 1.0001 1.0001 0 0 0 5.1503906 3.5273438 C 5.1503906 3.5273438 7.6521729 7.549209 11.908203 12.974609 C 11.364361 13.111375 10.6927 13.322135 9.9238281 13.650391 L 8.4082031 12.470703 L 8.4257812 14.40625 C 7.9281038 14.697117 7.4358393 15.036987 6.9628906 15.433594 L 4.8457031 14.693359 L 5.6796875 16.730469 C 5.3781736 17.111101 5.1176251 17.535908 4.8828125 17.984375 L 2.4726562 18.34375 L 4.2167969 19.734375 C 4.1049783 20.204618 4.0302694 20.702148 4.0058594 21.230469 L 2 22.480469 L 3.9941406 23.326172 C 4.0104436 23.877098 4.0457198 24.414682 4.0917969 24.939453 L 2.2714844 26.404297 L 4.3554688 26.986328 C 4.4478966 27.527055 4.5534155 28.054 4.6777344 28.564453 L 3.0859375 30.285156 L 5.2695312 30.535156 C 5.4453305 31.039713 5.6367494 31.528284 5.84375 32 L 4.5449219 34.003906 L 6.7734375 33.863281 C 7.030171 34.30988 7.299636 34.743166 7.5839844 35.15625 L 6.671875 37.404297 L 8.8886719 36.822266 C 9.2122859 37.194281 9.5455613 37.55062 9.890625 37.890625 L 9.40625 40.333984 L 11.523438 39.333984 C 11.893331 39.62565 12.270394 39.901483 12.654297 40.164062 L 12.597656 42.720703 L 14.580078 41.345703 C 14.970145 41.557395 15.364009 41.75493 15.759766 41.943359 L 16.097656 44.564453 L 17.933594 42.863281 C 18.323248 43.008877 18.710888 43.140593 19.099609 43.267578 L 19.787109 45.919922 L 21.46875 43.939453 C 21.84415 44.030877 22.212134 44.108714 22.580078 44.185547 L 23.587891 46.84375 L 25.103516 44.630859 C 25.489663 44.683936 25.851375 44.722183 26.21875 44.761719 L 27.449219 47.259766 L 28.720703 44.958984 C 29.139942 44.977261 29.514772 44.98577 29.878906 44.990234 L 31.378906 47.341797 L 32.318359 44.875 C 32.685909 44.834041 33.052995 44.785616 33.419922 44.724609 L 35.355469 46.826172 L 35.84375 44.191406 C 36.204748 44.091839 36.5629 43.986629 36.916016 43.873047 L 39.136719 45.716797 L 39.271484 42.992188 C 39.339452 42.963381 39.411176 42.937364 39.478516 42.908203 L 41.728516 44.267578 L 41.546875 41.90625 C 41.919766 41.704867 42.277056 41.500372 42.613281 41.292969 L 44.701172 42.140625 L 44.146484 40.216797 C 44.20394 40.170598 44.270952 40.124328 44.326172 40.078125 C 44.613497 39.837718 44.86054 39.595358 45.085938 39.349609 L 47.873047 38.738281 L 45.998047 36.949219 C 45.993503 36.561657 45.991593 36.14163 46 35.681641 L 48 34.494141 L 46 33.214844 C 45.988918 32.854108 45.95662 32.482409 45.927734 32.109375 L 48 30.486328 L 45.605469 29.794922 C 45.515355 29.390775 45.407478 28.989111 45.275391 28.589844 L 46.652344 26.398438 L 44.251953 26.398438 C 44.060656 26.091121 43.851491 25.789757 43.617188 25.498047 L 44.464844 23.427734 L 42.152344 23.474609 C 42.139114 23.445531 42.128484 23.430373 42.115234 23.400391 C 41.961407 23.052306 41.766098 22.525127 41.589844 22.072266 L 42.955078 20.048828 L 40.78125 20.019531 C 40.65392 19.694557 40.521757 19.368662 40.380859 19.025391 L 41.59375 17.068359 L 39.5625 17.162109 C 39.411856 16.837334 39.261567 16.512668 39.095703 16.181641 L 39.990234 13.847656 L 37.890625 14 C 37.728221 13.733536 37.540874 13.470265 37.365234 13.205078 L 38.197266 10.935547 L 36.152344 11.501953 C 35.803705 11.066708 35.42766 10.642101 35.035156 10.224609 L 35.492188 8.0371094 L 33.644531 8.875 C 33.207174 8.491664 32.73965 8.125778 32.253906 7.7734375 L 32.332031 5.6015625 L 30.671875 6.7363281 C 30.173524 6.4463112 29.646084 6.1782282 29.101562 5.9257812 L 28.787109 3.7519531 L 27.320312 5.1992188 C 26.809524 5.020943 26.284336 4.8560485 25.736328 4.7128906 L 24.978516 2.4003906 L 23.623047 4.28125 C 23.152959 4.2057473 22.6709 4.143098 22.175781 4.09375 L 21.056641 1.9003906 z M 21.103516 6.0097656 C 29.324861 6.5244166 33.586826 10.705498 36.269531 15.171875 C 37.614716 17.411443 38.531942 19.718505 39.269531 21.644531 C 39.638326 22.607544 39.960971 23.47541 40.285156 24.208984 C 40.609342 24.942559 40.90202 25.545146 41.40625 26.03125 L 41.408203 26.035156 L 41.412109 26.037109 C 44.576275 29.042585 43.857618 34.076155 44 37.480469 C 43.997712 37.425312 43.98476 37.465307 43.951172 37.541016 C 33.875181 33.412301 24.621258 24.777789 17.902344 17.087891 C 16.760916 15.781509 15.722156 14.526426 14.734375 13.304688 C 14.860081 12.737745 15.174031 11.460004 15.998047 9.9023438 C 17.025854 7.95945 18.592116 6.1704361 21.103516 6.0097656 z M 13.292969 14.701172 C 14.263928 15.898943 15.282466 17.127333 16.396484 18.402344 C 23.048345 26.015497 32.133668 34.607134 42.384766 39.050781 C 41.679707 39.55119 40.783013 40.080363 39.769531 40.576172 C 37.043478 41.909733 33.45884 43 30.34375 43 C 27.106877 43 20.719052 42.461919 15.373047 39.503906 C 10.027042 36.545893 5.6442719 31.343741 6 21.390625 C 6.1040477 18.483846 7.9138786 16.893405 9.8613281 15.884766 C 11.252937 15.164012 12.613196 14.835364 13.292969 14.701172 z M 13 22 C 13 22 8.993 22.285219 9 24.074219 C 9.478 25.791219 11.79 25.129 13 22 z M 16 28 C 16 28 11.996 28.513281 12 30.238281 C 12.112 31.771281 15.008 30.97 16 28 z M 19.996094 32 C 19.996094 32 16.259813 33.966297 17.132812 35.404297 C 18.365813 36.894297 19.820094 35.469 19.996094 32 z M 25.878906 35 C 25.878906 35 21.899875 37.570016 23.296875 38.666016 C 24.693875 39.762016 26.483906 38.063 25.878906 35 z M 31.771484 37 C 31.771484 37 29.170438 39.135313 30.273438 39.820312 C 31.375438 40.504313 32.493484 39.153 31.771484 37 z"/></svg>