<svg fill="#000000" xmlns="http://www.w3.org/2000/svg"  viewBox="0 0 50 50" width="1000px" height="1000px"><path d="M 17 1 A 1.0001 1.0001 0 0 0 16.105469 2.4472656 L 18.101562 6.4394531 C 18.336151 6.9196066 18.66331 8.6978634 18.808594 10.449219 C 18.953878 12.200574 19 14.022569 19 15 C 19 15.636364 18.659534 16.81186 18.054688 18.248047 C 17.449839 19.684234 16.6079 21.404698 15.716797 23.324219 C 13.934591 27.163261 11.948007 31.80211 11.251953 36.78125 C 10.613278 41.337547 11.321853 44.474156 12.041016 46.396484 C 12.041016 46.396484 12.042969 46.398438 12.042969 46.398438 C 12.042969 46.398438 12.042969 46.400391 12.042969 46.400391 C 12.269632 47.01138 12.581077 47.620527 13.078125 48.123047 C 13.576203 48.626562 14.311932 49 15.134766 49 L 34.867188 49 C 35.690576 49 36.42589 48.626822 36.923828 48.123047 C 37.421352 47.619691 37.732359 47.011315 37.958984 46.400391 L 37.958984 46.398438 C 38.677027 44.477042 39.388887 41.339059 38.75 36.78125 L 38.75 36.779297 C 38.053192 31.800967 36.0653 27.162755 34.283203 23.324219 C 33.392041 21.404705 32.550173 19.68423 31.945312 18.248047 C 31.340452 16.811864 31 15.636364 31 15 C 31 14.022569 31.046122 12.200574 31.191406 10.449219 C 31.33669 8.6978634 31.66385 6.9196066 31.898438 6.4394531 L 33.894531 2.4472656 A 1.0001 1.0001 0 0 0 33 1 L 17 1 z M 18.617188 3 L 31.382812 3 L 30.382812 5 L 19.617188 5 L 18.617188 3 z M 20.314453 7 L 29.685547 7 C 29.456363 7.9868661 29.2994 9.0774992 29.199219 10.285156 C 29.047503 12.114051 29 13.960431 29 15 C 29 16.214136 29.461612 17.503933 30.101562 19.023438 C 30.223074 19.311953 30.415575 19.696825 30.550781 20 L 19.449219 20 C 19.58442 19.696826 19.77693 19.311953 19.898438 19.023438 C 20.538372 17.503937 21 16.214136 21 15 C 21 13.960431 20.952497 12.114051 20.800781 10.285156 C 20.7006 9.0774992 20.543637 7.9868661 20.314453 7 z M 18.527344 22 L 31.472656 22 C 31.81846 22.73558 32.097915 23.367257 32.46875 24.166016 C 34.229925 27.959488 36.122098 32.428743 36.769531 37.056641 A 1.0001 1.0001 0 0 0 36.769531 37.058594 C 37.363927 41.296435 36.709601 44.030861 36.085938 45.699219 A 1.0001 1.0001 0 0 0 36.083984 45.703125 C 35.920657 46.143689 35.707765 46.508572 35.501953 46.716797 C 35.296187 46.92498 35.148798 47 34.867188 47 L 15.134766 47 C 14.853599 47 14.705875 46.924938 14.5 46.716797 C 14.294125 46.508655 14.079229 46.1438 13.916016 45.703125 A 1.0001 1.0001 0 0 0 13.916016 45.699219 C 13.291702 44.031596 12.638005 41.296582 13.232422 37.058594 A 1.0001 1.0001 0 0 0 13.232422 37.056641 C 13.879368 32.428822 15.770206 27.959474 17.53125 24.166016 C 17.902058 23.36726 18.181558 22.735578 18.527344 22 z M 25 31 C 22.621972 31 20.454072 31.591204 18.8125 32.617188 C 17.170928 33.643171 16 35.186937 16 37 C 16 38.813063 17.170928 40.356829 18.8125 41.382812 C 20.454072 42.408797 22.621972 43 25 43 C 27.378028 43 29.545928 42.408797 31.1875 41.382812 C 32.829072 40.356829 34 38.813063 34 37 C 34 35.186937 32.829072 33.643171 31.1875 32.617188 C 29.545928 31.591204 27.378028 31 25 31 z M 25 33 C 27.040253 33 28.873097 33.528839 30.126953 34.3125 C 31.380809 35.096161 32 36.051639 32 37 C 32 37.948361 31.380809 38.903839 30.126953 39.6875 C 28.873097 40.471161 27.040253 41 25 41 C 22.959747 41 21.126903 40.471161 19.873047 39.6875 C 18.619191 38.903839 18 37.948361 18 37 C 18 36.051639 18.619191 35.096161 19.873047 34.3125 C 21.126903 33.528839 22.959747 33 25 33 z"/></svg>