<svg fill="#000000" xmlns="http://www.w3.org/2000/svg"  viewBox="0 0 50 50" width="1000px" height="1000px"><path d="M 44 1.21875 C 43.628906 1.273438 43.316406 1.523438 43.1875 1.875 C 42.03125 5.0625 41.265625 5.929688 40.125 6.625 C 38.984375 7.320313 37.160156 7.851563 34.40625 9.78125 C 31.777344 11.625 30.304688 14.105469 29.34375 16.09375 C 28.863281 17.089844 28.503906 17.949219 28.21875 18.53125 C 28.074219 18.820313 27.945313 19.0625 27.875 19.15625 C 22.234375 20.308594 18.957031 23.195313 17.0625 25.84375 C 16.105469 27.183594 15.476563 28.445313 15.03125 29.375 C 14.808594 29.839844 14.628906 30.242188 14.5 30.46875 C 14.449219 30.558594 14.402344 30.570313 14.375 30.59375 C 7.789063 31.496094 2.769531 36.058594 1 44.625 C 0.929688 44.949219 1.023438 45.289063 1.25 45.53125 C 1.984375 46.308594 3.148438 46.96875 4.65625 47.5625 C 6.164063 48.15625 8.011719 48.640625 10.03125 48.84375 C 13.953125 49.238281 18.566406 48.488281 22.28125 45.28125 C 25.738281 45.164063 29.65625 43.429688 33 40.875 C 36.34375 38.320313 39.101563 34.945313 40 31.28125 C 49.003906 25.207031 51.875 11.46875 44.96875 1.65625 C 44.753906 1.339844 44.378906 1.171875 44 1.21875 Z M 44.1875 4.4375 C 49.164063 13.273438 46.316406 24.890625 38.5625 29.84375 C 38.335938 29.996094 38.175781 30.230469 38.125 30.5 C 37.488281 33.566406 34.9375 36.816406 31.75 39.25 C 28.5625 41.683594 24.730469 43.28125 21.90625 43.28125 C 21.652344 43.277344 21.410156 43.367188 21.21875 43.53125 C 17.976563 46.507813 13.855469 47.179688 10.21875 46.8125 C 8.398438 46.628906 6.738281 46.179688 5.40625 45.65625 C 4.3125 45.226563 3.675781 44.769531 3.21875 44.40625 C 5.007813 36.722656 9.152344 33.140625 15.03125 32.5 C 15.117188 32.488281 15.199219 32.46875 15.28125 32.4375 C 15.925781 32.195313 16.050781 31.816406 16.25 31.46875 C 16.449219 31.121094 16.65625 30.738281 16.875 30.28125 C 17.3125 29.367188 17.871094 28.214844 18.71875 27.03125 C 20.414063 24.664063 23.167969 22.121094 28.4375 21.09375 C 28.964844 20.992188 29.277344 20.664063 29.5 20.375 C 29.722656 20.085938 29.890625 19.785156 30.0625 19.4375 C 30.402344 18.746094 30.738281 17.894531 31.1875 16.96875 C 32.085938 15.113281 33.378906 12.988281 35.59375 11.4375 C 38.140625 9.652344 39.679688 9.265625 41.1875 8.34375 C 42.328125 7.648438 43.265625 6.347656 44.1875 4.4375 Z M 40.625 11.8125 C 40.4375 11.808594 40.25 11.824219 40.0625 11.84375 C 39.308594 11.925781 38.5625 12.1875 37.875 12.5625 C 36.503906 13.3125 35.261719 14.492188 34.5 15.90625 C 33.78125 17.242188 33.367188 18.660156 33.4375 20 C 33.507813 21.339844 34.175781 22.671875 35.46875 23.375 C 36.761719 24.074219 38.351563 24.101563 39.8125 23.65625 C 41.273438 23.210938 42.667969 22.269531 43.46875 20.78125 C 43.46875 20.769531 43.46875 20.761719 43.46875 20.75 C 44.226563 19.335938 44.535156 17.683594 44.40625 16.125 C 44.277344 14.566406 43.679688 13.011719 42.28125 12.25 C 41.753906 11.964844 41.191406 11.828125 40.625 11.8125 Z M 40.21875 13.84375 C 40.644531 13.792969 41.023438 13.84375 41.3125 14 C 41.894531 14.316406 42.3125 15.136719 42.40625 16.28125 C 42.5 17.425781 42.238281 18.785156 41.6875 19.8125 C 41.175781 20.761719 40.242188 21.4375 39.21875 21.75 C 38.195313 22.0625 37.125 21.96875 36.4375 21.59375 C 35.746094 21.21875 35.480469 20.730469 35.4375 19.90625 C 35.394531 19.082031 35.691406 17.972656 36.28125 16.875 C 36.832031 15.851563 37.808594 14.859375 38.8125 14.3125 C 39.3125 14.039063 39.792969 13.894531 40.21875 13.84375 Z M 29 24.46875 C 28.089844 24.457031 27.164063 24.679688 26.28125 25.03125 C 24.519531 25.734375 22.855469 26.996094 21.75 28.59375 C 21.75 28.605469 21.75 28.613281 21.75 28.625 C 20.695313 30.152344 20.019531 31.792969 19.9375 33.40625 C 19.855469 35.019531 20.488281 36.617188 21.9375 37.625 C 23.382813 38.628906 25.269531 38.917969 27.09375 38.59375 C 28.917969 38.269531 30.722656 37.324219 31.875 35.65625 C 32.980469 34.058594 33.585938 32.0625 33.625 30.15625 C 33.664063 28.25 33.109375 26.328125 31.5625 25.25 C 30.789063 24.710938 29.910156 24.480469 29 24.46875 Z M 28.9375 26.46875 C 29.519531 26.472656 30.039063 26.628906 30.4375 26.90625 C 31.234375 27.460938 31.652344 28.640625 31.625 30.125 C 31.597656 31.609375 31.097656 33.300781 30.25 34.53125 C 29.449219 35.6875 28.125 36.382813 26.75 36.625 C 25.375 36.867188 23.988281 36.621094 23.09375 36 C 22.195313 35.375 21.882813 34.59375 21.9375 33.5 C 21.992188 32.40625 22.507813 31.050781 23.40625 29.75 C 24.257813 28.519531 25.660156 27.421875 27.03125 26.875 C 27.71875 26.601563 28.355469 26.464844 28.9375 26.46875 Z M 14.3125 34.9375 C 12.773438 35.027344 11.199219 35.515625 9.96875 36.375 C 9.957031 36.375 9.949219 36.375 9.9375 36.375 C 8.769531 37.195313 7.785156 38.285156 7.21875 39.53125 C 6.652344 40.777344 6.542969 42.304688 7.4375 43.5 C 8.441406 44.839844 10.222656 45.160156 12 45.15625 C 13.777344 45.152344 15.617188 44.765625 16.9375 43.84375 C 16.949219 43.84375 16.957031 43.84375 16.96875 43.84375 C 19.496094 42.070313 19.914063 38.683594 18.375 36.46875 C 17.472656 35.167969 15.851563 34.847656 14.3125 34.9375 Z M 14.4375 36.90625 C 15.59375 36.839844 16.421875 37.164063 16.71875 37.59375 C 16.730469 37.59375 16.738281 37.59375 16.75 37.59375 C 17.617188 38.84375 17.421875 41.058594 15.8125 42.1875 C 15.0625 42.710938 13.453125 43.152344 12 43.15625 C 10.546875 43.160156 9.324219 42.660156 9.0625 42.3125 C 8.675781 41.796875 8.65625 41.199219 9.03125 40.375 C 9.40625 39.550781 10.191406 38.664063 11.09375 38.03125 C 11.9375 37.441406 13.28125 36.972656 14.4375 36.90625 Z"/></svg>