<svg xmlns="http://www.w3.org/2000/svg"  viewBox="0 0 50 50" width="1000px" height="1000px"><path d="M 36.984375 3 C 36.742188 3.003906 36.507813 3.097656 36.328125 3.257813 L 25.984375 12.667969 C 25.359375 13.234375 25 14.039063 25 14.886719 L 25 18.109375 C 25 19.695313 24.371094 21.21875 23.253906 22.34375 L 3.890625 41.804688 C 2.710938 42.984375 2.710938 44.925781 3.890625 46.109375 C 4.082031 46.296875 4.335938 46.398438 4.601563 46.402344 L 4.578125 46.390625 C 4.582031 46.394531 4.59375 46.394531 4.601563 46.398438 L 4.601563 46.402344 C 5.765625 47.058594 7.210938 47.09375 8.195313 46.109375 L 27.65625 26.746094 C 28.78125 25.628906 30.304688 25 31.890625 25 L 35.113281 25 C 35.960938 25 36.765625 24.640625 37.332031 24.015625 L 46.738281 13.671875 C 47.097656 13.277344 47.082031 12.671875 46.707031 12.292969 L 37.707031 3.292969 C 37.515625 3.101563 37.253906 2.996094 36.984375 3 Z M 36.96875 5.382813 L 44.621094 13.03125 L 35.855469 22.671875 C 35.664063 22.878906 35.394531 23 35.113281 23 L 31.890625 23 C 29.773438 23 27.746094 23.835938 26.246094 25.328125 L 23.988281 27.574219 L 22.425781 26.011719 L 24.671875 23.753906 C 26.164063 22.253906 27 20.226563 27 18.109375 L 27 14.886719 C 27 14.601563 27.117188 14.335938 27.328125 14.144531 Z M 36.957031 7.984375 C 36.640625 7.996094 36.347656 8.160156 36.167969 8.421875 C 35.988281 8.683594 35.945313 9.015625 36.050781 9.316406 L 38.050781 15.316406 C 38.226563 15.839844 38.792969 16.125 39.316406 15.949219 C 39.839844 15.773438 40.125 15.207031 39.949219 14.683594 L 37.949219 8.683594 C 37.8125 8.253906 37.410156 7.96875 36.957031 7.984375 Z M 33.957031 10.984375 C 33.640625 10.996094 33.347656 11.160156 33.167969 11.421875 C 32.988281 11.683594 32.945313 12.015625 33.050781 12.316406 L 35.050781 18.316406 C 35.226563 18.839844 35.792969 19.125 36.316406 18.949219 C 36.839844 18.773438 37.125 18.207031 36.949219 17.683594 L 34.949219 11.683594 C 34.8125 11.253906 34.410156 10.96875 33.957031 10.984375 Z M 30.957031 13.984375 C 30.640625 13.996094 30.347656 14.160156 30.167969 14.421875 C 29.988281 14.683594 29.945313 15.015625 30.050781 15.316406 L 32.050781 21.316406 C 32.226563 21.839844 32.792969 22.125 33.316406 21.949219 C 33.839844 21.773438 34.125 21.207031 33.949219 20.683594 L 31.949219 14.683594 C 31.8125 14.253906 31.410156 13.96875 30.957031 13.984375 Z M 21.015625 27.429688 L 22.570313 28.984375 L 6.785156 44.691406 C 6.785156 44.691406 6.785156 44.691406 6.78125 44.691406 C 6.367188 45.109375 5.722656 45.109375 5.304688 44.691406 C 4.890625 44.277344 4.890625 43.632813 5.304688 43.21875 C 5.308594 43.214844 5.308594 43.214844 5.308594 43.214844 Z"/></svg>