<svg xmlns="http://www.w3.org/2000/svg"  viewBox="0 0 50 50" width="1000px" height="1000px"><path d="M 25 0 C 22.9375 0 21.089844 0.328125 19.65625 0.9375 C 18.9375 1.242188 18.324219 1.632813 17.84375 2.125 C 17.363281 2.617188 17 3.269531 17 4 L 17 6.8125 C 16.992188 6.875 16.992188 6.9375 17 7 L 17 11 C 17 11.03125 17 11.0625 17 11.09375 L 17 14 C 17 17.515625 14.957031 20.171875 12.6875 23.4375 C 10.417969 26.703125 8 30.558594 8 36.1875 C 8 42.269531 13.101563 47.140625 17.59375 49.75 C 17.742188 49.84375 17.917969 49.898438 18.09375 49.90625 L 31.8125 49.90625 C 31.976563 49.902344 32.136719 49.859375 32.28125 49.78125 C 36.882813 47.167969 41.90625 42.257813 41.90625 36.1875 C 41.90625 30.507813 39.488281 26.644531 37.21875 23.375 C 34.949219 20.105469 32.90625 17.460938 32.90625 14 L 32.90625 11.46875 C 32.976563 11.324219 33.007813 11.160156 33 11 L 33 4 C 33 3.269531 32.636719 2.617188 32.15625 2.125 C 31.675781 1.632813 31.0625 1.242188 30.34375 0.9375 C 28.910156 0.328125 27.0625 0 25 0 Z M 25 2 C 25.871094 2 26.695313 2.0625 27.4375 2.1875 C 27.179688 2.367188 27 2.660156 27 3 C 27 3.550781 27.449219 4 28 4 C 28.550781 4 29 3.550781 29 3 C 29 2.824219 28.925781 2.675781 28.84375 2.53125 C 29.101563 2.609375 29.347656 2.6875 29.5625 2.78125 C 30.105469 3.011719 30.527344 3.273438 30.75 3.5 C 30.972656 3.726563 31 3.878906 31 4 L 31 5 C 30.449219 5 30 5.449219 30 6 C 30 6.515625 30.402344 6.917969 30.90625 6.96875 C 30.90625 6.980469 30.90625 6.988281 30.90625 7 L 30.90625 10 L 19 10 L 19 7 C 19.550781 7 20 6.550781 20 6 C 20 5.449219 19.550781 5 19 5 L 19 4 C 19 3.878906 19.027344 3.726563 19.25 3.5 C 19.472656 3.273438 19.894531 3.011719 20.4375 2.78125 C 20.652344 2.6875 20.898438 2.609375 21.15625 2.53125 C 21.074219 2.675781 21 2.824219 21 3 C 21 3.550781 21.449219 4 22 4 C 22.550781 4 23 3.550781 23 3 C 23 2.660156 22.820313 2.367188 22.5625 2.1875 C 23.304688 2.0625 24.128906 2 25 2 Z M 22 10 C 22.550781 10 23 9.550781 23 9 C 23 8.449219 22.550781 8 22 8 C 21.449219 8 21 8.449219 21 9 C 21 9.550781 21.449219 10 22 10 Z M 28 10 C 28.550781 10 29 9.550781 29 9 C 29 8.449219 28.550781 8 28 8 C 27.449219 8 27 8.449219 27 9 C 27 9.550781 27.449219 10 28 10 Z M 25 5 C 24.449219 5 24 5.449219 24 6 C 24 6.550781 24.449219 7 25 7 C 25.550781 7 26 6.550781 26 6 C 26 5.449219 25.550781 5 25 5 Z M 19 12 L 30.90625 12 L 30.90625 14 C 30.90625 18.238281 33.363281 21.292969 35.59375 24.5 C 37.824219 27.707031 39.90625 31.066406 39.90625 36.1875 C 39.90625 41.042969 35.640625 45.496094 31.5 47.90625 L 18.40625 47.90625 C 14.347656 45.492188 10 41.03125 10 36.1875 C 10 31.117188 12.082031 27.800781 14.3125 24.59375 C 16.542969 21.386719 19 18.285156 19 14 Z M 26.5 26.5 L 26.5 26.59375 L 20 26.59375 L 20 41.59375 L 22 41.59375 L 22 35.5 L 26.5 35.5 C 28 35.5 29.105469 35.113281 29.90625 34.3125 C 30.707031 33.511719 31.09375 32.398438 31.09375 31 C 31.09375 29.601563 30.707031 28.488281 29.90625 27.6875 C 29.207031 26.886719 28 26.5 26.5 26.5 Z M 22 28.09375 L 25.90625 28.09375 C 27.007813 28.09375 27.90625 28.3125 28.40625 28.8125 C 28.90625 29.210938 29.1875 29.914063 29.1875 30.8125 C 29.1875 31.710938 28.90625 32.40625 28.40625 32.90625 C 27.90625 33.40625 27.007813 33.59375 25.90625 33.59375 L 22 33.59375 Z"/></svg>