<svg fill="#000000" xmlns="http://www.w3.org/2000/svg"  viewBox="0 0 50 50" width="1000px" height="1000px"><path d="M 25.90625 3.0664062 C 24.12676 3.0785958 22.423299 3.412915 20.804688 4.0507812 C 16.488391 5.751758 12.848839 9.4947714 9.6621094 14.623047 C 7.6828667 17.80876 6.6743978 21.370838 6.2890625 24.556641 C 5.90407 27.739608 6.1132043 30.51578 6.7402344 32.335938 C 6.7407928 32.337538 6.7416275 32.340097 6.7421875 32.341797 C 7.2110219 33.803164 7.7197037 35.144118 7.6875 36.810547 C 7.6552356 38.480147 7.0953629 40.544886 5.1835938 43.419922 C 4.0568406 44.642656 3.9208885 46.252673 4.71875 47.25 C 5.5437946 48.281306 7.0894947 48.573417 8.4472656 47.894531 C 9.6893671 47.273164 11.161887 45.990717 13.080078 44.859375 C 14.998269 43.728033 17.234867 42.795896 19.585938 42.888672 C 22.957837 43.12106 27.017921 42.917433 30.947266 41.443359 C 34.888488 39.964827 38.688883 37.175936 41.373047 32.378906 C 44.334378 27.086456 45.618079 21.979818 44.732422 17.367188 C 43.846765 12.754604 40.755197 8.7551508 35.396484 5.7792969 C 32.717883 4.2917889 30.149501 3.4352912 27.710938 3.1621094 C 27.101296 3.0938139 26.499413 3.0623431 25.90625 3.0664062 z M 25.941406 5.0449219 C 26.455296 5.0405358 26.978977 5.068397 27.511719 5.1289062 C 29.642686 5.3709432 31.930883 6.1418516 34.425781 7.5273438 C 39.414069 10.29749 42.003689 13.755521 42.769531 17.744141 C 43.535374 21.73276 42.440622 26.373794 39.626953 31.402344 C 37.171117 35.791314 33.814668 38.230846 30.244141 39.570312 C 26.673613 40.90978 22.880404 41.11485 19.695312 40.892578 A 1.0001 1.0001 0 0 0 19.664062 40.890625 C 16.744134 40.775401 14.149762 41.906811 12.064453 43.136719 C 9.9791446 44.366626 8.2756329 45.743836 7.5527344 46.105469 C 6.9105053 46.42663 6.4562054 46.218694 6.28125 46 C 6.1062946 45.781306 5.9427335 45.471329 6.7070312 44.707031 A 1.0001 1.0001 0 0 0 6.8320312 44.554688 C 8.9062615 41.443342 9.6468625 38.95246 9.6875 36.849609 C 9.7281375 34.746758 9.0858852 33.10116 8.640625 31.710938 A 1.0001 1.0001 0 0 0 8.6328125 31.689453 C 8.1771439 30.369527 7.9170228 27.743573 8.2734375 24.796875 C 8.6298522 21.850177 9.5755709 18.552021 11.361328 15.677734 C 14.416599 10.76101 17.803109 7.3824296 21.539062 5.9101562 C 22.940045 5.3580538 24.399736 5.05808 25.941406 5.0449219 z M 28.636719 10.318359 A 1.0001 1.0001 0 0 0 27.710938 11.058594 C 26.693368 14.641296 25.408158 17.838229 24.023438 20.724609 C 22.960273 15.224582 20.3125 12.039063 20.3125 12.039062 A 1.0001 1.0001 0 1 0 18.839844 13.392578 C 18.839844 13.392578 22.041449 16.85967 22.484375 23.496094 C 21.360661 25.547258 20.227967 27.622097 19.09375 29.271484 C 18.565068 30.040299 18.129885 30.515854 17.621094 31.197266 C 16.999275 24.600974 13.916016 20.763672 13.916016 20.763672 A 1.0001 1.0001 0 1 0 12.429688 22.101562 C 12.429688 22.101562 15.935488 26.035011 15.837891 33.529297 C 14.109436 35.665848 12.570749 37.447286 11.691406 38.53125 A 1.0001 1.0001 0 1 0 13.244141 39.791016 C 14.025189 38.828219 15.560532 37.052951 17.308594 34.896484 A 1.0001 1.0001 0 0 0 17.761719 34.453125 C 23.072401 32.063597 31.537109 33.277344 31.537109 33.277344 A 1.0001 1.0001 0 1 0 31.853516 31.302734 C 31.853516 31.302734 25.419494 30.344707 19.636719 31.849609 C 20.023689 31.320291 20.344478 30.981762 20.740234 30.40625 C 21.691647 29.022698 22.63559 27.213264 23.589844 25.552734 A 1.0001 1.0001 0 0 0 23.785156 25.402344 C 28.759158 20.543995 37.935547 20.998047 37.935547 20.998047 A 1.000126 1.000126 0 1 0 38.064453 19.001953 C 38.064453 19.001953 31.461626 18.548983 25.847656 21.539062 C 27.268883 18.570431 28.589256 15.286542 29.634766 11.605469 A 1.0001 1.0001 0 0 0 28.636719 10.318359 z"/></svg>