<svg xmlns="http://www.w3.org/2000/svg"  viewBox="0 0 50 50" width="1000px" height="1000px"><path d="M 13.5 8 C 7.6581204 8 3 13.191188 3 19.458984 C 3 19.568222 3.0019531 19.581238 3.0019531 19.5 C 3.0019531 19.418762 3 19.431778 3 19.541016 C 3 19.636486 3.0115227 19.729262 3.0136719 19.824219 A 1.0001 1.0001 0 0 0 3 20 L 3 31 A 1.0001 1.0001 0 0 0 3.1152344 31.460938 C 3.5546887 37.29289 7.9553684 42 13.5 42 C 16.445576 42 18.359411 41.163996 19.957031 40.410156 C 21.554652 39.656316 22.807788 39.011719 24.96875 39.011719 C 27.636052 39.011719 28.872615 39.653311 30.353516 40.398438 C 31.834416 41.143563 33.568909 42 36.5 42 C 42.04401 42 46.444457 37.293932 46.884766 31.462891 A 1.0001 1.0001 0 0 0 47 31 L 47 20 A 1.0001 1.0001 0 0 0 46.986328 19.830078 C 46.988567 19.733172 47 19.638457 47 19.541016 C 47 19.431778 46.998047 19.418766 46.998047 19.5 C 46.998047 19.58124 47 19.568224 47 19.458984 C 47 13.191196 42.34188 8 36.5 8 C 33.568909 8 31.834416 8.8564365 30.353516 9.6015625 C 28.872615 10.346689 27.636052 10.988281 24.96875 10.988281 C 22.807788 10.988281 21.554652 10.343684 19.957031 9.5898438 C 18.359411 8.836004 16.445576 8 13.5 8 z M 13.5 10 C 16.085424 10 17.534886 10.658276 19.103516 11.398438 C 20.672145 12.138597 22.387712 12.988281 24.96875 12.988281 C 27.986448 12.988281 29.765557 12.135593 31.253906 11.386719 C 32.742256 10.637845 33.931091 10 36.5 10 C 41.15212 10 45 14.172781 45 19.458984 C 45 19.377744 44.998047 19.39076 44.998047 19.5 C 44.998047 19.609238 45 19.62225 45 19.541016 C 45 24.827211 41.15212 29 36.5 29 C 33.931091 29 32.742256 28.362155 31.253906 27.613281 C 29.765557 26.864407 27.986448 26.011719 24.96875 26.011719 C 22.387712 26.011719 20.672145 26.861402 19.103516 27.601562 C 17.534886 28.341724 16.085424 29 13.5 29 C 8.8478796 29 5 24.827219 5 19.541016 C 5 19.622254 5.0019531 19.609238 5.0019531 19.5 C 5.0019531 19.390762 5 19.377746 5 19.458984 C 5 14.172781 8.8478796 10 13.5 10 z M 11 14 A 1 1 0 0 0 10 15 A 1 1 0 0 0 11 16 A 1 1 0 0 0 12 15 A 1 1 0 0 0 11 14 z M 39 14 A 1 1 0 0 0 38 15 A 1 1 0 0 0 39 16 A 1 1 0 0 0 40 15 A 1 1 0 0 0 39 14 z M 17 15 A 1 1 0 0 0 16 16 A 1 1 0 0 0 17 17 A 1 1 0 0 0 18 16 A 1 1 0 0 0 17 15 z M 33 15 A 1 1 0 0 0 32 16 A 1 1 0 0 0 33 17 A 1 1 0 0 0 34 16 A 1 1 0 0 0 33 15 z M 25 17 A 1 1 0 0 0 24 18 A 1 1 0 0 0 25 19 A 1 1 0 0 0 26 18 A 1 1 0 0 0 25 17 z M 11 20 A 1 1 0 0 0 10 21 A 1 1 0 0 0 11 22 A 1 1 0 0 0 12 21 A 1 1 0 0 0 11 20 z M 41 20 A 1 1 0 0 0 40 21 A 1 1 0 0 0 41 22 A 1 1 0 0 0 42 21 A 1 1 0 0 0 41 20 z M 19 21 A 1 1 0 0 0 18 22 A 1 1 0 0 0 19 23 A 1 1 0 0 0 20 22 A 1 1 0 0 0 19 21 z M 35 22 A 1 1 0 0 0 34 23 A 1 1 0 0 0 35 24 A 1 1 0 0 0 36 23 A 1 1 0 0 0 35 22 z M 5 26.242188 C 6.9005611 29.109788 9.9812582 31 13.5 31 C 16.445576 31 18.359411 30.163996 19.957031 29.410156 C 21.554652 28.656316 22.807788 28.011719 24.96875 28.011719 C 27.636052 28.011719 28.872615 28.65331 30.353516 29.398438 C 31.834416 30.143564 33.568909 31 36.5 31 C 40.018742 31 43.099439 29.109788 45 26.242188 L 45 30.802734 A 1.0001 1.0001 0 0 0 44.980469 30.960938 C 44.779281 36.047311 41.026551 40 36.5 40 C 33.931091 40 32.742256 39.362155 31.253906 38.613281 C 29.765557 37.864407 27.986448 37.011719 24.96875 37.011719 C 22.387712 37.011719 20.672145 37.861402 19.103516 38.601562 C 17.534886 39.341724 16.085424 40 13.5 40 C 8.973449 40 5.2207183 36.047311 5.0195312 30.960938 A 1.0001 1.0001 0 0 0 5 30.802734 L 5 26.242188 z M 27 32 A 1 1 0 0 0 26 33 A 1 1 0 0 0 27 34 A 1 1 0 0 0 28 33 A 1 1 0 0 0 27 32 z M 42 32 A 1 1 0 0 0 41 33 A 1 1 0 0 0 42 34 A 1 1 0 0 0 43 33 A 1 1 0 0 0 42 32 z M 9 33 A 1 1 0 0 0 8 34 A 1 1 0 0 0 9 35 A 1 1 0 0 0 10 34 A 1 1 0 0 0 9 33 z M 19 33 A 1 1 0 0 0 18 34 A 1 1 0 0 0 19 35 A 1 1 0 0 0 20 34 A 1 1 0 0 0 19 33 z M 35 35 A 1 1 0 0 0 34 36 A 1 1 0 0 0 35 37 A 1 1 0 0 0 36 36 A 1 1 0 0 0 35 35 z M 13 36 A 1 1 0 0 0 12 37 A 1 1 0 0 0 13 38 A 1 1 0 0 0 14 37 A 1 1 0 0 0 13 36 z"/></svg>