<svg xmlns="http://www.w3.org/2000/svg"  viewBox="0 0 50 50" width="1000px" height="1000px"><path d="M 35.414063 3 C 35.363281 3 35.3125 3.007813 35.261719 3.015625 C 28.398438 3.054688 19.460938 5.90625 12.6875 12.675781 C 7.386719 17.980469 4.480469 24.625 3.441406 30.542969 C 2.402344 36.457031 3.082031 41.675781 5.703125 44.296875 C 7.570313 46.171875 10.785156 47 14.605469 47 C 21.488281 47 30.503906 44.128906 37.324219 37.3125 C 42.625 32.007813 45.527344 25.351563 46.5625 19.4375 C 47.59375 13.519531 46.917969 8.300781 44.3125 5.691406 C 42.484375 3.867188 39.351563 3.0625 35.636719 3.027344 C 35.5625 3.011719 35.488281 3 35.414063 3 Z M 35.414063 5 C 38.925781 5 41.683594 5.890625 42.894531 7.105469 C 44.59375 8.804688 45.558594 13.550781 44.59375 19.09375 C 43.625 24.632813 40.878906 30.929688 35.90625 35.894531 C 29.519531 42.285156 20.921875 45 14.605469 45 C 11.097656 45 8.339844 44.109375 7.117188 42.882813 C 5.398438 41.167969 4.4375 36.421875 5.410156 30.886719 C 6.382813 25.351563 9.136719 19.0625 14.105469 14.09375 C 20.492188 7.703125 29.09375 5 35.414063 5 Z M 25.5 16 C 24.671875 16 24 16.671875 24 17.5 C 24 18.328125 24.671875 19 25.5 19 C 25.527344 19 25.554688 19 25.582031 18.996094 L 27.585938 21 L 25 23.585938 L 22.996094 21.582031 C 23 21.554688 23 21.527344 23 21.5 C 23 20.671875 22.328125 20 21.5 20 C 20.671875 20 20 20.671875 20 21.5 C 20 22.328125 20.671875 23 21.5 23 C 21.527344 23 21.554688 23 21.582031 22.996094 L 23.585938 25 L 21 27.585938 L 18.996094 25.582031 C 19 25.554688 19 25.527344 19 25.5 C 19 24.671875 18.328125 24 17.5 24 C 16.671875 24 16 24.671875 16 25.5 C 16 26.328125 16.671875 27 17.5 27 C 17.527344 27 17.554688 27 17.582031 26.996094 L 19.585938 29 L 17.292969 31.292969 C 17.03125 31.542969 16.925781 31.917969 17.019531 32.265625 C 17.109375 32.617188 17.382813 32.890625 17.734375 32.980469 C 18.082031 33.074219 18.457031 32.96875 18.707031 32.707031 L 21 30.414063 L 23.003906 32.417969 C 23 32.445313 23 32.472656 23 32.5 C 23 33.328125 23.671875 34 24.5 34 C 25.328125 34 26 33.328125 26 32.5 C 26 31.671875 25.328125 31 24.5 31 C 24.472656 31 24.445313 31 24.417969 31.003906 L 22.414063 29 L 25 26.414063 L 27.003906 28.417969 C 27 28.445313 27 28.472656 27 28.5 C 27 29.328125 27.671875 30 28.5 30 C 29.328125 30 30 29.328125 30 28.5 C 30 27.671875 29.328125 27 28.5 27 C 28.472656 27 28.445313 27 28.417969 27.003906 L 26.414063 25 L 29 22.414063 L 31.003906 24.417969 C 31 24.445313 31 24.472656 31 24.5 C 31 25.328125 31.671875 26 32.5 26 C 33.328125 26 34 25.328125 34 24.5 C 34 23.671875 33.328125 23 32.5 23 C 32.472656 23 32.445313 23 32.417969 23.003906 L 30.414063 21 L 32.707031 18.707031 C 33.003906 18.417969 33.089844 17.980469 32.929688 17.601563 C 32.769531 17.21875 32.394531 16.976563 31.980469 16.988281 C 31.71875 16.996094 31.472656 17.105469 31.292969 17.292969 L 29 19.585938 L 26.996094 17.582031 C 27 17.554688 27 17.527344 27 17.5 C 27 16.671875 26.328125 16 25.5 16 Z"/></svg>