<svg xmlns="http://www.w3.org/2000/svg"  viewBox="0 0 50 50" width="1000px" height="1000px"><path d="M 23 2 A 1.0001 1.0001 0 0 0 22 3 L 22 5.2402344 C 20.338896 5.4338344 18.587566 5.6893858 17.640625 5.8613281 C 16.693963 6.0327238 16 6.8703297 16 7.828125 L 16 11 L 16 14.175781 C 16 15.035263 16.562086 15.808554 17.378906 16.074219 C 17.550172 16.130119 17.706303 16.218323 17.806641 16.333984 C 17.906978 16.449645 18 16.596653 18 17 C 18 17.5 17.436933 18.416866 16.667969 19.570312 C 15.899005 20.723759 15 22.166667 15 24 L 15 24.832031 A 1.0001 1.0001 0 0 0 15 25.158203 L 15 43 C 15 45.749516 17.250484 48 20 48 L 30 48 C 32.749516 48 35 45.749516 35 43 L 35 25.167969 A 1.0001 1.0001 0 0 0 35 24.841797 L 35 24 C 35 22.166667 34.100995 20.723759 33.332031 19.570312 C 32.563067 18.416866 32 17.5 32 17 C 32 16.596653 32.09302 16.449645 32.193359 16.333984 C 32.293697 16.218323 32.449828 16.130124 32.621094 16.074219 C 33.437914 15.808554 34 15.035263 34 14.175781 L 34 14 L 36 14 C 37.64497 14 39 12.64497 39 11 C 39 9.3550302 37.64497 8 36 8 L 34 8 L 34 7.828125 C 34 6.8703148 33.3047 6.0324817 32.359375 5.8613281 C 31.413243 5.6895327 29.66095 5.4335394 28 5.2402344 L 28 3 A 1.0001 1.0001 0 0 0 27 2 L 23 2 z M 24 4 L 26 4 L 26 6.1074219 A 1.0001 1.0001 0 0 0 26.910156 7.1035156 C 28.790076 7.2743291 30.885323 7.6276993 32 7.8300781 L 32 8.8320312 A 1.0001 1.0001 0 0 0 32 9.1582031 L 32 10 L 18 10 L 18 7.8300781 C 19.114115 7.6278019 21.211159 7.2753654 23.091797 7.1035156 A 1.0001 1.0001 0 0 0 24 6.1074219 L 24 4 z M 34 10 L 36 10 C 36.56503 10 37 10.43497 37 11 C 37 11.56503 36.56503 12 36 12 L 34 12 L 34 11 L 34 10 z M 18 12 L 32 12 L 32 12.832031 A 1.0001 1.0001 0 0 0 32 13.158203 L 32 14.171875 C 31.592266 14.30497 31.094006 14.550348 30.683594 15.023438 C 30.273182 15.496525 30 16.193347 30 17 C 30 18.5 30.936933 19.583134 31.667969 20.679688 C 32.399005 21.776241 33 22.833333 33 24 L 17 24 C 17 22.833333 17.600995 21.776241 18.332031 20.679688 C 19.063067 19.583134 20 18.5 20 17 C 20 16.193347 19.726818 15.496525 19.316406 15.023438 C 18.905994 14.550349 18.407734 14.30497 18 14.171875 L 18 12 z M 17 26 L 33 26 L 33 43 C 33 44.668484 31.668484 46 30 46 L 20 46 C 18.331516 46 17 44.668484 17 43 L 17 26 z"/></svg>