<svg fill="#000000" xmlns="http://www.w3.org/2000/svg"  viewBox="0 0 50 50" width="1000px" height="1000px"><path d="M 37 0 C 36.449219 0 36 0.449219 36 1 C 36 1.550781 36.449219 2 37 2 C 37.550781 2 38 1.550781 38 1 C 38 0.449219 37.550781 0 37 0 Z M 41 0 C 40.449219 0 40 0.449219 40 1 C 40 1.550781 40.449219 2 41 2 C 41.550781 2 42 1.550781 42 1 C 42 0.449219 41.550781 0 41 0 Z M 21.8125 1 C 21.335938 1.089844 20.992188 1.511719 21 2 L 21 6 C 21 6.550781 21.449219 7 22 7 L 24 7 L 24 8 L 23 8 C 22.96875 8 22.9375 8 22.90625 8 C 22.820313 8.011719 22.738281 8.03125 22.65625 8.0625 C 22.65625 8.0625 20.335938 8.929688 18 10.28125 C 16.832031 10.957031 15.660156 11.765625 14.71875 12.6875 C 13.847656 13.539063 13.136719 14.535156 13.03125 15.71875 C 13.03125 15.730469 13 15.738281 13 15.75 C 12.988281 15.832031 12.988281 15.917969 13 16 C 13 16.03125 13 16.0625 13 16.09375 L 13 47 C 13 48.644531 14.355469 50 16 50 L 34 50 C 35.644531 50 37 48.644531 37 47 L 37 16.15625 C 37.003906 16.105469 37.003906 16.050781 37 16 C 37 15.957031 37 15.917969 37 15.875 C 36.996094 15.820313 36.972656 15.773438 36.96875 15.71875 C 36.863281 14.558594 36.148438 13.589844 35.28125 12.75 C 34.34375 11.84375 33.164063 11.0625 32 10.375 C 29.667969 9.003906 27.375 8.0625 27.375 8.0625 C 27.253906 8.019531 27.128906 7.996094 27 8 L 26 8 L 26 7 L 28 7 C 28.550781 7 29 6.550781 29 6 L 29 2 C 29 1.449219 28.550781 1 28 1 L 22 1 C 21.96875 1 21.9375 1 21.90625 1 C 21.875 1 21.84375 1 21.8125 1 Z M 23 3 L 27 3 L 27 5 L 25.21875 5 C 25.117188 4.972656 25.011719 4.960938 24.90625 4.96875 C 24.875 4.976563 24.84375 4.988281 24.8125 5 L 23 5 Z M 31 3 C 30.449219 3 30 3.449219 30 4 C 30 4.550781 30.449219 5 31 5 C 31.550781 5 32 4.550781 32 4 C 32 3.449219 31.550781 3 31 3 Z M 35 3 C 34.449219 3 34 3.449219 34 4 C 34 4.550781 34.449219 5 35 5 C 35.550781 5 36 4.550781 36 4 C 36 3.449219 35.550781 3 35 3 Z M 39 3 C 38.449219 3 38 3.449219 38 4 C 38 4.550781 38.449219 5 39 5 C 39.550781 5 40 4.550781 40 4 C 40 3.449219 39.550781 3 39 3 Z M 37 6 C 36.449219 6 36 6.449219 36 7 C 36 7.550781 36.449219 8 37 8 C 37.550781 8 38 7.550781 38 7 C 38 6.449219 37.550781 6 37 6 Z M 41 6 C 40.449219 6 40 6.449219 40 7 C 40 7.550781 40.449219 8 41 8 C 41.550781 8 42 7.550781 42 7 C 42 6.449219 41.550781 6 41 6 Z M 23.21875 10 L 26.75 10 C 26.871094 10.046875 28.894531 10.851563 31 12.09375 C 32.085938 12.734375 33.15625 13.460938 33.90625 14.1875 C 34.246094 14.515625 34.226563 14.714844 34.40625 15 L 15.5625 15 C 15.746094 14.6875 15.738281 14.441406 16.09375 14.09375 C 16.839844 13.363281 17.917969 12.65625 19 12.03125 C 21.101563 10.816406 23.097656 10.046875 23.21875 10 Z M 15 17 L 35 17 L 35 47 C 35 47.554688 34.554688 48 34 48 L 16 48 C 15.445313 48 15 47.554688 15 47 Z M 25 26 C 21.699219 26 19 28.699219 19 32 C 19 35.300781 21.699219 38 25 38 C 28.300781 38 31 35.300781 31 32 C 31 28.699219 28.300781 26 25 26 Z M 25 28 C 27.222656 28 29 29.777344 29 32 C 29 34.222656 27.222656 36 25 36 C 22.777344 36 21 34.222656 21 32 C 21 29.777344 22.777344 28 25 28 Z"/></svg>