<svg xmlns="http://www.w3.org/2000/svg"  viewBox="0 0 50 50" width="1000px" height="1000px"><path d="M 47 2 C 47 2 42.524282 1.8484451 39.890625 4.5683594 C 38.061767 3.5348072 36.02308 3.005862 33.978516 3.0058594 C 30.899651 3.0058555 27.820138 4.1784536 25.476562 6.5214844 C 23.832974 8.1650734 20.755835 11.177658 17.59375 14.259766 L 17.59375 14.257812 C 15.500373 16.296816 12.859895 17.674544 9.9882812 18.396484 C 7.9059468 18.920068 5.9340222 20.012034 4.3242188 21.662109 A 1.0001 1.0001 0 0 0 4.3242188 21.664062 C 2.0871812 23.960084 0.99782389 26.95165 1 29.939453 C 1.00218 33.150475 2.2564343 36.374708 4.6796875 38.796875 L 10.203125 44.322266 C 12.62528 46.744421 15.851478 47.997824 19.0625 48 C 22.044483 48.0022 25.032157 46.916646 27.326172 44.685547 C 28.979844 43.077598 30.073846 41.104676 30.599609 39.023438 C 31.323332 36.159889 32.703001 33.527233 34.738281 31.439453 C 38.359854 27.723891 41.76064 24.24228 42.480469 23.521484 L 42.478516 23.521484 C 46.302175 19.697825 47.004027 13.917887 44.587891 9.3730469 L 48.664062 5.7480469 A 1.0001 1.0001 0 0 0 48.894531 4.5527344 L 47.894531 2.5527344 A 1.0001 1.0001 0 0 0 47 2 z M 46.427734 4.0898438 L 46.763672 4.7617188 L 43.482422 7.6777344 C 43.173252 7.2780031 42.845011 6.8880654 42.478516 6.5214844 C 42.196835 6.2398034 41.903211 5.9763585 41.601562 5.7285156 C 43.20184 4.3880205 45.712245 4.1428043 46.427734 4.0898438 z M 33.978516 4.9941406 C 36.541401 4.9941367 39.10355 5.9746442 41.064453 7.9355469 C 44.986446 11.858451 44.986313 18.185562 41.064453 22.107422 C 40.296282 22.876626 36.929068 26.326531 33.306641 30.042969 C 30.999921 32.409189 29.462387 35.366752 28.662109 38.533203 C 28.223873 40.267965 27.317921 41.905902 25.933594 43.251953 C 24.02777 45.106047 21.563938 46.001824 19.064453 46 C 16.373475 45.998176 13.655031 44.946048 11.617188 42.908203 L 6.09375 37.382812 C 4.0550032 35.34498 3.0018238 32.628478 3 29.9375 C 2.99818 27.433303 3.8968969 24.966572 5.7558594 23.058594 C 7.104056 21.676669 8.7408976 20.772354 10.476562 20.335938 C 13.650949 19.537878 16.615659 18.002402 18.988281 15.691406 C 22.152196 12.607514 25.228214 9.5979579 26.890625 7.9355469 C 28.85205 5.9745776 31.41563 4.9941445 33.978516 4.9941406 z M 30.001953 10.990234 A 1.0001 1.0001 0 0 0 29.308594 11.277344 C 29.308594 11.277344 25.614931 14.819101 21.78125 18.554688 C 19.019645 21.246679 15.448256 23.209574 11.453125 24.214844 C 10.378303 24.485353 9.3991252 25.052456 8.6210938 25.849609 C 7.5675143 26.93222 7 28.376467 7 29.875 C 7 31.238488 7.4718277 32.48182 8.1621094 33.544922 A 1.0001 1.0001 0 1 0 9.8378906 32.455078 C 9.3061723 31.63618 9 30.781512 9 29.875 C 9 28.873533 9.3643141 27.953484 10.052734 27.246094 C 10.576703 26.709247 11.228228 26.333788 11.941406 26.154297 C 16.260275 25.067567 20.14734 22.940335 23.177734 19.986328 C 27.004054 16.257915 30.691406 12.722656 30.691406 12.722656 A 1.0001 1.0001 0 0 0 30.001953 10.990234 z"/></svg>