<svg xmlns="http://www.w3.org/2000/svg"  viewBox="0 0 50 50" width="1000px" height="1000px"><path d="M 36.40625 7.5 C 33.964844 7.460938 31.203125 7.722656 28.15625 8.40625 C 18.632813 10.542969 15.261719 12.328125 12.84375 14.0625 C 10.425781 15.796875 9.164063 17.253906 3.15625 19.21875 C 2.128906 19.554688 1.367188 20.226563 0.84375 20.9375 C 0.320313 21.648438 0 22.378906 0 23.15625 L 0 34.21875 C 0 34.25 0 34.28125 0 34.3125 L 0 38 C 0 39.601563 1.238281 41 2.84375 41 L 47.0625 41 C 48.007813 41 48.84375 40.691406 49.40625 40.0625 C 49.96875 39.433594 50.160156 38.457031 49.8125 37.625 L 48.15625 33.71875 L 48.125 33.625 L 48.09375 33.625 C 47.621094 32.132813 46.347656 31 44.78125 31 L 14 31 L 14 28 L 44 28 C 44.550781 28 45 27.550781 45 27 L 45 20.5625 L 47.5 20.21875 C 47.519531 20.210938 47.542969 20.199219 47.5625 20.1875 C 49.09375 19.878906 50.089844 18.371094 49.78125 16.84375 C 49.78125 16.84375 49.292969 14.304688 48.96875 12.8125 C 48.75 11.808594 48.015625 11.019531 46.96875 10.28125 C 45.921875 9.542969 44.484375 8.882813 42.71875 8.375 C 40.953125 7.867188 38.847656 7.539063 36.40625 7.5 Z M 36.375 9.5 C 38.652344 9.542969 40.601563 9.859375 42.1875 10.3125 C 43.773438 10.765625 44.996094 11.363281 45.8125 11.9375 C 46.628906 12.511719 46.96875 13.109375 47 13.25 C 47.316406 14.710938 47.84375 17.25 47.84375 17.25 C 47.933594 17.695313 47.644531 18.097656 47.21875 18.21875 L 47.1875 18.21875 L 12.875 22.90625 C 12.371094 22.96875 11.996094 23.398438 12 23.90625 L 12 26.8125 C 11.972656 26.945313 11.972656 27.085938 12 27.21875 L 12 31 L 2.84375 31 C 2.546875 31 2.265625 31.070313 2 31.15625 L 2 23.15625 C 2 23.074219 2.117188 22.558594 2.4375 22.125 C 2.757813 21.691406 3.222656 21.308594 3.78125 21.125 C 10.003906 19.089844 11.757813 17.296875 14 15.6875 C 16.242188 14.078125 19.203125 12.449219 28.59375 10.34375 C 31.496094 9.691406 34.097656 9.457031 36.375 9.5 Z M 43 20.84375 L 43 26 L 14 26 L 14 24.78125 Z M 37.8125 23 C 37.261719 23.050781 36.855469 23.542969 36.90625 24.09375 C 36.957031 24.644531 37.449219 25.050781 38 25 L 41 25 C 41.359375 25.003906 41.695313 24.816406 41.878906 24.503906 C 42.058594 24.191406 42.058594 23.808594 41.878906 23.496094 C 41.695313 23.183594 41.359375 22.996094 41 23 L 38 23 C 37.96875 23 37.9375 23 37.90625 23 C 37.875 23 37.84375 23 37.8125 23 Z M 7 25 C 5.894531 25 5 25.894531 5 27 C 5 28.105469 5.894531 29 7 29 C 8.105469 29 9 28.105469 9 27 C 9 25.894531 8.105469 25 7 25 Z M 2.84375 33 L 44.78125 33 C 45.210938 33 46.03125 33.617188 46.21875 34.28125 C 46.238281 34.3125 46.257813 34.34375 46.28125 34.375 L 47.96875 38.375 C 48.046875 38.5625 48.011719 38.601563 47.90625 38.71875 C 47.800781 38.835938 47.546875 39 47.0625 39 L 2.84375 39 C 2.414063 39 2 38.605469 2 38 L 2 34.375 C 2.003906 34.324219 2.003906 34.269531 2 34.21875 L 2 34 C 2 33.394531 2.414063 33 2.84375 33 Z"/></svg>