<svg xmlns="http://www.w3.org/2000/svg"  viewBox="0 0 50 50" width="1000px" height="1000px"><path d="M 25.074219 1.9785156 L 23.980469 2.0253906 C 23.63531 2.0405146 23.292244 2.0654864 22.951172 2.0957031 C 22.907714 2.0995429 22.863701 2.1013871 22.820312 2.1054688 C 22.50374 2.1353245 22.189683 2.1742081 21.876953 2.2167969 C 21.812648 2.225537 21.74773 2.232916 21.683594 2.2421875 C 21.409946 2.2818207 21.139598 2.3297052 20.869141 2.3789062 C 20.757146 2.3992455 20.644628 2.4174957 20.533203 2.4394531 C 20.305813 2.4843345 20.08041 2.5343943 19.855469 2.5859375 C 19.713208 2.618496 19.570932 2.65036 19.429688 2.6855469 C 19.200889 2.7426021 18.974089 2.8052798 18.748047 2.8691406 C 18.617152 2.9060846 18.485407 2.9412742 18.355469 2.9804688 C 18.121758 3.0510284 17.890676 3.1273373 17.660156 3.2050781 C 17.546742 3.2432989 17.43293 3.2803776 17.320312 3.3203125 C 17.08099 3.405235 16.844992 3.4953351 16.609375 3.5878906 C 16.499274 3.6311032 16.388564 3.6738951 16.279297 3.71875 C 16.066955 3.8059976 15.857548 3.898821 15.648438 3.9921875 C 15.516071 4.0512389 15.382987 4.1084559 15.251953 4.1699219 C 15.057947 4.2609948 14.866792 4.3568354 14.675781 4.453125 C 14.529736 4.5266945 14.38448 4.6011632 14.240234 4.6777344 C 14.068186 4.7691262 13.897941 4.8633861 13.728516 4.9589844 C 13.590954 5.0365593 13.454148 5.1150065 13.318359 5.1953125 C 13.135553 5.3034775 12.954908 5.4143085 12.775391 5.5273438 C 12.631029 5.6181938 12.487883 5.7107413 12.345703 5.8046875 C 12.198506 5.9020013 12.053012 6.0009821 11.908203 6.1015625 C 11.756083 6.2071685 11.604501 6.3127236 11.455078 6.421875 C 11.31308 6.5256482 11.172713 6.6313603 11.033203 6.7382812 C 10.877785 6.8573471 10.724526 6.9786586 10.572266 7.1015625 C 10.435431 7.2120516 10.300245 7.3239672 10.166016 7.4375 C 10.066561 7.5215922 9.9690926 7.6076211 9.8710938 7.6933594 C 9.3958781 8.1092555 8.935613 8.5429704 8.4960938 8.9960938 C 8.4315798 9.0625918 8.3684019 9.1299955 8.3046875 9.1972656 C 7.877554 9.648296 7.4680044 10.115226 7.078125 10.599609 C 6.9693425 10.73475 6.8635779 10.872143 6.7578125 11.009766 C 6.6635479 11.132426 6.5683935 11.254313 6.4765625 11.378906 C 6.3472436 11.554358 6.2220619 11.732909 6.0976562 11.912109 C 6.0124585 12.034833 5.9266048 12.156809 5.84375 12.28125 C 5.7356846 12.443555 5.6313594 12.608272 5.5273438 12.773438 C 5.4366256 12.917489 5.3454003 13.060856 5.2578125 13.207031 C 5.1386877 13.405839 5.0253393 13.607911 4.9121094 13.810547 C 4.850705 13.920424 4.7881601 14.029649 4.7285156 14.140625 C 4.6271135 14.329323 4.5298332 14.52109 4.4335938 14.712891 C 4.3605835 14.858384 4.2867896 15.00316 4.2167969 15.150391 C 4.1245518 15.34443 4.0380935 15.541304 3.9511719 15.738281 C 3.8914045 15.873708 3.8286984 16.007754 3.7714844 16.144531 C 3.6908649 16.337296 3.6164913 16.533139 3.5410156 16.728516 C 3.4802236 16.885863 3.4187343 17.042181 3.3613281 17.201172 C 3.2913893 17.394882 3.2269496 17.591032 3.1621094 17.787109 C 3.1126482 17.936672 3.0620784 18.08543 3.015625 18.236328 C 2.9531648 18.439236 2.896791 18.64436 2.8398438 18.849609 C 2.7947311 19.012166 2.7466837 19.173914 2.7050781 19.337891 C 2.6449672 19.574889 2.5936925 19.814832 2.5410156 20.054688 C 2.5156493 20.170125 2.4865124 20.284314 2.4628906 20.400391 C 2.4135051 20.643226 2.3736861 20.889229 2.3320312 21.134766 C 2.3085511 21.27309 2.2807589 21.40968 2.2597656 21.548828 C 2.2304413 21.743297 2.20996 21.940695 2.1855469 22.136719 C 2.1625887 22.32097 2.1337969 22.503884 2.1152344 22.689453 C 2.1030164 22.811651 2.098184 22.935843 2.0878906 23.058594 C 2.0341248 23.699393 2 24.345445 2 25 C 2 37.690466 12.309534 48 25 48 C 25.771905 48 26.534606 47.96122 27.287109 47.886719 C 27.294935 47.885944 27.302723 47.885548 27.310547 47.884766 C 27.496116 47.866203 27.67903 47.837411 27.863281 47.814453 C 28.059305 47.79004 28.256703 47.769559 28.451172 47.740234 C 28.59032 47.719241 28.72691 47.691449 28.865234 47.667969 C 29.110771 47.626314 29.356774 47.586495 29.599609 47.537109 C 29.715686 47.513488 29.829875 47.484351 29.945312 47.458984 C 30.185168 47.406307 30.425111 47.355033 30.662109 47.294922 C 30.826086 47.253316 30.987834 47.205269 31.150391 47.160156 C 31.35564 47.103209 31.560764 47.046835 31.763672 46.984375 C 31.91457 46.937922 32.063328 46.887352 32.212891 46.837891 C 32.408968 46.77305 32.605118 46.708611 32.798828 46.638672 C 32.957819 46.581266 33.114137 46.519776 33.271484 46.458984 C 33.466861 46.383509 33.662704 46.309135 33.855469 46.228516 C 33.992246 46.171302 34.126292 46.108595 34.261719 46.048828 C 34.458696 45.961906 34.65557 45.875448 34.849609 45.783203 C 34.99684 45.71321 35.141616 45.639416 35.287109 45.566406 C 35.47891 45.470167 35.670677 45.372886 35.859375 45.271484 C 35.970351 45.21184 36.079576 45.149295 36.189453 45.087891 C 36.392089 44.974661 36.594161 44.861312 36.792969 44.742188 C 36.939144 44.6546 37.082511 44.563374 37.226562 44.472656 C 37.391728 44.368641 37.556445 44.264315 37.71875 44.15625 C 37.843191 44.073395 37.965167 43.987541 38.087891 43.902344 C 38.267091 43.777938 38.445642 43.652756 38.621094 43.523438 C 38.745687 43.431607 38.867574 43.336452 38.990234 43.242188 C 39.127857 43.136422 39.26525 43.030658 39.400391 42.921875 C 39.884774 42.531996 40.351704 42.122446 40.802734 41.695312 C 40.870005 41.631598 40.937408 41.56842 41.003906 41.503906 C 41.45703 41.064387 41.890745 40.604122 42.306641 40.128906 C 42.392379 40.030907 42.478408 39.933439 42.5625 39.833984 C 42.676033 39.699755 42.787948 39.564569 42.898438 39.427734 C 43.021341 39.275474 43.142653 39.122215 43.261719 38.966797 C 43.36864 38.827287 43.474352 38.68692 43.578125 38.544922 C 43.687276 38.395499 43.792832 38.243917 43.898438 38.091797 C 43.999018 37.946988 44.097999 37.801494 44.195312 37.654297 C 44.289259 37.512117 44.381806 37.368971 44.472656 37.224609 C 44.585692 37.045092 44.696522 36.864447 44.804688 36.681641 C 44.884994 36.545852 44.963441 36.409046 45.041016 36.271484 C 45.136614 36.102059 45.230874 35.931814 45.322266 35.759766 C 45.398837 35.61552 45.473305 35.470264 45.546875 35.324219 C 45.643165 35.133208 45.739005 34.942053 45.830078 34.748047 C 45.891544 34.617013 45.948761 34.483929 46.007812 34.351562 C 46.101179 34.142452 46.194002 33.933045 46.28125 33.720703 C 46.326105 33.611436 46.368897 33.500726 46.412109 33.390625 C 46.504665 33.155008 46.594765 32.91901 46.679688 32.679688 C 46.719622 32.56707 46.756701 32.453258 46.794922 32.339844 C 46.872663 32.109324 46.948972 31.878242 47.019531 31.644531 C 47.058726 31.514593 47.093915 31.382848 47.130859 31.251953 C 47.19472 31.025911 47.257398 30.799111 47.314453 30.570312 C 47.34964 30.429068 47.381504 30.286792 47.414062 30.144531 C 47.465606 29.91959 47.515666 29.694187 47.560547 29.466797 C 47.582504 29.355372 47.600754 29.242854 47.621094 29.130859 C 47.670295 28.860402 47.718179 28.590054 47.757812 28.316406 C 47.767084 28.25227 47.774463 28.187352 47.783203 28.123047 C 47.826751 27.803275 47.866253 27.481989 47.896484 27.158203 C 47.899857 27.121991 47.901093 27.085089 47.904297 27.048828 C 47.934514 26.707756 47.959485 26.36469 47.974609 26.019531 L 48.021484 24.925781 L 48 24.927734 L 48 24.585938 L 25.414062 2 L 25.072266 2 L 25.074219 1.9785156 z M 23.017578 4.171875 C 23.022516 4.8268907 23.062388 5.4743055 23.121094 6.1152344 C 13.518118 7.0626126 6 15.153929 6 25 C 6 35.481455 14.518545 44 25 44 C 34.846071 44 42.937387 36.481882 43.884766 26.878906 C 44.525695 26.937612 45.173109 26.977484 45.828125 26.982422 C 45.262629 32.962733 42.217091 38.214438 37.724609 41.675781 C 37.678433 41.711173 37.630463 41.744282 37.583984 41.779297 C 37.144461 42.112128 36.692319 42.428783 36.226562 42.726562 C 36.100221 42.806936 35.969964 42.881265 35.841797 42.958984 C 35.427841 43.211228 35.008506 43.454206 34.576172 43.677734 C 34.407932 43.764316 34.233364 43.839755 34.0625 43.921875 C 33.66053 44.115939 33.25578 44.306091 32.839844 44.474609 C 32.604971 44.569356 32.362084 44.647983 32.123047 44.734375 C 31.726255 44.878378 31.331575 45.02823 30.923828 45.148438 C 30.897957 45.156035 30.871616 45.162422 30.845703 45.169922 C 30.260241 45.340034 29.664457 45.48644 29.058594 45.605469 C 28.993873 45.618141 28.928217 45.626596 28.863281 45.638672 C 28.269574 45.749453 27.669293 45.838938 27.058594 45.898438 C 27.017787 45.902404 26.976423 45.904471 26.935547 45.908203 C 26.298402 45.966519 25.652981 46 25 46 C 13.390466 46 4 36.609534 4 25 C 4 24.347019 4.033481 23.701598 4.0917969 23.064453 C 4.0955293 23.023577 4.0975964 22.982213 4.1015625 22.941406 C 4.1610624 22.330707 4.2505466 21.730426 4.3613281 21.136719 C 4.3734038 21.071783 4.3818594 21.006127 4.3945312 20.941406 C 4.5135604 20.335543 4.6599658 19.739759 4.8300781 19.154297 C 4.8375782 19.128384 4.8439652 19.102043 4.8515625 19.076172 C 4.9717702 18.668425 5.1216219 18.273745 5.265625 17.876953 C 5.3520173 17.637916 5.4306436 17.395029 5.5253906 17.160156 C 5.6939092 16.74422 5.8840615 16.33947 6.078125 15.9375 C 6.160245 15.766636 6.2356836 15.592068 6.3222656 15.423828 C 6.5457936 14.991494 6.7887724 14.572159 7.0410156 14.158203 C 7.1187347 14.030036 7.1930637 13.899779 7.2734375 13.773438 C 7.5712173 13.307681 7.8878717 12.855539 8.2207031 12.416016 C 8.2557176 12.369537 8.2888268 12.321567 8.3242188 12.275391 C 11.785562 7.7829091 17.037267 4.7373707 23.017578 4.171875 z M 25.009766 4.4238281 L 45.576172 24.990234 C 34.304876 24.767034 25.232966 15.695124 25.009766 4.4238281 z M 23.388672 8.09375 C 25.083962 17.499049 32.500951 24.916038 41.90625 26.611328 C 41.09276 35.24734 33.855552 42 25 42 C 15.599455 42 8 34.400545 8 25 C 8 16.144448 14.75266 8.9072404 23.388672 8.09375 z"/></svg>