<svg xmlns="http://www.w3.org/2000/svg"  viewBox="0 0 50 50" width="1000px" height="1000px"><path d="M 6.78125 3 C 6.589844 3.011719 6.40625 3.046875 6.21875 3.09375 C 5.488281 3.285156 4.855469 3.75 4.4375 4.4375 L 4.40625 4.4375 C 4.386719 4.46875 4.375 4.496094 4.375 4.5 L 3.375 6.25 C 2.5625 7.660156 3.074219 9.480469 4.46875 10.3125 L 4.46875 10.34375 C 4.476563 10.347656 4.492188 10.339844 4.5 10.34375 L 21.90625 20.21875 C 23.25 20.984375 24.90625 20.492188 25.78125 19.25 L 25.84375 19.3125 C 25.84375 19.3125 25.894531 19.269531 25.9375 19.21875 L 25.96875 19.15625 C 25.96875 19.15625 25.988281 19.117188 26 19.09375 L 26.03125 19.0625 C 28.746094 20.304688 31.425781 21.636719 34.03125 23.09375 L 4.40625 38.4375 C 2.226563 39.582031 1.386719 42.320313 2.53125 44.5 C 2.535156 44.507813 2.542969 44.53125 2.5625 44.5625 L 2.5625 44.59375 L 2.59375 44.59375 C 3.84375 46.714844 6.597656 47.4375 8.71875 46.1875 C 8.75 46.167969 8.746094 46.160156 8.75 46.15625 L 41.5 27.25 C 41.652344 27.414063 42.210938 28.015625 43.0625 28.71875 C 44.042969 29.527344 45.28125 30.5 47 30.5 C 47.539063 30.507813 48.042969 30.222656 48.316406 29.757813 C 48.589844 29.289063 48.589844 28.710938 48.316406 28.242188 C 48.042969 27.777344 47.539063 27.492188 47 27.5 C 46.71875 27.5 45.730469 27.035156 44.96875 26.40625 C 44.300781 25.855469 43.867188 25.378906 43.75 25.25 C 44.304688 24.199219 44.296875 22.949219 43.71875 21.90625 L 43.6875 21.90625 L 43.6875 21.875 C 42.945313 20.621094 41.558594 19.996094 40.1875 20.15625 C 39.761719 20.207031 39.335938 20.351563 38.9375 20.5625 C 37.722656 19.457031 36.46875 18.390625 35.15625 17.40625 C 33.300781 16.011719 30.929688 14.988281 28.8125 14.15625 C 26.695313 13.324219 24.769531 12.648438 24.125 12.28125 L 8.5 3.40625 C 7.96875 3.09375 7.359375 2.964844 6.78125 3 Z M 6.75 5 C 6.996094 4.9375 7.257813 4.984375 7.5 5.125 L 23.125 14.03125 C 24.21875 14.652344 26.039063 15.191406 28.09375 16 C 30.148438 16.808594 32.394531 17.816406 33.96875 19 C 34.980469 19.757813 35.925781 20.605469 36.875 21.4375 L 35.96875 21.9375 C 32.738281 20.070313 29.433594 18.335938 26.03125 16.8125 L 25.1875 16.46875 L 24.75 17.25 L 24.34375 17.96875 L 24.3125 18 L 24.28125 18.09375 L 24.25 18.125 C 23.96875 18.617188 23.398438 18.78125 22.90625 18.5 L 5.5 8.625 L 5.5 8.59375 L 5.46875 8.59375 C 4.980469 8.3125 4.84375 7.738281 5.125 7.25 L 6.09375 5.53125 C 6.128906 5.472656 6.152344 5.457031 6.125 5.5 L 6.125 5.46875 C 6.265625 5.226563 6.503906 5.0625 6.75 5 Z M 40.71875 22.09375 C 40.816406 22.101563 40.902344 22.128906 41 22.15625 C 41.386719 22.261719 41.746094 22.527344 41.96875 22.90625 C 42.207031 23.363281 42.21875 23.890625 41.96875 24.34375 L 41.9375 24.375 C 41.800781 24.636719 41.59375 24.84375 41.34375 25 L 7.75 44.4375 C 7.71875 44.457031 7.691406 44.464844 7.6875 44.46875 C 6.496094 45.167969 5.011719 44.785156 4.3125 43.59375 C 4.308594 43.585938 4.300781 43.59375 4.28125 43.5625 C 3.640625 42.339844 4.121094 40.863281 5.34375 40.21875 L 39.78125 22.34375 L 39.8125 22.34375 L 39.8125 22.3125 C 40.097656 22.152344 40.421875 22.074219 40.71875 22.09375 Z M 40 23 C 39.449219 23 39 23.449219 39 24 C 39 24.550781 39.449219 25 40 25 C 40.550781 25 41 24.550781 41 24 C 41 23.449219 40.550781 23 40 23 Z M 7 41 C 6.449219 41 6 41.449219 6 42 C 6 42.550781 6.449219 43 7 43 C 7.550781 43 8 42.550781 8 42 C 8 41.449219 7.550781 41 7 41 Z"/></svg>