<svg fill="#000000" xmlns="http://www.w3.org/2000/svg"  viewBox="0 0 50 50" width="1000px" height="1000px"><path d="M 28.90625 1.34375 C 28.597656 1.394531 28.328125 1.585938 28.183594 1.859375 C 28.035156 2.136719 28.023438 2.464844 28.15625 2.75 C 28.699219 4.058594 28.691406 5.089844 28.4375 6.1875 C 28.183594 7.285156 27.636719 8.402344 27.21875 9.6875 C 26.820313 10.914063 26.558594 12.308594 26.84375 13.875 C 24.992188 12.339844 23.128906 11.070313 21.1875 10.34375 C 20.292969 10.007813 19.394531 9.816406 18.46875 9.75 C 15.691406 9.554688 12.78125 10.625 9.96875 13.4375 C 6.160156 17.246094 3.347656 23.886719 2 30.3125 C 1.328125 33.523438 1.035156 36.671875 1.25 39.40625 C 1.464844 42.140625 2.152344 44.527344 3.6875 46.0625 C 6.6875 49.0625 12.597656 49.472656 18.875 48.3125 C 25.152344 47.152344 31.867188 44.273438 36.3125 39.75 C 40.023438 35.96875 40.703125 32.066406 39.375 28.5 C 38.820313 27.011719 37.964844 25.574219 36.90625 24.15625 C 38.121094 24.554688 39.304688 24.738281 40.46875 24.6875 C 43.789063 24.539063 46.6875 22.589844 48.75 19.59375 C 48.980469 19.25 48.976563 18.804688 48.742188 18.464844 C 48.507813 18.125 48.089844 17.964844 47.6875 18.0625 C 45.730469 18.570313 43.78125 18.960938 42.21875 18.90625 C 41.003906 18.863281 40.152344 18.511719 39.46875 17.90625 C 41.476563 15.773438 42.355469 13.0625 42.375 10.53125 C 42.394531 7.675781 41.464844 5.027344 39.875 3.4375 C 39.589844 3.167969 39.171875 3.089844 38.808594 3.238281 C 38.445313 3.386719 38.203125 3.734375 38.1875 4.125 C 38.171875 5.871094 37.554688 8.304688 36.59375 10.125 C 36.113281 11.035156 35.546875 11.773438 34.96875 12.25 C 34.742188 12.4375 34.53125 12.394531 34.3125 12.5 C 34.453125 10.925781 34.582031 9.328125 34.21875 7.6875 C 33.746094 5.535156 32.410156 3.410156 29.65625 1.53125 C 29.464844 1.394531 29.234375 1.328125 29 1.34375 C 28.96875 1.34375 28.9375 1.34375 28.90625 1.34375 Z M 30.53125 5.03125 C 31.414063 6.042969 32.019531 7.074219 32.25 8.125 C 32.625 9.820313 32.402344 11.722656 32.21875 13.8125 C 32.183594 14.355469 32.585938 14.824219 33.125 14.875 C 34.300781 14.96875 35.382813 14.527344 36.25 13.8125 C 37.117188 13.097656 37.804688 12.136719 38.375 11.0625 C 39.027344 9.832031 39.449219 8.449219 39.75 7.09375 C 40.125 8.109375 40.382813 9.289063 40.375 10.53125 C 40.359375 12.921875 39.527344 15.390625 37.40625 17.1875 C 37.003906 17.519531 36.921875 18.101563 37.21875 18.53125 C 38.355469 20.195313 40.230469 20.839844 42.15625 20.90625 C 43.039063 20.9375 43.949219 20.859375 44.875 20.71875 C 43.515625 21.828125 42.023438 22.613281 40.375 22.6875 C 37.773438 22.800781 34.742188 21.546875 31.53125 18.15625 C 29.808594 16.339844 29.070313 14.894531 28.8125 13.6875 C 28.554688 12.480469 28.757813 11.441406 29.125 10.3125 C 29.492188 9.183594 30.058594 7.996094 30.375 6.625 C 30.492188 6.125 30.515625 5.582031 30.53125 5.03125 Z M 17.46875 11.65625 C 17.742188 11.648438 18.007813 11.660156 18.28125 11.6875 C 19.011719 11.757813 19.753906 11.941406 20.5 12.21875 C 23.484375 13.335938 26.675781 16.203125 30.09375 19.625 C 33.511719 23.042969 36.390625 26.242188 37.5 29.21875 C 38.609375 32.195313 38.226563 34.929688 34.875 38.34375 C 30.84375 42.449219 24.472656 45.246094 18.53125 46.34375 C 12.589844 47.441406 7.140625 46.671875 5.09375 44.625 C 4.101563 43.632813 3.441406 41.722656 3.25 39.25 C 3.058594 36.777344 3.296875 33.785156 3.9375 30.71875 C 5.222656 24.585938 8.085938 18.164063 11.40625 14.84375 C 13.625 12.625 15.558594 11.710938 17.46875 11.65625 Z M 19.9375 13.78125 C 19.488281 13.78125 18.933594 13.933594 18.40625 14.21875 C 17.347656 14.796875 16.75 15.707031 17.0625 16.28125 C 17.375 16.855469 18.503906 16.859375 19.5625 16.28125 C 20.625 15.707031 21.21875 14.792969 20.90625 14.21875 C 20.75 13.933594 20.386719 13.78125 19.9375 13.78125 Z M 26.9375 17.78125 C 26.4375 17.808594 25.808594 18.089844 25.25 18.59375 C 24.351563 19.402344 23.964844 20.453125 24.40625 20.9375 C 24.84375 21.421875 25.914063 21.15625 26.8125 20.34375 C 27.703125 19.542969 28.097656 18.480469 27.65625 18 C 27.492188 17.816406 27.238281 17.765625 26.9375 17.78125 Z M 12.8125 20.4375 C 12.273438 20.433594 11.5625 20.855469 11 21.5625 C 10.253906 22.507813 10.082031 23.59375 10.59375 24 C 11.109375 24.40625 12.128906 23.976563 12.875 23.03125 C 13.621094 22.085938 13.792969 20.996094 13.28125 20.59375 C 13.152344 20.492188 12.992188 20.4375 12.8125 20.4375 Z M 19.78125 21.96875 C 19.28125 22.023438 18.6875 22.339844 18.15625 22.875 C 17.304688 23.726563 16.972656 24.789063 17.4375 25.25 C 17.902344 25.714844 18.960938 25.382813 19.8125 24.53125 C 20.664063 23.679688 20.992188 22.617188 20.53125 22.15625 C 20.359375 21.984375 20.082031 21.9375 19.78125 21.96875 Z M 26.8125 26.1875 C 26.3125 26.242188 25.6875 26.5625 25.15625 27.09375 C 24.304688 27.945313 24.003906 29.007813 24.46875 29.46875 C 24.933594 29.929688 25.992188 29.632813 26.84375 28.78125 C 27.695313 27.929688 28.027344 26.867188 27.5625 26.40625 C 27.390625 26.234375 27.113281 26.15625 26.8125 26.1875 Z M 11.34375 27.59375 C 10.84375 27.648438 10.21875 27.96875 9.6875 28.5 C 8.835938 29.351563 8.539063 30.414063 9 30.875 C 9.460938 31.335938 10.523438 31.039063 11.375 30.1875 C 12.226563 29.335938 12.523438 28.273438 12.0625 27.8125 C 11.890625 27.640625 11.644531 27.5625 11.34375 27.59375 Z M 33.65625 30.1875 C 33.121094 30.269531 32.464844 30.808594 32.03125 31.59375 C 31.445313 32.648438 31.457031 33.75 32.03125 34.0625 C 32.601563 34.378906 33.539063 33.773438 34.125 32.71875 C 34.707031 31.667969 34.695313 30.5625 34.125 30.25 C 33.980469 30.167969 33.835938 30.160156 33.65625 30.1875 Z M 18.375 31.8125 C 17.875 31.867188 17.28125 32.1875 16.75 32.71875 C 15.898438 33.566406 15.566406 34.628906 16.03125 35.09375 C 16.492188 35.554688 17.554688 35.261719 18.40625 34.40625 C 19.257813 33.554688 19.585938 32.496094 19.125 32.03125 C 18.953125 31.859375 18.675781 31.78125 18.375 31.8125 Z M 8.28125 35.8125 C 7.75 35.894531 7.125 36.425781 6.6875 37.21875 C 6.097656 38.265625 6.082031 39.402344 6.65625 39.71875 C 7.226563 40.035156 8.160156 39.429688 8.75 38.375 C 9.332031 37.320313 9.351563 36.191406 8.78125 35.875 C 8.636719 35.796875 8.457031 35.785156 8.28125 35.8125 Z M 25.5 36.28125 C 25.050781 36.300781 24.515625 36.46875 24 36.78125 C 22.972656 37.40625 22.410156 38.378906 22.75 38.9375 C 23.089844 39.492188 24.1875 39.441406 25.21875 38.8125 C 26.253906 38.1875 26.839844 37.21875 26.5 36.65625 C 26.332031 36.378906 25.949219 36.261719 25.5 36.28125 Z M 15.625 40.5 C 15.175781 40.523438 14.640625 40.6875 14.125 41 C 13.097656 41.625 12.566406 42.597656 12.90625 43.15625 C 13.246094 43.71875 14.34375 43.65625 15.375 43.03125 C 16.40625 42.402344 16.96875 41.4375 16.625 40.875 C 16.457031 40.597656 16.074219 40.476563 15.625 40.5 Z"/></svg>