<svg xmlns="http://www.w3.org/2000/svg"  viewBox="0 0 50 50" width="1000px" height="1000px"><path d="M 22.576172 2.0136719 C 21.735817 2.0448798 20.8866 2.3855749 20.132812 2.8964844 C 18.926754 3.7139387 17.844805 5.0060662 17.054688 6.6171875 C 16.322282 8.1106302 15.977629 9.6272892 16.001953 11 L 16 11 L 16 11.1875 C 16.001998 11.233388 15.995165 11.282606 15.998047 11.328125 C 15.998422 11.334053 15.999608 11.339777 16 11.345703 L 16 34 L 16 34.236328 L 16 45.236328 L 16.105469 45.447266 C 16.105469 45.447266 16.472635 46.159358 17.25 46.78125 C 18.027365 47.403142 19.277778 48 21 48 C 22.722222 48 23.972635 47.403142 24.75 46.78125 C 25.527365 46.159358 25.894531 45.447266 25.894531 45.447266 L 26 45.236328 L 26 35.492188 C 28.204382 33.77221 31.790115 31.302004 34.589844 27.646484 C 37.535284 23.800715 39.540457 18.560732 37.974609 11.775391 L 37.255859 8.6660156 L 36.072266 11.628906 C 34.140567 16.458152 31.8325 18.505008 29.585938 20.501953 C 28.317644 21.629325 27.055825 22.779128 26 24.316406 L 26 7 L 25.970703 7 C 26.012048 6.5806225 26.026999 6.1689952 26.001953 5.7734375 C 25.909886 4.319362 25.322665 2.9411887 24.056641 2.3203125 C 23.581882 2.087484 23.080385 1.9949471 22.576172 2.0136719 z M 22.818359 4.0175781 C 22.95211 4.031042 23.071545 4.0660688 23.175781 4.1171875 C 23.592724 4.3216623 23.941484 4.8836803 24.005859 5.9003906 C 24.070229 6.9171008 23.804517 8.2716455 23.150391 9.6054688 C 22.496265 10.939292 21.589388 11.979205 20.746094 12.550781 C 19.9028 13.122357 19.243115 13.190803 18.826172 12.986328 C 18.415519 12.784938 18.071869 12.230128 18 11.242188 L 18 11 L 17.998047 11 C 17.976003 10.008111 18.237541 8.7481404 18.851562 7.4960938 C 19.505689 6.1622705 20.412565 5.1223574 21.255859 4.5507812 C 21.88833 4.1220992 22.417107 3.9771864 22.818359 4.0175781 z M 24 12.042969 L 24 33.667969 C 23.95679 33.745719 23.890609 33.906263 23.5 34.21875 C 23.027365 34.596858 22.277778 35 21 35 C 19.722222 35 18.972635 34.596858 18.5 34.21875 C 18.109391 33.906263 18.043209 33.745715 18 33.667969 L 18 14.802734 C 19.253115 15.386923 20.678243 15.010934 21.867188 14.205078 C 22.648907 13.675237 23.368419 12.92913 24 12.042969 z M 36.410156 15.5 C 36.661054 20.035365 35.18578 23.578331 33.001953 26.429688 C 30.874817 29.207022 28.181563 31.294276 26 32.962891 L 26 29.144531 C 26.946706 25.459398 28.681656 23.982408 30.914062 21.998047 C 32.649668 20.455287 34.639468 18.612524 36.410156 15.5 z M 18 36.269531 C 18.752876 36.68079 19.747813 37 21 37 C 22.252187 37 23.247124 36.68079 24 36.269531 L 24 44.667969 C 23.95679 44.745719 23.890609 44.906263 23.5 45.21875 C 23.027365 45.596858 22.277778 46 21 46 C 19.722222 46 18.972635 45.596858 18.5 45.21875 C 18.109391 44.906263 18.043209 44.745715 18 44.667969 L 18 36.269531 z"/></svg>