<svg xmlns="http://www.w3.org/2000/svg"  viewBox="0 0 50 50" width="1000px" height="1000px"><path d="M 22 0 L 22 11 L 16.65625 11 C 15.195313 11 14 12.195313 14 13.65625 L 14 15.34375 C 14 15.722656 14.074219 16.078125 14.21875 16.40625 C 13.320313 16.832031 12.59375 17.515625 12.09375 18.34375 C 11.367188 19.542969 11.023438 21.015625 10.9375 22.65625 C 10.761719 25.9375 11.535156 29.960938 12.59375 33.90625 C 14.710938 41.796875 18.09375 49.40625 18.09375 49.40625 C 18.253906 49.765625 18.609375 49.996094 19 50 L 31 50 C 31.390625 49.996094 31.746094 49.765625 31.90625 49.40625 C 31.90625 49.40625 35.289063 41.796875 37.40625 33.90625 C 38.464844 29.960938 39.238281 25.9375 39.0625 22.65625 C 38.976563 21.015625 38.632813 19.542969 37.90625 18.34375 C 37.402344 17.507813 36.660156 16.832031 35.75 16.40625 C 35.898438 16.078125 36 15.726563 36 15.34375 L 36 13.65625 C 36 12.195313 34.804688 11 33.34375 11 L 28 11 L 28 4.5 L 27.59375 4.1875 L 23.59375 1.1875 Z M 24 4 L 26 5.5 L 26 11 L 24 11 Z M 16.65625 13 L 33.34375 13 C 33.71875 13 34 13.285156 34 13.65625 L 34 15.34375 C 34 15.558594 33.902344 15.722656 33.75 15.84375 C 33.691406 15.890625 33.640625 15.941406 33.59375 16 L 16.34375 16 C 16.300781 15.921875 16.25 15.847656 16.1875 15.78125 C 16.070313 15.660156 16 15.527344 16 15.34375 L 16 13.65625 C 16 13.28125 16.28125 13 16.65625 13 Z M 15.875 18 L 22 18 L 22 26.625 C 20.300781 26.820313 18.492188 27.351563 16.9375 27.875 C 15.035156 28.515625 13.601563 29.140625 13.5625 29.15625 C 13.109375 26.8125 12.839844 24.59375 12.9375 22.78125 C 13.015625 21.34375 13.308594 20.15625 13.78125 19.375 C 14.253906 18.59375 14.867188 18.167969 15.875 18 Z M 24 18 L 26 18 L 26 27 C 25.328125 26.816406 24.660156 26.628906 24 26.5625 Z M 28 18 L 34.125 18 C 35.132813 18.167969 35.746094 18.59375 36.21875 19.375 C 36.691406 20.15625 36.984375 21.34375 37.0625 22.78125 C 37.148438 24.390625 36.953125 26.324219 36.59375 28.375 C 34.273438 29.101563 31.984375 28.753906 29.75 28.125 C 29.152344 27.957031 28.578125 27.78125 28 27.59375 Z M 23.21875 28.53125 C 24.65625 28.53125 26.792969 29.378906 29.21875 30.0625 C 31.296875 30.648438 33.671875 31.097656 36.15625 30.59375 C 35.953125 31.511719 35.71875 32.445313 35.46875 33.375 C 33.539063 40.574219 30.722656 47.132813 30.34375 48 L 19.65625 48 C 19.277344 47.132813 16.460938 40.574219 14.53125 33.375 C 14.324219 32.601563 14.144531 31.828125 13.96875 31.0625 C 14.085938 31.0625 14.203125 31.039063 14.3125 31 C 14.3125 31 15.722656 30.371094 17.5625 29.75 C 19.402344 29.128906 21.6875 28.53125 23.21875 28.53125 Z"/></svg>