<svg xmlns="http://www.w3.org/2000/svg"  viewBox="0 0 50 50" width="1000px" height="1000px"><path d="M 20.1875 5 C 19.011719 5 18 6.011719 18 7.1875 L 18 12 L 3.09375 12 C 1.394531 12 0 13.394531 0 15.09375 L 0 46.90625 C 0 48.605469 1.394531 50 3.09375 50 L 46.90625 50 C 48.605469 50 50 48.605469 50 46.90625 L 50 15.09375 C 50 13.394531 48.605469 12 46.90625 12 L 32 12 L 32 7.1875 C 32 6.011719 30.988281 5 29.8125 5 Z M 20 7 C 20.019531 6.980469 20.074219 7 20.1875 7 L 29.8125 7 C 30.035156 7 30 6.964844 30 7.1875 L 30 12 L 20 12 L 20 7.1875 C 20 7.074219 19.980469 7.019531 20 7 Z M 3.09375 14 L 46.90625 14 C 47.605469 14 48 14.394531 48 15.09375 L 48 46.90625 C 48 47.605469 47.605469 48 46.90625 48 L 3.09375 48 C 2.394531 48 2 47.605469 2 46.90625 L 2 15.09375 C 2 14.394531 2.394531 14 3.09375 14 Z M 26.5 18 C 23.472656 18 21 20.472656 21 23.5 C 21 26.527344 23.472656 29 26.5 29 C 29.527344 29 32 26.527344 32 23.5 C 32 20.472656 29.527344 18 26.5 18 Z M 26.5 20 C 28.445313 20 30 21.554688 30 23.5 C 30 25.445313 28.445313 27 26.5 27 C 24.554688 27 23 25.445313 23 23.5 C 23 21.554688 24.554688 20 26.5 20 Z M 41.65625 27.1875 C 41.429688 27.175781 41.1875 27.226563 40.96875 27.3125 L 40.9375 27.25 L 29 31.8125 L 28.84375 31.875 L 28.875 31.9375 C 27.957031 32.238281 27.46875 33.257813 27.8125 34.125 L 27.75 34.15625 L 29.75 39.4375 L 29.8125 39.40625 C 30.105469 40.347656 31.183594 40.871094 32.0625 40.5 L 32.0625 40.53125 L 32.15625 40.5 L 44.15625 35.9375 L 44.125 35.875 C 45.054688 35.582031 45.53125 34.558594 45.1875 33.6875 L 45.25 33.65625 L 43.25 28.34375 L 43.1875 28.375 C 42.96875 27.675781 42.335938 27.21875 41.65625 27.1875 Z M 41.4375 29.21875 L 43.28125 34.125 L 31.5625 38.5625 L 29.71875 33.6875 Z"/></svg>