<svg xmlns="http://www.w3.org/2000/svg"  viewBox="0 0 50 50" width="1000px" height="1000px"><path d="M 16 3 C 14.906937 3 14 3.9069372 14 5 L 14 9 C 14 10.093063 14.906937 11 16 11 L 16 12.279297 L 14.103516 12.912109 C 11.656891 13.72805 10 16.024936 10 18.603516 L 10 20 L 10 38 L 10 41 C 10 44.301625 12.698375 47 16 47 L 34 47 C 37.301625 47 40 44.301625 40 41 L 40 38 L 40 20 L 40 18.603516 C 40 16.024936 38.343475 13.726974 35.896484 12.912109 L 34 12.279297 L 34 11 C 35.093063 11 36 10.093063 36 9 L 36 5 C 36 3.9069372 35.093063 3 34 3 L 16 3 z M 16 5 L 34 5 L 34 9 L 16 9 L 16 5 z M 18 11 L 32 11 L 32 13 A 1.0001 1.0001 0 0 0 32.683594 13.949219 L 35.263672 14.810547 A 1.0001 1.0001 0 0 0 35.265625 14.810547 C 36.902587 15.355682 38 16.878096 38 18.603516 L 38 19 L 12 19 L 12 18.603516 C 12 16.878648 13.097869 15.355104 14.734375 14.808594 L 17.316406 13.949219 A 1.0001 1.0001 0 0 0 18 13 L 18 11 z M 12 21 L 38 21 L 38 37 L 12 37 L 12 21 z M 26.5 23.677734 C 25.518151 23.677734 24.536377 24.049561 23.792969 24.792969 L 22.410156 26.175781 A 1.0001 1.0001 0 0 0 22.179688 26.40625 L 20.792969 27.792969 C 19.306152 29.279785 19.306152 31.720215 20.792969 33.207031 C 22.279785 34.693848 24.720215 34.693848 26.207031 33.207031 L 27.589844 31.824219 A 1.0001 1.0001 0 0 0 27.820312 31.59375 L 29.207031 30.207031 C 30.693848 28.720215 30.693848 26.279785 29.207031 24.792969 C 28.463623 24.049561 27.481849 23.677734 26.5 23.677734 z M 26.5 25.664062 C 26.965651 25.664062 27.431377 25.845439 27.792969 26.207031 C 28.516152 26.930215 28.516152 28.069785 27.792969 28.792969 L 27 29.585938 L 24.414062 27 L 25.207031 26.207031 C 25.568623 25.845439 26.034349 25.664062 26.5 25.664062 z M 23 28.414062 L 25.585938 31 L 24.792969 31.792969 C 24.069785 32.516152 22.930215 32.516152 22.207031 31.792969 C 21.483848 31.069785 21.483848 29.930215 22.207031 29.207031 L 23 28.414062 z M 12 39 L 38 39 L 38 41 C 38 43.220375 36.220375 45 34 45 L 16 45 C 13.779625 45 12 43.220375 12 41 L 12 39 z"/></svg>