<svg xmlns="http://www.w3.org/2000/svg"  viewBox="0 0 50 50" width="1000px" height="1000px"><path d="M 44.375 6.34375 C 43.9375 6.382813 43.523438 6.5 43.125 6.71875 C 43.113281 6.71875 43.105469 6.71875 43.09375 6.71875 L 23.84375 17.65625 C 21.722656 16.605469 18.992188 16 16 16 C 12.800781 16 9.894531 16.683594 7.71875 17.875 C 5.542969 19.066406 4 20.855469 4 23 L 4 28.71875 L 2.15625 29.8125 L 2.09375 29.84375 C 1.410156 30.191406 0.800781 30.628906 0.40625 31.25 C -0.00390625 31.890625 -0.101563 32.847656 0.3125 33.59375 C 0.324219 33.605469 0.332031 33.613281 0.34375 33.625 C 0.597656 34.050781 1.011719 34.378906 1.4375 34.53125 C 1.863281 34.683594 2.265625 34.679688 2.625 34.625 C 3.179688 34.542969 3.621094 34.339844 4 34.15625 L 4 37 C 4 37.214844 4.035156 37.40625 4.0625 37.59375 L 2.375 38.25 L 2.375 38.28125 L 2.34375 38.28125 C 1.632813 38.523438 0.996094 38.875 0.53125 39.4375 C 0.0664063 39.996094 -0.121094 40.890625 0.1875 41.65625 C 0.195313 41.660156 0.183594 41.679688 0.1875 41.6875 C 0.195313 41.703125 0.210938 41.703125 0.21875 41.71875 C 0.410156 42.140625 0.753906 42.535156 1.125 42.71875 C 1.519531 42.914063 1.894531 42.945313 2.25 42.9375 C 2.933594 42.921875 3.515625 42.707031 3.9375 42.53125 C 3.953125 42.523438 3.984375 42.539063 4 42.53125 L 4 42.5 L 6.84375 41.5 C 9.101563 43.09375 12.367188 44 16 44 C 19.199219 44 22.105469 43.316406 24.28125 42.125 C 26.457031 40.933594 28 39.144531 28 37 L 28 34.15625 L 47.8125 27.25 C 47.820313 27.246094 47.835938 27.253906 47.84375 27.25 C 49.546875 26.664063 50.402344 24.773438 49.84375 23.09375 C 49.402344 21.765625 48.167969 20.917969 46.875 20.90625 C 46.453125 20.902344 46.03125 21.007813 45.625 21.1875 C 45.617188 21.191406 45.601563 21.183594 45.59375 21.1875 L 28 28.125 L 28 23 C 28 22.664063 27.945313 22.347656 27.875 22.03125 L 46.25 12.6875 C 47.957031 11.835938 48.539063 9.753906 47.6875 8.15625 C 47.683594 8.148438 47.691406 8.132813 47.6875 8.125 L 47.65625 8.125 C 47.003906 6.863281 45.671875 6.222656 44.375 6.34375 Z M 44.59375 8.3125 C 45.109375 8.273438 45.648438 8.550781 45.90625 9.0625 C 45.917969 9.074219 45.925781 9.082031 45.9375 9.09375 C 46.265625 9.695313 46.027344 10.566406 45.34375 10.90625 L 27.03125 20.1875 C 26.675781 19.703125 26.222656 19.25 25.71875 18.84375 L 44.09375 8.46875 C 44.242188 8.386719 44.421875 8.324219 44.59375 8.3125 Z M 16 18 C 18.621094 18 20.988281 18.546875 22.75 19.375 C 22.945313 19.71875 23.324219 19.914063 23.71875 19.875 C 25.234375 20.816406 26 21.9375 26 23 L 26 28.9375 L 6 36.8125 L 6 32.9375 C 6.167969 32.636719 6.167969 32.269531 6 31.96875 L 6 29.5625 C 6.042969 29.398438 6.042969 29.226563 6 29.0625 L 6 23 C 6 21.84375 6.886719 20.609375 8.6875 19.625 C 10.488281 18.640625 13.097656 18 16 18 Z M 16 19 C 13.40625 19 11.273438 19.558594 9.71875 20.34375 C 8.941406 20.734375 8.316406 21.179688 7.84375 21.6875 C 7.371094 22.195313 7 22.78125 7 23.5 C 7 24.21875 7.371094 24.804688 7.84375 25.3125 C 8.316406 25.820313 8.941406 26.265625 9.71875 26.65625 C 11.273438 27.441406 13.40625 28 16 28 C 18.59375 28 20.726563 27.441406 22.28125 26.65625 C 23.058594 26.265625 23.683594 25.820313 24.15625 25.3125 C 24.628906 24.804688 25 24.21875 25 23.5 C 25 22.78125 24.628906 22.195313 24.15625 21.6875 C 23.683594 21.179688 23.058594 20.734375 22.28125 20.34375 C 20.726563 19.558594 18.59375 19 16 19 Z M 16 21 C 18.308594 21 20.152344 21.507813 21.375 22.125 C 21.984375 22.433594 22.457031 22.753906 22.71875 23.03125 C 22.980469 23.308594 23 23.519531 23 23.5 C 23 23.480469 22.980469 23.691406 22.71875 23.96875 C 22.457031 24.246094 21.984375 24.566406 21.375 24.875 C 20.152344 25.492188 18.308594 26 16 26 C 13.691406 26 11.847656 25.492188 10.625 24.875 C 10.015625 24.566406 9.542969 24.246094 9.28125 23.96875 C 9.019531 23.691406 9 23.480469 9 23.5 C 9 23.519531 9.019531 23.308594 9.28125 23.03125 C 9.542969 22.753906 10.015625 22.433594 10.625 22.125 C 11.847656 21.507813 13.691406 21 16 21 Z M 16 22.1875 C 14.34375 22.1875 13 22.859375 13 23.6875 C 13 24.515625 14.34375 25.1875 16 25.1875 C 17.65625 25.1875 19 24.515625 19 23.6875 C 19 22.859375 17.65625 22.1875 16 22.1875 Z M 46.84375 22.90625 C 47.300781 22.925781 47.78125 23.246094 47.9375 23.71875 C 48.175781 24.429688 47.867188 25.117188 47.1875 25.34375 C 47.175781 25.34375 47.167969 25.34375 47.15625 25.34375 L 6.875 39.40625 C 6.8125 39.421875 6.746094 39.441406 6.6875 39.46875 L 6.59375 39.5 C 6.5625 39.507813 6.53125 39.519531 6.5 39.53125 L 3.28125 40.65625 C 3.261719 40.664063 3.238281 40.675781 3.21875 40.6875 C 2.941406 40.804688 2.484375 40.929688 2.21875 40.9375 C 2.085938 40.941406 2 40.90625 2 40.90625 C 1.945313 40.78125 1.9375 40.839844 2.0625 40.6875 C 2.1875 40.535156 2.558594 40.3125 3.03125 40.15625 C 3.042969 40.144531 3.050781 40.136719 3.0625 40.125 L 5.1875 39.28125 C 5.453125 39.289063 5.714844 39.1875 5.90625 39 L 46.375 23.03125 C 46.386719 23.019531 46.394531 23.011719 46.40625 23 C 46.539063 22.9375 46.691406 22.898438 46.84375 22.90625 Z M 4 31.03125 L 4 31.90625 L 3.4375 32.21875 L 3.40625 32.21875 C 3.027344 32.40625 2.585938 32.585938 2.3125 32.625 C 2.171875 32.644531 2.105469 32.628906 2.09375 32.625 C 2.085938 32.621094 2.066406 32.628906 2.0625 32.625 C 2.054688 32.609375 2.070313 32.605469 2.0625 32.59375 C 2 32.488281 1.988281 32.476563 2.09375 32.3125 C 2.210938 32.128906 2.570313 31.839844 3.0625 31.59375 C 3.074219 31.582031 3.082031 31.574219 3.09375 31.5625 Z M 26 34.84375 L 26 37 C 26 38.15625 25.113281 39.390625 23.3125 40.375 C 21.511719 41.359375 18.902344 42 16 42 C 13.421875 42 11.074219 41.488281 9.3125 40.65625 Z"/></svg>