<svg xmlns="http://www.w3.org/2000/svg"  viewBox="0 0 50 50" width="1000px" height="1000px"><path d="M 27.59375 0.03125 C 27.132813 0.0742188 26.683594 0.21875 26.3125 0.5625 C 26.300781 0.574219 26.292969 0.582031 26.28125 0.59375 L 9.21875 17.75 C 9.195313 17.769531 9.175781 17.789063 9.15625 17.8125 L 4.28125 22.6875 C 3.894531 23.078125 3.894531 23.703125 4.28125 24.09375 L 23.90625 43.71875 C 24.296875 44.105469 24.921875 44.105469 25.3125 43.71875 L 30 39 C 30.046875 38.960938 30.085938 38.921875 30.125 38.875 L 30.21875 38.78125 C 30.265625 38.742188 30.304688 38.703125 30.34375 38.65625 L 44.59375 24.40625 C 44.886719 24.304688 45.117188 24.074219 45.21875 23.78125 L 47.375 21.625 C 47.386719 21.613281 47.394531 21.605469 47.40625 21.59375 C 48.125 20.898438 48.109375 19.898438 47.875 18.96875 C 47.636719 18.027344 47.136719 16.972656 46.4375 15.8125 C 45.035156 13.496094 42.800781 10.75 40 8 C 37.253906 5.253906 34.484375 3.023438 32.15625 1.625 C 30.992188 0.925781 29.945313 0.4375 29 0.1875 C 28.527344 0.0625 28.054688 -0.0117188 27.59375 0.03125 Z M 27.6875 2.03125 C 27.644531 2.070313 27.851563 1.953125 28.5 2.125 C 29.148438 2.296875 30.0625 2.707031 31.125 3.34375 C 33.25 4.621094 35.941406 6.753906 38.59375 9.40625 C 41.292969 12.058594 43.445313 14.734375 44.71875 16.84375 C 45.355469 17.898438 45.78125 18.8125 45.9375 19.4375 C 46.09375 20.0625 45.980469 20.203125 46.03125 20.15625 C 46.019531 20.167969 46.011719 20.175781 46 20.1875 L 44.09375 22.09375 C 43.566406 21.796875 42.984375 21.613281 42.34375 21.5625 C 41.355469 21.484375 40.242188 21.691406 39.15625 22.0625 C 36.980469 22.800781 34.640625 24.285156 32.5 26.375 C 30.347656 28.476563 28.851563 30.835938 28.125 33.03125 C 27.527344 34.839844 27.425781 36.640625 28.1875 38 L 24.625 41.5625 L 6.40625 23.375 L 9.96875 19.8125 C 11.328125 20.582031 13.132813 20.457031 14.9375 19.84375 C 17.113281 19.105469 19.453125 17.621094 21.59375 15.53125 C 23.746094 13.429688 25.273438 11.070313 26 8.875 C 26.609375 7.039063 26.679688 5.210938 25.875 3.84375 Z M 24.375 5.34375 C 24.5625 6.054688 24.492188 7.046875 24.09375 8.25 C 23.496094 10.054688 22.136719 12.195313 20.1875 14.09375 C 18.230469 16.003906 16.082031 17.328125 14.28125 17.9375 C 13.140625 18.324219 12.214844 18.402344 11.53125 18.25 Z M 41.59375 23.5625 C 41.941406 23.542969 42.257813 23.570313 42.53125 23.625 L 29.71875 36.4375 C 29.5625 35.738281 29.625 34.785156 30 33.65625 C 30.597656 31.851563 31.957031 29.710938 33.90625 27.8125 C 35.863281 25.902344 38.011719 24.546875 39.8125 23.9375 C 40.488281 23.707031 41.074219 23.59375 41.59375 23.5625 Z M 17 26.09375 L 17 31 L 21.90625 31 Z M 6.5 31 C 4.027344 31 2 33.027344 2 35.5 C 2 37.972656 4.027344 40 6.5 40 C 8.972656 40 11 37.972656 11 35.5 C 11 33.027344 8.972656 31 6.5 31 Z M 6.5 33 C 7.890625 33 9 34.109375 9 35.5 C 9 36.890625 7.890625 38 6.5 38 C 5.109375 38 4 36.890625 4 35.5 C 4 34.109375 5.109375 33 6.5 33 Z M 12.5 41 C 10.027344 41 8 43.027344 8 45.5 C 8 47.972656 10.027344 50 12.5 50 C 14.972656 50 17 47.972656 17 45.5 C 17 43.027344 14.972656 41 12.5 41 Z M 12.5 43 C 13.890625 43 15 44.109375 15 45.5 C 15 46.890625 13.890625 48 12.5 48 C 11.109375 48 10 46.890625 10 45.5 C 10 44.109375 11.109375 43 12.5 43 Z"/></svg>