<svg fill="#000000" xmlns="http://www.w3.org/2000/svg"  viewBox="0 0 50 50" width="1000px" height="1000px"><path d="M 40.4375 2.03125 C 38.945313 2.046875 37.300781 2.230469 35.59375 2.59375 C 31.042969 3.5625 26.046875 5.703125 22.625 9.125 C 15.457031 16.292969 15.472656 24.28125 12.15625 29.4375 C 9.832031 33.050781 7.789063 34.636719 6.15625 35.53125 C 4.523438 36.425781 3.207031 36.511719 2.125 37.59375 C 1.699219 38.019531 1.242188 38.480469 1.0625 39.25 C 0.882813 40.019531 1.203125 40.921875 1.875 41.59375 C 4.890625 44.609375 10.71875 47.023438 17.4375 47.0625 C 24.15625 47.101563 31.78125 44.636719 38.09375 37.65625 C 42.539063 32.738281 44.46875 25.824219 45.34375 19.9375 C 46.21875 14.050781 46.011719 9.074219 46 8.28125 C 45.980469 7.035156 46.246094 6.617188 46.53125 6.125 C 46.671875 5.878906 46.898438 5.597656 46.9375 5.0625 C 46.976563 4.527344 46.671875 3.984375 46.3125 3.625 C 45.28125 2.59375 43.722656 2.195313 41.875 2.0625 C 41.414063 2.027344 40.933594 2.027344 40.4375 2.03125 Z M 40.46875 4.03125 C 40.917969 4.023438 41.351563 4.035156 41.75 4.0625 C 43.328125 4.175781 44.433594 4.605469 44.875 5.03125 C 44.855469 5.078125 44.875 5.015625 44.8125 5.125 C 44.515625 5.636719 43.972656 6.671875 44 8.3125 C 44.015625 9.285156 44.21875 13.976563 43.375 19.65625 C 42.53125 25.335938 40.632813 31.878906 36.625 36.3125 C 30.691406 42.875 23.667969 45.097656 17.4375 45.0625 C 11.207031 45.027344 5.777344 42.652344 3.3125 40.1875 C 2.925781 39.800781 2.984375 39.785156 3 39.71875 C 3.015625 39.652344 3.207031 39.355469 3.5625 39 C 3.878906 38.683594 5.226563 38.324219 7.125 37.28125 C 9.023438 36.238281 11.375 34.375 13.84375 30.53125 C 17.628906 24.644531 17.398438 17.195313 24.03125 10.5625 C 27.054688 7.539063 31.753906 5.46875 36 4.5625 C 37.59375 4.222656 39.125 4.050781 40.46875 4.03125 Z M 31.3125 10.9375 C 31.269531 10.945313 31.226563 10.957031 31.1875 10.96875 C 30.859375 11.042969 30.589844 11.273438 30.46875 11.589844 C 30.347656 11.90625 30.394531 12.257813 30.59375 12.53125 C 30.980469 13.09375 31.535156 13.351563 32.03125 13.53125 C 32.527344 13.710938 33.011719 13.8125 33.46875 13.9375 C 34.382813 14.191406 34.996094 14.472656 35.25 15.03125 C 35.394531 15.367188 35.707031 15.597656 36.070313 15.632813 C 36.433594 15.667969 36.789063 15.503906 36.992188 15.203125 C 37.199219 14.902344 37.226563 14.511719 37.0625 14.1875 C 36.425781 12.792969 35.03125 12.316406 34 12.03125 C 33.484375 11.886719 33.011719 11.773438 32.6875 11.65625 C 32.363281 11.539063 32.261719 11.421875 32.25 11.40625 C 32.050781 11.085938 31.6875 10.90625 31.3125 10.9375 Z M 22.3125 21.71875 C 21.960938 21.769531 21.664063 22 21.527344 22.328125 C 21.394531 22.65625 21.441406 23.03125 21.65625 23.3125 C 21.65625 23.3125 22.699219 24.710938 24.5625 24.71875 C 24.921875 24.722656 25.257813 24.535156 25.441406 24.222656 C 25.621094 23.910156 25.621094 23.527344 25.441406 23.214844 C 25.257813 22.902344 24.921875 22.714844 24.5625 22.71875 C 23.632813 22.714844 23.28125 22.15625 23.28125 22.15625 C 23.070313 21.835938 22.691406 21.667969 22.3125 21.71875 Z M 34.21875 22.0625 C 33.761719 22.136719 33.414063 22.511719 33.378906 22.96875 C 33.339844 23.429688 33.625 23.855469 34.0625 24 C 34.21875 24.054688 34.226563 24.09375 34.375 24.46875 C 34.523438 24.84375 34.644531 25.488281 35.25 26.0625 C 35.496094 26.355469 35.890625 26.480469 36.257813 26.386719 C 36.628906 26.292969 36.914063 25.992188 36.992188 25.621094 C 37.070313 25.246094 36.925781 24.859375 36.625 24.625 C 36.570313 24.570313 36.421875 24.265625 36.21875 23.75 C 36.015625 23.234375 35.597656 22.433594 34.71875 22.125 C 34.558594 22.0625 34.386719 22.039063 34.21875 22.0625 Z M 25.59375 30.9375 C 25.132813 31 24.777344 31.371094 24.734375 31.832031 C 24.6875 32.292969 24.96875 32.726563 25.40625 32.875 C 26.203125 33.203125 26.460938 33.855469 27.125 34.78125 C 27.453125 35.230469 28.082031 35.328125 28.53125 35 C 28.980469 34.671875 29.078125 34.042969 28.75 33.59375 C 28.238281 32.882813 27.652344 31.652344 26.15625 31.03125 C 26.011719 30.960938 25.847656 30.929688 25.6875 30.9375 C 25.65625 30.9375 25.625 30.9375 25.59375 30.9375 Z M 16.75 34.8125 C 16.367188 34.878906 16.058594 35.164063 15.960938 35.539063 C 15.859375 35.914063 15.984375 36.3125 16.28125 36.5625 C 16.449219 36.707031 16.5625 36.910156 16.625 37.125 C 16.78125 37.660156 17.339844 37.96875 17.875 37.8125 C 18.410156 37.65625 18.71875 37.097656 18.5625 36.5625 C 18.390625 35.980469 18.054688 35.464844 17.59375 35.0625 C 17.367188 34.851563 17.054688 34.761719 16.75 34.8125 Z"/></svg>