<svg xmlns="http://www.w3.org/2000/svg"  viewBox="0 0 50 50" width="1000px" height="1000px"><path d="M 0.9375 0 C 0.515625 0.078125 0.1875 0.417969 0.125 0.84375 C -0.0507813 1.964844 -0.0859375 3.675781 0.125 5.5 C 0.335938 7.324219 0.785156 9.246094 1.8125 10.65625 L 15 29 L 15 35.875 C 14.558594 35.667969 14.070313 35.386719 13.5625 35.03125 C 12.214844 34.082031 11 32.707031 11 30.5625 C 11 29.300781 10.914063 28.21875 10.625 27.25 C 10.335938 26.28125 9.816406 25.429688 9.03125 24.78125 C 8.613281 24.4375 8.136719 24.269531 7.5625 24.125 C 6.988281 23.980469 6.28125 23.84375 5.5625 24.34375 C 5.132813 24.632813 5 25.203125 5.25 25.65625 C 5.453125 26.011719 5.953125 27 6.25 27.875 C 6.375 28.238281 6.460938 28.539063 6.5 28.78125 C 6.425781 28.78125 6.453125 28.808594 6.34375 28.78125 C 6.035156 28.703125 5.640625 28.503906 5.25 28.125 C 4.472656 27.367188 3.699219 25.878906 3.84375 23.0625 C 3.863281 22.769531 3.753906 22.484375 3.542969 22.277344 C 3.332031 22.074219 3.042969 21.972656 2.75 22 C 1.75 22.097656 0.890625 22.8125 0.5 23.71875 C 0.109375 24.625 0 25.695313 0 27.03125 C 0 29.257813 1.089844 31.367188 2.59375 33.3125 C 4.097656 35.257813 6.054688 37.078125 8 38.625 C 11.367188 41.304688 14.566406 43.125 15.40625 43.59375 C 16.53125 47.285156 19.949219 50 24 50 C 28.957031 50 33 45.957031 33 41 L 33 21.03125 C 34.648438 23.050781 37.46875 26.496094 39.09375 28.46875 C 40.097656 29.691406 41.554688 31.050781 43.3125 31.96875 C 45.070313 32.886719 47.191406 33.363281 49.3125 32.65625 C 49.578125 32.566406 49.789063 32.371094 49.902344 32.113281 C 50.015625 31.859375 50.015625 31.570313 49.90625 31.3125 C 48.355469 27.679688 46.933594 24.941406 45.75 22.28125 C 45.726563 22.214844 45.695313 22.152344 45.65625 22.09375 C 41.78125 16.753906 32.09375 5.125 32.09375 5.125 C 30.640625 2.101563 27.570313 0 24 0 C 19.042969 0 15 4.042969 15 9 L 15 14 C 14.957031 13.53125 14.59375 13.152344 14.125 13.09375 L 13.0625 12.9375 L 13.3125 11.46875 C 13.355469 11.203125 13.289063 10.929688 13.132813 10.714844 C 12.972656 10.496094 12.734375 10.351563 12.46875 10.3125 L 10.96875 10.09375 L 11.21875 8.59375 C 11.289063 8.050781 10.914063 7.550781 10.375 7.46875 L 8.90625 7.21875 L 9.125 5.75 C 9.167969 5.484375 9.101563 5.210938 8.945313 4.996094 C 8.785156 4.777344 8.546875 4.632813 8.28125 4.59375 L 6.8125 4.375 L 7.03125 2.875 C 7.121094 2.332031 6.761719 1.816406 6.21875 1.71875 L 3.8125 1.34375 C 3.71875 1.320313 3.214844 1.109375 2.78125 0.84375 C 2.347656 0.578125 1.972656 0.3125 1.625 0.125 C 1.417969 0.00390625 1.175781 -0.0429688 0.9375 0 Z M 24 2 C 26.839844 2 29.273438 3.675781 30.375 6.09375 C 30.382813 6.125 30.394531 6.15625 30.40625 6.1875 C 30.785156 7.050781 31 7.996094 31 9 L 31 18.0625 C 30.988281 18.15625 30.988281 18.25 31 18.34375 L 31 41 C 31 44.878906 27.878906 48 24 48 C 20.714844 48 17.980469 45.757813 17.21875 42.71875 C 17.210938 42.6875 17.199219 42.65625 17.1875 42.625 C 17.0625 42.101563 17 41.558594 17 41 L 17 37.5 C 17.015625 37.394531 17.015625 37.292969 17 37.1875 L 17 28.78125 C 17.015625 28.675781 17.015625 28.574219 17 28.46875 L 17 17.84375 C 17.027344 17.710938 17.027344 17.570313 17 17.4375 L 17 9 C 17 5.121094 20.121094 2 24 2 Z M 2.125 2.75 C 2.5 2.972656 2.871094 3.203125 3.34375 3.3125 C 3.363281 3.324219 3.386719 3.335938 3.40625 3.34375 L 4.90625 3.5625 L 4.65625 5.03125 C 4.613281 5.296875 4.679688 5.570313 4.835938 5.785156 C 4.996094 6.003906 5.234375 6.148438 5.5 6.1875 L 6.96875 6.4375 L 6.75 7.90625 C 6.707031 8.171875 6.773438 8.445313 6.929688 8.660156 C 7.089844 8.878906 7.328125 9.023438 7.59375 9.0625 L 9.0625 9.28125 L 8.84375 10.78125 C 8.773438 11.324219 9.148438 11.824219 9.6875 11.90625 L 11.15625 12.15625 L 10.90625 13.625 C 10.863281 13.894531 10.933594 14.171875 11.097656 14.390625 C 11.261719 14.609375 11.507813 14.75 11.78125 14.78125 L 13 14.9375 L 13 16.40625 C 12.996094 16.742188 13.160156 17.058594 13.4375 17.25 L 15 18.25 L 15 25.53125 L 3.4375 9.46875 C 2.789063 8.578125 2.316406 6.921875 2.125 5.28125 C 2.007813 4.273438 2.097656 3.574219 2.125 2.75 Z M 24 7 C 22.894531 7 22 7.894531 22 9 C 22 10.105469 22.894531 11 24 11 C 25.105469 11 26 10.105469 26 9 C 26 7.894531 25.105469 7 24 7 Z M 33 9.375 C 35.789063 12.761719 41.097656 19.253906 44 23.25 C 44.007813 23.261719 44.023438 23.269531 44.03125 23.28125 C 45.0625 25.582031 46.28125 28.035156 47.53125 30.84375 C 46.421875 30.917969 45.324219 30.75 44.25 30.1875 C 42.808594 29.433594 41.476563 28.226563 40.625 27.1875 C 38.59375 24.714844 33.3125 18.257813 33 17.875 Z M 2.15625 25.71875 C 2.480469 27.371094 3.042969 28.753906 3.875 29.5625 C 4.507813 30.175781 5.199219 30.550781 5.875 30.71875 C 6.550781 30.886719 7.203125 30.902344 7.8125 30.53125 C 8.179688 30.308594 8.394531 29.925781 8.46875 29.625 C 8.542969 29.324219 8.554688 29.039063 8.53125 28.78125 C 8.484375 28.261719 8.335938 27.769531 8.15625 27.25 C 8.03125 26.886719 7.894531 26.679688 7.75 26.34375 C 8.238281 26.746094 8.519531 27.179688 8.71875 27.84375 C 8.917969 28.507813 9 29.390625 9 30.5625 C 9 33.492188 10.785156 35.523438 12.4375 36.6875 C 13.519531 37.449219 14.386719 37.835938 15 38.0625 L 15 41 C 15 41.011719 15 41.019531 15 41.03125 C 13.5625 40.148438 11.460938 38.789063 9.25 37.03125 C 7.382813 35.546875 5.539063 33.84375 4.1875 32.09375 C 2.835938 30.34375 2 28.589844 2 27.03125 C 2 26.402344 2.09375 26.152344 2.15625 25.71875 Z M 23 38 L 23 40 L 21 40 L 21 42 L 23 42 L 23 44 L 25 44 L 25 42 L 27 42 L 27 40 L 25 40 L 25 38 Z"/></svg>