<svg xmlns="http://www.w3.org/2000/svg"  viewBox="0 0 50 50" width="1000px" height="1000px"><path d="M 37.90625 -0.03125 C 37.863281 -0.0234375 37.820313 -0.0117188 37.78125 0 C 37.40625 0.0664063 37.105469 0.339844 37 0.703125 C 36.894531 1.070313 37.003906 1.460938 37.28125 1.71875 L 38.5625 3 L 31 10.5625 L 29.9375 9.53125 C 29.886719 9.4375 29.824219 9.355469 29.75 9.28125 L 29.59375 9.15625 C 29.5625 9.132813 29.53125 9.113281 29.5 9.09375 L 26.71875 6.28125 C 26.511719 6.058594 26.210938 5.945313 25.90625 5.96875 C 25.863281 5.976563 25.820313 5.988281 25.78125 6 C 25.40625 6.066406 25.105469 6.339844 25 6.703125 C 24.894531 7.070313 25.003906 7.460938 25.28125 7.71875 L 27.5625 10 L 6.28125 31.28125 C 6.03125 31.535156 5.933594 31.90625 6.03125 32.25 L 7.78125 39.21875 L 1 46 L 1 50 L 9.78125 41.21875 L 16.75 42.96875 C 17.09375 43.066406 17.464844 42.96875 17.71875 42.71875 L 39 21.4375 L 41.28125 23.71875 C 41.679688 24.117188 42.320313 24.117188 42.71875 23.71875 C 43.117188 23.320313 43.117188 22.679688 42.71875 22.28125 L 39.84375 19.40625 C 39.761719 19.292969 39.652344 19.195313 39.53125 19.125 L 38.4375 18 L 46 10.4375 L 47.28125 11.71875 C 47.679688 12.117188 48.320313 12.117188 48.71875 11.71875 C 49.117188 11.320313 49.117188 10.679688 48.71875 10.28125 L 38.71875 0.28125 C 38.511719 0.0585938 38.210938 -0.0546875 37.90625 -0.03125 Z M 40 4.4375 L 44.5625 9 L 37 16.5625 L 32.4375 12 Z M 29 11.4375 L 37.5625 20 L 16.6875 40.875 L 9.8125 39.1875 L 8.125 32.3125 L 9.5 30.9375 C 9.53125 30.960938 9.5625 30.980469 9.59375 31 L 13.28125 34.71875 C 13.679688 35.117188 14.320313 35.117188 14.71875 34.71875 C 15.117188 34.320313 15.117188 33.679688 14.71875 33.28125 L 11 29.59375 C 10.980469 29.570313 10.960938 29.550781 10.9375 29.53125 L 13.5 26.9375 C 13.511719 26.9375 13.519531 26.9375 13.53125 26.9375 C 13.550781 26.960938 13.570313 26.980469 13.59375 27 L 15.28125 28.71875 C 15.679688 29.117188 16.320313 29.117188 16.71875 28.71875 C 17.117188 28.320313 17.117188 27.679688 16.71875 27.28125 L 15 25.59375 C 14.980469 25.570313 14.960938 25.550781 14.9375 25.53125 L 17.53125 22.9375 C 17.550781 22.960938 17.570313 22.980469 17.59375 23 L 21.28125 26.71875 C 21.679688 27.117188 22.320313 27.117188 22.71875 26.71875 C 23.117188 26.320313 23.117188 25.679688 22.71875 25.28125 L 19 21.59375 C 18.980469 21.570313 18.960938 21.550781 18.9375 21.53125 L 21.53125 18.9375 C 21.550781 18.960938 21.570313 18.980469 21.59375 19 L 23.28125 20.71875 C 23.679688 21.117188 24.320313 21.117188 24.71875 20.71875 C 25.117188 20.320313 25.117188 19.679688 24.71875 19.28125 L 23 17.59375 C 22.980469 17.570313 22.960938 17.550781 22.9375 17.53125 L 25.53125 14.9375 C 25.550781 14.960938 25.570313 14.980469 25.59375 15 L 29.28125 18.71875 C 29.679688 19.117188 30.320313 19.117188 30.71875 18.71875 C 31.117188 18.320313 31.117188 17.679688 30.71875 17.28125 L 27 13.59375 C 26.980469 13.570313 26.960938 13.550781 26.9375 13.53125 Z"/></svg>