<svg xmlns="http://www.w3.org/2000/svg"  viewBox="0 0 50 50" width="1000px" height="1000px"><path d="M 25 5 C 23.066406 5 21.222656 5.691406 19.75 6.9375 C 19.023438 7.582031 18.042969 8 17 8 C 13.6875 8 10.847656 10.058594 9.59375 12.90625 C 9.316406 13.53125 8.726563 14.003906 8.1875 14.125 C 8.175781 14.125 8.167969 14.125 8.15625 14.125 C 4.335938 15.023438 2 18.296875 2 22 C 2 22.375 2.003906 22.886719 2.125 23.4375 C 2.132813 23.472656 2.117188 23.496094 2.125 23.53125 C 2.269531 24.59375 2.101563 25.570313 1.53125 26.28125 C 1.519531 26.292969 1.511719 26.300781 1.5 26.3125 C 0.246094 28.019531 -0.324219 30.234375 0.125 32.59375 C 0.125 32.605469 0.125 32.613281 0.125 32.625 C 0.4375 33.976563 1.09375 35.261719 2 36.28125 L 2 40 C 2 42.210938 3.789063 44 6 44 L 44 44 C 46.210938 44 48 42.210938 48 40 L 48 36.28125 C 49.195313 34.863281 50 33.03125 50 31 C 50 29.191406 49.421875 27.542969 48.40625 26.1875 C 48.394531 26.1875 48.386719 26.1875 48.375 26.1875 C 47.789063 25.453125 47.628906 24.5 47.875 23.4375 L 47.84375 23.4375 C 48.007813 22.871094 48 22.375 48 22 C 48 18.308594 45.65625 15.167969 42.0625 14.25 C 42.046875 14.246094 42.046875 14.222656 42.03125 14.21875 C 41.242188 13.992188 40.695313 13.542969 40.3125 12.8125 C 40.304688 12.792969 40.289063 12.769531 40.28125 12.75 C 39.019531 9.945313 36.265625 8 33 8 C 31.957031 8 30.976563 7.582031 30.25 6.9375 C 28.777344 5.691406 26.933594 5 25 5 Z M 25 7 C 26.449219 7 27.816406 7.5 28.9375 8.4375 C 28.949219 8.445313 28.957031 8.460938 28.96875 8.46875 C 30.039063 9.40625 31.460938 10 33 10 C 35.507813 10 37.546875 11.429688 38.5 13.59375 C 38.5 13.613281 38.5 13.636719 38.5 13.65625 C 39.105469 14.871094 40.167969 15.785156 41.53125 16.15625 C 41.542969 16.15625 41.550781 16.15625 41.5625 16.15625 C 44.34375 16.851563 46 19.105469 46 22 C 46 22.398438 45.933594 22.890625 45.9375 22.875 C 45.9375 22.90625 45.9375 22.9375 45.9375 22.96875 C 45.761719 23.734375 45.738281 24.519531 45.875 25.28125 C 42.226563 17.417969 34.261719 12 25 12 C 15.6875 12 7.683594 17.476563 4.0625 25.40625 C 4.214844 24.664063 4.207031 23.902344 4.09375 23.15625 C 4.085938 23.125 4.074219 23.09375 4.0625 23.0625 C 4.011719 22.851563 4 22.398438 4 22 C 4 19.105469 5.644531 16.761719 8.625 16.0625 C 9.886719 15.78125 10.882813 14.894531 11.40625 13.71875 C 11.40625 13.707031 11.40625 13.699219 11.40625 13.6875 C 12.351563 11.535156 14.515625 10 17 10 C 18.539063 10 19.960938 9.40625 21.03125 8.46875 C 21.042969 8.460938 21.050781 8.445313 21.0625 8.4375 C 22.183594 7.5 23.550781 7 25 7 Z M 25 14 C 36.664063 14 46 23.335938 46 35 L 46 35.65625 C 46 35.6875 46 35.71875 46 35.75 C 45.984375 35.855469 45.984375 35.957031 46 36.0625 L 46 40 C 46 41.191406 45.191406 42 44 42 L 6 42 C 4.808594 42 4 41.191406 4 40 L 4 36.0625 C 4.015625 35.957031 4.015625 35.855469 4 35.75 L 4 35 C 4 23.335938 13.335938 14 25 14 Z M 3.4375 27 C 2.804688 28.714844 2.367188 30.527344 2.15625 32.40625 C 2.136719 32.34375 2.109375 32.28125 2.09375 32.21875 C 1.746094 30.390625 2.160156 28.820313 3.09375 27.53125 C 3.097656 27.523438 3.089844 27.507813 3.09375 27.5 C 3.21875 27.34375 3.335938 27.167969 3.4375 27 Z M 15 27 C 13.894531 27 13 27.894531 13 29 C 13 30.105469 13.894531 31 15 31 C 16.105469 31 17 30.105469 17 29 C 17 27.894531 16.105469 27 15 27 Z M 46.59375 27.09375 C 46.664063 27.199219 46.734375 27.308594 46.8125 27.40625 C 46.816406 27.414063 46.808594 27.429688 46.8125 27.4375 C 47.585938 28.476563 48 29.617188 48 31 C 48 31.449219 47.945313 31.890625 47.84375 32.3125 C 47.632813 30.5 47.199219 28.75 46.59375 27.09375 Z M 10.09375 31.3125 C 8.988281 31.3125 8.09375 32.207031 8.09375 33.3125 C 8.09375 34.417969 8.988281 35.3125 10.09375 35.3125 C 11.199219 35.3125 12.09375 34.417969 12.09375 33.3125 C 12.09375 32.207031 11.199219 31.3125 10.09375 31.3125 Z M 16 34 C 14.894531 34 14 34.894531 14 36 C 14 37.105469 14.894531 38 16 38 C 17.105469 38 18 37.105469 18 36 C 18 34.894531 17.105469 34 16 34 Z"/></svg>