<?xml version="1.0"?><svg xmlns="http://www.w3.org/2000/svg"  viewBox="0 0 50 50" width="1000px" height="1000px">    <path d="M 24.984375 1.9863281 A 1.0001 1.0001 0 0 0 24 3 L 24 5.7207031 C 23.973952 5.7028981 23.956293 5.6857059 23.929688 5.6679688 C 22.662456 4.8231482 20.7 4 18 4 C 13.011343 4 8.1163573 7.3205562 7.0195312 12.804688 A 1.0001 1.0001 0 0 0 7.4453125 13.832031 C 7.4453125 13.832031 10.666667 16 15 16 C 18.738095 16 21.505576 14.64329 23.302734 12.984375 C 25.031341 11.388739 25.920283 9.6417577 25.986328 8.1757812 C 25.986417 8.1738066 25.988195 8.1718955 25.988281 8.1699219 A 1.0001 1.0001 0 0 0 26 8 L 26 3 A 1.0001 1.0001 0 0 0 24.984375 1.9863281 z M 18 6 C 20.3 6 21.837543 6.6768518 22.820312 7.3320312 C 23.60518 7.855276 23.77093 8.1416079 23.896484 8.3085938 C 23.779094 8.9641354 23.244551 10.318131 21.947266 11.515625 C 20.494424 12.85671 18.261905 14 15 14 C 12.026757 14 10.051288 12.969302 9.2539062 12.513672 C 10.426924 8.4493809 14.121885 6 18 6 z M 28 6.5917969 L 28 8.8242188 C 29.787 9.8642188 31 11.787 31 14 L 31 14.333984 C 31 14.742984 31.249906 15.111672 31.628906 15.263672 C 32.9627 15.795707 34.190145 16.480678 35.306641 17.28125 A 1 1 0 0 0 35 18 A 1 1 0 0 0 36 19 A 1 1 0 0 0 36.851562 18.523438 C 37.376465 19.003317 37.861651 19.515801 38.314453 20.052734 A 1 1 0 0 0 38 20 A 1 1 0 0 0 37 21 A 1 1 0 0 0 38 22 A 1 1 0 0 0 39 21 A 1 1 0 0 0 38.996094 20.919922 C 39.49255 21.597943 39.93414 22.309229 40.314453 23.052734 A 1 1 0 0 0 40 23 A 1 1 0 0 0 39 24 A 1 1 0 0 0 40 25 A 1 1 0 0 0 40.919922 24.390625 C 41.146314 24.960822 41.335418 25.54493 41.492188 26.140625 A 1 1 0 0 0 41 27 A 1 1 0 0 0 41.855469 27.990234 C 41.943844 28.651544 42 29.321117 42 30 C 42 30.68366 41.938469 31.352333 41.849609 32.013672 A 1 1 0 0 0 41 33 A 1 1 0 0 0 41.480469 33.853516 C 41.324234 34.444791 41.134266 35.022512 40.910156 35.585938 A 1 1 0 0 0 40 35 A 1 1 0 0 0 39 36 A 1 1 0 0 0 40 37 A 1 1 0 0 0 40.285156 36.957031 C 39.908089 37.68774 39.484327 38.392918 38.998047 39.056641 A 1 1 0 0 0 39 39 A 1 1 0 0 0 38 38 A 1 1 0 0 0 37 39 A 1 1 0 0 0 38 40 A 1 1 0 0 0 38.283203 39.958984 C 37.83509 40.487361 37.354183 40.988108 36.839844 41.458984 A 1 1 0 0 0 36 41 A 1 1 0 0 0 35 42 A 1 1 0 0 0 35.291016 42.705078 C 33.992624 43.63903 32.550975 44.397306 30.998047 44.951172 A 1 1 0 0 0 30 44 A 1 1 0 0 0 29 45 A 1 1 0 0 0 29.136719 45.5 C 28.231865 45.714161 27.303056 45.864505 26.347656 45.935547 A 1 1 0 0 0 27 45 A 1 1 0 0 0 26 44 A 1 1 0 0 0 25 45 A 1 1 0 0 0 25.740234 45.964844 C 25.493053 45.974932 25.249774 46 25 46 C 24.174492 46 23.3686 45.925913 22.574219 45.818359 A 1 1 0 0 0 23 45 A 1 1 0 0 0 22 44 A 1 1 0 0 0 21 45 A 1 1 0 0 0 21.183594 45.578125 C 20.43341 45.415284 19.704947 45.202318 18.996094 44.949219 A 1 1 0 0 0 18 44 A 1 1 0 0 0 17.330078 44.259766 C 11.803655 41.615348 8 36.223293 8 30 C 8 25.29 10.185266 20.934219 13.822266 17.949219 C 12.911266 17.879219 12.058344 17.736828 11.277344 17.548828 C 7.9543438 20.832828 6 25.254 6 30 C 6 39.925 14.523 48 25 48 C 35.477 48 44 39.925 44 30 C 44 22.953 39.702188 16.611016 32.992188 13.666016 C 32.860187 10.460016 30.829 7.7427969 28 6.5917969 z M 34 20 A 1 1 0 0 0 33 21 A 1 1 0 0 0 34 22 A 1 1 0 0 0 35 21 A 1 1 0 0 0 34 20 z M 36 23 A 1 1 0 0 0 35 24 A 1 1 0 0 0 36 25 A 1 1 0 0 0 37 24 A 1 1 0 0 0 36 23 z M 34 26 A 1 1 0 0 0 33 27 A 1 1 0 0 0 34 28 A 1 1 0 0 0 35 27 A 1 1 0 0 0 34 26 z M 38 26 A 1 1 0 0 0 37 27 A 1 1 0 0 0 38 28 A 1 1 0 0 0 39 27 A 1 1 0 0 0 38 26 z M 36 29 A 1 1 0 0 0 35 30 A 1 1 0 0 0 36 31 A 1 1 0 0 0 37 30 A 1 1 0 0 0 36 29 z M 40 29 A 1 1 0 0 0 39 30 A 1 1 0 0 0 40 31 A 1 1 0 0 0 41 30 A 1 1 0 0 0 40 29 z M 34 32 A 1 1 0 0 0 33 33 A 1 1 0 0 0 34 34 A 1 1 0 0 0 35 33 A 1 1 0 0 0 34 32 z M 38 32 A 1 1 0 0 0 37 33 A 1 1 0 0 0 38 34 A 1 1 0 0 0 39 33 A 1 1 0 0 0 38 32 z M 32 35 A 1 1 0 0 0 31 36 A 1 1 0 0 0 32 37 A 1 1 0 0 0 33 36 A 1 1 0 0 0 32 35 z M 36 35 A 1 1 0 0 0 35 36 A 1 1 0 0 0 36 37 A 1 1 0 0 0 37 36 A 1 1 0 0 0 36 35 z M 26 38 A 1 1 0 0 0 25 39 A 1 1 0 0 0 26 40 A 1 1 0 0 0 27 39 A 1 1 0 0 0 26 38 z M 30 38 A 1 1 0 0 0 29 39 A 1 1 0 0 0 30 40 A 1 1 0 0 0 31 39 A 1 1 0 0 0 30 38 z M 34 38 A 1 1 0 0 0 33 39 A 1 1 0 0 0 34 40 A 1 1 0 0 0 35 39 A 1 1 0 0 0 34 38 z M 20 41 A 1 1 0 0 0 19 42 A 1 1 0 0 0 20 43 A 1 1 0 0 0 21 42 A 1 1 0 0 0 20 41 z M 24 41 A 1 1 0 0 0 23 42 A 1 1 0 0 0 24 43 A 1 1 0 0 0 25 42 A 1 1 0 0 0 24 41 z M 28 41 A 1 1 0 0 0 27 42 A 1 1 0 0 0 28 43 A 1 1 0 0 0 29 42 A 1 1 0 0 0 28 41 z M 32 41 A 1 1 0 0 0 31 42 A 1 1 0 0 0 32 43 A 1 1 0 0 0 33 42 A 1 1 0 0 0 32 41 z"/></svg>