<svg xmlns="http://www.w3.org/2000/svg"  viewBox="0 0 50 50" width="1000px" height="1000px"><path d="M 20 8 C 14.925781 8 10.324219 8.796875 6.90625 10.125 C 5.199219 10.789063 3.792969 11.570313 2.75 12.53125 C 1.707031 13.492188 1 14.6875 1 16 C 1 17.3125 1.707031 18.507813 2.75 19.46875 C 3.597656 20.25 4.703125 20.890625 6 21.46875 L 6 28.5 C 5.957031 28.519531 5.914063 28.539063 5.875 28.5625 C 4.460938 29.207031 3.265625 29.953125 2.40625 30.84375 C 1.546875 31.734375 1 32.824219 1 34 C 1 35.3125 1.707031 36.507813 2.75 37.46875 C 3.792969 38.429688 5.199219 39.210938 6.90625 39.875 C 10.324219 41.203125 14.925781 42 20 42 C 25.074219 42 29.675781 41.203125 33.09375 39.875 C 34.800781 39.210938 36.207031 38.429688 37.25 37.46875 C 38.128906 36.660156 38.757813 35.695313 38.9375 34.625 C 40.339844 35.632813 41.644531 36.804688 42.78125 38 C 45.453125 40.816406 47.15625 43.53125 47.15625 43.53125 C 47.394531 43.90625 47.851563 44.078125 48.277344 43.957031 C 48.703125 43.832031 48.996094 43.445313 49 43 L 49 25.78125 C 49.007813 25.71875 49.007813 25.65625 49 25.59375 C 49 25.59375 48.679688 23.757813 47.15625 21.78125 C 45.71875 19.917969 43.128906 17.890625 38.875 16.90625 C 38.949219 16.613281 39 16.308594 39 16 C 39 14.6875 38.292969 13.492188 37.25 12.53125 C 36.207031 11.570313 34.800781 10.789063 33.09375 10.125 C 29.675781 8.796875 25.074219 8 20 8 Z M 20 10 C 24.863281 10 29.277344 10.765625 32.375 11.96875 C 33.925781 12.570313 35.128906 13.285156 35.90625 14 C 36.683594 14.714844 37 15.382813 37 16 C 37 16.617188 36.683594 17.285156 35.90625 18 C 35.128906 18.714844 33.925781 19.429688 32.375 20.03125 C 29.277344 21.234375 24.863281 22 20 22 C 15.136719 22 10.722656 21.234375 7.625 20.03125 C 6.074219 19.429688 4.871094 18.714844 4.09375 18 C 3.316406 17.285156 3 16.617188 3 16 C 3 15.382813 3.316406 14.714844 4.09375 14 C 4.871094 13.285156 6.074219 12.570313 7.625 11.96875 C 10.722656 10.765625 15.136719 10 20 10 Z M 20 12 C 17.96875 12 16.136719 12.273438 14.71875 12.78125 C 14.007813 13.035156 13.398438 13.335938 12.90625 13.75 C 12.414063 14.164063 12 14.777344 12 15.5 C 12 16.222656 12.414063 16.835938 12.90625 17.25 C 13.398438 17.664063 14.007813 17.964844 14.71875 18.21875 C 16.136719 18.726563 17.96875 19 20 19 C 22.03125 19 23.863281 18.726563 25.28125 18.21875 C 25.992188 17.964844 26.601563 17.664063 27.09375 17.25 C 27.585938 16.835938 28 16.222656 28 15.5 C 28 14.777344 27.585938 14.164063 27.09375 13.75 C 26.601563 13.335938 25.992188 13.035156 25.28125 12.78125 C 23.863281 12.273438 22.03125 12 20 12 Z M 20 14 C 21.835938 14 23.511719 14.289063 24.625 14.6875 C 25.183594 14.886719 25.59375 15.097656 25.8125 15.28125 C 26.03125 15.464844 26 15.53125 26 15.5 C 26 15.46875 26.03125 15.535156 25.8125 15.71875 C 25.59375 15.902344 25.183594 16.113281 24.625 16.3125 C 23.511719 16.710938 21.835938 17 20 17 C 18.164063 17 16.488281 16.710938 15.375 16.3125 C 14.816406 16.113281 14.40625 15.902344 14.1875 15.71875 C 13.96875 15.535156 14 15.46875 14 15.5 C 14 15.53125 13.96875 15.464844 14.1875 15.28125 C 14.40625 15.097656 14.816406 14.886719 15.375 14.6875 C 16.488281 14.289063 18.164063 14 20 14 Z M 37.96875 18.71875 C 42.113281 19.5625 44.332031 21.40625 45.5625 23 C 46.8125 24.621094 47 25.9375 47 25.9375 L 47 39.9375 C 46.242188 38.941406 45.378906 37.847656 44.21875 36.625 C 41.59375 33.855469 38.050781 30.925781 34 30.15625 L 34 21.46875 C 35.296875 20.890625 36.402344 20.25 37.25 19.46875 C 37.511719 19.230469 37.753906 18.984375 37.96875 18.71875 Z M 8 22.25 C 11.28125 23.34375 15.441406 24 20 24 C 24.558594 24 28.71875 23.34375 32 22.25 L 32 30.84375 C 31.988281 30.9375 31.988281 31.03125 32 31.125 L 32 31.34375 C 32 31.605469 31.863281 31.964844 31.34375 32.40625 C 30.824219 32.847656 29.945313 33.292969 28.84375 33.6875 C 26.640625 34.472656 23.492188 35 20 35 C 16.507813 35 13.359375 34.472656 11.15625 33.6875 C 10.054688 33.292969 9.175781 32.847656 8.65625 32.40625 C 8.136719 31.964844 8 31.605469 8 31.34375 Z M 6 30.71875 L 6 31.34375 C 6 32.363281 6.578125 33.265625 7.375 33.9375 C 8.171875 34.609375 9.214844 35.144531 10.46875 35.59375 C 12.972656 36.488281 16.316406 37 20 37 C 23.683594 37 27.027344 36.488281 29.53125 35.59375 C 30.785156 35.144531 31.828125 34.609375 32.625 33.9375 C 33.203125 33.449219 33.664063 32.84375 33.875 32.15625 C 34.925781 32.386719 35.953125 32.824219 36.96875 33.375 C 36.945313 33.5 36.945313 33.625 36.96875 33.75 C 36.980469 33.835938 37 33.917969 37 34 C 37 34.617188 36.683594 35.285156 35.90625 36 C 35.128906 36.714844 33.925781 37.429688 32.375 38.03125 C 29.277344 39.234375 24.863281 40 20 40 C 15.136719 40 10.722656 39.234375 7.625 38.03125 C 6.074219 37.429688 4.871094 36.714844 4.09375 36 C 3.316406 35.285156 3 34.617188 3 34 C 3 33.445313 3.230469 32.886719 3.84375 32.25 C 4.335938 31.738281 5.082031 31.207031 6 30.71875 Z"/></svg>