<svg xmlns="http://www.w3.org/2000/svg"  viewBox="0 0 50 50" width="1000px" height="1000px"><path d="M 12 4 C 10.904545 4 10 4.9045455 10 6 C 8.9045455 6 8 6.9045455 8 8 L 8 11 A 1.0001 1.0001 0 1 0 8 13 L 8 44 A 1.0001 1.0001 0 1 0 8 46 L 42 46 A 1.0001 1.0001 0 1 0 42 44 L 42 13 A 1.0001 1.0001 0 1 0 42 11 L 42 8 C 42 6.9045455 41.095455 6 40 6 C 40 4.9045455 39.095455 4 38 4 L 12 4 z M 12 6 L 38 6 L 38 7 A 1.0001 1.0001 0 0 0 39 8 L 40 8 L 40 11 L 10 11 L 10 8 L 11 8 A 1.0001 1.0001 0 0 0 12 7 L 12 6 z M 10 13 L 40 13 L 40 44 L 10 44 L 10 13 z M 24.021484 18.013672 A 1.0001 1.0001 0 0 0 23.505859 18.183594 C 23.505859 18.183594 21.966407 19.216714 20.306641 20.853516 C 18.646874 22.490317 16.797914 24.741104 16.230469 27.410156 C 15.666224 30.064155 16.391427 32.808326 17.201172 34.910156 C 17.885157 36.685557 18.552683 37.825104 18.779297 38.201172 A 1.0001 1.0001 0 0 0 19.992188 38.990234 C 20.524513 38.983177 26.594845 38.830356 30.083984 35.099609 C 31.744275 33.324958 32.633615 30.61324 33.208984 28.316406 C 33.784354 26.019573 33.994141 24.109375 33.994141 24.109375 A 1.0001 1.0001 0 0 0 32.980469 23 A 1.0001 1.0001 0 0 0 32.902344 23.003906 C 32.902344 23.003906 31.002583 23.190297 28.697266 23.822266 C 28.199398 23.958749 27.675255 24.126343 27.148438 24.306641 C 26.398764 21.098454 24.935547 18.521484 24.935547 18.521484 A 1.0001 1.0001 0 0 0 24.021484 18.013672 z M 23.712891 20.603516 C 24.176438 21.555509 24.839402 23.098983 25.253906 25.060547 C 23.977632 25.659407 22.755148 26.435063 21.791016 27.46875 C 20.05077 29.334541 19.299109 31.813909 18.974609 33.912109 C 18.286977 32.042051 17.777325 29.746295 18.185547 27.826172 C 18.610102 25.829224 20.190704 23.776542 21.710938 22.277344 C 22.75666 21.246089 23.200079 20.9803 23.712891 20.603516 z M 31.75 25.259766 C 31.649 25.957845 31.62178 26.423926 31.269531 27.830078 C 30.72965 29.985245 29.793756 32.483027 28.623047 33.734375 C 26.908272 35.567889 24.272908 36.306531 22.429688 36.623047 L 26.951172 31.775391 A 1.0001 1.0001 0 0 0 26.166016 30.083984 A 1.0001 1.0001 0 0 0 25.488281 30.410156 L 20.894531 35.337891 C 21.028791 33.464171 21.515679 30.695658 23.253906 28.832031 C 24.6209 27.366419 27.09338 26.336734 29.226562 25.751953 C 30.617059 25.370769 31.067018 25.356884 31.75 25.259766 z"/></svg>