<svg fill="#000000" xmlns="http://www.w3.org/2000/svg"  viewBox="0 0 50 50" width="1000px" height="1000px"><path d="M 27.90625 -0.03125 C 27.863281 -0.0234375 27.820313 -0.0117188 27.78125 0 C 27.316406 0.105469 26.988281 0.523438 27 1 C 27 4.054688 25.835938 4.976563 24.34375 6.3125 C 22.851563 7.648438 21.03125 9.410156 21.03125 13 C 21.027344 13.359375 21.214844 13.695313 21.527344 13.878906 C 21.839844 14.058594 22.222656 14.058594 22.535156 13.878906 C 22.847656 13.695313 23.035156 13.359375 23.03125 13 C 23.03125 10.015625 24.1875 9.125 25.6875 7.78125 C 27.1875 6.4375 29 4.648438 29 1 C 29.011719 0.710938 28.894531 0.433594 28.6875 0.238281 C 28.476563 0.0390625 28.191406 -0.0585938 27.90625 -0.03125 Z M 31.90625 4.96875 C 31.863281 4.976563 31.820313 4.988281 31.78125 5 C 31.316406 5.105469 30.988281 5.523438 31 6 C 31 7.953125 30.339844 8.425781 29.34375 9.3125 C 28.347656 10.199219 27 11.511719 27 14 C 26.996094 14.359375 27.183594 14.695313 27.496094 14.878906 C 27.808594 15.058594 28.191406 15.058594 28.503906 14.878906 C 28.816406 14.695313 29.003906 14.359375 29 14 C 29 12.125 29.648438 11.707031 30.65625 10.8125 C 31.664063 9.917969 33 8.546875 33 6 C 33.011719 5.710938 32.894531 5.433594 32.6875 5.238281 C 32.476563 5.039063 32.191406 4.941406 31.90625 4.96875 Z M 11.8125 17 C 11.335938 17.089844 10.992188 17.511719 11 18 C 11 25.488281 11.917969 32.53125 13.5625 38.15625 C 15.207031 43.78125 17.515625 48.058594 20.6875 49.875 C 20.839844 49.960938 21.011719 50.003906 21.1875 50 L 30.9375 49.9375 C 31.113281 49.929688 31.289063 49.875 31.4375 49.78125 C 34.503906 47.992188 36.628906 43.570313 38.21875 38.09375 C 39.050781 36.667969 41.105469 35.878906 43.3125 34.71875 C 44.464844 34.113281 45.632813 33.382813 46.53125 32.25 C 47.429688 31.117188 48 29.597656 48 27.65625 C 48 26.21875 47.492188 24.996094 46.65625 24.1875 C 45.820313 23.378906 44.710938 23 43.59375 23 C 42.433594 23 41.496094 23.363281 40.75 23.84375 C 40.910156 21.863281 41 19.894531 41 18 C 41 17.449219 40.550781 17 40 17 L 12 17 C 11.96875 17 11.9375 17 11.90625 17 C 11.875 17 11.84375 17 11.8125 17 Z M 13.0625 19 L 24.875 19 C 25.082031 19.609375 25.429688 20.957031 25.71875 22.5 C 25.992188 23.953125 26.175781 25.429688 26.28125 26.625 L 24.4375 26.84375 C 23.105469 27 22.128906 28.222656 22.28125 29.5625 L 22.96875 35.34375 C 23.121094 36.675781 24.351563 37.65625 25.6875 37.5 L 31.4375 36.84375 C 32.773438 36.691406 33.746094 35.460938 33.59375 34.125 L 32.9375 28.34375 C 32.785156 27.007813 31.550781 26.035156 30.21875 26.1875 L 28.28125 26.40625 C 28.164063 25.121094 27.960938 23.585938 27.6875 22.125 C 27.460938 20.929688 27.246094 19.863281 27 19 L 38.9375 19 C 38.847656 24.828125 38.007813 31.265625 36.53125 36.65625 C 36.460938 36.914063 36.386719 37.152344 36.3125 37.40625 C 36.207031 37.574219 36.152344 37.769531 36.15625 37.96875 C 34.640625 42.902344 32.53125 46.679688 30.5625 47.9375 L 21.5 48 C 19.25 46.601563 17.039063 42.859375 15.5 37.59375 C 14 32.460938 13.144531 25.933594 13.0625 19 Z M 43.59375 25 C 44.25 25 44.820313 25.210938 45.25 25.625 C 45.679688 26.039063 46 26.671875 46 27.65625 C 46 29.222656 45.597656 30.203125 44.96875 31 C 44.339844 31.796875 43.421875 32.417969 42.375 32.96875 C 41.347656 33.511719 40.175781 33.988281 39.09375 34.625 C 39.660156 32.152344 40.121094 29.53125 40.4375 26.90625 C 40.535156 26.734375 41.570313 25 43.59375 25 Z M 30.4375 28.1875 C 30.699219 28.15625 30.910156 28.3125 30.9375 28.5625 L 31.625 34.34375 C 31.65625 34.601563 31.46875 34.816406 31.21875 34.84375 L 25.4375 35.5 C 25.179688 35.53125 24.964844 35.378906 24.9375 35.125 L 24.28125 29.34375 C 24.25 29.085938 24.433594 28.875 24.6875 28.84375 Z"/></svg>