<svg fill="#000000" xmlns="http://www.w3.org/2000/svg"  viewBox="0 0 50 50" width="1000px" height="1000px"><path d="M 17 3 A 1.0001 1.0001 0 0 0 16 4 L 16 7.6972656 L 12.167969 13.445312 A 1.0001 1.0001 0 0 0 12.166016 13.447266 A 1.0001 1.0001 0 0 0 12.130859 13.505859 A 1.0001 1.0001 0 0 0 12.111328 13.542969 A 1.0001 1.0001 0 0 0 12.105469 13.558594 A 1.0001 1.0001 0 0 0 12.037109 13.732422 A 1.0001 1.0001 0 0 0 12.033203 13.748047 A 1.0001 1.0001 0 0 0 12.017578 13.816406 A 1.0001 1.0001 0 0 0 12.003906 13.90625 A 1.0001 1.0001 0 0 0 12.003906 13.914062 A 1.0001 1.0001 0 0 0 12 14 A 1.0001 1.0001 0 0 0 12 14.011719 L 12 46 A 1.0001 1.0001 0 0 0 13 47 L 30 47 L 36 47 A 1.0001 1.0001 0 0 0 37 46 L 37 14 A 1.0001 1.0001 0 0 0 36.894531 13.552734 L 34 7.765625 L 34 4 A 1.0001 1.0001 0 0 0 33 3 L 17 3 z M 18 5 L 32 5 L 32 7 L 18 7 L 18 5 z M 17.535156 9 L 31.382812 9 L 29.382812 13 L 14.869141 13 L 17.535156 9 z M 33 10.236328 L 35 14.236328 L 35 45 L 31 45 L 31 14.236328 L 33 10.236328 z M 14 15 L 29 15 L 29 45 L 14 45 L 14 15 z"/></svg>