<svg xmlns="http://www.w3.org/2000/svg"  viewBox="0 0 50 50" width="1000px" height="1000px"><path d="M 33 0.0625 C 32.28125 0.0625 31.582031 0.367188 31.03125 0.90625 L 31 0.875 L 25.09375 6.71875 C 24.933594 6.816406 24.804688 6.957031 24.71875 7.125 L 0.78125 30.875 C 0.78125 30.886719 0.78125 30.894531 0.78125 30.90625 C -0.324219 32.011719 -0.324219 33.800781 0.78125 34.90625 L 3.90625 38 C 4.257813 38.355469 4.820313 38.394531 5.21875 38.09375 C 6.078125 37.40625 7.199219 36.90625 8.3125 36.90625 C 10.972656 36.90625 13 39.03125 13 41.59375 C 13 42.753906 12.578125 43.808594 11.84375 44.625 C 11.496094 45.027344 11.523438 45.632813 11.90625 46 L 15 49.09375 C 16.105469 50.199219 17.894531 50.199219 19 49.09375 L 42.65625 25.4375 L 42.6875 25.4375 C 43.070313 25.347656 43.363281 25.042969 43.4375 24.65625 C 43.4375 24.644531 43.4375 24.636719 43.4375 24.625 L 49 19.09375 C 49.039063 19.066406 49.058594 19.03125 49.09375 19 C 50.296875 17.992188 50.292969 16.167969 49.21875 15.09375 L 46.09375 12 C 45.742188 11.644531 45.179688 11.605469 44.78125 11.90625 C 43.925781 12.589844 42.972656 13 41.8125 13 C 39.152344 13 37.09375 10.875 37.09375 8.3125 C 37.09375 7.152344 37.503906 6.167969 38.1875 5.3125 C 38.488281 4.914063 38.449219 4.351563 38.09375 4 L 35 0.90625 C 34.449219 0.355469 33.726563 0.0625 33 0.0625 Z M 33 2.09375 C 33.222656 2.09375 33.445313 2.164063 33.59375 2.3125 L 36.15625 4.875 C 35.546875 5.875 35.09375 7.019531 35.09375 8.3125 C 35.09375 11.949219 38.070313 15 41.8125 15 C 43.109375 15 44.21875 14.546875 45.21875 13.9375 L 47.78125 16.5 C 48.078125 16.796875 48.101563 17.285156 47.8125 17.5 C 47.769531 17.527344 47.726563 17.558594 47.6875 17.59375 L 42.34375 22.9375 C 42.140625 22.753906 41.867188 22.664063 41.59375 22.6875 C 41.21875 22.722656 40.898438 22.964844 40.757813 23.316406 C 40.621094 23.664063 40.6875 24.0625 40.9375 24.34375 L 17.59375 47.6875 C 17.296875 47.984375 16.703125 47.984375 16.40625 47.6875 L 13.84375 45.125 C 14.523438 44.078125 15 42.890625 15 41.59375 C 15 37.957031 12.054688 34.90625 8.3125 34.90625 C 6.972656 34.90625 5.796875 35.421875 4.78125 36.0625 L 2.21875 33.5 C 1.921875 33.203125 1.921875 32.609375 2.21875 32.3125 L 25.625 9.03125 C 26.011719 9.429688 26.648438 9.433594 27.046875 9.046875 C 27.445313 8.660156 27.449219 8.023438 27.0625 7.625 L 32.40625 2.3125 C 32.554688 2.164063 32.777344 2.09375 33 2.09375 Z M 28.96875 10.125 L 28.21875 10.625 L 28.1875 11.53125 L 28.40625 11.8125 L 29.78125 13.21875 L 30.65625 13.5 L 31.375 12.96875 L 31.40625 12.09375 L 31.21875 11.78125 L 29.8125 10.40625 Z M 33.15625 14.3125 L 32.4375 14.84375 L 32.40625 15.71875 L 32.59375 16.03125 L 34 17.4375 L 34.84375 17.71875 L 35.59375 17.1875 L 35.625 16.3125 L 35.4375 16 L 34.03125 14.59375 Z M 37.375 18.53125 L 36.65625 19.03125 L 36.625 19.9375 L 36.8125 20.21875 L 38.21875 21.625 L 39.0625 21.90625 L 39.8125 21.40625 L 39.84375 20.5 L 39.625 20.21875 L 38.21875 18.8125 Z"/></svg>