<svg xmlns="http://www.w3.org/2000/svg"  viewBox="0 0 50 50" width="1000px" height="1000px"><path d="M 25 0 C 20.976563 0 17.292969 1.03125 14.5625 2.78125 C 11.832031 4.53125 10 7.078125 10 10 C 10 11.308594 10.363281 12.613281 11.09375 13.78125 C 9.226563 15.195313 8 16.953125 8 19 L 8 41 C 8 43.746094 10.167969 45.992188 13.25 47.53125 C 16.332031 49.070313 20.464844 50 25 50 C 29.535156 50 33.667969 49.070313 36.75 47.53125 C 39.832031 45.992188 42 43.746094 42 41 L 42 19 C 42 16.9375 40.761719 15.167969 38.875 13.75 C 39.554688 12.617188 40 11.339844 40 10 C 40 7.078125 38.167969 4.53125 35.4375 2.78125 C 32.707031 1.03125 29.023438 0 25 0 Z M 25 2 C 28.675781 2 32 2.96875 34.34375 4.46875 C 36.6875 5.96875 38 7.921875 38 10 C 38 10.976563 37.578125 12.03125 36.9375 13 L 35.59375 13 C 35.867188 12.363281 36 11.679688 36 11 C 36 8.894531 34.566406 7.109375 32.5625 5.90625 C 30.558594 4.703125 27.914063 4 25 4 C 22.085938 4 19.441406 4.703125 17.4375 5.90625 C 15.433594 7.109375 14 8.894531 14 11 C 14 11.714844 14.179688 12.378906 14.46875 13 L 13.03125 13 C 12.359375 12.058594 12 11.03125 12 10 C 12 7.921875 13.3125 5.96875 15.65625 4.46875 C 18 2.96875 21.324219 2 25 2 Z M 25 6 C 27.585938 6 29.941406 6.652344 31.5625 7.625 C 33.183594 8.597656 34 9.804688 34 11 C 34 11.746094 33.792969 12.363281 33.25 13 L 16.78125 13 C 16.273438 12.335938 16 11.679688 16 11 C 16 9.804688 16.816406 8.597656 18.4375 7.625 C 20.058594 6.652344 22.414063 6 25 6 Z M 12.84375 15 L 16.03125 15 C 16.253906 15.082031 16.496094 15.082031 16.71875 15 L 37.15625 15 C 39.035156 16.253906 40 17.613281 40 19 C 40 20.65625 38.5625 22.390625 35.84375 23.75 C 33.125 25.109375 29.261719 26 25 26 C 20.738281 26 16.875 25.109375 14.15625 23.75 C 11.4375 22.390625 10 20.65625 10 19 C 10 17.613281 10.964844 16.253906 12.84375 15 Z M 10 23.25 C 10.875 24.117188 11.972656 24.890625 13.25 25.53125 C 16.332031 27.070313 20.464844 28 25 28 C 29.535156 28 33.667969 27.070313 36.75 25.53125 C 38.027344 24.890625 39.125 24.117188 40 23.25 L 40 25 C 40 25.429688 39.710938 26.050781 38.96875 26.75 C 38.226563 27.449219 37.070313 28.175781 35.65625 28.8125 C 32.828125 30.082031 28.949219 31 25 31 C 21.050781 31 17.171875 30.082031 14.34375 28.8125 C 12.929688 28.175781 11.773438 27.449219 11.03125 26.75 C 10.289063 26.050781 10 25.429688 10 25 Z M 10 28.5 C 10.933594 29.300781 12.109375 30.03125 13.5 30.65625 C 16.625 32.058594 20.75 33 25 33 C 29.25 33 33.375 32.058594 36.5 30.65625 C 37.890625 30.03125 39.066406 29.300781 40 28.5 L 40 34.59375 C 40 36.382813 38.875 38.464844 36.40625 40.125 C 33.9375 41.785156 30.144531 43 25 43 C 19.855469 43 16.0625 41.785156 13.59375 40.125 C 11.125 38.464844 10 36.382813 10 34.59375 Z M 10 39.59375 C 10.667969 40.386719 11.492188 41.125 12.46875 41.78125 C 15.347656 43.71875 19.542969 45 25 45 C 30.457031 45 34.652344 43.71875 37.53125 41.78125 C 38.507813 41.125 39.332031 40.386719 40 39.59375 L 40 41 C 40 42.65625 38.5625 44.390625 35.84375 45.75 C 33.125 47.109375 29.261719 48 25 48 C 20.738281 48 16.875 47.109375 14.15625 45.75 C 11.4375 44.390625 10 42.65625 10 41 Z"/></svg>