<svg xmlns="http://www.w3.org/2000/svg"  viewBox="0 0 50 50" width="1000px" height="1000px"><path d="M 20.875 2 C 20.652344 2.023438 20.441406 2.125 20.28125 2.28125 C 19.652344 2.910156 19.367188 3.773438 19.46875 4.46875 C 19.570313 5.164063 19.917969 5.644531 20.15625 6.03125 C 20.394531 6.417969 20.511719 6.6875 20.53125 6.8125 C 20.550781 6.9375 20.601563 6.960938 20.28125 7.28125 C 19.882813 7.679688 19.882813 8.320313 20.28125 8.71875 C 20.679688 9.117188 21.320313 9.117188 21.71875 8.71875 C 22.347656 8.089844 22.632813 7.226563 22.53125 6.53125 C 22.429688 5.835938 22.082031 5.355469 21.84375 4.96875 C 21.605469 4.582031 21.488281 4.3125 21.46875 4.1875 C 21.449219 4.0625 21.398438 4.039063 21.71875 3.71875 C 22.042969 3.417969 22.128906 2.941406 21.933594 2.546875 C 21.742188 2.148438 21.308594 1.929688 20.875 2 Z M 25.875 2 C 25.652344 2.023438 25.441406 2.125 25.28125 2.28125 C 24.652344 2.910156 24.367188 3.773438 24.46875 4.46875 C 24.570313 5.164063 24.917969 5.644531 25.15625 6.03125 C 25.394531 6.417969 25.511719 6.6875 25.53125 6.8125 C 25.550781 6.9375 25.601563 6.960938 25.28125 7.28125 C 24.882813 7.679688 24.882813 8.320313 25.28125 8.71875 C 25.679688 9.117188 26.320313 9.117188 26.71875 8.71875 C 27.347656 8.089844 27.632813 7.226563 27.53125 6.53125 C 27.429688 5.835938 27.082031 5.355469 26.84375 4.96875 C 26.605469 4.582031 26.488281 4.3125 26.46875 4.1875 C 26.449219 4.0625 26.398438 4.039063 26.71875 3.71875 C 27.042969 3.417969 27.128906 2.941406 26.933594 2.546875 C 26.742188 2.148438 26.308594 1.929688 25.875 2 Z M 30.875 2 C 30.652344 2.023438 30.441406 2.125 30.28125 2.28125 C 29.652344 2.910156 29.367188 3.773438 29.46875 4.46875 C 29.570313 5.164063 29.917969 5.644531 30.15625 6.03125 C 30.394531 6.417969 30.511719 6.6875 30.53125 6.8125 C 30.550781 6.9375 30.601563 6.960938 30.28125 7.28125 C 29.882813 7.679688 29.882813 8.320313 30.28125 8.71875 C 30.679688 9.117188 31.320313 9.117188 31.71875 8.71875 C 32.347656 8.089844 32.632813 7.226563 32.53125 6.53125 C 32.429688 5.835938 32.082031 5.355469 31.84375 4.96875 C 31.605469 4.582031 31.488281 4.3125 31.46875 4.1875 C 31.449219 4.0625 31.398438 4.039063 31.71875 3.71875 C 32.042969 3.417969 32.128906 2.941406 31.933594 2.546875 C 31.742188 2.148438 31.308594 1.929688 30.875 2 Z M 23 10 C 18.394531 10 15.566406 10.367188 13.75 11 C 12.84375 11.316406 12.164063 11.695313 11.6875 12.21875 C 11.210938 12.742188 11 13.414063 11 14 C 11 15.269531 11.601563 15.980469 12 16.375 L 12 20.0625 C 7.523438 20.570313 4 24.394531 4 29 L 4 43 C 4 43.550781 4.449219 44 5 44 L 6.28125 44 L 7.0625 46.3125 C 7.195313 46.71875 7.574219 46.996094 8 47 L 11 47 C 11.425781 46.996094 11.804688 46.71875 11.9375 46.3125 L 12.71875 44 L 37.28125 44 L 38.0625 46.3125 C 38.195313 46.71875 38.574219 46.996094 39 47 L 42 47 C 42.425781 46.996094 42.804688 46.71875 42.9375 46.3125 L 43.71875 44 L 45 44 C 45.550781 44 46 43.550781 46 43 L 46 34 L 49 34 C 49.550781 34 50 33.550781 50 33 L 50 32 C 50 30.355469 48.644531 29 47 29 L 46 29 C 46 25.109375 43.480469 21.777344 40 20.53125 L 40 16.375 C 40.421875 15.960938 41 15.261719 41 14 C 41 13.421875 40.753906 12.761719 40.28125 12.25 C 39.808594 11.738281 39.15625 11.355469 38.25 11.03125 C 36.4375 10.382813 33.609375 10 29 10 C 28.398438 10 27.804688 9.992188 27.25 10 C 26.851563 10.007813 26.488281 10.03125 26.125 10.0625 C 25.183594 10.015625 24.152344 10 23 10 Z M 23 12 C 24.078125 12 25.03125 12.019531 25.90625 12.0625 L 25.90625 12.09375 C 25.988281 12.085938 26.101563 12.070313 26.1875 12.0625 C 28.796875 12.203125 30.527344 12.535156 31.5625 12.90625 C 32.269531 13.15625 32.644531 13.441406 32.8125 13.625 C 32.980469 13.808594 33 13.875 33 14 C 33 14.789063 32.4375 15.1875 32.4375 15.1875 L 32 15.46875 L 32 20 L 14 20 L 14 15.53125 L 13.625 15.21875 C 13.625 15.21875 13 14.644531 13 14 C 13 13.835938 13.023438 13.742188 13.1875 13.5625 C 13.351563 13.382813 13.703125 13.121094 14.40625 12.875 C 15.816406 12.382813 18.503906 12 23 12 Z M 34.28125 12.25 C 35.753906 12.414063 36.832031 12.644531 37.5625 12.90625 C 38.269531 13.15625 38.644531 13.441406 38.8125 13.625 C 38.980469 13.808594 39 13.875 39 14 C 39 14.789063 38.4375 15.1875 38.4375 15.1875 L 38 15.46875 L 38 20.0625 C 37.667969 20.023438 37.34375 20 37 20 L 34 20 L 34 19 C 34.550781 19 35 18.550781 35 18 C 35 17.449219 34.550781 17 34 17 L 34 16.375 C 34.421875 15.960938 35 15.261719 35 14 C 35 13.421875 34.753906 12.761719 34.28125 12.25 Z M 28 14 C 27.449219 14 27 14.449219 27 15 C 27 15.550781 27.449219 16 28 16 C 28.550781 16 29 15.550781 29 15 C 29 14.449219 28.550781 14 28 14 Z M 18 15 C 17.449219 15 17 15.449219 17 16 C 17 16.550781 17.449219 17 18 17 C 18.550781 17 19 16.550781 19 16 C 19 15.449219 18.550781 15 18 15 Z M 22.5 16 C 21.671875 16 21 16.671875 21 17.5 C 21 18.328125 21.671875 19 22.5 19 C 23.328125 19 24 18.328125 24 17.5 C 24 16.671875 23.328125 16 22.5 16 Z M 26.5 18 C 26.222656 18 26 18.222656 26 18.5 C 26 18.777344 26.222656 19 26.5 19 C 26.777344 19 27 18.777344 27 18.5 C 27 18.222656 26.777344 18 26.5 18 Z M 13 22 L 37 22 C 40.855469 22 44 25.144531 44 29 L 44 42 L 6 42 L 6 29 C 6 25.144531 9.144531 22 13 22 Z M 46 31 L 47 31 C 47.554688 31 48 31.445313 48 32 L 46 32 Z M 39 34 C 37.355469 34 36 35.355469 36 37 C 36 38.644531 37.355469 40 39 40 C 40.644531 40 42 38.644531 42 37 C 42 35.355469 40.644531 34 39 34 Z M 39 36 C 39.5625 36 40 36.4375 40 37 C 40 37.5625 39.5625 38 39 38 C 38.4375 38 38 37.5625 38 37 C 38 36.4375 38.4375 36 39 36 Z M 8.375 44 L 10.625 44 L 10.28125 45 L 8.71875 45 Z M 39.375 44 L 41.625 44 L 41.28125 45 L 39.71875 45 Z"/></svg>