<svg xmlns="http://www.w3.org/2000/svg"  viewBox="0 0 50 50" width="1000px" height="1000px"><path d="M 0.8125 9 C 0.335938 9.089844 -0.0078125 9.511719 0 10 L 0 40 C 0 40.550781 0.449219 41 1 41 L 1.28125 41 L 2.0625 43.3125 C 2.195313 43.71875 2.574219 43.996094 3 44 L 6 44 C 6.425781 43.996094 6.804688 43.71875 6.9375 43.3125 L 7.71875 41 L 42.28125 41 L 43.0625 43.3125 C 43.195313 43.71875 43.574219 43.996094 44 44 L 47 44 C 47.425781 43.996094 47.804688 43.71875 47.9375 43.3125 L 48.71875 41 L 49 41 C 49.550781 41 50 40.550781 50 40 L 50 10 C 50 9.449219 49.550781 9 49 9 L 1 9 C 0.96875 9 0.9375 9 0.90625 9 C 0.875 9 0.84375 9 0.8125 9 Z M 2 11 L 48 11 L 48 39 L 2 39 Z M 4.8125 13 C 4.335938 13.089844 3.992188 13.511719 4 14 L 4 36 C 4 36.550781 4.449219 37 5 37 L 39 37 C 39.550781 37 40 36.550781 40 36 L 40 14 C 40 13.449219 39.550781 13 39 13 L 5 13 C 4.96875 13 4.9375 13 4.90625 13 C 4.875 13 4.84375 13 4.8125 13 Z M 44 13 C 42.894531 13 42 13.894531 42 15 C 42 16.105469 42.894531 17 44 17 C 45.105469 17 46 16.105469 46 15 C 46 13.894531 45.105469 13 44 13 Z M 6 15 L 38 15 L 38 22 L 36 22 C 35.449219 22 35 22.449219 35 23 L 35 25 C 35 25.554688 34.554688 26 34 26 L 33 26 L 33 23 L 31 23 L 31 26 L 29 26 L 29 23 L 27 23 L 27 26 L 25 26 L 25 23 L 23 23 L 23 26 L 21 26 L 21 23 L 19 23 L 19 26 L 17 26 L 17 23 L 15 23 L 15 26 L 13 26 L 13 23 L 11 23 L 11 26 L 10 26 C 9.445313 26 9 25.554688 9 25 L 9 23 C 9 22.449219 8.550781 22 8 22 L 6 22 Z M 44 19 C 42.894531 19 42 19.894531 42 21 C 42 22.105469 42.894531 23 44 23 C 45.105469 23 46 22.105469 46 21 C 46 19.894531 45.105469 19 44 19 Z M 6 24 L 7 24 L 7 25 C 7 26.644531 8.355469 28 10 28 L 34 28 C 35.644531 28 37 26.644531 37 25 L 37 24 L 38 24 L 38 35 L 6 35 Z M 44 25 C 42.894531 25 42 25.894531 42 27 C 42 28.105469 42.894531 29 44 29 C 45.105469 29 46 28.105469 46 27 C 46 25.894531 45.105469 25 44 25 Z M 3.375 41 L 5.625 41 L 5.28125 42 L 3.71875 42 Z M 44.375 41 L 46.625 41 L 46.28125 42 L 44.71875 42 Z"/></svg>