<?xml version="1.0" encoding="UTF-8" standalone="no"?>
<svg
   viewBox="0 0 50 50"
   width="1000"
   height="1000"
   version="1.1"
   xmlns="http://www.w3.org/2000/svg"
   xmlns:svg="http://www.w3.org/2000/svg">
  <path
     d="M 8.734375,3 C 5.5751202,3 3,5.5751202 3,8.734375 v 3.985449 H 5 V 8.734375 C 5,6.6485224 6.6485224,5 8.734375,5 h 32.53125 C 43.351478,5 45,6.6485224 45,8.734375 v 32.53125 C 45,43.351478 43.351478,45 41.265625,45 H 17.20498 v 2 H 41.265625 C 44.42488,47 47,44.42488 47,41.265625 V 8.734375 C 47,5.5751202 44.42488,3 41.265625,3 Z M 3,16.873828 V 41.265625 C 3,44.424877 5.5751234,47 8.734375,47 h 5.866992 V 45 H 8.734375 C 6.6485245,45 5,43.351476 5,41.265625 V 16.873828 Z" />
  <circle
     cx="15.977869"
     cy="13.985878"
     r="1" />
  <circle
     cx="9.4036827"
     cy="12.452215"
     r="1" />
  <circle
     cx="30.70628"
     cy="40.081505"
     r="1" />
  <circle
     cx="14.977869"
     cy="8.0680218"
     r="1" />
  <circle
     cx="36.173615"
     cy="38.081505"
     r="1" />
  <circle
     cx="32.379948"
     cy="33.229847"
     r="1" />
  <circle
     cx="40.413589"
     cy="32.229847"
     r="1" />
</svg>
