<svg fill="#000000" xmlns="http://www.w3.org/2000/svg"  viewBox="0 0 50 50" width="1000px" height="1000px"><path d="M 11 2 C 8.285156 2 6.015625 4.035156 4.46875 6.9375 C 2.921875 9.839844 2 13.714844 2 18 L 2 47 C 1.992188 47.410156 2.234375 47.789063 2.613281 47.945313 C 2.992188 48.105469 3.433594 48.015625 3.71875 47.71875 C 3.71875 47.71875 3.902344 47.535156 4.1875 47.34375 C 4.472656 47.152344 4.824219 47 5 47 C 5.175781 47 5.527344 47.152344 5.8125 47.34375 C 6.097656 47.535156 6.28125 47.71875 6.28125 47.71875 C 6.671875 48.105469 7.296875 48.105469 7.6875 47.71875 C 7.6875 47.71875 7.894531 47.539063 8.1875 47.34375 C 8.480469 47.148438 8.847656 47 9 47 C 9.152344 47 9.519531 47.148438 9.8125 47.34375 C 10.105469 47.539063 10.3125 47.71875 10.3125 47.71875 C 10.703125 48.105469 11.328125 48.105469 11.71875 47.71875 C 11.71875 47.71875 11.894531 47.539063 12.1875 47.34375 C 12.480469 47.148438 12.839844 47 13 47 C 13.160156 47 13.519531 47.148438 13.8125 47.34375 C 14.105469 47.539063 14.28125 47.71875 14.28125 47.71875 C 14.472656 47.910156 14.734375 48.015625 15.007813 48.007813 C 15.277344 48.003906 15.535156 47.886719 15.71875 47.6875 C 15.71875 47.6875 16.636719 47 17 47 C 17.363281 47 18.28125 47.6875 18.28125 47.6875 C 18.464844 47.886719 18.722656 48.003906 18.992188 48.007813 C 19.265625 48.015625 19.527344 47.910156 19.71875 47.71875 C 19.71875 47.71875 19.898438 47.535156 20.1875 47.34375 C 20.476563 47.152344 20.824219 47 21 47 C 21.175781 47 21.523438 47.152344 21.8125 47.34375 C 22.101563 47.535156 22.28125 47.71875 22.28125 47.71875 C 22.46875 47.914063 22.730469 48.023438 23 48.023438 C 23.269531 48.023438 23.53125 47.914063 23.71875 47.71875 C 23.71875 47.71875 23.898438 47.535156 24.1875 47.34375 C 24.476563 47.152344 24.835938 47 25 47 C 25.164063 47 25.523438 47.152344 25.8125 47.34375 C 26.101563 47.535156 26.28125 47.71875 26.28125 47.71875 C 26.46875 47.914063 26.730469 48.023438 27 48.023438 C 27.269531 48.023438 27.53125 47.914063 27.71875 47.71875 C 27.71875 47.71875 27.898438 47.535156 28.1875 47.34375 C 28.476563 47.152344 28.828125 47 29 47 C 29.171875 47 29.523438 47.152344 29.8125 47.34375 C 30.101563 47.535156 30.28125 47.71875 30.28125 47.71875 C 30.566406 48.015625 31.007813 48.105469 31.386719 47.945313 C 31.765625 47.789063 32.007813 47.410156 32 47 L 32 34 L 39 34 C 39.03125 34 39.0625 34 39.09375 34 C 39.105469 34 39.113281 34 39.125 34 C 41.785156 33.9375 44.007813 31.917969 45.53125 29.0625 C 47.078125 26.160156 48 22.285156 48 18 C 48 13.714844 47.078125 9.839844 45.53125 6.9375 C 44.039063 4.140625 41.871094 2.167969 39.28125 2.03125 C 39.207031 2.027344 39.136719 2 39.0625 2 C 39.042969 2 39.019531 2 39 2 Z M 11 4 L 34.59375 4 C 33.785156 4.800781 33.074219 5.804688 32.46875 6.9375 C 30.941406 9.804688 30.023438 13.621094 30 17.84375 C 29.996094 17.894531 29.996094 17.949219 30 18 L 30 32.53125 C 29.867188 32.808594 29.867188 33.128906 30 33.40625 L 30 45.34375 C 29.671875 45.207031 29.429688 45 29 45 C 28.164063 45 27.523438 45.347656 27.0625 45.65625 C 27.023438 45.683594 27.039063 45.691406 27 45.71875 C 26.960938 45.691406 26.976563 45.683594 26.9375 45.65625 C 26.476563 45.347656 25.832031 45 25 45 C 24.167969 45 23.523438 45.347656 23.0625 45.65625 C 23.023438 45.683594 23.039063 45.691406 23 45.71875 C 22.960938 45.691406 22.976563 45.683594 22.9375 45.65625 C 22.476563 45.347656 21.835938 45 21 45 C 20.164063 45 19.523438 45.347656 19.0625 45.65625 C 19.042969 45.667969 19.050781 45.675781 19.03125 45.6875 C 18.5625 45.347656 17.875 45 17 45 C 16.125 45 15.4375 45.347656 14.96875 45.6875 C 14.949219 45.675781 14.957031 45.667969 14.9375 45.65625 C 14.476563 45.351563 13.832031 45 13 45 C 12.167969 45 11.523438 45.351563 11.0625 45.65625 C 11.023438 45.683594 11.039063 45.691406 11 45.71875 C 10.953125 45.683594 10.957031 45.691406 10.90625 45.65625 C 10.445313 45.351563 9.832031 45 9 45 C 8.167969 45 7.554688 45.351563 7.09375 45.65625 C 7.042969 45.691406 7.046875 45.683594 7 45.71875 C 6.960938 45.691406 6.976563 45.683594 6.9375 45.65625 C 6.476563 45.347656 5.835938 45 5 45 C 4.566406 45 4.328125 45.207031 4 45.34375 L 4 18 C 4 14.003906 4.871094 10.402344 6.21875 7.875 C 7.566406 5.347656 9.296875 4 11 4 Z M 39 4 C 39.03125 4 39.0625 4 39.09375 4 C 40.765625 4.050781 42.457031 5.394531 43.78125 7.875 C 45.128906 10.402344 46 14.003906 46 18 C 46 21.996094 45.128906 25.597656 43.78125 28.125 C 42.433594 30.652344 40.703125 32 39 32 C 37.296875 32 35.566406 30.652344 34.21875 28.125 C 32.871094 25.597656 32 21.996094 32 18 C 32 17.96875 32 17.9375 32 17.90625 C 32.015625 13.945313 32.882813 10.382813 34.21875 7.875 C 35.566406 5.347656 37.296875 4 39 4 Z M 39 13.25 C 37.941406 13.25 37.179688 14.011719 36.71875 14.875 C 36.257813 15.738281 36 16.820313 36 18 C 36 19.179688 36.257813 20.261719 36.71875 21.125 C 37.179688 21.988281 37.941406 22.75 39 22.75 C 40.058594 22.75 40.820313 21.988281 41.28125 21.125 C 41.742188 20.261719 42 19.179688 42 18 C 42 16.820313 41.742188 15.738281 41.28125 14.875 C 40.820313 14.011719 40.058594 13.25 39 13.25 Z M 39 15.25 C 39.046875 15.25 39.269531 15.320313 39.53125 15.8125 C 39.792969 16.304688 40 17.109375 40 18 C 40 18.890625 39.792969 19.695313 39.53125 20.1875 C 39.269531 20.679688 39.046875 20.75 39 20.75 C 38.953125 20.75 38.730469 20.679688 38.46875 20.1875 C 38.207031 19.695313 38 18.890625 38 18 C 38 17.109375 38.207031 16.304688 38.46875 15.8125 C 38.730469 15.320313 38.953125 15.25 39 15.25 Z M 7 21 C 6.449219 21 6 21.449219 6 22 C 6 22.550781 6.449219 23 7 23 C 7.550781 23 8 22.550781 8 22 C 8 21.449219 7.550781 21 7 21 Z M 11 21 C 10.449219 21 10 21.449219 10 22 C 10 22.550781 10.449219 23 11 23 C 11.550781 23 12 22.550781 12 22 C 12 21.449219 11.550781 21 11 21 Z M 15 21 C 14.449219 21 14 21.449219 14 22 C 14 22.550781 14.449219 23 15 23 C 15.550781 23 16 22.550781 16 22 C 16 21.449219 15.550781 21 15 21 Z M 19 21 C 18.449219 21 18 21.449219 18 22 C 18 22.550781 18.449219 23 19 23 C 19.550781 23 20 22.550781 20 22 C 20 21.449219 19.550781 21 19 21 Z M 23 21 C 22.449219 21 22 21.449219 22 22 C 22 22.550781 22.449219 23 23 23 C 23.550781 23 24 22.550781 24 22 C 24 21.449219 23.550781 21 23 21 Z M 27 21 C 26.449219 21 26 21.449219 26 22 C 26 22.550781 26.449219 23 27 23 C 27.550781 23 28 22.550781 28 22 C 28 21.449219 27.550781 21 27 21 Z M 32 28.125 C 32.148438 28.449219 32.308594 28.761719 32.46875 29.0625 C 33.074219 30.195313 33.785156 31.199219 34.59375 32 L 32 32 Z"/></svg>