<svg fill="#000000" xmlns="http://www.w3.org/2000/svg"  viewBox="0 0 50 50" width="1000px" height="1000px"><path d="M 28.65625 0.0625 C 27.902344 0.09375 27.3125 0.28125 27.3125 0.28125 C 27.144531 0.335938 26.992188 0.433594 26.875 0.5625 C 26.875 0.5625 24.855469 2.847656 23.625 6.34375 C 21.8125 4.710938 19.804688 4.417969 18.3125 4.375 C 17.394531 4.347656 16.675781 4.320313 16.1875 4.125 C 15.699219 3.929688 15.347656 3.664063 14.96875 2.6875 C 14.800781 2.234375 14.332031 1.96875 13.855469 2.050781 C 13.382813 2.136719 13.035156 2.546875 13.03125 3.03125 C 13.03125 4.402344 13.167969 5.519531 13.4375 6.4375 C 8.753906 7.800781 5.375 10.382813 3.21875 13.75 C 0.941406 17.304688 0 21.667969 0 26.28125 C 0 38.765625 11.195313 50 25 50 C 31.09375 50 37.324219 47.945313 42.0625 43.625 C 46.800781 39.304688 50 32.710938 50 23.875 C 50 20.171875 49.328125 16.476563 47.5 13.40625 C 45.808594 10.566406 43.078125 8.328125 39.21875 7.28125 C 39.277344 7.136719 39.347656 7.027344 39.40625 6.875 C 39.554688 6.507813 39.472656 6.082031 39.195313 5.796875 C 38.917969 5.515625 38.496094 5.421875 38.125 5.5625 C 37.40625 5.835938 36.929688 5.808594 36.3125 5.625 C 35.695313 5.441406 34.976563 5.058594 34.09375 4.78125 C 33.210938 4.503906 32.101563 4.351563 30.875 4.6875 C 30.269531 4.855469 29.667969 5.15625 29 5.5625 C 29.378906 4.605469 29.957031 3.496094 31.21875 2.375 C 31.425781 2.191406 31.550781 1.925781 31.554688 1.648438 C 31.5625 1.367188 31.449219 1.101563 31.25 0.90625 C 30.4375 0.113281 29.410156 0.03125 28.65625 0.0625 Z M 28.75 2.0625 C 28.800781 2.058594 28.824219 2.09375 28.875 2.09375 C 27.816406 3.355469 27.085938 4.628906 26.78125 5.65625 C 26.582031 6.335938 26.5 6.921875 26.46875 7.34375 C 26.453125 7.554688 26.433594 7.710938 26.4375 7.84375 C 26.4375 7.910156 26.464844 7.976563 26.46875 8.03125 C 26.472656 8.058594 26.460938 8.074219 26.46875 8.125 C 26.472656 8.152344 26.472656 8.195313 26.5 8.28125 C 26.507813 8.304688 26.53125 8.34375 26.53125 8.34375 C 26.53125 8.34375 26.625 8.53125 26.625 8.53125 C 26.625 8.53125 26.96875 8.84375 26.96875 8.84375 C 26.96875 8.84375 27.96875 8.84375 27.96875 8.84375 C 28.023438 8.808594 28.078125 8.765625 28.125 8.71875 C 29.53125 7.433594 30.589844 6.847656 31.40625 6.625 C 32.222656 6.402344 32.835938 6.476563 33.5 6.6875 C 34.164063 6.898438 34.878906 7.273438 35.75 7.53125 C 36.074219 7.625 36.441406 7.65625 36.8125 7.6875 C 36.332031 8.585938 35.886719 9.195313 35.4375 9.40625 C 34.765625 9.722656 33.640625 9.675781 31.71875 9.59375 C 31.167969 9.53125 30.667969 9.933594 30.609375 10.484375 C 30.546875 11.035156 30.949219 11.535156 31.5 11.59375 C 33.839844 12 34.21875 12.582031 34.84375 13.46875 C 35.222656 14.007813 35.828125 14.675781 36.65625 15.28125 C 35.253906 15.878906 34.097656 16.085938 33.1875 15.78125 C 31.921875 15.359375 30.679688 14.136719 29.28125 12.34375 C 28.953125 11.960938 28.390625 11.882813 27.96875 12.160156 C 27.550781 12.4375 27.402344 12.984375 27.625 13.4375 C 28.617188 15.339844 28.730469 16.21875 28.53125 17.3125 C 28.386719 18.097656 27.859375 19.480469 27.375 20.84375 C 25.570313 19.503906 24.621094 18.253906 24.34375 17.1875 C 24.011719 15.902344 24.316406 14.789063 24.46875 13.78125 C 24.605469 13.246094 24.285156 12.699219 23.75 12.5625 C 23.214844 12.425781 22.667969 12.746094 22.53125 13.28125 C 21.785156 15.289063 20.640625 16.023438 19 16.21875 C 17.886719 16.351563 16.488281 16.046875 15.03125 15.59375 C 15.285156 15.363281 15.574219 15.164063 15.75 14.90625 C 16.328125 14.050781 16.558594 13.160156 16.8125 12.46875 C 17.066406 11.777344 17.28125 11.304688 17.71875 11 C 18.15625 10.695313 18.933594 10.464844 20.5 10.59375 C 20.984375 10.636719 21.429688 10.320313 21.550781 9.851563 C 21.675781 9.378906 21.441406 8.890625 21 8.6875 C 20.882813 8.636719 20.769531 8.664063 20.65625 8.625 L 20.65625 8.59375 C 20.621094 8.589844 20.597656 8.597656 20.5625 8.59375 C 19.953125 8.40625 19.316406 8.28125 18.75 8.21875 C 18.042969 8.140625 17.417969 8.035156 16.90625 7.8125 C 16.394531 7.589844 15.972656 7.285156 15.625 6.59375 C 15.566406 6.476563 15.582031 6.140625 15.53125 6 C 16.46875 6.347656 17.390625 6.347656 18.25 6.375 C 20.03125 6.429688 21.53125 6.410156 23.21875 8.78125 C 23.445313 9.097656 23.835938 9.25 24.21875 9.179688 C 24.601563 9.105469 24.90625 8.816406 25 8.4375 C 25.832031 4.820313 27.859375 2.488281 28.15625 2.15625 C 28.292969 2.121094 28.421875 2.078125 28.75 2.0625 Z M 14.3125 8.25 C 14.820313 8.921875 15.449219 9.375 16.09375 9.65625 C 16.160156 9.683594 16.214844 9.664063 16.28125 9.6875 C 15.589844 10.3125 15.191406 11.089844 14.9375 11.78125 C 14.644531 12.585938 14.425781 13.292969 14.09375 13.78125 C 13.761719 14.269531 13.367188 14.609375 12.34375 14.8125 C 11.90625 14.886719 11.570313 15.242188 11.519531 15.683594 C 11.472656 16.125 11.714844 16.546875 12.125 16.71875 C 14.554688 17.792969 16.988281 18.453125 19.21875 18.1875 C 20.363281 18.050781 21.433594 17.609375 22.34375 16.875 C 22.378906 17.15625 22.328125 17.390625 22.40625 17.6875 C 22.882813 19.523438 24.269531 21.527344 27.34375 23.375 C 27.605469 23.53125 27.929688 23.558594 28.214844 23.449219 C 28.5 23.339844 28.722656 23.105469 28.8125 22.8125 C 29.519531 20.542969 30.222656 19.195313 30.5 17.6875 C 30.574219 17.289063 30.480469 16.851563 30.46875 16.4375 C 31.109375 16.945313 31.761719 17.429688 32.53125 17.6875 C 34.472656 18.335938 36.753906 17.886719 39.4375 16.1875 C 39.773438 15.972656 39.953125 15.582031 39.890625 15.1875 C 39.828125 14.796875 39.542969 14.476563 39.15625 14.375 C 37.359375 13.90625 37.167969 13.308594 36.46875 12.3125 C 36.257813 12.011719 35.863281 11.691406 35.53125 11.375 C 35.777344 11.308594 36.042969 11.332031 36.28125 11.21875 C 37.132813 10.820313 37.78125 10.152344 38.375 9.125 C 41.957031 10.003906 44.28125 11.917969 45.78125 14.4375 C 47.355469 17.082031 48 20.421875 48 23.875 C 48 32.238281 45.042969 38.214844 40.71875 42.15625 C 36.394531 46.097656 30.644531 48 25 48 C 12.285156 48 2 37.5625 2 26.28125 C 2 21.941406 2.894531 17.984375 4.90625 14.84375 C 6.855469 11.796875 9.859375 9.46875 14.3125 8.25 Z"/></svg>