<svg xmlns="http://www.w3.org/2000/svg"  viewBox="0 0 50 50" width="1000px" height="1000px"><path d="M 19.458984 1.9980469 A 1.0002308 1.0002308 0 0 0 19.271484 2.0117188 C 14.693887 2.0754659 10.878424 3.533324 8.2128906 6.09375 C 5.4869816 8.7121714 4 12.443902 4 16.75 C 4 19.926782 5.1755605 22.401973 6.4726562 24.720703 C 7.7697522 27.039434 9.1839439 29.240258 9.9570312 32.048828 L 9.9570312 32.042969 C 10.850251 35.366942 11.483415 39.171243 12.464844 42.240234 C 12.955558 43.77473 13.526213 45.135227 14.349609 46.191406 C 15.173006 47.247626 16.357125 48 17.755859 48 C 19.122837 48 20.380334 47.48538 21.203125 46.492188 C 22.025916 45.498993 22.400391 44.130118 22.400391 42.507812 C 22.400391 38.521901 23.206119 33.241296 24.021484 28.681641 C 24.159362 28.026646 24.575767 27.832031 25.033203 27.832031 C 25.491927 27.832031 25.864901 27.996998 25.972656 28.646484 L 25.974609 28.654297 L 25.974609 28.662109 C 26.790297 33.130484 27.599609 38.515339 27.599609 42.507812 C 27.599609 44.129672 27.97416 45.498921 28.796875 46.492188 C 29.619543 47.485478 30.877017 48 32.244141 48 C 33.646456 48 34.830143 47.238881 35.652344 46.175781 C 36.474545 45.112682 37.044708 43.744708 37.535156 42.205078 C 38.515697 39.126934 39.151398 35.32274 40.042969 32.048828 C 40.81606 29.240245 42.230257 27.039544 43.527344 24.720703 C 44.82386 22.402882 45.998965 19.928214 46 16.753906 C 46.04562 12.448725 44.581299 8.7144976 41.867188 6.0957031 C 39.151384 3.4752768 35.228371 2 30.511719 2 C 28.462658 2 26.653409 2.2760066 25.044922 2.8007812 C 23.436434 2.2760067 21.627186 2 19.578125 2 C 19.566139 2 19.554944 2.0019341 19.542969 2.0019531 A 1.0001 1.0001 0 0 0 19.458984 1.9980469 z M 30.511719 4 C 34.815067 4 38.182819 5.3200827 40.478516 7.5351562 C 42.774212 9.75023 44.042467 12.888858 44 16.738281 L 44 16.744141 L 44 16.75 C 44 19.439677 43.035163 21.502482 41.78125 23.744141 C 40.527337 25.985799 38.98019 28.368162 38.113281 31.517578 L 38.113281 31.519531 C 37.182362 34.936816 36.540713 38.741416 35.630859 41.597656 C 35.175933 43.025776 34.64608 44.206709 34.070312 44.951172 C 33.494546 45.695507 32.982825 46 32.244141 46 C 31.333265 46 30.768176 45.736281 30.337891 45.216797 C 29.907606 44.697313 29.599609 43.818955 29.599609 42.507812 C 29.599609 38.254885 28.768751 32.831083 27.945312 28.318359 C 27.688068 26.767846 26.32823 25.832031 25.033203 25.832031 C 23.738177 25.832031 22.381814 26.738748 22.0625 28.279297 L 22.058594 28.292969 L 22.056641 28.306641 C 21.23338 32.907862 20.400391 38.250288 20.400391 42.507812 C 20.400391 43.819508 20.092318 44.697491 19.662109 45.216797 C 19.231942 45.736107 18.666882 46 17.755859 46 C 17.013594 46 16.500353 45.697946 15.925781 44.960938 C 15.351209 44.223928 14.823801 43.052614 14.369141 41.630859 C 13.459819 38.787351 12.818452 34.983463 11.888672 31.523438 L 11.886719 31.521484 L 11.886719 31.517578 C 11.019853 28.368188 9.4726541 25.98566 8.21875 23.744141 C 6.9648459 21.502621 6 19.440218 6 16.75 C 6 12.898098 7.2915184 9.754188 9.5996094 7.5371094 C 11.887249 5.3396758 15.218034 4.027059 19.466797 4.0039062 C 23.012989 4.2720418 26.108344 5.8794153 28.296875 8.4199219 A 1.0001 1.0001 0 1 0 29.8125 7.1152344 C 28.904915 6.0616845 27.852565 5.1523287 26.695312 4.3964844 C 27.820739 4.1395665 29.08688 4 30.511719 4 z"/></svg>