<svg fill="#000000" xmlns="http://www.w3.org/2000/svg"  viewBox="0 0 50 50" width="1000px" height="1000px"><path d="M 7 3 A 1.0001 1.0001 0 0 0 6 4 L 6 7.6835938 A 1.0001 1.0001 0 0 0 6.0097656 7.828125 L 9.9863281 34.990234 A 1.0001 1.0001 0 0 0 10.261719 35.6875 L 15 42.322266 L 15 46 A 1.0001 1.0001 0 0 0 16 47 L 22 47 A 1.0001 1.0001 0 0 0 23 46 L 23 42.302734 L 27.455078 35.671875 A 1.0001 1.0001 0 0 0 27.714844 34.958984 L 30.992188 7.8027344 A 1.0001 1.0001 0 0 0 31 7.6835938 L 31 4 A 1.0001 1.0001 0 0 0 30 3 L 7 3 z M 38 3 A 1.0001 1.0001 0 1 0 38 5 L 42 5 L 42 7 L 38 7 A 1.0001 1.0001 0 1 0 38 9 L 42 9 L 42 11.001953 L 38 11 A 1.0001 1.0001 0 1 0 38 13 L 42 13.001953 L 42 15.001953 L 38 15 A 1.0001 1.0001 0 1 0 38 17 L 41.800781 17.001953 C 41.632077 18.13986 41.371493 19.262228 40.916016 20.324219 L 40.246094 21.888672 C 39.423594 23.806364 39 25.870716 39 27.957031 L 39 46 A 1.0001 1.0001 0 1 0 41 46 L 41 27.957031 C 41 26.141346 41.368484 24.344042 42.083984 22.675781 L 42.753906 21.111328 C 43.576406 19.193589 44 17.129284 44 15.042969 L 44 5 C 44 3.9069372 43.093063 3 42 3 L 38 3 z M 8 5 L 29 5 L 29 7.6230469 L 25.814453 34 L 11.865234 34 L 8 7.609375 L 8 5 z M 11 8 A 1 1 0 0 0 11 10 A 1 1 0 0 0 11 8 z M 14 8 A 1 1 0 0 0 14 10 A 1 1 0 0 0 14 8 z M 17 8 A 1 1 0 0 0 17 10 A 1 1 0 0 0 17 8 z M 20 8 A 1 1 0 0 0 20 10 A 1 1 0 0 0 20 8 z M 23 8 A 1 1 0 0 0 23 10 A 1 1 0 0 0 23 8 z M 26 8 A 1 1 0 0 0 26 10 A 1 1 0 0 0 26 8 z M 17.884766 15 C 15.031766 15 12.961937 17.0245 12.960938 19.8125 C 12.960938 21.0325 13.449641 21.907875 13.806641 22.546875 C 13.990641 22.874875 14.135031 23.134344 14.207031 23.402344 C 14.280031 23.675344 14.34325 23.963094 14.40625 24.246094 C 14.64325 25.319094 14.890672 26.427312 15.638672 27.195312 C 16.144672 27.713312 16.811578 28 17.517578 28 C 18.024578 28 18.534609 27.860938 18.974609 27.585938 C 19.400609 27.855937 19.9035 28 20.4375 28 C 22.7225 28 23.242734 25.647187 23.552734 24.242188 C 23.614734 23.960187 23.678953 23.674344 23.751953 23.402344 C 23.823953 23.134344 23.968344 22.875875 24.152344 22.546875 C 24.510344 21.907875 24.999047 21.030547 24.998047 19.810547 C 25.003047 18.501547 24.538453 17.296781 23.689453 16.425781 C 22.794453 15.506781 21.514031 15 20.082031 15 L 20.078125 15 C 19.698125 15 19.332422 15.035469 18.982422 15.105469 C 18.632422 15.035469 18.264766 15 17.884766 15 z M 17.884766 17 C 18.299766 17 18.666422 17.060875 18.982422 17.171875 C 19.298422 17.060875 19.664125 17 20.078125 17 L 20.082031 17 C 21.010031 17 21.754766 17.302312 22.259766 17.820312 C 22.740766 18.313312 23.003 19.0035 23 19.8125 C 23.001 21.0145 22.147312 21.671813 21.820312 22.882812 C 21.449313 24.265812 21.303406 26 20.441406 26 L 20.439453 26 C 20.231453 26 20.063406 25.935547 19.941406 25.810547 C 19.791406 25.656547 19.710937 25.413078 19.710938 25.080078 C 19.711938 24.242078 19.546047 23.284422 19.373047 22.357422 C 19.356047 22.266422 19.317625 22.195578 19.265625 22.142578 C 19.189625 22.064578 19.084469 22.025391 18.980469 22.025391 C 18.804469 22.025391 18.629891 22.136375 18.587891 22.359375 C 18.414891 23.286375 18.25 24.241078 18.25 25.080078 C 18.25 25.686078 17.983531 26.001953 17.519531 26.001953 C 17.342531 26.001953 17.195312 25.928781 17.070312 25.800781 C 16.587312 25.304781 16.436625 23.984766 16.140625 22.884766 C 15.814625 21.673766 14.960937 21.016453 14.960938 19.814453 C 14.961938 18.151453 16.073766 17 17.884766 17 z M 12.943359 36 L 24.824219 36 L 21.46875 41 L 16.513672 41 L 12.943359 36 z M 17 43.001953 L 21 43.001953 L 21 45 L 17 45 L 17 43.001953 z"/></svg>