<svg xmlns="http://www.w3.org/2000/svg"  viewBox="0 0 50 50" width="1000px" height="1000px"><path d="M 42.78125 0.59375 L 38.875 4.5 L 31.4375 5.40625 L 31.15625 5.4375 L 30.9375 5.59375 L 3.96875 27.25 L 3.9375 27.28125 L 3.90625 27.34375 L 1.28125 29.9375 L 0.59375 30.65625 L 19.34375 49.40625 L 20.0625 48.71875 L 22.65625 46.09375 L 22.71875 46.0625 L 22.75 46.03125 L 44.46875 19.15625 L 44.65625 18.9375 L 44.6875 18.625 L 45.5 11.125 L 48.71875 7.9375 L 49.40625 7.21875 Z M 42.78125 3.4375 L 46.59375 7.21875 L 44.5625 9.25 L 40.75 5.46875 Z M 38.9375 6.53125 L 38.96875 6.53125 L 43.46875 11.03125 L 43.46875 11.0625 L 42.9375 16.34375 L 33.71875 7.125 Z M 31.46875 7.71875 L 42.34375 18.59375 L 21.25 44.6875 L 21.1875 44.78125 L 19.375 46.5625 L 3.4375 30.625 L 5.21875 28.8125 L 5.3125 28.75 Z M 25.25 17.78125 C 23.988281 17.78125 22.746094 18.316406 21.78125 19.28125 C 20.886719 20.175781 20.605469 21.199219 20.40625 21.9375 C 20.300781 22.324219 20.242188 22.613281 20.09375 22.875 C 19.949219 23.132813 19.785156 23.398438 19.625 23.65625 C 18.839844 24.902344 17.515625 26.984375 19.15625 28.625 C 19.5625 29.03125 20.0625 29.304688 20.59375 29.40625 C 20.695313 29.9375 20.964844 30.429688 21.375 30.84375 C 21.875 31.34375 22.554688 31.625 23.28125 31.625 C 24.390625 31.625 25.378906 30.984375 26.34375 30.375 C 26.601563 30.214844 26.867188 30.050781 27.125 29.90625 C 27.386719 29.757813 27.675781 29.699219 28.0625 29.59375 C 28.800781 29.394531 29.824219 29.113281 30.71875 28.21875 C 32.777344 26.160156 32.703125 23.230469 30.5625 21.09375 C 30.273438 20.804688 29.972656 20.554688 29.65625 20.34375 C 29.445313 20.027344 29.195313 19.726563 28.90625 19.4375 C 27.839844 18.371094 26.585938 17.78125 25.25 17.78125 Z M 25.25 19.78125 C 26.015625 19.78125 26.796875 20.140625 27.5 20.84375 C 27.8125 21.15625 28.03125 21.492188 28.1875 21.8125 C 28.507813 21.96875 28.839844 22.183594 29.15625 22.5 C 30.527344 23.871094 30.539063 25.582031 29.3125 26.8125 C 28.421875 27.703125 27.265625 27.539063 26.125 28.1875 C 25.089844 28.777344 24.015625 29.625 23.28125 29.625 C 23.09375 29.625 22.914063 29.570313 22.78125 29.4375 C 22.429688 29.085938 22.457031 28.636719 22.90625 28.1875 C 23.527344 27.566406 24.226563 26.628906 24.78125 25.8125 C 24.992188 25.5 24.71875 25.15625 24.40625 25.15625 C 24.328125 25.15625 24.265625 25.164063 24.1875 25.21875 C 23.371094 25.773438 22.429688 26.472656 21.8125 27.09375 C 21.566406 27.339844 21.320313 27.46875 21.09375 27.46875 C 20.90625 27.46875 20.71875 27.378906 20.5625 27.21875 C 19.910156 26.566406 21.074219 25.179688 21.8125 23.875 C 22.460938 22.730469 22.296875 21.605469 23.1875 20.71875 C 23.785156 20.117188 24.519531 19.78125 25.25 19.78125 Z M 7.25 27.53125 L 5.84375 28.96875 L 6.5625 29.6875 L 7.96875 28.25 Z M 8.71875 29 L 7.28125 30.40625 L 8 31.125 L 9.4375 29.71875 Z M 10.15625 30.4375 L 8.75 31.84375 L 9.46875 32.5625 L 10.875 31.15625 Z M 11.59375 31.875 L 10.1875 33.3125 L 10.90625 34.03125 L 12.3125 32.59375 Z M 13.0625 33.34375 L 11.625 34.75 L 12.34375 35.46875 L 13.78125 34.0625 Z M 14.5 34.78125 L 13.09375 36.1875 L 13.8125 36.90625 L 15.21875 35.5 Z M 15.9375 36.21875 L 14.53125 37.65625 L 15.25 38.375 L 16.65625 36.9375 Z M 17.40625 37.6875 L 15.96875 39.09375 L 16.6875 39.8125 L 18.125 38.40625 Z M 18.84375 39.125 L 17.4375 40.53125 L 18.15625 41.25 L 19.5625 39.84375 Z M 20.28125 40.5625 L 18.875 42 L 19.59375 42.71875 L 21 41.28125 Z M 21.75 42.03125 L 20.3125 43.4375 L 21.03125 44.15625 L 22.46875 42.75 Z"/></svg>