<svg xmlns="http://www.w3.org/2000/svg"  viewBox="0 0 50 50" width="1000px" height="1000px"><path d="M 31.015625 5.988281 C 30.476563 5.976563 30.027344 6.390625 29.996094 6.929688 C 29.507813 9.777344 28.796875 11.542969 28.03125 12.546875 C 27.25 13.566406 26.46875 13.902344 25.425781 14.003906 C 23.347656 14.214844 20.3125 13 17 13 C 10.699219 13 5.582031 18.105469 5.054688 24 L 3 24 C 2.449219 24 2 24.449219 2 25 L 2 29 C 2 29.550781 2.449219 30 3 30 L 4.246094 30 L 7.828125 42.550781 C 7.832031 42.558594 7.835938 42.5625 7.835938 42.570313 L 8.039063 43.277344 C 8.160156 43.703125 8.554688 44 9 44 L 41 44 C 41.445313 44 41.839844 43.703125 41.960938 43.277344 L 42.167969 42.546875 L 43.832031 36.730469 L 45.753906 30 L 47 30 C 47.550781 30 48 29.550781 48 29 L 48 25 C 48 24.449219 47.550781 24 47 24 L 44.972656 24 C 44.707031 16.339844 41.421875 11.753906 38.109375 9.207031 C 34.90625 6.746094 31.785156 6.128906 31.328125 6.046875 C 31.226563 6.011719 31.121094 5.992188 31.015625 5.988281 Z M 33.277344 8.726563 C 34.253906 9.101563 35.472656 9.699219 36.890625 10.792969 C 39.800781 13.03125 42.71875 16.914063 42.972656 24 L 24.0625 24 C 24.136719 23.402344 24.269531 22.949219 24.4375 22.617188 C 24.695313 22.121094 25.023438 21.824219 25.53125 21.546875 C 26.550781 20.988281 28.304688 20.703125 30.351563 19.9375 C 32.550781 19.109375 33.894531 17.753906 34.46875 16.207031 C 35.042969 14.660156 34.871094 13.035156 34.460938 11.597656 C 34.15625 10.539063 33.714844 9.554688 33.277344 8.726563 Z M 31.410156 9.539063 C 31.832031 10.300781 32.265625 11.1875 32.539063 12.152344 C 32.878906 13.339844 32.957031 14.527344 32.59375 15.511719 C 32.230469 16.496094 31.449219 17.390625 29.648438 18.0625 C 27.832031 18.746094 26.089844 18.960938 24.574219 19.792969 C 23.8125 20.207031 23.113281 20.824219 22.660156 21.699219 C 22.328125 22.34375 22.128906 23.101563 22.046875 24 L 7.058594 24 C 7.589844 19.234375 11.859375 15 17 15 C 19.761719 15 22.730469 16.285156 25.628906 15.996094 C 27.078125 15.847656 28.53125 15.183594 29.617188 13.765625 C 30.378906 12.769531 30.949219 11.335938 31.410156 9.539063 Z M 4 26 L 5.832031 26 C 5.941406 26.019531 6.050781 26.019531 6.15625 26 L 22.832031 26 C 22.941406 26.019531 23.050781 26.019531 23.15625 26 L 43.832031 26 C 43.941406 26.019531 44.050781 26.019531 44.15625 26 L 46 26 L 46 28 L 4 28 Z M 6.328125 30 L 13.132813 30 L 13.988281 36 L 14.847656 42 L 9.753906 42 Z M 15.152344 30 L 24 30 L 24 42 L 16.867188 42 Z M 26 30 L 34.847656 30 L 33.988281 36 L 33.132813 42 L 26 42 Z M 36.867188 30 L 43.671875 30 L 40.246094 42 L 35.152344 42 Z"/></svg>