<svg xmlns="http://www.w3.org/2000/svg"  viewBox="0 0 50 50" width="1000px" height="1000px"><path d="M 11 0 C 8.832031 0 7.015625 0.546875 5.78125 1.78125 C 4.546875 3.015625 4 4.832031 4 7 L 4 8 L 1 8 C 0.96875 8 0.9375 8 0.90625 8 C 0.355469 8.027344 -0.0742188 8.496094 -0.046875 9.046875 C -0.0195313 9.597656 0.449219 10.027344 1 10 L 4 10 L 4 28.8125 C 3.972656 28.945313 3.972656 29.085938 4 29.21875 L 4 34.8125 C 3.972656 34.945313 3.972656 35.085938 4 35.21875 L 4 41 C 4 41.550781 4.449219 42 5 42 L 10 42 L 10 49 C 10 49.550781 10.449219 50 11 50 L 43 50 C 43.550781 50 44 49.550781 44 49 L 44 11.15625 C 44.003906 11.105469 44.003906 11.050781 44 11 L 44 10 L 49 10 C 49.359375 10.003906 49.695313 9.816406 49.878906 9.503906 C 50.058594 9.191406 50.058594 8.808594 49.878906 8.496094 C 49.695313 8.183594 49.359375 7.996094 49 8 L 44 8 L 44 7 C 44 4.9375 43.34375 3.152344 42.09375 1.90625 C 40.84375 0.660156 39.054688 0 37 0 Z M 11 2 L 37 2 C 38.640625 2 39.859375 2.488281 40.6875 3.3125 C 41.136719 3.761719 41.460938 4.347656 41.6875 5.03125 C 40.816406 4.367188 39.855469 4 39 4 C 37.992188 4 36.644531 4.273438 35.625 5.375 C 34.605469 6.476563 34 8.253906 34 11 L 34 26.09375 C 33.09375 26.289063 32.304688 26.722656 31.5625 27.09375 C 30.5625 27.59375 29.667969 28 29 28 C 28.332031 28 27.4375 27.59375 26.4375 27.09375 C 25.4375 26.59375 24.332031 26 23 26 C 21.667969 26 20.5625 26.59375 19.5625 27.09375 C 18.5625 27.59375 17.667969 28 17 28 C 16.332031 28 15.4375 27.59375 14.4375 27.09375 C 13.4375 26.59375 12.332031 26 11 26 C 9.667969 26 8.5625 26.59375 7.5625 27.09375 C 7 27.375 6.476563 27.644531 6 27.8125 L 6 9.1875 C 6.027344 9.054688 6.027344 8.914063 6 8.78125 L 6 7 C 6 5.167969 6.453125 3.984375 7.21875 3.21875 C 7.984375 2.453125 9.167969 2 11 2 Z M 39 6 C 39.617188 6 40.292969 6.179688 40.875 6.84375 C 41.113281 7.117188 41.339844 7.503906 41.53125 8 L 36.40625 8 C 36.601563 7.40625 36.839844 6.992188 37.09375 6.71875 C 37.648438 6.121094 38.3125 6 39 6 Z M 36.03125 10 L 41.9375 10 C 41.964844 10.308594 42 10.640625 42 11 C 42 11.03125 42 11.0625 42 11.09375 L 42 48 L 12 48 L 12 42 L 35 42 C 35.550781 42 36 41.550781 36 41 L 36 33.1875 C 36.027344 33.054688 36.027344 32.914063 36 32.78125 L 36 27.1875 C 36.027344 27.054688 36.027344 26.914063 36 26.78125 L 36 11 C 36 10.644531 36.011719 10.308594 36.03125 10 Z M 11 28 C 11.667969 28 12.5625 28.40625 13.5625 28.90625 C 14.5625 29.40625 15.667969 30 17 30 C 18.332031 30 19.4375 29.40625 20.4375 28.90625 C 21.4375 28.40625 22.332031 28 23 28 C 23.667969 28 24.5625 28.40625 25.5625 28.90625 C 26.5625 29.40625 27.667969 30 29 30 C 30.332031 30 31.4375 29.40625 32.4375 28.90625 C 33 28.625 33.523438 28.355469 34 28.1875 L 34 32.09375 C 33.09375 32.289063 32.304688 32.722656 31.5625 33.09375 C 30.5625 33.59375 29.667969 34 29 34 C 28.332031 34 27.4375 33.59375 26.4375 33.09375 C 25.4375 32.59375 24.332031 32 23 32 C 21.667969 32 20.5625 32.59375 19.5625 33.09375 C 18.5625 33.59375 17.667969 34 17 34 C 16.332031 34 15.4375 33.59375 14.4375 33.09375 C 13.4375 32.59375 12.332031 32 11 32 C 9.667969 32 8.5625 32.59375 7.5625 33.09375 C 7 33.375 6.476563 33.644531 6 33.8125 L 6 29.90625 C 6.90625 29.710938 7.695313 29.277344 8.4375 28.90625 C 9.4375 28.40625 10.332031 28 11 28 Z M 11 34 C 11.667969 34 12.5625 34.40625 13.5625 34.90625 C 14.5625 35.40625 15.667969 36 17 36 C 18.332031 36 19.4375 35.40625 20.4375 34.90625 C 21.4375 34.40625 22.332031 34 23 34 C 23.667969 34 24.5625 34.40625 25.5625 34.90625 C 26.5625 35.40625 27.667969 36 29 36 C 30.332031 36 31.4375 35.40625 32.4375 34.90625 C 33 34.625 33.523438 34.355469 34 34.1875 L 34 40 L 6 40 L 6 35.90625 C 6.90625 35.710938 7.695313 35.277344 8.4375 34.90625 C 9.4375 34.40625 10.332031 34 11 34 Z"/></svg>