<svg xmlns="http://www.w3.org/2000/svg"  viewBox="0 0 50 50" width="1000px" height="1000px"><path d="M 15.8125 1 C 15.609375 1.039063 15.425781 1.136719 15.28125 1.28125 L 9.28125 7.28125 C 9.09375 7.472656 8.992188 7.734375 9 8 L 9 15.8125 C 9 15.84375 9 15.875 9 15.90625 L 9 16 C 8.996094 16.0625 8.996094 16.125 9 16.1875 L 9 30.71875 C 9 32.511719 10.492188 34 12.28125 34 L 15 34 L 15 49 C 14.996094 49.359375 15.183594 49.695313 15.496094 49.878906 C 15.808594 50.058594 16.191406 50.058594 16.503906 49.878906 C 16.816406 49.695313 17.003906 49.359375 17 49 L 17 34 L 24 34 L 24 49 C 23.996094 49.359375 24.183594 49.695313 24.496094 49.878906 C 24.808594 50.058594 25.191406 50.058594 25.503906 49.878906 C 25.816406 49.695313 26.003906 49.359375 26 49 L 26 34 L 33 34 L 33 49 C 32.996094 49.359375 33.183594 49.695313 33.496094 49.878906 C 33.808594 50.058594 34.191406 50.058594 34.503906 49.878906 C 34.816406 49.695313 35.003906 49.359375 35 49 L 35 34 L 37.71875 34 C 39.507813 34 41 32.511719 41 30.71875 L 41 16 C 41 15.96875 41 15.9375 41 15.90625 L 41 8 C 41.007813 7.734375 40.90625 7.472656 40.71875 7.28125 L 34.71875 1.28125 C 34.527344 1.09375 34.265625 0.992188 34 1 L 16 1 C 15.96875 1 15.9375 1 15.90625 1 C 15.875 1 15.84375 1 15.8125 1 Z M 16.4375 3 L 33.5625 3 L 39 8.4375 L 39 15 L 11 15 L 11 8.4375 Z M 25 6 C 23.34375 6 22 7.34375 22 9 C 22 10.65625 23.34375 12 25 12 C 26.65625 12 28 10.65625 28 9 C 28 7.34375 26.65625 6 25 6 Z M 11 17 L 39 17 L 39 30.71875 C 39 31.433594 38.429688 32 37.71875 32 L 34.1875 32 C 34.054688 31.972656 33.914063 31.972656 33.78125 32 L 25.1875 32 C 25.054688 31.972656 24.914063 31.972656 24.78125 32 L 16.1875 32 C 16.054688 31.972656 15.914063 31.972656 15.78125 32 L 12.28125 32 C 11.570313 32 11 31.433594 11 30.71875 Z"/></svg>