<?xml version="1.0" encoding="UTF-8" standalone="no"?>
<svg
   version="1.1"
   x="0px"
   y="0px"
   viewBox="0 0 1000 1000"
   xml:space="preserve"
   width="1000"
   height="1000"
   xmlns="http://www.w3.org/2000/svg"
   xmlns:svg="http://www.w3.org/2000/svg">
<path d="m 471.0957,28.324219 a 20.002,20.002 0 0 0 -12.24218,0.646484 l -171.3418,65.349609 a 20.002,20.002 0 0 0 -8.36719,31.333988 c 0,0 53.28833,65.38773 86.12891,100.60547 1.55579,45.54123 -15.36175,93.58417 -38.03711,136.77148 a 20.002,20.002 0 0 0 -0.28516,0.56445 C 284.17912,451.71603 198.96031,513.6138 135.71289,599.75195 a 20.002,20.002 0 0 0 -0.0391,0.0547 C 82.615223,672.58147 37.775649,773.35522 74.853516,868.88672 a 20.002,20.002 0 0 0 0.04687,0.12109 C 103.13822,940.37454 179.92347,971.94306 248.93945,970.42969 l -0.66406,0.004 c 102.53675,1.15729 204.9039,-0.12151 306.94531,0.33789 a 20.002,20.002 0 0 0 0.75586,-0.0117 c 85.07729,-2.82755 177.94239,12.82778 268.78321,-17.49415 70.60264,-23.24426 116.05932,-84.6521 113.92382,-173.41601 -2.07038,-86.05716 -27.75922,-198.48496 -78.61132,-286.7832 a 20.002,20.002 0 0 0 -0.11133,-0.1875 C 820.36552,425.8299 756.10177,352.942 689.57617,290.58984 625.64198,230.66652 560.7021,181.16236 510.56641,156.75195 c -8.05283,-15.47708 -15.08945,-42.08842 -18.98438,-64.916013 -4.28417,-25.108881 -5.64453,-45.5 -5.64453,-45.5 A 20.002,20.002 0 0 0 471.0957,28.324219 Z m -22.30664,47.296875 c 0.88023,6.959323 1.92547,14.528025 3.36133,22.943359 3.57155,20.932317 8.54983,44.755827 17.59961,65.748047 -21.64426,12.02637 -52.31077,25.53327 -77.63477,31.86133 -21.90791,-23.76816 -47.26525,-53.97426 -64.21679,-74.44727 z m 48.39453,119.187496 c 42.56505,21.86297 104.99485,68.68746 165.03907,124.96485 64.48165,60.43643 126.89531,131.83395 163.2539,193.37695 46.27395,80.41283 71.32611,188.99268 73.21875,267.66211 1.82796,75.98054 -29.44086,115.71069 -86.48242,134.47266 a 20.002,20.002 0 0 0 -0.0859,0.0293 c -78.78179,26.30777 -167.0045,12.46179 -257.48047,15.46875 l 0.75586,-0.0117 c -102.49462,-0.46145 -204.77345,0.8142 -306.67578,-0.33593 a 20.002,20.002 0 0 0 -0.66406,0.004 c -56.15011,1.23125 -115.51877,-24.55514 -135.94531,-76.09961 -29.473852,-76.05707 6.94918,-163.84972 55.86133,-230.94531 0.005,-0.007 0.0104,-0.0144 0.0156,-0.0215 58.18337,-79.21604 146.51113,-142.54996 194.93164,-242.29297 22.93357,-43.78925 42.20853,-94.26943 42.61328,-146.88672 33.17515,-8.53444 67.4001,-24.62433 91.64453,-39.38477 z" />
</svg>
