<svg xmlns="http://www.w3.org/2000/svg"  viewBox="0 0 50 50" width="1000px" height="1000px"><path d="M 11.875 0 C 11.398438 0.0898438 11.054688 0.511719 11.0625 1 L 11.0625 49 C 11.0625 49.550781 11.511719 50 12.0625 50 L 21.3125 50 C 21.820313 50.003906 22.25 49.628906 22.3125 49.125 L 25 24.90625 L 27.6875 49.125 C 27.75 49.628906 28.179688 50.003906 28.6875 50 L 37.9375 50 C 38.488281 50 38.9375 49.550781 38.9375 49 L 38.9375 1 C 38.9375 0.449219 38.488281 0 37.9375 0 L 12.0625 0 C 12.03125 0 12 0 11.96875 0 C 11.9375 0 11.90625 0 11.875 0 Z M 13.0625 2 L 36.9375 2 L 36.9375 4 L 31.1875 4 C 31.054688 3.972656 30.914063 3.972656 30.78125 4 L 19.1875 4 C 19.054688 3.972656 18.914063 3.972656 18.78125 4 L 13.0625 4 Z M 13.0625 6 L 17.96875 6 C 17.742188 9.285156 16.414063 10.9375 15.125 11.875 C 14.332031 12.453125 13.59375 12.707031 13.0625 12.84375 Z M 19.9375 6 L 30.0625 6 C 30.316406 9.867188 31.964844 12.214844 33.6875 13.46875 C 34.96875 14.402344 36.246094 14.730469 36.9375 14.875 L 36.9375 48 L 29.59375 48 L 26 15.65625 C 25.992188 15.109375 25.546875 14.671875 25 14.671875 C 24.453125 14.671875 24.007813 15.109375 24 15.65625 L 20.40625 48 L 13.0625 48 L 13.0625 14.875 C 13.753906 14.730469 15.03125 14.402344 16.3125 13.46875 C 18.035156 12.214844 19.683594 9.867188 19.9375 6 Z M 32.03125 6 L 36.9375 6 L 36.9375 12.84375 C 36.40625 12.707031 35.667969 12.453125 34.875 11.875 C 33.585938 10.9375 32.257813 9.285156 32.03125 6 Z"/></svg>