<svg fill="#000000" xmlns="http://www.w3.org/2000/svg"  viewBox="0 0 50 50" width="1000px" height="1000px"><path d="M 9.8125 0 C 9.335938 0.0898438 8.992188 0.511719 9 1 C 9 24.761719 14.507813 38.046875 15 39.1875 L 15 47 C 15 48.644531 16.355469 50 18 50 L 32 50 C 33.644531 50 35 48.644531 35 47 L 35 39.1875 C 35.492188 38.054688 41 24.859375 41 1 C 41 0.449219 40.550781 0 40 0 L 10 0 C 9.96875 0 9.9375 0 9.90625 0 C 9.875 0 9.84375 0 9.8125 0 Z M 11.03125 2 L 38.96875 2 C 38.964844 2.6875 38.949219 3.328125 38.9375 4 L 11.0625 4 C 11.046875 3.332031 11.035156 2.6875 11.03125 2 Z M 11.125 6 L 38.875 6 C 38.25 24.511719 34.367188 35.433594 33.34375 38 L 16.65625 38 C 15.632813 35.417969 11.75 24.449219 11.125 6 Z M 20.8125 16 C 20.335938 16.089844 19.992188 16.511719 20 17 L 20 25 C 20 25.550781 20.449219 26 21 26 L 29 26 C 29.550781 26 30 25.550781 30 25 L 30 17 C 30 16.449219 29.550781 16 29 16 L 21 16 C 20.96875 16 20.9375 16 20.90625 16 C 20.875 16 20.84375 16 20.8125 16 Z M 22 18 L 28 18 L 28 24 L 22 24 Z M 17 40 L 33 40 L 33 47 C 33 47.554688 32.554688 48 32 48 L 18 48 C 17.445313 48 17 47.554688 17 47 Z"/></svg>