<svg xmlns="http://www.w3.org/2000/svg"  viewBox="0 0 50 50" width="1000px" height="1000px"><path d="M 13 3 C 12.640625 2.996094 12.304688 3.183594 12.121094 3.496094 C 11.941406 3.808594 11.941406 4.191406 12.121094 4.503906 C 12.304688 4.816406 12.640625 5.003906 13 5 L 15.042969 5 C 15.253906 9.144531 16.730469 11.890625 18.265625 13.550781 C 18.414063 13.714844 18.566406 13.855469 18.71875 14 L 10 14 C 9.640625 13.996094 9.304688 14.183594 9.121094 14.496094 C 8.941406 14.808594 8.941406 15.191406 9.121094 15.503906 C 9.304688 15.816406 9.640625 16.003906 10 16 L 12.042969 16 C 12.261719 21.636719 14.238281 25.171875 16.292969 27.222656 C 16.582031 27.511719 16.871094 27.765625 17.15625 28 L 6 28 C 5.640625 27.996094 5.304688 28.183594 5.121094 28.496094 C 4.941406 28.808594 4.941406 29.191406 5.121094 29.503906 C 5.304688 29.816406 5.640625 30.003906 6 30 L 9.023438 30 C 9.25 37.574219 12.015625 41.914063 14.863281 44.25 C 17.839844 46.691406 20.90625 46.996094 20.90625 46.996094 C 20.9375 47 20.96875 47 21 47 L 29 47 C 29.03125 47 29.058594 47 29.089844 46.996094 C 29.089844 46.996094 32.15625 46.71875 35.132813 44.285156 C 37.984375 41.957031 40.753906 37.613281 40.980469 30 L 44 30 C 44.359375 30.003906 44.695313 29.816406 44.878906 29.503906 C 45.058594 29.191406 45.058594 28.808594 44.878906 28.496094 C 44.695313 28.183594 44.359375 27.996094 44 28 L 32.84375 28 C 33.128906 27.765625 33.417969 27.511719 33.707031 27.222656 C 35.761719 25.171875 37.738281 21.636719 37.957031 16 L 40 16 C 40.359375 16.003906 40.695313 15.816406 40.878906 15.503906 C 41.058594 15.191406 41.058594 14.808594 40.878906 14.496094 C 40.695313 14.183594 40.359375 13.996094 40 14 L 31.300781 14 C 31.445313 13.863281 31.589844 13.730469 31.734375 13.578125 C 33.269531 11.917969 34.746094 9.171875 34.957031 5 L 37 5 C 37.359375 5.003906 37.695313 4.816406 37.878906 4.503906 C 38.058594 4.191406 38.058594 3.808594 37.878906 3.496094 C 37.695313 3.183594 37.359375 2.996094 37 3 Z M 17.082031 5 L 32.917969 5 C 32.707031 8.652344 31.492188 10.894531 30.265625 12.21875 C 29.015625 13.570313 27.941406 13.949219 27.796875 14 L 22.210938 14 C 22.0625 13.949219 20.988281 13.554688 19.734375 12.199219 C 18.507813 10.867188 17.292969 8.625 17.082031 5 Z M 14.082031 16 L 35.917969 16 C 35.695313 21.113281 33.996094 24.105469 32.292969 25.808594 C 30.535156 27.5625 28.949219 27.972656 28.835938 28 L 21.164063 28 C 21.050781 27.972656 19.464844 27.5625 17.707031 25.808594 C 16.003906 24.105469 14.304688 21.113281 14.082031 16 Z M 11.089844 30 L 38.910156 30 C 38.675781 37.050781 36.269531 40.777344 33.867188 42.738281 C 31.355469 44.789063 28.957031 44.996094 28.929688 45 L 21.078125 45 C 21.054688 44.996094 18.648438 44.769531 16.136719 42.703125 C 13.730469 40.730469 11.324219 37.007813 11.089844 30 Z"/></svg>