<svg xmlns="http://www.w3.org/2000/svg"  viewBox="0 0 50 50" width="1000px" height="1000px"><path d="M 34.96875 6 C 34.640625 6 34.296875 6.058594 33.9375 6.1875 C 33.238281 6.4375 32.6875 6.910156 32.375 7.4375 C 32.0625 7.964844 31.941406 8.519531 31.90625 9 C 31.855469 9.703125 31.964844 10 32.03125 10.28125 C 31.6875 11.378906 30.144531 13.128906 28.3125 13.875 C 26.90625 14.445313 23.851563 15 19 15 C 18.957031 14.996094 18.917969 14.996094 18.875 15 C 15.535156 15.023438 11.113281 16.082031 7.46875 19.5 C 3.78125 22.957031 1 28.792969 1 38 L 1 38.40625 L 1.28125 38.71875 C 1.28125 38.71875 2.941406 40.347656 6.1875 41.90625 C 9.433594 43.464844 14.347656 45 21 45 C 28.839844 45 34.089844 42.847656 37.375 40.15625 C 40.660156 37.464844 42 34.34375 42 32.125 C 42 28.414063 39.90625 26.070313 38.9375 25.09375 C 39.507813 24.582031 40.105469 23.96875 40.65625 23.65625 C 42.273438 22.738281 43.035156 22.625 43.59375 22.65625 C 44.152344 22.6875 44.738281 23 45.78125 23 C 47.738281 23 49 21.585938 49 20.1875 C 49 18.339844 47.773438 17.558594 47.15625 17.21875 C 47.160156 16.882813 47.242188 16.667969 47.03125 16.0625 C 46.863281 15.589844 46.574219 15.0625 46.0625 14.65625 C 45.550781 14.25 44.84375 14 44.03125 14 C 42.605469 14 41.625 14.96875 41.25 15.78125 C 41.003906 16.316406 41.058594 16.523438 41.03125 16.8125 C 40.296875 17.703125 37.90625 19 36 19 C 35.359375 19 34.390625 18.773438 33.21875 18.4375 C 33.582031 17.683594 33.949219 16.976563 34.375 16.4375 C 35.527344 14.980469 36.222656 14.585938 36.75 14.40625 C 37.277344 14.226563 37.910156 14.296875 38.875 13.90625 C 40.6875 13.167969 41.339844 11.355469 40.8125 10.0625 C 40.109375 8.332031 38.652344 8.074219 37.96875 8 C 37.828125 7.710938 37.78125 7.480469 37.34375 7.03125 C 37.007813 6.683594 36.496094 6.339844 35.90625 6.15625 C 35.613281 6.0625 35.296875 6 34.96875 6 Z M 35.03125 8 C 35.417969 7.976563 35.644531 8.167969 35.90625 8.4375 C 36.257813 8.800781 36.4375 9.25 36.4375 9.25 L 36.6875 9.875 L 37.34375 9.875 C 37.34375 9.875 38.613281 9.941406 38.96875 10.8125 C 39.066406 11.046875 39.128906 11.625 38.125 12.03125 C 37.601563 12.246094 37.035156 12.207031 36.09375 12.53125 C 35.152344 12.855469 34.097656 13.589844 32.8125 15.21875 C 32.191406 16.003906 31.691406 16.898438 31.25 17.84375 C 30.492188 17.601563 29.699219 17.335938 28.875 17.0625 C 28.183594 16.832031 27.480469 16.59375 26.75 16.375 C 27.671875 16.1875 28.441406 15.972656 29.0625 15.71875 C 31.5 14.726563 33.464844 12.800781 34.03125 10.75 L 34.09375 10.46875 L 34 10.1875 C 34 10.1875 33.867188 9.6875 33.90625 9.15625 C 33.925781 8.890625 33.996094 8.636719 34.09375 8.46875 C 34.191406 8.300781 34.300781 8.199219 34.59375 8.09375 C 34.769531 8.03125 34.902344 8.007813 35.03125 8 Z M 44.03125 16 C 44.472656 16 44.667969 16.101563 44.8125 16.21875 C 44.957031 16.335938 45.078125 16.496094 45.15625 16.71875 C 45.3125 17.164063 45.28125 17.6875 45.28125 17.6875 L 45.1875 18.40625 L 45.875 18.71875 C 45.875 18.71875 47 19.246094 47 20.1875 C 47 20.441406 46.863281 21 45.78125 21 C 45.214844 21 44.683594 20.742188 43.6875 20.6875 C 42.691406 20.632813 41.460938 20.914063 39.65625 21.9375 C 38.714844 22.472656 37.917969 23.28125 37.09375 24.0625 C 37.085938 24.066406 37.070313 24.058594 37.0625 24.0625 C 36.941406 24.125 36.835938 24.207031 36.75 24.3125 C 36.726563 24.34375 36.707031 24.375 36.6875 24.40625 C 35.464844 25.609375 34.253906 26.878906 32.9375 28.09375 C 30.597656 30.253906 27.949219 32 24 32 C 20.015625 32 16.75 28.34375 16.75 28.34375 C 16.527344 28.039063 16.152344 27.886719 15.777344 27.949219 C 15.40625 28.011719 15.101563 28.28125 14.988281 28.640625 C 14.878906 29 14.980469 29.394531 15.25 29.65625 C 15.25 29.65625 18.847656 34 24 34 C 28.550781 34 31.769531 31.878906 34.28125 29.5625 C 35.445313 28.488281 36.464844 27.398438 37.4375 26.40625 C 38.203125 27.214844 40 29.28125 40 32.125 C 40 33.46875 39.007813 36.265625 36.125 38.625 C 33.242188 40.984375 28.476563 43 21 43 C 14.652344 43 10.066406 41.535156 7.0625 40.09375 C 4.527344 38.875 3.390625 37.894531 3.03125 37.5625 C 3.125 29.042969 5.632813 23.953125 8.8125 20.96875 C 12 17.980469 15.925781 17.03125 18.84375 17 C 18.894531 17.003906 18.949219 17.003906 19 17 C 21.929688 17 25.242188 17.945313 28.25 18.9375 C 31.257813 19.929688 33.894531 21 36 21 C 38.707031 21 41.386719 19.664063 42.6875 17.96875 L 42.875 17.71875 L 42.90625 17.375 C 42.90625 17.375 42.925781 16.960938 43.09375 16.59375 C 43.261719 16.226563 43.351563 16 44.03125 16 Z"/></svg>