<svg xmlns="http://www.w3.org/2000/svg"  viewBox="0 0 50 50" width="1000px" height="1000px"><path d="M 25.015625 1.953125 L 24.128906 3.503906 L 19.269531 12.015625 L 24 11.976563 L 24 32.082031 L 16.414063 26.785156 C 16.152344 26.597656 16 26.300781 16 25.980469 L 16 24.855469 C 17.714844 24.40625 19 22.851563 19 21 C 19 18.800781 17.199219 17 15 17 C 12.800781 17 11 18.800781 11 21 C 11 22.851563 12.285156 24.40625 14 24.855469 L 14 25.980469 C 14 26.941406 14.464844 27.847656 15.246094 28.40625 L 15.25 28.410156 L 24 34.519531 L 24 36.09375 C 21.171875 36.570313 19 39.039063 19 42 C 19 45.300781 21.699219 48 25 48 C 28.300781 48 31 45.300781 31 42 C 31 39.039063 28.828125 36.570313 26 36.09375 L 26 30.566406 L 34.542969 25.441406 C 35.445313 24.898438 36 23.917969 36 22.863281 L 36 21 L 39 21 L 39 13 L 31 13 L 31 21 L 34 21 L 34 22.863281 C 34 23.21875 33.816406 23.542969 33.515625 23.726563 L 26 28.234375 L 26 11.957031 L 30.496094 11.921875 Z M 24.984375 6.046875 L 27.128906 9.953125 L 22.734375 9.984375 Z M 33 15 L 37 15 L 37 19 L 33 19 Z M 15 19 C 16.117188 19 17 19.882813 17 21 C 17 22.117188 16.117188 23 15 23 C 13.882813 23 13 22.117188 13 21 C 13 19.882813 13.882813 19 15 19 Z M 25 38 C 27.222656 38 29 39.777344 29 42 C 29 44.222656 27.222656 46 25 46 C 22.777344 46 21 44.222656 21 42 C 21 39.777344 22.777344 38 25 38 Z"/></svg>