<svg xmlns="http://www.w3.org/2000/svg"  viewBox="0 0 50 50" width="1000px" height="1000px"><path d="M 23 2 C 22.449219 2 22 2.449219 22 3 L 22 6.78125 C 22 10.910156 20.8125 14.949219 18.574219 18.417969 C 17.699219 19.742188 16.988281 21.304688 17 23.003906 C 17 23.269531 17 25.203125 17 26 L 17 41 C 17 43.085938 17 47 17 47 C 17 47.550781 17.449219 48 18 48 L 32 48 C 32.265625 48 32.519531 47.894531 32.707031 47.707031 C 32.894531 47.519531 33 47.261719 33 47 C 33 47 32.992188 43.394531 32.988281 41.132813 C 32.996094 41.089844 33 41.042969 33 41 L 33 26 C 33 25.976563 33 25.953125 32.996094 25.933594 C 33 25.234375 32.996094 23.28125 33 23.019531 C 33 23.007813 33 23 33 22.988281 C 32.980469 21.3125 32.273438 19.765625 31.40625 18.449219 L 31.402344 18.4375 C 29.179688 14.976563 28 10.949219 28 6.835938 L 28 3 C 28 2.449219 27.550781 2 27 2 Z M 24 4 L 26 4 L 26 6.835938 C 26 8.582031 26.199219 10.3125 26.578125 12 L 23.40625 12 C 23.792969 10.296875 24 8.546875 24 6.78125 Z M 22.84375 14 L 27.136719 14 C 27.757813 15.9375 28.617188 17.796875 29.726563 19.527344 C 29.726563 19.53125 29.730469 19.535156 29.730469 19.535156 C 30.46875 20.664063 30.988281 21.90625 31 23.011719 C 30.996094 23.222656 31 24.578125 30.996094 25 L 19 25 C 19 24.578125 19 23.179688 19 22.996094 C 18.992188 21.878906 19.503906 20.636719 20.25 19.511719 C 20.25 19.507813 20.253906 19.503906 20.253906 19.5 C 21.363281 17.78125 22.222656 15.929688 22.84375 14 Z M 19 27 L 30.996094 27 C 30.984375 30.972656 30.980469 35.238281 30.988281 40 L 19 40 Z M 29.011719 29.992188 C 28.820313 29.992188 28.632813 30.046875 28.46875 30.152344 L 20.46875 35.152344 C 20.152344 35.335938 19.960938 35.675781 19.96875 36.042969 C 19.976563 36.410156 20.183594 36.742188 20.507813 36.910156 C 20.835938 37.078125 21.226563 37.054688 21.53125 36.847656 L 29.53125 31.847656 C 29.914063 31.613281 30.09375 31.15625 29.972656 30.722656 C 29.851563 30.289063 29.457031 29.992188 29.011719 29.992188 Z M 19 42 L 30.992188 42 C 30.996094 43.203125 31 45.707031 31 46 L 19 46 C 19 45.710938 19 43.167969 19 42 Z"/></svg>