<svg xmlns="http://www.w3.org/2000/svg"  viewBox="0 0 50 50" width="1000px" height="1000px"><path d="M 6 3 C 5.0833335 3 4.268559 3.3797556 3.7519531 3.9609375 C 3.2353472 4.5421194 3 5.2777779 3 6 C 3 6.7222221 3.2353472 7.4578806 3.7519531 8.0390625 C 4.268559 8.6202444 5.0833335 9 6 9 C 6.9166665 9 7.731441 8.6202444 8.2480469 8.0390625 C 8.7646528 7.4578806 9 6.7222221 9 6 C 9 5.2777779 8.7646528 4.5421194 8.2480469 3.9609375 C 7.731441 3.3797556 6.9166665 3 6 3 z M 43 4 C 41.75 4 40.685226 4.5047556 40.001953 5.2734375 C 39.318681 6.0421194 39 7.0277779 39 8 C 39 8.9722221 39.318681 9.9578811 40.001953 10.726562 C 40.685226 11.495245 41.75 12 43 12 C 44.25 12 45.314774 11.495244 45.998047 10.726562 C 46.681319 9.9578811 47 8.9722221 47 8 C 47 7.0277779 46.681319 6.0421194 45.998047 5.2734375 C 45.314774 4.5047556 44.25 4 43 4 z M 6 5 C 6.4166663 5 6.6018927 5.1202444 6.7519531 5.2890625 C 6.9020136 5.4578806 7 5.7222221 7 6 C 7 6.2777779 6.9020136 6.5421194 6.7519531 6.7109375 C 6.6018927 6.8797556 6.4166663 7 6 7 C 5.5833337 7 5.3981073 6.8797556 5.2480469 6.7109375 C 5.0979864 6.5421194 5 6.2777779 5 6 C 5 5.7222221 5.0979864 5.4578806 5.2480469 5.2890625 C 5.3981073 5.1202444 5.5833337 5 6 5 z M 43 6 C 43.749999 6 44.185226 6.2452444 44.501953 6.6015625 C 44.81868 6.9578806 45 7.4722221 45 8 C 45 8.5277779 44.81868 9.0421194 44.501953 9.3984375 C 44.185226 9.7547556 43.749999 10 43 10 C 42.250001 10 41.814774 9.7547556 41.498047 9.3984375 C 41.18132 9.0421194 41 8.5277779 41 8 C 41 7.4722221 41.18132 6.9578806 41.498047 6.6015625 C 41.814774 6.2452444 42.250001 6 43 6 z M 25 7 C 21.145031 7 17.571399 8.1764938 14.574219 10.160156 C 13.811896 9.4598343 12.754098 9 11.5 9 C 10.083334 9 8.8935589 9.5672551 8.1269531 10.429688 C 7.3603473 11.292118 7 12.402778 7 13.5 C 7 14.597222 7.3603473 15.707881 8.1269531 16.570312 C 8.2073708 16.660782 8.3108862 16.732747 8.4003906 16.816406 C 6.8821952 19.542277 6 22.665709 6 26 C 6 34.376 11.455141 41.490719 18.994141 44.011719 C 18.614141 43.251719 18.333875 42.428641 18.171875 41.556641 C 12.190875 38.920641 8 32.945 8 26 C 8 23.027002 8.7821311 20.239008 10.130859 17.806641 C 10.555835 17.929377 11.013582 18 11.5 18 C 12.916666 18 14.106441 17.432744 14.873047 16.570312 C 15.639653 15.707881 16 14.597222 16 13.5 C 16 12.927291 15.896238 12.353367 15.693359 11.810547 C 18.370142 10.045061 21.560502 9 25 9 C 33.788 9 41.040109 15.701672 41.912109 24.263672 C 42.625109 24.438672 43.309172 24.69925 43.951172 25.03125 C 43.442172 15.00625 35.149 7 25 7 z M 11.5 11 C 12.416666 11 12.976893 11.307744 13.376953 11.757812 C 13.777013 12.207882 14 12.847222 14 13.5 C 14 14.152778 13.777013 14.792119 13.376953 15.242188 C 12.976893 15.692255 12.416666 16 11.5 16 C 10.583334 16 10.023107 15.692256 9.6230469 15.242188 C 9.2229865 14.792118 9 14.152778 9 13.5 C 9 12.847222 9.2229865 12.207881 9.6230469 11.757812 C 10.023107 11.307745 10.583334 11 11.5 11 z M 25 14 C 18.383 14 13 19.383 13 26 C 13 30.011 14.985578 33.560234 18.017578 35.740234 L 18.027344 33.154297 C 16.162344 31.336297 15 28.803 15 26 C 15 20.486 19.486 16 25 16 C 30.3 16 34.63975 20.148188 34.96875 25.367188 C 35.41375 25.154187 36.11125 24.845266 36.90625 24.572266 C 36.19725 18.627266 31.133 14 25 14 z M 27.25 26 C 23.257637 26 20 29.257637 20 33.25 C 20 33.363909 20.012333 33.475236 20.017578 33.587891 L 20 33.587891 L 20 40.009766 A 1.0001 1.0001 0 0 0 20.103516 40.449219 C 20.426636 44.146339 23.472145 47.087891 27.25 47.087891 C 28.223961 47.087891 29.181922 46.739824 29.990234 46.423828 C 30.798547 46.107832 31.427734 45.791016 31.427734 45.791016 A 1.0001 1.0001 0 0 0 31.441406 45.783203 C 31.993306 45.493888 32.705797 45.302734 33.5 45.302734 C 34.294203 45.302734 35.006694 45.493888 35.558594 45.783203 A 1.0001 1.0001 0 0 0 35.572266 45.791016 C 35.572266 45.791016 36.201453 46.107832 37.009766 46.423828 C 37.818078 46.739824 38.776039 47.087891 39.75 47.087891 C 43.527192 47.087891 46.572441 44.147369 46.896484 40.451172 A 1.0001 1.0001 0 0 0 47 40.009766 L 47 33.587891 L 46.982422 33.587891 C 46.987667 33.475236 47 33.363909 47 33.25 C 47 29.257637 43.742363 26 39.75 26 C 38.776039 26 37.818078 26.348067 37.009766 26.664062 C 36.201453 26.980058 35.572266 27.296875 35.572266 27.296875 L 35.564453 27.300781 L 35.558594 27.304688 C 35.006694 27.594002 34.294203 27.785156 33.5 27.785156 C 32.705797 27.785156 31.993306 27.594002 31.441406 27.304688 L 31.435547 27.300781 L 31.427734 27.296875 C 31.427734 27.296875 30.798547 26.980058 29.990234 26.664062 C 29.181978 26.348067 28.223961 26 27.25 26 z M 27.25 28 C 27.644039 28 28.549984 28.246387 29.263672 28.525391 C 29.969672 28.801389 30.50197 29.070289 30.513672 29.076172 C 31.365772 29.522857 32.388203 29.785156 33.5 29.785156 C 34.611797 29.785156 35.634228 29.522857 36.486328 29.076172 C 36.498028 29.070272 37.030328 28.801389 37.736328 28.525391 C 38.450016 28.246387 39.355961 28 39.75 28 C 42.661637 28 45 30.338363 45 33.25 C 45 36.161637 42.661637 38.5 39.75 38.5 C 39.355961 38.5 38.450016 38.253613 37.736328 37.974609 C 37.030328 37.698611 36.49803 37.429711 36.486328 37.423828 C 35.634228 36.977143 34.611797 36.714844 33.5 36.714844 C 32.388203 36.714844 31.365772 36.977143 30.513672 37.423828 C 30.501972 37.429728 29.969672 37.698611 29.263672 37.974609 C 28.549984 38.253613 27.644039 38.5 27.25 38.5 C 24.338363 38.5 22 36.161637 22 33.25 C 22 30.338363 24.338363 28 27.25 28 z M 28.064453 30 A 1 1 0 0 0 28.064453 32 A 1 1 0 0 0 28.064453 30 z M 37.064453 31 A 1 1 0 0 0 37.064453 33 A 1 1 0 0 0 37.064453 31 z M 41.064453 31 A 1 1 0 0 0 41.064453 33 A 1 1 0 0 0 41.064453 31 z M 25.064453 32 A 1 1 0 0 0 25.064453 34 A 1 1 0 0 0 25.064453 32 z M 30.064453 33 A 1 1 0 0 0 30.064453 35 A 1 1 0 0 0 30.064453 33 z M 34.064453 33 A 1 1 0 0 0 34.064453 35 A 1 1 0 0 0 34.064453 33 z M 27.064453 35 A 1 1 0 0 0 27.064453 37 A 1 1 0 0 0 27.064453 35 z M 40.064453 35 A 1 1 0 0 0 40.064453 37 A 1 1 0 0 0 40.064453 35 z M 22 38.232422 C 23.322657 39.625359 25.185852 40.5 27.25 40.5 C 28.223961 40.5 29.181922 40.151933 29.990234 39.835938 C 30.798547 39.519942 31.427734 39.203125 31.427734 39.203125 L 31.435547 39.199219 L 31.441406 39.195312 C 31.993306 38.905997 32.705797 38.714844 33.5 38.714844 C 34.294203 38.714844 35.006694 38.905997 35.558594 39.195312 L 35.564453 39.199219 L 35.572266 39.203125 C 35.572266 39.203125 36.201453 39.519942 37.009766 39.835938 C 37.818022 40.151933 38.776039 40.5 39.75 40.5 C 41.814148 40.5 43.677343 39.625359 45 38.232422 L 45 39.888672 A 1.0001 1.0001 0 0 0 44.992188 39.982422 C 44.915487 42.824565 42.612277 45.087891 39.75 45.087891 C 39.355961 45.087891 38.450016 44.841504 37.736328 44.5625 C 37.030328 44.286501 36.49803 44.017602 36.486328 44.011719 C 35.634228 43.565034 34.611797 43.302734 33.5 43.302734 C 32.388203 43.302734 31.365772 43.565034 30.513672 44.011719 C 30.501972 44.017619 29.969672 44.286501 29.263672 44.5625 C 28.549984 44.841504 27.644039 45.087891 27.25 45.087891 C 24.387723 45.087891 22.084513 42.824565 22.007812 39.982422 A 1.0001 1.0001 0 0 0 22 39.882812 L 22 38.232422 z M 31.064453 40 A 1 1 0 0 0 31.064453 42 A 1 1 0 0 0 31.064453 40 z M 37.064453 41 A 1 1 0 0 0 37.064453 43 A 1 1 0 0 0 37.064453 41 z M 42.064453 41 A 1 1 0 0 0 42.064453 43 A 1 1 0 0 0 42.064453 41 z M 27.064453 42 A 1 1 0 0 0 27.064453 44 A 1 1 0 0 0 27.064453 42 z"/></svg>