<?xml version="1.0" encoding="utf-8"?><!-- Generator: Adobe Illustrator 17.0.0, SVG Export Plug-In . SVG Version: 6.00 Build 0)  --><!DOCTYPE svg PUBLIC "-//W3C//DTD SVG 1.1//EN" "http://www.w3.org/Graphics/SVG/1.1/DTD/svg11.dtd"><svg xmlns="http://www.w3.org/2000/svg" xmlns:xlink="http://www.w3.org/1999/xlink" viewBox="0 0 50 50" width="1000px" height="1000px"><path fill="none" stroke="#000000" stroke-width="2" stroke-linecap="round" stroke-linejoin="round" stroke-miterlimit="10" d="M41,20H22c-1.06,0-2,0.94-2,2v2h23v-2C43,20.94,42.06,20,41,20z"/><path fill="none" stroke="#000000" stroke-width="2" stroke-linecap="round" stroke-linejoin="round" stroke-miterlimit="10" d="M20,24v5c0,2.561-7.946-4.425-11.023-7.502c-1.878-1.878-2.069-2.874-1.463-3.479s0.159-1.051,0.159-1.051l-0.704-0.704c-0.265-0.266-0.696-0.266-0.961,0l-4.808,4.808c-0.265,0.265-0.265,0.696,0,0.961l0.703,0.703c0,0,0.468,0.424,1.022-0.13c0.554-0.554,1.594-0.482,3.51,1.434C8.35,25.956,20,39.96,20,43c0,1.06,0.94,2,2,2h19c1.06,0,2-0.94,2-2V24"/><path fill="none" stroke="#000000" stroke-width="2" stroke-linecap="round" stroke-linejoin="round" stroke-miterlimit="10" d="M22.082,20C22.828,13.25,28.551,8,35.5,8C42.956,8,49,14.044,49,21.5c0,4.587-2.288,8.64-5.785,11.079c0,0-0.075,0.05-0.215,0.135"/></svg>