<svg xmlns="http://www.w3.org/2000/svg"  viewBox="0 0 50 50" width="1000px" height="1000px"><path d="M 40.90625 0.09375 L 40.1875 0.78125 L 0.78125 40.1875 L 0.09375 40.90625 L 0.78125 41.59375 C 12.0625 52.875 30.3125 52.875 41.59375 41.59375 C 52.875 30.3125 52.875 12.0625 41.59375 0.78125 Z M 40.8125 3 C 50.621094 13.558594 50.464844 29.910156 40.1875 40.1875 C 29.910156 50.464844 13.558594 50.621094 3 40.8125 L 4.3125 39.5 C 14.039063 48.488281 29.269531 48.261719 38.71875 38.8125 C 48.167969 29.363281 48.394531 14.132813 39.40625 4.40625 Z M 38 5.8125 C 46.207031 14.773438 45.957031 28.730469 37.28125 37.40625 C 28.601563 46.085938 14.675781 46.3125 5.71875 38.09375 Z M 38.8125 12.5 C 38.609375 12.492188 38.386719 12.519531 38.1875 12.59375 C 37.386719 12.992188 35.8125 15.1875 35.8125 15.1875 C 35.8125 15.1875 38.605469 15.894531 39.40625 15.59375 C 40.207031 15.195313 40.613281 14.300781 40.3125 13.5 C 40.011719 12.898438 39.421875 12.523438 38.8125 12.5 Z M 40.59375 19.59375 C 39.695313 19.59375 37.3125 21.09375 37.3125 21.09375 C 37.3125 21.09375 39.507813 22.8125 40.40625 22.8125 C 41.304688 22.8125 41.992188 22.113281 42.09375 21.3125 C 42.195313 20.414063 41.492188 19.59375 40.59375 19.59375 Z M 39.09375 26.5 C 37.96875 26.515625 36.40625 26.8125 36.40625 26.8125 C 36.40625 26.8125 37.886719 29.195313 38.6875 29.59375 C 39.488281 29.992188 40.414063 29.613281 40.8125 28.8125 C 41.210938 28.011719 40.800781 26.992188 40 26.59375 C 39.800781 26.519531 39.46875 26.496094 39.09375 26.5 Z M 32.8125 32.59375 C 32.8125 32.59375 33.085938 35.394531 33.6875 36.09375 C 34.289063 36.792969 35.300781 36.914063 36 36.3125 C 36.699219 35.710938 36.695313 34.699219 36.09375 34 C 35.492188 33.300781 32.8125 32.59375 32.8125 32.59375 Z M 15.8125 35.90625 C 15.8125 35.90625 13.304688 37.199219 12.90625 38 C 12.40625 38.800781 12.699219 39.789063 13.5 40.1875 C 14.300781 40.6875 15.289063 40.394531 15.6875 39.59375 C 16.085938 38.792969 15.8125 35.90625 15.8125 35.90625 Z M 27.40625 36.1875 C 27.40625 36.1875 26.488281 38.886719 26.6875 39.6875 C 26.988281 40.488281 27.886719 41.011719 28.6875 40.8125 C 29.585938 40.613281 30.113281 39.710938 29.8125 38.8125 C 29.613281 38.011719 27.40625 36.1875 27.40625 36.1875 Z M 21.5 37.1875 C 21.5 37.1875 19.695313 39.289063 19.59375 40.1875 C 19.492188 41.085938 20.101563 41.898438 21 42 C 21.898438 42.101563 22.6875 41.492188 22.6875 40.59375 C 22.789063 39.695313 21.5 37.1875 21.5 37.1875 Z"/></svg>