<svg fill="#000000" xmlns="http://www.w3.org/2000/svg"  viewBox="0 0 50 50" width="1000px" height="1000px"><path d="M 8 -0.15625 L 7.1875 0.90625 C 7.1875 0.90625 5.40625 3.25 3.625 6.28125 C 1.84375 9.3125 0 12.953125 0 16 C 0 20.429688 3.570313 24 8 24 C 12.429688 24 16 20.429688 16 16 C 16 12.953125 14.15625 9.3125 12.375 6.28125 C 10.59375 3.25 8.8125 0.90625 8.8125 0.90625 Z M 8 3.3125 C 8.542969 4.0625 9.308594 5.078125 10.625 7.3125 C 12.34375 10.234375 14 13.847656 14 16 C 14 19.371094 11.371094 22 8 22 C 4.628906 22 2 19.371094 2 16 C 2 13.847656 3.65625 10.234375 5.375 7.3125 C 6.691406 5.078125 7.457031 4.0625 8 3.3125 Z M 42 8.9375 L 41.21875 10 C 41.21875 10 39.40625 12.339844 37.625 15.34375 C 35.84375 18.347656 34 21.953125 34 25 C 34 29.429688 37.570313 33 42 33 C 46.429688 33 50 29.429688 50 25 C 50 21.953125 48.15625 18.347656 46.375 15.34375 C 44.59375 12.339844 42.78125 10 42.78125 10 Z M 42 12.40625 C 42.539063 13.140625 43.304688 14.144531 44.625 16.375 C 46.34375 19.269531 48 22.847656 48 25 C 48 28.371094 45.371094 31 42 31 C 38.628906 31 36 28.371094 36 25 C 36 22.847656 37.65625 19.269531 39.375 16.375 C 40.695313 14.144531 41.460938 13.140625 42 12.40625 Z M 22 25.84375 L 21.1875 26.90625 C 21.1875 26.90625 19.40625 29.25 17.625 32.28125 C 15.84375 35.3125 14 38.953125 14 42 C 14 46.429688 17.570313 50 22 50 C 26.429688 50 30 46.429688 30 42 C 30 38.953125 28.15625 35.3125 26.375 32.28125 C 24.59375 29.25 22.8125 26.90625 22.8125 26.90625 Z M 22 29.3125 C 22.542969 30.0625 23.308594 31.078125 24.625 33.3125 C 26.34375 36.234375 28 39.847656 28 42 C 28 45.371094 25.371094 48 22 48 C 18.628906 48 16 45.371094 16 42 C 16 39.847656 17.65625 36.234375 19.375 33.3125 C 20.691406 31.078125 21.457031 30.0625 22 29.3125 Z"/></svg>