<svg fill="#000000" xmlns="http://www.w3.org/2000/svg"  viewBox="0 0 50 50" width="1000px" height="1000px"><path d="M 48 1 C 48 1 46.773438 0.992188 45.3125 1.25 C 43.851563 1.507813 42.085938 1.976563 40.84375 3.21875 C 40.71875 3.34375 40.609375 3.464844 40.5 3.59375 C 40.046875 2.6875 39.53125 2.09375 39.53125 2.09375 C 39.300781 1.820313 38.945313 1.6875 38.59375 1.75 C 37.433594 1.929688 36.363281 2.652344 35.40625 3.625 C 34.523438 4.523438 33.789063 5.679688 33.4375 6.96875 C 32.878906 6.511719 32.375 6.21875 32.375 6.21875 C 32.175781 6.101563 31.945313 6.058594 31.71875 6.09375 C 31.597656 6.105469 31.484375 6.136719 31.375 6.1875 C 30.367188 6.738281 29.582031 7.746094 28.96875 8.96875 C 28.597656 9.707031 28.316406 10.519531 28.1875 11.375 C 27.871094 11.148438 27.625 10.96875 27.625 10.96875 C 27.417969 10.847656 27.175781 10.800781 26.9375 10.84375 C 26.828125 10.867188 26.722656 10.910156 26.625 10.96875 C 25.617188 11.519531 24.800781 12.527344 24.1875 13.75 C 23.828125 14.46875 23.570313 15.261719 23.4375 16.09375 C 23.128906 15.871094 22.875 15.71875 22.875 15.71875 C 22.667969 15.597656 22.425781 15.550781 22.1875 15.59375 C 22.078125 15.617188 21.972656 15.660156 21.875 15.71875 C 20.867188 16.265625 20.050781 17.277344 19.4375 18.5 C 19.066406 19.238281 18.808594 20.050781 18.6875 20.90625 C 18.371094 20.679688 18.125 20.5 18.125 20.5 C 17.921875 20.367188 17.679688 20.3125 17.4375 20.34375 C 17.328125 20.367188 17.222656 20.410156 17.125 20.46875 C 16.117188 21.019531 15.300781 22.027344 14.6875 23.25 C 14.320313 23.976563 14.039063 24.78125 13.90625 25.625 C 13.605469 25.410156 13.375 25.25 13.375 25.25 C 13.199219 25.136719 12.992188 25.082031 12.78125 25.09375 C 12.636719 25.105469 12.5 25.148438 12.375 25.21875 C 11.367188 25.769531 10.550781 26.777344 9.9375 28 C 9.324219 29.222656 8.929688 30.667969 9.125 32.125 C 9.347656 33.785156 10.042969 35.019531 10.875 35.8125 C 11.226563 36.144531 11.597656 36.410156 11.96875 36.59375 L 2.28125 46.28125 C 1.882813 46.679688 1.882813 47.320313 2.28125 47.71875 C 2.679688 48.117188 3.320313 48.117188 3.71875 47.71875 L 13.40625 38.03125 C 13.589844 38.402344 13.855469 38.773438 14.1875 39.125 C 14.980469 39.957031 16.214844 40.652344 17.875 40.875 C 19.332031 41.070313 20.777344 40.675781 22 40.0625 C 23.222656 39.449219 24.230469 38.632813 24.78125 37.625 C 24.949219 37.308594 24.9375 36.929688 24.75 36.625 C 24.75 36.625 24.589844 36.394531 24.375 36.09375 C 25.21875 35.960938 26.023438 35.679688 26.75 35.3125 C 27.972656 34.699219 28.980469 33.882813 29.53125 32.875 C 29.699219 32.558594 29.6875 32.179688 29.5 31.875 C 29.5 31.875 29.320313 31.628906 29.09375 31.3125 C 29.949219 31.183594 30.761719 30.902344 31.5 30.53125 C 32.722656 29.917969 33.730469 29.132813 34.28125 28.125 C 34.460938 27.816406 34.460938 27.433594 34.28125 27.125 C 34.28125 27.125 34.128906 26.871094 33.90625 26.5625 C 34.738281 26.429688 35.53125 26.171875 36.25 25.8125 C 37.472656 25.199219 38.480469 24.382813 39.03125 23.375 C 39.210938 23.066406 39.210938 22.683594 39.03125 22.375 C 39.03125 22.375 38.832031 22.128906 38.59375 21.8125 C 39.457031 21.683594 40.292969 21.402344 41.03125 21.03125 C 42.253906 20.417969 43.261719 19.632813 43.8125 18.625 C 43.980469 18.308594 43.96875 17.929688 43.78125 17.625 C 43.78125 17.625 43.488281 17.121094 43.03125 16.5625 C 44.320313 16.210938 45.476563 15.476563 46.375 14.59375 C 47.347656 13.636719 48.070313 12.566406 48.25 11.40625 C 48.300781 11.066406 48.167969 10.722656 47.90625 10.5 C 47.90625 10.5 47.316406 9.964844 46.40625 9.5 C 46.53125 9.390625 46.65625 9.28125 46.78125 9.15625 C 48.023438 7.914063 48.492188 6.148438 48.75 4.6875 C 49.007813 3.226563 49 2 49 2 C 49 1.449219 48.550781 1 48 1 Z M 46.90625 3.09375 C 46.878906 3.519531 46.898438 3.640625 46.78125 4.3125 C 46.554688 5.589844 46.066406 7.0625 45.375 7.75 C 44.371094 8.753906 43.332031 9.03125 42.46875 9.0625 C 42.039063 9.078125 41.640625 9.007813 41.375 8.9375 C 41.269531 8.910156 41.1875 8.878906 41.125 8.84375 C 41.085938 8.785156 41.054688 8.714844 41.03125 8.625 C 40.957031 8.359375 40.925781 7.988281 40.9375 7.5625 C 40.964844 6.710938 41.226563 5.648438 42.25 4.625 C 42.941406 3.933594 44.410156 3.445313 45.6875 3.21875 C 46.363281 3.101563 46.480469 3.121094 46.90625 3.09375 Z M 38.40625 4.0625 C 38.742188 4.597656 39.121094 5.300781 39.15625 5.96875 C 39.15625 6 39.15625 6.03125 39.15625 6.0625 C 39.015625 6.5625 38.953125 7.054688 38.9375 7.5 C 38.925781 7.925781 38.972656 8.308594 39.03125 8.65625 C 39.007813 8.6875 38.988281 8.71875 38.96875 8.75 C 38.621094 9.765625 38.167969 10.449219 37.71875 10.84375 C 37.296875 11.210938 36.878906 11.328125 36.375 11.3125 C 36.347656 11.292969 36.34375 11.277344 36.3125 11.25 C 36.140625 11.089844 35.914063 10.804688 35.71875 10.46875 C 35.324219 9.792969 35.027344 8.859375 35.28125 7.6875 C 35.480469 6.769531 36.105469 5.78125 36.84375 5.03125 C 37.402344 4.460938 37.933594 4.257813 38.40625 4.0625 Z M 32 8.40625 C 32.101563 8.484375 32.101563 8.464844 32.21875 8.5625 C 32.679688 8.949219 33.136719 9.492188 33.25 9.8125 C 33.289063 9.9375 33.351563 10.054688 33.4375 10.15625 C 33.574219 10.65625 33.746094 11.117188 33.96875 11.5 C 34.007813 11.570313 34.050781 11.621094 34.09375 11.6875 C 34.105469 11.773438 34.125 11.855469 34.15625 11.9375 C 34.355469 12.414063 34.246094 13.421875 33.8125 14.3125 C 33.394531 15.167969 32.730469 15.757813 32.34375 15.875 C 32.242188 15.875 31.753906 15.792969 31.28125 15.34375 C 30.792969 14.878906 30.292969 14.101563 30.125 12.84375 C 30.003906 11.933594 30.277344 10.816406 30.75 9.875 C 31.117188 9.144531 31.59375 8.753906 32 8.40625 Z M 43.875 10.84375 C 43.914063 10.832031 43.960938 10.855469 44 10.84375 C 44.011719 10.84375 44.019531 10.84375 44.03125 10.84375 C 44.695313 10.878906 45.402344 11.257813 45.9375 11.59375 C 45.742188 12.066406 45.539063 12.597656 44.96875 13.15625 C 44.21875 13.894531 43.230469 14.519531 42.3125 14.71875 C 41.140625 14.972656 40.207031 14.675781 39.53125 14.28125 C 39.195313 14.085938 38.910156 13.859375 38.75 13.6875 C 38.722656 13.65625 38.707031 13.652344 38.6875 13.625 C 38.671875 13.121094 38.789063 12.703125 39.15625 12.28125 C 39.253906 12.167969 39.363281 12.046875 39.5 11.9375 C 39.90625 11.605469 40.488281 11.292969 41.25 11.03125 C 41.292969 11.011719 41.335938 10.992188 41.375 10.96875 C 41.722656 11.03125 42.105469 11.078125 42.53125 11.0625 C 42.957031 11.046875 43.402344 10.972656 43.875 10.84375 Z M 27.25 13.15625 C 27.351563 13.234375 27.351563 13.214844 27.46875 13.3125 C 27.929688 13.699219 28.386719 14.273438 28.5 14.59375 C 28.539063 14.683594 28.59375 14.769531 28.65625 14.84375 C 28.820313 15.234375 29.003906 15.589844 29.21875 15.90625 C 29.222656 15.914063 29.214844 15.929688 29.21875 15.9375 C 29.230469 16.023438 29.25 16.105469 29.28125 16.1875 C 29.582031 17.015625 29.453125 18.140625 29.03125 19.0625 C 28.621094 19.96875 27.921875 20.558594 27.53125 20.65625 C 27.398438 20.644531 26.953125 20.523438 26.5 20.09375 C 26.199219 19.808594 25.90625 19.398438 25.6875 18.84375 C 25.671875 18.78125 25.652344 18.714844 25.625 18.65625 C 25.515625 18.34375 25.429688 18.003906 25.375 17.59375 C 25.253906 16.683594 25.527344 15.566406 26 14.625 C 26.367188 13.894531 26.84375 13.503906 27.25 13.15625 Z M 37.1875 15.75 C 37.339844 15.734375 37.492188 15.742188 37.625 15.75 C 37.800781 15.761719 37.945313 15.792969 38.0625 15.84375 C 38.144531 15.875 38.226563 15.894531 38.3125 15.90625 C 38.378906 15.949219 38.429688 15.992188 38.5 16.03125 C 38.894531 16.257813 39.359375 16.457031 39.875 16.59375 C 39.96875 16.664063 40.074219 16.714844 40.1875 16.75 C 40.507813 16.863281 41.050781 17.320313 41.4375 17.78125 C 41.535156 17.898438 41.515625 17.898438 41.59375 18 C 41.25 18.40625 40.855469 18.882813 40.125 19.25 C 39.183594 19.722656 38.070313 19.996094 37.15625 19.875 C 35.898438 19.707031 35.121094 19.207031 34.65625 18.71875 C 34.207031 18.246094 34.125 17.757813 34.125 17.65625 C 34.242188 17.269531 34.832031 16.605469 35.6875 16.1875 C 36.1875 15.941406 36.726563 15.792969 37.1875 15.75 Z M 22.5 17.90625 C 22.601563 17.984375 22.601563 17.964844 22.71875 18.0625 C 23.179688 18.449219 23.636719 19.023438 23.75 19.34375 C 23.773438 19.410156 23.804688 19.472656 23.84375 19.53125 C 24.023438 19.984375 24.222656 20.398438 24.46875 20.75 C 24.472656 20.757813 24.464844 20.773438 24.46875 20.78125 C 24.488281 20.8125 24.507813 20.84375 24.53125 20.875 C 24.53125 20.894531 24.53125 20.917969 24.53125 20.9375 C 24.832031 21.765625 24.703125 22.890625 24.28125 23.8125 C 23.878906 24.699219 23.207031 25.257813 22.8125 25.375 C 22.695313 25.367188 22.210938 25.285156 21.75 24.84375 C 21.261719 24.378906 20.792969 23.601563 20.625 22.34375 C 20.503906 21.433594 20.777344 20.316406 21.25 19.375 C 21.617188 18.644531 22.097656 18.25 22.5 17.90625 Z M 32.40625 20.5625 C 32.90625 20.515625 33.398438 20.570313 33.8125 20.71875 C 33.894531 20.75 33.976563 20.769531 34.0625 20.78125 C 34.378906 21 34.730469 21.179688 35.125 21.34375 C 35.210938 21.410156 35.304688 21.464844 35.40625 21.5 C 35.726563 21.613281 36.269531 22.070313 36.65625 22.53125 C 36.765625 22.664063 36.757813 22.667969 36.84375 22.78125 C 36.496094 23.183594 36.097656 23.636719 35.375 24 C 34.433594 24.472656 33.320313 24.746094 32.40625 24.625 C 31.996094 24.570313 31.65625 24.484375 31.34375 24.375 C 31.285156 24.347656 31.21875 24.328125 31.15625 24.3125 C 30.601563 24.09375 30.191406 23.796875 29.90625 23.5 C 29.476563 23.046875 29.355469 22.601563 29.34375 22.46875 C 29.441406 22.078125 30.03125 21.378906 30.9375 20.96875 C 31.398438 20.757813 31.90625 20.609375 32.40625 20.5625 Z M 17.71875 22.65625 C 17.832031 22.742188 17.835938 22.734375 17.96875 22.84375 C 18.429688 23.230469 18.886719 23.773438 19 24.09375 C 19.027344 24.195313 19.070313 24.289063 19.125 24.375 C 19.304688 24.824219 19.503906 25.246094 19.75 25.59375 C 19.757813 25.625 19.769531 25.65625 19.78125 25.6875 C 20.082031 26.515625 19.953125 27.671875 19.53125 28.59375 C 19.121094 29.5 18.421875 30.058594 18.03125 30.15625 C 17.898438 30.144531 17.453125 30.054688 17 29.625 C 16.511719 29.160156 16.042969 28.351563 15.875 27.09375 C 15.753906 26.183594 15.996094 25.097656 16.46875 24.15625 C 16.835938 23.429688 17.316406 23.003906 17.71875 22.65625 Z M 27.65625 25.3125 C 28.15625 25.265625 28.648438 25.320313 29.0625 25.46875 C 29.082031 25.46875 29.105469 25.46875 29.125 25.46875 C 29.164063 25.492188 29.207031 25.511719 29.25 25.53125 C 29.613281 25.785156 30.03125 26.003906 30.5 26.1875 C 30.507813 26.191406 30.523438 26.183594 30.53125 26.1875 C 30.550781 26.199219 30.574219 26.210938 30.59375 26.21875 C 30.617188 26.226563 30.632813 26.242188 30.65625 26.25 C 30.976563 26.363281 31.550781 26.820313 31.9375 27.28125 C 32.035156 27.398438 32.015625 27.398438 32.09375 27.5 C 31.75 27.90625 31.355469 28.382813 30.625 28.75 C 29.683594 29.222656 28.570313 29.496094 27.65625 29.375 C 26.398438 29.207031 25.621094 28.738281 25.15625 28.25 C 24.707031 27.777344 24.625 27.257813 24.625 27.15625 C 24.742188 26.761719 25.300781 26.121094 26.1875 25.71875 C 26.648438 25.507813 27.15625 25.359375 27.65625 25.3125 Z M 12.96875 27.4375 C 13.074219 27.515625 13.070313 27.496094 13.1875 27.59375 C 13.648438 27.980469 14.136719 28.523438 14.25 28.84375 C 14.277344 28.945313 14.320313 29.039063 14.375 29.125 C 14.550781 29.550781 14.734375 29.945313 14.96875 30.28125 C 14.984375 30.34375 15.003906 30.410156 15.03125 30.46875 C 15.332031 31.296875 15.203125 32.417969 14.78125 33.34375 C 14.371094 34.25 13.671875 34.808594 13.28125 34.90625 C 13.148438 34.894531 12.703125 34.804688 12.25 34.375 C 11.761719 33.910156 11.292969 33.132813 11.125 31.875 C 11.003906 30.964844 11.246094 29.847656 11.71875 28.90625 C 12.078125 28.1875 12.566406 27.785156 12.96875 27.4375 Z M 22.90625 30.0625 C 23.40625 30.015625 23.898438 30.070313 24.3125 30.21875 C 24.371094 30.246094 24.4375 30.265625 24.5 30.28125 C 24.847656 30.519531 25.246094 30.734375 25.6875 30.90625 C 25.757813 30.945313 25.828125 30.976563 25.90625 31 C 26.226563 31.113281 26.769531 31.570313 27.15625 32.03125 C 27.265625 32.164063 27.257813 32.167969 27.34375 32.28125 C 26.996094 32.683594 26.570313 33.164063 25.84375 33.53125 C 24.902344 34.003906 23.789063 34.246094 22.875 34.125 C 22.464844 34.070313 22.125 33.984375 21.8125 33.875 C 21.753906 33.847656 21.6875 33.828125 21.625 33.8125 C 21.070313 33.59375 20.660156 33.296875 20.375 33 C 19.945313 32.546875 19.855469 32.101563 19.84375 31.96875 C 19.941406 31.578125 20.5 30.878906 21.40625 30.46875 C 21.867188 30.257813 22.40625 30.109375 22.90625 30.0625 Z M 18.125 34.84375 C 18.625 34.796875 19.117188 34.820313 19.53125 34.96875 C 19.589844 34.996094 19.65625 35.015625 19.71875 35.03125 C 20.058594 35.269531 20.472656 35.445313 20.90625 35.625 C 20.949219 35.640625 20.988281 35.671875 21.03125 35.6875 C 21.050781 35.699219 21.074219 35.710938 21.09375 35.71875 C 21.117188 35.726563 21.132813 35.742188 21.15625 35.75 C 21.476563 35.863281 22.019531 36.351563 22.40625 36.8125 C 22.503906 36.929688 22.484375 36.925781 22.5625 37.03125 C 22.214844 37.433594 21.8125 37.921875 21.09375 38.28125 C 20.152344 38.753906 19.039063 38.996094 18.125 38.875 C 16.867188 38.707031 16.089844 38.238281 15.625 37.75 C 15.195313 37.296875 15.105469 36.851563 15.09375 36.71875 C 15.191406 36.328125 15.75 35.628906 16.65625 35.21875 C 17.117188 35.007813 17.625 34.890625 18.125 34.84375 Z"/></svg>