<svg xmlns="http://www.w3.org/2000/svg"  viewBox="0 0 50 50" width="1000px" height="1000px"><path d="M 23.001953 2 A 1.0001 1.0001 0 0 0 22.830078 2.015625 C 22.830078 2.015625 21.146713 2.2994617 19.460938 3.3769531 C 17.775162 4.4544446 16 6.4780776 16 9.6308594 C 16 9.9016665 16.029719 10.158136 16.060547 10.414062 C 15.808762 10.468532 15.541772 10.538447 15.234375 10.640625 C 14.555656 10.866229 13.767562 11.220187 12.998047 11.755859 C 11.459016 12.827203 10 14.728346 10 17.5 C 10 18.084076 10.073044 18.651893 10.203125 19.199219 C 10.113141 19.232437 10.043395 19.254408 9.9335938 19.300781 C 9.5057181 19.481489 8.9408633 19.767685 8.3632812 20.207031 C 7.2081174 21.08572 6 22.671833 6 25 C 6 26.586368 6.5802663 27.964075 7.5078125 29 L 5 29 A 1.0001 1.0001 0 0 0 4 30 C 4 37.963868 8.0808662 43.946917 13.972656 47.833984 A 1.0001 1.0001 0 0 0 14.523438 48 L 35.476562 48 A 1.0001 1.0001 0 0 0 36.027344 47.833984 C 41.919134 43.946917 46 37.963868 46 30 A 1.0001 1.0001 0 0 0 45 29 L 43.677734 29 C 43.887617 28.534365 44 28.022489 44 27.5 C 44 26.057634 43.178806 24.866963 41.933594 24.001953 C 41.970738 23.716873 42 23.38415 42 23 C 42 21.782638 41.565831 20.660768 40.808594 19.767578 C 40.210765 19.062416 39.31041 18.568217 38.390625 18.083984 C 38.692169 17.553779 39 16.882978 39 16 C 39 13.58942 37.633611 11.791556 35.714844 10.740234 C 33.796076 9.6889129 31.335615 9.1981388 28.675781 8.8867188 C 25.964106 8.5697062 24.449658 8.0737746 23.757812 7.6015625 C 23.065967 7.1293504 23 6.8040598 23 6 C 23 5.6064103 23.195936 4.9306648 23.419922 4.4042969 C 23.643908 3.8779289 23.861328 3.5078125 23.861328 3.5078125 A 1.0001 1.0001 0 0 0 23.001953 2 z M 21.304688 4.7460938 C 21.184467 5.1643879 21 5.5223306 21 6 C 21 7.1459402 21.432705 8.4361184 22.630859 9.2539062 C 23.829014 10.071694 25.595035 10.540059 28.443359 10.873047 C 30.993525 11.171627 33.255174 11.672962 34.753906 12.494141 C 36.252639 13.315319 37 14.27058 37 16 C 37 16.62844 36.796925 17.023545 36.607422 17.291016 C 34.220575 16.428733 31.303656 15.847814 27.767578 15.503906 C 25.161644 15.250145 22.594444 14.727315 20.798828 13.78125 C 19.003212 12.835185 18 11.654948 18 9.6308594 C 18 7.1936411 19.224838 5.9005554 20.539062 5.0605469 C 20.921746 4.8159481 20.953997 4.8973542 21.304688 4.7460938 z M 16.617188 12.351562 C 17.293583 13.741768 18.469317 14.814279 19.867188 15.550781 C 22.07157 16.712216 24.838199 17.229855 27.572266 17.496094 C 31.532124 17.881217 34.792081 18.51644 36.9375 19.464844 C 38.01021 19.939046 38.79419 20.48569 39.283203 21.0625 C 39.772216 21.63931 40 22.227362 40 23 C 40 23.011543 39.998108 23.017886 39.998047 23.029297 C 38.112537 22.336506 35.726701 22 33 22 C 28.351852 22 25.161928 23 20 23 C 17.149167 23 15.12354 22.355827 13.857422 21.386719 C 12.591303 20.417611 12 19.145377 12 17.5 C 12 15.396654 12.982906 14.202391 14.140625 13.396484 C 14.719484 12.993531 15.342734 12.71274 15.865234 12.539062 C 16.167477 12.438598 16.422093 12.385436 16.617188 12.351562 z M 10.949219 21.054688 C 11.376014 21.780202 11.936301 22.434013 12.642578 22.974609 C 14.37646 24.301751 16.850833 25 20 25 C 25.414072 25 28.648148 24 33 24 C 35.831553 24 38.222525 24.413405 39.794922 25.095703 C 41.367319 25.778001 42 26.553683 42 27.5 C 42 28.027778 41.860918 28.325066 41.591797 28.560547 C 41.322676 28.796028 40.833333 29 40 29 L 12 29 C 9.797284 29 8 27.472493 8 25 C 8 23.328167 8.7603825 22.417885 9.5742188 21.798828 C 9.9811367 21.4893 10.400437 21.275667 10.710938 21.144531 C 10.811664 21.101989 10.876031 21.080929 10.949219 21.054688 z M 6.1269531 31 L 12 31 L 43.873047 31 C 43.545401 37.648281 40.208996 42.575081 35.130859 46 L 14.869141 46 C 9.7910037 42.575081 6.4545988 37.648281 6.1269531 31 z"/></svg>