<svg xmlns="http://www.w3.org/2000/svg"  viewBox="0 0 50 50" width="1000px" height="1000px"><path d="M 12.894531 6.015625 C 12.179364 5.9682749 11.451238 6.0256372 10.730469 6.2011719 C 8.6518562 6.7075029 6.9128083 8.0858674 5.84375 9.9589844 C 5.6312956 10.331614 5.4448722 10.716486 5.28125 11.107422 C 4.8400053 12.160112 4.5634408 13.258497 4.3671875 14.337891 C 3.2500875 20.499111 4.7532386 26.68853 7.9980469 31.712891 C 7.9130866 31.866402 7.8207449 32.011689 7.7460938 32.175781 C 6.401255 35.134656 6.8616126 38.81672 9.0195312 41.269531 C 10.933688 43.44559 13.721275 44.33235 16.310547 44.726562 C 23.07095 45.757067 30.133693 43.851359 35.609375 39.681641 C 43.060551 34.00718 47.367351 24.348653 45.609375 14.753906 C 45.400856 13.616435 45.108007 12.461365 44.638672 11.353516 A 1.0001 1.0001 0 0 0 44.636719 11.351562 C 44.463089 10.942448 44.266971 10.540208 44.039062 10.146484 L 44.039062 10.144531 C 42.904991 8.1789933 41.063724 6.7375262 38.867188 6.2089844 C 38.106011 6.0256795 37.337646 5.9660101 36.582031 6.015625 C 34.315187 6.1644698 32.168455 7.3057545 30.701172 9.1152344 A 1.0001 1.0001 0 0 0 30.701172 9.1171875 C 29.116892 11.071366 28.924381 13.320837 28.349609 15.222656 C 27.739179 17.243259 26.9069 19.169604 25.6875 20.765625 C 25.415752 21.121544 25.119296 21.457952 24.810547 21.783203 C 24.203511 21.243295 23.643883 20.656855 23.15625 20.011719 C 22.018827 18.506793 21.241802 16.686802 20.669922 14.775391 C 20.132587 12.979906 19.954368 10.841297 18.457031 8.9746094 C 17.072227 7.2487335 15.040034 6.1576753 12.894531 6.015625 z M 12.771484 8.0136719 C 14.336511 8.1213176 15.851288 8.9239387 16.896484 10.226562 C 17.953147 11.543874 18.143241 13.309094 18.753906 15.349609 C 19.368026 17.402198 20.22197 19.447676 21.560547 21.21875 C 22.09198 21.921834 22.690469 22.556458 23.328125 23.138672 C 22.492931 23.801685 21.585494 24.386971 20.636719 24.894531 C 18.393472 26.096102 15.915611 26.781927 13.361328 27.691406 C 11.963187 28.189225 10.488429 28.899312 9.3144531 30.011719 C 6.5899371 25.497209 5.3591483 20.071895 6.3339844 14.695312 C 6.5136212 13.707311 6.7626295 12.747678 7.1269531 11.878906 C 7.2613309 11.557843 7.4124858 11.248542 7.5820312 10.951172 C 8.4006733 9.5168138 9.6844645 8.5145474 11.205078 8.1445312 C 11.722309 8.0185659 12.249809 7.97779 12.771484 8.0136719 z M 36.707031 8.0136719 C 37.270948 7.9751309 37.841067 8.0196019 38.400391 8.1542969 C 40.043367 8.5496381 41.426699 9.620786 42.306641 11.146484 A 1.0001 1.0001 0 0 0 42.308594 11.146484 C 42.490307 11.460272 42.650731 11.78846 42.796875 12.132812 C 43.18754 13.054965 43.451097 14.070706 43.642578 15.115234 C 45.252603 23.902488 41.271309 32.854305 34.396484 38.089844 C 29.348119 41.934126 22.802878 43.693495 16.613281 42.75 C 14.261065 42.392075 11.968881 41.594653 10.521484 39.949219 C 8.9478069 38.160488 8.5642133 35.210846 9.5664062 33.003906 L 9.5664062 33.001953 C 10.359521 31.260102 12.100725 30.261596 14.03125 29.574219 C 15.502509 29.050361 17.019122 28.574238 18.535156 28.001953 C 19.856288 29.084514 21.664248 29.641752 23.521484 29.681641 C 25.622231 29.726761 27.84108 29.085177 29.425781 27.480469 C 30.887083 26.000677 31.755101 24.134443 31.751953 22.248047 C 31.749249 20.602789 31.02449 18.966718 29.582031 17.751953 C 29.833886 17.106811 30.065898 16.455436 30.263672 15.800781 C 30.9129 13.652647 31.114186 11.780822 32.253906 10.375 C 33.378623 8.9879799 35.015281 8.1292958 36.707031 8.0136719 z M 28.712891 19.660156 C 29.451221 20.430154 29.750383 21.310851 29.751953 22.251953 C 29.754053 23.511807 29.148652 24.913011 28.001953 26.074219 C 26.893654 27.19651 25.223457 27.717272 23.564453 27.681641 C 22.565654 27.66019 21.595233 27.424427 20.794922 27.052734 C 21.057149 26.926147 21.319585 26.797702 21.580078 26.658203 C 23.719623 25.513625 25.740736 23.993027 27.277344 21.980469 C 27.83607 21.249176 28.296755 20.464475 28.712891 19.660156 z"/></svg>