<svg fill="#000000" xmlns="http://www.w3.org/2000/svg"  viewBox="0 0 50 50" width="1000px" height="1000px"><path d="M 22 0 C 21.476563 0 20.941406 0.183594 20.5625 0.5625 C 20.183594 0.941406 20 1.476563 20 2 L 20 5.6875 C 19.941406 5.882813 19.941406 6.085938 20 6.28125 L 20 13.34375 C 19.257813 13.652344 18.3125 14.144531 17.34375 15.125 C 16.082031 16.398438 15 18.421875 15 21.3125 L 15 47.09375 C 15 48.628906 16.277344 49.90625 17.8125 49.90625 L 32.1875 49.90625 C 33.722656 49.90625 35 48.628906 35 47.09375 L 35 21.3125 C 35 18.46875 33.914063 16.441406 32.65625 15.15625 C 31.695313 14.171875 30.75 13.695313 30 13.375 L 30 6.1875 C 30.027344 6.054688 30.027344 5.914063 30 5.78125 L 30 2 C 30 1.476563 29.816406 0.941406 29.4375 0.5625 C 29.058594 0.183594 28.523438 0 28 0 Z M 22 2 L 28 2 L 28 5 L 22 5 Z M 22 7 L 28 7 L 28 14 C 28.003906 14.425781 28.28125 14.804688 28.6875 14.9375 C 29.183594 15.101563 30.304688 15.597656 31.25 16.5625 C 32.195313 17.527344 33 18.957031 33 21.3125 L 33 47.09375 C 33 47.558594 32.652344 47.90625 32.1875 47.90625 L 17.8125 47.90625 C 17.347656 47.90625 17 47.558594 17 47.09375 L 17 21.3125 C 17 18.902344 17.8125 17.449219 18.75 16.5 C 19.6875 15.550781 20.792969 15.109375 21.3125 14.9375 C 21.71875 14.804688 21.996094 14.425781 22 14 Z M 19.8125 25 C 19.335938 25.089844 18.992188 25.511719 19 26 L 19 42 C 19 42.550781 19.449219 43 20 43 L 30 43 C 30.550781 43 31 42.550781 31 42 L 31 26 C 31 25.449219 30.550781 25 30 25 L 20 25 C 19.96875 25 19.9375 25 19.90625 25 C 19.875 25 19.84375 25 19.8125 25 Z M 21 27 L 29 27 L 29 30 L 21 30 Z M 21 32 L 29 32 L 29 41 L 21 41 Z"/></svg>