<svg fill="#000000" xmlns="http://www.w3.org/2000/svg"  viewBox="0 0 50 50" width="1000px" height="1000px"><path d="M 19.996094 4 A 1.0001 1.0001 0 0 0 19 5 C 19 11.427936 15.232645 16.154166 11.363281 19.341797 C 7.4939174 22.529427 3.6308594 24.070312 3.6308594 24.070312 A 1.0001 1.0001 0 0 0 3.671875 25.945312 L 26.671875 33.945312 A 1.0001 1.0001 0 0 0 26.683594 33.949219 A 1.0005834 1.0005834 0 0 0 26.738281 33.964844 A 1.0001 1.0001 0 0 0 26.779297 33.974609 A 1.0005834 1.0005834 0 0 0 26.810547 33.980469 A 1.0001 1.0001 0 0 0 26.892578 33.994141 A 1.0001 1.0001 0 0 0 26.986328 34 A 1.0005834 1.0005834 0 0 0 26.992188 34 A 1.0001 1.0001 0 0 0 27.017578 33.998047 A 1.0005834 1.0005834 0 0 0 27.066406 33.998047 A 1.0001 1.0001 0 0 0 27.091797 33.996094 A 1.0005834 1.0005834 0 0 0 27.164062 33.986328 A 1.0001 1.0001 0 0 0 27.166016 33.986328 A 1.0005834 1.0005834 0 0 0 27.261719 33.964844 A 1.0005834 1.0005834 0 0 0 27.357422 33.933594 A 1.0005834 1.0005834 0 0 0 27.419922 33.908203 C 27.419922 33.908203 27.427672 33.904325 27.427734 33.904297 L 27.429688 33.902344 L 46.427734 24.904297 A 1.0003547 1.0003547 0 0 0 46.433594 24.900391 A 1.0006402 1.0006402 0 0 0 46.675781 24.738281 A 1.0003547 1.0003547 0 0 0 46.919922 24.394531 A 1.0006402 1.0006402 0 0 0 46.947266 24.324219 A 1.0003547 1.0003547 0 0 0 46.955078 24.300781 A 1.0006402 1.0006402 0 0 0 46.958984 24.287109 A 1.0003547 1.0003547 0 0 0 46.996094 24.105469 A 1.0006402 1.0006402 0 0 0 46.996094 24.101562 A 1.0003547 1.0003547 0 0 0 46.367188 23.068359 A 1.0006402 1.0006402 0 0 0 46.328125 23.054688 L 41.478516 21.367188 C 42.983362 18.68514 43.984677 15.584329 43.998047 12.070312 C 43.998052 12.068995 43.998042 12.067724 43.998047 12.066406 A 1.0002993 1.0002993 0 0 0 44 11.988281 A 1.0002993 1.0002993 0 0 0 43.998047 11.933594 A 1.0001 1.0001 0 0 0 43.992188 11.878906 A 1.0001 1.0001 0 0 0 43.992188 11.867188 A 1.0002993 1.0002993 0 0 0 43.990234 11.855469 A 1.0001 1.0001 0 0 0 43.144531 10.998047 L 20.291016 4.0429688 A 1.0001 1.0001 0 0 0 19.996094 4 z M 20.814453 6.2929688 L 41.972656 12.732422 C 41.437949 24.280234 28.638383 31.05853 26.923828 31.916016 L 6.6113281 24.849609 C 8.2017437 24.030824 10.297839 22.813517 12.636719 20.886719 C 16.502713 17.701865 20.323399 12.809064 20.814453 6.2929688 z M 40.390625 23.109375 L 43.363281 24.142578 L 36.945312 27.183594 C 38.167857 25.981101 39.351133 24.627693 40.390625 23.109375 z M 46.025391 26.994141 A 1.0001 1.0001 0 0 0 45.572266 27.095703 L 26.941406 35.921875 L 4.328125 28.054688 A 1.0006402 1.0006402 0 1 0 3.671875 29.945312 L 26.671875 37.945312 A 1.0001 1.0001 0 0 0 27.427734 37.904297 L 46.427734 28.904297 A 1.0001 1.0001 0 0 0 46.025391 26.994141 z M 46.025391 30.994141 A 1.0001 1.0001 0 0 0 45.572266 31.095703 L 26.941406 39.921875 L 4.328125 32.054688 A 1.0006402 1.0006402 0 1 0 3.671875 33.945312 L 26.671875 41.945312 A 1.0001 1.0001 0 0 0 27.427734 41.904297 L 46.427734 32.904297 A 1.0001 1.0001 0 0 0 46.025391 30.994141 z M 46.025391 34.994141 A 1.0001 1.0001 0 0 0 45.572266 35.095703 L 26.941406 43.921875 L 4.328125 36.054688 A 1.0006402 1.0006402 0 1 0 3.671875 37.945312 L 26.671875 45.945312 A 1.0001 1.0001 0 0 0 27.427734 45.904297 L 46.427734 36.904297 A 1.0001 1.0001 0 0 0 46.025391 34.994141 z"/></svg>