<svg xmlns="http://www.w3.org/2000/svg"  viewBox="0 0 50 50" width="1000px" height="1000px"><path d="M 18.498047 2.6308594 A 1.0001 1.0001 0 0 0 18.111328 2.7011719 L 13.294922 4.6269531 A 1.0001 1.0001 0 0 0 12.707031 5.8378906 L 13.646484 9.0351562 L 11.564453 6.3828125 A 1.0001 1.0001 0 0 0 10.392578 6.0761719 L 4.6152344 8.484375 A 1.0001 1.0001 0 0 0 4.125 9.8886719 L 12.5 25.085938 L 10.292969 27.292969 A 1.0001 1.0001 0 0 0 10.064453 28.351562 L 11.058594 31 L 8 31 A 1.0001 1.0001 0 0 0 7.1679688 31.445312 L 5.1679688 34.445312 A 1.0001 1.0001 0 0 0 5.4003906 35.800781 L 21.400391 47.800781 A 1.0001 1.0001 0 0 0 22.707031 47.707031 L 25.591797 44.822266 A 1.0001 1.0001 0 0 0 25.820312 44.59375 L 30.707031 39.707031 A 1.0001 1.0001 0 0 0 30.664062 38.251953 L 22.335938 30.847656 A 1.0001 1.0001 0 0 0 22.369141 30.625 L 22.453125 28.027344 L 24.810547 29.095703 A 1.0001 1.0001 0 0 0 25.822266 28.984375 L 27.166016 27.976562 L 28.248047 33.710938 A 1.0001 1.0001 0 0 0 28.681641 34.361328 L 32.427734 36.824219 A 1.0001 1.0001 0 0 0 33.855469 36.466797 L 46.376953 13.509766 A 1.0001 1.0001 0 0 0 45.880859 12.105469 L 40.369141 9.8320312 A 1.0001 1.0001 0 0 0 39.587891 9.8398438 L 36.978516 10.980469 L 36.947266 8.921875 A 1.0001 1.0001 0 0 0 36.378906 8.0351562 L 32.419922 6.1347656 A 1.0001 1.0001 0 0 0 31.933594 6.0390625 A 1.0001 1.0001 0 0 0 31.128906 6.5253906 L 26.376953 14.486328 L 19.332031 3.1035156 A 1.0001 1.0001 0 0 0 18.498047 2.6308594 z M 18.074219 4.8710938 L 29.667969 23.601562 L 25.095703 27.029297 L 21.912109 25.589844 A 1.0001 1.0001 0 0 0 20.5 26.46875 L 20.386719 30.066406 L 18.332031 31.533203 L 6.4140625 9.9003906 L 7.421875 9.4804688 L 8.6425781 11.513672 A 1.0001 1.0001 0 1 0 10.357422 10.486328 L 9.2871094 8.703125 L 10.460938 8.2148438 L 15.287109 14.359375 A 1.0001 1.0001 0 0 0 17.033203 13.458984 L 14.882812 6.1464844 L 18.074219 4.8710938 z M 32.376953 8.3339844 L 34.957031 9.5703125 L 35 12.515625 A 1.0001 1.0001 0 0 0 36.400391 13.416016 L 40 11.841797 L 40.599609 12.089844 L 38.126953 16.511719 A 1.0003147 1.0003147 0 1 0 39.873047 17.488281 L 42.460938 12.857422 L 44.089844 13.529297 L 32.619141 34.556641 L 30.134766 32.923828 L 28.982422 26.814453 A 1.0001 1.0001 0 0 0 28.939453 26.646484 L 31.599609 24.652344 A 1.0001 1.0001 0 0 0 31.849609 23.326172 L 27.5625 16.402344 L 32.376953 8.3339844 z M 13.503906 26.910156 L 17.125 33.482422 A 1.0001 1.0001 0 0 0 18.582031 33.814453 L 20.841797 32.199219 L 28.542969 39.042969 L 24.939453 42.646484 L 19.640625 38.232422 A 1.0001 1.0001 0 1 0 18.359375 39.767578 L 23.519531 44.066406 L 21.90625 45.679688 L 7.3574219 34.767578 L 8.5351562 33 L 12.5 33 A 1.0001 1.0001 0 0 0 13.435547 31.648438 L 12.162109 28.251953 L 13.503906 26.910156 z M 42.943359 34.001953 A 1.0001 1.0001 0 0 0 42.605469 34.080078 L 35.605469 37.080078 A 1.0001 1.0001 0 0 0 35.013672 38.164062 L 36.013672 44.164062 A 1.0001 1.0001 0 0 0 37.300781 44.953125 C 37.564469 44.869855 37.605868 44.799863 37.658203 44.755859 C 37.710543 44.711859 37.740023 44.681369 37.765625 44.654297 C 37.816835 44.600157 37.850955 44.558857 37.888672 44.511719 C 37.964102 44.417429 38.044826 44.308894 38.140625 44.175781 C 38.332223 43.909557 38.579349 43.54886 38.869141 43.121094 C 39.448724 42.265561 40.193728 41.141786 40.929688 40.019531 C 42.401606 37.775021 43.839844 35.541016 43.839844 35.541016 A 1.0001 1.0001 0 0 0 42.943359 34.001953 z M 40.365234 37.216797 C 39.892126 37.944958 39.816047 38.067653 39.255859 38.921875 C 38.656642 39.835614 38.097176 40.675352 37.585938 41.4375 L 37.115234 38.609375 L 40.365234 37.216797 z"/></svg>