<svg xmlns="http://www.w3.org/2000/svg"  viewBox="0 0 50 50" width="1000px" height="1000px"><path d="M 21.5 0 C 18.195313 0 15.195313 0.636719 12.9375 1.71875 C 10.679688 2.800781 9 4.417969 9 6.5 C 9 6.53125 9 6.5625 9 6.59375 C 8.992188 6.667969 8.992188 6.738281 9 6.8125 L 9 41.40625 C 9 44.140625 10.785156 46.449219 13.28125 47.96875 C 13.558594 48.136719 13.902344 48.160156 14.203125 48.03125 C 14.5 47.898438 14.714844 47.632813 14.78125 47.3125 L 15.6875 42.9375 L 16.71875 48.875 C 16.792969 49.261719 17.085938 49.566406 17.46875 49.65625 C 18.78125 49.984375 20.148438 50.09375 21.5 50.09375 C 24.878906 50.09375 27.945313 49.207031 30.21875 47.6875 C 32.492188 46.167969 34 43.953125 34 41.40625 L 34 32 C 34 30.460938 34.617188 28.914063 35.71875 27.8125 L 39.4375 24.78125 C 39.449219 24.769531 39.457031 24.761719 39.46875 24.75 C 39.46875 24.75 40.28125 24.003906 40.65625 22.75 C 41.03125 21.496094 40.960938 19.664063 39.625 17.65625 C 39.449219 17.375 39.144531 17.199219 38.8125 17.1875 L 36 17.1875 C 35.980469 17.1875 35.957031 17.1875 35.9375 17.1875 C 34.914063 17.25 34 16.421875 34 15.40625 L 34 6.8125 C 34.003906 6.769531 34.003906 6.730469 34 6.6875 C 34.003906 6.625 34 6.566406 34 6.5 C 34 4.417969 32.320313 2.800781 30.0625 1.71875 C 27.804688 0.636719 24.804688 0 21.5 0 Z M 21.5 2 C 24.546875 2 27.285156 2.589844 29.1875 3.5 C 31.089844 4.410156 32 5.546875 32 6.5 C 32 7.453125 31.089844 8.589844 29.1875 9.5 C 28.472656 9.839844 27.640625 10.136719 26.71875 10.375 C 26.625 10.371094 26.527344 10.382813 26.4375 10.40625 C 20.339844 11.375 16.84375 9.929688 15.71875 8.53125 C 15.15625 7.832031 15.113281 7.253906 15.375 6.65625 C 15.636719 6.058594 16.332031 5.382813 17.6875 4.96875 C 18.230469 4.855469 18.582031 4.324219 18.46875 3.78125 C 18.355469 3.238281 17.824219 2.886719 17.28125 3 C 17.21875 3.003906 17.15625 3.015625 17.09375 3.03125 C 15.347656 3.566406 14.09375 4.5625 13.53125 5.84375 C 13 7.054688 13.210938 8.460938 14.03125 9.59375 C 13.960938 9.5625 13.882813 9.535156 13.8125 9.5 C 11.910156 8.589844 11 7.453125 11 6.5 C 11 5.546875 11.910156 4.410156 13.8125 3.5 C 15.714844 2.589844 18.453125 2 21.5 2 Z M 24 4 C 22.761719 4 21.625 4.234375 20.71875 4.6875 C 19.8125 5.140625 19 5.90625 19 7 C 19 8.09375 19.8125 8.859375 20.71875 9.3125 C 21.625 9.765625 22.761719 10 24 10 C 25.238281 10 26.375 9.765625 27.28125 9.3125 C 28.1875 8.859375 29 8.09375 29 7 C 29 5.90625 28.1875 5.140625 27.28125 4.6875 C 26.375 4.234375 25.238281 4 24 4 Z M 24 6 C 24.96875 6 25.832031 6.199219 26.375 6.46875 C 26.917969 6.738281 27 6.988281 27 7 C 27 7.011719 26.917969 7.261719 26.375 7.53125 C 25.832031 7.800781 24.96875 8 24 8 C 23.03125 8 22.167969 7.800781 21.625 7.53125 C 21.082031 7.261719 21 7.011719 21 7 C 21 6.988281 21.082031 6.738281 21.625 6.46875 C 22.167969 6.199219 23.03125 6 24 6 Z M 11 10.09375 C 11.566406 10.542969 12.21875 10.9375 12.9375 11.28125 C 15.195313 12.363281 18.195313 13 21.5 13 C 24.804688 13 27.804688 12.363281 30.0625 11.28125 C 30.78125 10.9375 31.433594 10.542969 32 10.09375 L 32 15.40625 C 32 17.566406 33.851563 19.285156 36 19.1875 C 36.019531 19.1875 36.042969 19.1875 36.0625 19.1875 L 38.15625 19.1875 C 38.898438 20.511719 38.949219 21.492188 38.75 22.15625 C 38.535156 22.875 38.179688 23.195313 38.15625 23.21875 C 38.15625 23.21875 38.125 23.25 38.125 23.25 L 34.375 26.3125 C 34.339844 26.339844 34.308594 26.371094 34.28125 26.40625 C 32.78125 27.90625 32 29.941406 32 32 L 32 41.40625 C 32 43.160156 30.972656 44.777344 29.09375 46.03125 C 27.214844 47.285156 24.523438 48.09375 21.5 48.09375 C 20.46875 48.09375 19.496094 47.957031 18.5625 47.78125 L 16.78125 37.4375 C 16.703125 36.960938 16.292969 36.605469 15.808594 36.597656 C 15.324219 36.589844 14.90625 36.929688 14.8125 37.40625 L 13.15625 45.21875 C 11.878906 44.097656 11 42.832031 11 41.40625 Z M 15.84375 19 C 15.300781 19.082031 14.925781 19.582031 15 20.125 C 15.125 21.09375 14.957031 21.835938 14.8125 22.65625 C 14.667969 23.476563 14.5625 24.511719 15.125 25.5 C 15.402344 25.984375 16.015625 26.152344 16.5 25.875 C 16.984375 25.597656 17.152344 24.984375 16.875 24.5 C 16.640625 24.085938 16.679688 23.753906 16.8125 23 C 16.945313 22.246094 17.171875 21.203125 17 19.875 C 16.96875 19.601563 16.828125 19.355469 16.609375 19.1875 C 16.390625 19.023438 16.113281 18.957031 15.84375 19 Z M 25.875 28.96875 C 25.832031 28.976563 25.789063 28.988281 25.75 29 C 25.246094 29.125 24.921875 29.613281 25 30.125 C 25.179688 31.605469 24.945313 32.691406 24.75 33.8125 C 24.554688 34.933594 24.425781 36.195313 25.125 37.46875 C 25.265625 37.828125 25.597656 38.078125 25.984375 38.105469 C 26.371094 38.132813 26.738281 37.9375 26.929688 37.601563 C 27.117188 37.261719 27.097656 36.847656 26.875 36.53125 C 26.476563 35.804688 26.539063 35.207031 26.71875 34.15625 C 26.898438 33.105469 27.21875 31.695313 27 29.875 C 26.976563 29.601563 26.84375 29.351563 26.632813 29.183594 C 26.417969 29.011719 26.144531 28.933594 25.875 28.96875 Z"/></svg>