<svg xmlns="http://www.w3.org/2000/svg"  viewBox="0 0 50 50" width="1000px" height="1000px"><path d="M 22 2 C 20.90625 2 20 2.90625 20 4 L 20 6 C 20 6.730469 20.40625 7.371094 21 7.71875 L 21 11 C 21 11.253906 20.75 11.601563 20.234375 12.214844 C 19.71875 12.828125 19 13.726563 19 15 C 19 16.089844 19.324219 16.910156 19.578125 17.511719 C 19.835938 18.109375 20 18.472656 20 19 C 20 18.929688 19.914063 19.253906 19.578125 19.703125 C 19.238281 20.148438 18.734375 20.722656 18.207031 21.40625 C 17.160156 22.765625 16 24.613281 16 27 L 16 28.988281 C 16 28.992188 16 28.996094 16 29 L 16 44.058594 C 16 44.832031 16.183594 45.597656 16.527344 46.292969 L 17.105469 47.449219 C 17.273438 47.785156 17.621094 48 18 48 L 32 48 C 32.378906 48 32.726563 47.785156 32.894531 47.449219 L 33.472656 46.292969 C 33.816406 45.597656 34 44.832031 34 44.058594 L 34 41.011719 C 34 41.007813 34 41.003906 34 41 L 34 27 C 34 24.613281 32.839844 22.765625 31.792969 21.40625 C 31.265625 20.722656 30.761719 20.148438 30.421875 19.703125 C 30.085938 19.253906 30 18.929688 30 19 C 30 18.472656 30.164063 18.109375 30.421875 17.511719 C 30.675781 16.910156 31 16.089844 31 15 C 31 13.726563 30.28125 12.828125 29.765625 12.214844 C 29.25 11.601563 29 11.253906 29 11 L 29 7.71875 C 29.59375 7.371094 30 6.730469 30 6 L 30 4 C 30 2.90625 29.09375 2 28 2 Z M 22 4 L 28 4 L 28 6 L 22 6 Z M 23 8 L 27 8 L 27 11 C 27 12.183594 27.75 12.929688 28.234375 13.503906 C 28.71875 14.078125 29 14.460938 29 15 C 29 15.722656 28.824219 16.152344 28.578125 16.722656 C 28.335938 17.296875 28 18.027344 28 19 C 28 19.820313 28.414063 20.355469 28.828125 20.90625 C 29.238281 21.453125 29.734375 22.011719 30.207031 22.625 C 31.160156 23.859375 32 25.261719 32 27 L 32 27.476563 C 30.417969 26.855469 27.746094 26 25 26 C 22.246094 26 19.578125 26.855469 18 27.472656 L 18 27 C 18 25.261719 18.839844 23.859375 19.792969 22.625 C 20.265625 22.011719 20.761719 21.453125 21.171875 20.90625 C 21.585938 20.355469 22 19.820313 22 19 C 22 18.027344 21.664063 17.296875 21.421875 16.722656 C 21.175781 16.152344 21 15.722656 21 15 C 21 14.460938 21.28125 14.078125 21.765625 13.503906 C 22.25 12.929688 23 12.183594 23 11 Z M 25 28 C 28.203125 28 31.25 29.335938 32 29.675781 L 32 40.324219 C 31.25 40.664063 28.203125 42 25 42 C 21.796875 42 18.75 40.664063 18 40.324219 L 18 29.675781 C 18.746094 29.335938 21.777344 28 25 28 Z M 25 30 C 23.042969 30 21.3125 30.511719 20 31 L 20 33.15625 C 21.167969 32.648438 22.945313 32 25 32 C 27.035156 32 28.824219 32.648438 30 33.15625 L 30 31 C 28.683594 30.511719 26.953125 30 25 30 Z M 18 42.523438 C 19.582031 43.144531 22.253906 44 25 44 C 27.746094 44 30.417969 43.144531 32 42.523438 L 32 44.058594 C 32 44.523438 31.890625 44.980469 31.683594 45.398438 L 31.382813 46 L 18.617188 46 L 18.316406 45.398438 C 18.109375 44.980469 18 44.523438 18 44.058594 Z"/></svg>