<svg xmlns="http://www.w3.org/2000/svg"  viewBox="0 0 50 50" width="1000px" height="1000px"><path d="M 25 0 C 14.964844 0 9.117188 6.722656 9 13.78125 C 8.992188 13.855469 8.992188 13.925781 9 14 C 9 14.03125 9 14.0625 9 14.09375 C 9.011719 17.550781 9.835938 25.007813 10.65625 31.75 C 11.480469 38.53125 12.308594 44.472656 12.3125 44.5 C 12.3125 44.511719 12.3125 44.519531 12.3125 44.53125 C 12.574219 46.988281 14.492188 48.992188 17 49.46875 C 17.011719 49.480469 17.019531 49.488281 17.03125 49.5 C 17.800781 49.628906 19.4375 49.710938 21.25 49.8125 C 23.0625 49.914063 24.949219 50 26 50 C 26.0625 49.996094 26.125 49.984375 26.1875 49.96875 L 26.21875 50 L 26.4375 50 C 29.050781 49.898438 31.710938 49.707031 33.28125 49.375 C 33.292969 49.371094 33.300781 49.378906 33.3125 49.375 C 35.714844 48.882813 37.507813 46.882813 37.78125 44.5625 C 37.785156 44.542969 37.777344 44.519531 37.78125 44.5 C 37.800781 44.390625 41.09375 24.191406 41.09375 14 C 41.097656 13.847656 41.0625 13.699219 41 13.5625 C 40.9375 11.058594 40.285156 7.800781 38.0625 5.0625 C 35.714844 2.167969 31.613281 0 25 0 Z M 25 2 C 31.1875 2 34.582031 3.941406 36.53125 6.34375 C 37.285156 7.273438 37.808594 8.28125 38.1875 9.3125 C 38.1875 9.324219 38.1875 9.332031 38.1875 9.34375 C 38.222656 10.589844 37.828125 11.316406 37.0625 11.96875 C 37.042969 11.898438 37.023438 11.851563 37 11.78125 C 36.796875 11.152344 36.457031 10.371094 35.875 9.625 C 35 8.503906 33.507813 7.539063 31.375 7.375 C 30.792969 7.332031 30.148438 7.378906 29.46875 7.46875 C 28.359375 6.320313 27.097656 5.625 25.96875 5.25 C 25 4.925781 24.09375 4.8125 23.4375 4.78125 C 22.78125 4.75 22.375 4.8125 22.375 4.8125 C 22.058594 4.859375 21.78125 5.054688 21.632813 5.339844 C 21.484375 5.625 21.480469 5.964844 21.625 6.25 C 21.625 6.25 21.800781 6.683594 22 7.3125 C 16.65625 7.457031 13.777344 11.554688 12.75 13.40625 C 12.738281 13.398438 12.730469 13.382813 12.71875 13.375 C 11.855469 12.769531 11.441406 12.164063 11.40625 11.25 C 11.402344 11.1875 11.390625 11.125 11.375 11.0625 C 12.664063 6.152344 17.25 2 25 2 Z M 23.96875 6.96875 C 24.460938 6.992188 24.578125 6.902344 25.34375 7.15625 C 26.855469 7.660156 28.5625 8.734375 29.65625 11.46875 C 29.863281 11.988281 30.449219 12.238281 30.96875 12.03125 C 31.488281 11.824219 31.738281 11.238281 31.53125 10.71875 C 31.335938 10.234375 31.109375 9.789063 30.875 9.375 C 32.707031 9.367188 33.648438 10.066406 34.28125 10.875 C 34.671875 11.378906 34.941406 11.933594 35.09375 12.40625 C 35.179688 12.675781 35.21875 12.886719 35.25 13.0625 C 34.476563 13.394531 33.597656 13.675781 32.65625 13.9375 C 31 14.394531 29.191406 14.792969 27.5625 15.34375 C 26 15.871094 24.535156 16.5625 23.59375 17.78125 C 21.644531 16.292969 18.792969 15.730469 16.3125 14.9375 C 15.679688 14.734375 15.085938 14.535156 14.53125 14.3125 C 15.382813 12.746094 17.789063 9.234375 22.4375 9.3125 C 22.527344 10.046875 22.578125 10.882813 22.5 11.8125 C 22.457031 12.363281 22.871094 12.847656 23.421875 12.890625 C 23.972656 12.933594 24.457031 12.519531 24.5 11.96875 C 24.683594 9.769531 24.332031 8.152344 23.96875 6.96875 Z M 19.40625 11.78125 C 18.921875 11.839844 18.554688 12.238281 18.53125 12.726563 C 18.507813 13.210938 18.835938 13.644531 19.3125 13.75 C 19.3125 13.75 20.355469 14.109375 21.03125 14.9375 C 21.253906 15.238281 21.621094 15.386719 21.988281 15.332031 C 22.355469 15.273438 22.660156 15.019531 22.78125 14.667969 C 22.902344 14.316406 22.816406 13.925781 22.5625 13.65625 C 21.4375 12.28125 19.90625 11.84375 19.90625 11.84375 C 19.804688 11.804688 19.699219 11.785156 19.59375 11.78125 C 19.53125 11.773438 19.46875 11.773438 19.40625 11.78125 Z M 38.9375 12.9375 C 38.964844 13.304688 39 13.664063 39 14 C 39.003906 14.140625 39.035156 14.277344 39.09375 14.40625 C 39.011719 24.328125 35.8125 44.25 35.8125 44.25 L 35.8125 44.28125 C 35.660156 45.726563 34.464844 47.09375 32.90625 47.40625 L 32.875 47.4375 C 31.691406 47.691406 29.109375 47.863281 26.625 47.96875 C 24.742188 47.171875 23.261719 45.34375 22.25 42.875 C 21.214844 40.34375 20.6875 37.246094 20.6875 34.3125 C 20.6875 26.726563 23.128906 21.847656 25.125 19.09375 L 25.125 19.0625 C 25.640625 18.332031 26.71875 17.746094 28.1875 17.25 C 29.65625 16.753906 31.453125 16.355469 33.1875 15.875 C 34.921875 15.394531 36.621094 14.84375 37.96875 13.84375 C 38.324219 13.578125 38.652344 13.277344 38.9375 12.9375 Z M 11 14.5625 C 11.175781 14.71875 11.371094 14.863281 11.5625 15 C 11.894531 15.234375 12.253906 15.433594 12.625 15.625 C 12.710938 15.679688 12.804688 15.722656 12.90625 15.75 C 13.777344 16.175781 14.714844 16.53125 15.6875 16.84375 C 18.304688 17.683594 21.074219 18.441406 22.46875 19.4375 C 20.550781 22.621094 18.6875 27.496094 18.6875 34.3125 C 18.6875 37.476563 19.242188 40.8125 20.40625 43.65625 C 21.070313 45.273438 21.945313 46.746094 23.0625 47.90625 C 22.492188 47.878906 21.921875 47.84375 21.34375 47.8125 C 19.554688 47.714844 17.804688 47.570313 17.375 47.5 L 17.375 47.53125 C 15.695313 47.210938 14.433594 45.84375 14.28125 44.3125 C 14.28125 44.292969 14.28125 44.269531 14.28125 44.25 C 14.28125 44.25 13.480469 38.308594 12.65625 31.53125 C 11.875 25.101563 11.078125 17.917969 11 14.5625 Z M 27 24 C 25.894531 24 25 24.894531 25 26 C 25 27.105469 25.894531 28 27 28 C 28.105469 28 29 27.105469 29 26 C 29 24.894531 28.105469 24 27 24 Z M 30 30 C 29.449219 30 29 30.449219 29 31 C 29 31.550781 29.449219 32 30 32 C 30.550781 32 31 31.550781 31 31 C 31 30.449219 30.550781 30 30 30 Z"/></svg>