<svg xmlns="http://www.w3.org/2000/svg"  viewBox="0 0 50 50" width="1000px" height="1000px"><path d="M 5.5 2 C 3.578125 2 2 3.578125 2 5.5 C 2 7.421875 3.578125 9 5.5 9 C 6.105469 9 6.65625 8.835938 7.15625 8.5625 L 9.5 10.90625 C 6.105469 14.636719 4 19.566406 4 25 C 4 30.433594 6.105469 35.363281 9.5 39.09375 L 5 43.59375 L 3 47 L 6.40625 45 L 10.875 40.53125 C 14.609375 43.933594 19.5625 46 25 46 C 25.839844 46 26.679688 45.941406 27.5 45.84375 L 27.625 45.8125 C 27.824219 45.789063 28.007813 45.773438 28.15625 45.75 C 31.632813 45.222656 34.871094 43.855469 37.625 41.78125 L 36.21875 40.34375 C 34.800781 41.382813 33.21875 42.234375 31.5625 42.84375 C 30.789063 42.707031 30.046875 42.5 29.3125 42.28125 C 31.714844 40.917969 33.839844 39.105469 35.53125 36.9375 L 43.59375 45 L 47 47 L 45 43.59375 L 40.53125 39.125 C 41.742188 37.789063 42.800781 36.28125 43.65625 34.625 C 45.179688 31.675781 46 28.34375 46 25 C 46 20.203125 44.371094 15.789063 41.65625 12.25 L 40.21875 13.6875 C 42.28125 16.457031 43.632813 19.804688 43.9375 23.4375 C 42.703125 19.695313 40.449219 16.417969 37.5 13.9375 L 42.84375 8.5625 C 43.34375 8.835938 43.894531 9 44.5 9 C 46.421875 9 48 7.421875 48 5.5 C 48 3.578125 46.421875 2 44.5 2 C 42.578125 2 41 3.578125 41 5.5 C 41 6.105469 41.164063 6.65625 41.4375 7.15625 L 39.09375 9.46875 C 36.101563 6.75 32.332031 4.886719 28.15625 4.25 C 28.011719 4.226563 27.832031 4.210938 27.625 4.1875 L 27.53125 4.15625 C 26.703125 4.054688 25.855469 4 25 4 C 19.570313 4 14.636719 6.105469 10.90625 9.5 L 8.5625 7.15625 C 8.835938 6.65625 9 6.105469 9 5.5 C 9 3.578125 7.421875 2 5.5 2 Z M 5.5 4 C 6.339844 4 7 4.660156 7 5.5 C 7 6.339844 6.339844 7 5.5 7 C 4.660156 7 4 6.339844 4 5.5 C 4 4.660156 4.660156 4 5.5 4 Z M 44.5 4 C 45.339844 4 46 4.660156 46 5.5 C 46 6.339844 45.339844 7 44.5 7 C 43.660156 7 43 6.339844 43 5.5 C 43 4.660156 43.660156 4 44.5 4 Z M 27.5 6.1875 C 19.625 9.082031 14 16.398438 14 25 C 14 33.609375 19.640625 40.925781 27.53125 43.8125 C 18.203125 42.601563 11 34.664063 11 25 C 11 15.34375 18.1875 7.414063 27.5 6.1875 Z M 19.53125 6.8125 C 13.238281 10.433594 9 17.222656 9 25 C 9 32.8125 13.285156 39.609375 19.625 43.21875 C 11.757813 40.894531 6 33.613281 6 25 C 6 16.417969 11.707031 9.164063 19.53125 6.8125 Z M 31.53125 7.1875 C 33.8125 8.03125 35.878906 9.308594 37.65625 10.90625 L 35.84375 12.71875 C 32.96875 10.742188 29.601563 9.429688 25.9375 9.09375 C 27.660156 8.199219 29.535156 7.542969 31.53125 7.1875 Z M 24 11 C 33.976563 11 42.140625 18.667969 42.9375 28.4375 C 40.175781 20.0625 32.292969 14 23 14 C 21.875 14 20.769531 14.109375 19.6875 14.28125 C 20.605469 13.085938 21.652344 12.007813 22.84375 11.0625 C 23.226563 11.035156 23.609375 11 24 11 Z M 23 16 C 23.316406 16 23.625 16.046875 23.9375 16.0625 C 20.878906 17.53125 18.234375 19.714844 16.21875 22.40625 C 16.527344 20.359375 17.164063 18.421875 18.125 16.65625 C 19.679688 16.242188 21.3125 16 23 16 Z M 28 16.65625 C 29.152344 16.96875 30.257813 17.421875 31.3125 17.9375 C 31.386719 18.210938 31.46875 18.476563 31.53125 18.75 C 24.992188 20.515625 19.710938 25.355469 17.34375 31.625 C 16.664063 29.96875 16.207031 28.195313 16.0625 26.34375 C 18.472656 21.636719 22.796875 18.070313 28 16.65625 Z M 33.65625 19.28125 C 35.308594 20.398438 36.746094 21.773438 37.96875 23.34375 C 37.976563 23.5625 38 23.777344 38 24 C 38 27.140625 37.253906 30.109375 35.90625 32.71875 C 33.941406 36.523438 30.703125 39.578125 26.78125 41.34375 C 26.121094 41.039063 25.492188 40.683594 24.875 40.3125 C 27.726563 38.351563 30.054688 35.722656 31.65625 32.625 C 33.144531 29.742188 34 26.464844 34 23 C 34 21.730469 33.871094 20.492188 33.65625 19.28125 Z M 31.84375 20.71875 C 31.929688 21.464844 32 22.230469 32 23 C 32 23.351563 31.988281 23.6875 31.96875 24.03125 C 26.636719 26.578125 22.535156 31.304688 20.84375 37.0625 C 20.019531 36.179688 19.257813 35.242188 18.625 34.21875 C 20.320313 27.703125 25.382813 22.542969 31.84375 20.71875 Z M 39.875 26.28125 C 41.027344 28.507813 41.75 30.992188 41.9375 33.625 C 41.921875 33.65625 41.921875 33.6875 41.90625 33.71875 C 41.144531 35.195313 40.199219 36.523438 39.125 37.71875 L 36.6875 35.28125 C 37.03125 34.742188 37.363281 34.195313 37.65625 33.625 C 38.8125 31.382813 39.585938 28.902344 39.875 26.28125 Z M 31.6875 26.4375 C 31.351563 28.304688 30.75 30.089844 29.90625 31.71875 C 28.339844 34.753906 25.976563 37.316406 23.09375 39.125 C 22.894531 38.972656 22.695313 38.816406 22.5 38.65625 C 23.726563 33.410156 27.117188 29.007813 31.6875 26.4375 Z"/></svg>