<svg xmlns="http://www.w3.org/2000/svg"  viewBox="0 0 50 50" width="1000px" height="1000px"><path d="M 38.65625 0 C 36.925781 0 35.574219 0.359375 34.65625 0.71875 C 33.738281 1.078125 33.1875 1.46875 33.1875 1.46875 C 33.144531 1.496094 33.101563 1.527344 33.0625 1.5625 L 30.25 4.40625 L 25 9.65625 C 24.859375 9.742188 24.742188 9.859375 24.65625 10 L 3.53125 31.21875 C 3.457031 31.28125 3.394531 31.355469 3.34375 31.4375 C 3.320313 31.46875 3.300781 31.5 3.28125 31.53125 C 3.167969 31.644531 3.011719 31.726563 2.90625 31.84375 C 0.890625 34.046875 0 36.746094 0 39 C 0 45.203125 4.78125 50 11 50 C 13.996094 50 16.304688 49.039063 17.8125 47.46875 C 19.320313 45.898438 20 43.78125 20 41.625 C 20 39.226563 19.183594 37.253906 17.78125 35.9375 C 16.378906 34.621094 14.445313 34 12.34375 34 C 10.648438 34 9.082031 34.507813 7.90625 35.5 C 6.730469 36.492188 6 38 6 39.75 C 6 40.757813 6.402344 41.75 7.125 42.5625 C 7.847656 43.375 8.945313 44 10.25 44 C 11.558594 44 12.5625 43.503906 13.15625 42.875 C 13.75 42.246094 14 41.664063 14 41 C 14.003906 40.640625 13.816406 40.304688 13.503906 40.121094 C 13.191406 39.941406 12.808594 39.941406 12.496094 40.121094 C 12.183594 40.304688 11.996094 40.640625 12 41 C 11.972656 41.078125 11.886719 41.320313 11.71875 41.5 C 11.476563 41.753906 11.082031 42 10.25 42 C 9.554688 42 9.03125 41.703125 8.625 41.25 C 8.21875 40.796875 8 40.175781 8 39.75 C 8 38.523438 8.4375 37.664063 9.1875 37.03125 C 9.9375 36.398438 11.039063 36 12.34375 36 C 14.046875 36 15.433594 36.496094 16.40625 37.40625 C 17.378906 38.316406 18 39.664063 18 41.625 C 18 43.367188 17.472656 44.953125 16.375 46.09375 C 15.277344 47.234375 13.578125 48 11 48 C 5.785156 48 2 44.203125 2 39 C 2 37.28125 2.722656 34.992188 4.375 33.1875 C 6.027344 31.382813 8.5625 30 12.46875 30 C 16.042969 30 18.429688 31.042969 20.125 32.5625 C 21.820313 34.082031 22.851563 36.15625 23.4375 38.28125 C 24.609375 42.53125 24 46.84375 24 46.84375 C 23.929688 47.304688 24.1875 47.753906 24.621094 47.925781 C 25.054688 48.097656 25.546875 47.945313 25.8125 47.5625 L 33.15625 37.15625 C 33.355469 37.023438 33.5 36.824219 33.5625 36.59375 L 37.46875 31.03125 C 37.480469 31.019531 37.488281 31.011719 37.5 31 L 37.53125 30.96875 C 37.625 30.871094 37.703125 30.753906 37.75 30.625 L 42.625 23.71875 C 42.660156 23.679688 42.691406 23.636719 42.71875 23.59375 L 42.75 23.5625 C 42.796875 23.515625 42.839844 23.460938 42.875 23.40625 L 42.90625 23.34375 C 42.90625 23.332031 42.90625 23.324219 42.90625 23.3125 L 46.15625 18.6875 C 46.175781 18.679688 46.199219 18.667969 46.21875 18.65625 L 46.25 18.625 C 46.3125 18.558594 46.363281 18.484375 46.40625 18.40625 C 46.445313 18.347656 46.476563 18.285156 46.5 18.21875 L 49.8125 13.5625 C 49.929688 13.398438 49.996094 13.203125 50 13 C 50 8.757813 48.746094 5.480469 46.65625 3.28125 C 44.566406 1.082031 41.691406 0 38.65625 0 Z M 38.65625 2 C 41.226563 2 43.5 2.878906 45.1875 4.65625 C 46.832031 6.386719 47.914063 9.050781 47.96875 12.75 L 46.40625 14.9375 C 45.96875 11.117188 44.339844 8.246094 41.9375 6.4375 C 39.683594 4.742188 36.855469 3.953125 33.875 3.90625 C 33.773438 3.90625 33.664063 3.90625 33.5625 3.90625 L 34.40625 3.0625 C 34.40625 3.0625 34.660156 2.839844 35.375 2.5625 C 36.089844 2.285156 37.195313 2 38.65625 2 Z M 33.84375 5.90625 C 36.480469 5.945313 38.90625 6.644531 40.75 8.03125 C 43.164063 9.847656 44.707031 12.875 44.53125 17.625 L 42.78125 20.125 C 42.382813 17.351563 41.332031 14.625 39.28125 12.53125 C 37.222656 10.429688 34.160156 9.066406 30.03125 9.03125 C 29.511719 9.027344 28.957031 9.050781 28.40625 9.09375 L 31.40625 6.0625 C 32.234375 5.957031 33.046875 5.894531 33.84375 5.90625 Z M 30 11 C 33.683594 11.011719 36.164063 12.191406 37.84375 13.90625 C 40.027344 16.136719 40.925781 19.453125 40.96875 22.6875 L 37.25 27.9375 C 36.132813 24.390625 34.019531 21.5625 31.21875 19.625 C 28.410156 17.683594 24.917969 16.632813 21.0625 16.46875 L 26.125 11.375 C 27.550781 11.125 28.832031 10.996094 30 11 Z M 20.53125 18.4375 C 24.261719 18.519531 27.535156 19.511719 30.09375 21.28125 C 32.925781 23.242188 34.898438 26.167969 35.71875 30.09375 L 33.0625 33.875 C 31.019531 26.910156 24.78125 21.941406 17.28125 21.4375 C 16.898438 21.410156 16.515625 21.40625 16.125 21.40625 L 19.0625 18.46875 C 19.558594 18.449219 20.050781 18.425781 20.53125 18.4375 Z M 15.5625 23.40625 C 23.566406 23.171875 30.171875 28.523438 31.53125 36.03125 L 26.125 43.6875 C 26.101563 41.992188 25.972656 39.882813 25.375 37.71875 C 24.71875 35.34375 23.535156 32.917969 21.46875 31.0625 C 19.402344 29.207031 16.441406 28 12.46875 28 C 11.292969 28 10.222656 28.128906 9.21875 28.34375 L 14.03125 23.53125 C 14.542969 23.472656 15.058594 23.421875 15.5625 23.40625 Z"/></svg>