<svg xmlns="http://www.w3.org/2000/svg"  viewBox="0 0 48 48" width="1000px" height="1000px"><path d="M 36.517578 3.0332031 A 1.50015 1.50015 0 0 0 35.488281 3.4882812 L 26.974609 12 L 10.5 12 L 7.5 12 A 1.50015 1.50015 0 1 0 7.5 15 L 9.2285156 15 L 13.419922 40.150391 L 13.408203 40.0625 C 13.805965 43.78218 17.846113 46.051825 21.230469 44.460938 C 22.985043 43.635686 25.014276 43.635902 26.767578 44.460938 C 30.152844 46.053125 34.192679 43.782168 34.591797 40.0625 L 34.580078 40.150391 L 38.771484 15 L 40.5 15 A 1.50015 1.50015 0 1 0 40.5 12 L 37.552734 12 L 31.21875 12 L 37.609375 5.609375 A 1.50015 1.50015 0 0 0 36.517578 3.0332031 z M 12.271484 15 L 27.298828 15 A 1.50015 1.50015 0 0 0 27.837891 15 L 35.728516 15 L 31.621094 39.65625 A 1.50015 1.50015 0 0 0 31.609375 39.742188 C 31.420493 41.502519 29.647656 42.499906 28.044922 41.746094 C 25.484224 40.541129 22.516504 40.541345 19.955078 41.746094 C 18.35381 42.499518 16.578792 41.503786 16.390625 39.744141 A 1.50015 1.50015 0 0 0 16.378906 39.65625 L 12.271484 15 z M 24.832031 21.175781 A 1.50015 1.50015 0 0 0 23.353516 22.697266 L 23.353516 23.666016 C 22.30381 23.651411 21.298937 24.128798 20.609375 24.818359 C 19.446686 25.98171 18.882535 27.458582 18.765625 28.841797 C 18.648715 30.225012 18.899116 31.590522 19.904297 32.595703 C 20.909645 33.601051 22.274889 33.851279 23.658203 33.734375 C 25.041517 33.617471 26.518608 33.053658 27.681641 31.890625 C 28.451397 31.120868 28.96182 29.958054 28.8125 28.779297 C 28.797768 28.662998 28.755136 28.553418 28.730469 28.439453 L 29.095703 28.439453 A 1.50015 1.50015 0 1 0 29.095703 25.439453 L 28.458984 25.439453 L 28.734375 25.164062 A 1.50015 1.50015 0 1 0 26.613281 23.042969 L 26.353516 23.302734 L 26.353516 22.697266 A 1.50015 1.50015 0 0 0 24.832031 21.175781 z M 23.34375 26.664062 C 23.522264 26.686645 23.867483 26.812715 24.339844 27.185547 A 1.50015 1.50015 0 0 0 24.734375 27.539062 C 24.775779 27.578413 24.810738 27.603682 24.853516 27.646484 C 25.589749 28.382718 25.805757 28.918007 25.835938 29.15625 C 25.866118 29.394493 25.851788 29.476335 25.560547 29.767578 C 24.96658 30.361545 24.144983 30.681545 23.404297 30.744141 C 22.663611 30.806741 22.081043 30.530262 22.025391 30.474609 C 21.969571 30.418789 21.693269 29.836238 21.755859 29.095703 C 21.818449 28.355168 22.138111 27.534102 22.732422 26.939453 C 23.023832 26.648043 23.105732 26.633953 23.34375 26.664062 z"/></svg>