<?xml version="1.0" encoding="UTF-8" standalone="no"?>
<svg
   viewBox="0 0 48 48"
   width="1000"
   height="1000"
   version="1.1"
   id="svg1"
   xmlns="http://www.w3.org/2000/svg"
   xmlns:svg="http://www.w3.org/2000/svg">
  <path
     d="M 37.242187,3.8671875 C 36.859803,3.4998766 36.252048,3.5121193 35.884766,3.8945315 l -8.351563,8.6816405 h -0.451172 c -1.09434,2e-6 -12.517709,2.1e-5 -18.7773435,0 -0.5301628,-5.18e-4 -0.9603766,0.428821 -0.9609375,0.958984 -5.19e-4,0.530926 0.4300115,0.961457 0.9609375,0.960938 0.5325973,2e-6 0.9998171,-10e-7 1.5976563,0 0.3652572,4.405907 1.3192952,8.674622 1.9355472,12.90039 0.0018,0.0091 0.0038,0.01826 0.0059,0.02734 0.763464,4.321218 1.375754,8.705827 2.232422,13.066406 0.38542,2.66787 3.073766,4.292749 5.59375,3.808594 0.0091,-0.0018 0.01826,-0.0038 0.02734,-0.0059 2.130006,-0.473754 3.961747,-1.231872 5.632812,-0.746094 0.0052,0.0013 0.01041,0.0026 0.01563,0.0039 0.896145,0.244949 1.936547,0.602161 3.060547,0.742188 1.124,0.140026 2.387159,0.03564 3.515625,-0.712891 0.0039,-0.0026 0.0078,-0.0052 0.01172,-0.0078 1.168796,-0.799072 1.713864,-2.004906 2.001953,-3.136719 0.288089,-1.131813 0.374067,-2.251873 0.574219,-3.125 0.0046,-0.0207 0.0085,-0.04154 0.01172,-0.0625 1.127319,-7.057321 2.420596,-14.108744 3.466797,-21.214844 0.0034,-0.02269 0.006,-0.04549 0.0078,-0.06836 0.0351,-0.468043 0.06649,-0.974164 0.101562,-1.46875 h 1.550781 c 0.530163,-5.6e-4 0.959503,-0.430775 0.958985,-0.960938 -5.6e-4,-0.529401 -0.429584,-0.958425 -0.958985,-0.958984 h -9.453157 l 7.072266,-7.3515226 c 0.367836,-0.381851 0.356468,-0.9895942 -0.02539,-1.3574219 z M 11.835938,14.496094 c 6.2149,6e-6 14.357552,1e-6 15.246093,0 h 0.859375 8.232422 c -0.03159,0.426793 -0.05587,0.840996 -0.08984,1.289062 -1.03878,7.050266 -2.328786,14.084811 -3.458984,21.160156 -0.235638,1.056049 -0.324385,2.126185 -0.550781,3.015625 -0.23026,0.904619 -0.553568,1.563567 -1.21875,2.021485 -0.662745,0.437507 -1.358049,0.512745 -2.212891,0.40625 -0.852364,-0.106187 -1.807945,-0.420528 -2.775391,-0.685547 -2.468434,-0.717573 -4.694976,0.289503 -6.560546,0.708984 -6.47e-4,1.25e-4 -0.0013,-1.23e-4 -0.002,0 -1.474572,0.282157 -3.115027,-0.708885 -3.328124,-2.199218 -0.0028,-0.01636 -0.0061,-0.03264 -0.0098,-0.04883 -0.845332,-4.29499 -1.456803,-8.673358 -2.22844,-13.04492 l -0.0039,-0.0293 C 13.109453,22.815855 12.19708,18.656073 11.835944,14.496091 Z m 13.033203,8.064453 c -0.529408,-0.0027 -0.961059,0.423724 -0.964844,0.953125 -0.0019,0.315764 0.146264,0.573592 0.226562,0.859375 -0.625155,-0.123123 -1.312992,0.312238 -1.845703,0.611327 -1.997623,1.030235 -3.109396,2.824034 -3.416015,4.455078 -0.153653,0.817344 -0.125204,1.612026 0.205078,2.314453 0.330281,0.702427 1.118639,1.276893 1.984375,1.265625 1.120169,-0.01458 2.577496,-0.155191 3.923828,-0.607422 1.346331,-0.452231 2.705657,-1.274421 3.121094,-2.78125 0.0021,-0.0091 0.0041,-0.0182 0.0059,-0.02734 0.134481,-0.553299 0.147257,-1.131371 0.05273,-1.691407 0.508484,0.08592 0.994011,-0.245235 1.09961,-0.75 0.102192,-0.519868 -0.236095,-1.024239 -0.75586,-1.126953 -0.247286,-0.04905 -0.583682,-0.316923 -0.90625,-0.484375 L 28.375,24.775391 c 0.374755,-0.374878 0.374755,-0.982544 0,-1.357422 -0.374878,-0.374755 -0.982544,-0.374755 -1.357422,0 l -0.802734,0.802734 c -0.120742,-0.237359 -0.391882,-0.483754 -0.390625,-0.695312 0.0027,-0.530166 -0.424912,-0.962133 -0.955078,-0.964844 z m 0.158138,3.80463 c 0.204142,0.157194 0.844949,0.813365 1.028994,1.054745 0.184045,0.24138 0.341728,1.058326 0.185914,1.714844 -0.174865,0.603673 -0.828436,1.106804 -1.871093,1.457031 -1.05122,0.353103 -2.368856,0.495201 -3.337891,0.507812 -0.178866,0.0023 -0.132763,0.02492 -0.220703,-0.162109 -0.08794,-0.187027 -0.154912,-0.619828 -0.05664,-1.142578 0.196543,-1.0455 0.97312,-2.374092 2.414063,-3.113281 0.01118,-0.0056 0.02225,-0.0115 0.0332,-0.01758 0.526044,-0.283858 1.227339,-0.649036 1.824156,-0.298884 z" />
</svg>
