<svg xmlns="http://www.w3.org/2000/svg"  viewBox="0 0 50 50" width="1000px" height="1000px"><path d="M 6.9628906 3 A 1.0001 1.0001 0 0 0 6 4 L 6 46 A 1.0001 1.0001 0 1 0 8 46 L 8 5.6171875 L 10.552734 6.8945312 A 1.0001 1.0001 0 0 0 11.447266 6.8945312 L 15.044922 5.0957031 L 16.814453 5.8027344 C 16.301569 6.7160571 16 7.8017411 16 9 C 16 10.333333 16.55519 11.828405 17.072266 13.121094 C 17.391293 13.918663 17.662068 14.509362 17.859375 14.927734 C 17.31795 15.828414 17 16.877551 17 18 L 17 21.269531 C 17 22.512431 16.813752 22.962274 16.578125 23.519531 C 16.342498 24.076789 16 24.833333 16 26 L 16 27 C 16 30.301625 18.698375 33 22 33 L 28 33 C 31.301625 33 34 30.301625 34 27 L 34 26 C 34 24.833333 33.65749 24.076878 33.421875 23.519531 C 33.18626 22.962184 33 22.512976 33 21.269531 L 33 18 C 33 16.877551 32.68205 15.828414 32.140625 14.927734 C 32.337932 14.509362 32.608707 13.918663 32.927734 13.121094 C 33.44481 11.828405 34 10.333333 34 9 C 34 7.8776929 33.737769 6.852835 33.283203 5.9765625 L 35 5.1171875 L 38.552734 6.8945312 A 1.0001 1.0001 0 0 0 39.447266 6.8945312 L 42 5.6171875 L 42 46 A 1.0001 1.0001 0 1 0 44 46 L 44 4 A 1.0001 1.0001 0 0 0 42.552734 3.1054688 L 39 4.8828125 L 35.447266 3.1054688 A 1.0001 1.0001 0 0 0 34.962891 3 A 1.0001 1.0001 0 0 0 34.552734 3.1054688 L 32.044922 4.359375 C 31.098235 3.502434 29.881577 3 28.554688 3 L 21.443359 3 C 20.210268 3 19.07471 3.438217 18.160156 4.1875 L 15.371094 3.0722656 A 1.0001 1.0001 0 0 0 14.552734 3.1054688 L 11 4.8828125 L 7.4472656 3.1054688 A 1.0001 1.0001 0 0 0 6.9628906 3 z M 21.443359 5 L 28.554688 5 C 30.466577 5 32 6.4422222 32 9 C 32 9.6666667 31.55519 11.171595 31.072266 12.378906 C 30.931252 12.73144 30.812698 12.98394 30.683594 13.277344 C 29.915592 12.676373 28.999048 12.261467 28 12.091797 L 28 8 A 1.0001 1.0001 0 0 0 27 7 L 23 7 A 1.0001 1.0001 0 0 0 22 8 L 22 12.091797 C 21.000952 12.261467 20.084408 12.676373 19.316406 13.277344 C 19.187302 12.98394 19.068748 12.73144 18.927734 12.378906 C 18.44481 11.171595 18 9.6666667 18 9 C 18 7.8872442 18.302014 6.9995206 18.787109 6.3359375 A 1.0004701 1.0004701 0 0 0 19.429688 5.6660156 C 19.995801 5.2346902 20.687377 5 21.443359 5 z M 24 9 L 26 9 L 26 12.832031 A 1.0001 1.0001 0 0 0 26 13.158203 L 26 17 L 24 17 L 24 13.167969 A 1.0001 1.0001 0 0 0 24 12.841797 L 24 9 z M 22 14.138672 L 22 18 A 1.0001 1.0001 0 0 0 23 19 L 27 19 A 1.0001 1.0001 0 0 0 28 18 L 28 14.138672 C 29.728181 14.58132 31 16.127594 31 18 L 31 21.269531 C 31 22.757087 31.31374 23.673425 31.578125 24.298828 C 31.84251 24.924231 32 25.166667 32 26 L 32 27 C 32 29.220375 30.220375 31 28 31 L 22 31 C 19.779625 31 18 29.220375 18 27 L 18 26 C 18 25.166667 18.157502 24.924071 18.421875 24.298828 C 18.686248 23.673585 19 22.756631 19 21.269531 L 19 18 C 19 16.127594 20.271819 14.58132 22 14.138672 z M 22 27 A 1.0001 1.0001 0 1 0 22 29 L 28 29 A 1.0001 1.0001 0 1 0 28 27 L 22 27 z M 19 35 A 1.0001 1.0001 0 1 0 19 37 L 27 37 A 1.0001 1.0001 0 1 0 27 35 L 19 35 z M 23 39 A 1.0001 1.0001 0 1 0 23 41 L 31 41 A 1.0001 1.0001 0 1 0 31 39 L 23 39 z M 19 43 A 1.0001 1.0001 0 1 0 19 45 L 27 45 A 1.0001 1.0001 0 1 0 27 43 L 19 43 z"/></svg>